<svg width="50" height="50" viewBox="0 0 50 50" fill="none" xmlns="http://www.w3.org/2000/svg">
<path d="M5.81828 10.9599C4.24094 11.7573 2.7438 12.7322 1.14736 13.4992C1.1359 13.4744 1.155 13.4191 1.07861 13.4305C1.19319 12.8448 1.4529 12.2954 1.42234 11.681L1.59421 11.5093C1.64959 11.4731 2.20529 11.4044 2.31604 11.372C3.26894 11.0991 4.77372 10.7634 5.74953 10.6165L5.81828 10.9599Z" fill="#CEB5B7"/>
<path d="M7.7412 11.3035C8.68073 12.0914 8.83923 12.3852 8.97672 13.5681L6.29753 12.8126C6.29371 12.3642 6.42165 11.9846 6.29753 11.5782C6.34336 11.2978 6.4121 10.9906 6.50377 10.7197C6.45221 10.527 5.93852 10.899 5.8163 10.9601L5.74756 10.6167C5.93088 10.59 6.49804 10.4583 6.60689 10.4793C6.67563 10.4927 7.61898 11.2024 7.73929 11.3035H7.7412Z" fill="#F6956F"/>
<path d="M2.24728 21.6649L6.162 26.1254C5.66931 25.9556 4.98758 25.3966 4.47962 25.2325C4.31349 25.1791 4.18936 25.0933 4.17027 25.3699C3.77307 25.0971 2.96721 24.6983 2.65976 24.4084C2.29311 24.063 0.23073 20.3656 0.0493164 19.8105L1.9723 21.3539L1.49108 15.6934C1.96466 17.4848 1.64003 19.8792 2.24728 21.663V21.6649Z" fill="#F0A271"/>
<path d="M6.02438 12.7439C5.95372 12.9824 6.04156 12.7801 6.09312 12.9843C6.0492 13.0549 6.05493 12.9099 5.88688 13.0186C5.57753 13.2189 5.2338 13.4479 4.92444 13.6368C4.32673 14.0012 3.68892 14.335 3.0702 14.667C2.52978 14.9551 1.87478 15.2107 1.4222 15.6285H1.35346C1.3821 15.2203 1.24079 14.44 1.14722 14.0164C1.27898 14.3255 1.00973 14.5983 1.00973 14.6346C1.00973 14.6861 1.14531 14.6517 1.14722 14.7032C1.16441 15.0715 1.18732 15.4816 1.28471 15.8346C1.21978 16.3211 0.89515 17.3628 0.665996 17.7901C0.656448 17.8092 0.387193 18.0782 0.322266 18.0305C0.59725 16.51 0.780573 14.9436 1.07847 13.4326C1.15486 13.4212 1.13576 13.4765 1.14722 13.5013C1.16823 13.5452 1.10139 13.6616 1.25034 13.6387L6.02438 12.7458V12.7439Z" fill="#DC784F"/>
<path d="M1.49108 15.6953L1.9723 21.3558L0.0493173 19.8124C-0.126367 19.2744 0.215454 18.6257 0.324302 18.0286C0.389229 18.0763 0.658485 17.8073 0.668033 17.7882C0.897187 17.3608 1.22182 16.3191 1.28675 15.8327C1.30203 15.7163 1.35168 15.6743 1.35549 15.6266H1.42424C1.49108 15.619 1.48153 15.6514 1.49299 15.6953H1.49108Z" fill="#DC784F"/>
<path d="M8.97869 13.568C9.06271 14.2815 8.96532 14.9855 9.18493 15.6266C9.18493 15.6495 9.18493 15.6723 9.18493 15.6952C8.88512 15.432 8.57194 15.1534 8.29123 14.8711C7.6897 14.2663 7.0137 13.3887 6.23075 13.0872C6.20593 12.8964 6.2995 12.8278 6.2995 12.8125L8.97869 13.568Z" fill="#CF3F2D"/>
<path d="M6.2996 11.5782C6.23086 11.996 6.14492 12.3394 6.02462 12.7439L1.25058 13.6367C1.10163 13.6615 1.16847 13.5433 1.14746 13.4994C2.7439 12.7324 4.24104 11.7575 5.81838 10.96C5.9406 10.899 6.45237 10.527 6.50584 10.7197C6.41418 10.9906 6.34543 11.2958 6.2996 11.5782Z" fill="#D6D8D9"/>
<path d="M6.29947 12.8124C6.29947 12.8258 6.2059 12.8964 6.23073 13.0872C6.23836 13.1482 6.35294 13.6767 6.36822 13.7053C6.30138 13.7683 6.19444 13.7568 6.16198 13.774C6.02831 13.8236 5.55472 13.6901 5.50889 13.7053C5.15752 13.8198 3.55345 14.5906 3.13906 14.8023L3.07031 14.665C3.68903 14.3349 4.32684 14.001 4.92455 13.6347L5.887 13.0166C6.05504 12.9078 6.04931 13.0528 6.09323 12.9822C6.04167 12.7781 5.95383 12.9822 6.02449 12.7419C6.14479 12.3355 6.23073 11.994 6.29947 11.5762C6.4236 11.9844 6.29565 12.3641 6.29947 12.8105V12.8124Z" fill="#CF5A47"/>
<path d="M10.9016 25.0266C11.1823 25.2956 11.5432 26.6482 11.7265 27.0851L10.9016 28.5942C10.2485 28.3424 9.56867 28.1821 8.90985 27.9074C8.97669 27.358 6.47509 26.5109 6.50565 26.2953C6.75963 26.1579 7.00788 25.9843 7.26186 25.8489C7.57312 25.6848 9.08172 24.9465 9.32233 24.8873C9.78064 24.7767 10.5712 24.708 10.9016 25.0247V25.0266Z" fill="#CF5A47"/>
<path d="M6.16214 26.1255C6.24043 26.1522 6.27863 26.2075 6.334 26.2629L7.26208 25.8508C7.0081 25.9843 6.76176 26.1598 6.50587 26.2972C6.47532 26.5128 8.97691 27.3599 8.91008 27.9093C7.08448 27.1519 5.79931 26.488 4.17041 25.37C4.18951 25.0934 4.31363 25.1792 4.47977 25.2326C4.98773 25.3967 5.66946 25.9557 6.16214 26.1255Z" fill="#DC784F"/>
<path d="M12.8244 29.4183C12.9237 29.6854 12.9905 30.0574 13.0993 30.3112C12.3527 29.2905 12.0681 29.0463 10.9014 28.596L11.7263 27.0869C12.0586 27.8825 12.2973 28.7353 12.8244 29.4202V29.4183Z" fill="#CF3F2D"/>
<path d="M6.29927 23.586C6.45586 23.6604 6.55898 23.8436 6.74612 23.9294C7.56535 24.3072 8.47815 24.5647 9.3222 24.891C9.08158 24.9482 7.57299 25.6866 7.26172 25.8525L6.33365 26.2646C6.27827 26.2093 6.24008 26.154 6.16178 26.1273L2.24707 21.6667C2.333 21.6057 2.4724 21.6381 2.55643 21.6667C3.54179 22.0121 5.22225 23.0747 6.29927 23.5879V23.586Z" fill="#DC784F"/>
<path d="M1.3535 15.6265C1.34968 15.6742 1.30003 15.7162 1.28475 15.8326C1.18736 15.4796 1.16444 15.0675 1.14726 14.7012C1.14535 14.6497 1.01168 14.6841 1.00977 14.6325C1.00977 14.5982 1.27902 14.3254 1.14726 14.0144C1.24083 14.4399 1.38023 15.2182 1.3535 15.6265Z" fill="#FADCC2"/>
<path d="M5.88676 13.0186L4.92432 13.6367C5.23367 13.4478 5.5755 13.2208 5.88676 13.0186Z" fill="#F6956F"/>
<path d="M9.18289 15.6953C9.19244 15.9701 9.10841 16.2868 9.11414 16.5195C8.71121 16.1189 8.39231 15.4759 8.01611 15.0791L8.2911 14.873C8.57181 15.1554 8.88308 15.434 9.1848 15.6972L9.18289 15.6953Z" fill="#F6956F"/>
<path d="M8.29143 14.871L8.01645 15.077C7.71664 14.7622 6.46775 13.8884 6.36845 13.7053C6.35317 13.6767 6.2386 13.1501 6.23096 13.0872C7.0139 13.3886 7.6899 14.2662 8.29143 14.871Z" fill="#CF5A47"/>
<path d="M6.16212 13.7723C5.72864 13.9917 4.06155 14.8502 3.82666 15.144C3.60706 15.0639 2.51667 15.4397 2.65989 15.041C2.8012 14.9246 2.9807 14.8827 3.14111 14.8006C3.5555 14.5889 5.15958 13.8181 5.51094 13.7036C5.55487 13.6884 6.03036 13.8219 6.16403 13.7723H6.16212Z" fill="#E5613D"/>
<path d="M4.9931 22.0083C4.80786 22.2582 4.26171 21.5695 4.16814 21.4245C3.83205 20.9094 3.18087 19.4327 2.93262 18.8165C2.85051 18.6142 2.67864 18.2384 2.79513 18.0266C2.98609 18.5742 4.60544 21.4016 4.9931 22.0064V22.0083Z" fill="#E5613D"/>
<path d="M3.13906 14.8024C2.97866 14.8845 2.79915 14.9265 2.65784 15.0428C2.51462 15.4416 3.60501 15.0657 3.82462 15.1459C3.7425 15.247 2.75141 17.3857 2.72659 17.5135C2.67694 17.7634 2.71513 17.7997 2.79533 18.0286C2.67885 18.2404 2.85071 18.6143 2.93283 18.8184C3.18298 19.4347 3.83416 20.9113 4.16835 21.4265C4.26192 21.5695 4.80616 22.2602 4.9933 22.0103C5.36758 22.594 5.85454 23.0634 6.29757 23.588C5.22054 23.0748 3.53817 22.0122 2.55472 21.6668C2.4707 21.6382 2.3313 21.6058 2.24536 21.6668C1.63811 19.883 1.96274 17.4887 1.48916 15.6972C1.4777 15.6533 1.48916 15.6209 1.42041 15.6285C1.87299 15.2126 2.52799 14.957 3.06841 14.667L3.13715 14.8044L3.13906 14.8024Z" fill="#CF3F2D"/>
<path d="M2.62539 18.4387C2.84499 18.6543 2.67122 19.2934 2.55664 19.5357L2.62539 18.4387Z" fill="#CF5A47"/>
<path d="M29.4459 8.21473C29.5547 8.27769 29.5318 8.27578 29.5834 8.14605C31.3154 8.10026 32.6235 8.98168 33.9106 10.342L34.0481 11.1318L34.4606 11.5782C34.2295 12.3948 33.3148 12.7897 32.7438 13.3621L27.7979 15.2833C27.4981 15.2031 27.6088 15.2279 27.3167 15.2146C25.7317 15.1402 23.1556 15.2794 21.5477 15.4206C21.183 15.4531 20.6464 15.4359 20.3122 15.558L17.2549 15.1459C17.1365 15.1993 17.1823 17.2808 17.2205 17.4448C17.2759 17.6814 17.232 17.6204 17.4955 17.6165C17.4268 17.6661 17.3619 17.8512 17.2205 17.8913C17.1843 17.9008 17.127 17.8856 17.083 17.8913C16.9551 17.5631 12.4675 14.3847 11.7934 13.9115C11.7781 13.9001 11.7399 13.923 11.7247 13.9115C10.8042 13.2648 9.87234 12.6676 9.0111 11.9217C8.73612 12.0438 9.16578 13.5033 9.18297 13.7398C9.22689 14.3599 9.16005 15.0066 9.18297 15.6267C8.96336 14.9856 9.06075 14.2816 8.97673 13.5681C8.83924 12.3853 8.67883 12.0915 7.74121 11.3035C8.0162 11.4752 8.24726 11.603 8.60054 11.4409C9.14478 11.191 10.1893 9.50061 10.9016 9.1076L10.6954 9.72574C10.4777 9.91461 10.5503 9.98902 10.4891 10.0691C10.428 10.1493 10.0958 10.4412 10.0767 10.5156C10.0022 10.8151 10.3058 12.0609 10.4891 12.3337C10.7756 12.7592 11.717 13.0339 12.1371 13.2266C13.5102 13.8543 15.2002 14.4419 16.7393 14.5983C16.8959 14.646 17.1804 14.7872 17.3237 14.8044C20.5853 15.2127 26.9023 14.7949 29.9959 13.7742C30.0665 13.7513 30.1601 13.7436 30.2709 13.7055C31.0271 13.4422 31.281 13.3754 31.9876 12.95C32.339 12.7382 32.6751 12.5913 32.95 12.2632C33.1315 12.1868 32.9138 12.0991 32.8469 12.0571C32.4803 11.8339 30.1467 10.8495 29.824 10.7541C28.7928 10.445 26.7056 10.4736 25.8405 10.1359C25.4338 9.97757 23.8393 7.83698 23.3332 7.45923C25.1359 7.58515 26.9348 7.83698 28.7241 8.07737C29.1805 8.13842 29.0105 7.96671 29.4459 8.21473Z" fill="url(#paint0_linear_366_138191)"/>
<path d="M23.3327 7.45925C23.8388 7.837 25.4314 9.97569 25.8401 10.1359C26.7051 10.4736 28.7923 10.445 29.8235 10.7541C30.1462 10.8514 32.4798 11.8358 32.8464 12.0571C32.9133 12.0991 33.131 12.1869 32.9495 12.2632C30.49 10.9849 28.0056 10.4736 25.2576 10.2046C23.7567 10.0577 22.164 9.95661 20.6554 9.99858C20.2716 9.72004 19.8362 9.46629 19.4199 9.24308C19.6854 9.07328 20.5886 9.81161 20.7586 9.79253L22.7159 7.39057C23.0463 7.38294 23.0826 7.44208 23.3346 7.45925H23.3327Z" fill="#B8D2EB"/>
<path d="M22.7144 7.39058L20.757 9.79254C20.5852 9.81162 19.6838 9.07329 19.4184 9.24309C18.9983 9.01987 18.433 8.67074 18.0454 8.48759L17.3579 8.04115C18.8493 7.74162 20.4267 7.56419 21.9601 7.45735C22.216 7.44018 22.4509 7.3944 22.7163 7.38867L22.7144 7.39058Z" fill="#C3C6CF"/>
<path d="M34.3916 13.4308C34.5176 14.2989 34.2522 16.2334 34.1853 17.2045C33.8989 17.2827 34.1109 17.8093 34.0479 17.9944C33.9963 18.147 33.5743 17.9772 33.4291 18.2691C33.368 18.3931 33.4177 18.9197 33.0854 19.1276C32.8257 19.0265 32.6729 19.0322 32.3979 18.8529L32.5354 17.8226L34.0459 13.0531L34.3209 12.9844C34.2617 13.1446 34.3763 13.3354 34.3897 13.4308H34.3916Z" fill="#CB7769"/>
<path d="M21.9603 7.45926C20.4269 7.56609 18.8496 7.74162 17.3581 8.04305L18.0456 8.48949C17.8336 8.39028 17.2684 8.11555 17.0832 8.07739C16.39 7.9324 15.3072 8.19377 14.5758 8.28344C14.2856 8.31778 13.8483 8.18423 13.6821 8.21476C13.621 8.22621 13.5236 8.41508 13.5103 8.4208C13.241 8.52764 10.9724 9.68952 10.8655 9.79254C10.8043 9.85359 10.7031 9.91273 10.7967 9.99858C10.854 10.0577 11.6847 10.0825 11.5873 10.342C11.2493 10.2428 10.854 10.0177 10.4893 10.0673C10.5504 9.98714 10.4778 9.91464 10.6955 9.72386C11.1481 9.32893 12.1086 9.25262 12.4466 8.69363L12.5154 8.83099L12.481 8.48758C14.5281 7.65386 19.9648 6.78197 22.1303 7.04907C22.1532 7.05289 22.3976 7.27229 22.5771 7.22078L21.9584 7.46116L21.9603 7.45926Z" fill="#DFF3FD"/>
<path d="M34.3918 13.4306C34.3785 13.3352 34.2639 13.1445 34.3231 12.9842L34.0481 13.0529L32.5376 17.8225L32.6063 13.568C32.6426 13.5317 32.7076 13.3982 32.7438 13.362C33.3148 12.7896 34.2314 12.3947 34.4606 11.5781H34.5293C34.5179 12.1905 34.4797 12.8258 34.3918 13.4306Z" fill="#A84C56"/>
<path d="M34.0476 19.7439C33.8986 20.7074 33.4212 21.7719 33.2914 22.764C33.026 22.7793 32.4951 22.8632 32.1934 22.9014L34.0476 19.7439Z" fill="#90463D"/>
<path d="M34.1854 17.2045C34.1338 17.9581 34.1491 18.7232 34.0479 19.4691C33.7099 19.4005 33.4024 19.2497 33.0854 19.1257C33.4177 18.9178 33.3681 18.3912 33.4292 18.2672C33.5743 17.9753 33.9963 18.1451 34.0479 17.9925C34.1109 17.8074 33.8989 17.2809 34.1854 17.2026V17.2045Z" fill="#DC784F"/>
<path d="M17.0831 17.8914C17.0869 17.9143 17.0774 17.9391 17.0831 17.96C16.9571 18.0325 16.8559 18.147 16.7394 18.2348C15.4332 19.2078 12.0723 22.2222 11.1079 23.4508L11.7954 13.9116C12.4695 14.3867 16.9571 17.5632 17.085 17.8914H17.0831Z" fill="#FBC2A1"/>
<path d="M27.3163 15.2146C26.2488 17.399 24.9178 19.4385 23.7453 21.5619L23.9516 21.665C23.8656 21.7432 23.7587 21.7966 23.6766 21.871C23.6632 21.8825 23.6212 21.8596 23.6078 21.871C23.5181 21.8653 23.4914 21.7375 23.4016 21.7336L21.5474 15.4206C23.1553 15.2794 25.7313 15.1402 27.3163 15.2146Z" fill="#CB7769"/>
<path d="M23.4016 21.7337C23.4016 21.7337 23.4265 21.8462 23.3673 21.871C21.4252 20.713 19.5958 19.3413 17.6671 18.166C17.5296 18.0821 17.3959 17.9924 17.2202 18.0287V17.8913C17.3615 17.8512 17.4265 17.6662 17.4952 17.6166C17.8638 17.3457 20.1477 15.6172 20.3119 15.558C20.6461 15.4359 21.1827 15.4531 21.5474 15.4207L23.4016 21.7337Z" fill="url(#paint1_linear_366_138191)"/>
<path d="M27.7978 15.2833C28.5101 15.4741 29.2682 16.098 29.9958 16.3136C29.9843 16.325 30.0072 16.3708 29.9958 16.3822C29.9862 16.3918 29.9824 16.4662 29.8583 16.5883C28.0442 18.3702 25.85 19.9518 23.9518 21.6669L23.7456 21.5639C24.9181 19.4405 26.2491 17.401 27.3166 15.2166C27.6088 15.2299 27.4961 15.2051 27.7978 15.2852V15.2833Z" fill="#CB7769"/>
<path d="M11.7932 13.9096L11.1058 23.4487C11.0332 23.5422 10.9797 23.5956 10.9683 23.7235C10.9645 23.7692 10.9683 23.815 10.9683 23.8608C10.5119 22.968 10.2617 21.8481 9.93709 20.8064C9.89126 20.6595 9.88553 20.3905 9.6621 20.566C9.53798 19.8601 9.1847 18.9615 9.45586 18.3014L11.7226 13.9096C11.7379 13.921 11.776 13.8981 11.7913 13.9096H11.7932Z" fill="#F0A271"/>
<path d="M11.7244 13.9096L9.45765 18.3014C9.18266 18.3338 9.27242 18.2461 9.25141 18.061C9.20367 17.6108 9.12537 16.9468 9.11392 16.5176C9.10819 16.2848 9.19221 15.9681 9.18266 15.6934C9.18266 15.6705 9.18266 15.6476 9.18266 15.6247C9.15975 15.0046 9.22658 14.3579 9.18266 13.7378C9.16548 13.5013 8.73772 12.0418 9.0108 11.9197C9.87203 12.6656 10.8039 13.2628 11.7244 13.9096Z" fill="#FABAA6"/>
<path d="M32.7438 13.3621C32.7075 13.3983 32.6425 13.5319 32.6063 13.5681C31.7183 14.4648 30.8933 15.4206 29.9958 16.3135C29.2683 16.0998 28.5101 15.474 27.7979 15.2833L32.7438 13.3621Z" fill="#ABBBCD"/>
<path d="M20.31 15.5581C20.1458 15.6172 17.8619 17.3457 17.4934 17.6166C17.2298 17.6205 17.2737 17.6815 17.2184 17.4449C17.1802 17.2809 17.1343 15.1994 17.2527 15.146L20.31 15.5581Z" fill="#B8D2EB"/>
<path d="M11.587 10.3418C12.2954 10.5498 13.0116 10.7368 13.7162 10.96C12.5819 11.3015 11.5965 11.9349 10.4889 12.3317C10.3056 12.0589 10.002 10.8131 10.0765 10.5135C10.0956 10.4391 10.4278 10.1453 10.4889 10.0671C10.8556 10.0175 11.249 10.2426 11.587 10.3418Z" fill="#6C7E88"/>
<path d="M17.2202 17.8912V18.0286C17.2202 21.1822 17.2832 24.9464 17.014 28.0466C16.9987 28.2145 17.0235 28.3919 17.014 28.5617C16.993 28.6228 16.8822 28.5865 16.8765 28.5961V28.4587C16.8765 25.1906 17.35 21.3444 17.0827 18.1659C17.0751 18.0725 17.1094 18.0744 17.0827 17.9599C17.077 17.9389 17.0865 17.9141 17.0827 17.8912C17.1266 17.8855 17.1839 17.9008 17.2202 17.8912Z" fill="#FADCC2"/>
<path d="M28.6895 23.5863C28.235 23.7141 27.729 24.0403 27.3165 24.2731C27.1179 24.2655 27.074 24.2903 26.904 24.3418L23.6768 21.8711C23.7589 21.7967 23.8658 21.7433 23.9517 21.6651C25.8499 19.9518 28.044 18.3683 29.8582 16.5864L28.6914 23.5863H28.6895Z" fill="#AF3A25"/>
<path d="M32.5372 17.8226L32.3997 18.8528C31.5824 18.3167 30.8204 16.987 29.9955 16.3822C30.007 16.3707 29.984 16.3249 29.9955 16.3135C30.893 15.4206 31.7161 14.4648 32.6059 13.5681L32.5372 17.8226Z" fill="#9F6A80"/>
<path d="M32.3999 18.8508C32.673 19.0302 32.8277 19.0244 33.0874 19.1255C33.4044 19.2496 33.7118 19.4003 34.0498 19.469C34.0384 19.5567 34.0632 19.6559 34.0498 19.7437L32.1956 22.9012C31.3687 23.0042 31.2217 23.071 30.4789 23.2446C29.9518 23.3667 29.0696 23.4811 28.6934 23.588L29.8601 16.5881C29.9843 16.466 29.9881 16.3916 29.9976 16.3821C30.8226 16.9869 31.5845 18.3166 32.4018 18.8527L32.3999 18.8508Z" fill="#962920"/>
<path d="M30.6143 21.1842C30.8701 20.7759 31 20.5966 31.3017 20.2227C31.0535 20.5985 30.8988 20.8255 30.6143 21.1842Z" fill="#AF3A25"/>
<path d="M31.2998 20.2225C31.4679 19.9707 31.592 19.6864 31.8154 19.467C31.8402 19.778 31.464 20.0184 31.2998 20.2225Z" fill="#AF3A25"/>
<path d="M30.6144 21.1841C30.5151 21.3424 30.4445 21.642 30.2363 21.7335C30.2363 21.4912 30.4979 21.331 30.6144 21.1841Z" fill="#AF3A25"/>
<path d="M17.0831 8.07739C17.2684 8.11555 17.8336 8.39028 18.0456 8.48948C18.4332 8.67264 18.9985 9.01986 19.4186 9.24499C19.8387 9.47011 20.2703 9.72195 20.6541 10.0005C20.2836 10.01 19.9227 10.0444 19.5561 10.0692C17.9425 10.1741 15.6796 10.4298 14.1309 10.8247L17.085 8.0793L17.0831 8.07739Z" fill="#867C7E"/>
<path d="M17.0827 8.07741L14.1285 10.8228C14.1075 10.8285 14.0807 10.8171 14.0597 10.8228L13.5098 8.42082C13.5231 8.41509 13.6205 8.22622 13.6816 8.21477C13.8478 8.18425 14.2832 8.3178 14.5753 8.28345C15.3067 8.19569 16.3876 7.93241 17.0827 8.07741Z" fill="#7B8A93"/>
<path d="M14.0598 10.8229C14.0388 10.8286 13.9376 10.8935 13.7161 10.9602C13.0114 10.737 12.2953 10.55 11.5869 10.3421C11.6862 10.0826 10.8555 10.0597 10.7963 9.99868C10.7027 9.91283 10.8039 9.85368 10.865 9.79263C10.972 9.6877 13.2387 8.52583 13.5099 8.4209L14.0598 10.8229Z" fill="#ABBBCD"/>
<path d="M17.8369 27.4973V27.566C17.8235 27.9857 17.1934 28.3673 17.0807 28.6306C17.0635 28.6725 17.2239 28.6363 17.2182 28.7336C17.2182 28.7508 17.0387 28.6306 17.1494 28.974C17.4664 29.9603 18.5645 31.2329 18.9349 32.2669C18.9922 32.2974 19.3398 31.9578 19.4162 31.8892C19.3608 32.0132 19.1469 32.3528 19.0724 32.4386C18.6409 32.9289 18.0737 33.3009 17.6307 33.8103C17.6192 33.8237 17.4913 33.839 17.3557 34.0164C17.3519 34.0202 17.3309 34.024 17.2869 34.0851C16.5403 33.7054 15.4499 32.3413 14.7796 32.0265C14.4836 31.8872 14.56 32.017 14.3328 32.0952C14.0521 31.706 13.7694 31.3321 13.5078 30.9295C14.1208 30.2122 16.4448 29.2621 16.8726 28.5962C16.8783 28.5867 16.989 28.6248 17.01 28.5619C17.0196 28.3921 16.9948 28.2166 17.01 28.0468C17.4397 28.3043 17.6154 27.7415 17.835 27.4973H17.8369Z" fill="#F58C4A"/>
<path d="M16.1205 27.9781C16.3248 28.1193 16.554 28.4722 16.8767 28.4589V28.5962C16.4489 29.2621 14.123 30.2103 13.512 30.9295C13.5024 30.9143 13.3496 30.9658 13.3057 30.8952C13.1988 30.7273 13.1759 30.4888 13.0995 30.3114C12.9906 30.0576 12.9238 29.6856 12.8245 29.4185C12.4292 28.352 11.4362 26.0207 11.2452 25.061C11.2166 24.916 11.2319 24.6814 11.314 24.5459C12.2535 25.5036 14.9002 27.1367 16.1224 27.9762L16.1205 27.9781Z" fill="#F9AD8B"/>
<path d="M17.2891 34.0852C17.2089 34.194 16.8786 35.1059 16.7735 35.1154C16.594 34.8274 16.3477 34.606 16.1205 34.3599C15.4712 33.6598 14.8926 32.868 14.335 32.0953C14.5622 32.0171 14.4858 31.8874 14.7818 32.0267C15.4521 32.3414 16.5406 33.7056 17.2891 34.0852Z" fill="#CF5A47"/>
<path d="M18.5931 35.8001C18.5339 35.7772 18.3983 35.8154 18.3181 35.8001C17.9362 35.6532 17.327 35.5502 17.0138 35.388C16.63 35.1877 16.3225 34.7394 16.1201 34.3578C16.3474 34.602 16.5918 34.8252 16.7732 35.1133C16.8782 35.1038 17.2086 34.1937 17.2888 34.0831C17.3327 34.022 17.3537 34.0182 17.3575 34.0144L18.5931 35.7982V35.8001Z" fill="#962920"/>
<path d="M19.3498 11.3035C19.0844 11.6316 18.2747 11.458 17.8737 11.5095C17.234 11.5915 15.1812 12.0704 14.509 12.6752C14.425 12.7515 14.2454 12.9156 14.3371 13.053C14.6617 12.7019 14.4135 13.3658 14.9215 13.5681C14.4841 12.9175 15.0322 12.5245 15.6089 12.265C15.9947 12.0914 18.7235 11.5286 18.9737 11.6469C19.029 11.6736 19.029 11.8243 18.9737 11.8529C18.2919 11.8186 16.2754 12.265 15.9851 12.7801C15.6376 13.3964 17.3562 13.9229 17.805 14.0488C18.8228 14.335 19.8693 14.3694 20.8966 14.5983C20.8413 14.356 22.0825 14.4018 21.8935 14.6326C21.8534 14.6822 20.7591 14.8005 20.6236 14.8043C19.7929 14.8253 17.677 14.6937 16.7432 14.5983C15.206 14.4419 13.5141 13.8542 12.1411 13.2266C12.0227 13.0816 12.3702 12.8011 12.4504 12.7458C13.5618 11.9636 16.6554 11.5286 18.1162 11.3741C18.5344 11.3302 18.9336 11.3245 19.3518 11.3054L19.3498 11.3035Z" fill="#432919"/>
<path d="M19.5561 10.0671L19.5905 10.6853L14.7821 10.8913C15.2022 11.1489 17.9444 10.7959 18.0781 10.8913C18.1564 10.9467 18.0933 11.2595 18.1124 11.3721C16.6516 11.5266 13.558 11.9616 12.4466 12.7438C12.3683 12.7992 12.0189 13.0796 12.1373 13.2246C11.7171 13.0319 10.7757 12.7572 10.4893 12.3317C11.5968 11.9349 12.5841 11.3015 13.7165 10.96C13.9361 10.8932 14.0373 10.8284 14.0602 10.8226C14.0832 10.8169 14.108 10.8284 14.129 10.8226C15.6777 10.4277 17.9425 10.174 19.5542 10.0671H19.5561Z" fill="#2B1A10"/>
<path d="M32.9483 12.2631C32.6752 12.5893 32.3372 12.7381 31.9858 12.9499C31.9037 12.9442 31.898 12.8068 31.8483 12.7439C32.3047 12.782 32.8452 12.4329 32.2264 12.0571C31.5409 11.6411 29.4289 11.25 28.6211 11.3015C28.6001 11.2958 28.5734 11.3073 28.5523 11.3015C28.5447 11.3015 28.5772 11.1794 28.518 11.1642C28.4702 11.1527 27.7102 11.189 27.5555 11.1642L27.8305 10.8895C27.292 10.8856 26.7535 10.8933 26.2169 10.8895L26.7325 10.4774L25.2563 10.2026C28.0062 10.4716 30.4906 10.9829 32.9483 12.2612V12.2631Z" fill="#673213"/>
<path d="M20.6543 9.99858C22.1629 9.95661 23.7555 10.0577 25.2565 10.2046L26.7326 10.4794L26.217 10.8914C24.949 10.8819 23.2208 10.8151 21.9929 10.9601C21.928 10.9678 21.9891 11.1547 21.9242 11.1662C21.5805 11.2215 20.956 10.9449 20.4137 10.9601C20.2284 10.9659 19.8962 11.0956 19.6575 11.0288C20.5836 11.3703 19.7148 11.2864 19.3481 11.3035C18.9299 11.3226 18.5289 11.3283 18.1126 11.3722C18.0935 11.2616 18.1565 10.9468 18.0782 10.8914C17.9445 10.7961 15.2023 11.149 14.7822 10.8914L19.5906 10.6854L19.5563 10.0673C19.9248 10.0425 20.2857 10.0081 20.6543 9.99858Z" fill="#512B14"/>
<path d="M31.8503 12.7438C31.77 12.6408 29.8089 11.767 29.5148 11.6468C29.2207 11.5266 28.9438 11.3988 28.6211 11.3034C29.4289 11.2519 31.5409 11.643 32.2264 12.0589C32.8452 12.4348 32.3047 12.782 31.8483 12.7457L31.8503 12.7438Z" fill="#7F5331"/>
<path d="M26.2186 10.8915C26.7552 10.8953 27.2956 10.8877 27.8322 10.8915L27.5572 11.1663C27.71 11.1911 28.47 11.1548 28.5196 11.1663C28.5788 11.1815 28.5464 11.3017 28.554 11.3036C28.1587 11.2865 28.5158 11.42 28.5884 11.441C28.8882 11.5268 29.2052 11.6089 29.5165 11.647C29.8105 11.7672 31.7717 12.641 31.8519 12.744C31.9016 12.807 31.9073 12.9425 31.9894 12.9501C31.2829 13.3755 31.0289 13.4423 30.2727 13.7056C31.2466 13.1084 29.4993 12.6315 29.1059 12.2308C29.4343 12.3663 29.104 11.731 29.0715 11.7157C28.3134 11.3742 26.1326 11.6394 25.2256 11.441L25.0881 11.647C26.6062 11.9408 29.5909 11.937 29.9996 13.7743C26.906 14.795 20.5871 15.2128 17.3274 14.8045C17.1842 14.7873 16.8996 14.6462 16.743 14.5985C17.6768 14.6938 19.7946 14.8255 20.6234 14.8045C20.7609 14.8007 21.8532 14.6824 21.8933 14.6328C22.0823 14.4019 20.8411 14.3562 20.8965 14.5985C19.8691 14.3714 18.8245 14.3371 17.8048 14.049C17.3541 13.9231 15.6355 13.3965 15.9849 12.7803C16.2752 12.2652 18.2917 11.8187 18.9735 11.8531C19.0289 11.8245 19.0289 11.6737 18.9735 11.647C18.7214 11.5287 15.9926 12.0916 15.6087 12.2652C15.032 12.5246 14.484 12.9196 14.9213 13.5682C14.4133 13.3679 14.6616 12.704 14.3369 13.0531C14.2453 12.9157 14.4248 12.7517 14.5088 12.6754C15.181 12.0687 17.2338 11.5917 17.8735 11.5097C18.2746 11.4582 19.0861 11.6318 19.3497 11.3036C19.7163 11.2865 20.5852 11.3704 19.659 11.0289C19.8958 11.0957 20.2281 10.9659 20.4152 10.9602C20.9576 10.943 21.582 11.2197 21.9257 11.1663C21.9907 11.1567 21.9296 10.9678 21.9945 10.9602C23.2224 10.8152 24.9506 10.882 26.2186 10.8915Z" fill="#7F5331"/>
<path d="M30.271 13.7055C30.1602 13.7437 30.0667 13.7513 29.996 13.7742C29.5873 11.937 26.6026 11.9408 25.0845 11.647L25.222 11.4409C26.129 11.6393 28.3117 11.3741 29.0679 11.7156C29.1004 11.729 29.4308 12.3662 29.1023 12.2308C29.4976 12.6333 31.2449 13.1084 30.2691 13.7055H30.271Z" fill="#966844"/>
<path d="M19.1435 12.1946V12.4006C18.9506 12.4827 18.752 12.5151 18.5935 12.6754C18.118 13.1542 18.4541 13.3927 18.9373 13.6712C18.8571 13.8067 18.2059 13.6312 18.0436 13.5682C16.2886 12.889 18.6317 12.4121 19.1416 12.1965L19.1435 12.1946Z" fill="#62402B"/>
<path d="M19.1436 12.1944C18.6318 12.41 16.2906 12.8889 18.0455 13.5661C17.9959 13.7779 17.2378 13.4746 17.1862 13.4288C16.0309 12.4005 18.8437 12.0208 19.4529 11.9197C19.5942 12.0723 19.2868 12.1334 19.1436 12.1944Z" fill="#432919"/>
<path d="M18.6627 12.744C18.9186 12.5056 19.9956 12.2938 20.3794 12.1946C20.2247 12.5704 19.734 12.5304 19.4513 12.744C19.2718 12.8814 19.0026 13.4843 18.9014 13.4995C18.7276 13.5262 18.2827 13.097 18.6608 12.744H18.6627Z" fill="#62402B"/>
<path d="M16.9114 12.4005C16.9687 12.3948 17.0546 12.3815 17.0832 12.4349C16.4263 12.9366 16.7643 13.4308 17.427 13.6693C17.427 13.8887 16.222 13.3297 16.1914 13.1198C16.1628 12.9252 16.7471 12.4158 16.9133 12.3986L16.9114 12.4005Z" fill="#62402B"/>
<path d="M20.3792 12.1945C19.9954 12.2937 18.9184 12.5055 18.6625 12.744L18.5938 12.6753C18.7522 12.515 18.9489 12.4826 19.1437 12.4006C19.5237 12.2403 21.6186 11.6813 21.926 11.7138C22.0425 11.7271 22.0845 11.7691 21.9948 11.8511C21.9298 11.9103 20.616 12.1335 20.3812 12.1945H20.3792Z" fill="#966844"/>
<path d="M28.5522 11.3037C28.5732 11.3094 28.5999 11.2979 28.6209 11.3037C28.9417 11.399 29.2091 11.5211 29.5146 11.6471C29.2053 11.6089 28.8864 11.5269 28.5866 11.441C28.514 11.42 28.1569 11.2865 28.5522 11.3037Z" fill="#966844"/>
<path d="M20.8946 12.8813C21.0302 13.2209 21.4827 13.2076 21.7539 13.3965C21.561 13.4899 20.6807 13.198 20.8946 12.8813Z" fill="#966844"/>
<path d="M16.7392 18.2329L10.9702 23.7217C10.9817 23.5939 11.0351 23.5405 11.1077 23.447C12.0721 22.2202 15.433 19.204 16.7392 18.231V18.2329Z" fill="#FDF0EA"/>
<path d="M17.0825 18.1641L16.7388 18.2327C16.8553 18.1469 16.9546 18.0305 17.0825 17.958C17.1092 18.0725 17.0749 18.0706 17.0825 18.1641Z" fill="#F6956F"/>
<path d="M23.4018 21.7338C23.4916 21.7376 23.5183 21.8654 23.6081 21.8712C23.5374 21.9341 23.4725 22.0829 23.4018 22.1459C22.1778 23.2505 21.0205 24.4372 19.8308 25.5762C19.1014 26.2744 18.5457 26.7113 17.8391 27.4974C17.6195 27.7416 17.4438 28.3044 17.0142 28.0468C17.2834 24.9447 17.2204 21.1805 17.2204 18.0288C17.3961 17.9925 17.5298 18.0822 17.6672 18.1661C19.596 19.3414 21.4254 20.7131 23.3675 21.8712C23.4266 21.8464 23.3942 21.7338 23.4018 21.7338Z" fill="#F6956F"/>
<path d="M26.9041 24.3416C26.4076 24.4942 24.6374 25.2459 24.2249 25.5073C23.7093 25.8354 23.4171 26.3925 23.0581 26.879L23.4018 22.1438C23.4725 22.0808 23.5374 21.932 23.6081 21.869C23.6214 21.8576 23.6635 21.8805 23.6768 21.869L26.9041 24.3397V24.3416Z" fill="#DC784F"/>
<path d="M17.0826 18.1641C17.3499 21.3444 16.8764 25.1906 16.8764 28.4568C16.5536 28.4721 16.3245 28.1172 16.1201 27.9761L11.1055 24.271C10.9947 24.1184 11.0062 23.9353 10.968 23.859C10.968 23.8132 10.9642 23.7674 10.968 23.7216L16.737 18.2327L17.0807 18.1641H17.0826Z" fill="url(#paint2_linear_366_138191)"/>
<path d="M10.9703 23.8609C11.0085 23.9372 10.997 24.1204 11.1078 24.273C11.1708 24.3589 11.2414 24.4733 11.314 24.5478C11.2319 24.6832 11.2166 24.9179 11.2453 25.0629C11.4362 26.0225 12.4292 28.3539 12.8245 29.4204C12.2956 28.7355 12.0569 27.8826 11.7265 27.0871C11.5432 26.6502 11.1842 25.2975 10.9015 25.0285C10.1912 23.6644 9.93145 22.0924 9.66602 20.568C9.88944 20.3906 9.89517 20.6615 9.941 20.8084C10.2656 21.8501 10.5158 22.97 10.9722 23.8628L10.9703 23.8609Z" fill="#FBB06E"/>
<path d="M23.058 26.879C22.8479 27.1652 22.3228 27.9036 22.1643 28.1821C21.5398 28.7201 20.7187 28.2908 19.9663 28.5255C19.0554 28.5446 18.1273 28.6514 17.2184 28.7316C17.2241 28.6343 17.0637 28.6705 17.0809 28.6285C17.1935 28.3672 17.8237 27.9837 17.8371 27.564L19.8288 25.5741C21.0204 24.4351 22.1757 23.2484 23.3998 22.1438L23.0561 26.879H23.058Z" fill="url(#paint3_linear_366_138191)"/>
<path d="M19.9663 28.5274C20.6328 28.5121 21.2954 28.5426 21.958 28.596C21.9313 28.6552 21.9141 28.8059 21.8893 28.8708C20.9822 29.7675 20.3711 31.0476 19.4163 31.8909C19.3399 31.9577 18.9924 32.2992 18.9351 32.2686C18.5646 31.2327 17.4647 29.9621 17.1496 28.9757C17.0389 28.6323 17.2165 28.7525 17.2184 28.7353C18.1273 28.6552 19.0535 28.5503 19.9663 28.5293V28.5274Z" fill="#CF5A47"/>
<path d="M21.8913 28.8689C21.8417 29.0024 21.794 29.1436 21.7539 29.281C21.6679 29.5748 21.5992 29.8724 21.5476 30.1739C21.1561 30.6756 21.4617 31.4407 21.2039 32.0607C21.1962 32.0779 20.9805 32.158 20.9289 32.2668C20.6463 32.8734 20.3331 33.4572 19.9665 34.0162C19.5884 33.7034 19.4165 32.8257 19.0728 32.4385C19.1472 32.3545 19.3611 32.013 19.4165 31.889C20.3713 31.0476 20.9824 29.7656 21.8894 28.8689H21.8913Z" fill="#BB3834"/>
<path d="M19.0749 32.4385C19.4186 32.8258 19.5905 33.7034 19.9686 34.0163C20.2569 34.2566 21.0494 33.9953 21.5478 34.0849C21.5517 34.1078 21.544 34.1307 21.5478 34.1536C21.0074 34.1937 20.3658 34.3062 19.8311 34.291C19.5408 34.2834 19.0386 34.2605 18.7655 34.2223C18.4925 34.1841 18.269 33.9037 18.0437 34.1536C17.8088 34.0754 17.5491 34.1536 17.6312 33.8102C18.0743 33.3008 18.6414 32.9269 19.073 32.4385H19.0749Z" fill="#DD6626"/>
<path d="M17.6329 33.8103C17.5508 34.1537 17.8086 34.0755 18.0454 34.1537C18.5552 34.3235 19.1109 34.4036 19.6246 34.5658C19.4623 34.9417 19.3687 35.4835 19.1434 35.8689C18.7825 35.867 18.983 35.949 18.5934 35.8002L17.3579 34.0163C17.4935 33.8389 17.6214 33.8237 17.6329 33.8103Z" fill="#CF3F2D"/>
<path d="M19.8306 25.5759L17.8389 27.5658V27.4971C18.5473 26.7111 19.1011 26.2742 19.8306 25.5759Z" fill="#FADCC2"/>
<path d="M16.1201 27.978C14.898 27.1366 12.2512 25.5054 11.3117 24.5477C11.2391 24.4733 11.1685 24.3588 11.1055 24.2729L16.1201 27.978Z" fill="#FDF0EA"/>
<path d="M21.8227 34.9091C21.8915 35.1438 21.9431 35.3632 22.029 35.5959C21.0684 35.7352 20.1213 35.8764 19.1436 35.8707C19.3689 35.4853 19.4625 34.9435 19.6248 34.5676C19.6324 34.5523 19.8406 34.4074 19.831 34.2929C20.3657 34.3081 21.0073 34.1956 21.5478 34.1555C21.5917 34.3673 21.7502 34.6649 21.8227 34.911V34.9091Z" fill="#962920"/>
<path d="M22.1643 28.1841C22.0631 28.3653 22.044 28.4035 21.958 28.5962C21.2954 28.5428 20.6328 28.5122 19.9663 28.5275C20.7187 28.2928 21.5398 28.7221 22.1643 28.1841Z" fill="#FBB06E"/>
<path d="M21.5475 30.1738C21.5227 30.3188 21.4272 30.5821 21.41 30.7233C21.2859 31.7764 21.3432 33.0451 21.5475 34.0849C21.0491 33.9952 20.2566 34.2566 19.9683 34.0162C20.3349 33.4572 20.6462 32.8734 20.9307 32.2667C20.9823 32.158 21.1981 32.0778 21.2057 32.0607C21.4635 31.4406 21.158 30.6756 21.5494 30.1738H21.5475Z" fill="#CF3F2D"/>
<path d="M19.8309 34.2912C19.8404 34.4057 19.6323 34.5507 19.6247 34.566C19.111 34.4038 18.5553 34.3237 18.0454 34.1539C18.2688 33.9039 18.4923 34.1844 18.7672 34.2225C19.0422 34.2607 19.5425 34.2836 19.8328 34.2912H19.8309Z" fill="#E78C24"/>
<path d="M49.8463 34.5658C49.7279 35.1744 49.6859 35.4167 49.5025 36.0062C48.6566 36.8552 48.2594 37.5764 47.2358 38.2708C46.7049 38.6295 44.5261 39.9192 44.0086 40.1233C43.745 40.2264 43.6075 40.1024 43.5273 40.1233C43.8138 39.9173 44.0792 39.7322 44.3523 39.5052C44.5299 39.3564 44.7514 39.198 44.9023 39.0244C45.689 38.9863 46.2333 38.2556 46.7565 37.7901C46.9971 37.5764 47.1957 37.2196 47.4783 36.9659C48.204 36.3115 49.1836 36.0387 49.6419 34.976C49.682 34.8825 49.745 34.562 49.7794 34.4265C49.8654 34.4246 49.8596 34.501 49.8482 34.5639L49.8463 34.5658Z" fill="#BE783A"/>
<path d="M49.4342 34.9094C49.4457 34.9094 49.4858 35.0335 49.6405 34.9781C49.1821 36.0408 48.2025 36.3136 47.4769 36.968C47.1961 37.2217 46.9956 37.5766 46.755 37.7922L45.6895 38.273C45.7391 37.9925 45.9931 37.7788 46.1363 37.5175C46.501 36.8478 46.5431 36.6456 47.0988 36.077C47.1942 35.9797 48.1624 35.0773 48.2312 35.0468C48.2865 35.0239 49.3368 34.9075 49.4323 34.9094H49.4342Z" fill="#791915"/>
<path d="M23.6082 36.762C23.5032 36.8516 23.7744 37.1683 23.8145 37.2084C24.6872 38.0765 26.3963 38.9941 26.2187 40.4002H26.1499C25.5942 40.011 25.0977 39.5741 24.5019 39.2345C24.1353 38.8492 23.6636 38.4008 23.3352 38.0002C23.0926 37.7044 22.8425 37.445 22.6477 37.1073C22.4529 36.7696 22.176 36.0007 22.029 35.5982C21.9431 35.3654 21.8934 35.146 21.8228 34.9114C22.2314 35.0392 22.3173 35.6173 22.579 35.9073C22.8158 36.1705 23.3065 36.5044 23.6102 36.7658L23.6082 36.762Z" fill="#F1C751"/>
<path d="M49.5027 36.0063C49.4397 36.2067 49.369 36.428 49.2965 36.6245C49.0291 37.3552 48.9795 37.6757 48.4715 38.271C47.7898 39.0722 46.8407 39.782 45.9986 40.3982C45.7026 40.6157 45.3455 40.8999 45.0361 41.085C45.4391 39.8907 46.5314 39.2497 47.2341 38.271C48.2577 37.5765 48.6549 36.8553 49.5008 36.0063H49.5027Z" fill="#9F4D23"/>
<path d="M42.8405 40.3295C42.6113 40.7416 42.0212 41.2358 41.6393 41.4952C41.2058 41.789 39.8729 42.5503 39.407 42.7296C38.3796 43.1264 36.4012 42.9833 35.2173 42.9356C36.3478 42.5312 37.5642 41.3674 38.6508 41.0145C39.4853 40.7435 40.7093 40.7073 41.6049 40.5337C42.0136 40.4536 42.4375 40.4135 42.8405 40.3276V40.3295Z" fill="#9F4D23"/>
<path d="M33.4294 40.8101C35.1595 40.8273 36.9125 41.0982 38.6502 41.0162C37.5637 41.3691 36.3472 42.5329 35.2168 42.9374C35.1251 42.9335 35.0334 42.9412 34.9418 42.9374C34.9628 42.8305 34.8463 42.7103 34.7699 42.6626C33.9297 42.1532 32.7572 41.6782 31.8501 41.2222C31.9666 41.0925 32.316 40.8521 32.4688 40.8101C32.9233 40.6861 33.057 40.8063 33.4313 40.8101H33.4294Z" fill="#CF892B"/>
<path d="M43.5277 40.1235C43.6079 40.1026 43.7454 40.2266 44.0089 40.1235C44.1541 40.6139 44.0758 41.1309 44.3527 41.4953C43.8294 41.7376 43.2527 41.8749 42.7047 42.0447C41.7919 42.3252 40.8199 42.5961 39.888 42.8002C39.7257 42.8365 39.3915 43.0006 39.4068 42.7315C39.8727 42.5522 41.2056 41.791 41.6391 41.4972C42.021 41.2377 42.6111 40.7417 42.8402 40.3315C43.1305 40.2704 43.2699 40.196 43.5277 40.1254V40.1235Z" fill="#9F4D23"/>
<path d="M34.9418 42.9376C34.5274 42.9205 33.8973 42.7716 33.4313 42.7316C32.3295 42.6362 31.6076 42.7907 30.5459 42.4569L31.7814 41.2225C31.8005 41.232 31.8311 41.2129 31.8502 41.2225C32.7553 41.6804 33.9297 42.1535 34.77 42.6629C34.8464 42.7087 34.9609 42.8308 34.9418 42.9376Z" fill="#BA6428"/>
<path d="M32.0565 38.8205C32.0852 38.8339 32.1635 38.8072 32.194 38.8205C32.4423 38.9255 32.5893 38.8148 33.019 39.0953C33.4486 39.3757 32.9636 39.5589 33.8439 39.4387C33.8019 39.5818 33.7332 39.4253 33.7752 39.576C33.8573 39.866 34.1036 39.9061 34.3595 39.9194C35.7898 39.9958 37.5371 39.3891 38.9961 39.4387C38.9827 39.4654 38.9579 39.5741 38.9273 39.6447C38.8949 39.7191 38.6065 40.0988 38.6523 40.1598C40.9152 40.0167 43.1934 39.5302 45.2119 38.479L45.2806 38.6164C45.1355 38.7385 45.0247 38.8873 44.9025 39.0285C44.7516 39.2021 44.5301 39.3604 44.3525 39.5093L41.0565 40.4021C40.2793 40.4498 39.3131 40.9745 38.4117 40.7455L38.5492 40.1274C38.4957 40.1102 37.602 40.2609 37.4512 40.2648C36.3226 40.2896 33.9394 40.4651 32.9521 40.2648C32.7115 40.2152 32.3678 40.0148 32.0584 39.9213C31.8197 39.3719 31.1361 39.143 30.6854 38.8243C30.5002 38.6946 30.2367 38.4046 30.0323 38.2749C29.2341 37.7674 28.2755 37.4221 27.5938 36.8345C27.9298 36.9699 28.3404 36.9852 28.7262 37.1779C29.194 37.4106 31.6994 39.1811 31.8866 39.1678C31.9725 39.162 32.1692 38.9426 32.0584 38.8243L32.0565 38.8205Z" fill="#CF892B"/>
<path d="M45.9986 37.5154C46.0406 37.5078 46.0922 37.5192 46.1361 37.5154C45.9948 37.7768 45.7389 37.9885 45.6893 38.2709L46.7548 37.7901C46.2316 38.2556 45.6874 38.9863 44.9006 39.0245C45.0228 38.8833 45.1336 38.7345 45.2787 38.6124L45.21 38.475C43.1915 39.5281 40.9133 40.0127 38.6504 40.1558C38.6046 40.0967 38.893 39.7151 38.9254 39.6407C39.6071 39.4537 40.3347 39.4251 41.0203 39.2973C41.3182 39.242 43.0922 38.9558 43.2526 38.8852C43.8007 39.1809 45.1221 38.1564 45.4506 37.6508C45.6377 37.6089 45.8191 37.5497 46.0005 37.5135L45.9986 37.5154Z" fill="#9F4D23"/>
<path d="M45.038 41.0851C44.9578 41.1328 44.9731 41.1519 44.9693 41.1538C44.742 41.2854 44.5969 41.3827 44.3506 41.4972C44.0737 41.1328 44.152 40.6158 44.0068 40.1255C44.5243 39.9213 46.7051 38.6316 47.2341 38.2729C46.5313 39.2517 45.439 39.8927 45.0361 41.087L45.038 41.0851Z" fill="#903B1F"/>
<path d="M44.3506 39.5073C44.0776 39.7344 43.8121 39.9194 43.5257 40.1255C43.2698 40.1961 43.1304 40.2705 42.8382 40.3315C42.4334 40.4174 42.0095 40.4574 41.6027 40.5376C41.5378 40.4899 41.0814 40.3983 41.0527 40.4002L44.3487 39.5073H44.3506Z" fill="#D6A35E"/>
<path d="M32.0564 39.9173C32.3658 40.0108 32.7095 40.2111 32.9501 40.2607C32.7993 40.7854 33.565 40.5488 33.4313 40.8102C33.0571 40.8064 32.9234 40.6862 32.4689 40.8102L30.0647 40.2607C27.4542 39.0111 25.9342 38.765 23.6083 36.7617C23.3047 36.5004 22.8158 36.1665 22.5771 35.9032C22.3174 35.6151 22.2295 35.0371 21.8209 34.9073C21.7483 34.6612 21.5898 34.3636 21.5459 34.1518C21.5421 34.1289 21.5497 34.106 21.5459 34.0831C21.3416 33.0415 21.2843 31.7747 21.4084 30.7215C21.6089 30.6261 21.6127 31.0382 21.6146 31.0993C21.6337 31.6831 21.4466 33.0396 21.6146 33.5699C21.6662 33.7302 22.1818 34.1537 22.3021 34.3254C22.4358 34.5143 22.4988 35.0828 22.6802 35.184C22.7299 35.2126 23.0793 35.184 23.2989 35.3213C23.9597 35.7353 24.6166 36.3973 25.1875 36.9335C25.2181 36.9621 25.3059 37.2769 25.3594 37.3112C25.4071 37.3398 26.1366 37.4314 26.3218 37.5173C28.3613 38.4674 29.826 39.2457 32.0564 39.9192V39.9173Z" fill="#F7E7AF"/>
<path d="M30.0649 40.2609C30.6492 40.5413 31.2087 40.9344 31.7816 41.2224L30.5461 42.4568C29.0872 41.9989 27.6683 40.9305 26.2189 40.3983C26.3965 38.9922 24.6874 38.0764 23.8147 37.2064C23.7746 37.1664 23.5035 36.8497 23.6085 36.76C25.9344 38.7632 27.4544 39.0093 30.0649 40.259V40.2609Z" fill="url(#paint4_linear_366_138191)"/>
<path d="M41.0548 40.3982C41.0834 40.3982 41.5398 40.4878 41.6047 40.5355C40.7091 40.7091 39.487 40.7454 38.6506 41.0163C36.9128 41.0983 35.1617 40.8274 33.4297 40.8103C33.5653 40.5508 32.7976 40.7874 32.9485 40.2608C33.9357 40.4611 36.3189 40.2856 37.4475 40.2608C37.5984 40.257 38.494 40.1063 38.5455 40.1234L38.408 40.7416C39.3094 40.9705 40.2756 40.4459 41.0529 40.3982H41.0548Z" fill="#EDCA83"/>
<path d="M32.4691 40.8102C32.3183 40.8522 31.9669 41.0926 31.8504 41.2223C31.8313 41.2128 31.8008 41.2318 31.7817 41.2223C31.2088 40.9342 30.6493 40.5412 30.0649 40.2607L32.4691 40.8102Z" fill="#F1C751"/>
<path d="M21.8226 29.3499C21.9639 30.5538 21.6125 31.956 22.0976 33.261C22.1243 33.3316 22.0899 33.4441 22.2351 33.467C22.2599 33.6082 22.3611 33.5796 22.4413 33.6044C22.3917 33.8753 22.4585 33.862 22.5788 34.0165C22.8901 34.421 23.7074 34.751 24.0893 35.1135C24.4082 35.4168 24.6202 35.8995 24.9143 36.2105C25.5406 36.8744 25.5903 36.3918 26.3216 36.5539C26.3885 36.5692 26.3216 36.7409 26.3904 36.76C28.0613 37.2121 29.123 38.1947 30.6832 38.8185C31.1358 39.1371 31.8175 39.368 32.0562 39.9155C29.8258 39.244 28.3611 38.4637 26.3216 37.5136C26.1364 37.4277 25.4069 37.3361 25.3592 37.3075C25.3057 37.2751 25.2179 36.9603 25.1873 36.9298C24.6164 36.3918 23.9594 35.7316 23.2987 35.3176C23.081 35.1803 22.7316 35.2089 22.68 35.1803C22.4986 35.0792 22.4356 34.5125 22.3019 34.3218C22.1816 34.152 21.666 33.7284 21.6144 33.5662C21.4464 33.0359 21.6335 31.6794 21.6144 31.0956C21.6125 31.0346 21.6087 30.6225 21.4082 30.7178C21.4254 30.5786 21.5209 30.3153 21.5457 30.1684C21.5973 29.867 21.666 29.5693 21.7519 29.2755C21.8111 29.2679 21.815 29.2927 21.8207 29.3442L21.8226 29.3499Z" fill="#E4AE44"/>
<path d="M23.9523 33.8792C24.1795 34.3867 24.5118 35.3635 24.9147 35.7317C25.2375 36.0274 25.2585 35.9225 25.7397 36.0064C27.1624 36.2563 28.5201 36.5482 29.8263 37.2408C30.4316 37.5613 30.972 38.1985 31.6461 38.5438C31.7359 38.5896 31.8867 38.7403 32.0586 38.8186C32.1694 38.9349 31.9727 39.1562 31.8867 39.162C31.6996 39.1753 29.1961 37.4049 28.7263 37.1721C28.3387 36.9794 27.93 36.9641 27.5939 36.8287C26.7212 36.4796 25.9555 35.7889 24.9147 36.2106C24.6207 35.8977 24.4087 35.415 24.0898 35.1135C24.3972 35.0182 23.6697 34.2875 23.5742 34.2207C23.4558 34.1386 22.6843 33.7571 22.5774 34.0146C22.4571 33.8601 22.3902 33.8735 22.4399 33.6025C22.7588 33.6998 23.5322 33.7895 23.9504 33.8773L23.9523 33.8792Z" fill="#BE783A"/>
<path d="M44.8322 37.7903C44.8207 38.1509 44.3109 38.0917 44.1103 38.2024C43.8411 38.3512 43.4458 38.8033 43.251 38.8892C43.0906 38.9598 41.3166 39.246 41.0187 39.3013C40.3331 39.4291 39.6056 39.4577 38.9238 39.6447C38.9544 39.576 38.9792 39.4654 38.9926 39.4387C39.0842 39.2574 39.1931 39.08 39.2676 38.8892C39.9531 38.893 40.8029 38.9083 41.4655 38.7518C42.0919 38.603 42.5273 38.1184 42.9417 37.9963C43.356 37.8742 44.3051 37.8742 44.8303 37.7903H44.8322Z" fill="#791915"/>
<path d="M39.2693 38.8891C39.1948 39.0799 39.086 39.2573 38.9943 39.4385C37.5354 39.3889 35.7881 39.9956 34.3578 39.9193C34.1019 39.906 33.8556 39.8659 33.7734 39.5759C35.1541 39.5206 36.5328 39.5416 37.86 39.0951L37.6881 38.7517C38.1999 38.7784 38.7747 38.8872 39.2674 38.8891H39.2693Z" fill="#BA6428"/>
<path d="M27.5918 36.8305C28.2736 37.42 29.2322 37.7634 30.0304 38.2709C30.2347 38.4006 30.4983 38.6887 30.6835 38.8204C29.1233 38.1965 28.0616 37.214 26.3907 36.7618C26.3219 36.7427 26.3907 36.571 26.3219 36.5558C25.5906 36.3955 25.539 36.8782 24.9146 36.2124C25.9553 35.7888 26.7191 36.4794 27.5937 36.8305H27.5918Z" fill="#D6A35E"/>
<path d="M37.6881 38.7517L37.8599 39.0951C36.5328 39.5396 35.154 39.5187 33.7734 39.5759C33.7314 39.4252 33.8001 39.5816 33.8421 39.4385C33.993 39.4175 34.1228 39.3374 34.2546 39.3012C34.4322 39.6598 34.8618 39.2115 35.1139 39.3698L36.9338 38.7517C37.1839 38.767 37.4398 38.7384 37.69 38.7517H37.6881Z" fill="#9F4D23"/>
<path d="M43.2524 38.8891C43.4453 38.8033 43.8425 38.3511 44.1118 38.2023C44.3123 38.0916 44.8221 38.1508 44.8336 37.7902C45.0456 37.7559 45.2442 37.6986 45.4523 37.6528C45.1239 38.1584 43.8024 39.1829 43.2543 38.8872L43.2524 38.8891Z" fill="#9F4D23"/>
<path d="M24.0896 35.1154C23.7058 34.751 22.8904 34.421 22.5791 34.0184C22.6841 33.7609 23.4556 34.1424 23.5759 34.2245C23.6714 34.2894 24.3971 35.0201 24.0915 35.1174L24.0896 35.1154Z" fill="#CF892B"/>
<path d="M36.1774 38.5457C36.3855 38.7631 36.6662 38.7345 36.9336 38.7517L35.1137 39.3698C34.8636 39.2115 34.432 39.6598 34.2544 39.3012C34.8578 39.139 35.5949 38.7994 36.1774 38.5457Z" fill="#903B1F"/>
<path d="M49.9842 32.37C50.032 32.805 49.9632 33.2438 49.9155 33.673C49.8868 33.9306 49.8429 34.1786 49.778 34.4285C49.7436 34.5621 49.6806 34.8826 49.6405 34.978C49.4858 35.0333 49.4457 34.9093 49.4343 34.9093C49.2108 34.6556 48.5501 34.2492 48.1987 34.0851C48.6227 33.5662 50.011 32.8679 49.8467 32.1296C49.8334 32.0724 49.7723 32.225 49.6405 32.0266C49.7226 31.4123 49.1707 30.7979 49.3655 30.1741C49.5355 30.6911 49.9308 31.8816 49.9842 32.37Z" fill="#481024"/>
<path d="M43.459 24.6146C43.0943 24.6413 42.5042 24.9561 42.1547 25.0954C41.1751 25.4827 40.079 26.0455 39.1318 26.6045H39.0631C38.8645 26.3984 37.373 26.2592 37.3119 26.1924C37.2222 26.0951 37.3196 25.8547 37.2776 25.7803C37.4972 25.725 37.5812 24.5879 37.5526 24.4772C37.9058 24.317 38.4844 24.8283 38.7537 24.8207C38.8473 24.8187 39.317 24.5955 39.4755 24.5459C39.9319 25.0458 40.4208 23.9221 40.7111 23.7904C41.1541 23.5901 42.9128 24.4219 43.459 24.6146Z" fill="#E1B5C2"/>
<path d="M38.0319 22.9681C37.7798 23.3955 37.5487 23.8591 37.2757 24.2712C37.1305 24.2025 34.9555 24.3456 34.8027 24.4085C34.4953 24.1834 34.7492 23.6244 34.734 23.3783C34.8925 23.6301 36.2483 23.634 36.3132 23.55C35.8396 22.7335 35.5417 22.9548 34.734 23.1723C34.7282 23.1074 34.5487 22.7564 34.459 22.6915C35.389 22.6877 37.1248 22.8117 38.03 22.9662L38.0319 22.9681Z" fill="#D996A5"/>
<path d="M40.4363 23.6549C40.2224 23.9525 39.8634 24.0708 39.577 24.273C39.5159 24.3169 39.218 24.4772 39.4738 24.5478C39.3154 24.5974 38.8456 24.8187 38.752 24.8225C38.4808 24.8301 37.9041 24.3207 37.5509 24.4791C37.5203 24.3589 37.3771 24.3207 37.2759 24.273C37.549 23.8609 37.78 23.3954 38.0321 22.97C38.6183 23.0711 39.8634 23.4431 40.4363 23.6568V23.6549Z" fill="#E1B5C2"/>
<path d="M45.7927 25.7822L45.9302 26.8792C45.5979 26.7876 43.5222 26.0589 43.4573 25.8833C43.421 25.7822 43.4783 25.2099 43.526 25.0935C43.5375 25.0649 43.8067 24.813 43.801 24.6814C44.4942 24.7901 45.2026 25.3758 45.7927 25.7784V25.7822Z" fill="#DAC1CE"/>
<path d="M34.186 22.6934C34.2299 22.8517 34.4189 22.6514 34.3235 22.8651C34.2891 22.9414 33.1338 23.9163 33.0536 23.9296C32.8435 23.9621 32.7308 23.6606 32.7098 23.6549C32.6583 23.6416 32.6831 23.7942 32.6755 23.7923C32.6239 23.7808 32.3279 23.59 32.1599 23.5862C31.9479 23.5805 31.6061 23.5748 31.438 23.7236L30.4756 23.2428C31.2203 23.0692 31.3655 23.0024 32.1923 22.8994C32.496 22.8612 33.0268 22.7773 33.2904 22.762C33.5844 22.7449 33.8938 22.6991 34.1841 22.6934H34.186Z" fill="#B76477"/>
<path d="M34.4612 22.6934C34.5509 22.7582 34.7285 23.1093 34.7361 23.1741C34.7438 23.239 34.7323 23.3115 34.7361 23.3802C34.7514 23.6263 34.4974 24.1834 34.8049 24.4104C34.7953 24.4142 34.7342 24.4944 34.6674 24.5478C34.0563 24.3265 33.2753 24.6107 32.6757 24.4791C32.5821 24.4581 32.4026 24.2597 32.2632 24.2387C32.3491 24.1929 32.4179 24.0441 32.4694 23.9983C32.5095 23.9621 32.7387 24.0956 32.6757 23.7923C32.6833 23.7923 32.6585 23.6416 32.71 23.6549C32.731 23.6606 32.8437 23.9621 33.0538 23.9296C33.1359 23.9163 34.2912 22.9414 34.3237 22.8651C34.4191 22.6514 34.2301 22.8517 34.1862 22.6934C34.2778 22.6934 34.3695 22.6934 34.4612 22.6934Z" fill="#C27593"/>
<path d="M46.9617 26.6732C47.1431 26.8086 47.3512 26.9193 47.5116 27.0853C47.4104 27.0605 46.9445 27.0757 46.6867 27.0166C46.5244 26.9803 46.2379 26.9937 46.068 26.9479C45.9324 26.9117 45.9381 26.8811 45.9305 26.8792L45.793 25.7822C46.1978 26.0589 46.5702 26.3794 46.9597 26.6751L46.9617 26.6732Z" fill="#9F6A80"/>
<path d="M43.4591 24.6146C43.6481 24.6012 43.6978 24.6661 43.8028 24.6833C43.8085 24.813 43.5393 25.0667 43.5278 25.0954C43.1726 25.1469 42.1166 25.7994 42.1548 25.0954C42.5043 24.958 43.0963 24.6413 43.4591 24.6146Z" fill="#240E0E"/>
<path d="M40.7112 23.7924C40.421 23.924 39.9321 25.0477 39.4757 24.5479C39.2198 24.4773 39.5177 24.317 39.5788 24.2732C39.8634 24.0728 40.2243 23.9527 40.4382 23.655C40.5451 23.6951 40.5776 23.8191 40.7132 23.7924H40.7112Z" fill="#240E0E"/>
<path d="M47.5117 27.0855C47.6415 27.118 47.8077 27.1389 47.8554 27.2916C47.8611 28.0242 47.9795 28.9991 48.1991 29.6935C48.1208 29.6821 48.1399 29.7451 48.1304 29.7622C47.8038 29.6592 47.3723 29.5485 47.0648 29.4188C46.9273 29.3616 46.9846 29.167 46.9273 29.1441C46.9178 29.1403 46.872 29.2318 46.8242 29.2128C46.7784 29.0411 46.7956 28.6996 46.7555 28.5603C46.7383 28.5011 46.6218 28.5336 46.618 28.5259C46.5855 28.4515 46.7211 28.4687 46.7555 28.4229C45.7739 28.2264 46.9961 27.7285 46.6867 27.0168C46.9445 27.076 47.4086 27.0607 47.5117 27.0855Z" fill="#E2ABC5"/>
<path d="M49.3654 30.174C49.1707 30.7979 49.7225 31.4122 49.6404 32.0266C49.4113 31.6812 48.9339 31.2386 48.7467 30.9295C48.6608 30.7865 48.2846 29.968 48.1968 29.6952C47.9772 29.0007 47.8588 28.0277 47.853 27.2932C48.5329 28.333 48.9797 29.0045 49.3635 30.176L49.3654 30.174Z" fill="#732A4F"/>
<path d="M49.6405 32.0266C49.7723 32.2251 49.8334 32.0705 49.8468 32.1297C50.011 32.868 48.6208 33.5682 48.1988 34.0852C47.9123 33.9517 46.8048 33.5071 46.5508 33.4671C46.7093 33.1981 47.0721 32.9386 47.1695 32.6429L48.7487 30.9277C48.9359 31.2387 49.4133 31.6794 49.6424 32.0247L49.6405 32.0266Z" fill="#732A4F"/>
<path d="M48.1973 34.0853C48.5506 34.2494 49.2094 34.6539 49.4328 34.9095C49.3374 34.9076 48.2871 35.024 48.2317 35.0469C48.161 35.0774 47.1929 35.9798 47.0993 36.0771C46.9866 35.7986 47.9682 34.61 47.9242 34.5337L47.7524 34.4993C47.1604 35.0603 46.6314 35.9932 45.8638 36.1458C46.1311 35.2835 46.2992 34.3563 46.4825 33.4691C46.5054 33.471 46.5283 33.4653 46.5512 33.4691C46.8071 33.5073 47.9128 33.9537 48.1992 34.0873L48.1973 34.0853Z" fill="#90463D"/>
<path d="M30.4773 23.2429L31.4398 23.7237C31.3538 23.7981 31.2278 23.8477 31.3366 23.9984H32.469C32.4175 24.0423 32.3487 24.1911 32.2628 24.2388C32.4022 24.2598 32.5817 24.4582 32.6753 24.4792L31.7472 25.5094C32.4671 25.4903 33.1832 25.1145 33.8764 25.0287C34.1342 24.9962 34.1151 25.229 34.1514 25.2347C34.2774 25.2538 34.6002 24.6032 34.667 24.5479C34.7338 24.4926 34.7949 24.4143 34.8045 24.4105C34.9554 24.3476 37.1323 24.2045 37.2774 24.2732C37.1209 24.5097 36.9471 24.7139 36.7962 24.96C36.5671 25.3301 36.1928 25.6315 36.04 26.057C35.4175 25.9482 33.8917 26.6541 33.1546 26.5378C32.8949 26.4958 31.6746 25.5877 31.5753 25.6449L29.7898 27.8408C29.8128 27.1979 29.6581 27.1845 29.1711 26.8106C29.3716 26.6064 31.3958 25.8433 31.3691 25.6105C30.3054 25.1412 28.6212 24.2693 27.4544 24.3418C27.4563 24.2483 27.3837 24.2751 27.3169 24.2732C27.7313 24.0404 28.2373 23.7142 28.6899 23.5863C29.0661 23.4814 29.9483 23.3669 30.4754 23.2429H30.4773Z" fill="#C27593"/>
<path d="M39.1319 26.6064C39.1891 26.6217 39.214 26.6828 39.2694 26.7438C39.7792 27.3104 40.3177 28.8863 40.8486 29.5579L37.8257 27.4993V27.4306L39.0612 26.6064H39.13H39.1319Z" fill="#DDA097"/>
<path d="M37.276 25.7823C37.3181 25.8567 37.2207 26.0971 37.3104 26.1944C37.3715 26.2611 38.8648 26.4004 39.0615 26.6065L37.826 27.4307C37.3696 27.3066 36.3747 26.1162 36.0405 26.0589C36.1914 25.6335 36.5676 25.332 36.7967 24.9619C37.0259 25.1088 36.9972 25.5266 37.0717 25.6831C37.1309 25.809 37.2722 25.7766 37.278 25.7861L37.276 25.7823Z" fill="#E1B5C2"/>
<path d="M37.5506 24.4792C37.5793 24.5918 37.4953 25.7269 37.2757 25.7822C37.2699 25.7727 37.1286 25.8051 37.0694 25.6792C36.9969 25.5228 37.0236 25.105 36.7944 24.9581C36.9453 24.7119 37.1191 24.5078 37.2757 24.2712C37.3769 24.3189 37.5201 24.3571 37.5506 24.4773V24.4792Z" fill="#240E0E"/>
<path d="M34.7362 23.3804C34.7323 23.3136 34.7438 23.2411 34.7362 23.1743C35.5439 22.9568 35.8418 22.7355 36.3154 23.5521C36.2505 23.636 34.8947 23.6322 34.7362 23.3804Z" fill="#240E0E"/>
<path d="M32.6758 23.7925C32.7388 24.0958 32.5097 23.9623 32.4696 23.9985H31.3372C31.2283 23.8497 31.3543 23.8001 31.4403 23.7238C31.6083 23.575 31.9482 23.5807 32.1621 23.5864C32.3302 23.5902 32.6261 23.781 32.6777 23.7925H32.6758Z" fill="#240E0E"/>
<path d="M34.6674 24.5461C34.6005 24.5995 34.2778 25.25 34.1518 25.2329C34.1155 25.2271 34.1346 24.9963 33.8768 25.0268C33.1836 25.1127 32.4675 25.4885 31.7476 25.5076L32.6756 24.4774C33.2753 24.609 34.0563 24.3247 34.6674 24.5461Z" fill="#CD88A7"/>
<path d="M46.6865 27.0166C46.9959 27.7283 45.7737 28.2281 46.7553 28.4227C46.7209 28.4685 46.5872 28.4513 46.6178 28.5257C46.423 28.4494 46.2034 28.3655 45.9991 28.3197C46.0678 27.9171 45.5198 28.1957 45.4491 28.0106C45.3842 27.5413 45.7164 27.217 46.0678 26.946C46.2378 26.9918 46.5242 26.9785 46.6865 27.0147V27.0166Z" fill="#DAC1CE"/>
<path d="M48.747 30.9296L47.1677 32.6447C47.2384 32.4329 46.9252 32.0991 46.7552 32.0266C46.7113 31.4924 46.3657 31.3817 45.999 31.065C46.0907 31.0288 46.0792 31.0154 46.0678 30.9276C46.4172 30.7903 47.9755 30.0157 48.1282 29.762C48.1378 29.7448 48.1187 29.6818 48.197 29.6933C48.2829 29.9661 48.661 30.7865 48.747 30.9276V30.9296Z" fill="#CA8FB9"/>
<path d="M45.9989 28.3216C46.2032 28.3674 46.4209 28.4495 46.6176 28.5277C46.6214 28.5353 46.7379 28.501 46.7551 28.562C46.7952 28.6994 46.778 29.0428 46.8239 29.2145C46.778 29.1954 46.6615 29.2336 46.6176 29.2145C46.5126 28.667 45.9378 28.5678 45.5864 28.253C45.6838 28.2453 45.8862 28.2968 45.9989 28.3216Z" fill="#673213"/>
<path d="M46.7553 32.0267C46.9253 32.0992 47.2365 32.4331 47.1678 32.6449C47.0704 32.9406 46.7095 33.1981 46.5491 33.469C46.5261 33.4652 46.5032 33.4709 46.4803 33.469C46.4574 33.4671 46.4345 33.4709 46.4116 33.469C46.2588 33.0493 45.5255 32.9768 45.8616 32.4045C45.8769 32.3778 46.5109 32.1946 46.2741 32.0267C46.4803 32.0515 46.4689 31.9561 46.4803 31.958C46.5529 31.9676 46.6961 32.0019 46.7553 32.0267Z" fill="#E2ABC5"/>
<path d="M46.4116 33.4671C46.4345 33.469 46.4574 33.4652 46.4803 33.4671C46.297 34.3524 46.1289 35.2796 45.8616 36.1438C45.7489 36.5063 45.5522 36.8707 45.4491 37.2408C44.9259 37.1035 42.3479 36.4319 42.0156 36.4166L43.3199 35.7985C43.4937 35.8843 43.6751 35.9607 43.8355 36.0732C43.9195 36.0293 43.7667 35.6592 43.7324 35.5924C44.3778 34.9266 45.2734 34.545 45.9647 33.946C46.1194 33.8124 46.3314 33.7094 46.2741 33.4652C46.3199 33.4671 46.3657 33.4614 46.4116 33.4652V33.4671Z" fill="#A84C56"/>
<path d="M47.0991 36.0751C46.5434 36.6436 46.5014 36.8478 46.1367 37.5155C46.0928 37.5193 46.0412 37.5079 45.9992 37.5155C45.9037 37.4468 45.5313 37.2618 45.4492 37.2408C45.5504 36.8707 45.749 36.5063 45.8617 36.1438C46.6294 35.9911 47.1583 35.0582 47.7503 34.4973L47.9222 34.5317C47.968 34.608 46.9865 35.7965 47.0972 36.0751H47.0991Z" fill="#8B3C46"/>
<path d="M27.3173 24.2731C27.3841 24.275 27.4567 24.2483 27.4547 24.3418C27.3612 24.3475 27.2141 24.3208 27.1454 24.3418C26.8589 24.4296 24.8959 26.2535 24.7412 26.263L24.2256 25.5075C24.6381 25.2461 26.4083 24.4944 26.9048 24.3418C27.0747 24.2903 27.1187 24.2655 27.3173 24.2731Z" fill="#DFF3FD"/>
<path d="M33.1551 26.5378V26.6065C33.1341 26.7191 32.9661 26.8641 32.8802 26.9499C31.9521 27.8771 30.9324 28.7032 30.0635 29.6953L31.574 25.6469C31.6733 25.5896 32.8935 26.4978 33.1532 26.5397L33.1551 26.5378Z" fill="#A84C56"/>
<path d="M36.0402 26.0571C35.7958 26.742 35.8263 27.8237 35.4902 28.5277C34.6596 28.1194 33.974 27.1483 33.1548 26.6065V26.5378C33.8919 26.6561 35.4177 25.9483 36.0402 26.0571Z" fill="#CF5A47"/>
<path d="M30.0652 29.6934C29.9449 29.8308 29.752 29.9949 29.7215 30.1742C29.647 30.1342 29.5878 30.0826 29.5152 30.0369C29.4904 29.2642 29.7673 28.4762 29.7902 27.8409L31.5757 25.645L30.0652 29.6934Z" fill="#95486A"/>
<path d="M29.7903 27.8408C29.7674 28.4761 29.4905 29.2641 29.5153 30.0367C29.4962 30.0253 29.4599 30.0215 29.3778 29.9681C29.5974 28.8463 29.3855 28.9588 28.4841 28.562C28.4708 28.4799 29.0245 27.1464 29.1028 27.0185C29.1219 26.988 29.057 26.9289 29.1716 26.8125C29.6566 27.1845 29.8132 27.1979 29.7903 27.8427V27.8408Z" fill="#E0BAD8"/>
<path d="M35.4904 29.8308C36.1129 29.9815 39.7756 31.9332 40.0582 31.8893C40.2071 31.8664 40.7227 31.088 40.8488 30.9278C40.929 30.8267 41.1066 30.7599 41.1237 30.5844C41.1409 30.5939 41.2039 30.5748 41.1925 30.653C41.0416 31.1415 41.0168 31.6947 40.78 32.1621C40.5394 32.1831 39.9531 32.3167 39.7488 32.2995C39.2943 32.2614 38.4961 31.7863 38.0321 31.6814L36.281 31.0632L33.0862 31.8187C32.4942 31.6241 32.3682 31.5039 31.8507 31.2693C31.822 31.2559 31.7418 31.2826 31.7132 31.2693C31.3198 31.0861 30.8748 30.9526 30.5464 30.6511C31.7494 30.8896 34.104 29.6457 35.4923 29.827L35.4904 29.8308Z" fill="#791915"/>
<path d="M46.0678 30.9297C46.0792 31.0174 46.0907 31.0308 45.999 31.0671C45.9398 31.0899 45.9226 31.048 45.7928 31.1357C44.4389 32.061 45.5254 31.9389 46.274 32.0286C46.5127 32.1946 45.8768 32.3796 45.8615 32.4064C45.5254 32.9787 46.2587 33.0512 46.4115 33.4709C46.3676 33.4671 46.3198 33.4728 46.274 33.4709C45.0958 33.4022 43.3695 33.635 42.1531 33.7457C41.9965 33.7609 41.8475 33.8048 41.7406 33.8143L42.1531 33.5739C41.5974 32.6658 41.0493 33.1237 40.2988 32.7154C40.4306 32.7917 41.542 32.8108 41.7406 32.7841C41.838 32.7707 42.0175 32.6849 42.1531 32.6811C42.0805 32.5399 41.9602 32.4369 41.8781 32.3033C41.8494 32.2575 41.8303 32.103 41.7406 32.0286C42.999 31.813 44.9411 31.3723 46.0678 30.9316V30.9297Z" fill="url(#paint5_linear_366_138191)"/>
<path d="M41.6718 29.2813C41.2383 29.0504 41.3586 30.1093 40.9156 29.6247C40.9041 29.5846 40.9156 29.5465 40.8468 29.556C40.314 28.8844 39.7755 27.3086 39.2676 26.7419L42.0843 27.6692C41.9143 28.1938 41.815 28.7433 41.6718 29.2813Z" fill="#D6E3F4"/>
<path d="M41.8781 32.3014C41.5344 32.2308 40.9023 32.288 40.5739 32.3701C40.4746 32.3949 40.192 32.4616 40.1614 32.5418C40.2206 32.5647 40.2893 32.7078 40.2989 32.7135C41.0494 33.1218 41.5974 32.662 42.1531 33.572L41.7407 33.8124C41.141 33.8696 40.5109 34.1157 39.9552 34.1558C39.5427 33.8067 39.7356 32.8833 39.6802 32.372C39.7222 32.3605 39.7566 32.372 39.7489 32.3033C39.9513 32.3205 40.5376 32.1888 40.7801 32.1659C41.1735 32.1297 41.3664 32.0934 41.7426 32.0286C41.8323 32.1011 41.8514 32.2575 41.8801 32.3033L41.8781 32.3014Z" fill="#E1DAEC"/>
<path d="M40.9174 29.8306C41.1199 29.9221 41.286 30.0462 41.3987 30.2427C41.37 30.34 41.223 30.5575 41.1924 30.6548C41.2039 30.5765 41.1409 30.5975 41.1237 30.5861C39.7755 29.7829 39.722 29.7447 38.1008 29.4891C37.8315 29.4471 37.5451 29.449 37.2758 29.4204C37.1517 29.1666 36.7583 29.3784 36.8633 28.8022C38.2402 29.0331 39.6304 29.2449 40.9155 29.8325L40.9174 29.8306Z" fill="#9F4D23"/>
<path d="M42.1528 25.0955C42.1146 25.7995 43.1725 25.147 43.5258 25.0955C43.4781 25.2118 43.4208 25.7842 43.4571 25.8853C43.5201 26.0589 45.5977 26.7896 45.93 26.8812C45.9377 26.8831 45.93 26.9136 46.0675 26.9499C45.7161 27.2189 45.3839 27.5432 45.4488 28.0144C45.5195 28.1995 46.0675 27.9191 45.9988 28.3235C45.888 28.2987 45.6837 28.2472 45.5863 28.2548C45.3934 28.272 45.3686 28.3846 45.2426 28.4952C45.2445 28.6269 46.4132 29.1267 46.6156 29.2164C46.6595 29.2355 46.776 29.1973 46.8218 29.2164C46.8676 29.2355 46.9135 29.1439 46.9249 29.1477C46.9822 29.1706 46.9249 29.3652 47.0624 29.4224C47.3699 29.5503 47.8014 29.6628 48.128 29.7658C47.9752 30.0215 46.417 30.7961 46.0675 30.9315C44.9408 31.3722 42.9988 31.8149 41.7403 32.0285C41.3641 32.0934 41.1713 32.1296 40.7779 32.1659C41.0147 31.6985 41.0395 31.1433 41.1904 30.6568C41.2209 30.5595 41.368 30.342 41.3966 30.2447C41.4921 29.9261 41.5856 29.6056 41.6716 29.2832C41.8148 28.7451 41.9122 28.1957 42.0841 27.671L39.2674 26.7438C39.212 26.6828 39.1872 26.6217 39.1299 26.6065C40.0751 26.0456 41.1732 25.4828 42.1528 25.0974V25.0955Z" fill="url(#paint6_linear_366_138191)"/>
<path d="M42.9779 29.7622C43.3904 30.1228 44.1524 29.9167 44.351 30.5177C43.927 30.6474 41.4674 30.2163 42.9779 29.7622Z" fill="#240E0E"/>
<path d="M44.351 30.5175C44.1524 29.9166 43.3905 30.1245 42.978 29.762C43.0964 29.7258 44.3224 29.5922 44.3854 29.6247C44.5019 29.6838 44.7826 30.3859 44.351 30.5175Z" fill="#6A4A1D"/>
<path d="M42.4277 27.8413C42.7123 28.1809 43.4551 28.282 43.8695 28.4594C43.1992 28.9459 41.2094 27.931 42.4277 27.8413Z" fill="#240E0E"/>
<path d="M45.5884 28.2529C45.9398 28.5677 46.5127 28.6669 46.6196 29.2145C46.4172 29.1248 45.2485 28.625 45.2466 28.4933C45.3726 28.3846 45.3974 28.2701 45.5903 28.2529H45.5884Z" fill="#170B0C"/>
<path d="M43.8695 28.4591C43.4551 28.2817 42.7123 28.1824 42.4277 27.8409C42.7676 27.8161 43.5659 28.1424 43.9726 28.1157L44.0414 28.253C43.9535 28.3141 43.9573 28.3961 43.8695 28.4591Z" fill="#6A4A1D"/>
<path d="M41.672 29.2814C41.5861 29.602 41.4925 29.9244 41.3971 30.243C41.2844 30.0484 41.1182 29.9225 40.9158 29.8309C40.9063 29.766 40.9311 29.6783 40.9158 29.6249C41.3589 30.1094 41.2386 29.0506 41.672 29.2814Z" fill="#DAC1CE"/>
<path d="M40.8489 29.5559C40.9176 29.5463 40.9062 29.5845 40.9176 29.6245C40.9329 29.678 40.9081 29.7657 40.9176 29.8306C39.6324 29.243 38.2422 29.0331 36.8654 28.8004C36.4663 28.7336 36.0214 28.7889 35.6299 28.663C36.3746 28.3177 37.0812 27.8426 37.8278 27.4973L40.8508 29.5559H40.8489Z" fill="#D77B36"/>
<path d="M37.8262 27.4286V27.4973C37.0795 27.8426 36.3729 28.3176 35.6282 28.6629C35.4086 28.5924 35.5117 28.5351 35.4907 28.5256C35.8268 27.8216 35.7962 26.7418 36.0407 26.0549C36.3749 26.1141 37.3717 27.3027 37.8262 27.4267V27.4286Z" fill="#F6956F"/>
<path d="M45.9991 31.0652C46.3657 31.3819 46.7114 31.4906 46.7553 32.0267C46.6961 32.0019 46.5529 31.9676 46.4803 31.9581C46.36 31.5421 45.558 31.6585 45.7928 31.1339C45.9227 31.0461 45.938 31.09 45.9991 31.0652Z" fill="#6A4A1D"/>
<path d="M35.2156 36.4871C35.1793 36.716 35.4065 36.5348 35.4218 36.7274C35.4352 36.8839 33.9934 38.9138 33.8426 39.4385C32.9641 39.5587 33.4434 39.3736 33.0176 39.0951C33.0291 39.0245 32.9909 38.9386 32.9489 38.889C32.206 37.9313 32.7102 37.7615 32.8114 36.8305C33.1074 36.861 34.8317 36.571 35.2156 36.4871Z" fill="#E0BAD8"/>
<path d="M32.8131 36.8307C32.7119 37.7617 32.2077 37.9315 32.9506 38.8893C32.7787 38.6909 32.5534 38.5153 32.435 38.2711L32.1943 38.8206C32.1638 38.8072 32.0855 38.8339 32.0569 38.8206C31.885 38.7424 31.7341 38.5916 31.6444 38.5459C31.8697 38.6164 31.948 38.5535 31.8506 38.3055C31.7895 38.149 29.9907 35.6994 29.8589 35.5944C30.7182 35.4762 32.0397 36.7468 32.8131 36.8288V36.8307Z" fill="#E8EAF6"/>
<path d="M32.9486 38.8891C32.9906 38.9387 33.0288 39.0246 33.0173 39.0952C32.5877 38.8147 32.4406 38.9273 32.1924 38.8205L32.433 38.271C32.5514 38.5152 32.7767 38.6907 32.9486 38.8891Z" fill="#6E1815"/>
<path d="M42.0157 36.4186C42.3479 36.4338 44.9259 37.1035 45.4491 37.2428C45.5293 37.2637 45.9036 37.4488 45.9991 37.5175C45.8177 37.5518 45.6382 37.6129 45.4491 37.6548C45.2429 37.7006 45.0424 37.7579 44.8304 37.7922C44.3053 37.8762 43.3715 37.8723 42.9418 37.9983C42.5121 38.1242 42.092 38.605 41.4657 38.7538C41.502 38.6126 41.3988 38.624 41.3969 38.6164C41.2957 38.2863 40.7114 36.9089 40.7095 36.7639C40.7095 36.7448 40.826 36.4625 40.847 36.4205C40.8756 36.3632 40.9959 36.2011 41.0532 36.1458C41.0341 36.2202 40.9157 36.6761 40.9501 36.6952C41.2785 36.6952 41.7139 36.4071 42.0157 36.4205V36.4186Z" fill="#90463D"/>
<path d="M46.4803 31.958C46.4689 31.958 46.4804 32.0515 46.2741 32.0267C45.5255 31.9389 44.439 32.0591 45.7929 31.1338C45.558 31.6584 46.3581 31.5421 46.4803 31.958Z" fill="#240E0E"/>
<path d="M46.2737 33.467C46.331 33.7112 46.119 33.8123 45.9644 33.9478C45.2731 34.5468 44.3775 34.9303 43.732 35.5942C43.5544 35.2432 43.0503 34.7166 42.7008 34.4972C42.5271 34.3885 42.3361 34.2969 42.1852 34.1538C41.7842 34.5983 42.4125 35.1631 42.7696 35.4569C42.7791 35.6972 42.6665 35.5236 42.5977 35.4569C42.2234 35.0944 41.9179 34.875 41.8071 34.3599C41.9122 34.1462 42.0363 33.9497 42.1509 33.7417C43.3673 33.6311 45.0936 33.4002 46.2718 33.467H46.2737Z" fill="#C27593"/>
<path d="M42.7719 35.4569C42.791 35.4721 42.8846 35.5084 42.9094 35.5256C43.0278 35.6114 43.1977 35.7373 43.3219 35.8003L42.0176 36.4184C41.7159 36.4051 41.2824 36.6931 40.952 36.6931C40.9176 36.6741 41.036 36.22 41.0551 36.1437C41.1831 35.6496 41.5765 34.8368 41.8113 34.3599C41.9202 34.875 42.2276 35.0963 42.6019 35.4569C42.6707 35.5236 42.7814 35.6973 42.7738 35.4569H42.7719Z" fill="#C27593"/>
<path d="M43.7323 35.5943C43.7667 35.6611 43.9195 36.0312 43.8354 36.075C43.675 35.9625 43.4936 35.8862 43.3199 35.8003C43.1957 35.7393 43.0258 35.6114 42.9074 35.5256C42.9379 35.0429 42.1397 34.6346 42.7011 34.4954C43.0487 34.7148 43.5547 35.2413 43.7323 35.5924V35.5943Z" fill="#240E0E"/>
<path d="M29.8592 35.5943C29.9909 35.6992 31.7898 38.1489 31.8509 38.3053C31.9483 38.5533 31.87 38.6144 31.6447 38.5457C30.9706 38.1985 30.4301 37.5632 29.8248 37.2426C28.5167 36.5501 27.1609 36.2582 25.7382 36.0083C25.4957 35.5695 26.5804 35.6286 26.8363 35.5962C27.7777 35.476 28.7363 35.413 29.6873 35.3901C29.7732 35.4531 29.7752 35.5294 29.8592 35.5962V35.5943Z" fill="#E3C1BD"/>
<path d="M26.8361 35.5944C26.5802 35.6269 25.4936 35.5677 25.738 36.0065C25.2568 35.9226 25.2358 36.0275 24.9131 35.7318C25.1651 35.7223 26.1352 34.3334 26.0799 34.257C25.3962 34.0262 24.6438 34.0243 23.9506 33.8793C23.5324 33.7915 22.759 33.7019 22.4401 33.6046C22.3599 33.5798 22.2587 33.6084 22.2339 33.4672L24.7412 32.3015C25.442 33.4558 26.4121 34.4402 27.2142 35.459L26.8361 35.5963V35.5944Z" fill="#DAC1CE"/>
<path d="M42.1531 33.7417C42.0405 33.9496 41.9144 34.1461 41.8094 34.3598C41.5764 34.8387 41.1811 35.6495 41.0532 36.1436C40.9959 36.1989 40.8756 36.3592 40.8469 36.4183C40.7209 36.4737 40.6522 36.6702 40.5032 36.4527C40.3543 36.2352 39.8979 34.4342 39.7126 34.3598C38.3587 35.0447 39.0175 34.9569 39.3345 35.6285C39.3937 35.7544 39.199 35.7239 39.197 35.7315C39.0977 35.5808 38.9832 35.4473 38.8533 35.3194C38.6413 35.1115 38.4275 34.915 38.1659 34.77C38.1792 34.3369 37.5777 34.4571 37.7534 34.0832C38.4466 34.1022 39.2887 34.1995 39.9513 34.1518C40.507 34.1118 41.1391 33.8657 41.7368 33.8084C41.8438 33.7989 41.9908 33.755 42.1493 33.7397L42.1531 33.7417Z" fill="#E2ABC5"/>
<path d="M28.6219 29.0752C28.049 29.43 29.0706 29.7639 29.3781 29.9681C29.4602 30.0215 29.4965 30.0253 29.5156 30.0367C29.5213 30.2332 29.7218 30.3057 29.7218 30.3458C29.7218 30.4355 29.254 30.7293 29.2406 30.7579C29.1547 30.9468 29.9796 32.8355 29.6874 32.8508C29.4526 32.4635 27.5449 30.197 27.5239 30.0024C27.4933 29.7353 27.9726 29.1534 28.2113 29.0752C28.3087 29.0428 28.5092 29.1019 28.6238 29.0752H28.6219Z" fill="#D6E3F4"/>
<path d="M39.4055 32.4388C38.9892 32.6086 37.6085 33.2153 37.2419 33.1943C37.0586 33.1829 34.9943 32.3129 34.5283 32.1641C36.1458 31.9084 37.8186 32.0725 39.4055 32.4388Z" fill="#734139"/>
<path d="M35.2156 29.2126C35.3932 29.4072 35.8611 29.4473 35.6281 29.7621C35.6205 29.7621 35.6319 29.8689 35.4906 29.8308C34.1023 29.6476 31.7497 30.8915 30.5447 30.655C30.3881 30.6244 30.4149 30.5882 30.4072 30.5863C30.7051 30.4451 31.0011 30.0712 31.3009 29.9681C31.7115 29.827 34.7764 29.2336 35.2156 29.2126Z" fill="#903B1F"/>
<path d="M29.1026 27.0165C29.0243 27.1463 28.4706 28.4779 28.4839 28.56C29.3834 28.9568 29.5972 28.8462 29.3776 29.9661C29.0702 29.7619 28.0504 29.428 28.6214 29.0732C28.6825 29.0598 28.9594 28.995 28.9652 28.9702C28.7341 28.808 28.4362 28.7679 28.2089 28.5924C28.081 28.4951 27.6494 27.9056 27.5215 27.9056C27.2465 27.9056 27.0613 28.2128 27.3152 28.5237C26.9677 28.5752 26.962 27.608 27.0059 27.5622C27.0937 27.4744 28.9384 26.7475 29.1007 27.0127L29.1026 27.0165Z" fill="#DECAE3"/>
<path d="M38.0319 31.6832C38.4959 31.7862 39.2941 32.2632 39.7486 32.3013C39.7563 32.37 39.7219 32.3586 39.6799 32.37C39.6035 32.391 39.4717 32.412 39.4049 32.4387C37.818 32.0724 36.1452 31.9083 34.5277 32.164C34.4456 32.1373 34.3673 32.1334 34.2528 32.0953C34.184 31.8663 34.4838 31.8511 34.6309 31.8206C35.8129 31.5802 36.8441 31.418 38.03 31.6832H38.0319Z" fill="#8E6155"/>
<path d="M31.3697 29.35C30.8254 29.5655 30.5619 30.1074 30.0654 30.3802C29.9012 30.3039 29.8439 30.239 29.7217 30.1741C29.7522 29.9948 29.9451 29.8307 30.0654 29.6934C30.9343 28.7013 31.954 27.8752 32.8821 26.948L31.3716 29.35H31.3697Z" fill="#6F182F"/>
<path d="M38.0319 31.6833C36.846 31.4181 35.8148 31.5803 34.6328 31.8207C34.4857 31.8512 34.1859 31.8665 34.2547 32.0954C33.9109 31.9829 33.4851 31.9523 33.0879 31.8207L36.2827 31.0652L38.0338 31.6833H38.0319Z" fill="#5A161A"/>
<path d="M33.5676 29.0752C33.0291 29.5865 31.6504 29.2965 31.3009 29.9681C31.0011 30.0711 30.7051 30.445 30.4072 30.5862C30.1819 30.5137 30.138 30.4145 30.0635 30.3802C30.5619 30.1092 30.8235 29.5655 31.3677 29.3499C31.9788 29.1076 32.8973 29.142 33.5657 29.0752H33.5676Z" fill="#55100D"/>
<path d="M22.0963 33.261C21.6112 31.9561 21.9626 30.5538 21.8213 29.35C21.9034 29.3385 21.934 29.0561 22.0275 29.3156C22.1669 29.6972 22.249 32.3949 22.2338 32.9519C22.2299 33.0779 22.3025 33.2915 22.0963 33.261Z" fill="#E1DAEC"/>
<path d="M28.211 28.5962C28.4363 28.7699 28.7342 28.8118 28.9672 28.974C28.9615 28.9988 28.6846 29.0637 28.6235 29.077C28.5089 29.1037 28.3084 29.0446 28.211 29.077C27.9112 28.9072 27.5464 28.808 27.3173 28.5276C27.0633 28.2166 27.2485 27.9113 27.5235 27.9094C27.1836 28.3559 27.7622 28.6916 28.211 28.5962Z" fill="#240E0E"/>
<path d="M27.4545 24.3418C28.6213 24.2712 30.3075 25.1411 31.3692 25.6105C31.396 25.8451 29.3718 26.6083 29.1713 26.8105C29.0567 26.9269 29.1216 26.986 29.1025 27.0166C28.9402 26.7495 27.0955 27.4782 27.0077 27.566C26.9618 27.6099 26.9695 28.5772 27.317 28.5276C27.5462 28.8061 27.9109 28.9072 28.2107 29.077C27.972 29.1552 27.4927 29.7352 27.5233 30.0042C27.5443 30.1988 29.452 32.4653 29.6869 32.8526C29.979 32.8374 29.1541 30.9486 29.24 30.7597C29.2534 30.7311 29.7212 30.4373 29.7212 30.3476C29.7212 30.3076 29.5207 30.2351 29.515 30.0386C29.5856 30.0844 29.6467 30.1359 29.7212 30.1759C29.8434 30.2408 29.9007 30.3057 30.065 30.382C30.1375 30.4163 30.1834 30.5155 30.4087 30.588C30.4163 30.5899 30.3896 30.6262 30.5462 30.6567C30.8746 30.9581 31.3196 31.0898 31.713 31.2748C31.6041 31.7461 32.1388 33.3849 32.6754 32.5436L31.8504 31.2748C32.3679 31.5095 32.494 31.6278 33.086 31.8243C33.4851 31.9559 33.909 31.9865 34.2527 32.099C34.3673 32.1372 34.4437 32.141 34.5277 32.1677C34.9918 32.3146 37.0561 33.1865 37.2413 33.1979C37.6079 33.2208 38.9886 32.6122 39.4049 32.4424C39.4717 32.4157 39.6035 32.3947 39.6799 32.3738C39.7352 32.8851 39.5424 33.8104 39.9549 34.1576C39.2922 34.2053 38.4501 34.108 37.7569 34.0889C36.1815 34.0469 34.6079 33.9096 33.0516 33.6768C32.9084 33.7436 32.8568 36.4203 32.811 36.8343C32.0376 36.7522 30.718 35.4797 29.8568 35.5999C29.7728 35.5331 29.7709 35.4568 29.6849 35.3939C28.734 35.4168 27.7772 35.4797 26.8339 35.5999L27.212 35.4625C26.4119 34.4438 25.4399 33.4612 24.739 32.3051L22.2317 33.4708C22.0885 33.4498 22.121 33.3353 22.0942 33.2647C22.3005 33.2952 22.2279 33.0816 22.2317 32.9556C22.247 32.3966 22.1649 29.7009 22.0255 29.3193C21.9319 29.0598 21.9013 29.3422 21.8192 29.3536C21.8135 29.3021 21.8097 29.2773 21.7505 29.285C21.7906 29.1495 21.8383 29.0064 21.888 28.8729C21.9128 28.808 21.93 28.6573 21.9567 28.5981C22.0408 28.4055 22.0618 28.3673 22.163 28.1861C22.3215 27.9056 22.8447 27.1673 23.0567 26.883C23.4157 26.3946 23.7078 25.8375 24.2234 25.5113L24.739 26.2668C24.8918 26.2572 26.8568 24.4333 27.1432 24.3456C27.212 24.3246 27.359 24.3513 27.4526 24.3456L27.4545 24.3418Z" fill="#F8F9FA"/>
<path d="M29.9619 33.1924L31.438 33.5701L29.9619 34.566V33.1924Z" fill="#DFF3FD"/>
<path d="M31.6787 33.5356C31.8486 33.5127 32.2115 33.9077 32.0911 34.0851C31.4648 34.3007 30.8251 34.8616 30.1338 34.7376C30.2885 34.5544 31.5813 33.5509 31.6787 33.5375V33.5356Z" fill="#170B0C"/>
<path d="M28.0044 34.4285C27.9433 34.9684 27.5118 35.7163 27.2482 35.0123C27.0248 34.4113 27.254 33.8008 27.7295 33.4001L27.592 34.4647L28.0044 34.4304V34.4285Z" fill="#240E0E"/>
<path d="M26.0129 31.4771C25.5087 31.0421 26.0129 30.9448 26.3566 30.7216C26.6526 30.5289 27.2083 30.1378 27.3878 30.5499C27.0517 30.8742 26.4731 31.374 26.0148 31.4771H26.0129Z" fill="#240E0E"/>
<path d="M31.8505 31.2709L32.6754 32.5397C32.1407 33.381 31.606 31.7422 31.713 31.2709C31.7416 31.2843 31.8218 31.2576 31.8505 31.2709Z" fill="#240E0E"/>
<path d="M24.6034 27.0854C24.7676 27.0377 25.9936 27.2017 26.0108 27.3258C26.0948 27.921 23.5188 27.4059 24.6034 27.0854Z" fill="#240E0E"/>
<path d="M26.3568 30.7234C26.013 30.9466 25.5089 31.042 26.013 31.4789C25.9997 31.4827 25.9004 31.6277 25.7381 31.5133C25.6598 31.0248 25.2396 30.7349 25.7037 30.1072C26.3491 30.1358 25.8469 30.5956 26.3568 30.7253V30.7234Z" fill="#D6E3F4"/>
<path d="M29.687 30.7236C30.2656 30.6072 30.2103 31.6909 30.0308 31.7538C29.6374 31.8874 29.1791 30.8266 29.687 30.7236Z" fill="#240E0E"/>
<path d="M28.2109 25.6449C28.1994 26.0302 28.8582 26.2439 29.0358 26.6064C29.0244 26.6198 29.0626 26.7342 29.0014 26.7438C28.7341 26.7838 26.8207 25.2309 28.2109 25.6468V25.6449Z" fill="#240E0E"/>
<path d="M25.4631 29.4872C25.3008 29.1075 24.6936 29.7676 24.4663 29.6932L24.5007 29.4872C24.7432 29.2144 24.9704 28.9244 25.2913 28.7317C25.4078 28.9931 25.5968 29.2086 25.4631 29.4872Z" fill="#6A4A1D"/>
<path d="M25.463 29.4872C25.2893 29.8459 24.4701 29.9451 24.1244 30.0367L24.0557 29.8993C24.0709 29.823 24.4319 29.5673 24.5025 29.4872L24.4681 29.6933C24.6935 29.7677 25.3007 29.1076 25.465 29.4872H25.463Z" fill="#240E0E"/>
<path d="M29.0341 26.6063C28.8565 26.2457 28.1977 26.0302 28.2091 25.6448C28.6216 25.7669 29.4466 26.1465 29.0341 26.6063Z" fill="#512B14"/>
<path d="M28.0048 34.4286L27.5923 34.4629L27.7298 33.3984C27.7412 33.3888 27.7011 33.2877 27.7641 33.261C28.0086 33.6178 28.0544 33.9917 28.0048 34.4267V34.4286Z" fill="#6A4A1D"/>
<path d="M35.4906 28.5276C35.5116 28.5372 35.4066 28.5944 35.6281 28.665C34.4957 29.1916 34.7496 28.9588 33.5676 29.0771C32.8992 29.1439 31.9807 29.1095 31.3696 29.3518L32.8801 26.9499C32.9661 26.864 33.1341 26.719 33.1551 26.6064C33.9743 27.1483 34.6599 28.1194 35.4906 28.5276Z" fill="#962920"/>
<path d="M38.1694 30.1054C39.0899 30.3039 39.9797 30.569 40.8486 30.9296C40.7226 31.088 40.2089 31.8683 40.058 31.8912C39.7754 31.9331 36.1147 29.9833 35.4902 29.8326C35.6315 29.8708 35.6201 29.7658 35.6277 29.7639C36.235 29.638 37.5259 29.9681 38.1694 30.1073V30.1054Z" fill="#9F4D23"/>
<path d="M41.1237 30.5862C41.1065 30.7617 40.9289 30.8285 40.8487 30.9296C39.9798 30.571 39.09 30.3039 38.1695 30.1054C37.9805 29.8403 38.0492 29.7887 38.1008 29.4873C39.722 29.743 39.7736 29.783 41.1237 30.5843V30.5862Z" fill="#CF892B"/>
<path d="M41.7409 32.7822C41.5423 32.8108 40.4309 32.7898 40.2991 32.7135C40.2896 32.7078 40.2208 32.5647 40.1616 32.5418C40.1922 32.4617 40.4729 32.3949 40.5741 32.3701C40.9178 32.7135 41.5996 32.1641 41.7409 32.7822Z" fill="#240E0E"/>
<path d="M41.878 32.3014C41.9601 32.433 42.0804 32.538 42.153 32.6792C42.0174 32.683 41.8379 32.7688 41.7405 32.7822C41.5992 32.164 40.9156 32.7154 40.5737 32.3701C40.9041 32.2881 41.5343 32.2308 41.878 32.3014Z" fill="#6A4A1D"/>
<path d="M36.8654 28.8004C36.7585 29.3766 37.1538 29.1648 37.2779 29.4186C36.6306 29.348 35.8667 29.1839 35.2174 29.2125C34.7763 29.2316 31.7133 29.8269 31.3027 29.968C31.6522 29.2984 33.029 29.5865 33.5694 29.0752C34.7515 28.9569 34.4975 29.1896 35.6299 28.6631C36.0233 28.789 36.4682 28.7337 36.8654 28.8004Z" fill="#791915"/>
<path d="M37.2758 29.4186C37.5451 29.4472 37.8315 29.4453 38.1008 29.4873C38.0492 29.7887 37.9805 29.8402 38.1695 30.1054C37.526 29.9661 36.2351 29.6361 35.6278 29.762C35.8627 29.4491 35.3948 29.4071 35.2153 29.2125C35.8646 29.1839 36.6284 29.348 37.2758 29.4186Z" fill="#BE783A"/>
<path d="M35.7653 36.4185C36.2274 37.0271 37.377 37.0309 37.8257 37.6528C37.2529 37.8875 36.7392 38.3015 36.1777 38.5457C35.6163 38.7899 34.8582 39.1371 34.2548 39.3012C34.123 39.3374 33.9931 39.4176 33.8423 39.4386C33.9931 38.9139 35.4349 36.884 35.4215 36.7275C35.4063 36.5348 35.179 36.7161 35.2153 36.4871C35.3757 36.4528 35.5533 36.4757 35.7653 36.4185Z" fill="#D08D8C"/>
<path d="M24.9131 35.7317C24.5102 35.3615 24.1798 34.3847 23.9507 33.8792C24.6439 34.0222 25.3963 34.0241 26.0799 34.2569C26.1353 34.3351 25.1652 35.7221 24.9131 35.7317Z" fill="#FABAA6"/>
<path d="M38.2382 37.5155L41.3986 38.6125C41.3986 38.6125 41.5037 38.6087 41.4674 38.7499C40.8047 38.9063 39.955 38.891 39.2694 38.8872C38.7767 38.8853 38.2019 38.7766 37.6901 38.7499C37.44 38.7365 37.1841 38.7651 36.9339 38.7499C36.6666 38.7327 36.3878 38.7613 36.1777 38.5438C36.7392 38.2996 37.2548 37.8856 37.8257 37.651C37.9098 37.6166 38.0339 37.5403 38.1007 37.5136C38.1332 37.5002 38.2057 37.525 38.2382 37.5136V37.5155Z" fill="#72265D"/>
<path d="M40.8485 36.4185C40.8275 36.4604 40.711 36.7428 40.711 36.7619C39.8994 37.0442 39.042 37.2121 38.2381 37.5174C38.2056 37.5288 38.133 37.504 38.1006 37.5174C38.1369 36.9069 38.0719 36.1476 38.3756 35.5962C38.5665 35.6553 38.9103 35.848 39.0287 35.8709C39.107 35.8862 39.5118 35.8709 39.2005 35.8022C39.2043 35.7793 39.1967 35.7545 39.2005 35.7336C39.2005 35.7259 39.3972 35.7564 39.338 35.6305C39.0191 34.959 38.3622 35.0467 39.7161 34.3618C39.8994 34.4362 40.3616 36.2429 40.5067 36.4547C40.6518 36.6665 40.7244 36.4757 40.8504 36.4204L40.8485 36.4185Z" fill="#E0BAD8"/>
<path d="M41.3987 38.6145L38.2383 37.5175C39.0403 37.2122 39.8996 37.0462 40.7112 36.762C40.7112 36.907 41.2975 38.2844 41.3987 38.6145Z" fill="#C16E71"/>
<path d="M42.7029 34.4973C42.1415 34.6346 42.9397 35.0448 42.9091 35.5275C42.8843 35.5103 42.7907 35.4741 42.7716 35.4588C42.4145 35.1631 41.7863 34.6003 42.1873 34.1558C42.3382 34.2969 42.5291 34.3885 42.7029 34.4992V34.4973Z" fill="#240E0E"/>
<path d="M38.3756 35.5943C38.072 36.1457 38.1369 36.905 38.1006 37.5155C38.0338 37.5403 37.9096 37.6186 37.8256 37.6529C37.3769 37.0309 36.2273 37.0271 35.7651 36.4185C36.212 36.2964 37.7779 35.4017 38.0662 35.3883C38.1884 35.3826 38.3584 35.5886 38.3756 35.5943Z" fill="#E1B5C2"/>
<path d="M38.8569 35.3195C38.9867 35.4473 39.1013 35.5808 39.2006 35.7316C39.1968 35.7525 39.2044 35.7774 39.2006 35.8002L37.1745 34.9761C37.1172 34.8711 37.5182 34.5907 37.6214 34.564C37.799 34.9951 38.4253 35.3481 38.8569 35.3195Z" fill="#240E0E"/>
<path d="M38.1696 34.7722C38.4294 34.9153 38.6451 35.1118 38.8571 35.3217C38.4255 35.3503 37.7992 34.9973 37.6216 34.5662C37.8851 34.4994 37.9787 34.6654 38.1716 34.7722H38.1696Z" fill="#6A4A1D"/>
<path d="M37.7569 34.0852C37.5812 34.4573 38.1827 34.3371 38.1694 34.7721C37.9765 34.6652 37.8848 34.4992 37.6194 34.566C37.5163 34.5927 37.1153 34.8732 37.1726 34.9781L39.1987 35.8023C39.5099 35.8729 39.1051 35.8862 39.0268 35.871C38.9103 35.8481 38.5666 35.6554 38.3737 35.5962C38.3565 35.5905 38.1866 35.3864 38.0643 35.3902C37.776 35.4016 36.212 36.2983 35.7633 36.4204C35.5513 36.4777 35.3737 36.4548 35.2133 36.4891C34.8314 36.5731 33.107 36.863 32.8091 36.8325C32.8549 36.4185 32.9065 33.7418 33.0497 33.675C34.606 33.9078 36.1796 34.0452 37.755 34.0871L37.7569 34.0852Z" fill="#E1DAEC"/>
<path d="M34.7361 34.8406C34.6827 34.9054 34.4516 35.3385 34.4268 35.4587L35.2861 35.184C35.3491 35.5713 34.148 35.7315 33.8787 35.9395C33.323 35.5045 34.4096 35.0485 34.738 34.8425L34.7361 34.8406Z" fill="#240E0E"/>
<path d="M35.2841 35.184L34.4248 35.4587C34.4496 35.3405 34.6807 34.9055 34.7342 34.8406C34.9939 34.5258 35.2307 34.8559 35.2841 35.184Z" fill="#5C3D17"/>
<path d="M28.2107 28.5962C27.7619 28.6935 27.1833 28.3578 27.5232 27.9094C27.6512 27.9094 28.0827 28.497 28.2107 28.5962Z" fill="#5C3D17"/>
<defs>
<linearGradient id="paint0_linear_366_138191" x1="20.7419" y1="8.85195" x2="21.6721" y2="15.583" gradientUnits="userSpaceOnUse">
<stop stop-color="#E0F0FB"/>
<stop offset="1" stop-color="#F8F6FA"/>
</linearGradient>
<linearGradient id="paint1_linear_366_138191" x1="19.4545" y1="16.8592" x2="21.3575" y2="20.434" gradientUnits="userSpaceOnUse">
<stop stop-color="#D37B69"/>
<stop offset="1" stop-color="#EEA093"/>
</linearGradient>
<linearGradient id="paint2_linear_366_138191" x1="13.8343" y1="20.2455" x2="15.5233" y2="27.1087" gradientUnits="userSpaceOnUse">
<stop stop-color="#FBBC8E"/>
<stop offset="1" stop-color="#FECC8A"/>
</linearGradient>
<linearGradient id="paint3_linear_366_138191" x1="22.9759" y1="24.4256" x2="19.4831" y2="28.4849" gradientUnits="userSpaceOnUse">
<stop stop-color="#E67A56"/>
<stop offset="1" stop-color="#F68F42"/>
</linearGradient>
<linearGradient id="paint4_linear_366_138191" x1="27.0133" y1="39.3737" x2="30.1832" y2="41.6698" gradientUnits="userSpaceOnUse">
<stop stop-color="#DD9F34"/>
<stop offset="1" stop-color="#CB8029"/>
</linearGradient>
<linearGradient id="paint5_linear_366_138191" x1="44.4522" y1="32.4998" x2="43.1829" y2="33.1838" gradientUnits="userSpaceOnUse">
<stop stop-color="#E0CFE6"/>
<stop offset="1" stop-color="#E6E3F1"/>
</linearGradient>
<linearGradient id="paint6_linear_366_138191" x1="45.296" y1="27.5489" x2="41.0119" y2="29.2286" gradientUnits="userSpaceOnUse">
<stop stop-color="#E7D4E7"/>
<stop offset="1" stop-color="#F8FCFE"/>
</linearGradient>
</defs>
</svg>
