<svg width="50" height="50" viewBox="0 0 50 50" fill="none" xmlns="http://www.w3.org/2000/svg">
<path d="M11.2441 45.2798C11.4726 45.3267 11.6794 45.6322 11.8943 45.6954C12.6319 45.9114 12.4466 45.5373 12.8842 45.2798C13.0252 45.1969 13.4764 45.1773 13.5025 45.1609C13.5855 45.1118 14.1015 43.637 14.2754 43.4385C16.3189 45.1816 12.4785 47.4986 11.2441 45.2787V45.2798Z" fill="#283A6C"/>
<path d="M14.277 43.4385C14.1019 43.637 13.5871 45.1108 13.5041 45.1609C13.4768 45.1773 13.0267 45.1969 12.8858 45.2798C12.4482 45.5373 12.6335 45.9114 11.8959 45.6955C11.681 45.6322 11.4742 45.3267 11.2457 45.2798C10.1887 43.3785 12.7937 42.1731 14.277 43.4396V43.4385Z" fill="#6D89C0"/>
<path d="M11.4618 43.5573C11.5936 43.518 12.5404 44.1016 12.7915 44.1813C12.4608 44.5969 10.5298 43.8344 11.4618 43.5573Z" fill="#ABBEE2"/>
<path d="M12.7607 42.9641C12.8959 42.9455 13.4915 43.2008 13.5335 43.3503C13.7779 44.2175 11.8014 43.9295 12.1106 43.3503C12.1321 43.3099 12.722 42.9695 12.7607 42.9641Z" fill="#334D91"/>
<path d="M13.1326 43.2608C13.1712 43.2674 13.3883 43.3961 13.3497 43.4692C13.236 43.5499 12.2756 43.7157 12.2358 43.5881L12.329 43.3208C12.5313 43.7408 12.6143 43.1725 13.1337 43.2619L13.1326 43.2608Z" fill="#6D89C0"/>
<path d="M36.3013 42.964C36.2547 43.2182 35.8797 43.4527 35.683 43.6174C35.5933 43.6927 35.4182 43.6392 35.4353 43.7658L36.0536 44.0625C35.9808 44.0963 35.6637 44.1814 35.6205 44.2108C35.6012 44.2239 35.5001 44.2643 35.4967 44.2697C35.1477 44.0788 34.9556 43.7658 34.692 43.4974C34.5487 43.3512 34.4135 43.2171 34.2589 43.0818C34.1043 42.9465 34.0043 42.7753 33.8259 42.6662L33.6406 42.34C34.2089 42.6673 33.9543 41.4532 34.3214 42.1317C34.4499 42.3684 34.2942 42.7829 34.7852 42.6662C34.9488 42.6269 35.1693 42.1448 35.2489 42.0728C35.2796 42.0455 35.5489 41.9604 35.5887 41.835C35.9115 42.0466 35.5739 42.1404 35.558 42.3989L35.8979 42.3095C36.2582 42.556 35.7126 42.6138 35.6808 42.9334C35.7342 42.9978 36.1741 42.952 36.2991 42.9629L36.3013 42.964Z" fill="#68A443"/>
<path d="M35.2502 42.0727C35.1695 42.1447 34.9501 42.6279 34.7865 42.6661C34.2955 42.7828 34.4501 42.3683 34.3228 42.1316C34.5933 42.0345 34.974 41.9298 35.2513 42.0727H35.2502Z" fill="#6F7BB8"/>
<path d="M38.2812 43.4986C38.2096 43.7975 38.0232 44.0473 37.9096 44.3298C37.3049 44.8524 36.6877 45.3345 35.8058 45.2211C35.8012 44.9669 35.475 44.5436 35.4966 44.3298C36.8219 44.7935 37.4618 44.5382 35.6205 44.2109C35.6637 44.1815 35.9808 44.0964 36.0535 44.0626L35.4352 43.7659C35.4182 43.6393 35.5932 43.6928 35.683 43.6175C36.149 43.9088 36.5389 44.2535 37.1367 44.0331C37.7345 43.8128 37.3708 43.4713 37.3538 43.083C37.7823 43.1801 37.9323 43.2445 38.2824 43.4986H38.2812Z" fill="#6D89C0"/>
<path d="M38.7145 45.6355C38.7077 45.6442 38.5656 45.7391 38.5292 45.7544C38.1746 45.365 38.0473 46.0162 37.8177 46.1111C37.7961 46.1198 37.3915 46.05 37.354 46.0522C37.5438 45.4828 37.6859 44.8883 37.9109 44.3298C38.0246 44.0472 38.2098 43.7974 38.2826 43.4985C38.9748 44.0014 39.2589 44.9014 38.7156 45.6366L38.7145 45.6355Z" fill="#2C296A"/>
<path d="M37.3537 46.0511C36.7275 46.0838 36.1842 46.0805 35.5591 45.9322C35.625 45.8318 35.7262 45.5209 35.7443 45.3976C35.7534 45.3387 35.808 45.3333 35.8057 45.2198C36.6877 45.3344 37.3049 44.8511 37.9095 44.3286C37.6845 44.8871 37.5424 45.4805 37.3526 46.0511H37.3537Z" fill="#283A6C"/>
<path d="M38.5292 45.7544C38.5382 45.7642 38.5246 45.8362 38.5292 45.8733C38.4223 45.8896 38.2098 46.1274 38.0961 46.17C37.6131 46.351 37.4392 46.5212 36.8584 46.5267C36.3674 46.531 35.7718 46.3849 35.374 46.1111C35.4263 46.0511 35.5525 45.9431 35.5593 45.9333C36.1833 46.0816 36.7265 46.0838 37.3539 46.0522C37.3926 46.05 37.7961 46.1209 37.8177 46.1111C38.0472 46.0162 38.1745 45.3649 38.5292 45.7544Z" fill="#283A6C"/>
<path d="M35.4977 44.3297C35.5 44.3079 35.4909 44.2806 35.4977 44.2708C35.5011 44.2654 35.6023 44.2239 35.6216 44.2119C37.4628 44.5392 36.8229 44.7944 35.4977 44.3308V44.3297Z" fill="#6D89C0"/>
<path d="M37.3539 43.0818C37.3721 43.4701 37.7233 43.8159 37.1368 44.0319C36.5503 44.2479 36.1491 43.9076 35.6831 43.6163C35.8797 43.4516 36.2548 43.2171 36.3014 42.9629C36.6753 42.9978 36.9754 42.9967 37.3527 43.0818H37.3539Z" fill="#334D91"/>
<path d="M36.8902 43.3796C37.6858 43.4843 36.5776 43.9784 36.1787 43.7657C36.2685 43.4625 36.5936 43.5137 36.8288 43.4985C36.8754 43.4952 36.847 43.3741 36.8902 43.3796Z" fill="#889EC9"/>
<path d="M35.7455 45.3977C35.7273 45.521 35.6262 45.8319 35.5603 45.9322C35.5534 45.9431 35.4273 46.05 35.375 46.11C35.3125 46.1809 34.876 46.5573 34.8181 46.5846C34.0782 46.9358 32.6756 46.9391 31.8482 46.9413L31.5391 46.7929L31.8482 46.3478C31.9505 46.4144 31.7971 46.4547 31.8789 46.4667C32.0801 46.4962 32.5995 46.0784 32.3733 46.7045C32.6052 46.3871 32.9007 46.5529 33.2394 46.5267L33.1155 46.7645C33.428 46.6969 33.4667 46.4253 33.8577 46.5267C33.8111 46.2137 32.3995 46.4646 32.5893 46.0817C32.6722 45.9137 33.6451 46.0697 33.8577 45.9922C33.6417 45.6432 33.4292 45.2297 34.0122 45.161C34.1145 45.149 34.6544 45.1446 34.6931 45.1905C34.6453 45.8111 34.2112 45.4293 33.827 45.665C34.2168 45.7675 34.5328 45.5123 34.3532 46.0511C34.476 45.6148 35.2613 45.6072 35.2818 45.9922L35.4671 45.6955L34.6317 45.6061C34.8238 45.4424 34.7749 45.1479 34.8169 44.9821C34.8215 44.9636 34.8135 44.9417 34.8169 44.9232C34.884 44.5523 35.5273 44.6996 35.4978 44.8937C35.4625 45.1228 34.643 45.0683 34.9101 45.5177C35.0965 45.2265 35.3318 45.1392 35.683 45.1915L35.4046 45.4588L35.7444 45.3999L35.7455 45.3977Z" fill="#A31E22"/>
<path d="M31.5379 46.2888C31.9368 46.4994 31.2299 46.7186 31.4765 47.0011C31.0685 46.987 30.6786 46.8321 30.4252 46.8233C30.424 46.7055 30.3285 46.5713 30.3013 46.4666C30.3933 46.4688 30.3513 46.3946 30.3626 46.3477C30.8923 46.4175 31.0537 46.4404 31.5379 46.2888Z" fill="#C12629"/>
<path d="M31.8472 46.3477L31.538 46.7928L31.8472 46.9411C31.6869 46.9411 31.5721 47.0033 31.4755 47C31.2289 46.7164 31.9358 46.4982 31.5369 46.2877C31.5482 46.2844 31.4948 46.0946 31.754 46.1688C31.8574 46.1982 31.8381 46.3411 31.8472 46.3466V46.3477Z" fill="#DE2132"/>
<path d="M34.0124 45.161V45.1021L34.8171 44.9832C34.7739 45.149 34.8239 45.4435 34.6318 45.6071L35.4672 45.6966L35.282 45.9933C35.2626 45.6082 34.4773 45.6169 34.3534 46.0522C34.533 45.5133 34.2181 45.7686 33.8271 45.666C34.2113 45.4304 34.6455 45.8122 34.6932 45.1915C34.6546 45.1446 34.1147 45.1501 34.0124 45.1621V45.161Z" fill="#DE2132"/>
<path d="M33.3939 42.9641L32.9608 43.1725C33.0665 43.5063 33.2495 42.9423 33.2086 43.4692C33.112 43.6132 32.9665 43.5379 32.8369 43.5587C32.7426 43.5739 32.5994 43.6885 32.4653 43.5881C32.438 42.7962 32.7039 42.8834 33.3939 42.9641Z" fill="#FCF7FB"/>
<path d="M31.9707 43.7953C32.3901 43.672 32.0332 44.3603 31.9707 44.4192C31.8059 44.5741 31.79 44.4007 31.5377 44.5087C31.5252 44.5141 31.4695 44.6188 31.3524 44.5676C31.341 44.5349 31.3479 44.4378 31.3524 44.3898C31.3524 44.3854 31.3865 44.4138 31.4138 44.3309C31.4286 44.2851 31.4615 44.1127 31.4752 44.0931C31.6354 43.8727 31.7911 43.8738 31.9696 43.7964L31.9707 43.7953Z" fill="#DE2132"/>
<path d="M30.9199 44.5663C30.8722 44.7005 30.7801 44.8445 30.7346 44.982C30.6119 45.2056 30.6051 44.538 30.6107 44.5074C30.6255 44.4311 30.6471 44.3427 30.6721 44.2696C30.6846 44.2325 31.0472 43.6958 31.1052 43.6162C31.4734 43.7395 31.029 44.2565 30.9199 44.5663Z" fill="#EA9367"/>
<path d="M33.8271 42.6662C34.0056 42.7753 34.1079 42.9488 34.2602 43.0818C34.1067 43.2367 33.6134 42.9891 33.3941 42.9629C32.7042 42.8811 32.4394 42.795 32.4655 43.5869C32.5985 43.6873 32.7417 43.5727 32.8372 43.5575L32.7758 43.7953C32.5792 43.7876 32.5314 43.7353 32.3428 43.7364C32.2064 43.7364 32.0813 43.6556 32.0029 43.6774C31.9484 43.6927 31.9791 43.7931 31.9722 43.7963C31.7927 43.8749 31.6369 43.8727 31.4778 44.0931L31.6631 43.7069C31.5199 43.4473 31.2573 44.2763 31.4153 44.3309C31.388 44.4138 31.3539 44.3865 31.3539 44.3898C31.205 44.3538 31.1471 44.4421 31.0448 44.5087C31.0118 44.5305 30.9618 44.5588 30.9209 44.5676C31.03 44.2578 31.4755 43.7407 31.1062 43.6174C31.1732 43.5258 31.5687 42.9902 31.6006 42.964C31.6199 42.9488 31.9506 42.7382 31.9722 42.7262C32.6724 42.3193 33.1497 42.2528 33.8283 42.6673L33.8271 42.6662Z" fill="#EF4247"/>
<path d="M32.3108 43.1418C32.6052 43.5356 32.0074 43.7211 31.8471 43.528C31.755 43.4178 32.2881 43.2215 32.3108 43.1418Z" fill="#FCF7FB"/>
<path d="M31.4766 44.092C31.463 44.1116 31.43 44.284 31.4153 44.3298C31.2561 44.2763 31.5187 43.4473 31.663 43.7058L31.4778 44.092H31.4766Z" fill="#F0967C"/>
<path d="M34.6935 43.4986C34.956 43.7669 35.1492 44.08 35.4982 44.2709C35.4913 44.2807 35.5004 44.3091 35.4982 44.3298C35.4766 44.5436 35.8028 44.9669 35.8073 45.221C35.8096 45.3345 35.7539 45.3399 35.7459 45.3988L35.4061 45.4578L35.6846 45.1905C35.3334 45.1381 35.0981 45.2254 34.9117 45.5167C34.6446 45.0672 35.4641 45.1218 35.4993 44.8927C35.53 44.6985 34.8856 44.5513 34.8185 44.9221L33.9831 44.9811L34.0138 45.1V45.1589C33.4307 45.2276 33.6433 45.641 33.8592 45.9901C33.6478 46.0664 32.6738 45.9115 32.5908 46.0795C32.401 46.4624 33.8126 46.2115 33.8592 46.5246C33.4682 46.4231 33.4296 46.6948 33.117 46.7624L33.2409 46.5246C32.9022 46.5508 32.6067 46.385 32.3749 46.7024C32.601 46.0763 32.0816 46.4941 31.8804 46.4646C31.7986 46.4526 31.9509 46.4122 31.8498 46.3457C31.8407 46.3402 31.86 46.1973 31.7566 46.1679C31.4974 46.0937 31.552 46.2824 31.5395 46.2868C31.0553 46.4384 30.8939 46.4166 30.3643 46.3457C30.4575 45.9606 30.6132 45.3443 30.7359 44.98C30.7814 44.8425 30.8734 44.6985 30.9212 44.5644C30.9621 44.5545 31.0121 44.5262 31.0451 44.5054C31.477 44.5 31.036 45.1632 30.9837 45.3072C31.2837 45.3639 31.2133 44.8414 31.386 44.7433C31.918 44.4422 32.0293 45.2996 31.4792 45.3672L31.7577 45.3967C32.0498 44.8142 32.0725 44.3669 32.3453 43.7342C32.534 43.7342 32.5817 43.7855 32.7783 43.7931C33.5069 43.8226 33.8263 44.0658 33.9229 43.1997L33.9842 43.6742C34.1536 43.3328 34.1991 43.287 34.5105 43.5848C34.6332 43.9982 34.0774 43.888 34.0774 43.9415L34.5719 44.0604L34.0774 44.1793C34.5173 44.2284 34.581 44.1466 34.6037 44.6243L34.6969 43.4964L34.6935 43.4986Z" fill="#DE2132"/>
<path d="M34.8173 44.9231C34.8139 44.9427 34.8219 44.9645 34.8173 44.982L34.0126 45.1009L33.9819 44.982L34.8173 44.9231Z" fill="#F37252"/>
<path d="M34.2604 43.0819C34.415 43.2172 34.5502 43.3513 34.6934 43.4975L34.6002 44.6255C34.5775 44.1466 34.5139 44.2295 34.074 44.1804L34.5684 44.0615L34.074 43.9426C34.074 43.8891 34.6298 44.0004 34.507 43.5859C34.1956 43.2881 34.1502 43.3339 33.9808 43.6753L33.9194 43.2008C33.8228 44.068 33.5034 43.8237 32.7749 43.7942L32.8363 43.5564C32.9658 43.5357 33.1113 43.6121 33.2079 43.467C33.2489 42.9401 33.0659 43.503 32.9602 43.1703L33.3932 42.9619C33.6126 42.9881 34.1058 43.2357 34.2593 43.0808L34.2604 43.0819Z" fill="#F37252"/>
<path d="M32.3426 43.7352C32.0698 44.3679 32.0471 44.8151 31.755 45.3976L31.4765 45.3682C32.0266 45.3006 31.9152 44.4432 31.3833 44.7442C31.2105 44.8424 31.281 45.366 30.981 45.3082C31.0344 45.1642 31.4742 44.501 31.0423 44.5064C31.1446 44.4399 31.2026 44.3515 31.3515 44.3875C31.3469 44.4355 31.3401 44.5337 31.3515 44.5653C31.4015 44.7039 31.6606 44.6711 31.8152 44.6842L31.5367 44.5064C31.7891 44.3984 31.805 44.5719 31.9698 44.417C32.0323 44.3581 32.3892 43.6708 31.9698 43.793C31.9766 43.7897 31.9459 43.6894 32.0005 43.6741C32.08 43.6523 32.2039 43.7341 32.3403 43.733L32.3426 43.7352Z" fill="#F15C52"/>
<path d="M33.6725 43.9141C34.151 43.9097 33.9759 44.3821 33.7964 44.6864L33.8896 44.1814L33.3326 44.1224C33.2838 44.0068 33.6475 43.9152 33.6725 43.9141Z" fill="#F37252"/>
<path d="M31.8777 45.4578C32.0584 45.8734 31.5708 46.2944 31.2275 46.0217C31.8799 46.0141 32.0606 45.5832 31.2889 45.5472L31.8765 45.4578H31.8777Z" fill="#EF4247"/>
<path d="M32.497 43.9141C32.5641 43.8934 33.1164 43.9065 33.1471 43.9436L32.8687 44.6854C32.7311 44.5523 33.0858 44.213 33.0232 44.0614C32.9346 43.8476 32.4947 44.0614 32.4356 44.0319C32.3754 44.0025 32.4788 43.9185 32.497 43.913V43.9141Z" fill="#F0967C"/>
<path d="M32.8371 44.9822C32.8382 44.9047 32.8541 44.8491 32.7439 44.8633L32.0938 44.8927C32.3381 44.6669 32.878 44.6156 32.8359 44.9822H32.8371Z" fill="#F15C52"/>
<path d="M33.1773 44.8642C33.266 44.8446 33.7786 44.8129 33.8274 44.9537L32.9921 45.102C32.8852 45.0017 33.1364 44.874 33.1773 44.8642Z" fill="#F37252"/>
<path d="M30.9507 45.4576C31.0609 45.4532 31.0996 45.4587 31.1678 45.547C31.0382 46.1394 31.1257 45.3758 30.6108 45.7249C30.6711 45.6627 30.8836 45.4598 30.9507 45.4576Z" fill="#F15C52"/>
<path d="M32.8373 44.9819C32.8157 45.1685 32.6679 45.7793 32.3735 45.5754C32.4463 45.4968 32.8373 45.019 32.8373 44.9819Z" fill="#F15C52"/>
<path d="M31.353 44.5662C31.4701 44.6175 31.5258 44.5128 31.5383 44.5073L31.8168 44.6851C31.661 44.672 31.403 44.7059 31.353 44.5662Z" fill="#EE252E"/>
<path d="M36.4251 3.47552C36.5376 3.71441 36.0159 4.58272 35.8682 4.90016C35.3772 5.14451 34.6407 6.09573 34.6304 6.59206C34.6236 6.89968 34.7555 6.75678 34.8782 6.59206C34.7145 7.28802 34.6623 6.74041 34.5384 6.74041C34.3804 6.74041 33.8576 7.53891 34.2906 7.69054C34.3815 7.64691 34.5168 6.95313 34.693 7.21602C33.5052 9.63551 32.3152 12.1477 31.0116 14.4603L30.4854 13.9258L35.8068 3.32716C35.9546 3.12972 36.2273 3.42207 36.4251 3.47552Z" fill="#DE2132"/>
<path d="M36.4255 3.47561C36.2278 3.42216 35.955 3.12981 35.8072 3.32725L30.4869 13.927H30.4256C30.1869 13.807 30.08 13.5856 29.9312 13.3925L30.4256 12.4718C30.5972 12.5034 30.3108 12.7609 30.5494 12.6496L30.9211 11.61C32.0395 9.66288 34.1933 5.72493 34.8809 3.71232L35.4072 3C35.6879 3.20726 36.2573 3.11236 36.4278 3.47452L36.4255 3.47561Z" fill="#E1E2E8"/>
<path d="M35.8685 4.90137C35.5071 5.68132 35.0729 6.44382 34.6933 7.21723C34.5183 6.95434 34.3819 7.64811 34.291 7.69175C33.8579 7.54012 34.3808 6.74162 34.5387 6.74162C34.6626 6.74162 34.7149 7.28923 34.8786 6.59327C34.7558 6.75798 34.6251 6.90088 34.6308 6.59327C34.641 6.09584 35.3775 5.14572 35.8685 4.90137Z" fill="#B62F3B"/>
<path d="M25.8462 6.32593C25.5132 6.93135 25.171 7.17351 25.3518 7.92947C25.1983 8.06582 25.3336 8.34835 25.4131 8.49344C26.1371 9.80136 27.5192 10.4537 27.6408 12.2045L26.8986 13.4808C25.5177 15.0887 23.5378 15.9374 21.5783 16.7173C21.5363 16.5613 21.3942 16.8057 21.3931 16.6279C21.3919 16.3846 22.9377 15.8043 23.2184 15.6483C24.5812 14.8901 27.5419 13.1023 27.1475 11.3427C27.1271 11.2522 26.6986 10.4253 26.6531 10.3926C26.5327 10.3053 26.4099 10.4526 26.2201 10.3337L26.4054 11.4616C26.6884 11.4398 26.4008 10.7373 26.5599 10.7788C27.4385 11.8041 26.6168 12.9474 25.57 13.5102C25.0096 13.8113 25.2802 13.6291 24.9824 13.3913C25.5848 12.7215 25.8291 11.8467 25.4154 11.0166C25.5484 9.94753 24.8073 9.07813 24.6732 8.04728C24.8085 7.52586 24.8312 7.05352 25.2915 6.65209C24.9642 6.72845 24.6573 7.0197 24.4868 7.27605H24.3629C24.7073 6.83208 25.2506 6.38156 25.8473 6.32593H25.8462Z" fill="#F6B4C3"/>
<path d="M31.2289 15.0548C31.3483 15.2675 31.5029 15.645 31.5381 15.886C31.587 16.2231 31.5722 16.4173 31.4142 16.7467C30.9755 17.6663 28.2966 19.4553 27.1452 19.2698C27.0838 19.2415 27.0213 19.2109 26.96 19.1804L27.0532 19.0909C28.7614 18.1954 31.7427 16.1958 30.3015 14.0436C30.3106 14.0534 30.3549 14.0338 30.3629 14.0436C30.6231 14.3338 31.0448 14.7254 31.2289 15.0526V15.0548Z" fill="#EF4C7A"/>
<path d="M33.642 16.4208C33.642 16.4284 33.4919 16.3815 33.5181 16.5102C33.567 16.7426 34.0477 16.904 33.9511 17.5792C33.892 17.9905 32.8134 19.1184 32.4349 19.2711C32.3542 19.3039 31.7928 19.1631 31.9087 19.39C31.4359 19.414 30.9585 19.4326 30.4857 19.4489C29.9538 19.4686 29.4059 19.4358 28.8774 19.4489C29.4298 19.1555 30.0367 18.9264 30.5789 18.6177C30.7983 18.4934 31.8121 17.8694 31.9712 17.7265C32.4383 18.0341 32.2144 18.057 31.9098 18.3505L32.1269 18.6177C33.2453 17.6905 33.9738 16.8309 32.6531 15.6484C32.9134 15.8197 33.6136 16.148 33.6431 16.4208H33.642Z" fill="#C273AF"/>
<path d="M24.7319 13.6304C24.4853 13.8333 24.1841 13.9631 23.8966 14.1049C22.4258 14.8336 20.655 15.3255 19.1639 16.064C19.0206 15.8251 18.2057 15.6168 17.9261 15.5895C17.6681 15.5633 17.4783 15.6539 17.1839 15.6484C16.76 15.6408 16.6623 15.7444 16.4418 15.4706C16.3986 15.4183 16.3486 15.3539 16.3179 15.2928C16.6077 15.3081 17.517 15.2917 17.7716 15.2339C17.9852 15.1859 17.9295 15.2241 17.9261 14.9961C17.942 15.0114 18.0591 14.9787 18.0807 14.9961C18.1398 15.043 18.1739 15.2645 18.266 15.2928C18.316 15.3081 19.0763 15.1488 19.132 15.115L19.0081 14.6405C19.6401 15.2983 19.7651 14.4267 18.9775 14.551C19.1661 14.1376 19.6696 14.7419 19.7503 14.7594C19.7822 14.7659 20.2879 14.6514 20.4004 14.6405C21.3825 14.5434 22.3622 14.2423 23.3396 14.106C23.4328 14.0525 23.4737 13.8518 23.4942 13.7493L24.7319 13.6304Z" fill="#FCF7FB"/>
<path d="M32.6512 15.6494C33.9719 16.8318 33.2445 17.6903 32.125 18.6186L31.9079 18.3514C32.2125 18.0579 32.4364 18.0361 31.9693 17.7274C32.6342 17.134 32.7126 16.7358 32.341 16.005C32.2068 15.741 31.9409 15.3712 31.7227 15.1738C31.8966 14.9545 32.4614 15.5239 32.6512 15.6483V15.6494Z" fill="#D78ABB"/>
<path d="M24.4841 7.27612C23.7397 8.40078 24.125 10.3534 22.9373 11.3733C22.8782 11.2795 22.76 11.0821 22.6895 11.0166C21.9837 10.6359 23.0055 9.86033 23.3078 9.32473C23.6829 8.6604 23.8874 7.88372 24.3591 7.27612H24.483H24.4841Z" fill="#FCDFE7"/>
<path d="M31.723 15.1738C31.9413 15.3713 32.2072 15.7411 32.3413 16.005C32.1595 16.1021 32.3766 16.3923 32.3413 16.629C32.2754 17.0752 31.2139 17.9217 30.8251 18.2031C30.6922 18.2991 29.3101 19.09 29.2169 19.0943C29.2055 19.0943 28.9839 19.0136 29.0316 18.9754C29.9613 18.4245 32.247 17.1308 31.723 15.8578C31.6514 15.6843 31.5957 15.8589 31.5378 15.8872C31.5025 15.6462 31.348 15.2687 31.2286 15.056C31.29 14.6971 31.5685 15.0342 31.723 15.1749V15.1738Z" fill="#ECBAD6"/>
<path d="M33.6418 16.4206C33.876 16.4293 33.9498 16.5569 34.0749 16.7173C34.2544 16.9485 34.5227 17.4427 34.5079 17.7263C34.4761 18.3481 33.7771 18.7408 33.5793 19.1215C33.4861 19.3026 33.6691 19.1357 33.7032 19.2699C33.1076 19.3179 32.5064 19.3571 31.9085 19.3888C31.7915 19.163 32.3541 19.3026 32.4348 19.2699C32.8133 19.116 33.8919 17.9881 33.951 17.578C34.0476 16.9027 33.5668 16.7413 33.5179 16.5089C33.4907 16.3813 33.643 16.4271 33.6418 16.4195V16.4206Z" fill="#C273AF"/>
<path d="M29.9297 13.3925C30.0798 13.5856 30.1855 13.807 30.4242 13.927L30.3628 14.0459C30.3537 14.0361 30.3094 14.0557 30.3014 14.0459C30.123 13.8506 30.1855 13.9946 30.1775 13.987C30.1718 13.9804 30.0593 13.9335 30.0536 13.9281C29.9945 13.867 29.3717 12.6671 29.3114 13.1558C29.2705 12.918 28.7227 12.0235 28.5693 11.7311C28.1635 10.9599 27.993 10.6272 27.394 9.94978L27.5179 9.77197C28.0328 10.2694 28.6318 10.6446 29.0023 11.2861C29.4899 12.1304 29.3058 12.5896 29.9309 13.3936L29.9297 13.3925Z" fill="#F6B4C3"/>
<path d="M34.9408 19.0933C34.7987 19.0987 34.6487 19.0791 34.5077 19.0933C34.5612 18.7126 34.951 17.9795 34.5077 17.7275C34.5225 17.4428 34.2543 16.9498 34.0747 16.7185C34.4646 16.9749 34.9658 17.0501 35.126 17.5792C35.2511 17.9893 35.2761 18.778 34.9408 19.0933Z" fill="#F9D5E5"/>
<path d="M27.5165 9.7709L27.3927 9.94871C27.0164 9.52219 26.3129 8.86768 25.8765 8.46407C25.814 8.40626 25.7139 8.25572 25.7219 8.46407C25.6389 8.33753 25.4412 8.30699 25.3502 7.92956C25.1695 7.17469 25.5128 6.93144 25.8446 6.32602C25.9037 6.32056 26.0333 6.1733 26.0299 6.35547C24.982 8.03864 26.4584 8.74878 27.5143 9.76981L27.5165 9.7709Z" fill="#F16771"/>
<path d="M19.04 19.3898C17.617 19.3364 16.1372 19.464 14.771 19.0037C14.8926 18.8881 15.2677 18.8771 15.4518 18.8553L16.2247 19.0331L17.1839 18.7364C17.7806 18.6284 18.9138 18.2641 19.473 18.0241C19.5696 17.9827 19.8492 17.9488 19.906 17.8758C20.0447 17.6958 19.9299 17.4918 19.906 17.3118C20.1584 17.2747 20.4005 17.1907 20.6482 17.134C22.2485 16.7675 23.5908 16.4358 25.165 15.946C25.6742 15.7879 26.2084 15.6373 26.7119 15.4715C27.5347 15.1999 28.694 14.9894 29.1248 14.1058C29.3714 14.0785 29.3214 14.1658 29.2487 14.3141C28.1871 16.4784 21.2495 18.3012 19.04 19.3909V19.3898Z" fill="#FCDFE7"/>
<path d="M30.0533 13.927C29.9249 14.2685 29.9794 14.6012 29.8055 14.9666C29.0883 16.4785 24.9773 18.1999 23.3714 18.7966C22.7042 19.0442 22.012 19.2492 21.3301 19.45C20.564 19.4347 19.8059 19.4194 19.041 19.3911C21.2505 18.3002 28.1882 16.4785 29.2497 14.3143C29.3225 14.167 29.3725 14.0797 29.1258 14.1059C29.2634 13.8234 29.3645 13.4678 29.3111 13.1558C29.3713 12.6671 29.9942 13.867 30.0533 13.9281V13.927Z" fill="#ECBAD6"/>
<path d="M30.3002 14.0458C31.7425 16.1981 28.7601 18.1976 27.0518 19.0932L26.9586 19.1826C27.02 19.2121 27.0825 19.2437 27.1439 19.2721C27.3326 19.3593 27.4951 19.2721 27.5769 19.4499C26.3801 19.4651 25.1879 19.5175 23.9888 19.5088L24.5457 19.0932C25.4925 19.0059 28.4805 17.2125 29.217 16.5395C30.0217 15.8032 30.5729 15.1083 30.1763 13.9858C30.1842 13.9946 30.1217 13.8495 30.3002 14.0447V14.0458Z" fill="#F0609A"/>
<path d="M32.3426 16.0049C32.7142 16.7358 32.6358 17.134 31.9709 17.7274C31.8118 17.8692 30.798 18.4932 30.5786 18.6186C30.0365 18.9273 29.4295 19.1575 28.8772 19.4498C28.435 19.4607 28.0156 19.4444 27.5781 19.4498C27.4962 19.272 27.3337 19.3582 27.145 19.272C28.2964 19.4575 30.9753 17.6674 31.414 16.7489C31.5708 16.4195 31.5868 16.2242 31.5379 15.8882C31.5958 15.8599 31.6527 15.6853 31.7231 15.8588C32.2471 17.1318 29.9615 18.4255 29.0317 18.9764C28.984 19.0146 29.2068 19.0953 29.217 19.0953C29.3102 19.0909 30.6923 18.3012 30.8253 18.2041C31.214 17.9226 32.2755 17.0761 32.3414 16.63C32.3767 16.3933 32.1596 16.1031 32.3414 16.006L32.3426 16.0049Z" fill="#ECBAD6"/>
<path d="M23.3715 18.7964C23.1783 19.0942 24.4422 19.1029 24.5467 19.0931L23.9898 19.5087C23.1044 19.5022 22.2156 19.4673 21.3291 19.4498C22.011 19.2491 22.7032 19.044 23.3704 18.7964H23.3715Z" fill="#C273AF"/>
<path d="M17.0604 18.7365C17.099 18.73 17.1456 18.7431 17.1843 18.7365L16.225 19.0332L15.4521 18.8554C15.9602 18.7954 16.5671 18.8216 17.0604 18.7365Z" fill="#ECBAD6"/>
<path d="M25.4126 11.0177C25.3138 11.8162 24.2158 12.7773 23.4952 13.1558C23.4907 13.0434 23.4407 13.0325 23.4339 12.978C23.7351 12.9496 23.4157 12.4631 23.4339 12.354C23.443 12.3017 24.0226 11.6875 24.1147 11.5228C24.7705 10.3425 24.3363 9.33676 24.6716 8.04956C24.8068 9.08041 25.5468 9.94872 25.4138 11.0188L25.4126 11.0177Z" fill="#FCDFE7"/>
<path d="M24.6711 8.04838C24.3358 9.33667 24.77 10.3413 24.1142 11.5216C24.0221 11.6863 23.4425 12.3005 23.4334 12.3529C23.4152 12.4619 23.7346 12.9474 23.4334 12.9768C23.3709 12.4816 23.2174 11.8162 22.939 11.3733C24.1267 10.3533 23.7414 8.40072 24.4858 7.27606C24.6552 7.01971 24.9621 6.72955 25.2905 6.6521C24.8302 7.05353 24.8075 7.52587 24.6722 8.04729L24.6711 8.04838Z" fill="#FCF7FB"/>
<path d="M24.9801 13.3923C24.9688 13.4054 24.746 13.6192 24.7324 13.6302L23.4946 13.7491C23.5219 13.6149 23.5014 13.3116 23.4946 13.1556C24.2164 12.7782 25.3131 11.8172 25.412 11.0176C25.8257 11.8477 25.5814 12.7226 24.979 13.3923H24.9801Z" fill="#F9D5E5"/>
<path d="M21.5774 16.7172C21.2671 16.8405 20.8988 16.9071 20.6488 17.1329C20.401 17.1896 20.1589 17.2747 19.9066 17.3107C19.8759 17.0849 19.8168 16.9725 19.7213 16.7762C19.5861 16.4991 19.4338 16.2918 19.1644 16.1227C19.1565 16.1053 19.1724 16.0769 19.1644 16.0638C20.6556 15.3242 22.4264 14.8334 23.8971 14.1047C24.1847 13.9618 24.4859 13.832 24.7325 13.6302C24.7461 13.6192 24.9689 13.4054 24.9803 13.3924C25.278 13.6302 25.0075 13.8123 25.5679 13.5113C26.6147 12.9484 27.4364 11.8052 26.5578 10.7798C26.3987 10.7383 26.6851 11.4408 26.4033 11.4626L26.218 10.3347C26.4078 10.4547 26.5306 10.3074 26.651 10.3936C26.6965 10.4263 27.1261 11.2532 27.1454 11.3437C27.5398 13.1033 24.5791 14.8901 23.2163 15.6493C22.9356 15.8053 21.3898 16.3856 21.391 16.6289C21.3921 16.8056 21.5342 16.5623 21.5762 16.7183L21.5774 16.7172Z" fill="#F6B4C3"/>
<path d="M27.6402 12.2043C27.6549 12.416 27.4435 13.1087 27.7015 12.9767C27.1514 14.2082 26.1626 15.0591 25.1647 15.9459C23.5917 16.4357 22.2482 16.7673 20.6479 17.1339C20.8969 16.9081 21.2651 16.8415 21.5765 16.7183C23.5371 15.9394 25.5159 15.0896 26.8968 13.4817L27.639 12.2054L27.6402 12.2043Z" fill="#EC7C94"/>
<path d="M25.7215 8.46396C26.7228 9.99332 28.6073 10.95 27.7014 12.9768C27.4423 13.1088 27.6537 12.4161 27.64 12.2045C27.5184 10.4537 26.1364 9.80133 25.4124 8.49341C25.3317 8.34833 25.1975 8.0658 25.351 7.92944C25.4408 8.30578 25.6385 8.33742 25.7226 8.46396H25.7215Z" fill="#F5919E"/>
<path d="M34.5075 19.0933C34.3506 19.1085 33.9778 19.2493 33.7028 19.2711C33.6687 19.1369 33.4857 19.3038 33.5789 19.1227C33.7755 18.742 34.4757 18.3482 34.5075 17.7275C34.9508 17.9795 34.5609 18.7126 34.5075 19.0933Z" fill="#D78ABB"/>
<path d="M30.176 13.9859C30.5726 15.1084 30.0214 15.8033 29.2167 16.5396C28.4813 17.2126 25.4922 19.0049 24.5454 19.0932C24.4397 19.1031 23.177 19.0932 23.3702 18.7965C24.9762 18.1998 29.0871 16.4785 29.8043 14.9666C29.9771 14.6011 29.9237 14.2684 30.0521 13.927C30.0578 13.9335 30.1703 13.9805 30.176 13.9859Z" fill="#EB91BD"/>
<path d="M27.3927 9.94876C27.9917 10.6262 28.1622 10.9589 28.5679 11.7301C28.427 11.6494 28.3815 11.6145 28.3827 11.8196C28.3884 13.0991 28.4975 13.2464 27.6405 14.3132C27.3188 14.7136 26.6983 14.9416 26.7119 15.4706C26.2084 15.6364 25.6742 15.787 25.165 15.9451C26.163 15.0583 27.1506 14.2074 27.7019 12.9759C28.6077 10.9491 26.7233 9.9924 25.722 8.46303C25.714 8.25468 25.8152 8.40522 25.8765 8.46303C26.313 8.86665 27.0154 9.52115 27.3927 9.94767V9.94876Z" fill="#E06374"/>
<path d="M28.5677 11.73C28.7222 12.0223 29.2701 12.9168 29.3099 13.1546C29.3633 13.4666 29.2621 13.8222 29.1246 14.1048C28.6938 14.9883 27.5345 15.1989 26.7116 15.4705C26.698 14.9404 27.3186 14.7124 27.6402 14.3131C28.4972 13.2463 28.3881 13.0979 28.3824 11.8194C28.3824 11.6144 28.4279 11.6504 28.5677 11.73Z" fill="#E06374"/>
<path d="M13.0388 11.1367C13.032 11.1433 12.8274 11.1324 12.8842 11.2556C13.3446 11.2774 13.7401 11.4149 14.0901 11.7007L13.5025 12.0269C14.1981 11.897 14.6027 11.9723 15.0801 12.4719C15.0619 12.6574 13.8901 12.761 13.8742 12.917C14.2913 13.0315 14.8858 12.6203 15.2358 12.6792C15.2756 12.6857 15.87 12.9944 15.9473 13.0653C15.9871 13.3479 14.846 13.4929 14.8028 13.8071C15.8041 13.3828 16.3622 13.0762 17.2464 13.8966C16.7088 13.998 16.3201 14.1409 15.8848 14.49C16.1474 14.5227 16.9793 13.9991 17.1532 14.0449C17.201 14.0569 17.6795 14.7987 17.6795 14.8467C17.6783 15.2121 16.1985 15.1761 15.9166 15.1139C15.6177 15.0474 15.3643 14.6569 15.0506 14.6394L15.1744 14.5205C14.9926 14.5543 14.863 14.4638 14.7107 14.4016C13.9151 14.0798 14.3538 14.13 14.2777 14.0155C14.247 13.9696 13.9128 13.8747 13.7833 13.7188C13.7583 13.6893 13.9424 13.7122 13.8765 13.6293C13.7855 13.5169 13.5707 13.4057 13.5366 13.362C13.2945 13.0599 12.0716 11.392 11.9898 11.1651C11.9625 11.0909 12.0614 11.068 12.0511 11.0167C12.0216 10.864 12.0466 10.8487 11.9272 10.6906C12.0102 10.5924 12.9229 10.9786 13.0411 11.1356L13.0388 11.1367Z" fill="#68A443"/>
<path d="M14.8948 10.423C14.9153 10.4252 14.9369 10.4208 14.9562 10.423C15.2449 10.699 15.812 12.3734 15.2346 12.3233C15.1403 12.1378 14.5084 11.8891 14.4618 11.7593C14.3709 11.504 14.5334 10.7448 14.3379 10.3936C14.3754 10.2703 14.7891 10.4121 14.8948 10.423Z" fill="#68A443"/>
<path d="M12.9774 10.1265C12.8876 10.312 13.2752 10.4538 13.2866 10.6316C13.3059 10.9436 13.2343 10.9468 13.0388 11.1367C12.9206 10.9796 12.0079 10.5934 11.9249 10.6916C12.0443 10.8498 12.0193 10.865 12.0488 11.0178C11.917 11.0068 11.3453 10.1211 11.4612 10.0676C11.9329 10.2465 12.5125 10.0894 12.9774 10.1265Z" fill="#73B643"/>
<path d="M14.2771 10.3643C14.1532 10.805 14.5396 11.2621 14.1839 11.6112C13.5497 11.2915 13.128 10.9119 13.411 10.1865C13.7008 10.228 14.0157 10.2214 14.2771 10.3643Z" fill="#68A443"/>
<path d="M15.6374 11.4333C15.8249 11.5239 16.3603 11.4933 16.5035 11.7006C16.5728 11.7999 16.6512 12.5602 16.6274 12.7096C16.624 12.7325 16.4955 12.9322 16.4728 13.0958C15.5113 12.6802 15.5624 12.378 15.6374 11.4333Z" fill="#68A443"/>
<path d="M19.9062 10.3044C19.7471 10.3731 19.2413 10.6796 19.2879 10.8978C18.6299 11.0003 18.556 11.273 18.1127 11.6701C18.0889 11.6919 18.0718 11.7094 18.0513 11.729C17.291 12.461 16.8727 12.5962 17.3705 13.7482C17.2785 14.0885 17.6751 14.7605 17.9275 14.995C17.9309 15.2219 17.9866 15.1837 17.7729 15.2328C17.5172 15.2906 16.609 15.307 16.3192 15.2917C16.184 15.2852 15.5293 15.2459 15.4838 15.2328C15.2417 15.1586 15.3167 14.8892 15.2986 14.8761C15.2065 14.8139 14.4041 14.6328 14.7109 14.4016C14.8644 14.4637 14.994 14.5543 15.1747 14.5205L15.0508 14.6394C15.3645 14.6568 15.6179 15.0484 15.9169 15.1139C16.1987 15.1761 17.6785 15.2121 17.6797 14.8466C17.6797 14.7997 17.2012 14.058 17.1534 14.0449C16.9796 14.0001 16.1476 14.5237 15.885 14.4899C16.3203 14.1409 16.709 13.998 17.2466 13.8965C16.3624 13.0773 15.8043 13.3827 14.803 13.8071C14.8462 13.4929 15.9873 13.3467 15.9475 13.0653C15.8703 12.9944 15.2758 12.6857 15.236 12.6791C14.886 12.6202 14.2916 13.0315 13.8744 12.9169C13.8903 12.7598 15.0622 12.6573 15.0803 12.4719C14.603 11.9723 14.1984 11.897 13.5028 12.0268L14.0904 11.7006C13.7403 11.4148 13.3448 11.2774 12.8845 11.2556C12.8276 11.1323 13.0322 11.1432 13.039 11.1367C13.2345 10.9469 13.3061 10.9436 13.2868 10.6316C13.2755 10.4538 12.8879 10.312 12.9777 10.1265C13.0606 10.1331 13.3005 10.1702 13.4107 10.1855C13.1288 10.9109 13.5494 11.2905 14.1836 11.6101C14.5393 11.261 14.1529 10.8029 14.2768 10.3633C14.3472 10.1047 14.7462 10.2465 14.8951 10.4222C14.7894 10.4102 14.3757 10.2694 14.3382 10.3927C14.5336 10.744 14.37 11.5032 14.462 11.7585C14.5086 11.8883 15.1417 12.137 15.2349 12.3224C15.8123 12.3726 15.2451 10.6982 14.9564 10.4222C15.2031 10.4527 15.1883 10.4691 15.4509 10.5411C15.3724 10.8138 15.3679 11.3014 15.6361 11.4323C15.5611 12.377 15.51 12.6791 16.4715 13.0947C16.4942 12.9311 16.6227 12.7315 16.6261 12.7086C16.6511 12.5591 16.5715 11.7988 16.5022 11.6995C16.359 11.4934 15.8237 11.5239 15.6361 11.4323C15.6975 11.3712 16.7216 11.5337 16.75 11.5806C16.7784 11.6275 16.6102 12.437 16.7807 12.6202L17.5535 11.8184L16.842 11.729C16.933 11.4356 17.4103 11.7955 17.4921 11.4028C17.4615 11.3123 16.3988 11.0887 16.2237 11.0167C16.1942 11.0047 15.6384 10.7101 15.76 10.6011C15.9203 10.6502 16.9386 11.1792 16.9977 11.0461L16.3476 10.5411L17.7706 10.9567C17.6945 10.5989 16.7079 10.3556 17.1523 10.0066C17.2455 10.2716 18.2366 10.5291 18.2968 10.3327L18.0798 8.99643L18.8219 10.2433C18.8754 9.64549 19.122 9.09679 19.4721 8.61027C19.7767 8.49464 19.4721 9.83529 19.5653 10.0055L20.5552 8.34302L20.3381 9.3226L19.9051 10.3022L19.9062 10.3044Z" fill="#68A443"/>
<path d="M15.7611 10.6022C15.6395 10.7113 16.1964 11.0058 16.2248 11.0178C16.3999 11.0898 17.4626 11.3135 17.4933 11.404C17.4114 11.7967 16.9341 11.4367 16.8431 11.7302L17.5546 11.8196L16.7818 12.6214C16.6113 12.4392 16.7784 11.6276 16.7511 11.5818C16.7238 11.536 15.6986 11.3724 15.6372 11.4335C15.369 11.3026 15.3735 10.8149 15.452 10.5422C15.5383 10.5662 15.6281 10.5608 15.7611 10.6011V10.6022Z" fill="#68A443"/>
<path d="M17.8957 11.0177C17.9333 11.0079 18.497 11.0842 18.422 11.226C18.1958 11.7518 17.3297 11.1693 17.8957 11.0177Z" fill="#68A443"/>
<path d="M18.6698 13.0359C18.7914 13.1024 19.1131 13.3784 18.7937 13.4515C18.4902 12.6115 17.3286 13.5737 18.5766 13.8671C17.4855 13.1755 18.7653 12.8493 18.7937 13.926C19.0687 13.9413 19.0494 13.6882 19.3813 13.7482C19.4427 13.7591 19.3813 13.9031 19.4427 13.926C19.4631 13.9336 19.7166 13.6915 19.8143 13.6882C19.9507 13.6838 19.9916 13.8431 20.0314 13.866H19.9075C19.3745 13.866 19.4938 14.2085 19.8143 14.4594L19.8757 14.2216C19.9973 14.4485 20.0189 14.4791 20.2155 14.4594C20.2758 14.454 20.3406 14.4627 20.4008 14.4594C20.4019 14.5249 20.3008 14.5205 20.4008 14.6372C20.2883 14.6481 19.7836 14.7627 19.7507 14.7561C19.67 14.7398 19.1665 14.1354 18.9778 14.5478C19.7666 14.4234 19.6404 15.295 19.0085 14.6372L19.1324 15.1118C19.0755 15.1456 18.3163 15.3048 18.2663 15.2896C18.1731 15.2612 18.139 15.0398 18.081 14.9929C18.0594 14.9754 17.9424 15.0081 17.9265 14.9929C17.6742 14.7572 17.2775 14.0864 17.3695 13.746C17.4241 13.8726 17.6503 14.1267 17.7094 14.2805C17.8765 14.2227 17.5491 13.8616 17.5548 13.8355C17.6116 13.5857 17.7503 13.8486 17.8026 13.9249C17.823 13.9544 17.7662 14.1082 17.8958 14.1627C17.9799 14.0765 17.8458 14.0373 17.8651 13.9249C17.8901 13.7787 17.989 13.7286 17.989 13.7166C17.989 13.6958 17.7764 13.4919 17.8037 13.3304C17.8253 13.2006 18.0242 13.0501 18.0515 12.9148C18.172 12.9246 18.5925 12.9912 18.6698 13.0337V13.0359Z" fill="#EF4247"/>
<path d="M19.1026 11.1957C18.8344 11.3517 19.0094 11.5764 19.2265 11.6702C19.3527 11.7247 19.4004 11.7607 19.2879 11.6113C19.1833 11.4728 19.031 11.4978 19.1026 11.1957C19.2118 11.2219 19.4845 11.2284 19.5357 11.344C19.6425 11.5851 19.3538 11.7935 19.3504 11.8186C19.3231 12.0018 19.5232 11.8393 19.5357 11.848C19.6437 11.9255 19.5686 11.9953 19.6289 12.0258C19.6357 12.0291 19.6857 11.9462 19.7221 11.9669L19.9073 12.3236C19.5129 12.4032 19.7062 12.4752 19.6289 12.5014C19.6005 12.5112 19.2118 12.2614 19.2572 12.2047C18.9526 12.3858 18.8878 12.1927 18.7935 12.1458C18.6196 12.0585 18.4684 11.776 18.1434 11.908C18.0422 11.9495 18.0309 12.2789 17.8956 12.2047C17.749 12.124 18.0979 11.8447 18.0502 11.7302C18.0718 11.7095 18.0877 11.692 18.1116 11.6713C18.3559 11.6964 18.8356 11.0975 18.9469 11.0779C19.1595 11.0386 19.0924 11.1946 19.1015 11.1968L19.1026 11.1957Z" fill="#EF4247"/>
<path d="M18.7927 12.146L18.6688 12.7394C18.4597 12.7066 18.5688 12.6357 18.545 12.6205C18.9575 12.0129 17.8994 11.6485 18.2358 12.5016C18.2188 12.507 18.4324 12.6957 18.0506 12.5605C18.0108 12.3641 17.896 12.2779 17.7721 12.1449C17.7516 12.1449 17.6914 12.3412 17.6789 12.3827C17.2561 12.3227 17.1447 13.3568 17.4936 13.4517C17.6527 13.4942 17.713 13.4419 17.8028 13.3328C17.7755 13.4942 17.988 13.6971 17.988 13.7189C17.988 13.7309 17.8892 13.78 17.8642 13.9273H17.8028C17.7516 13.852 17.6118 13.588 17.555 13.8378C17.5493 13.864 17.8767 14.2251 17.7096 14.2829C17.6493 14.1302 17.4243 13.8749 17.3697 13.7484C16.8708 12.5965 17.289 12.4612 18.0506 11.7292C18.0983 11.8438 17.7482 12.123 17.896 12.2038C18.0312 12.2779 18.0426 11.9474 18.1437 11.9071C18.4688 11.7751 18.62 12.0576 18.7939 12.1449L18.7927 12.146Z" fill="#F0967C"/>
<path d="M19.5358 11.8492C19.5233 11.8404 19.3232 12.003 19.3505 11.8197C19.3539 11.7946 19.6438 11.5863 19.5358 11.3452C19.4846 11.2296 19.2119 11.223 19.1028 11.1968C19.0937 11.1947 19.1607 11.0387 18.9482 11.0779C18.8368 11.0987 18.3583 11.6964 18.1128 11.6714C18.5561 11.2743 18.6299 11.0016 19.288 10.899C19.529 10.8619 19.6085 10.8805 19.7824 11.1074H19.3494C19.8097 11.2077 19.6983 11.4979 19.5346 11.8492H19.5358Z" fill="#F0967C"/>
<path d="M18.4218 12.5025C18.4979 12.5505 18.4695 12.5734 18.5457 12.6214C18.5695 12.6367 18.4604 12.7076 18.6696 12.7403C18.8287 12.7654 18.7639 12.7119 18.8241 12.6214C18.9776 12.8745 18.6707 12.821 18.6696 13.037C18.5923 12.9945 18.1717 12.9279 18.0513 12.9181C18.0751 12.7959 18.0763 12.6847 18.0513 12.5614C18.4332 12.6967 18.2206 12.5079 18.2365 12.5025C18.2956 12.4818 18.3195 12.4381 18.3604 12.4436C18.365 12.4436 18.3547 12.461 18.4218 12.5025Z" fill="#F15C52"/>
<path d="M18.7925 13.4526C18.8231 13.5387 18.8686 13.8344 18.7925 13.9271C18.7652 12.8493 17.4854 13.1766 18.5754 13.8682C17.3263 13.5747 18.4878 12.6126 18.7925 13.4526Z" fill="#F8A67F"/>
<path d="M22.691 11.0178C22.7603 11.0822 22.8796 11.2807 22.9387 11.3745C23.2183 11.8174 23.3706 12.4828 23.4331 12.9781C23.44 13.0326 23.49 13.0435 23.4945 13.1559C23.5013 13.3119 23.5218 13.6151 23.4945 13.7493C23.4729 13.8518 23.4331 14.0526 23.3399 14.106C22.3625 14.2424 21.3839 14.5434 20.4008 14.6405C20.3007 14.5238 20.4019 14.5282 20.4008 14.4627C20.3917 14.0569 20.3553 14.0624 20.0291 13.8693C19.9893 13.8464 19.9484 13.686 19.812 13.6915C19.7143 13.6948 19.4619 13.9369 19.4404 13.9293C19.3778 13.9053 19.4404 13.7624 19.379 13.7515C19.0471 13.6915 19.0664 13.9446 18.7914 13.9293C18.8675 13.8355 18.8221 13.5399 18.7914 13.4548C19.1107 13.3817 18.7902 13.1057 18.6675 13.0392C18.6675 12.8232 18.9755 12.8766 18.8221 12.6235C18.7618 12.7141 18.8266 12.7675 18.6675 12.7425L18.7914 12.149C18.8868 12.197 18.9516 12.3901 19.2551 12.2079C19.2096 12.2647 19.5983 12.5145 19.6268 12.5046C19.704 12.4785 19.5108 12.4065 19.9052 12.3268C20.0075 12.3061 19.9245 12.4817 20.2144 12.2679C20.2678 12.2287 20.2814 12.3432 20.3382 12.149C20.5258 11.8425 20.336 11.3985 19.9666 11.5556C19.7586 11.644 19.8109 11.6832 19.8427 11.7934C19.9018 11.9974 20.0075 12.0607 20.2144 12.0901C20.2235 12.1469 20.2087 12.2101 20.2144 12.2679C20.0041 12.2221 19.9063 12.0749 19.7199 11.9712C19.6836 11.9516 19.6336 12.0345 19.6268 12.0301C19.5676 11.9985 19.6427 11.9298 19.5336 11.8523C19.6972 11.5011 19.8086 11.2098 19.3483 11.1105H19.7813C19.6063 10.8847 19.5267 10.8651 19.2869 10.9022C19.2403 10.684 19.7472 10.3764 19.9052 10.3088C20.7304 9.95316 22.0704 10.4462 22.6898 11.0211L22.691 11.0178Z" fill="#DE2132"/>
<path d="M21.0815 13.5114C20.9758 13.4133 20.7621 13.4503 20.7723 13.2736C20.7939 13.266 20.7018 13.1045 20.8655 13.0958C21.1042 13.0838 21.7213 14.0307 21.1747 14.0459C20.9985 13.795 21.3883 13.794 21.0815 13.5114Z" fill="#F15C52"/>
<path d="M22.7215 12.2644C23.042 12.2022 23.2716 12.4924 23.0932 12.7389C22.9875 12.8087 22.0851 12.3876 22.7215 12.2644Z" fill="#A31E22"/>
<path d="M20.7721 11.6113C21.5109 12.0476 20.9347 10.8095 20.6482 11.4335C20.638 11.416 20.3868 11.4073 20.6789 11.1368C21.362 10.9644 21.487 11.9767 20.8642 11.8491C20.8471 11.8458 20.6096 11.6549 20.771 11.6113H20.7721Z" fill="#F7B17D"/>
<path d="M20.7721 13.2737C20.7619 13.4493 20.9756 13.4133 21.0813 13.5115C20.9813 13.8813 20.6448 13.47 20.3698 13.5704C20.1311 13.3468 20.6982 13.2999 20.7721 13.2737Z" fill="#B62F3B"/>
<path d="M20.7718 11.6112C20.7627 11.6058 20.6684 11.4694 20.6479 11.4334C20.9332 10.8094 21.5106 12.0476 20.7718 11.6112Z" fill="#B62F3B"/>
<path d="M20.8657 12.2045C21.3078 12.1074 21.5238 12.7139 21.3601 13.0357C21.2112 12.6899 21.3942 12.4717 20.8657 12.3823C20.7691 12.3408 20.7645 12.2263 20.8657 12.2045Z" fill="#F37252"/>
<path d="M19.1943 12.5612C19.8445 12.5307 19.8786 12.9277 19.6274 13.3924C19.4933 12.943 19.774 12.7979 19.1943 12.5612Z" fill="#F7B17D"/>
<path d="M20.3392 12.1457C20.2823 12.3398 20.2687 12.2253 20.2153 12.2646C20.2096 12.2068 20.2244 12.1435 20.2153 12.0868C20.1868 11.9111 20.0027 11.8271 19.8436 11.7901C19.8118 11.6799 19.7595 11.6406 19.9675 11.5522C20.2323 11.6068 20.4005 11.9319 20.3392 12.1457Z" fill="#EF4247"/>
<path d="M20.03 13.8682C20.3562 14.0623 20.3925 14.0558 20.4016 14.4616C20.3403 14.4649 20.2766 14.4561 20.2164 14.4616C20.3232 14.0896 19.9868 14.1387 19.9072 13.8682H20.0311H20.03Z" fill="#F9A15A"/>
<path d="M21.5154 10.6611C21.5257 10.6448 21.5097 10.5793 21.5154 10.5422C21.7427 10.5193 22.1394 11.0506 22.1337 11.284C21.653 11.2742 22.0223 10.7473 21.5154 10.66V10.6611Z" fill="#F37252"/>
<path d="M19.6902 10.5421C20.1062 10.4843 20.4722 10.9959 20.1233 11.3144C19.9937 11.1802 20.2631 11.0701 20.1233 10.8399C19.946 10.5476 19.4788 10.7341 19.4731 10.6916C19.5061 10.6534 19.6686 10.5465 19.6902 10.5432V10.5421Z" fill="#F0D4AD"/>
<path d="M22.3191 13.1547C22.2804 13.0696 22.1463 13.0882 22.1338 12.9769C22.8555 12.9006 22.3907 13.9445 22.3191 13.6009C22.4452 13.4569 22.3861 13.3053 22.3191 13.1558V13.1547Z" fill="#F9A15A"/>
<path d="M21.5156 10.5422C21.5099 10.5793 21.5258 10.6448 21.5156 10.6611C21.3269 10.9731 21.5974 10.8706 21.7327 11.1957C21.3849 11.1815 21.0632 10.5881 21.5156 10.5422Z" fill="#F8D196"/>
<path d="M20.3394 12.1459C20.4019 11.9321 20.2337 11.607 19.9678 11.5525C20.3372 11.3954 20.527 11.8393 20.3394 12.1459Z" fill="#F1C599"/>
<path d="M22.134 12.9768C22.1465 13.0881 22.2817 13.0696 22.3193 13.1546L22.134 13.363C22.1931 13.0717 22.0669 13.1666 21.9487 13.0063C21.9783 12.9517 22.0772 12.9823 22.134 12.9768Z" fill="#A31E22"/>
<path d="M20.2156 12.2646C19.9258 12.4784 20.0087 12.3028 19.9065 12.3235L19.7212 11.9668C19.9076 12.0715 20.0065 12.2177 20.2156 12.2635V12.2646Z" fill="#EF4247"/>
<path d="M20.7416 10.4233C20.9064 10.5771 20.9552 10.8869 20.6802 10.9579L20.7416 10.4233Z" fill="#F37252"/>
<path d="M19.0092 12.8579L19.3809 13.3324C19.1751 13.4055 18.9615 12.8819 19.0092 12.8579Z" fill="#F0967C"/>
<path d="M19.9995 10.4232C20.2393 10.396 20.4337 10.4451 20.5871 10.6316C20.5428 10.72 20.0541 10.4723 19.9995 10.4232Z" fill="#F0D4AD"/>
<path d="M20.804 12.6202C20.8233 12.606 21.0131 12.6944 21.0211 12.7096C21.2086 13.0533 20.4891 12.8525 20.804 12.6202Z" fill="#EF4247"/>
<path d="M20.2154 12.0867C20.0086 12.0573 19.904 11.994 19.8438 11.79C20.0017 11.8271 20.187 11.9111 20.2154 12.0867Z" fill="#F0D4AD"/>
<path d="M22.2885 11.8491C22.4386 11.9637 22.3942 12.2255 22.3499 12.3836C22.2419 12.2298 22.2204 12.0269 22.2885 11.8491Z" fill="#F8D196"/>
<path d="M20.37 12.3235L20.4632 12.3529L20.37 12.4424L20.3394 12.4129L20.37 12.3235Z" fill="#EF4247"/>
<path d="M18.0501 12.5614C18.0751 12.6846 18.074 12.7959 18.0501 12.9181C18.0228 13.0533 17.8239 13.2039 17.8023 13.3337C17.7114 13.4417 17.6523 13.4951 17.4932 13.4526C17.5239 13.133 17.5909 12.6868 17.6784 12.3836C17.6909 12.3421 17.7512 12.1458 17.7716 12.1458C17.8955 12.2788 18.0103 12.365 18.0501 12.5614Z" fill="#FAD0CB"/>
<path d="M19.9057 13.8682C19.9852 14.1398 20.3217 14.0896 20.2148 14.4616C20.0182 14.4812 19.9966 14.4518 19.875 14.2238L19.8136 14.4616C19.4931 14.2107 19.3737 13.8682 19.9068 13.8682H19.9057Z" fill="#DE2132"/>
<path d="M17.8024 13.927H17.8638C17.8445 14.0394 17.9786 14.0786 17.8945 14.1648C17.766 14.1103 17.8217 13.9565 17.8013 13.927H17.8024Z" fill="#F4EACB"/>
<path d="M19.2876 11.6114L19.2263 11.6703C19.0092 11.5765 18.8341 11.3507 19.1024 11.1958C19.0308 11.498 19.1831 11.4729 19.2876 11.6114Z" fill="#F0967C"/>
<path d="M19.2256 11.6702L19.287 11.6113C19.3995 11.7608 19.3506 11.7248 19.2256 11.6702Z" fill="#F0D4AD"/>
<path d="M17.6797 12.3836C17.5922 12.6869 17.5251 13.133 17.4944 13.4526C17.1455 13.3588 17.2569 12.3236 17.6797 12.3836Z" fill="#F9EBE5"/>
<path d="M18.5457 12.6202C18.4696 12.5722 18.498 12.5493 18.4219 12.5013C18.523 12.3879 18.4241 12.3071 18.3605 12.4424C18.3196 12.438 18.2957 12.4817 18.2366 12.5013C17.9002 11.6483 18.9583 12.0126 18.5457 12.6202Z" fill="#EF4247"/>
<path d="M18.4217 12.5024C18.3547 12.4598 18.3638 12.4435 18.3604 12.4435C18.4251 12.3082 18.524 12.39 18.4217 12.5024Z" fill="#F0D4AD"/>
<path d="M16.4419 15.4704C16.6635 15.7442 16.7613 15.6405 17.1841 15.6482C17.1784 15.6809 17.0852 15.7518 17.0602 15.7671C16.9954 15.8085 16.8874 15.73 16.8749 15.9449C16.1145 15.7954 16.6351 16.1227 16.6271 16.2121C16.6237 16.2536 16.3498 16.6899 16.318 16.9539C16.2555 17.4666 16.3885 17.8222 16.8442 18.1418C18.2183 19.1062 18.1388 17.5648 19.5049 17.7851L19.4743 18.0229C18.9151 18.2629 17.7819 18.6273 17.1852 18.7353C17.1466 18.7418 17.1 18.7287 17.0613 18.7353C16.876 18.3535 16.593 18.6131 16.5351 18.6164C15.9645 18.6502 15.4565 18.6818 14.895 18.7942C14.6029 18.6622 15.2178 18.0764 14.8018 17.963C14.4824 17.8757 14.6597 18.3207 14.5233 18.4375C14.4904 18.2837 14.3688 17.3052 14.3995 17.2201C14.4335 17.123 14.7006 16.9997 14.7086 16.9823C14.7893 16.8197 14.9223 16.3223 15.0803 16.1511C15.328 15.8816 15.4803 15.9438 15.6679 15.8249C15.8281 15.7234 15.8497 15.298 16.4407 15.4682L16.4419 15.4704Z" fill="#2C296A"/>
<path d="M14.8949 18.7966C14.7335 18.8293 14.6006 18.7933 14.5858 18.7966C14.6688 18.6711 14.5551 18.5817 14.5244 18.4399C14.6608 18.3232 14.4835 17.8781 14.8029 17.9654C15.2189 18.0788 14.604 18.6646 14.8961 18.7966H14.8949Z" fill="#433B93"/>
<path d="M15.4518 17.6087C15.5734 17.3077 15.7132 17.2782 15.4825 17.0742C16.2713 16.8386 16.1417 17.1429 16.1008 17.7865C15.8769 17.9142 15.6587 17.6873 15.4507 17.6087H15.4518Z" fill="#53569F"/>
<path d="M15.0497 16.5998C15.6839 16.5616 15.3315 16.9957 15.1735 17.3121C14.7814 17.1506 14.7996 16.8528 15.0497 16.5998Z" fill="#433B93"/>
<path d="M15.4518 17.6086C15.4223 17.6806 15.4257 17.6718 15.3904 17.7275C15.1643 17.5758 15.3279 17.7755 15.3291 17.7864C15.3473 18.058 15.42 18.4682 15.0199 18.1125C14.9176 17.9456 14.962 17.6587 15.0813 17.5191C15.212 17.3675 15.3882 17.5835 15.453 17.6086H15.4518Z" fill="#53569F"/>
<path d="M15.421 16.0051C15.9916 15.8186 15.7461 16.5767 15.4824 16.5985C15.2187 16.6203 15.1732 16.0858 15.421 16.0051Z" fill="#53569F"/>
<path d="M15.5454 18.1431L15.9171 18.3809L15.8557 18.5587C15.7238 18.5936 15.392 18.238 15.5465 18.1431H15.5454Z" fill="#433B93"/>
<path d="M15.3894 17.7275C15.3803 17.7417 15.3984 17.7963 15.328 17.7864C15.328 17.7755 15.1632 17.5759 15.3894 17.7275Z" fill="#9698C2"/>
<path d="M17.926 15.5894C17.0974 16.6715 19.732 17.4471 19.1637 16.1239C19.4319 16.293 19.5854 16.5002 19.7206 16.7773C19.8365 17.2344 19.2967 17.2911 18.8545 17.3707C18.6079 17.4154 18.334 17.5125 18.0817 17.4896C17.5304 17.4394 17.0849 16.7653 16.628 17.2518C16.495 17.158 16.445 17.0456 16.3188 16.9551C16.3507 16.69 16.6246 16.2537 16.628 16.2133C16.636 16.1239 16.1154 15.7966 16.8758 15.9461C16.8542 16.2951 17.9998 17.3085 17.8657 16.57C17.7987 16.2013 17.2952 16.0006 17.061 15.7683C17.086 15.753 17.1792 15.6821 17.1849 15.6494C17.4793 15.6548 17.6691 15.5643 17.9271 15.5905L17.926 15.5894Z" fill="#6D89C0"/>
<path d="M19.9061 17.3116C19.9299 17.4916 20.0447 17.6967 19.9061 17.8756C19.8492 17.9487 19.5696 17.9825 19.473 18.0239L19.5037 17.7861C18.1375 17.5647 18.2171 19.1071 16.843 18.1428C16.3872 17.8232 16.2542 17.4676 16.3168 16.9549C16.4429 17.0465 16.4929 17.1578 16.6259 17.2516C17.0533 17.5527 18.2217 17.8101 18.699 17.6672C18.8661 17.617 18.8729 17.52 18.8536 17.3705C19.2957 17.2909 19.8356 17.2342 19.7197 16.7771C19.8151 16.9735 19.8754 17.0858 19.9049 17.3116H19.9061Z" fill="#334D91"/>
<path d="M17.0606 15.7671C17.2947 15.9994 17.7982 16.2002 17.8653 16.5689C17.9994 17.3085 16.8537 16.294 16.8753 15.9449C16.8889 15.73 16.9958 15.8075 17.0606 15.7671Z" fill="#ABBEE2"/>
<path d="M18.8551 17.3706C18.8745 17.52 18.8676 17.6171 18.7006 17.6673C18.2243 17.8102 17.0548 17.5527 16.6274 17.2517C17.0843 16.7651 17.5299 17.4393 18.0811 17.4895C18.3346 17.5124 18.6074 17.4153 18.854 17.3706H18.8551Z" fill="#4C63A0"/>
<path d="M19.1641 16.0647C19.172 16.0789 19.1561 16.1062 19.1641 16.1236C19.7324 17.4468 17.0978 16.6712 17.9264 15.5891C18.206 15.6175 19.0209 15.8258 19.1641 16.0636V16.0647Z" fill="#334D91"/>
<path d="M18.8547 16.4803C18.7684 16.4726 18.6911 16.441 18.607 16.4214C18.6024 16.2294 18.1705 16.2588 18.0807 16.3025C17.7079 15.7734 19.1537 16.0843 18.9775 16.5108C18.9366 16.5806 18.8945 16.4563 18.8536 16.4814L18.8547 16.4803Z" fill="#889EC9"/>
<path d="M18.6072 16.4203C18.6913 16.4399 18.7686 16.4726 18.855 16.4792C18.5151 16.6799 18.4151 16.6046 18.1128 16.3897C18.2878 16.3025 18.4435 16.3799 18.6072 16.4192V16.4203Z" fill="#334D91"/>
<path d="M16.9992 22.5958C17.0412 23.055 17.5152 23.655 18.0505 23.487C18.4176 27.7064 18.679 31.9934 18.9791 36.2237C18.9825 36.2651 19.0666 36.9556 18.8552 36.8476C18.6574 36.5989 18.5801 36.4582 18.4222 36.1942C18.2005 35.8222 18.2858 35.4143 17.8039 35.1252C17.5152 34.9517 17.181 34.8732 16.8753 35.0663L16.5661 35.0957C15.8796 30.9178 15.6955 26.4922 14.834 22.359C15.5023 22.287 16.3127 22.4823 16.9992 22.5968V22.5958Z" fill="#F9D5E5"/>
<path d="M17.0601 18.7366C16.5657 18.8206 15.9587 18.7955 15.4518 18.8555C15.2677 18.8773 14.8938 18.8882 14.771 19.0038C16.1372 19.4642 17.617 19.3365 19.04 19.39C19.8049 19.4184 20.563 19.4336 21.329 19.4489C22.2156 19.4664 23.1044 19.5024 23.9898 19.5078C25.1889 19.5165 26.3811 19.4631 27.5779 19.4489C28.0167 19.4434 28.4349 19.4598 28.877 19.4489C29.4055 19.4358 29.9534 19.4685 30.4853 19.4489L30.5785 19.7456C30.0636 19.81 29.0157 19.5558 28.877 20.1612C24.0057 20.3663 19.0491 20.3008 14.2448 19.5078C13.7935 19.8307 15.2109 20.0183 15.3586 20.0423C17.4067 20.3728 19.9186 20.4525 22.0098 20.5168C21.8735 20.9739 22.5611 20.8005 22.8759 20.8135V21.2881C20.0174 21.2161 17.1453 21.1223 14.338 20.5757C14.2482 20.0696 13.8515 19.222 14.3073 18.8533C14.3266 18.838 14.5232 18.8097 14.5857 18.7944C14.6005 18.7911 14.7346 18.8271 14.8949 18.7944C15.4564 18.682 15.9644 18.6493 16.535 18.6166C16.5929 18.6133 16.8759 18.3537 17.0612 18.7355L17.0601 18.7366Z" fill="#EFF9FE"/>
<path d="M23.8049 21.9436C24.072 21.9468 24.3425 21.9436 24.6096 21.9436L26.9293 22.2403C27.2408 22.5544 27.3715 22.1683 27.7954 22.1814C28.1637 22.1923 28.3182 22.4683 28.3523 22.4781C28.5353 22.5348 28.8808 22.405 29.0945 22.537L28.9399 22.8937C28.7842 22.9144 28.5956 23.0955 28.3216 23.1315C28.3637 22.6439 28.0864 22.9799 27.7954 22.9537C27.1737 22.8959 26.6429 23.0093 26.2485 23.0126C24.5482 23.0311 22.9638 22.801 21.2374 22.6559C21.0032 22.6363 20.8441 22.8381 20.8043 22.8337C20.4543 22.8021 19.761 22.5195 19.3813 22.477C18.2618 22.3537 17.1446 22.225 16.1023 22.0614C15.6318 21.9872 15.1215 22.045 14.6486 21.9425C14.6009 21.7221 14.5157 21.5127 14.4634 21.2891C17.5583 21.6992 20.677 21.9032 23.806 21.9425L23.8049 21.9436Z" fill="#B597B4"/>
<path d="M34.9407 21.349C34.8338 21.7417 34.6554 22.1268 34.569 22.477L34.0121 22.5359C34.0223 22.3766 33.9882 22.2457 34.0735 22.0908C33.7268 21.9643 33.4199 22.1159 32.9903 22.0614C32.8778 22.1159 32.8607 22.417 32.8357 22.5359C32.4573 22.5184 32.0856 22.669 31.7219 22.7137C30.8138 22.825 29.8306 22.7737 28.9373 22.8915L29.0919 22.5348C28.8782 22.4028 28.5327 22.5315 28.3497 22.4759C28.3156 22.4661 28.161 22.1901 27.7928 22.1792C27.3688 22.1661 27.2381 22.5522 26.9267 22.2381L24.6069 21.9414C25.2446 21.9436 25.8879 21.9534 26.5243 21.9414C29.1703 21.8923 31.831 21.7385 34.444 21.3479C34.5508 21.3316 34.8566 21.2738 34.9384 21.3479L34.9407 21.349Z" fill="#806B8B"/>
<path d="M22.876 21.2901C23.0294 21.2944 23.1351 21.3468 23.309 21.349C23.1897 22.0984 23.567 21.637 23.8034 21.9424C20.6756 21.9031 17.5557 21.6991 14.4608 21.289C14.3915 20.9923 14.3835 20.8406 14.3369 20.5767C17.1443 21.1232 20.0152 21.2181 22.8749 21.289L22.876 21.2901Z" fill="#CDDCE9"/>
<path d="M28.3198 23.1303C28.3198 23.1303 28.3425 23.1783 28.2584 23.1892C26.8695 23.3758 25.7648 23.4041 24.3611 23.367C23.2564 23.3376 22.1232 23.2699 21.0207 23.1892C20.7389 23.1685 19.2659 22.8609 19.1647 23.0409C19.2283 23.0845 19.2352 23.1172 19.2261 23.1892C18.9317 22.8052 18.4589 22.8696 17.9883 22.7736C17.6633 22.7071 17.3269 22.6503 16.9984 22.5958C16.3119 22.4824 15.5015 22.286 14.8332 22.358C14.798 22.1878 14.6741 22.0624 14.6479 21.9424C15.1219 22.0438 15.6311 21.9871 16.1016 22.0613C17.1439 22.2249 18.2611 22.3536 19.3806 22.4769C19.7603 22.5194 20.4536 22.802 20.8036 22.8336C20.8434 22.8369 21.0025 22.6362 21.2367 22.6558C22.9631 22.7998 24.5475 23.03 26.2478 23.0125C26.6422 23.0081 27.173 22.8958 27.7947 22.9536C28.0857 22.9809 28.363 22.6438 28.321 23.1314L28.3198 23.1303Z" fill="#ECBAD6"/>
<path d="M34.5692 22.478C33.7645 25.7811 33.519 30.2405 33.0849 33.7006C32.9837 33.6494 32.9667 33.5305 32.961 33.4334C32.9451 33.1301 33.2485 31.9869 32.8371 32.0971C32.8394 32.0775 32.8348 32.0567 32.8371 32.0382C33.1519 29.3296 33.5281 26.6156 33.827 23.9027C33.8759 23.4576 33.9839 22.9678 34.0123 22.5369L34.5692 22.478Z" fill="#BCB5C5"/>
<path d="M35.2502 19.271C35.0968 19.3583 34.7103 19.3441 34.6001 19.3899C34.4751 19.4412 34.5274 19.6103 34.4762 19.6277C33.2919 20.0292 30.4141 20.159 29.0627 20.2211C29.0525 20.2211 28.9059 20.1601 28.8774 20.1622C29.0161 19.5568 30.064 19.811 30.5789 19.7466L30.4857 19.4499C30.9585 19.4325 31.4359 19.415 31.9087 19.391C32.5054 19.3605 33.1066 19.3201 33.7033 19.2721C33.9784 19.2503 34.3512 19.1096 34.508 19.0943C34.649 19.0801 34.799 19.0998 34.9411 19.0943C35.0104 19.091 35.1195 19.1827 35.2195 19.0354C35.3389 19.1205 35.2457 19.2361 35.2502 19.2732V19.271Z" fill="#CDDCE9"/>
<path d="M35.2496 19.271C35.2883 19.6037 35.2439 20.2408 35.1883 20.5778C34.9859 20.5756 34.7666 20.5996 34.57 20.6367V20.2211C34.57 20.1611 34.6291 20.0575 34.57 19.9539C32.7423 20.2157 30.8454 20.4927 28.9712 20.4589L29.0644 20.2211C30.4158 20.1579 33.2936 20.0291 34.4779 19.6277C34.529 19.6102 34.4779 19.4423 34.6018 19.3899C34.712 19.3441 35.0973 19.3594 35.2519 19.271H35.2496Z" fill="#709EBC"/>
<path d="M35.189 20.5779C35.1071 21.0666 35.0173 21.0731 34.9412 21.3502C34.8582 21.276 34.5536 21.3338 34.4468 21.3502L34.5082 20.6968C34.5934 20.6804 34.5661 20.6379 34.5695 20.6379C34.7662 20.5997 34.9855 20.5768 35.1878 20.579L35.189 20.5779Z" fill="#709EBC"/>
<path d="M19.225 23.1904C19.2228 23.21 19.2262 23.2297 19.225 23.2493L20.0911 37.9157C19.8786 37.7728 19.1819 37.2895 19.0398 37.1434C18.9329 37.0343 18.9 36.9034 18.8545 36.8467C19.0659 36.9547 18.9807 36.2652 18.9784 36.2227C18.6795 31.9913 18.4181 27.7054 18.0498 23.486C18.0305 23.2657 17.8862 23.0257 17.9885 22.7737C18.459 22.8697 18.9318 22.8053 19.2262 23.1893L19.225 23.1904Z" fill="#F9D5E5"/>
<path d="M17.9885 22.7748C17.8862 23.0268 18.0317 23.2668 18.0499 23.4872C17.5134 23.6562 17.0395 23.0563 16.9985 22.5959C17.3259 22.6505 17.6634 22.7072 17.9885 22.7738V22.7748Z" fill="#ECBAD6"/>
<path d="M28.877 20.1623C28.9065 20.1612 29.0532 20.2223 29.0623 20.2212L28.9691 20.459C30.8433 20.4928 32.7402 20.2158 34.5678 19.954C34.6269 20.0576 34.5678 20.1612 34.5678 20.2212L31.6286 20.5779L31.7218 21.0524C30.7126 21.1506 29.7033 21.1779 28.6906 21.2303L28.3189 21.1408C28.5247 21.0775 28.6224 20.9695 28.752 20.8146C28.7792 20.7808 28.9304 20.7536 28.9372 20.7252L28.9065 20.5168C26.605 20.543 24.3091 20.5888 22.0087 20.5168C19.9174 20.4514 17.4055 20.3729 15.3574 20.0423C15.2097 20.0183 13.7924 19.8307 14.2436 19.5078C19.0479 20.2998 24.0034 20.3663 28.8759 20.1612L28.877 20.1623Z" fill="#A8D0E6"/>
<path d="M28.7532 20.8147C28.6236 20.9707 28.5259 21.0776 28.3202 21.1408L28.6918 21.2303C27.9349 21.2695 27.1631 21.335 26.4028 21.3492C25.3776 21.3677 24.3353 21.3677 23.309 21.3492C23.1351 21.3459 23.0294 21.2935 22.876 21.2903V20.8158C24.8275 20.9008 26.8028 20.7339 28.7532 20.8158V20.8147Z" fill="#CDDCE9"/>
<path d="M28.7532 20.8145C26.8028 20.7327 24.8274 20.8996 22.8759 20.8145C22.5611 20.8004 21.8735 20.9749 22.0099 20.5178C24.3103 20.5898 26.6062 20.544 28.9077 20.5178L28.9384 20.7262C28.9305 20.7534 28.7804 20.7818 28.7532 20.8156V20.8145Z" fill="#EFF9FE"/>
<path d="M31.7235 22.7148C31.3552 27.3106 30.8961 31.8998 30.4858 36.4911C30.4699 36.5151 30.2857 36.6253 30.238 36.6995C30.0721 36.9613 29.4572 38.4481 29.2174 38.5103C28.6979 38.3183 28.4206 37.6114 27.7637 37.9168L28.2581 23.1905C28.3422 23.1795 28.316 23.1315 28.3195 23.1315C28.5934 23.0955 28.7832 22.9145 28.9378 22.8937C29.8311 22.7759 30.8142 22.8272 31.7224 22.7159L31.7235 22.7148Z" fill="#D761A0"/>
<path d="M26.403 21.3491L26.5269 21.9425C25.8893 21.9545 25.2459 21.9447 24.6095 21.9425C24.3424 21.9425 24.0719 21.9458 23.8048 21.9425C23.5684 21.6371 23.191 22.0974 23.3104 21.3491C24.3356 21.3677 25.3778 21.3677 26.4041 21.3491H26.403Z" fill="#A8BBD0"/>
<path d="M32.8368 22.537C32.7515 22.9483 32.7697 23.4741 32.7129 23.9028C32.3219 26.8862 31.8752 30.0879 31.6615 33.0768C31.6547 33.1793 31.5865 33.5906 31.7854 33.5818C31.6638 33.9353 31.532 34.2778 31.4763 34.6509C31.2717 35.0556 31.158 35.6708 30.9194 36.0461C30.8171 36.2075 30.5352 36.4137 30.4863 36.4911C30.8966 31.8998 31.3558 27.3106 31.7241 22.7149C32.0878 22.6701 32.4594 22.5196 32.8379 22.537H32.8368Z" fill="#BD4D90"/>
<path d="M34.5078 20.6968L34.4464 21.3502C31.8345 21.7407 29.1727 21.8945 26.5267 21.9436L26.4028 21.3502C27.1632 21.3371 27.9349 21.2706 28.6919 21.2313C29.7046 21.1789 30.7139 21.1517 31.7231 21.0535C32.6381 20.964 33.6053 20.8648 34.5078 20.6968Z" fill="#87B2D1"/>
<path d="M34.012 22.537C33.9836 22.9679 33.8756 23.4577 33.8267 23.9028H32.7129C32.7686 23.4741 32.7515 22.9483 32.8368 22.537C32.8618 22.4181 32.8788 22.116 32.9914 22.0625C33.421 22.117 33.7279 21.9654 34.0745 22.092C33.9881 22.2469 34.0234 22.3778 34.0131 22.537H34.012Z" fill="#A1819D"/>
<path d="M28.259 23.1904L27.7646 37.9168C27.7555 37.9594 27.7248 37.9986 27.7032 38.0357C27.6191 38.1754 26.5655 38.8997 26.3734 38.9269C25.8938 38.9924 25.0811 38.5877 24.6719 38.3335C24.6594 38.3259 24.5412 38.1906 24.4867 38.1557L24.3628 23.3704C25.7665 23.4075 26.8712 23.3791 28.2601 23.1926L28.259 23.1904Z" fill="url(#paint0_linear_366_138188)"/>
<path d="M24.3616 23.3684L24.4855 38.1537C24.2582 38.0075 23.4921 37.2842 23.4023 37.2624C22.7124 37.0944 22.1407 38.0577 21.6395 38.3904C21.4577 33.703 21.3792 28.996 21.0826 24.3174C21.0587 23.941 21.0099 23.5669 21.0212 23.1895C22.1237 23.2702 23.2569 23.3389 24.3616 23.3673V23.3684Z" fill="#EB91BD"/>
<path d="M21.0201 23.1905C21.0087 23.5679 21.0576 23.9431 21.0815 24.3184C20.8076 24.2584 21.0519 23.7162 20.9269 23.6061C20.8632 23.5493 19.4403 23.2974 19.2254 23.2494C19.2266 23.2297 19.2232 23.209 19.2254 23.1905C19.2334 23.1185 19.2277 23.0857 19.1641 23.0421C19.2652 22.8621 20.7394 23.1697 21.0201 23.1905Z" fill="#ECBAD6"/>
<path d="M33.8269 23.9028C33.528 26.6158 33.1518 29.3298 32.837 32.0383C32.2562 32.3023 32.0607 32.875 31.847 33.4041C31.822 33.4652 31.8061 33.5208 31.7856 33.5819C31.5867 33.5906 31.6549 33.1805 31.6618 33.0768C31.8754 30.0879 32.3221 26.8863 32.7131 23.9028H33.8269Z" fill="#BC88AB"/>
<path d="M34.5691 20.2212V20.6368C34.5691 20.6368 34.5918 20.6804 34.5077 20.6957C33.6052 20.8637 32.638 20.963 31.7231 21.0524L31.6299 20.5779L34.5691 20.2212Z" fill="#A8D0E6"/>
<path d="M21.0816 24.3183C21.3783 28.9969 21.4567 33.7039 21.6385 38.3913C21.6385 38.4109 21.6385 38.4305 21.6385 38.4502C20.9293 38.7109 20.5804 38.2451 20.0917 37.9157L19.2256 23.2493C19.4404 23.2973 20.8634 23.5493 20.927 23.606C21.0521 23.7161 20.8077 24.2583 21.0816 24.3183Z" fill="#F9D5E5"/>
<path d="M17.7414 35.9567L17.8653 36.1345C17.9903 37.3999 18.0949 38.6696 18.237 39.935C18.1597 39.9656 17.6925 40.1161 17.68 40.1434C17.6266 40.2623 18.2529 42.3851 17.7414 42.6371C17.638 42.3109 17.6664 41.9564 17.6175 41.628C17.613 41.5964 17.5573 41.0902 17.4323 41.3608C17.2152 39.6449 16.9049 37.9159 16.7515 36.1945C16.9992 36.1367 17.5596 35.8705 17.7414 35.9567Z" fill="#BD4D90"/>
<path d="M18.2354 39.9348C18.2842 40.3679 18.3115 40.8075 18.3592 41.2416C18.4627 42.1776 18.6468 43.1255 18.7309 44.0626C18.7389 44.1575 18.7911 44.4193 18.607 44.3887C18.3377 44.3113 18.0615 44.2633 17.8023 44.1509C17.7171 43.2183 17.5489 42.2889 17.4307 41.3605C17.5568 41.09 17.6114 41.5962 17.6159 41.6278C17.6648 41.9572 17.6364 42.3118 17.7398 42.6368C18.2513 42.3849 17.6239 40.2621 17.6784 40.1432C17.6898 40.117 18.1569 39.9654 18.2354 39.9348Z" fill="#763077"/>
<path d="M18.6073 44.3889C19.0028 44.5024 19.3267 44.5471 19.7211 44.6267C19.862 44.6551 19.8382 44.6845 19.845 44.6856V45.7547C19.1847 45.6445 18.5311 45.4776 17.8651 45.398C17.8276 44.9867 17.8401 44.5591 17.8037 44.1511C18.0617 44.2624 18.339 44.3115 18.6084 44.3889H18.6073Z" fill="#A8D0E6"/>
<path d="M17.8028 35.1254L17.7414 35.9566C17.5596 35.8704 16.9992 36.1366 16.7515 36.1944C16.7174 35.8126 16.4946 35.3054 16.8753 35.0665C17.1811 34.8745 17.5141 34.953 17.8039 35.1254H17.8028Z" fill="#D761A0"/>
<path d="M18.4213 36.1944C18.5793 36.4583 18.6566 36.5991 18.8544 36.8478C18.8998 36.9045 18.9339 37.0354 19.0396 37.1445C19.1203 38.4469 19.2215 39.7625 19.3488 41.0639C18.9101 41.0726 18.6793 40.8523 18.3588 41.2417C18.3111 40.8075 18.2838 40.369 18.2349 39.9349C18.0929 38.6695 17.9883 37.3997 17.8633 36.1344C18.1554 36.1005 18.2054 36.4223 18.4202 36.1933L18.4213 36.1944Z" fill="#9B4B8E"/>
<path d="M18.4215 36.1944C18.2079 36.4235 18.1567 36.1017 17.8646 36.1355L17.7407 35.9577L17.8021 35.1265C18.284 35.4155 18.1988 35.8235 18.4204 36.1955L18.4215 36.1944Z" fill="#D761A0"/>
<path d="M32.8371 32.0972C32.8121 32.3121 32.8008 32.5325 32.7758 32.7507C32.3404 32.8401 32.3348 33.5121 31.8472 33.4041C32.0608 32.875 32.2563 32.3023 32.8371 32.0383C32.8349 32.058 32.8394 32.0787 32.8371 32.0972Z" fill="#89477A"/>
<path d="M32.5279 34.9476C32.2165 37.618 31.8607 40.2873 31.5993 42.9643C31.5675 42.9904 31.172 43.526 31.1049 43.6177C31.0469 43.6973 30.6844 44.234 30.6719 44.2711C30.8264 41.6389 31.1208 38.9543 31.4141 36.3145C31.6766 36.3985 31.9255 36.6352 32.2188 36.5228C32.2824 36.465 32.3165 35.4549 32.3426 35.276C32.3506 35.2193 32.4029 34.6662 32.5279 34.9498V34.9476Z" fill="#412D50"/>
<path d="M32.7757 32.7506C32.6893 33.4815 32.6131 34.2167 32.5279 34.9476C32.4029 34.6639 32.3506 35.2181 32.3426 35.2737C32.3165 35.4526 32.2824 36.4627 32.2188 36.5206C31.9267 36.634 31.6766 36.3973 31.4141 36.3122C31.4709 35.7984 31.4061 35.1177 31.4754 34.6498C31.5311 34.2767 31.663 33.9342 31.7846 33.5807C31.8062 33.5196 31.8221 33.464 31.846 33.4029C32.3324 33.5109 32.3381 32.8401 32.7745 32.7495L32.7757 32.7506Z" fill="#5B375C"/>
<path d="M19.3493 41.0638C19.4653 42.2496 19.6539 43.4353 19.721 44.6265C19.3266 44.548 19.0027 44.5022 18.6071 44.3887C18.7913 44.4182 18.739 44.1574 18.731 44.0625C18.6481 43.1266 18.4628 42.1787 18.3594 41.2416C18.6799 40.8522 18.9106 41.0725 19.3493 41.0638Z" fill="#6C3D84"/>
<path d="M20.0927 37.9167C20.5814 38.2462 20.9303 38.712 21.6395 38.4512C21.6441 38.5582 21.6952 38.6563 21.7009 38.808C21.7271 39.4799 21.7362 40.1551 21.7623 40.8271C21.7771 41.2045 21.8089 41.582 21.8237 41.955C21.8657 42.963 21.843 43.9786 21.9476 44.9832C21.2236 44.9189 20.5553 44.8207 19.8438 44.6865C19.8369 44.6854 19.8608 44.6549 19.7199 44.6276C19.6528 43.4364 19.4641 42.2507 19.3482 41.0649C19.2209 39.7635 19.1198 38.4491 19.0391 37.1455C19.1811 37.2917 19.8779 37.7738 20.0904 37.9178L20.0927 37.9167Z" fill="#C6B1C9"/>
<path d="M21.949 44.9823C21.9695 44.9844 21.9899 44.9801 22.0104 44.9823C21.8888 45.3379 21.9922 45.6869 21.8865 46.0513C21.2091 45.988 20.5158 45.8658 19.8452 45.7546V44.6855C20.5567 44.8197 21.225 44.9179 21.949 44.9823Z" fill="#EFF9FE"/>
<path d="M29.9294 44.6856C29.8919 44.6933 29.843 44.678 29.8055 44.6856C29.0315 44.834 28.178 44.9802 27.3926 45.0423C27.2914 45.05 27.1846 45.0358 27.0834 45.0423L26.9902 44.9234C27.2039 44.9234 27.3005 44.9769 27.3926 44.7751C27.5074 43.0875 27.4471 41.3804 27.5165 39.6983C27.5392 39.1507 27.5881 38.5725 27.7017 38.0358C27.7233 37.9988 27.754 37.9595 27.7631 37.9169C28.42 37.6115 28.6974 38.3184 29.2168 38.5104C29.4566 38.4482 30.0715 36.9614 30.2374 36.6996C30.284 36.6254 30.4693 36.5163 30.4852 36.4912C30.267 38.9303 29.9749 41.3836 29.8044 43.825C29.7873 44.0617 29.7317 44.5056 29.9283 44.6856H29.9294Z" fill="#2C183F"/>
<path d="M31.4137 36.3133C31.1193 38.9532 30.826 41.6388 30.6715 44.2699C30.6465 44.343 30.6237 44.4303 30.6101 44.5077H30.5487C30.3555 44.5906 30.135 44.6441 29.9304 44.6856C29.7338 44.5056 29.7906 44.0616 29.8065 43.8249C29.977 41.3847 30.2691 38.9303 30.4873 36.4911C30.5362 36.4126 30.8181 36.2075 30.9204 36.0461C31.1591 35.6708 31.2727 35.0556 31.4773 34.6509C31.4068 35.1189 31.4728 35.7995 31.4159 36.3133H31.4137Z" fill="#2C183F"/>
<path d="M27.5168 39.6981C26.4541 40.0297 25.4391 39.6675 24.5469 39.1047C24.5469 39.0458 24.5469 38.9858 24.5469 38.9269C24.5447 38.7403 24.3333 38.4643 24.6708 38.3334C25.08 38.5876 25.8926 38.9934 26.3723 38.9269C26.5644 38.9007 27.6191 38.1764 27.7021 38.0356C27.5884 38.5723 27.5384 39.1505 27.5168 39.6981Z" fill="#5C1D58"/>
<path d="M24.4842 38.1536C24.5399 38.1896 24.6569 38.3238 24.6694 38.3315C24.3319 38.4624 24.5433 38.7394 24.5455 38.9249C23.3999 38.182 22.7964 37.51 21.6996 38.806C21.6939 38.6543 21.6416 38.5562 21.6382 38.4493C21.6382 38.4296 21.6382 38.41 21.6382 38.3904C22.1394 38.0577 22.7111 37.0944 23.401 37.2624C23.4897 37.2842 24.2569 38.0064 24.4842 38.1536Z" fill="#7A2061"/>
<path d="M22.5045 45.0422C23.1467 45.0836 23.7786 45.0956 24.4219 45.1011C25.3119 45.1098 26.1938 45.1011 27.0827 45.0422C27.1838 45.0356 27.2906 45.0498 27.3918 45.0422L27.3304 46.0512C25.5324 46.1963 23.6843 46.2203 21.8862 46.0512C21.9919 45.6869 21.8885 45.3378 22.0101 44.9822C22.1783 44.9964 22.3318 45.0302 22.5045 45.0411V45.0422Z" fill="#A8D0E6"/>
<path d="M29.806 44.6855L29.6821 45.7546C28.8968 45.8429 28.125 45.988 27.3306 46.0513L27.3919 45.0423C28.1773 44.9801 29.0309 44.8339 29.8049 44.6855H29.806Z" fill="#709EBC"/>
<path d="M30.2386 45.6955C30.0669 45.8057 29.8658 45.7337 29.6816 45.7544L29.8055 44.6854C29.843 44.6777 29.8919 44.693 29.9294 44.6854C30.1351 44.6428 30.3545 44.5905 30.5477 44.5076C30.5511 44.8937 30.2954 45.3486 30.2386 45.6955Z" fill="#427BA5"/>
<path d="M24.547 38.9257C24.547 38.9846 24.547 39.0446 24.547 39.1035C24.4367 39.1635 24.4868 40.1594 24.4856 40.3503C24.4572 40.8532 24.331 41.3615 24.4856 41.8644C24.3242 41.8688 24.1412 41.9353 23.9912 41.9539C23.7764 41.9801 22.0033 41.9517 21.9181 41.895C21.784 41.8044 22.0408 40.9678 21.7635 40.8259C21.7374 40.154 21.7283 39.4787 21.7021 38.8068C22.7989 37.5109 23.4025 38.1828 24.5481 38.9257H24.547Z" fill="#5C1D58"/>
<path d="M23.9902 41.954C24.0766 41.9562 24.3812 41.9267 24.4232 41.9834C24.3664 42.5867 24.4721 43.1975 24.4846 43.7942C24.4789 44.0298 24.5005 44.272 24.4846 44.5065C24.4608 44.6756 24.3755 44.8534 24.4232 45.0411C23.7811 44.9582 23.1469 44.8153 22.5058 45.0411C22.3331 45.0302 22.1785 44.9963 22.0114 44.9822C21.991 44.98 21.9705 44.9843 21.9501 44.9822C21.8466 43.9775 21.8694 42.9619 21.8262 41.954C22.5422 42.0969 23.2844 41.9354 23.9913 41.954H23.9902Z" fill="#47215C"/>
<path d="M23.9897 41.9541C23.2816 41.9356 22.5406 42.097 21.8246 41.9541C21.8086 41.5799 21.778 41.2036 21.7632 40.8262C22.0405 40.9669 21.7836 41.8047 21.9178 41.8952C22.003 41.953 23.7761 41.9803 23.9909 41.9541H23.9897Z" fill="#5C1D58"/>
<path d="M27.5166 39.6982C27.4473 41.3802 27.5075 43.0874 27.3927 44.7749C27.3007 44.9768 27.2041 44.9244 26.9904 44.9233L27.0836 45.0422C26.1959 45.1022 25.3139 45.1098 24.4229 45.1011V45.0422C24.5365 44.9811 24.4763 44.6299 24.4842 44.5077C24.5274 44.2066 24.4899 44.0768 24.4842 43.7954C24.491 43.5096 24.4308 42.1024 24.4842 41.9846C24.5524 41.8351 24.8582 41.93 24.8559 41.8657C24.291 41.9311 24.4797 40.7912 24.4842 40.3516C24.5081 39.9305 24.5513 39.5313 24.5456 39.1047C25.4378 39.6676 26.4528 40.0309 27.5155 39.6982H27.5166Z" fill="url(#paint1_linear_366_138188)"/>
<path d="M24.4233 45.0423V45.1012C23.78 45.0947 23.1469 45.0827 22.5059 45.0423C23.148 44.8165 23.7822 44.9594 24.4233 45.0423Z" fill="#47215C"/>
<path d="M24.4846 43.7954C24.4721 43.1987 24.3664 42.5878 24.4233 41.9846C24.3812 41.9278 24.0766 41.9573 23.9902 41.9551C24.1403 41.9366 24.3244 41.8711 24.4846 41.8657C24.3301 41.3628 24.4562 40.8534 24.4846 40.3516C24.4801 40.7912 24.2914 41.9311 24.8563 41.8657C24.8597 41.93 24.5528 41.8351 24.4846 41.9846C24.4312 42.1035 24.4915 43.5106 24.4846 43.7954Z" fill="#5C1D58"/>
<path d="M24.484 40.3506C24.4863 40.1597 24.4351 39.1638 24.5454 39.1038C24.5499 39.5303 24.5079 39.9295 24.484 40.3506Z" fill="#5C1D58"/>
<path d="M24.4844 44.5077C24.5009 44.2732 24.4785 44.031 24.4844 43.7954C24.4903 44.0768 24.5291 44.2067 24.4844 44.5077Z" fill="#5C1D58"/>
<path d="M24.423 45.0421C24.3752 44.8555 24.4605 44.6766 24.4843 44.5076C24.4764 44.6297 24.5366 44.981 24.423 45.0421Z" fill="#5C1D58"/>
<defs>
<linearGradient id="paint0_linear_366_138188" x1="22.7773" y1="25.2161" x2="29.4458" y2="36.2041" gradientUnits="userSpaceOnUse">
<stop stop-color="#BF6299"/>
<stop offset="1" stop-color="#D387B4"/>
</linearGradient>
<linearGradient id="paint1_linear_366_138188" x1="24.5558" y1="40.3505" x2="26.9738" y2="44.1552" gradientUnits="userSpaceOnUse">
<stop stop-color="#52184F"/>
<stop offset="1" stop-color="#3B1F57"/>
</linearGradient>
</defs>
</svg>
