<svg width="70" height="70" viewBox="0 0 70 70" fill="none" xmlns="http://www.w3.org/2000/svg">
<g filter="url(#filter0_i_344_12246)">
<path d="M0 35C0 15.67 15.67 0 35 0C54.33 0 70 15.67 70 35C70 54.33 54.33 70 35 70C15.67 70 0 54.33 0 35Z" fill="white" fill-opacity="0.75"/>
<g clip-path="url(#clip0_344_12246)">
<path d="M20.0878 13.1729C20.5192 13.6014 20.9299 14.0667 21.4271 14.4257C21.4995 14.4849 21.5558 14.6409 21.6 14.6851C21.6451 26.5817 21.5239 38.5009 21.6432 50.4022C21.6498 51.0582 21.6085 51.7358 21.6432 52.389C21.179 52.8552 20.9158 53.6456 20.6498 54.2678C20.6104 54.3599 20.4384 54.4689 20.4337 54.484C20.413 54.5526 20.4064 55.843 20.4337 55.9088C20.4487 55.9454 20.912 56.2847 20.866 56.5347C20.8105 56.592 20.6169 56.8947 20.5201 57.0093C20.4619 57.0779 20.4064 57.1578 20.3472 57.2255C20.2917 57.2894 20.1714 57.296 20.2607 57.3984C20.1451 57.4135 20.0906 57.4699 20.0013 57.5281V52.9934L20.0878 53.3176C20.1038 53.0751 20.0662 52.8242 20.0878 52.5836C20.179 51.5507 20.2109 50.3928 20.1743 49.3016C20.1714 49.2227 20.2175 49.0883 20.0878 49.1071C20.1047 41.2123 20.3162 33.0911 20.0878 25.202C20.0859 25.1231 20.131 24.9887 20.0013 25.0075C20.0042 21.0479 19.9985 17.0873 20.0004 13.1296C20.0201 13.1343 20.0812 13.1672 20.0869 13.1729H20.0878Z" fill="#F2CD8C"/>
<path d="M49.844 13C49.7237 13.1231 49.5837 13.2312 49.4549 13.3459C49.2651 13.515 49.079 13.6908 48.8938 13.8637C48.6852 14.0592 48.4634 14.188 48.2463 14.4032C48.2237 14.4258 48.329 14.5357 48.2895 14.5761C48.25 14.6165 47.9963 14.7556 47.9004 14.8571H22.0517C21.9878 14.797 21.9371 14.7274 21.8572 14.6842L20.0874 13.1729C20.0818 13.1673 20.0207 13.1344 20.001 13.1297L20.0226 13H49.844Z" fill="#F2CD8C"/>
<path d="M49.9309 13.3026C49.7664 27.9595 50.0916 42.6315 49.9741 57.2904C49.9741 57.3562 49.9741 57.7039 49.8444 57.5714C49.8416 57.5658 49.7927 57.53 49.758 57.4849C49.7514 57.3966 49.6443 57.2866 49.585 57.2255C49.413 56.5141 49.5465 55.7293 49.5418 54.9793C49.5418 54.8938 49.5418 54.8064 49.5418 54.7199L49.6283 45.9314C49.5183 45.9502 49.5023 46.4107 49.4986 46.4924C49.4864 46.7932 49.4647 47.1832 49.4553 47.421H49.4121C49.5728 36.0611 49.5052 24.7049 49.4553 13.3449C49.5841 13.2302 49.7232 13.1231 49.8444 12.999L49.9309 13.3017V13.3026Z" fill="#905538"/>
<path d="M20.0002 52.9925C19.9974 52.0433 20.004 51.0912 20.0002 50.142C20.1299 50.1607 20.0839 50.0263 20.0867 49.9474C20.0961 49.6683 20.0867 49.3844 20.0867 49.1053C20.2164 49.0865 20.1703 49.2209 20.1732 49.2998C20.2098 50.392 20.1788 51.5489 20.0867 52.5818C20.0651 52.8233 20.1027 53.0733 20.0867 53.3158L20.0002 52.9916V52.9925Z" fill="#F2CD8C"/>
<path d="M22.2896 55.0657C22.143 54.3053 22.0612 53.7339 21.7717 53.014C21.7539 52.9698 21.6571 53.014 21.642 52.9708C21.611 52.8805 21.6495 52.5253 21.642 52.3881C21.6072 51.7358 21.6486 51.0572 21.642 50.4012L22.1166 50.1202V15.1597C22.2266 15.2724 22.4916 15.4012 22.5913 15.5704V54.7856C22.5292 54.9256 22.393 54.9726 22.2886 55.0666L22.2896 55.0657Z" fill="#BF814F"/>
<path d="M22.0314 15.03C22.053 15.0516 22.0953 15.1362 22.1179 15.1597V50.1211L21.6432 50.4022C21.5239 38.5008 21.6451 26.5817 21.6 14.6851C21.7043 14.7903 21.9073 14.9087 22.0323 15.0309L22.0314 15.03Z" fill="#DAA168"/>
<path d="M21.8581 14.6842C21.938 14.7265 21.9878 14.797 22.0526 14.8571H47.9013C47.86 14.9013 47.8148 14.9427 47.7716 14.9868C47.6992 15.0601 47.5789 15.1269 47.5122 15.203L47.3177 15.2895H22.484C22.3994 15.2678 22.109 14.8449 22.0301 15.0301C21.9051 14.9079 21.703 14.7895 21.5977 14.6842C21.5536 14.64 21.4972 14.484 21.4248 14.4248C21.562 14.5244 21.7039 14.6024 21.8571 14.6842H21.8581Z" fill="#BF814F"/>
<path d="M49.5849 57.3552C41.3528 57.5629 33.114 57.4313 24.881 57.3984L20.3462 57.2255C20.4054 57.1578 20.4609 57.0779 20.5191 57.0093L49.1968 56.9661C49.3227 57.0986 49.4599 57.217 49.5859 57.3552H49.5849Z" fill="#A7633D"/>
<path d="M22.2897 55.0659C22.2484 55.1034 22.097 55.2153 22.2032 55.282C22.1675 55.313 22.1149 55.3732 22.0735 55.4117C21.7305 55.7266 21.1356 56.2538 20.864 56.5348C20.91 56.2848 20.4467 55.9455 20.4316 55.9089C20.4044 55.8431 20.411 54.5518 20.4316 54.4841C20.4363 54.469 20.6083 54.36 20.6478 54.2679C20.9138 53.6457 21.1769 52.8553 21.6412 52.3892C21.6487 52.5273 21.6102 52.8826 21.6412 52.9719C21.6563 53.016 21.7531 52.9709 21.7709 53.0151C22.0604 53.735 22.1431 54.3065 22.2888 55.0668L22.2897 55.0659Z" fill="#DAA168"/>
<path d="M24.8807 57.3985C23.5443 57.3929 21.5114 57.2378 20.2595 57.3985C20.1702 57.2961 20.2905 57.2895 20.346 57.2256L24.8807 57.3985Z" fill="#BF814F"/>
<path d="M21.8581 14.6841C21.7049 14.6024 21.5639 14.5244 21.4257 14.4247C20.9295 14.0666 20.5188 13.6014 20.0874 13.1729L21.8581 14.6841Z" fill="#DAA168"/>
<path d="M48.7642 56.3619C48.4991 56.0809 48.1852 55.8394 47.9004 55.5847C47.8535 55.5424 47.767 55.486 47.6843 55.4117C47.5301 55.2745 47.376 55.1035 47.252 54.9371C47.4042 54.9822 47.7379 55.4512 47.813 55.2614C47.8798 55.0941 47.8112 52.9484 47.813 52.5621C47.8271 49.9719 47.8065 47.3788 47.813 44.7877C47.829 38.7623 47.8262 32.7491 47.813 26.735C47.8046 22.8206 47.8553 18.9014 47.7698 14.9879C47.813 14.9446 47.8582 14.9023 47.8995 14.8582C47.9944 14.7567 48.2501 14.6157 48.2886 14.5772C48.3271 14.5386 48.2228 14.4268 48.2454 14.4042C48.4625 14.1881 48.6843 14.0602 48.8929 13.8647C48.7942 21.8168 49.2303 29.7773 49.1091 37.7266C49.1091 37.7435 49.0226 37.7961 49.0226 37.8131C48.9268 43.9963 48.6852 50.1749 48.7632 56.3629L48.7642 56.3619Z" fill="url(#paint0_linear_344_12246)"/>
<path d="M49.4128 47.4211C49.4091 47.6768 49.3301 48.0076 49.3264 48.2632C49.2944 50.5226 49.3499 52.7839 49.3264 55.0443L49.5425 54.9794C49.5472 55.7285 49.4138 56.5142 49.5858 57.2256C49.4109 57.0461 49.1985 56.8337 48.9814 56.7078C48.9288 56.6523 48.8639 56.5922 48.8085 56.5349C48.9062 56.5151 48.7888 56.3873 48.7653 56.3619C48.6873 50.1749 48.9288 43.9954 49.0247 37.8121C49.0247 37.7952 49.1111 37.7426 49.1111 37.7256C49.2324 29.7764 48.7963 21.8159 48.895 13.8638C49.0801 13.6899 49.2671 13.5142 49.4561 13.3459C49.5059 24.7059 49.5735 36.0621 49.4128 47.4221V47.4211Z" fill="#BF814F"/>
<path d="M49.4558 47.4209C49.3628 49.8485 49.5244 52.294 49.5423 54.7198C49.5423 54.8053 49.5423 54.8927 49.5423 54.9792L49.3261 55.044C49.3496 52.7846 49.2942 50.5224 49.3261 48.263C49.3299 48.0074 49.4088 47.6765 49.4126 47.4209H49.4558Z" fill="#AE6D54"/>
<path d="M49.5414 54.7199C49.5236 52.2942 49.3619 49.8487 49.4549 47.4211C49.4643 47.1833 49.486 46.7932 49.4982 46.4925C49.5019 46.4107 49.5179 45.9493 49.6279 45.9314L49.5414 54.7199Z" fill="#B37E63"/>
<path d="M49.5848 57.2256C49.644 57.2867 49.7511 57.3966 49.7577 57.485C49.7351 57.4558 49.6139 57.3872 49.5848 57.3553C49.4588 57.2171 49.3216 57.0987 49.1957 56.9662C49.1214 56.8882 49.0537 56.7848 48.9795 56.7068C49.1966 56.8327 49.4099 57.0451 49.5838 57.2246L49.5848 57.2256Z" fill="#D8B36B"/>
<path d="M41.5089 54.8929C41.5765 54.9897 41.5258 55.3337 41.5737 55.3676C41.7015 55.4578 42.9252 55.2341 43.1499 55.454L22.0737 55.4108C22.1151 55.3723 22.1677 55.3121 22.2034 55.2811C22.3717 55.1335 22.5192 54.9531 22.7213 54.8488C28.976 54.8459 35.2476 54.845 41.5079 54.892L41.5089 54.8929Z" fill="#FDF4B1"/>
<path d="M47.1667 54.8929C47.2043 54.8985 47.2128 54.9239 47.2532 54.9361C47.3772 55.1034 47.5314 55.2735 47.6855 55.4107L43.1507 55.454C42.9261 55.234 41.7024 55.4577 41.5746 55.3675C41.5267 55.3337 41.5774 54.9897 41.5098 54.8929C43.0915 54.9051 45.7288 54.672 47.1677 54.8929H47.1667Z" fill="#F5DE98"/>
<path d="M43.1497 55.4549L47.6845 55.4116C47.7672 55.4859 47.8536 55.5423 47.9006 55.5846C48.1873 55.9154 48.504 56.2208 48.8076 56.5347C48.863 56.5921 48.9279 56.6522 48.9805 56.7077C49.0548 56.7857 49.1224 56.8891 49.1967 56.9671L20.519 57.0103C20.6158 56.8956 20.8095 56.593 20.8649 56.5357C21.1365 56.2547 21.7314 55.7274 22.0745 55.4126L43.1506 55.4558L43.1497 55.4549Z" fill="url(#paint1_linear_344_12246)"/>
<path d="M42.6967 55.7133C43.2954 55.7086 43.9636 55.6775 44.5538 55.7133C44.7784 55.7274 45.2343 55.7274 45.3743 55.8862L39.3066 55.8213C40.4354 55.8166 41.5698 55.7217 42.6967 55.7133Z" fill="#EDC25C"/>
<path d="M48.7641 56.3617C48.7876 56.3862 48.9051 56.514 48.8073 56.5347C48.5038 56.2207 48.187 55.9153 47.9004 55.5845C48.1852 55.8392 48.4991 56.0817 48.7641 56.3617Z" fill="#F5DE98"/>
<path d="M47.5125 15.203C47.4495 15.2744 47.2587 15.4238 47.2531 15.4408C47.1958 15.6081 47.3114 16.0263 47.2099 16.2396C47.1948 16.1034 47.1497 15.9502 47.145 15.8073L22.7653 15.8289L22.7221 54.8496C22.52 54.9539 22.3725 55.1344 22.2042 55.2819C22.098 55.2152 22.2493 55.1034 22.2907 55.0658C22.395 54.9727 22.5313 54.9248 22.5933 54.7847V15.5695C22.4937 15.4013 22.2287 15.2725 22.1187 15.1588C22.0961 15.1363 22.0538 15.0507 22.0322 15.0291C22.1112 14.843 22.4016 15.266 22.4862 15.2885H47.3198L47.5144 15.202L47.5125 15.203Z" fill="#A7633D"/>
<path d="M47.8143 26.734L47.21 26.5178C47.21 23.9435 47.163 21.3637 47.1667 18.7866C47.2964 18.8054 47.2504 18.671 47.2532 18.592C47.2616 18.2969 47.2823 17.9482 47.21 17.6635C47.2081 17.2246 47.256 16.6569 47.21 16.2387C47.3115 16.0253 47.1959 15.6061 47.2532 15.4398C47.2588 15.4229 47.4496 15.2744 47.5126 15.202C47.5793 15.1259 47.6996 15.0591 47.772 14.9858C47.8575 18.8994 47.8068 22.8185 47.8152 26.733L47.8143 26.734Z" fill="#F2CD8C"/>
<path d="M47.8141 26.734C47.8273 32.7481 47.8301 38.7612 47.8141 44.7866L47.2963 44.765L47.1666 40.2518C47.1497 35.6748 47.2098 31.0939 47.2098 26.5178L47.8141 26.734Z" fill="#FDF4B1"/>
<path d="M47.8141 44.7865C47.8075 47.3767 47.8282 49.9698 47.8141 52.561C47.4795 52.0891 48.1571 50.8485 47.253 51.0497C47.2699 49.1963 47.3084 47.3345 47.2962 45.4782C47.2859 43.8269 47.1731 41.9792 47.1665 40.2527L47.2962 44.7658L47.8141 44.7875V44.7865Z" fill="#F2CD8C"/>
<path d="M47.8141 52.5609C47.8122 52.9472 47.8808 55.0929 47.8141 55.2602C47.7379 55.451 47.4052 54.982 47.253 54.9359C47.2126 54.9237 47.2041 54.8983 47.1665 54.8927C47.2464 54.7592 47.1985 54.6042 47.2097 54.4604C47.3 53.3279 47.2426 52.1831 47.253 51.0487C48.158 50.8476 47.4804 52.0882 47.8141 52.56V52.5609Z" fill="#D8B36B"/>
<path d="M47.21 16.2388C47.256 16.657 47.2081 17.2256 47.21 17.6636C47.2109 18.0386 47.1677 18.4117 47.1667 18.7867C47.163 21.3628 47.21 23.9427 47.21 26.5179C47.21 31.094 47.1498 35.6749 47.1667 40.2519C47.1733 41.9784 47.2851 43.8262 47.2964 45.4775L47.21 54.4606C47.1987 54.6034 47.2466 54.7585 47.1667 54.8929C45.7278 54.672 43.0906 54.9051 41.5088 54.8929C35.2475 54.8459 28.9759 54.8468 22.7222 54.8497L22.7654 15.829L47.1451 15.8074C47.1498 15.9493 47.1949 16.1034 47.21 16.2397V16.2388Z" fill="url(#paint2_linear_344_12246)"/>
<path d="M47.1665 18.7877C47.1665 18.4127 47.2107 18.0396 47.2097 17.6646C47.2821 17.9493 47.2614 18.298 47.253 18.5931C47.2511 18.6721 47.2962 18.8065 47.1665 18.7877Z" fill="#F2CD8C"/>
<path d="M47.2964 45.4785C47.3086 47.3347 47.2701 49.1966 47.2532 51.0499C47.2429 52.1853 47.3002 53.33 47.21 54.4616L47.2964 45.4785Z" fill="#D8B36B"/>
<path d="M44.3591 47.4642C44.3572 48.0826 44.3629 48.7029 44.3591 49.3213C44.1881 49.341 44.2407 49.2884 44.2294 49.17C44.1946 48.7884 44.189 47.9914 44.2294 47.6155C44.2416 47.4989 44.1852 47.4444 44.3591 47.4642Z" fill="#F6DDC5"/>
<path d="M25.5727 52.1719C25.5671 51.6972 25.5803 51.2207 25.5727 50.7471C25.6959 50.7405 25.6921 50.8034 25.7024 50.8984C25.7288 51.1399 25.7382 51.8805 25.7024 52.108C25.6761 52.2762 25.709 52.1794 25.5727 52.1728V52.1719Z" fill="#E6E7E9"/>
<path d="M44.3592 47.4643C44.1854 47.4445 44.2418 47.499 44.2295 47.6156C44.1891 47.9915 44.1948 48.7894 44.2295 49.1701C44.2408 49.2885 44.1873 49.3411 44.3592 49.3214C44.3527 50.2782 44.3639 51.2359 44.3592 52.1936L44.2079 52.3017C42.2136 52.2772 40.2192 52.2988 38.2267 52.3017L38.27 52.2152C39.4062 51.968 40.6807 51.9455 41.6816 51.3082C42.0651 51.0639 42.223 50.8778 42.5021 50.531C43.1186 49.7641 43.3912 48.9201 43.4523 47.9398C42.8367 47.7077 42.253 47.5526 41.5952 47.5075C40.6844 47.4455 40.6252 47.5113 39.8677 47.9398C39.4927 48.1522 39.3405 48.2894 39.004 48.5441C38.9786 48.5639 38.9147 48.578 38.9175 48.6306C38.847 48.6917 38.7737 48.7838 38.7014 48.8468C37.566 49.8364 36.7239 51.1099 35.7643 52.2584C35.6882 52.2659 35.6083 52.2547 35.5482 52.2584L35.9373 49.5592C36.238 48.3242 36.6948 47.4013 37.6431 46.5573C38.2756 45.9943 39.0886 45.64 39.6515 45.0028C40.0848 44.7453 40.6863 44.0921 41.0331 43.7067C41.4109 43.2866 41.6901 42.953 41.9833 42.4539C42.2906 41.9295 42.6694 41.1644 42.8038 40.5535C42.9551 39.8684 43.0218 38.3947 42.9335 37.703C42.9335 37.6964 42.9861 37.6222 42.9119 37.5733C42.8019 37.5451 42.8094 37.6165 42.8038 37.6165C42.16 37.6616 41.3602 37.9962 40.7737 38.2208C40.0256 38.5084 39.7286 38.5855 39.0895 39.1278C38.5359 39.5968 38.1666 40.1118 37.7935 40.7255C37.0585 41.9351 36.5998 43.3054 36.3254 44.6992C36.2295 44.6287 36.2737 44.2697 36.2822 44.1597C36.3997 42.5554 36.3799 41.1466 36.4119 39.5601C36.4138 39.4549 36.3611 39.2255 36.3686 39.1926C36.3912 39.093 37.4777 38.0113 37.6647 37.875C38.9777 38.3364 39.9993 37.5883 40.5585 36.4502C40.8743 35.8064 41.0491 35.0742 41.2493 34.3985C41.2361 34.3646 41.1111 34.3468 41.0764 34.3336C40.8555 34.2509 40.4598 34.2979 40.2126 34.2904C39.8602 34.28 39.3508 34.2321 39.0463 34.3769H39.003C38.9899 34.3646 38.9993 34.3082 38.9166 34.3336C38.0764 34.6005 37.035 35.2218 36.973 36.2124C36.9485 36.6081 37.2014 37.1607 37.1891 37.3571C37.1873 37.3853 37.1619 37.4135 37.1459 37.4436C37.1299 37.4737 36.7483 37.8346 36.6713 37.9182C36.5519 38.0479 36.4297 38.2161 36.2822 38.3073C36.2305 37.7086 36.1553 37.1297 36.066 36.5366C35.9767 35.9436 35.9335 35.3646 35.7201 34.8092C35.9955 34.6748 36.1318 34.5733 36.3245 34.3346C37.1854 34.1607 37.9495 33.8722 38.5275 33.1898C39.4532 32.0968 39.3066 30.8919 39.4777 29.562C39.5247 29.1926 39.9532 26.8167 39.7803 26.6898C39.7418 26.687 39.7371 26.7284 39.6938 26.7331C39.7014 26.6635 39.6835 26.5846 39.6938 26.5169C39.738 26.2378 39.9175 26.0028 39.9965 25.7396C41.0143 25.9868 42.0087 25.0629 42.0698 24.0338C42.0782 23.8947 42.0425 23.6447 42.0265 23.4943C41.9523 22.7923 41.6177 22.0188 41.5087 21.3129C41.4438 21.2274 41.3856 21.375 41.379 21.3778C41.1149 21.4934 40.2032 22.1607 39.9542 22.3712C38.9636 23.2058 38.5388 24.1785 39.4795 25.265C39.5124 25.3026 39.5068 25.3458 39.6092 25.4379L39.3499 26.3017C38.8 26.1109 38.1177 26.2528 37.5359 26.3017C37.4927 26.0705 36.5933 25.4426 36.3264 25.4379C35.9899 25.4323 35.7841 25.6597 35.5059 25.8703C35.1083 25.8816 34.9344 25.3205 34.5989 25.3957C34.598 25.3524 34.5989 25.3092 34.5989 25.266C34.5961 24.7077 34.6581 24.141 34.6421 23.5817C35.6638 23.3092 35.8207 22.3035 35.5923 21.422C35.4166 20.7434 35.0228 20.0488 34.5773 19.5216C34.472 19.6287 34.4401 19.7782 34.3827 19.9107C33.8414 20.2782 33.5002 20.719 33.3029 21.3355C33.0848 22.015 33.0369 22.6391 33.5623 23.2143C33.6788 23.3421 34.0923 23.5535 34.1233 23.625C34.1544 23.6964 34.1515 24.1532 34.1666 24.2725C34.2126 24.641 34.238 25.8966 34.3395 26.1297L33.3677 25.9567C33.4015 26.1983 33.8113 26.3703 33.7352 26.6475C33.473 26.2725 33.1722 25.9351 32.8498 25.6109C32.8405 25.6109 32.7596 25.7161 32.7418 25.7406C32.3959 25.5695 31.7972 26.7077 31.7267 26.734C31.6788 26.7519 31.1215 26.6682 30.9495 26.6908C30.8771 26.7002 30.2709 26.8082 30.2371 26.8205L29.5895 25.1795C30.2577 24.4746 29.9899 23.5864 29.3733 22.9765C28.9908 22.5977 28.4438 22.2472 28.0557 21.8534C27.9119 21.8665 27.9655 22.359 27.9476 22.4577C27.8442 23.0207 27.8094 23.2894 27.8179 23.8825C27.8254 24.3853 27.7549 24.8252 28.2718 25.1785C28.6995 25.4708 28.9185 25.3299 29.3301 25.3515C29.5679 25.8524 29.7352 26.4821 29.9777 26.9925C29.9326 27.0169 29.8884 27.0488 29.848 27.0789C29.7145 27.1785 29.6205 27.1955 29.6102 27.2086C29.4467 27.4285 29.4156 28.3665 29.4156 28.6767C28.9288 28.7631 27.2972 29.0075 27.3856 29.7133C27.3921 29.7622 27.4795 29.8186 27.5153 29.8863C27.6525 30.1485 27.895 30.3769 28.0331 30.6419C28.0651 30.703 28.1628 30.8487 28.0331 30.8797C27.8442 30.8252 26.9936 31.1936 26.9965 31.2904C27.0134 31.3317 27.1177 31.3863 27.1262 31.3985C27.3893 31.7819 28.3348 32.8712 28.6807 33.1691C28.8104 33.4436 29.0406 33.6447 29.2418 33.8599C29.7803 34.6306 30.3987 35.2265 31.3583 35.3712C31.5453 35.3994 31.8235 35.4342 32.0059 35.4144C32.3076 36.6259 32.7211 37.8261 32.9993 39.0423C33.4382 40.9661 33.7427 43.0272 33.7765 45.0019C33.5905 43.7058 32.8602 41.749 32.222 40.5968C31.8846 39.9878 31.5153 39.4003 31.0124 38.9126C30.4448 38.3609 29.9692 38.1109 29.2418 37.8327C28.5651 37.5742 27.8574 37.3806 27.1468 37.2716C27.1074 37.2866 27.1337 37.344 27.1252 37.3581C26.9279 37.6729 27.2465 40.1306 27.3846 40.5968C27.5472 41.1466 27.9326 41.8863 28.2483 42.3675C28.6468 42.9746 29.2671 43.6456 29.8029 44.1381C31.6233 45.8111 33.1459 46.0122 33.6468 48.7594C33.7906 49.5488 33.848 50.3364 33.9062 51.1344C33.9326 51.4915 33.9297 51.8618 33.9927 52.2143C33.9626 52.2143 33.9363 52.2143 33.9062 52.2143C33.5303 51.7565 33.0801 51.2923 32.7399 50.8111C31.9711 49.7237 31.5923 48.4671 30.192 47.9821C29.473 47.7331 28.8217 47.7293 28.0754 47.8524C27.6873 47.9163 26.5576 48.2697 26.3047 48.5432C26.2859 48.5639 26.1967 48.5817 26.2183 48.6513C26.8 49.4624 27.3508 50.281 28.0754 50.9614C28.5359 51.3938 28.629 51.5188 29.2418 51.7819C30.1346 52.1663 30.8752 52.2011 31.8329 52.2565L25.5707 52.1701C25.707 52.1767 25.6741 52.2735 25.7004 52.1052C25.7361 51.8778 25.7267 51.1372 25.7004 50.8956C25.6901 50.8017 25.6938 50.7378 25.5707 50.7443C25.4081 40.0394 25.675 29.3176 25.5923 18.6118L44.3583 18.6334C44.3339 28.2425 44.3912 37.8534 44.3583 47.4624L44.3592 47.4643Z" fill="url(#paint3_linear_344_12246)"/>
<path d="M29.4158 19.9531C29.1094 19.9888 28.9674 20.2811 28.9411 20.5574C28.1658 20.7266 28.4252 19.7933 28.7898 19.4343C29.021 19.7652 29.1225 19.7915 29.5238 19.8234C29.5718 19.8742 29.4242 19.9409 29.4158 19.9531Z" fill="#F7A7A9"/>
<path d="M27.2782 43.7932C27.3374 43.7725 27.563 43.7781 27.6025 43.858C27.532 44.171 27.6316 44.5272 27.4079 44.7866L26.8684 44.4191C26.8487 44.3308 27.2162 43.8148 27.2792 43.7932H27.2782Z" fill="#EDC25C"/>
<path d="M42.6318 32.8233C42.6807 32.75 42.8536 32.7763 42.9345 32.7801C43.1863 32.7914 43.2925 32.8224 43.5388 32.6504C43.8518 33.2331 43.0228 33.1288 42.9129 33.5573C42.8734 33.5536 42.6892 32.9154 42.6318 32.8233Z" fill="#E29A2C"/>
<path d="M41.8975 28.03C42.031 28.4971 42.3919 28.4295 42.7613 28.3326C42.7857 28.3853 43.0338 28.5169 42.9126 28.6785L42.0056 28.8947L41.7678 28.0958C41.7584 27.9962 41.8393 28.0404 41.8975 28.031V28.03Z" fill="#249698"/>
<path d="M41.9408 44.6139C42.1363 44.799 42.2359 44.549 42.2867 44.3545C42.4549 44.3122 42.9088 44.706 42.6541 44.9588C42.6353 44.9776 42.2049 45.1797 42.1795 45.175C42.1513 45.1693 41.8149 44.7501 41.812 44.721C41.8102 44.6938 41.9248 44.6317 41.9417 44.6129L41.9408 44.6139Z" fill="#C94F5B"/>
<path d="M26.8677 36.1496C26.6468 36.3836 26.362 36.4823 26.3066 36.8404C26.16 36.7398 25.9983 36.456 25.832 36.3441C25.8075 36.2765 25.9072 36.2511 25.9184 36.236C26.3226 36.4184 26.4617 36.1496 26.566 35.8037C26.7587 35.8507 26.7634 36.0189 26.8686 36.1496H26.8677Z" fill="#C45EA4"/>
<path d="M26.3066 36.8402C26.3621 36.4821 26.6469 36.3825 26.8677 36.1494C26.8893 36.1757 27.1196 36.2791 27.1271 36.3007C27.2465 36.6504 26.5604 37.015 26.3066 36.8402Z" fill="#C15689"/>
<path d="M40.5587 19.3054C40.6518 19.3195 41.0033 19.3675 41.0333 19.4567C41.023 19.6062 40.633 20.2114 40.5155 20.2124C40.6367 19.9079 40.2044 19.4774 40.5587 19.3054Z" fill="#C94F5B"/>
<path d="M40.5582 19.3055C40.2039 19.4775 40.6362 19.9079 40.515 20.2124C40.4492 20.2124 39.906 19.9559 39.9107 19.8882C40.0517 19.8393 40.3524 19.2378 40.4069 19.219C40.4652 19.1993 40.5498 19.3045 40.5582 19.3055Z" fill="#C94F5B"/>
<path d="M42.7617 28.3318C42.3923 28.4296 42.0314 28.4963 41.8979 28.0292C42.0126 28.0104 42.2166 28.0574 42.3087 28.0292C42.3613 28.0132 42.5493 27.7688 42.5681 27.7698C42.5981 27.7717 42.71 28.2171 42.7626 28.3309L42.7617 28.3318Z" fill="#35B1B4"/>
<path d="M29.6749 46.687C29.595 46.4163 29.4014 46.1738 29.1138 46.1691C29.1974 46.0779 29.4211 45.9323 29.5245 45.8232C29.8102 46.0817 29.829 46.3383 29.6758 46.687H29.6749Z" fill="#B63363"/>
<path d="M30.064 37.1862L30.4531 36.4521C30.563 36.642 30.4418 36.7792 30.7557 36.9061C30.548 36.8929 30.2096 37.3365 30.0649 37.1871L30.064 37.1862Z" fill="#C1425D"/>
<path d="M29.6751 46.687C29.3706 46.5968 28.7663 46.5489 29.114 46.1692C29.4025 46.1748 29.5952 46.4173 29.6751 46.687Z" fill="#EB73A2"/>
<path d="M41.4222 32.5217C41.425 32.5274 41.4974 32.5048 41.5087 32.5433C41.5293 32.6129 41.4579 33.0123 41.4006 33.0396C41.2906 33.0725 40.8451 32.8864 40.8179 32.7802C40.9513 32.7191 41.0491 32.5969 41.0773 32.4775C41.2211 32.7416 41.4457 33.158 41.4231 32.5208L41.4222 32.5217Z" fill="#BA4C98"/>
<path d="M43.0211 32.5216C43.0061 32.5451 43.0371 32.7152 42.9346 32.781C42.8547 32.7773 42.6818 32.751 42.632 32.8243C42.6076 32.7848 42.3688 32.6776 42.3726 32.6297C42.6292 32.4173 42.7006 32.2998 43.0202 32.5216H43.0211Z" fill="#F5B935"/>
<path d="M41.4223 32.5217C41.4449 33.1589 41.2212 32.7425 41.0765 32.4784C41.0389 32.4098 41.0116 32.3064 40.9468 32.2623C41.1291 32.048 41.3293 32.3591 41.4214 32.5217H41.4223Z" fill="#DE7AB1"/>
<path d="M43.5389 32.6513C43.2927 32.8224 43.1865 32.7923 42.9346 32.781C43.037 32.7152 43.006 32.5451 43.021 32.5216C43.1958 32.2519 43.4177 32.4239 43.5389 32.6513Z" fill="#E29A2C"/>
<path d="M30.4522 36.4512L30.0631 37.1852C29.7699 36.8826 30.1665 36.5518 30.3873 36.3647C30.4212 36.3864 30.4334 36.4183 30.4522 36.4512Z" fill="#E4596E"/>
<path d="M26.566 35.8035C26.4608 36.1494 26.3217 36.4172 25.9185 36.2358C25.9683 36.1719 26.4965 35.7866 26.566 35.8035Z" fill="#DE7AB1"/>
<path d="M29.4155 19.9531C29.2877 20.1373 29.1646 20.4719 29.1129 20.5358C29.0076 20.6674 28.9804 20.549 28.9399 20.5574C28.9663 20.2811 29.1091 19.9888 29.4146 19.9531H29.4155Z" fill="#C1425D"/>
<path d="M41.0771 32.4784C41.049 32.5978 40.9521 32.7199 40.8177 32.781C40.8037 32.7246 40.9042 32.3139 40.9474 32.2632C41.0123 32.3074 41.0396 32.4107 41.0771 32.4793V32.4784Z" fill="#EB73A2"/>
<path d="M42.2858 44.3552C42.236 44.5488 42.1364 44.7998 41.9399 44.6146C42.0067 44.5394 42.1852 44.3806 42.2858 44.3552Z" fill="#F7A7A9"/>
<path d="M36.4128 39.561C36.3809 41.1475 36.4016 42.5563 36.2831 44.1607C36.2747 44.2716 36.2305 44.6296 36.3264 44.7001C36.2108 45.2866 36.1046 45.9558 36.067 46.5789C36.0604 46.6851 36.0228 46.8966 36.1534 46.9464C36.083 47.1052 35.9025 47.343 36.0237 47.5507C35.9937 47.64 35.9767 47.749 35.894 47.8101C36.0407 46.1616 36.254 44.4999 36.3264 42.843C36.3743 41.7481 36.3931 40.655 36.3264 39.561H36.4128Z" fill="#547637"/>
<path d="M30.2372 26.8204C30.2316 26.8223 30.2269 26.8759 30.1507 26.9069C29.9966 26.5065 29.7851 25.3759 29.3302 25.3524C29.3246 25.3411 29.3359 25.3204 29.3302 25.3091C29.4299 25.3279 29.5304 25.2415 29.5896 25.1794L30.2372 26.8204Z" fill="#BCAC31"/>
<path d="M31.3592 35.3721C30.3996 35.2264 29.7812 34.6315 29.2427 33.8608C29.5923 34.2358 29.9476 34.6127 30.3442 34.9407L31.3592 35.3731V35.3721Z" fill="#A0406C"/>
<path d="M40.2137 34.2922C39.8913 34.4689 39.4007 34.4454 39.0474 34.3787C39.3519 34.234 39.8613 34.2819 40.2137 34.2922Z" fill="#F389A6"/>
<path d="M38.9176 48.6307C38.9148 48.578 38.9777 48.5639 39.004 48.5442C39.0313 48.6617 38.9317 48.6184 38.9176 48.6307Z" fill="#A6CEE6"/>
<path d="M35.679 41.9362C35.6141 43.3535 35.3989 44.7708 35.3331 46.1899L34.8153 50.142C34.8331 47.7886 34.554 45.3187 34.2109 42.9944C34.5775 42.002 35.1057 41.1317 35.679 40.252C35.6658 40.8083 35.7044 41.3788 35.679 41.9362Z" fill="#E6E7E9"/>
<path d="M33.2595 35.2424C33.7143 35.2555 34.2425 35.2471 34.6843 35.1559C34.7989 35.3693 35.0142 35.6399 35.1166 35.8467C35.3769 36.8975 35.6993 37.9426 35.6777 39.0431C35.5687 39.1945 35.4672 39.3965 35.3751 39.561C35.016 39.9031 34.564 40.7809 34.3384 41.2452C34.2529 41.4219 34.1965 41.6869 34.0358 41.8063C33.9484 41.3176 33.8807 40.8242 33.7764 40.3383C33.4108 38.6381 32.8807 36.9811 32.3516 35.3279C32.454 35.3044 32.5142 35.201 32.5245 35.1982C32.595 35.1794 32.7181 35.1127 32.7407 35.1118C32.86 35.1061 33.0658 35.2358 33.2585 35.2414L33.2595 35.2424Z" fill="#E6E7E9"/>
<path d="M36.4562 26.8635C36.4779 27.4048 36.5032 27.9387 36.4995 28.4829C36.4957 29.027 36.2692 28.8898 36.6292 29.4114C36.7701 30.0148 37.1686 30.6473 37.2335 31.2686C37.2861 31.7742 37.1856 32.2855 37.1038 32.7798C36.8679 33.2695 36.6743 33.902 36.3265 34.3344C36.1339 34.574 35.9967 34.6755 35.7222 34.809C35.7053 34.8174 35.6545 34.8005 35.6357 34.809L34.2542 33.2977C34.2645 33.2441 34.2429 33.1783 34.2542 33.1248C34.2852 32.9725 34.2664 32.7582 34.2974 32.6069C34.3886 32.1633 34.867 30.9189 34.8153 30.6201C34.9779 30.6219 34.9722 30.386 35.0314 30.2742C35.132 30.0844 35.7927 28.9641 35.9168 28.9349C36.0559 28.903 36.1235 29.0364 36.241 28.9998C36.1536 28.9039 36.0352 28.8466 35.9384 28.762C35.694 28.5486 35.4478 28.3137 35.1611 28.1577L34.2109 27.1426C34.2899 26.9876 34.4525 26.8964 34.5568 26.7751C34.6564 26.9227 34.2936 27.0505 34.2974 27.1426C34.3049 27.2958 36.0662 28.73 36.3059 28.9349L36.4572 26.8616L36.4562 26.8635Z" fill="url(#paint4_linear_344_12246)"/>
<path d="M36.3266 34.3354C36.6744 33.9031 36.868 33.2706 37.1039 32.7809C37.3022 32.3692 37.5559 32.0356 37.7082 31.5713C37.7768 31.3617 37.8652 31.3523 37.8379 31.0535C37.8849 30.9529 38.149 30.8937 38.1622 30.8805C38.4695 30.5591 38.9779 28.6474 39.1772 28.1164C39.3407 27.6794 39.5635 27.2555 39.7383 26.8204C39.7411 26.8138 39.8191 26.7743 39.7815 26.6907C39.9554 26.8176 39.5268 29.1935 39.4789 29.5629C39.3078 30.8927 39.4544 32.0976 38.5287 33.1907C37.9507 33.873 37.1875 34.1606 36.3257 34.3354H36.3266Z" fill="url(#paint5_linear_344_12246)"/>
<path d="M36.3265 25.4378C36.7701 25.9595 37.037 26.5929 37.3199 27.2085C37.3716 27.3213 37.4412 27.4388 37.4929 27.5544C37.46 27.5751 37.4459 27.6258 37.3632 27.5976C37.1545 26.8843 36.8115 26.2226 36.3914 25.6108C36.4149 26.0281 36.4393 26.4444 36.4562 26.8636L36.3049 28.9369C36.0652 28.732 34.304 27.2978 34.2964 27.1446C34.2917 27.0525 34.6555 26.9256 34.5558 26.7771C34.6658 26.6493 34.7814 26.5055 34.9017 26.388C35.068 26.2245 35.3199 26.0102 35.506 25.8702C35.7852 25.6606 35.99 25.4322 36.3265 25.4378Z" fill="#F2684E"/>
<path d="M33.7356 26.6475C33.8052 26.7471 34.1303 27.1587 34.1247 27.2302C33.8531 27.5375 33.6811 27.8956 33.4772 28.2452C33.3522 28.4595 33.2441 28.6832 33.1097 28.8928C32.9518 28.5413 32.2178 28.0591 32.1379 27.7264C32.0834 27.5008 32.5909 25.9426 32.7422 25.7396C32.76 25.7151 32.8409 25.6099 32.8503 25.6099C33.1726 25.9332 33.4734 26.2715 33.7356 26.6465V26.6475Z" fill="#F2684E"/>
<path d="M30.2371 33.2987C30.3198 33.3673 30.3903 33.4707 30.4965 33.5581C30.8133 33.8203 31.1131 34.2564 31.4683 34.5082L32.5266 35.199C32.5163 35.2019 32.4561 35.3052 32.3537 35.3287C32.2926 35.3428 32.2352 35.3691 32.224 35.372C32.1798 35.3823 32.0445 35.4114 32.0078 35.4152C31.8255 35.4349 31.5473 35.4002 31.3602 35.372L30.3452 34.9396C29.9495 34.6116 29.5933 34.2347 29.2437 33.8597C29.0426 33.6436 28.8123 33.4425 28.6826 33.169C28.7531 33.2301 28.9843 33.4707 29.0069 33.4716C29.0454 33.4725 29.5858 33.0129 29.5896 32.9754C29.6037 32.8569 29.3593 32.871 29.4166 32.6943C29.677 32.8851 29.9956 33.0985 30.2371 33.2987Z" fill="#CF6688"/>
<path d="M37.6649 37.8768C37.4788 38.0121 36.3923 39.0948 36.3688 39.1944C36.3613 39.2273 36.414 39.4557 36.4121 39.5619H36.3256C36.3218 39.5008 36.3463 39.3354 36.304 39.3025C36.2119 39.3928 36.1452 39.5046 36.0662 39.6052C35.9722 39.7255 35.8933 39.8674 35.8068 39.9943L34.1658 42.7151C34.1827 42.654 34.1367 42.6334 34.1226 42.5854C34.2147 42.3674 34.0784 42.0431 34.0361 41.8082C34.1968 41.6888 34.2523 41.4238 34.3388 41.2471C34.9121 40.8777 35.1141 39.9849 35.5916 39.4548C35.5869 39.31 35.3895 39.5497 35.3754 39.5629C35.4666 39.3975 35.569 39.1954 35.6781 39.045C35.6865 39.0328 35.7758 39.1794 35.7861 38.8721C35.9243 39.2414 35.9299 38.6418 35.8942 38.5046C35.8801 38.4501 35.7702 38.4388 35.7645 38.4181C35.6884 38.1371 35.6959 37.9849 35.6781 37.6409C35.6781 37.6287 35.4788 37.6944 35.6564 37.4896L36.1104 37.5544L36.3265 38.6991C36.5267 38.67 37.0061 37.8063 36.6724 37.9219C36.7504 37.8373 37.132 37.4764 37.147 37.4473C37.3303 37.6841 37.3717 37.7762 37.6649 37.8796V37.8768Z" fill="#285433"/>
<path d="M29.5455 29.2386C29.5756 29.9914 29.6451 31.0891 30.0201 31.7433L29.8904 31.7865C29.4017 30.8937 28.8556 30.451 27.9252 29.9726C27.8162 29.9162 27.6366 29.7997 27.5145 29.8861C27.4788 29.8185 27.3913 29.7621 27.3848 29.7132C27.9825 29.4369 28.897 29.45 29.4581 29.2386C29.4769 29.232 29.5173 29.2423 29.5445 29.2386H29.5455Z" fill="#F2684E"/>
<path d="M32.7418 25.7404C32.5895 25.9434 32.0829 27.5016 32.1374 27.7272L32.0077 27.8137C31.9589 27.7704 30.9156 27.4189 30.7765 27.3813C30.5153 27.3108 30.285 27.3879 29.9777 27.2516C29.9495 27.2385 29.8094 27.1445 29.848 27.0787C29.8884 27.0486 29.9326 27.0167 29.9777 26.9922C30.0096 26.9753 30.1271 26.9152 30.1506 26.9058C30.2258 26.8748 30.2314 26.8212 30.2371 26.8193C30.2709 26.8071 30.8771 26.699 30.9495 26.6896C31.1215 26.667 31.6788 26.7507 31.7267 26.7328C31.7972 26.7075 32.3959 25.5684 32.7418 25.7394V25.7404Z" fill="#FAC1C0"/>
<path d="M29.8916 31.7865C29.9536 31.9003 29.9771 32.0563 30.0213 32.1324C29.8719 32.0234 29.744 32.3805 29.6322 32.3053C29.3333 32.1399 29.1989 31.874 28.8549 31.7443C28.5279 31.6183 28.3211 30.9632 28.0345 30.8805C28.1642 30.8495 28.0664 30.7038 28.0345 30.6427C27.8963 30.3777 27.6538 30.1493 27.5166 29.8871C27.6378 29.8006 27.8174 29.9172 27.9273 29.9736C28.8578 30.452 29.4038 30.8946 29.8925 31.7875L29.8916 31.7865Z" fill="#F16574"/>
<path d="M39.3499 26.3016C39.38 26.3119 39.4091 26.3288 39.4364 26.3448C39.5351 26.4003 39.5783 26.5159 39.6958 26.5177C39.6854 26.5854 39.7033 26.6644 39.6958 26.7339C39.3725 26.7668 37.786 27.3692 37.4928 27.5544C37.4411 27.4388 37.3715 27.3213 37.3198 27.2085C37.4035 27.1221 37.5444 26.3476 37.536 26.3016C38.1178 26.2527 38.8001 26.1108 39.3499 26.3016Z" fill="#FAC1C0"/>
<path d="M40.5591 36.4511C40.0008 37.5893 38.9792 38.3374 37.6653 37.8759C37.3721 37.7726 37.3298 37.6814 37.1475 37.4436C37.1634 37.4135 37.1888 37.3853 37.1907 37.3572C37.3232 37.4756 37.4266 37.3421 37.5366 37.3139C38.1052 37.1682 38.639 36.6447 38.9181 36.5799C39.3796 36.4728 40.0695 36.8092 40.5591 36.4502V36.4511Z" fill="#33356A"/>
<path d="M39.0044 34.3788C39.0166 34.3901 39.1745 34.6429 39.1774 34.6598C39.1821 34.6899 39.089 34.673 39.0909 34.7031C39.1125 35.0367 39.0843 36.1279 39.0044 36.4089C39.0016 36.4202 38.8879 36.5179 38.918 36.5818C38.6388 36.6467 38.1041 37.1702 37.5364 37.3159C37.5044 36.7172 37.9264 35.9728 38.2272 35.4371C38.4386 35.0593 38.7178 34.7181 38.918 34.3356C38.9997 34.3102 38.9913 34.3666 39.0044 34.3788Z" fill="#B392C4"/>
<path d="M41.0777 34.3355C41.0909 34.4483 41.0843 34.4699 41.0129 34.5516C40.6454 34.9708 40.1322 35.5103 39.7384 35.9125C39.5918 36.062 39.1952 36.5639 39.0044 36.4088C39.0843 36.1278 39.1115 35.0366 39.0909 34.703C39.089 34.6729 39.182 34.6898 39.1773 34.6597C39.1745 34.6437 39.0166 34.39 39.0044 34.3787H39.0476C39.4001 34.4454 39.8916 34.4689 40.214 34.2922C40.4612 34.2998 40.8568 34.2528 41.0777 34.3355Z" fill="#D54D76"/>
<path d="M37.5364 37.3147C37.4264 37.3429 37.323 37.4764 37.1905 37.358C37.2027 37.1615 36.9499 36.6089 36.9743 36.2132C37.0364 35.2226 38.0777 34.6014 38.9179 34.3345C38.7177 34.717 38.4386 35.0582 38.2271 35.436C37.9264 35.9717 37.5044 36.7161 37.5364 37.3147Z" fill="#4D8AC8"/>
<path d="M40.5589 36.451C40.0692 36.81 39.3794 36.4736 38.9179 36.5807C38.8869 36.5177 39.0016 36.4191 39.0044 36.4078C39.1952 36.5619 39.5918 36.061 39.7384 35.9115C40.1322 35.5102 40.6454 34.9698 41.0128 34.5506C41.0843 34.4698 41.0908 34.4473 41.0777 34.3345C41.1125 34.3476 41.2375 34.3655 41.2506 34.3993C41.0504 35.0751 40.8756 35.8063 40.5598 36.451H40.5589Z" fill="#B63363"/>
<path d="M35.6357 34.8101C35.6536 34.8016 35.7053 34.8185 35.7222 34.8101C35.9346 35.3655 35.9797 35.9548 36.0681 36.5375L36.0032 36.8834C35.9308 36.8533 35.506 36.8984 35.4854 36.8834C35.4402 36.8524 35.2119 36.0375 35.1179 35.8467C35.0164 35.6399 34.8002 35.3693 34.6855 35.1559C35.0042 35.0901 35.3397 34.9445 35.6357 34.8101Z" fill="#222E25"/>
<path d="M27.2139 31.3983C27.6181 31.4227 29.0335 32.4124 29.417 32.6943C29.3596 32.8701 29.604 32.8569 29.5899 32.9754C29.5852 33.013 29.0448 33.4735 29.0072 33.4716C28.9846 33.4716 28.7544 33.2301 28.6829 33.169C28.3371 32.871 27.3916 31.7818 27.1284 31.3983C27.1566 31.3983 27.1867 31.3964 27.2149 31.3983H27.2139Z" fill="#F389A6"/>
<path d="M39.7382 26.8203C39.3153 26.855 37.7241 28.3344 37.6649 28.5909H37.5785C37.5428 28.2517 37.4582 27.9237 37.3623 27.5975C37.445 27.6257 37.4591 27.575 37.492 27.5543C37.7852 27.3691 39.3717 26.7667 39.695 26.7338C39.7382 26.7291 39.7429 26.6877 39.7815 26.6906C39.8191 26.7742 39.7411 26.8137 39.7382 26.8203Z" fill="#F15C59"/>
<path d="M29.4159 28.6775C29.4159 28.8184 29.5042 29.0666 29.4591 29.2385C28.898 29.45 27.9835 29.4369 27.3858 29.7132C27.2974 29.0073 28.929 28.763 29.4159 28.6765V28.6775Z" fill="#FAB69B"/>
<path d="M34.3399 26.1295C34.3653 26.1878 34.3813 26.17 34.3832 26.1728C34.5035 26.3363 34.6294 26.2545 34.6426 26.2592C34.698 26.2799 34.7676 26.4369 34.902 26.3889C34.7826 26.5064 34.667 26.6502 34.5561 26.778C34.4518 26.8983 34.2892 26.9895 34.2102 27.1455L35.1604 28.1606C35.1068 28.1314 34.9565 28.0356 34.9443 28.0309L34.1886 27.2536C33.9386 27.5675 33.7149 27.8965 33.5194 28.247H33.4762C33.6802 27.8974 33.8522 27.5393 34.1238 27.232C34.1294 27.1606 33.8042 26.748 33.7347 26.6493C33.8108 26.372 33.401 26.2 33.3672 25.9585L34.339 26.1314L34.3399 26.1295Z" fill="#FAB69B"/>
<path d="M36.0674 36.5375C36.1567 37.1305 36.2318 37.7095 36.2835 38.3081C36.2948 38.4407 36.3334 38.5628 36.3268 38.6972L36.1106 37.5525L35.6567 37.4877C35.479 37.6925 35.6773 37.6268 35.6783 37.639C35.6961 37.983 35.6886 38.1352 35.7647 38.4162C35.7704 38.4369 35.8803 38.4472 35.8944 38.5027C35.9302 38.6399 35.9245 39.2386 35.7864 38.8702C35.776 39.1775 35.6867 39.0309 35.6783 39.0431C35.6999 37.9435 35.3766 36.8974 35.1172 35.8467C35.2102 36.0375 35.4386 36.8523 35.4847 36.8833C35.5063 36.8984 35.9302 36.8533 36.0025 36.8833L36.0674 36.5375Z" fill="#31422C"/>
<path d="M37.5362 26.3015C37.5447 26.3475 37.4037 27.122 37.3201 27.2084C37.0372 26.5928 36.7703 25.9594 36.3267 25.4377C36.5936 25.4424 37.493 26.0703 37.5362 26.3015Z" fill="#F79368"/>
<path d="M28.0342 30.8795C28.3209 30.9622 28.5276 31.6173 28.8547 31.7432C28.8397 31.7376 28.6498 31.7883 28.5305 31.7432C28.0605 31.5665 27.6169 31.3099 27.1056 31.2686L27.2137 31.3983C27.1855 31.3964 27.1555 31.3983 27.1273 31.3983C27.1188 31.3861 27.0145 31.3316 26.9976 31.2902C26.9947 31.1934 27.8453 30.825 28.0342 30.8795Z" fill="#F9C5DB"/>
<path d="M35.5061 25.8702C35.319 26.0112 35.0681 26.2245 34.9018 26.3881C34.7674 26.436 34.6978 26.279 34.6424 26.2584C34.6828 25.9736 34.6057 25.6653 34.5991 25.3946C34.9346 25.3194 35.1085 25.8805 35.5061 25.8693V25.8702Z" fill="#FAC1C0"/>
<path d="M29.978 27.2518C29.8794 27.2622 29.7891 27.3139 29.7186 27.3815C29.6839 27.4144 29.6989 27.3468 29.6322 27.468C29.4893 27.7293 29.5307 28.8702 29.5457 29.2387C29.5185 29.2424 29.478 29.2321 29.4592 29.2387C29.5044 29.0667 29.416 28.8176 29.416 28.6776C29.416 28.3674 29.4461 27.4295 29.6106 27.2095C29.62 27.1964 29.7139 27.1795 29.8483 27.0798C29.8098 27.1456 29.9489 27.2396 29.978 27.2528V27.2518Z" fill="#F8A99A"/>
<path d="M36.3264 38.6973C36.333 38.5638 36.2945 38.4407 36.2832 38.3082C36.4298 38.2179 36.5529 38.0497 36.6723 37.9191C37.0059 37.8035 36.5276 38.6681 36.3264 38.6963V38.6973Z" fill="#839649"/>
<path d="M36.1536 41.4182C36.1423 41.6052 36.1244 41.7923 36.1103 41.9793C35.8801 45.0432 35.4844 48.1428 35.0737 51.1786C35.0398 51.4295 35.0483 52.4445 34.6846 52.2152C34.7269 51.5235 34.8086 50.8374 34.8143 50.1419L35.3321 46.1898C35.397 44.7707 35.6131 43.3534 35.678 41.9361L35.959 42.109C36.0972 42.1034 35.9806 41.4755 36.1536 41.4182Z" fill="#B3D450"/>
<path d="M36.1537 41.4181C35.9807 41.4755 36.0973 42.1033 35.9591 42.1089L35.6781 41.936C35.7035 41.3786 35.665 40.8082 35.6781 40.2518C35.7129 40.1982 35.7458 40.0835 35.8078 39.9924C35.8943 39.8655 35.9732 39.7236 36.0672 39.6033C36.2702 40.1512 36.1894 40.8345 36.1537 41.4172V41.4181Z" fill="#ABD37E"/>
<path d="M36.3265 42.843C36.2541 44.499 36.0408 46.1616 35.8942 47.8101C35.8425 48.3871 35.7682 48.9595 35.7213 49.5375C35.429 49.5967 35.5746 50.0422 35.5483 50.2067C35.49 50.5676 35.2532 50.9172 35.4619 51.2433C35.3134 51.0526 35.2579 50.9896 35.0728 51.1785C35.4835 48.1428 35.8791 45.0432 36.1094 41.9792C36.3444 42.0197 36.2241 42.6193 36.2391 42.8214C36.2532 43.0103 36.256 42.8862 36.3256 42.843H36.3265Z" fill="#9EB14A"/>
<path d="M33.2168 31.9595C33.5438 32.3627 33.8512 32.7894 34.2534 33.1259C34.2421 33.1794 34.2638 33.2452 34.2534 33.2988C34.1764 33.6917 34.0203 35.0441 33.6275 35.1992C33.5457 35.2311 33.3305 35.1428 33.26 35.2424C33.0664 35.2368 32.8606 35.108 32.7421 35.1127C32.3897 34.6296 31.62 34.1277 31.3606 33.6014C31.1792 33.2339 31.0335 32.374 31.0147 31.9605C30.9856 31.3016 31.0852 30.3289 31.3173 29.7142C31.3474 29.6353 31.3427 29.5714 31.4038 29.498C31.9696 30.3486 32.5749 31.1672 33.2177 31.9595H33.2168Z" fill="url(#paint6_linear_344_12246)"/>
<path d="M34.426 30.0591C34.4185 30.0102 34.4674 30.0178 34.4693 30.0159C34.5877 30.201 34.7756 30.3956 34.8151 30.6202C34.8668 30.9191 34.3875 32.1634 34.2973 32.6071C33.9721 32.3148 33.6365 31.9821 33.3471 31.6569C32.7869 31.0272 32.1864 30.0967 31.6196 29.5403L31.7493 29.4539C32.1854 29.6963 32.8828 29.7978 33.3687 29.9717C33.7897 30.1221 34.1948 30.3834 34.6215 30.5328C34.7785 30.5262 34.4476 30.076 34.427 30.0582L34.426 30.0591Z" fill="#F3828A"/>
<path d="M37.3634 27.5977C37.4593 27.9238 37.5439 28.2518 37.5796 28.5911C37.6378 29.1428 37.6792 29.7076 37.4715 30.2321C37.417 30.2528 36.698 29.5112 36.6294 29.4116C36.2694 28.89 36.4959 29.0112 36.4997 28.483C36.5034 27.9548 36.4781 27.405 36.4565 26.8637C36.4395 26.4445 36.4151 26.0291 36.3916 25.6108C36.8117 26.2227 37.1548 26.8843 37.3634 27.5977Z" fill="#F7A7A9"/>
<path d="M34.9438 28.03C34.956 28.0338 35.1064 28.1306 35.16 28.1597C35.4466 28.3167 35.6938 28.5507 35.9372 28.764C35.5575 29.1635 35.0876 29.7358 35.0303 30.2753C34.9711 30.3862 34.9777 30.6231 34.8141 30.6212C34.7756 30.3966 34.5876 30.2011 34.4683 30.0169C34.5707 29.9041 34.582 28.3026 34.5547 28.03C34.6233 27.9934 34.6318 27.936 34.7493 27.9435C34.7596 27.9435 34.8837 28.0093 34.9438 28.03Z" fill="#FCD9DE"/>
<path d="M35.6357 34.8101C35.3397 34.9436 35.0042 35.0902 34.6856 35.156C34.2438 35.2471 33.7147 35.2556 33.2607 35.2424C33.3312 35.1428 33.5455 35.2312 33.6282 35.1992C34.0211 35.0441 34.1771 33.6926 34.2542 33.2988L35.6357 34.8101Z" fill="#C1425D"/>
<path d="M37.6651 28.5911C37.6303 28.7424 37.7243 29.3899 37.7083 29.6493C37.6998 29.7819 37.5109 30.1287 37.7083 30.1888C37.6811 30.2367 37.6472 30.2696 37.6218 30.3185C37.5241 30.5112 37.4762 30.7198 37.4057 30.9228C37.3643 31.0422 37.3953 31.2123 37.2327 31.2687C37.1679 30.6475 36.7685 30.0149 36.6284 29.4116C36.697 29.5112 37.416 30.2537 37.4705 30.232C37.6782 29.7067 37.6369 29.1428 37.5786 28.5911H37.6651Z" fill="#A71E2D"/>
<path d="M34.2967 32.6079C34.2657 32.7601 34.2845 32.9735 34.2535 33.1257C33.8512 32.7893 33.5439 32.3635 33.2168 31.9594L33.3465 31.6567C33.636 31.9819 33.9715 32.3146 34.2967 32.6069V32.6079Z" fill="#F9C5DB"/>
<path d="M37.7083 31.5713C37.5561 32.0356 37.3023 32.3693 37.104 32.7809C37.1858 32.2866 37.2863 31.7743 37.2337 31.2697C37.3963 31.2133 37.3653 31.0431 37.4066 30.9238C37.8502 30.8683 37.2713 31.6306 37.7093 31.5713H37.7083Z" fill="#852144"/>
<path d="M35.0303 30.2752C35.0876 29.7357 35.5575 29.1634 35.9372 28.7639C36.0331 28.8485 36.1525 28.9058 36.2399 29.0017C36.1224 29.0384 36.0556 28.9049 35.9156 28.9368C35.7916 28.965 35.1308 30.0863 35.0303 30.2761V30.2752Z" fill="#FBC6B5"/>
<path d="M39.7384 26.8203C39.5626 27.2555 39.3408 27.6793 39.1773 28.1164C38.7111 28.731 38.0786 29.5243 37.7093 30.1897C37.5119 30.1286 37.7008 29.7827 37.7093 29.6502C37.7252 29.3908 37.6313 28.7432 37.666 28.5919C37.7252 28.3353 39.3164 26.856 39.7393 26.8213L39.7384 26.8203Z" fill="#F389A6"/>
<path d="M39.177 28.1155C38.9778 28.6465 38.4693 30.5581 38.162 30.8796C38.1498 30.8927 37.8847 30.9519 37.8377 31.0525C37.818 30.8429 37.63 30.5497 37.6216 30.3185C37.647 30.2696 37.6808 30.2367 37.708 30.1888C38.0774 29.5243 38.7109 28.7301 39.1761 28.1155H39.177Z" fill="#E495C0"/>
<path d="M37.8376 31.0524C37.8649 31.3513 37.7765 31.3607 37.7079 31.5702C37.2699 31.6294 37.8489 30.8663 37.4053 30.9227C37.4748 30.7197 37.5237 30.511 37.6214 30.3184C37.6299 30.5505 37.8179 30.8428 37.8376 31.0524Z" fill="#B63363"/>
<path d="M29.3727 42.4979C29.3464 42.6116 29.6997 42.6361 29.805 42.5844C30.321 42.6812 30.8464 42.8156 31.3595 42.9302C31.4761 43.0928 31.6734 43.2705 31.7918 43.4481C32.0738 43.872 32.3623 44.3428 32.6123 44.7874C32.8886 45.2789 33.1612 45.8062 33.3464 46.3419C32.867 45.3212 32.6819 45.0985 31.6405 44.7009C31.0475 44.4744 30.4009 44.3616 29.805 44.1398C29.2693 43.6473 28.649 42.9763 28.2505 42.3691C28.6133 42.3936 29.0155 42.434 29.3736 42.4988L29.3727 42.4979Z" fill="#99C257"/>
<path d="M28.9845 39.6907C29.4018 40.2395 29.8275 40.7893 30.1941 41.3749C30.1001 41.31 30.0907 41.3777 30.086 41.3749C30.0418 41.3532 30.086 41.2583 30.0428 41.2452C30.0305 41.2414 29.8379 41.3006 29.7834 41.2884C28.9751 41.1004 28.1292 40.982 27.3868 40.5976C27.2486 40.1305 26.9309 37.6737 27.1274 37.3589C27.7862 38.0967 28.3858 38.904 28.9845 39.6907Z" fill="#CEE184"/>
<path d="M29.2437 37.8335C29.9712 38.1116 30.4467 38.3616 31.0144 38.9133L30.7118 41.8287C30.6385 41.8203 30.5576 41.7272 30.4956 41.6774C30.365 41.5722 30.3142 41.4585 30.193 41.3748C29.8264 40.7893 29.4007 40.2395 28.9834 39.6906C29.0943 39.6643 29.0999 39.7686 29.1563 39.669C29.2071 39.5806 29.1629 38.2554 29.1563 38.028C29.1545 37.9519 29.1169 37.8137 29.2428 37.8335H29.2437Z" fill="#839649"/>
<path d="M32.223 40.5975C32.1582 40.5957 32.1882 40.6511 32.1798 40.684C31.9467 41.591 31.8537 42.5148 31.7907 43.4481C31.6723 43.2705 31.4749 43.0928 31.3584 42.9302C31.0642 42.5195 30.7756 42.0975 30.4946 41.6774C30.5567 41.7272 30.6375 41.8203 30.7108 41.8287L31.0134 38.9133C31.5162 39.4021 31.8856 39.9895 32.223 40.5975Z" fill="#53662D"/>
<path d="M30.194 41.3749C30.3153 41.4586 30.366 41.5723 30.4967 41.6775C30.7777 42.0977 31.0662 42.5196 31.3604 42.9304C30.8472 42.8157 30.3219 42.6813 29.8059 42.5845C29.6649 42.5582 29.5155 42.5234 29.3736 42.498C29.0155 42.4332 28.6132 42.3928 28.2504 42.3683C27.9347 41.8871 27.5493 41.1475 27.3867 40.5977C28.1292 40.9821 28.9751 41.1005 29.7833 41.2884C29.8378 41.3007 30.0296 41.2415 30.0427 41.2452C30.086 41.2584 30.0418 41.3533 30.086 41.3749C30.0907 41.3777 30.1001 41.3101 30.194 41.3749Z" fill="#B3D450"/>
<path d="M33.3465 46.342C33.6209 46.9265 33.8268 47.5581 33.9076 48.1991H33.9508C33.9508 48.2564 33.948 48.3147 33.9508 48.372C33.8878 48.5844 33.9066 48.7019 33.6482 48.7611C33.1472 46.014 31.6247 45.8128 29.8042 44.1399C30.4001 44.3626 31.0467 44.4745 31.6397 44.701C32.6811 45.0985 32.8672 45.3213 33.3456 46.342H33.3465Z" fill="#50834D"/>
<path d="M33.7784 45.0028C33.8001 45.1532 33.8057 45.2857 33.8217 45.4351C33.9166 46.3458 33.9166 47.2857 33.9081 48.1992C33.8264 47.5582 33.6215 46.9266 33.3471 46.3421C33.1619 45.8054 32.8893 45.2791 32.613 44.7876C32.6995 44.3167 32.7596 43.8947 32.8292 43.4266C32.9617 42.5366 33.1215 42.6766 32.7427 41.7424C32.6083 41.4097 32.333 41.0244 32.1816 40.6842C32.1901 40.6513 32.16 40.5958 32.2249 40.5977C32.863 41.75 33.5933 43.7067 33.7794 45.0028H33.7784Z" fill="#3E4F24"/>
<path d="M29.2439 37.8336C29.118 37.8129 29.1555 37.952 29.1574 38.0281C29.164 38.2555 29.2082 39.5807 29.1574 39.6691C29.101 39.7687 29.0954 39.6644 28.9845 39.6907C28.3858 38.9031 27.7862 38.0967 27.1273 37.3589C27.1358 37.3448 27.1095 37.2875 27.149 37.2725C27.8586 37.3824 28.5672 37.5751 29.2439 37.8336Z" fill="#9EB14A"/>
<path d="M32.6125 44.7865C32.3625 44.3429 32.0739 43.872 31.792 43.4472C31.855 42.5139 31.948 41.5901 32.1811 40.6831C32.3333 41.0224 32.6078 41.4087 32.7422 41.7414C33.1209 42.6756 32.9602 42.5356 32.8286 43.4256C32.7591 43.8927 32.6989 44.3147 32.6125 44.7865Z" fill="#3E4F24"/>
<path d="M29.8052 42.5845C29.7009 42.6362 29.3475 42.6118 29.3729 42.498C29.5139 42.5234 29.6633 42.5582 29.8052 42.5845Z" fill="#CEE184"/>
<path d="M35.8075 39.9934C35.7464 40.0836 35.7126 40.1992 35.6778 40.2528C35.1045 41.1325 34.5763 42.0028 34.2097 42.9953C34.5528 45.3205 34.8319 47.7895 34.8141 50.1428C34.8084 50.8383 34.7267 51.5235 34.6844 52.2162V52.2594C34.4729 52.2631 34.2765 52.2162 34.252 52.2162V52.1729L34.6411 52.1513C34.5772 51.8553 34.6919 51.5789 34.6844 51.2876C34.6627 50.4906 34.2953 49.6428 34.08 48.8477C34.08 48.8299 34.1186 48.6945 34.1233 48.5451C34.1449 47.8477 34.2671 47.4323 34.3394 46.8393C34.4456 45.9605 34.0406 44.1447 33.9936 43.2115C33.9861 43.0677 33.9109 42.6344 34.1665 42.7152L35.8075 39.9943V39.9934Z" fill="#285433"/>
<path d="M34.1235 48.544C34.1188 48.6935 34.0803 48.8288 34.0803 48.8467C34.085 49.9378 34.3698 51.0534 34.2532 52.1718V52.2151C34.2391 52.2151 34.2241 52.2151 34.21 52.2151L34.1667 50.8542L33.9073 51.1352C33.8491 50.3363 33.7917 49.5487 33.6479 48.7602C33.9064 48.7019 33.8876 48.5835 33.9506 48.3711C33.96 48.5403 34.0023 48.8579 34.1235 48.544Z" fill="#839649"/>
<path d="M34.2099 52.2152C34.2033 52.2152 34.2653 52.3016 34.1018 52.3016C34.0792 52.3016 34.0003 52.2152 33.9937 52.2152C33.9307 51.8627 33.9335 51.4924 33.9072 51.1353L34.1666 50.8542L34.2099 52.2152Z" fill="#687E3C"/>
<path d="M32.3528 35.3289C32.8829 36.9811 33.4121 38.6381 33.7777 40.3392C33.8199 41.0018 33.9243 41.936 34.1235 42.5854C34.1376 42.6324 34.1837 42.654 34.1668 42.7151C33.9121 42.6352 33.9872 43.0685 33.9938 43.2114C34.0408 44.1456 34.4459 45.9604 34.3397 46.8392C34.2683 47.4322 34.1451 47.8477 34.1235 48.545C34.0023 48.8589 33.9609 48.5413 33.9506 48.3721C33.9478 48.3157 33.9506 48.2565 33.9506 48.1992C33.9468 47.4604 33.9901 46.717 33.9506 45.9745C33.9449 45.8768 33.9299 45.4736 33.8209 45.4351C33.8049 45.2866 33.7993 45.154 33.7777 45.0027C33.7438 43.0272 33.4393 40.967 33.0004 39.0431L33.2166 38.9783L32.2231 35.3721C32.2344 35.3693 32.2918 35.343 32.3528 35.3289Z" fill="#839649"/>
<path d="M32.223 35.3721L33.2164 38.9783L33.0003 39.0431C32.723 37.827 32.3085 36.6268 32.0068 35.4153C32.0426 35.4115 32.1788 35.3824 32.223 35.3721Z" fill="#BAC134"/>
<path d="M34.253 52.1719C34.3696 51.0534 34.0848 49.9378 34.0801 48.8467C34.2953 49.6418 34.6637 50.4895 34.6844 51.2865C34.6919 51.5779 34.5773 51.8542 34.6412 52.1503L34.2521 52.1719H34.253Z" fill="#1B3527"/>
<path d="M33.9505 48.1992H33.9073C33.9157 47.2856 33.9157 46.3458 33.8208 45.4351C33.9289 45.4736 33.9449 45.8768 33.9505 45.9745C33.99 46.717 33.9467 47.4595 33.9505 48.1992Z" fill="#99C257"/>
<path d="M34.0367 41.8071C34.079 42.0421 34.2153 42.3663 34.1232 42.5844C33.924 41.9349 33.8196 41.0007 33.7773 40.3381C33.8817 40.824 33.9493 41.3175 34.0367 41.8062V41.8071Z" fill="#3A5E2D"/>
<path d="M35.7222 49.5376C35.648 50.4436 35.5511 51.3477 35.5493 52.2585C35.2542 52.2782 34.9731 52.2538 34.6855 52.2585V52.2152C35.0483 52.4446 35.0399 51.4295 35.0746 51.1786C35.2598 50.9897 35.3143 51.0526 35.4637 51.2434C35.2551 50.9173 35.4919 50.5677 35.5502 50.2068C35.5765 50.0423 35.4299 49.5968 35.7231 49.5376H35.7222Z" fill="#839649"/>
<path d="M38.1405 43.7068C38.0549 44.0142 37.4102 44.6044 37.2335 44.8948C36.8566 45.5123 36.4469 46.2848 36.1536 46.9465C36.023 46.8976 36.0606 46.6852 36.0672 46.579C36.1038 45.9559 36.21 45.2867 36.3266 44.7002C36.6019 43.3074 37.0596 41.9361 37.7946 40.7266C37.9619 41.4916 38.3482 42.9634 38.1405 43.7068Z" fill="#50834D"/>
<path d="M39.177 39.1719C39.2935 40.1409 39.2926 41.1785 39.3283 42.1089C39.3687 42.1042 39.3415 41.9849 39.3499 41.9792C39.4129 41.9379 39.5727 41.8683 39.6526 41.8495C39.2371 42.3956 38.755 43.0525 38.2277 43.4689L38.3142 43.5121L38.1413 43.7067C38.349 42.9642 37.9627 41.4914 37.7954 40.7264C38.1685 40.1127 38.5379 39.5976 39.0915 39.1287L39.1779 39.1719H39.177Z" fill="#687E3C"/>
<path d="M41.9842 42.4548C41.691 42.9539 41.4119 43.2875 41.0341 43.7077C40.3254 43.859 38.4288 43.9107 37.8809 44.2687C38.2765 43.6541 38.7577 43.1043 39.2201 42.5413L41.9842 42.4548Z" fill="#53662D"/>
<path d="M42.805 40.5544C42.1462 40.9755 41.273 40.9755 40.5588 41.202L40.2129 41.2236C40.446 41.0074 40.587 40.7161 40.774 40.468C40.8276 40.3975 40.8896 40.327 40.9469 40.2518C41.5982 39.3975 42.2721 38.5507 42.9338 37.7039C43.0221 38.3956 42.9554 39.8693 42.8041 40.5544H42.805Z" fill="#9EB14A"/>
<path d="M41.0342 43.7068C40.6874 44.0921 40.085 44.7444 39.6526 45.0028C38.8049 45.5075 37.4421 45.4107 36.6724 46.2557L37.3632 44.938C37.5502 44.7867 37.6921 44.3929 37.881 44.2688C38.4289 43.9107 40.3246 43.859 41.0342 43.7077V43.7068Z" fill="#53662D"/>
<path d="M39.6517 45.0029C39.0888 45.6411 38.2758 45.9944 37.6433 46.5574C36.695 47.4014 36.2382 48.3234 35.9374 49.5593L35.5483 52.2585C35.5502 51.3478 35.647 50.4437 35.7213 49.5377C35.7683 48.9597 35.8425 48.3864 35.8942 47.8102C35.9769 47.7491 35.9938 47.6401 36.0239 47.5508C36.1705 47.1091 36.3491 46.6091 36.6715 46.2548C37.4403 45.4098 38.804 45.5067 39.6517 45.002V45.0029Z" fill="#3E4F24"/>
<path d="M42.8048 40.5544C42.6704 41.1653 42.2916 41.9304 41.9843 42.4548L39.2202 42.5413C39.6676 41.9971 39.8809 41.4172 40.5595 41.202C41.2738 40.9755 42.1469 40.9755 42.8057 40.5544H42.8048Z" fill="#839649"/>
<path d="M40.775 38.2217C40.7825 38.4707 40.7167 38.7113 40.6885 38.9557C40.4912 40.6653 40.6848 40.4914 39.6519 41.8495C39.572 41.8683 39.4122 41.9378 39.3492 41.9792L39.1763 39.1719L39.0898 39.1286C39.7289 38.5863 40.0259 38.5083 40.7741 38.2217H40.775Z" fill="#8FAB5E"/>
<path d="M42.8051 37.6174L40.9479 40.2518C40.8906 40.327 40.8286 40.3975 40.775 40.468L40.6021 40.4896L40.6885 38.9567C40.7167 38.7124 40.7825 38.4718 40.775 38.2227C41.3614 37.9981 42.1603 37.6635 42.8051 37.6184V37.6174Z" fill="#9EB14A"/>
<path d="M42.9346 37.7039C42.2729 38.5507 41.6 39.3985 40.9478 40.2518L42.8049 37.6174C42.8105 37.6174 42.8021 37.546 42.913 37.5742C42.9872 37.6231 42.9337 37.6973 42.9346 37.7039Z" fill="#BCCC82"/>
<path d="M40.7746 40.4681C40.5876 40.7162 40.4457 41.0075 40.2136 41.2237L40.5594 41.2021C39.8808 41.4173 39.6675 41.9963 39.2201 42.5414C38.7728 43.0865 38.2765 43.6542 37.8808 44.2688C37.691 44.3929 37.55 44.7876 37.363 44.938L36.6722 46.2557C36.3498 46.61 36.1713 47.109 36.0246 47.5517C35.9025 47.344 36.0839 47.1062 36.1543 46.9474C36.4476 46.2857 36.8564 45.5132 37.2342 44.8957C37.4109 44.6062 38.0557 44.0151 38.1412 43.7077L38.3141 43.5132L38.2276 43.4699C38.7558 43.0527 39.238 42.3966 39.6525 41.8506C40.6854 40.4925 40.4908 40.6664 40.6891 38.9568L40.6026 40.4897L40.7756 40.4681H40.7746Z" fill="#BCCC82"/>
<path d="M39.3502 41.9792C39.3417 41.9848 39.369 42.1042 39.3286 42.1089C39.2928 41.1785 39.2938 40.1418 39.1772 39.1719L39.3502 41.9792Z" fill="#99C257"/>
<path d="M32.1365 27.7273C32.2164 28.06 32.9504 28.5421 33.1083 28.8936C33.2427 28.6841 33.3499 28.4604 33.4758 28.2461H33.5191C33.3912 28.4754 33.301 28.825 33.0867 28.9801C33.0595 28.9247 32.2568 28.1446 32.2014 28.1164C32.0942 28.0628 32.1384 28.1314 32.0501 28.1596C32.0707 28.0562 32.1036 27.9002 32.0068 27.8138L32.1365 27.7273Z" fill="#F5856E"/>
<path d="M31.3593 33.6013C31.6196 34.1285 32.3894 34.6295 32.7409 35.1126C32.7183 35.1135 32.5961 35.1793 32.5247 35.199L31.4664 34.5082C31.1112 34.2564 30.8114 33.8203 30.4946 33.558L30.7108 33.1689C30.7926 33.2601 31.0256 33.4847 31.1215 33.558C31.1854 33.6069 31.2973 33.7272 31.3593 33.6013Z" fill="#962436"/>
<path d="M28.855 31.7441C29.199 31.8738 29.3334 32.1398 29.6322 32.3052L30.2366 33.2986C29.995 33.0984 29.6755 32.8842 29.4161 32.6943C29.0326 32.4133 27.6181 31.4227 27.2131 31.3983L27.105 31.2686C27.6163 31.3108 28.0608 31.5674 28.5298 31.7432C28.6492 31.7883 28.839 31.7375 28.854 31.7432L28.855 31.7441Z" fill="#F9C5DB"/>
<path d="M30.0209 32.1324C30.2221 32.4821 30.442 32.8674 30.7117 33.1691L30.4956 33.5582C30.3903 33.4708 30.3198 33.3684 30.2362 33.2988L29.6318 32.3054C29.7427 32.3806 29.8715 32.0234 30.0209 32.1324Z" fill="#C94F5B"/>
<path d="M36.3268 39.5609C36.3935 40.6558 36.3747 41.7489 36.3268 42.8429C36.2582 42.8861 36.2544 43.0102 36.2403 42.8212C36.2253 42.6192 36.3456 42.0186 36.1106 41.9791C36.1247 41.7921 36.1426 41.6051 36.1538 41.4181C36.1896 40.8353 36.2704 40.1521 36.0674 39.6041C36.1463 39.5036 36.2131 39.3917 36.3052 39.3015C36.3475 39.3344 36.323 39.4989 36.3268 39.5609Z" fill="#719352"/>
<path d="M34.3398 41.2451C34.5654 40.7799 35.0175 39.902 35.3765 39.5609C35.3906 39.5477 35.587 39.3081 35.5927 39.4528C35.1152 39.9829 34.9132 40.8757 34.3398 41.2451Z" fill="#BCCC82"/>
<path d="M38.7016 48.8467L38.3558 51.0929C38.3558 51.0929 38.3172 51.1606 38.3125 51.1794C38.0926 51.1822 36.5973 52.0779 36.1528 52.216C35.8868 52.2987 35.9488 52.2405 35.7637 52.2593C36.7233 51.1108 37.5654 49.8373 38.7007 48.8476L38.7016 48.8467Z" fill="#60C9F3"/>
<path d="M38.3136 51.1785C38.5598 51.1757 38.885 51.4313 39.1773 51.4379L39.7384 51.6324C39.5551 51.733 39.3305 51.7048 39.1341 51.7405C38.3935 51.873 37.6369 51.9962 36.9311 52.2584C36.6829 52.2584 36.3888 52.2941 36.1538 52.2151C36.5984 52.077 38.0937 51.1813 38.3136 51.1785Z" fill="#255C7D"/>
<path d="M39.1341 51.7405C39.1905 51.8862 38.8569 51.8617 39.2206 51.935C39.0721 52.1183 38.9969 51.9106 38.9828 51.9134C38.9706 51.9153 38.9311 52.108 38.7666 52.0431C38.7836 51.7207 38.6106 52.0826 38.5937 52.0863C38.5665 52.0929 38.5937 51.9811 38.5072 51.9999C38.4715 52.0074 38.4997 52.0788 38.464 52.0863C38.4151 52.0957 38.2413 51.982 38.1181 52.0863L38.2695 52.216L38.2262 52.3025C37.8014 52.3025 37.3587 52.2602 36.9302 52.2593C37.636 51.9961 38.3916 51.8739 39.1332 51.7414L39.1341 51.7405Z" fill="#7FD2EF"/>
<path d="M42.5023 50.5309C42.2232 50.8777 42.0653 51.0647 41.6819 51.3081C41.3238 51.4641 41.0287 51.5177 40.6452 51.5675C40.5672 51.5779 40.507 51.607 40.4723 51.6107C40.3153 51.3307 39.8839 51.5976 39.6302 51.5243C39.6048 51.5168 39.2749 51.0609 39.3708 51.481C39.3228 51.4143 39.2467 51.4397 39.1762 51.4378C38.883 51.4322 38.5587 51.1756 38.3125 51.1784C38.3172 51.1596 38.352 51.0948 38.3557 51.0919C38.5493 50.9341 39.2843 50.6042 39.5653 50.4444C39.7561 50.3354 39.9375 50.2104 40.1264 50.0985C40.2993 49.9961 40.4723 49.9012 40.6443 49.7959C41.1678 50.2489 41.8501 50.3344 42.5014 50.5299L42.5023 50.5309Z" fill="#255C7D"/>
<path d="M42.5022 50.5309C41.8518 50.3354 41.1685 50.2489 40.645 49.7968C41.6074 49.2132 42.5642 48.6342 43.4523 47.9397C43.3913 48.9209 43.1187 49.7639 42.5022 50.5309Z" fill="#3F7FB2"/>
<path d="M41.5953 47.5074C41.382 48.4886 40.7316 49.3195 40.1273 50.0986C39.9384 50.2104 39.757 50.3354 39.5662 50.4445C39.5568 50.1503 39.7749 49.9238 39.8256 49.6456C39.9205 49.1202 39.8378 48.4764 39.8688 47.9398C40.6264 47.5112 40.6856 47.4463 41.5963 47.5074H41.5953Z" fill="#60C9F3"/>
<path d="M39.8682 47.9397C39.8372 48.4763 39.9199 49.1201 39.8249 49.6455C39.7751 49.9237 39.5561 50.1502 39.5655 50.4444C39.2855 50.6051 38.5496 50.935 38.356 51.0919L38.7018 48.8457C38.7742 48.7827 38.8475 48.6906 38.918 48.6295C38.9321 48.6173 39.0317 48.6605 39.0045 48.543C39.3409 48.2874 39.4932 48.1502 39.8682 47.9387V47.9397Z" fill="#7FD2EF"/>
<path d="M43.4526 47.9397C42.5645 48.6342 41.6077 49.2132 40.6453 49.7968C40.4724 49.9021 40.3004 49.997 40.1274 50.0995C40.7318 49.3203 41.3831 48.4895 41.5955 47.5083C42.2534 47.5525 42.837 47.7085 43.4526 47.9406V47.9397Z" fill="#58A3D9"/>
<path d="M41.6821 51.3082C40.6812 51.9454 39.4067 51.9679 38.2705 52.2151L38.1191 52.0854C38.2413 51.9811 38.4161 52.0948 38.465 52.0854C38.5007 52.0788 38.4725 52.0065 38.5082 51.9989C38.5947 51.9801 38.5674 52.092 38.5947 52.0854C38.6116 52.0816 38.7836 51.7198 38.7676 52.0422C38.9321 52.107 38.9716 51.9153 38.9838 51.9125C38.9979 51.9097 39.0731 52.1174 39.2216 51.9341C38.8579 51.8608 39.1915 51.8852 39.1351 51.7395C39.3325 51.7038 39.5562 51.732 39.7394 51.6315L39.1784 51.4369C39.2488 51.4388 39.325 51.4134 39.3729 51.4801C39.277 51.06 39.606 51.5159 39.6323 51.5234C39.8861 51.5967 40.3174 51.3298 40.4744 51.6098C40.3419 51.623 40.231 51.545 40.1718 51.6315C40.1943 51.6559 40.6737 51.7969 40.6464 51.5666C41.0299 51.5177 41.325 51.4642 41.6831 51.3072L41.6821 51.3082Z" fill="#3F7FB2"/>
<path d="M40.4721 51.6109C40.5069 51.6071 40.567 51.578 40.645 51.5676C40.6714 51.7979 40.192 51.6569 40.1704 51.6325C40.2296 51.546 40.3396 51.624 40.473 51.6109H40.4721Z" fill="#58A3D9"/>
<path d="M31.3592 50.6174C32.2436 51.1033 33.0368 51.5864 33.7775 52.2584C33.1365 52.248 32.4748 52.296 31.8338 52.2584C30.8752 52.202 30.1355 52.1672 29.2427 51.7837L30.5387 50.4228V50.1851C30.8263 50.3232 31.081 50.4642 31.3592 50.6174Z" fill="#3F7FB2"/>
<path d="M33.9081 52.2151C33.864 52.2151 33.8818 52.2602 33.7784 52.2583C33.0378 51.5863 32.2437 51.1023 31.3602 50.6173L30.1938 47.9829C31.5942 48.4679 31.9739 49.7235 32.7418 50.8119C33.082 51.294 33.5322 51.7583 33.9081 52.2151Z" fill="#439CB7"/>
<path d="M30.1942 47.9829L31.3605 50.6173C31.0823 50.465 30.8276 50.324 30.54 50.185C30.1265 49.9857 29.7167 49.7902 29.2872 49.6239C29.306 49.4735 29.2252 49.3748 29.1575 49.2564C29.0353 49.044 28.4498 48.1953 28.2938 48.0036C28.2177 47.9105 28.1594 47.9133 28.0776 47.8522C28.8239 47.7291 29.4752 47.7329 30.1942 47.9819V47.9829Z" fill="#5AB8D7"/>
<path d="M26.3501 48.6737C26.4544 48.7714 27.4976 49.0318 27.7316 49.106C28.257 49.2705 28.773 49.4237 29.2861 49.6239C29.2457 49.9368 28.2504 50.6483 28.0766 50.9632C27.3519 50.2827 26.8012 49.4632 26.2194 48.653C26.1969 48.5835 26.2871 48.5656 26.3059 48.5449C26.2965 48.6201 26.2974 48.6257 26.3491 48.6746L26.3501 48.6737Z" fill="#439CB7"/>
<path d="M30.5391 50.1849V50.4227L29.243 51.7836C28.6302 51.5204 28.5372 51.3954 28.0767 50.9631C28.2505 50.6492 29.2458 49.9377 29.2862 49.6238C29.7148 49.7911 30.1246 49.9856 30.5391 50.1849Z" fill="#3F7FB2"/>
<path d="M28.0775 47.8533C28.1593 47.9144 28.2176 47.9115 28.2937 48.0046C28.4497 48.1963 29.0352 49.0441 29.1574 49.2574C29.2251 49.3749 29.3059 49.4745 29.2871 49.6249C28.773 49.4247 28.258 49.2706 27.7326 49.107L26.351 48.6747C26.2993 48.6268 26.2984 48.6202 26.3078 48.545C26.5606 48.2715 27.6903 47.9181 28.0785 47.8542L28.0775 47.8533Z" fill="#76CDD6"/>
<path d="M27.7317 49.1059C27.4967 49.0326 26.4535 48.7713 26.3501 48.6736L27.7317 49.1059Z" fill="#7FD2EF"/>
<path d="M42.0273 23.4951L40.0405 25.1361C40.0405 25.122 40.0405 25.107 40.0405 25.0929C40.0452 24.7517 40.0565 24.3974 40.0405 24.0562C39.9747 23.7367 40.4399 23.8899 40.6016 23.5816C40.7388 23.7799 40.8836 24.0121 41.0762 24.1643L41.3789 21.3786C41.3854 21.3758 41.4437 21.2282 41.5086 21.3137C41.6176 22.0186 41.9531 22.7931 42.0264 23.4951H42.0273Z" fill="#C1425D"/>
<path d="M39.911 22.8899C39.911 23.1785 39.9073 23.4755 39.9975 23.7536C40.0031 23.8533 40.037 23.9717 40.0407 24.0563C40.0567 24.3974 40.0454 24.7508 40.0407 25.0929C39.9045 25.186 39.6554 25.3223 39.4796 25.2659C38.5388 24.1794 38.9637 23.2067 39.9543 22.3721C39.8932 22.5412 39.911 22.7151 39.911 22.8899Z" fill="#7774AC"/>
<path d="M39.9977 25.7404C40.0014 25.7273 39.9939 25.7103 39.9977 25.6972C40.086 25.3682 40.0324 25.4415 40.0409 25.1361L42.0277 23.4951C42.0437 23.6464 42.0794 23.8955 42.071 24.0346C42.0099 25.0637 41.0155 25.9876 39.9977 25.7404Z" fill="#4C3665"/>
<path d="M41.3792 21.3787L41.0765 24.1644C40.8839 24.0121 40.7391 23.78 40.6019 23.5817C40.445 23.3552 40.2965 22.6569 39.9544 23.107C39.9487 23.0422 39.9882 22.9144 39.9111 22.8909C39.9111 22.7151 39.8933 22.5422 39.9544 22.373C40.2044 22.1625 41.116 21.4952 41.3792 21.3796V21.3787Z" fill="#F3828A"/>
<path d="M39.9976 25.6973C39.9938 25.7105 40.0013 25.7274 39.9976 25.7405C39.9196 26.0037 39.7391 26.2387 39.6949 26.5178C39.5784 26.5159 39.5342 26.4003 39.4355 26.3449C39.6094 26.1654 39.7335 25.8646 39.7814 25.6108C39.8068 25.6287 39.9506 25.6484 39.9976 25.6973Z" fill="#31422C"/>
<path d="M40.0405 25.1362C40.0321 25.4426 40.0857 25.3684 39.9973 25.6973C39.9503 25.6484 39.8075 25.6296 39.7811 25.6108C39.7595 25.5958 39.658 25.483 39.6082 25.4379C39.5058 25.3458 39.5114 25.3026 39.4785 25.265C39.6552 25.3214 39.9033 25.1851 40.0396 25.092C40.0396 25.1061 40.0396 25.1212 40.0396 25.1353L40.0405 25.1362Z" fill="#43608C"/>
<path d="M39.7815 25.6107C39.7335 25.8644 39.6095 26.1661 39.4356 26.3447C39.4083 26.3287 39.3801 26.3118 39.3491 26.3015L39.6085 25.4377C39.6583 25.4819 39.7598 25.5956 39.7815 25.6107Z" fill="#53662D"/>
<path d="M40.6017 23.5807C40.4391 23.8899 39.9748 23.7358 40.0406 24.0554C40.0368 23.9717 40.003 23.8523 39.9973 23.7527C39.9851 23.5337 39.9738 23.3232 39.9541 23.1052C40.2962 22.655 40.4456 23.3533 40.6017 23.5798V23.5807Z" fill="#C94F5B"/>
<path d="M39.9544 23.1061C39.9741 23.3241 39.9845 23.5346 39.9976 23.7536C39.9074 23.4754 39.9112 23.1784 39.9112 22.8899C39.9882 22.9134 39.9487 23.0412 39.9544 23.1061Z" fill="#D591A6"/>
<path d="M30.9714 32.046C30.9667 32.1381 30.9282 32.6419 30.8633 32.6503C30.5832 32.3524 30.2298 32.1062 30.0212 31.7434C29.6453 31.0893 29.5757 29.9915 29.5466 29.2387C29.5315 28.8703 29.4902 27.7293 29.633 27.468C29.7909 29.0752 30.3981 30.5601 30.9723 32.046H30.9714Z" fill="#FAC1C0"/>
<path d="M30.0213 31.7443C30.2299 32.1071 30.5833 32.3534 30.8634 32.6513C30.9283 32.6419 30.9668 32.1391 30.9715 32.047C30.9734 32.0056 30.9555 31.9596 31.0147 31.9605C31.0335 32.375 31.1792 33.234 31.3606 33.6015C31.2986 33.7284 31.1867 33.6071 31.1228 33.5583C31.0279 33.485 30.7939 33.2603 30.7121 33.1692C30.4424 32.8675 30.2224 32.4821 30.0213 32.1325C29.9771 32.0564 29.9536 31.9004 29.8916 31.7866L30.0213 31.7434V31.7443Z" fill="#A71E2D"/>
<path d="M29.9777 27.2517C30.285 27.388 30.5153 27.3109 30.7765 27.3814C30.9156 27.419 31.9589 27.7705 32.0077 27.8137C32.1045 27.9002 32.0716 28.0553 32.051 28.1596C32.0106 28.3617 31.598 29.2545 31.6186 29.3692C31.5951 29.5055 31.7107 29.435 31.7483 29.4557L31.6186 29.5421C31.5707 29.4951 31.519 29.4152 31.5106 29.4124C31.3799 29.3645 31.4119 29.4876 31.4025 29.4989C31.3414 29.5722 31.3461 29.6361 31.316 29.7151L31.0998 30.0393L29.7183 27.3833C29.7888 27.3166 29.879 27.2639 29.9777 27.2536V27.2517Z" fill="#F16574"/>
<path d="M35.5922 21.4219C35.4822 21.716 35.2567 21.9181 35.0744 22.1559C34.9916 22.0064 34.9174 21.841 34.8582 21.6813C34.6702 21.17 34.5198 20.6408 34.3403 20.1267C34.3544 20.091 34.3582 19.9689 34.3836 19.9106C34.4409 19.779 34.4729 19.6296 34.5781 19.5215C35.0236 20.0487 35.4165 20.7433 35.5932 21.4219H35.5922Z" fill="#D54D76"/>
<path d="M34.6422 23.5807C34.4984 23.6192 34.4401 23.5985 34.2963 23.5807C34.332 23.217 33.957 22.8918 33.9072 22.5008C34.0069 22.6502 34.1723 23.0215 34.2747 23.0186C34.6412 22.8241 34.8339 22.4679 35.0736 22.1549C35.2559 21.9162 35.4824 21.7151 35.5914 21.4209C35.8198 22.3015 35.6629 23.3081 34.6412 23.5807H34.6422Z" fill="#582C51"/>
<path d="M33.4326 21.7236C33.5595 21.982 33.7475 22.2602 33.9072 22.5008C33.9561 22.8918 34.3321 23.217 34.2963 23.5807C34.2493 23.5751 34.1309 23.5582 34.1234 23.6239C34.0924 23.5535 33.6789 23.342 33.5623 23.2132C33.0369 22.638 33.0858 22.014 33.3029 21.3345C33.2963 21.4858 33.3696 21.5958 33.4326 21.7236Z" fill="#7774AC"/>
<path d="M34.383 19.9097C34.3577 19.9679 34.3539 20.0901 34.3398 20.1258C34.1067 20.7029 33.8313 21.2725 33.7355 21.8965C33.7082 21.9003 33.7862 22.1672 33.4328 21.7236C33.3699 21.5967 33.2966 21.4867 33.3031 21.3345C33.5005 20.7179 33.8417 20.2762 34.383 19.9097Z" fill="#F389A6"/>
<path d="M34.2965 23.5806C34.4393 23.5985 34.4976 23.6192 34.6423 23.5806C34.6583 24.1398 34.5963 24.7075 34.5991 25.2648L34.4694 25.2216C34.4591 25.0882 34.3867 25.1502 34.3829 25.1135C34.3585 24.8908 34.4365 24.3034 34.1668 24.2714C34.1517 24.1521 34.1546 23.6944 34.1235 23.6239C34.1311 23.5581 34.2485 23.575 34.2965 23.5806Z" fill="#31422C"/>
<path d="M34.4691 25.2226C34.487 25.452 34.4654 25.9736 34.3827 26.1728C34.3808 26.17 34.3648 26.1879 34.3394 26.1296C34.2379 25.8965 34.2126 24.6409 34.1665 24.2725C34.4362 24.3044 34.3582 24.8918 34.3827 25.1146C34.3864 25.1512 34.4588 25.0892 34.4691 25.2226Z" fill="#AC8551"/>
<path d="M34.599 25.2659C34.599 25.3091 34.598 25.3524 34.599 25.3956C34.6056 25.6663 34.6826 25.9745 34.6422 26.2593C34.6291 26.2546 34.5041 26.3364 34.3828 26.1728C34.4655 25.9736 34.4871 25.452 34.4693 25.2227L34.599 25.2659Z" fill="#905538"/>
<path d="M34.8574 21.6812C34.9166 21.8409 34.9909 22.0063 35.0736 22.1558C34.8339 22.4687 34.6403 22.8249 34.2747 23.0195C34.1723 23.0223 34.0069 22.6501 33.9072 22.5016C33.7475 22.261 33.5595 21.9828 33.4326 21.7244C33.786 22.1671 33.708 21.9011 33.7352 21.8973C34.1225 21.84 34.4758 21.8193 34.8584 21.6812H34.8574Z" fill="#B63363"/>
<path d="M34.8575 21.6812C34.475 21.8194 34.1216 21.8391 33.7344 21.8974C33.8302 21.2733 34.1056 20.7038 34.3387 20.1267C34.5182 20.6408 34.6686 21.1699 34.8566 21.6812H34.8575Z" fill="#CF6688"/>
<path d="M29.3725 22.9764C29.2832 22.952 29.2907 23.0196 29.286 23.0196C29.1949 23.0149 28.9843 22.8429 28.9618 22.8467C28.7578 22.8815 28.7682 24.2236 28.6375 24.4444C28.5398 24.3805 28.4007 24.3204 28.2917 24.2715C28.2851 24.2612 28.2973 24.2405 28.2917 24.2283C28.2024 23.9087 28.1046 23.5939 28.0755 23.2565C28.0529 22.9952 28.2992 22.5817 27.9458 22.4576C27.9637 22.3589 27.9091 21.8664 28.0539 21.8533C28.4411 22.2471 28.9881 22.5976 29.3716 22.9764H29.3725Z" fill="#F79368"/>
<path d="M29.3729 22.9763C29.9885 23.5863 30.2573 24.4744 29.589 25.1793C29.5308 25.2413 29.4292 25.3278 29.3296 25.309C29.0354 24.7019 28.5007 24.6257 28.293 24.2724C28.402 24.3203 28.5411 24.3814 28.6388 24.4453C28.7093 24.4913 29.121 24.8513 29.1999 24.7695L29.2864 23.0205C29.2911 23.0205 29.2836 22.9528 29.3729 22.9772V22.9763Z" fill="#9F425B"/>
<path d="M28.2939 24.2292C28.2996 24.2414 28.2873 24.2621 28.2939 24.2724C28.5016 24.6258 29.0364 24.7019 29.3306 25.3091C29.3362 25.3203 29.3249 25.3401 29.3306 25.3523C28.9189 25.3307 28.7009 25.4716 28.2723 25.1794C27.7554 24.8269 27.8259 24.3861 27.8184 23.8833L28.293 24.2292H28.2939Z" fill="#A0577B"/>
<path d="M28.2937 24.2292L27.8191 23.8833C27.8106 23.2893 27.8454 23.0205 27.9488 22.4585C28.3022 22.5826 28.0559 22.9961 28.0785 23.2574C28.1076 23.5948 28.2054 23.9096 28.2947 24.2292H28.2937Z" fill="#F8A99A"/>
<path d="M30.1511 26.9068C30.1276 26.9162 30.0101 26.9764 29.9781 26.9933C29.7356 26.482 29.5683 25.8532 29.3306 25.3523C29.7855 25.3758 29.9979 26.5064 30.1511 26.9068Z" fill="#EAD439"/>
<path d="M29.2872 23.0197L29.2007 24.7687C29.1209 24.8505 28.7101 24.4905 28.6396 24.4445C28.7693 24.2236 28.7599 22.8806 28.9639 22.8467C28.9865 22.843 29.197 23.015 29.2881 23.0197H29.2872Z" fill="#F15C59"/>
<path d="M34.9441 28.0299C34.8839 28.0092 34.7608 27.9444 34.7495 27.9434C34.632 27.9359 34.6245 27.9933 34.555 28.0299C34.3679 28.1295 34.1067 28.5374 33.9074 28.7207C33.6828 28.9265 33.4112 29.107 33.195 29.325C33.0004 29.2931 33.164 29.1323 33.0869 28.9792C33.3003 28.8241 33.3905 28.4745 33.5192 28.2451C33.7147 27.8955 33.9384 27.5656 34.1884 27.2517L34.9441 28.029V28.0299Z" fill="#F2684E"/>
<path d="M29.7183 27.3813L31.0998 30.0374L31.316 29.7131C31.0839 30.3278 30.9842 31.2996 31.0134 31.9594C30.9542 31.9584 30.972 32.0045 30.9701 32.0458C30.3968 30.5599 29.7888 29.075 29.6309 27.4678C29.6976 27.3466 29.6826 27.4142 29.7173 27.3813H29.7183Z" fill="#F3828A"/>
<path d="M31.619 29.5413C32.1867 30.0977 32.7863 31.0282 33.3464 31.6579L33.2167 31.9605C32.5739 31.1673 31.9686 30.3487 31.4028 29.499C31.4122 29.4878 31.3803 29.3656 31.5109 29.4126C31.5184 29.4154 31.5711 29.4953 31.619 29.5423V29.5413Z" fill="#FCD9DE"/>
<path d="M34.4697 30.0159C34.4697 30.0159 34.4189 30.0103 34.4264 30.0592C34.3738 30.0122 33.2206 29.5206 33.1304 29.4981L33.9076 28.7208C34.1078 28.5375 34.3682 28.1297 34.5552 28.03C34.5824 28.3026 34.5712 29.9031 34.4687 30.0169L34.4697 30.0159Z" fill="#FAC1C0"/>
<path d="M33.1301 29.4981C33.2203 29.5207 34.3726 30.0131 34.4262 30.0592C34.4469 30.0771 34.7777 30.5282 34.6207 30.5338C34.195 30.3844 33.789 30.1231 33.3679 29.9727C32.882 29.7989 32.1846 29.6974 31.7485 29.4549C31.711 29.4342 31.5953 29.5047 31.6188 29.3684C32.1113 29.4502 32.6452 29.375 33.1301 29.4981Z" fill="#F9C5DB"/>
<path d="M33.087 28.98C33.164 29.1332 33.0005 29.293 33.195 29.3259C33.4112 29.1069 33.6838 28.9265 33.9074 28.7216L33.1302 29.4988C32.6452 29.3757 32.1105 29.4518 31.6189 29.3691C31.5982 29.2545 32.0108 28.3626 32.0512 28.1595C32.1387 28.1313 32.0954 28.0627 32.2026 28.1163C32.258 28.1445 33.0606 28.9246 33.0879 28.98H33.087Z" fill="#F16574"/>
</g>
</g>
<defs>
<filter id="filter0_i_344_12246" x="0" y="0" width="70" height="70" filterUnits="userSpaceOnUse" color-interpolation-filters="sRGB">
<feFlood flood-opacity="0" result="BackgroundImageFix"/>
<feBlend mode="normal" in="SourceGraphic" in2="BackgroundImageFix" result="shape"/>
<feColorMatrix in="SourceAlpha" type="matrix" values="0 0 0 0 0 0 0 0 0 0 0 0 0 0 0 0 0 0 127 0" result="hardAlpha"/>
<feMorphology radius="3" operator="erode" in="SourceAlpha" result="effect1_innerShadow_344_12246"/>
<feOffset/>
<feGaussianBlur stdDeviation="1"/>
<feComposite in2="hardAlpha" operator="arithmetic" k2="-1" k3="1"/>
<feColorMatrix type="matrix" values="0 0 0 0 0 0 0 0 0 0 0 0 0 0 0 0 0 0 0.08 0"/>
<feBlend mode="normal" in2="shape" result="effect1_innerShadow_344_12246"/>
</filter>
<linearGradient id="paint0_linear_344_12246" x1="47.2585" y1="34.9794" x2="49.8845" y2="35.2022" gradientUnits="userSpaceOnUse">
<stop stop-color="#EBB779"/>
<stop offset="1" stop-color="#BB8C54"/>
</linearGradient>
<linearGradient id="paint1_linear_344_12246" x1="34.7643" y1="55.1748" x2="34.8734" y2="57.2885" gradientUnits="userSpaceOnUse">
<stop stop-color="#E2A56D"/>
<stop offset="1" stop-color="#B87F52"/>
</linearGradient>
<linearGradient id="paint2_linear_344_12246" x1="35.3443" y1="15.9108" x2="34.6357" y2="54.5583" gradientUnits="userSpaceOnUse">
<stop stop-color="#8A9FA7"/>
<stop offset="0.07" stop-color="#ADC9D3"/>
<stop offset="0.4" stop-color="#AEC3D1"/>
<stop offset="1" stop-color="#788293"/>
</linearGradient>
<linearGradient id="paint3_linear_344_12246" x1="22.3752" y1="22.406" x2="47.4664" y2="48.3092" gradientUnits="userSpaceOnUse">
<stop offset="0.31" stop-color="#F7F7F8"/>
<stop offset="1" stop-color="#C8C1C7"/>
</linearGradient>
<linearGradient id="paint4_linear_344_12246" x1="35.3961" y1="30.1266" x2="37.4995" y2="32.4753" gradientUnits="userSpaceOnUse">
<stop stop-color="#E0534C"/>
<stop offset="1" stop-color="#A22E46"/>
</linearGradient>
<linearGradient id="paint5_linear_344_12246" x1="38.0522" y1="30.3589" x2="38.3294" y2="33.2828" gradientUnits="userSpaceOnUse">
<stop stop-color="#B75A87"/>
<stop offset="1" stop-color="#894388"/>
</linearGradient>
<linearGradient id="paint6_linear_344_12246" x1="32.8314" y1="30.9238" x2="32.2882" y2="34.5112" gradientUnits="userSpaceOnUse">
<stop stop-color="#F48180"/>
<stop offset="1" stop-color="#DF5A70"/>
</linearGradient>
<clipPath id="clip0_344_12246">
<rect width="30" height="44.6006" fill="white" transform="translate(20 13)"/>
</clipPath>
</defs>
</svg>
