<svg xmlns="http://www.w3.org/2000/svg" width="70" height="70" fill="none"><g filter="url(#a)"><path fill="#fff" fill-opacity=".75" d="M0 35C0 15.67 15.67 0 35 0s35 15.67 35 35-15.67 35-35 35S0 54.33 0 35"/><path fill="#6D2F18" d="M51.678 37.13c.057 0 .37-.012.387 0 .008.006.02.085.113.194.336.39.075.632.091 1.04 0 .023.137.126.137.146.001.186-.09.317-.091.339-.004.166.072.314.045.508-.096.712-.324.728-.682 1.258-.027.042-.064.186-.136.243-.156-.028-.797-.019-.932.049-.285.14-.129 1.104-.818.677-.63-.39.123-1.373-.045-1.5-.289.246-1.182.192-1.408.339-.125.08-.098.301-.16.435-.099.22-.027.37-.317.484-.375.147-.569-.2-.863.242-.121.184-.226.396 0 .557l-.09.024c-.264.007-.487.166-.728.242-.145.046-.36.02-.454.049-.386-.07-1.166-.387-1.523-.338-.286.038-.518.409-.841.483-.169.04-.424.05-.568-.048-.272-.182-.04-.384-.295-.58-.286-.22-.816-.146-1.113 0-.067.032-.276.317-.363.337-.217.052-.356-.14-.545-.096-.02.004-.29.277-.341.289a.5.5 0 0 1-.137 0c-.163-.023-.426-.363-.704-.29-.05.014-.161.205-.204.243-.017.015-.056.062-.092.097-.187.15-.3.085-.5.049-.18-.16-.264-.4-.408-.581.025-.197-.233-.451-.363-.58.226-.393.467-.454.59-.92.029-.105-.038-.298.046-.411.26-.347.678.544.887.557.07.004.29-.206.363-.194.023.004.268.225.386.29.301.164.253.136.659.096.014 0 .077.099.091.098.054-.006.645-.746.704-.87.27.02.543-.173.637-.195.067-.014.17-.03.227-.048.111.34.869.23 1.068.097.018-.012.196-.293.25-.338.15.063.248.217.34.242.194.05.854-.14 1.046-.242.052-.028-.007-.152.045-.194.136-.11.517.34.728.29.032-.008.38-.336.545-.387.112-.036.243.057.272.048.177-.056.899-.363 1-.338.044.01.222.275.272.29.13.04 1.136-.091 1.273-.146.371-.147.617-.736.817-.823.307-.131.857-.027 1.09-.049.443-.04 1.316-.998.433-1.136.09-.143.131-.023.182-.023z"/><path fill="#965634" d="M18.824 37.468c-.57.424-.245.446-.183.75.114.556-.167.634.637.798.037.133.287.255.387.338.125.034.182-.175.204-.29.27.302.69.22 1 .05.18.192.25.077.5 0 .005.033.223.289.271.386.15.294.05.322.363.58l-.295.29c-.043-1.123-.54-.376-1.25-.483a.85.85 0 0 1-.34-.146c-.101 0-.101.063-.114.145-.581-.229-.81.541-1.182-.266-.124-.269.03-.654-.454-.604a.4.4 0 0 0-.091-.097c.012-.028-.01-.103 0-.145.112-.524-.082-.524-.091-.702-.03-.582.043-.638.228-1.089.06.288.16.38.408.484z"/><path fill="#531A0E" d="m52.043 36.598.137.726c-.093-.107-.105-.187-.114-.194-.016-.012-.33 0-.386 0-.126-.256.108-.144.091-.338.06-.046.262-.18.272-.194"/><path fill="#531A0E" d="M51.679 37.13c-.052 0-.093-.117-.183.024.884.14.01 1.096-.432 1.136-.233.022-.784-.082-1.09.049-.202.086-.448.676-.818.823-.136.054-1.143.185-1.273.145-.05-.016-.228-.28-.272-.29-.1-.023-.823.284-1 .339-.028.008-.16-.084-.271-.049-.166.053-.514.38-.546.387-.21.05-.59-.4-.727-.29-.053.043.007.166-.046.194-.192.103-.852.293-1.045.243-.092-.025-.19-.178-.341-.243-.658-.279-.31.003-.75.146-.164.053-.395.044-.567.097-.057.017-.16.034-.228.048-.097-.185-.33-.225-.5-.29-.134-.05-.112-.048-.272-.096-.17-.052-.401-.174-.5-.194-.117-.025-.293.147-.5.048-.03-.014-.234-.317-.295-.338-.069-.023-.212.02-.295 0-.106-.023-.217-.013-.363-.048-.19-.044-.285-.087-.454-.146-.046-.016-.228-.226-.433-.242-.175-.014-.505.104-.658.194-.211-.095-.182-.674-.478-.533-.106.052-.055.378-.113.509-.035.078-.2.165-.228.266-.004.013 0 .034 0 .049-.116.2-.24.23-.454.242-.044.002-.093.005-.137 0-.124-.015-.697-.267-.84-.338-.144-.07-.768-.757-.478.097-.138-.434-.28-.26-.409-.338.396-.52.906-.913 1.408-1.307.562-.013 1.236.428 1.795.58.588.161 2.379.558 2.91.484.075-.01.303-.04.249-.194 2.613.277 8.575.184 10.725-1.5.016.195-.217.085-.092.339z"/><path fill="#884627" d="M38.5 39.598c.032.01.396.42.524.435.295.037 1.153-.11 1.477-.194.062.456-.12.747-.5.92-.118-.066-.363-.288-.386-.29-.073-.012-.293.198-.363.194-.209-.012-.627-.904-.887-.558-.084.112-.018.306-.045.412-.283.401-.815.273-1.158.049-.156-.103-.337-.43-.364-.436-.102-.023-.401.158-.432.29-.135.127-.17-.047-.182-.049.199-.116.106-.263.182-.483.03-.085.089-.09.091-.097.14.03.484.012.591.048.136.047.118.202.363.243.33.053.397-.046.637-.194.1-.062.254-.284.272-.29a.8.8 0 0 1 .182 0z"/><path fill="#6D2F18" d="M38.318 40.517c-.124.466-.363.526-.59.919-.19-.188-.455-.297-.614-.532-.23.23-.008.596-.204.87-.023-.024-.265-.11-.363-.194-.004-.003-.041-.094-.046-.097l.364-.509c-.035-.11-.614-.063-.5-.557.03-.132.33-.315.432-.29.026.006.207.334.363.435.344.225.877.353 1.158-.048zM41.454 40.082c-.06.126-.65.864-.704.87-.014.002-.076-.098-.091-.097-.406.04-.358.068-.659-.097.381-.173.562-.463.5-.919.02-.004.14-.14.182-.145.295-.025.48.364.773.386z"/><path fill="#965634" d="M41.319 39.501c-.11.424.212.603.271.097.17.065.404.105.5.29-.094.02-.367.214-.636.194-.294-.024-.477-.412-.773-.387l.136-.386c.098.02.329.142.5.194z"/><path fill="#884627" d="M43.636 39.598c-.054.046-.233.327-.25.338-.2.133-.957.245-1.068-.097.174-.053.404-.042.568-.097.439-.142.09-.423.75-.145z"/><path fill="#BC7E55" d="M32.321 38.726c-.135.091-.569.38-.59.557-.075.61 1.296.462.681-.508.053.019.261.122.272.145.073.137-.05.701.5.484.496 1.454.975-.48.228-.243-.09-.104-.09-.267-.137-.386.247.204.784.228 1.023.048.187.103.044.239.068.29-.456.012-.333.298-.272.678-.232.02-.18.366-.182.532h-.272c-.053-.362-.455-.175-.478-.194-.046-.036.022-.413-.182-.484-.312-.06-.327.243-.478.435-.098-.05-.392.093-.545.097-.118.003-.334-.059-.455-.097.089-.091.139-.185.272-.217l-.272-.315c.11-.09.042-.206.046-.29a1.2 1.2 0 0 0-.046-.435c.268-.017.49-.15.818-.097zM29.003 38.97c-.41.14-.352.314-.545.58-.004.006-.073-.015-.137.072-.083.116-.34.825-.477.846-.73-.49-.043-.467-.16-.943-.376-.541-.807-.027-.681.532.02.091.26.112.159.266-.329.045-.524-.182-.75-.387-.012-.025-.083-.278-.091-.29.26-.033.468-.405.636-.483.01-.004.1.07.205.049.01-.003.14-.142.182-.146.015 0 .232.146.272.146.247-.005 1.006-.283.908-.678l.478.435z"/><path fill="#965634" d="M22.868 38.969c.055.038.226.335.25.338.17.026.102-.532.658.097.036.04.055.138.091.194-.896-.25-.504.266-.682.509-.056.076-.4.085-.454.266-.066.003-.26-.005-.272 0-.094-.17-.355-.207-.454-.29-.314-.258-.214-.286-.363-.58l.5-.29c.139.387.554.106.545-.243.031.018.156-.017.182 0z"/><path fill="#BC7E55" d="M21.823 38.437c-.079.091-.23.015-.318.146-.244-.387-.726-.1-.727.29-.214.137-.518-.195-.682-.339-.017-.015-.095-.301-.25-.387-.427-.233-.784.124-.523.581-.05.062-.065.22-.046.29-.803-.165-.523-.243-.636-.799-.062-.305-.39-.326.182-.75.53.218.316-.045.84.387.092.075.263.087.273.097.114.106.074.466.408.532.334.067.48-.183.546-.194.444-.064.585.045.932.146z"/><path fill="#531A0E" d="M32.32 36.646c-.288.23-.507.458-.84.63-1.239.639-3.63.882-5 .774-.182-.014-.068-.01-.067-.145 1.09-.05 2.065-.165 3.135-.387.93-.194 1.85-.41 2.682-.919.026.017.064.031.09.049z"/><path fill="#BC7E55" d="M26.822 38.872c.056.099.055.203.136.29-.168.078-.375.45-.636.483-.003-.004-.08-.038-.091-.048-.464-.418-.259.464-.978.338-.45-.08-.185-.355-.25-.604-.14-.54-.92-.036-.773.46-.128-.038-.3-.141-.317-.146-.003 0 .017-.03-.046-.048-.035-.055-.055-.153-.091-.194.236-.368.487-.056.727-.363-.063.004-.172-.071-.182-.072.155-.165.126-.345.318-.484-.04.212.171.605.386.58.028-.002.332-.294.341-.12-.153.216-.136.51.068.653.35.09.464-.546.59-.581.128-.035.622.398.796-.145z"/><path fill="#AA6C46" d="M26.822 38.872c-.174.544-.671.11-.795.146-.125.035-.242.671-.591.58-.204-.142-.221-.438-.068-.652-.008-.174-.313.117-.34.12-.215.025-.427-.369-.387-.58.357-.26.386.204.613.242.161.026.534-.215.636-.194.036.007.192.235.228.242.222.043.333-.554.704.097z"/><path fill="#BC7E55" d="M30.275 39.21c.056-.019.603-.148.636-.145.109.009.13.047.137.048-.058.222-.256.241-.228.532-.17-.038-.238.089-.363.194-.086-.192-.087-.517-.387-.435-.414.113-.014.818-.523.726-.137-.277-.395-.467-.545-.097-.108.031-.14-.108-.183-.145.507-.226.4-.442.5-.919.064-.016.097-.038.137-.048.222.116.015.6.113.629.293-.052.398-.235.704-.338zM36.41 39.307c.043.005.093.002.137 0-.026.163-.042.325-.091.484-.002.006-.063.012-.092.097l-.795.29c.116-.256.105-.768-.272-.678-.041.01-.14.18-.158.194-.173.114-.268.14-.41.338-.018-.122-.06-.444-.09-.532.222.06.324-.128.5-.194.093-.036.306.08.477-.194-.014.545.672.964.795.194z"/><path fill="#965634" d="M36.41 39.307c-.122.77-.809.353-.795-.194-.171.275-.384.159-.477.194.109-.13-.023-.172-.046-.242-.29-.855.34-.165.478-.097.143.071.716.324.84.338z"/><path fill="#AA6C46" d="M21.96 38.532c.268.2.113.49.181.678l-.5.29c-.049-.097-.267-.353-.271-.387-.004-.028.121-.51.136-.532.089-.131.24-.055.318-.146.055.017.128.094.137.097zM24.323 38.97c.01 0 .117.076.182.071-.24.307-.491-.006-.727.363-.558-.629-.49-.07-.659-.097-.023-.003-.195-.301-.25-.338.07-.038.117-.098.182-.145l.387.194.113-.387c.48-.047.274.284.523.387.094.038.177-.06.25-.049zM32.41 38.775c.615.969-.755 1.119-.682.509.022-.177.456-.465.591-.557.038.005.05.033.091.048M29.32 38.969c-.099.476.007.694-.5.919-.118-.099-.29-.165-.363-.338.194-.266.136-.44.546-.581.02-.006.152.041.317 0"/><path fill="#965634" d="M33.275 38.775c.046.12.046.282.137.387-.015.004-.142.208-.228.242-.551.218-.427-.347-.5-.484l.387-.58c.023 0 .183.38.204.435M34.365 39.113c.075.16.242.294.272.387.03.088.072.41.091.532.01.06-.005.13 0 .194-.063.004-.134-.003-.182 0 .005-.196-.305-.448-.454-.435-.061-.38-.184-.666.272-.678z"/><path fill="#AA6C46" d="m30.457 38.727-.182.483c-.307.105-.412.288-.704.338-.098-.03.109-.513-.114-.629.246-.06.753-.163 1-.194z"/><path fill="#BC7E55" d="M22.687 38.97c.01.348-.406.627-.546.242-.067-.189.087-.478-.182-.678.218.09.454.037.478.048.063.033-.051.214.25.387"/><path fill="#965634" d="M31.502 38.824c.048.145.051.283.046.435-.21.075-.357-.115-.5-.146-.007-.001-.028-.04-.137-.048l-.137-.338c.354.042.305.125.728.097"/><path fill="#BC7E55" d="m30.776 38.727.136.338a9 9 0 0 0-.636.145l.182-.483c.178-.022.14-.02.318 0"/><path fill="#6D2F18" d="M21.868 37.662c.196.032.395.07.591.097a22.5 22.5 0 0 0 3.954.146c0 .133-.113.13.068.145 1.368.108 3.76-.134 4.999-.775.333-.172.552-.4.84-.629.334.218.721.466 1.024.727.395.338.981 1.139 1.34 1.355.13.078.27-.096.409.338.023.07.155.112.046.242-.176.067-.28.255-.5.195-.032-.093-.198-.228-.272-.387-.024-.051.119-.188-.068-.29-.239.18-.776.156-1.023-.048-.02-.056-.182-.435-.204-.435l-.387.58c-.012-.022-.22-.126-.272-.145-.041-.015-.052-.043-.09-.049-.33-.053-.552.08-.818.097-.423.028-.374-.054-.728-.097-.177-.02-.14-.022-.317 0-.248.03-.754.134-1 .194-.04.01-.073.033-.137.049-.167.041-.3-.006-.317 0l-.478-.435c.097.394-.661.673-.908.677-.04 0-.257-.147-.272-.145-.042.003-.171.142-.182.145-.105.021-.195-.053-.205-.048-.081-.088-.08-.191-.136-.29-.373-.65-.482-.054-.705-.097-.034-.007-.19-.233-.227-.242-.101-.022-.475.22-.637.194-.228-.038-.257-.5-.613-.243-.192.14-.163.32-.317.484-.074-.012-.157.087-.25.048-.25-.103-.043-.433-.524-.386-.176.017-.349.087-.5.194-.064.045-.113.107-.182.145-.026-.017-.15.018-.182 0-.3-.175-.186-.355-.25-.386-.022-.012-.26.04-.477-.049-.009-.003-.082-.08-.137-.097-.345-.101-.488-.209-.932-.145-.065.008-.21.26-.545.194-.336-.067-.295-.427-.41-.532-.01-.01-.181-.023-.271-.097-.525-.434-.31-.17-.84-.387-.25-.103-.35-.196-.41-.484.23-.558.067-.259 0-.629l.613.484c.895.464 1.862.66 2.84.823z"/><path fill="#BC7E55" d="m23.55 38.63-.114.386-.386-.194c.15-.107.323-.176.5-.194z"/><path fill="#6D2F18" d="M22.8 38.194c.06.12-.134.208-.183.29-.092-.177.11-.182.183-.29"/><path fill="#531A0E" d="M36.501 37.13c.415.412 1.18.541 1.727.678.48.119.968.209 1.454.29.119.019.245.03.363.048.333.05.664.11 1 .145.054.153-.174.184-.25.195-.53.073-2.32-.324-2.909-.484-.559-.153-1.233-.594-1.795-.58.138-.108.27-.192.409-.29z"/><path fill="#884627" d="M20.006 39.888c-.013.073.024.169.045.242-.183.506-.915.275-1.25.049-.152-.104-.148-.347-.34-.338-.006-.013.005-.034 0-.049.124-.042.001-.138 0-.145-.057-.212-.039-.43-.091-.63.484-.05.33.336.454.605.371.807.6.036 1.182.266"/><path fill="#6D2F18" d="M22.004 40.082c.1.082.36.119.454.29-.248.07-.324.393-.636.386-.073-.051-.218-.406-.478-.58-.294-.199-.564-.225-.886-.29.71.107 1.207-.64 1.25.483l.295-.29z"/><path fill="#AA6C46" d="M20.777 38.872c0 .032.083.232.091.243-.309.17-.73.252-1-.049.022-.109.017-.268-.045-.338l.272-.194c.165.145.468.478.682.338"/><path fill="#965634" d="M21.505 38.58c-.015.023-.14.507-.137.533-.25.078-.319.193-.5 0a1.4 1.4 0 0 1-.09-.242c0-.392.483-.677.727-.29M19.823 38.727c.062.072.066.229.046.338-.023.116-.08.325-.205.29-.098-.084-.35-.208-.386-.339-.02-.07-.005-.228.045-.29.119-.15.395-.121.5 0"/><path fill="#884627" d="M31.502 40.082c.12.038.337.1.454.097.03.163-.215.556-.182.653.01.025.362.355.387.363.328.095.973-.56.84-.919.209.03.426.046.637.049h.272c.207-.005.403-.083.636-.097.049-.003.118.004.183 0 .306-.02.281-.106.59 0 .016.004.169.179.25.194.213.036.406-.072.613-.049.011 0 .046.175.183.049-.114.494.465.445.5.557l-.364.508c-.21-.155-.429-.402-.704-.435-.585-.069-.357.131-.567.387s-.431.138-.728.097c-.519-.062-.493-.732-1.023-.532-.156.059-.392.401-.523.532-.363.284-.823-.259-.978-.29-.227-.047-.38.246-.545.243-.046 0-.72-.293-.84-.338.168-.055.492-.212.59-.363.158-.241-.01-.368.137-.604.056-.092.174-.09.182-.098z"/><path fill="#6D2F18" d="M22.459 40.372c.014-.005.207.002.272 0 .05-.003.364.116.454.097.512.971 1.104-.424 1.408.242.01.02-.026.225.091.412.3.479.467.369.887.217.58.56 1.589.108 2.318.243.098-.237.239-.387.5-.387.194.07.071.34.182.387.121.053.61.03.773.048.014 0 .319.049.204.146-.745.048-.664.54-1.273.63-.106-.192-.479-.389-.682-.339-.13.032-.609.53-.908.435-.054-.062-.318-.157-.409-.194-.004-.001-.01-.023-.091-.048-.24-.074-.48 0-.704-.098-.322-.136-.421-.564-.454-.58-.196-.094-.685.142-.863.097-.078-.02-.318-.487-.432-.243-.394-.394-.46-.117-.796-.194-.093-.02-.445-.319-.59-.386-.165-.077-.384 0-.524-.097.312.007.388-.318.637-.387z"/><path fill="#884627" d="M29.548 40.13c.03.062.061.23.091.29.13.26.053.414.41.58-.082.26-.42.512-.364.775-.046 0-.091-.003-.137 0 .115-.097-.19-.144-.204-.145-.163-.018-.652.004-.773-.049-.11-.048.014-.316-.182-.386-.261 0-.402.151-.5.386-.728-.134-1.737.32-2.318-.242-.42.151-.586.261-.887-.218-.117-.187-.081-.39-.09-.412.237.205.49.33.794.243.246-.07.424-.432.455-.435.067-.006.719.873 1.158.338-.1.543.943.572.636-.242.353.02.553.166.978 0 .52-.203.282-.321.387-.581.15-.37.408-.181.545.097z"/><path fill="#965634" d="M38.909 38.824c-.265.192-.547.3-.863.363l.272.411c-.018.008-.173.228-.272.29-.51.047-.565-.485-.091-.653l-.5-.048c-.065-.156.253-.347.363-.412.153-.088.483-.207.659-.194.204.016.386.226.432.243M39.773 39.55c.366.285.326-.04.546-.194.205.098.382-.074.5-.049l-.137.387c-.043.003-.162.14-.183.145-.324.084-1.18.23-1.477.194-.127-.016-.491-.425-.523-.435a4 4 0 0 1 .454-.338c.057.488.606.894.818.29z"/><path fill="#965634" d="M37.818 38.775c-.111.065-.428.256-.363.412l.5.048c-.474.168-.418.701.091.653-.24.148-.306.247-.636.194.02-.502.15-.912-.409-1.065.028-.101.193-.188.228-.266.058-.129.007-.457.113-.508.294-.141.265.438.478.532zM39.728 39.018c-.13.16-.124.4.045.532-.21.602-.762.198-.817-.29.14-.09.333-.087.409-.29.146.034.258.024.363.049z"/><path fill="#AA6C46" d="M39.364 38.969c-.076.203-.27.2-.41.29a4 4 0 0 0-.453.338.8.8 0 0 0-.183 0l-.272-.412c.316-.063.598-.169.863-.363.17.059.267.101.455.146z"/><path fill="#965634" d="M37.047 39.84c-.108-.037-.452-.018-.591-.05.05-.158.064-.32.09-.483.215-.01.339-.042.455-.242-.014.24.214.425.046.774"/><path fill="#BC7E55" d="M37.41 40.082c-.248-.04-.228-.196-.364-.243.169-.35-.059-.535-.045-.774 0-.015-.004-.036 0-.049.559.153.43.563.409 1.064z"/><path fill="#965634" d="M40.319 39.356c-.219.154-.18.479-.546.194-.17-.133-.175-.372-.045-.532.082.019.226-.024.295 0 .06.02.265.324.295.338"/><path fill="#AA6C46" d="M41.59 39.598c-.059.507-.38.327-.271-.097.161.049.138.046.272.097"/><path fill="#965634" d="M36.365 39.888c-.076.22.016.367-.183.483-.207-.023-.401.086-.613.049-.081-.013-.234-.188-.25-.194.006-.178-.03-.434-.182-.532.02-.014.118-.184.159-.194.377-.09.388.422.272.677l.795-.29z"/><path fill="#C97829" d="M21.096 43.566c.322.34.254.708.954.629.654.354 1.176.341 1.727-.194.078.08.107.165.137.194-.65 1.051.16 1.6.773.58.126.108.233.242.363.339-.155.598.628 1.273 1.136.823.475.165 1.493.198 1.319-.604-.032-.146-.239-.262-.318-.363.456-1.18.878-.014 1.068.048.236.077.463-.317.658-.435.37.193.804.251 1.09-.145.245.126.516.388.796.338.202-.036.36-.409.454-.436.185-.054.442.097.591.097.588-.001.987-.107 1.545.243.144.09.298.353.341.387-.196.069-.275.051-.454.194-.33.261-.221.877-.478.967-.871.309-.645-1.08-1.182-1.21-.729-.176-.788.832-1.136.919-.475.119-1.197-1.055-1.704.024-.215.457.012.917-.386 1.233-.053.042-.85.38-.909.386-1.175.156-1.252-1.17-1.908-1.258-.956-.128-.705 1.329-1.636.823-.734-.4-.281-1.695-.817-1.839-.708-.19-.972.774-1.318.727-.613-.084-.315-1.45-.546-1.548-.23-.099-.667.2-.908.145-.358-.08-.819-1.266-1.204.387-.209-.25-.505-.543-.817-.63-.014-.104-.094-.436-.092-.483.009-.168.096-.278.137-.435.423.14.864.075 1.295.145.065.01.211.193.228.194.31.02.454-1.035 1.204-.242z"/><path fill="#B76428" d="M51.224 46.613c-.076.124-.135.228-.228.338-.103.124-.365.336-.5.436-3.21 2.409-12.705 2.125-16.723 2.08-.36-.134-.899.07-.773-.532 1.012.02 2.032.01 3.044 0 1.95-.021 3.99-.068 5.93-.243 3.301-.297 7.055-.834 9.634-3.193.053.287-.237.869-.386 1.113zM50.816 41.776c.082.62.407 1.227.862 1.548.057.04.172.117.228.145.334.47.137.4.091.775-.083.134-.279.166-.363.29-.27-.043-.55.202-.773-.024.039-.344.251-1.144-.113-1.33-.68-.347-.514.992-.637 1.064-.11.066-.639-.287-.84.072-.13.232.186.69-.205.944-.524.338-.842-.577-1.181-.435-.056.023-.303.592-.387.7-.913 1.183-1.34-.167-2.068-.7-.308 1.387-1.433 1.452-1.84.048 1.178-.068.37-.663.317-1.016.1-.386.668-.473.863-.169.01.015.026.309.045.338.216.343.515-.719.818-.411.319.48.291.843.977.918 1.385.153.773-1.29 1.636-1.015.218.069.185.59.863.435.743-.17.55-1.683 1-1.79.127-.032.401.038.5 0 .193-.076.021-.374.204-.387z"/><path fill="#C97829" d="M22.005 47.485C25.32 48.75 29.478 48.867 33 48.936c-.125.603.413.398.774.532-3.458-.038-11.578.07-14.178-2.37-.632-.595-.793-1.005-1.045-1.84 1.048 1.119 2.082 1.702 3.454 2.226z"/><path fill="#A2C73A" d="M51.906 43.469a2 2 0 0 1-.227-.146c0-.098-.085-.172-.137-.242.153-.096-.119-.31-.137-.46-.065-.549.347-.822.817-.799 0 .078.053.162.068.243.355-.31.093-.786.613-1.04-.491-.011-.8-.215-1.227-.412.357-.531.585-.547.682-1.259.567-.047.787.3.613.87.805.256.897-.748 1.59-.483.249.096.482.514.432.798-.103.576-.977-.235-1.136.58-.159.817.871.962.728 1.646-.167.79-1.157-.216-1.34-.072-.004 1.108-.525 1.167-1.341.775z"/><path fill="#C97829" d="M51.225 46.613c.149-.244.438-.826.386-1.112-2.579 2.36-6.333 2.896-9.634 3.193-1.94.174-3.982.22-5.93.242.21-.287.698.168.591-.387 3.555-.064 12.162-.267 14.588-3.266.215-.266.291-.578.409-.75.084-.123.28-.157.363-.29-.102.828-.234 1.725-.773 2.372z"/><path fill="#8BB23F" d="M16.87 40.614c.448 1.45.402.91 1.341 1.694.21.176.268.404.387.532-.082.175-.18.444-.228.629-.04.157-.129.267-.137.435-.538.637-1.662.572-1.727-.412-.047-.705 1.05-.27.318-1.233-.013-.016.034-.114-.068-.194-.649-.494-1.606.632-1.568-.604.03-.983.94-1.448 1.681-.847zM18.278 38.92c.021.005.09.09.091.098.053.2.035.417.092.629-.085.107-.017.1 0 .145.005.014-.006.034 0 .049.016.045.084.23.09.242a2.55 2.55 0 0 1-1.544.29c-.079-.037-.166-.066-.228-.097-.123-.06-.355-.245-.454-.29a2.7 2.7 0 0 0-.773-.217c-.044-.453.077-.625.408-.847.03-.02.267-.032.296-.048.058-.031.28-.358.454-.339.05.006.275.271.318.29.279.127 1.093.457 1.249.097z"/><path fill="#ECA850" d="M19.141 45.017c.007.009.006.172.046.217 1.105 1.272 2.279 1.748 3.817 2.251-.24-.03-.743-.018-1 0-1.37-.523-2.406-1.107-3.454-2.226-.092-.307-.184-.54-.228-.87.312.085.61.38.818.63z"/><path fill="#A2C73A" d="M18.278 38.775c-.01.043.013.118 0 .145-.156.36-.971.03-1.249-.096-.044-.02-.268-.286-.318-.29-.173-.02-.396.307-.454.338-.029.016-.265.028-.295.048-.01-.508-.702-.23-.318-.943.428-.795 1.226.417 1.613.557.319.115.73-.013 1.023.242zM16.78 40.275c-.064.1.063.25.09.338-.74-.602-1.651-.137-1.681.846-.039 1.237.918.11 1.568.605.102.078.057.178.068.194-.779-.565-.989 1.14-1.59.12-.559-.945-.09-2.41 1.09-2.395.1.046.333.231.454.29zM38.092 42.016c.145.181.228.42.409.581-.136-.025-.183-.097-.296-.145-.027.188-.149.976-.317 1.015-.067.017-.61-.885-.613-.943-.01-.208.58-.358.567-.702.174-.02.177.102.25.194M42.5 41.968c.256.197.023.398.296.58.144.098.4.089.568.05-.295.52-.431.72-.296 1.355l-.886-1.67c0-.274.109-.306.317-.315zM52.224 41.824c0-.012.122-.017.09-.218-.052-.335-.463-.695-.773-.75.07-.055.108-.2.137-.242.425.197.736.402 1.228.412-.522.254-.26.73-.613 1.04-.016-.079-.07-.164-.068-.242zM46.907 42.162l.091-.023c-.226-.16-.121-.374 0-.558l.591.847c-.026.205-.758-.085-.682-.266"/><path fill="#ECA850" d="M33.275 45.26c1.971 1.07.602 2.133-.886 2.468-1.086.244-2.161.1-3.136.242-.027.005-.502.108-.432.243-1.376-.034-2.816-.252-4.18-.435-.547-.074-1.109-.227-1.636-.29-1.538-.503-2.712-.979-3.818-2.25-.04-.048-.039-.21-.045-.218.385-1.654.846-.47 1.204-.387.241.055.679-.242.908-.145.23.097-.068 1.464.545 1.548.347.047.61-.916 1.319-.727.536.145.084 1.44.817 1.84.93.507.68-.952 1.636-.824.657.088.733 1.413 1.908 1.259.06-.008.856-.346.909-.387.397-.316.17-.776.386-1.233.508-1.08 1.23.094 1.704-.024.346-.087.407-1.095 1.136-.919.537.13.31 1.519 1.182 1.21.257-.091.146-.707.478-.967z"/><path fill="#B76428" d="M30.548 43.807c.404.433.542-.013.795.048.046.012.207.258.272.29.596.297.672.172 1.25.048.313-.067.414.127.681-.266.058-.085.005-.5.296-.411.083.025.236.448.363.483.174.049.287-.116.409-.097.022.003.265.26.363.29.654.212.571-.723.954-.63.254.064.069.696.5.871.038.016.778.157.817.146.063-.02.114-.274.228-.339.359-.205.827.327 1.227.29.226-.02.427-.345.454-.338.075.016.076.238.137.29.155.132.36.066.478.097.495.129.71.355 1.09-.194.23-.003.46.054.682.097.5.095 1.106.276 1.59.338-.169.235.21 1.05-.249 1.161s-.737-1.648-1.704-.435c-.06-.047-.611-.295-.658-.29-.31.184.138.894-.5.87-.659-1.314-.737-.442-1.227-.386-.652.073.093-.898-.546-1.016-.494-.091-.716.537-.954.532-.352-.005-.397-.826-1.136-.677-.446.09-.43.485-.478.846-.005.04-.09.067-.09.072-.252-.029-.566-.35-.796-.386-.55-.088-.566.357-1.067-.049-.043-.033-.198-.297-.341-.386-.558-.349-.957-.244-1.545-.243-.15 0-.406-.15-.591-.097-.094.028-.253.4-.454.435-.28.05-.551-.212-.796-.338.123-.169.246-.554.137-.75-.15-.27-.377-.033-.545.024.074-.293.26-.573.567-.484.178.052.233.418.387.58z"/><path fill="#ECA850" d="M35.592 45.5c-.014.328.323.53.136 1.09-.368 1.102-4.401 1.568-5.408 1.621-.477.025-1.017.012-1.499 0-.07-.133.403-.238.432-.242.975-.141 2.05.001 3.136-.243 1.488-.334 2.856-1.396.886-2.468.18-.141.258-.125.454-.194.501.406.518-.04 1.067.048.231.037.544.358.796.387z"/><path fill="#A35825" d="M21.096 43.566c-.75-.792-.894.263-1.204.243-.016 0-.162-.184-.227-.194-.431-.07-.873-.006-1.295-.146.048-.185.146-.454.227-.63.272.295.513.657.978.533.43-.115.27-1.276 1.182-1.016.34.097.243.917.34 1.21"/><path fill="#B76428" d="M28.912 44.582c-.194.119-.422.511-.658.435-.19-.062-.613-1.228-1.067-.049-.085-.107-.25-.111-.318-.314-.146-.435.267-.909.659-.944.63-.056.92.63 1.386.87z"/><path fill="#A35825" d="M23.777 44.001c-.55.535-1.07.547-1.727.194.533-.06.791-.873 1.432-.58.123.055.226.316.295.386"/><path fill="#B76428" d="M24.686 44.774c-.612 1.02-1.424.47-.773-.58.277.266.524.369.773.58M26.185 45.936c-.508.45-1.291-.223-1.136-.823.294.222.813.711 1.136.823"/><path fill="#DD9034" d="M23.005 47.485c.527.063 1.089.216 1.636.29.042.206.617.261.795.29 3.486.571 7.657.548 11.2.483.107.554-.38.102-.59.387-1.012.01-2.034.02-3.044 0-3.525-.07-7.68-.189-10.997-1.451.258-.018.76-.03 1 0z"/><path fill="#C97829" d="M51.633 44.534c-.117.172-.195.483-.409.75-2.424 2.997-11.032 3.201-14.587 3.266-3.544.064-7.715.088-11.201-.484-.178-.03-.753-.085-.795-.29 1.364.184 2.804.402 4.18.435a20 20 0 0 0 1.5 0c1.702.212 3.509.168 5.249.146.861-.012 1.732-.112 2.59-.145.661-.025 2.552.14 3.09-.098.033-.014.462-.521.477-.557.27-.635-.047-1.61-.545-2.008.966-1.212 1.224.55 1.703.435.48-.114.08-.926.25-1.16.163.02.27.058.455.048.407 1.404 1.532 1.339 1.84-.049.728.534 1.154 1.885 2.068.701.084-.108.33-.679.387-.7.34-.142.657.772 1.181.434.391-.251.075-.711.205-.944.201-.36.729-.005.84-.072.122-.072-.042-1.41.637-1.064.366.187.152.986.113 1.33.223.227.502-.019.774.024z"/><path fill="#8C451F" d="M45.636 43.613c-.303-.307-.604.753-.818.412-.02-.03-.036-.325-.045-.338-.196-.305-.762-.217-.863.169-.049-.32.413-.952.658-1.016.622-.165.807.379 1.068.774z"/><path fill="#8BB23F" d="M51.543 41.146c-.115.475-.235.625-.228 1.113s-.054.447.228.823c.052.07.135.144.137.243-.457-.322-.782-.928-.863-1.548-.075-.565.216-.838.727-.63z"/><path fill="#599C43" d="m19.187 40.614-.682.387c-.533-.165-.995-.396-1.5-.63a2.56 2.56 0 0 0 1.546-.29c.293.528.342.27.636.533"/><path fill="#6D2F18" d="M20.051 40.13c.154.544.433.662-.317 1.016-.02-.034-.476-.47-.546-.532-.293-.263-.342-.004-.636-.532-.007-.012-.073-.197-.091-.243.192-.008.188.236.341.339.334.226 1.066.457 1.25-.05zM18.46 39.791c-.016-.045-.083-.037 0-.145.002.007.125.102 0 .145"/><path fill="#8C451F" d="M39.773 44.582c-.116-.031-.321.035-.477-.097-.061-.052-.062-.274-.137-.29-.027-.006-.228.319-.454.338-.4.035-.869-.495-1.227-.29-.114.065-.163.32-.228.339-.04.011-.779-.13-.818-.146-.43-.175-.245-.808-.5-.87-.383-.094-.299.84-.953.629-.099-.032-.341-.287-.364-.29-.121-.019-.234.146-.408.097-.127-.035-.28-.458-.363-.483-.292-.09-.238.326-.296.411-.268.393-.367.199-.682.267.776-.365.337-1.706 1.613-1.356.635.175-.258.694.182.823.751.22.755-.593 1-.677.766-.26.795.936 1.273 1.015.434.074 1.296-.132 1.818-.048.368.059.752.369 1.023.63z"/><path fill="#6D2F18" d="M30.593 41.146c.12.046.796.338.841.338.166.003.316-.29.546-.242.154.032.614.575.977.29-.184.185-.567.614-.728.823-.047.061-.175.182-.182.194-.566.379-.976-.463-1.431-.63-.21-.076-.714-.145-.932-.145-.057-.263.283-.516.363-.775.038.018.38.083.545.146z"/><path fill="#A2C73A" d="M23.778 41.581q.169.21.317.435a.7.7 0 0 1-.25-.145c-.109.526-.819.663-1.227.919-.1.063-.663.652-.75.508.046-.672.884-.864.341-1.524.572.388 1.05.148 1.569-.194z"/><path fill="#8C451F" d="M30.548 43.807c-.153-.163-.207-.53-.387-.58-.307-.09-.492.19-.567.483-.011.003-.044.148-.204.097-.37-.122-.431-1.57.408-1.355.323.082.658 1.036.75 1.355"/><path fill="#6D2F18" d="M26.185 42.259c-.19.132-.555-.056-.613-.048-.1.011-.381.279-.567.194-.035-.052-.03-.067-.092-.098-.207-.477-.42-.172-.817-.29a6 6 0 0 0-.317-.434c-.005-.006-.005-.103-.046-.146.113-.244.355.222.432.243.178.045.668-.191.863-.097.033.016.133.444.454.58.224.096.464.023.704.097z"/><path fill="#A2C73A" d="M34.502 41.533c.297.04.52.157.728-.097.15.227.239.845-.113.87-.301.022-.174-.23-.409-.338-.264-.122-1.128-.033-.817-.63.273.139.357.158.613.195zM28.276 42.405c.133.24.048.407.09.508.043.102.445.701.342.75-.442-.503-1.239-.763-1.113-1.597.201-.05.576.149.682.338zM26.685 42.5s.061.137.091.17L25.89 44c.06-.222.07-1.554.113-1.622.043-.067.238.034.272-.072.091.037.357.133.409.194zM36.91 41.776c.708.676-.907.858-.863.363.003-.04.37-.597.5-.557.098.083.34.17.363.194M19.732 41.195c.145.3-.161.611-.25.967-.132.044-.485-.782-.295-.919.168.025.38.002.545-.048"/><path fill="#4C8B3F" d="M19.732 41.146c.007.012-.007.036 0 .049-.165.05-.377.073-.545.048-.133-.02-.51-.19-.682-.242l.682-.387c.069.062.526.499.545.532"/><path fill="#8C451F" d="M41.545 44.485c-.223-.043-.452-.099-.682-.097.1-.146.26-.788.477-.727.219.062.006.644.205.824"/><path fill="#A2C73A" d="M51.315 42.26c-.008-.489.112-.639.228-1.113.152.061.35.136.363.363z"/><path fill="#C5DA58" d="M20.46 39.888c.32.066.592.093.886.29.258.175.403.529.478.58.14.097.357.02.523.097.145.068.497.366.591.387.335.076.402-.201.795.194.042.041.042.14.046.145-.517.343-.996.581-1.569.194.543.66-.295.853-.34 1.525.086.146.648-.445.75-.509.408-.255 1.117-.392 1.226-.918.082.063.151.116.25.145.397.118.61-.187.818.29-.027-.014-.118-.027-.16-.049-.282.362-.841.798-.408 1.258.05-.185.742-.929.75-.992 0-.007-.052-.061-.091-.12.188.085.468-.181.567-.194.06-.008.423.18.613.048.082.025.086.047.091.049-.034.107-.227.004-.272.072-.044.067-.053 1.398-.113 1.621l.887-1.33c-.03-.033-.085-.162-.092-.17.3.096.78-.402.909-.434-.124.833.672 1.093 1.113 1.596.103-.048-.299-.65-.341-.75s.044-.267-.091-.508c.608-.089.526-.581 1.272-.63q.069-.002.137 0c.218 0 .72.07.932.146.456.166.866 1.007 1.432.63-.282.517 0 .739.432.966l-.25-1.16c.159-.208.544-.639.728-.824.13-.13.367-.473.523-.532.529-.2.504.47 1.023.532a1.5 1.5 0 0 1-.613-.194c-.31.597.553.507.817.63.235.108.11.36.409.337.352-.026.264-.642.113-.87.21-.256-.018-.456.567-.387.275.033.493.28.705.435.004.003.041.093.045.097-.13-.04-.497.518-.5.558-.042.495 1.573.313.863-.364.196-.273-.026-.64.205-.87.158.235.423.344.613.532.13.13.388.384.363.581-.073-.093-.076-.215-.25-.194.012.344-.579.494-.568.701.003.059.547.959.613.944.17-.04.29-.83.318-1.016.113.047.16.12.295.146.2.037.312.101.5-.049-.22.209-.302.16-.34.194-.082.07.177.663.499.484.244-.135.318-.945-.068-.775.043-.037.155-.23.205-.242.277-.072.54.267.704.29-.04.237-.07 1.249.34 1.112.37-.123-.19-.948-.204-1.113.051-.011.32-.285.341-.29.19-.042.329.15.546.098.087-.02.297-.306.363-.339.298-.145.828-.218 1.113 0-.21.01-.318.042-.318.315l.887 1.67c-.136-.635 0-.835.295-1.355.323-.075.555-.446.84-.484.358-.047 1.138.27 1.523.338-.006.003-.073.074-.136.072.134.31.14.025.204.072.409.309.102.518.113.604.007.047.504.506.568.605.094-.014-.076-1.178-.113-1.282-.052-.144-.138-.012-.183-.12.242-.077.464-.235.728-.243-.077.18.654.47.682.266l-.59-.847c.293-.442.486-.096.862-.243 0 .139.911.488.977.484.03-.001.252-.123.25-.169-.121-.215-.406-.12-.567-.218-.257-.157-.097-.661-.341-.58.06-.134.034-.355.159-.435.226-.147 1.12-.093 1.408-.338.168.127-.584 1.11.045 1.499.69.428.535-.537.818-.678.135-.067.776-.076.932-.048.309.056.719.416.773.75.032.2-.091.205-.091.217-.471-.023-.884.25-.818.798.018.149.29.365.137.46-.28-.374-.22-.34-.228-.823l.591-.75c-.012-.226-.211-.3-.363-.363-.51-.208-.802.065-.727.63-.183.013-.012.311-.205.386-.098.038-.373-.03-.5 0-.448.108-.256 1.62-1 1.79-.678.157-.645-.365-.862-.434-.863-.274-.251 1.168-1.636 1.015-.686-.075-.659-.44-.978-.918-.262-.396-.447-.94-1.067-.775-.247.066-.707.695-.658 1.016.052.352.86.948-.318 1.015-.185.01-.291-.028-.454-.048-.485-.062-1.09-.243-1.59-.338-.2-.178.021-.757-.205-.823s-.376.579-.478.726c-.38.548-.595.323-1.09.194-.27-.26-.655-.57-1.023-.63-.52-.083-1.382.123-1.819.05-.476-.082-.506-1.277-1.273-1.017-.244.083-.248.899-1 .678-.438-.13.454-.648-.181-.823-1.276-.35-.837.99-1.613 1.355-.577.124-.653.249-1.25-.048-.066-.033-.226-.28-.271-.29-.253-.062-.391.385-.796-.048-.092-.32-.428-1.272-.75-1.356-.839-.214-.78 1.234-.408 1.356.16.053.193-.093.204-.097.169-.058.395-.296.546-.024.109.197-.014.58-.137.75-.287.397-.72.336-1.09.145-.466-.24-.756-.927-1.387-.87-.392.035-.805.509-.658.944.067.203.234.207.317.314.079.1.287.218.318.363.175.803-.844.77-1.319.605-.323-.112-.842-.602-1.136-.824-.13-.098-.238-.23-.363-.338-.247-.211-.494-.314-.773-.58-.03-.03-.06-.114-.137-.194-.069-.072-.172-.331-.295-.387-.641-.292-.9.52-1.432.58-.7.08-.632-.287-.954-.628-.098-.293-.002-1.113-.341-1.21-.911-.26-.75.9-1.182 1.016-.465.123-.705-.239-.977-.533-.12-.128-.176-.357-.387-.532-.939-.783-.893-.244-1.34-1.693-.028-.09-.154-.24-.092-.338.063.029.15.06.228.097.504.233.967.464 1.5.629.17.053.548.222.681.242-.19.137.163.965.296.92.088-.357.395-.67.25-.968-.007-.013.007-.037 0-.049.75-.354.472-.472.317-1.016-.02-.073-.056-.169-.045-.242.014-.08.012-.144.113-.146a.9.9 0 0 0 .341.146z"/><path fill="#A2C73A" d="M46.18 42.405c.044.109.132-.023.183.12.037.105.208 1.27.113 1.282-.064-.098-.562-.557-.568-.604-.01-.088.296-.295-.113-.604-.063-.048-.07.238-.204-.072.063 0 .128-.07.136-.072.096-.03.31-.003.455-.048zM47.86 41.34c.29-.114.219-.265.318-.484.245-.081.085.423.341.58.162.099.446.003.568.218 0 .045-.221.167-.25.169-.066.004-.978-.346-.978-.484zM39 42.55c.036-.035.074-.083.09-.098.386-.17.313.638.068.775-.321.18-.58-.416-.5-.484.04-.032.122.015.342-.194M40.136 42.5c.014.165.574.99.204 1.113-.408.137-.38-.874-.34-1.112a.5.5 0 0 0 .136 0M24.914 42.308c.06.03.056.046.09.097.04.059.093.113.092.12-.009.064-.7.808-.75.993-.432-.46.126-.895.409-1.258.041.022.132.035.159.048M32.047 42.549c.007-.012.135-.132.182-.194l.25 1.161c-.432-.229-.714-.45-.432-.967M41.204 42.26c.062 0 .604.621.5.677l-.75-.46c-.007-.054.233-.217.25-.217"/><path fill="#DD9034" d="M41.181 45.549c.499.398.816 1.373.546 2.008-.016.034-.445.542-.478.557-.537.237-2.43.072-3.09.097-.857.032-1.73.134-2.59.146-1.74.022-3.546.067-5.25-.146 1.006-.051 5.039-.517 5.409-1.621.188-.56-.15-.76-.137-1.09 0-.005.086-.032.091-.072.048-.361.032-.757.478-.846.739-.149.784.672 1.136.677.238.005.46-.623.954-.532.64.118-.106 1.09.545 1.016.49-.056.568-.928 1.228.387.638.022.189-.688.5-.87.046-.005.6.242.658.289"/><path fill="#965634" d="M32.501 40.082c.017.009.058.176.114.194.062.02.233-.022.386 0 .133.359-.512 1.014-.84.919a4 4 0 0 1-.387-.363c-.035-.097.21-.491.182-.653.153-.003.447-.145.545-.097"/><path fill="#965634" d="M33.638 40.323a5 5 0 0 1-.637-.048c-.153-.023-.323.02-.386 0-.056-.018-.097-.186-.114-.195.151-.194.166-.495.478-.435.205.07.136.449.182.484.024.018.426-.17.478.194z"/><path fill="#BC7E55" d="M31.547 39.259c-.003.085.064.201-.045.29-.138.112-.4-.018-.363.531-.139-.078-.301-.254-.318-.435-.028-.29.168-.31.228-.532.143.03.29.22.5.146z"/><path fill="#AA6C46" d="M33.184 39.404c.084-.034.21-.236.227-.242.747-.237.268 1.696-.227.242"/><path fill="#965634" d="M34.092 39.79c.15-.012.461.24.454.436-.233.015-.428.091-.636.097.003-.166-.051-.512.182-.532"/><path fill="#AA6C46" d="m31.502 39.55.272.314c-.136.033-.185.127-.272.218-.007.007-.126.006-.182.097-.064-.026-.122-.063-.183-.097-.037-.55.227-.419.363-.532z"/><path fill="#965634" d="M26.322 39.645c.008.012.077.266.091.29.006.009-.045.123 0 .217.055.112.543.39.637.557a2 2 0 0 0-.046.146c-.439.535-1.09-.345-1.158-.338-.03.003-.209.364-.454.435-.306.088-.558-.038-.796-.242-.303-.665-.896.73-1.408-.243.048-.01.716-.369.728-.412.038-.148-.115-.301 0-.411.016.004.19.107.317.145.217.065.412-.006.432 0 .312.084.403.549.863.435l.704-.629c.011.01.089.044.091.049z"/><path fill="#965634" d="M28.458 39.55c.073.173.245.24.363.338.043.035.074.176.182.145-.105.26.135.378-.387.581-.425.166-.623.02-.977 0-.19-.01-.422-.103-.59.097-.093-.167-.582-.444-.637-.557-.046-.094.005-.209 0-.218.226.205.42.433.75.387.1-.154-.139-.176-.16-.266-.125-.559.306-1.073.683-.532.116.476-.57.453.158.944.137-.022.395-.731.478-.847.062-.088.131-.066.137-.072M23.869 39.598c.063.018.043.047.045.049-.114.11.039.261 0 .411-.01.043-.679.401-.727.412-.09.019-.405-.099-.455-.097.054-.181.398-.19.455-.266.178-.243-.214-.757.682-.509M20.097 38.533l-.272.194c-.105-.122-.381-.152-.5 0-.261-.458.097-.815.523-.581.155.085.233.372.25.387zM26.231 39.598l-.704.63c-.46.111-.552-.352-.863-.436-.02-.006-.215.065-.432 0-.148-.494.632-1 .773-.46.065.25-.2.527.25.605.718.126.514-.758.977-.339zM30.82 39.645c.017.182.18.357.317.435.06.034.12.07.183.097-.148.237.02.364-.137.605-.098.151-.422.308-.59.363-.166-.064-.508-.127-.546-.146-.356-.166-.28-.32-.409-.58.435.026.492-.308.817-.581.126-.106.195-.231.364-.194z"/><path fill="#965634" d="M30.457 39.84c-.326.272-.383.606-.817.58-.03-.062-.061-.228-.092-.29.508.091.11-.613.524-.726.3-.082.3.242.386.435zM35.138 39.694c.151.099.187.354.182.532-.308-.106-.285-.019-.591 0-.006-.062.01-.133 0-.194.14-.2.236-.223.409-.338"/><path fill="#6D2F18" d="M27.639 40.614c.306.813-.737.784-.636.243.004-.021.04-.14.045-.146.169-.2.4-.107.591-.097"/><path fill="#EEC228" d="M18.324 34.13c-.07.004-.044.09-.046.145v.049l-1.818.217 1.363-1.04c.05.188.343.538.5.629"/><path fill="#F6DEB1" d="M34.866 33.114c1.3.006 2.606-.016 3.908-.049l.022.727 6.249-.195c-.94.072-1.876.099-2.818.146-2.961.146-5.919.234-8.884.194-1.889-.025-4.313-.378-6.112-.242-1.269-.127-2.549-.16-3.818-.29a36 36 0 0 1-1.59-.194c-.044-.006-.093.007-.137 0-.119-.018-.251-.03-.363-.049-.215-.036-.462-.098-.682-.145-.157-.034-.359-.062-.5-.097-.486-.122-1.177-.287-1.59-.58-.043-.032-.262-.18-.272-.195-.227-.325-.117-.569-.046-.919 1.356.872 3.26 1.109 4.84 1.307 3.777.472 7.98.563 11.791.58z"/><path fill="#DDAD71" d="M52.36 31.323c-2.632 1.163-5.725 1.36-8.565 1.548-1.665.11-3.353.153-5.021.194-1.302.032-2.608.055-3.909.049l.046-.727c4.542.023 10.832.031 15.2-1.064.601-.15 1.505-.39 1.932-.87.1.287.258.566.317.87"/><path fill="#EFC37E" d="m34.91 32.388-.045.726c-3.81-.018-8.016-.109-11.792-.58-1.579-.198-3.483-.434-4.839-1.308.04-.192.16-.524.228-.726 1.321.823 3.09 1.056 4.613 1.259 3.791.505 8.007.61 11.837.629zM52.36 31.323c.12.601.092.675-.408 1.016a5 5 0 0 1-.228.145c-.458.241-1.006.316-1.5.435-.21.052-.482.156-.681.195-.083.016-.19-.015-.272 0q-.135.025-.272.048c-.437.07-.877.159-1.319.194-.15.012-.315-.04-.454.049-.076-.005-.098.044-.182.048-.116.006-.177.035-.272.049-.064.008-.087 0-.091 0-.54-.037-1.096.055-1.636.097l-6.249.194-.022-.727c1.668-.04 3.356-.083 5.021-.194 2.842-.188 5.934-.386 8.566-1.547z"/><path fill="#F6DEB1" d="M31.639 22.759c.445.022.634.135.728.532-.072.494-.51.517-.818.194-.312-.415-.637-.763.091-.726z"/><path fill="url(#b)" d="M52.043 30.453c-.426.48-1.33.72-1.931.87-4.369 1.095-10.659 1.087-15.201 1.065-3.831-.02-8.046-.124-11.837-.63-1.522-.203-3.292-.435-4.613-1.258 1.023-3.049 3.54-5.498 6.18-6.968-.07.506-.619.928-.682 1.427-.07.54.36 1.837.682 2.275 1.58 2.155 4.306-.878 5.657-1.96.537-.43 1.29-.65 1.523-1.404.216.065.624-.257.637-.46.01-.178-.09-.113-.091-.12-.094-.399-.282-.51-.728-.533.05-.114.196.044.182-.169-.015-.24-1.016-1.011-1.227-1.185 7.367-1.393 18.486.636 21.45 9.049z"/><path fill="#F6DEB1" d="M40.75 26.92c.386-.117.928 1.375.137 1.404-.641.023-.474-1.083-.137-1.403M45.749 25.033c.273-.034.922.26 1.023.509.174.43-.325.774-.704.508-.162-.113-.575-.887-.318-1.015zM37.523 25.179c.223-.068 1.406.527.818 1.064-.589.537-1.14-.967-.818-1.064M42.477 29.098c.301-.065.631.28.568.604-.022.115-.581.745-.659.75-.374.022-.297-1.272.091-1.356zM43.75 27.018c.237-.115 1.505.72.727 1.16-.613.348-.946-1.055-.728-1.16M39.705 29.243c.343-.054 1.242 1.115.408 1.259-.72.125-.683-1.215-.408-1.259M37.934 23.388c.429-.063.607.156.613.604-.14.353-1.253.284-1.319 0-.046-.2.558-.583.704-.604zM29.707 28.711c.03-.011.57.116.637.146.712.314.396 1.133-.183.919-.25-.093-.735-.963-.454-1.065M25.186 29.63c-.066.401-.52.925-.909.678-.102-.117-.21-.355-.182-.51.044-.239 1.211-.893 1.09-.168M46.476 27.356c.48.061.541 1.132-.363.87-1.12-.322-.242-.948.363-.87M23.028 27.405c.276-.055.859 1.26.137 1.355-.791.104-.395-1.304-.137-1.356M43.705 23.534c.069-.017.716-.017.773 0 .305.09.343.75-.046.87-.346.107-1.432-.712-.727-.87M29.844 26.775c.249.014.505 1.018.182 1.21-.996.594-.73-1.24-.182-1.21M39.478 23.291c.184-.09 1.257.228 1.023.799-.38.927-1.384-.62-1.023-.799M35.41 28.855c.531.676-.336.963-.862.919-.306-.435.333-1.142.863-.919M35.865 23.92c-.104.425-.463.681-.863.775-.035-.015-.105.027-.137-.023l.091-.049c-.248-.632.372-1.712.909-.701zM28.366 28.566c.027.7-.295.814-.817.483-.212-.528.77-1.754.817-.483M33.662 26.824c1.074-.105.799 1.108-.091.774-.629-.235-.656-.701.09-.774M42.136 24.452c-.064.387-.757.693-1.046.436-.074-.168-.214-.322-.136-.558.077-.235.984-.333 1.182.121zM36.365 22.034c-.423.188-1.291.352-1.182-.386.263-.657 1.108-.089 1.227.217.011.028-.039.096-.045.17M37.138 27.115c-.37.428-.565.766-1.09.194.04-.688.514-.57 1.067-.63l.022.436zM32.956 25.373c.11.636-.526.561-.909.338-.922-.538.312-.776.75-.63.127.043.13.218.159.29z"/><path fill="#C97829" d="M34.547 29.776c.527.044 1.393-.244.862-.92.005.002 0-.095.092-.023.138.11.205.559.136.727-.12.29-.912.482-1.136.29-.051-.045.048-.07.046-.073zM36.048 27.307c.526.573.72.235 1.09-.194.042-.049.078-.154.137-.12.025.676-.61.92-1.113.604-.223-.142-.123-.136-.113-.29zM35.002 24.695c.4-.094.76-.35.863-.775.014.027.072-.082.091-.023.184.55-.527.983-.954.798M35.183 21.646c-.11.74.76.575 1.182.387-.016.173.012.201-.25.29-.437.146-1.13-.093-1.023-.653.008-.042.088-.02.09-.024M41.09 24.888c.29.257.982-.049 1.046-.436.002.006.084-.017.09.024.09.523-.912.879-1.203.46-.06-.068.07-.044.067-.049"/><path fill="#DD9034" d="M32.047 25.71c.384.224 1.02.298.909-.337.003.005.083-.018.09.023a.524.524 0 0 1-.999.315M24.278 30.308c.39.247.842-.277.908-.678.265.1-.3.783-.386.823-.245.113-.358.043-.524-.145zM27.55 29.05c.521.33.844.217.817-.484.393.611-.546 1.161-.818.483M31.821 23.872c-.087-.027-.229-.328-.272-.387.31.323.747.301.818-.194.001.007.102-.057.09.12-.012.202-.42.525-.636.46"/><path fill="#EFC37E" d="M30.594 21.405c.211.175 1.21.947 1.227 1.185.014.213-.13.056-.182.169-.729-.037-.403.312-.091.726.044.059.186.362.272.387-.233.752-.986.973-1.523 1.404-1.352 1.082-4.077 4.114-5.658 1.96-.321-.439-.75-1.735-.682-2.275.064-.5.613-.922.682-1.427 1.78-.991 3.974-1.754 5.954-2.129z"/><path fill="#F6DEB1" d="M28.503 25.662c-.196.353-.436.54-.817.29-.065-.09-.178-.158-.182-.17-.152-.566.754-.892 1.182-.677q-.038.298-.183.557M26.913 23.679c-.17.448-.697 1.086-1.09.532-.104-.357.035-.525.386-.678.35-.153.664-.263.704.146M29.14 23.001c-.167.546-.74 1.03-1.136.532-.114-.676.599-.569 1.023-.823.102.043.1.152.113.29z"/><path fill="#F9EACE" d="M25.277 26.097c-.107.198-.433.338-.636.387-.377-.355.047-1.203.432-1.113.248.057.329.495.204.726"/><path fill="#DDAD71" d="M28.004 23.533c.396.497.97.014 1.136-.532.07.78-1.013 1.27-1.136.532M27.685 25.953c.382.249.623.063.817-.29l.272-.265c-.132.583-.633 1.18-1.09.557zM24.64 26.485c.204-.049.53-.19.637-.387.202.128.224-.322.25-.338.275.462-.577.937-.908.823-.057-.019.044-.076.022-.096zM25.823 24.211c.393.554.92-.084 1.09-.532.068.695-.872 1.282-1.09.532"/><path fill="#BB8A2D" d="M46.68 33.5c-.556.087-1.211.225-1.772.339-.194-.068-.59-.15-.59.145-.088.02-.187.028-.273.048l.068-.193c-.358.11-.72.116-1.067.145-.21.018-.55.024-.728.048l.318-.168-.409-.121c.942-.046 1.878-.074 2.818-.146.54-.04 1.096-.133 1.636-.097"/><path fill="url(#c)" d="M52.27 34.759c.016.222.03 1.195 0 1.379-.011.066-.181.404-.228.46-.01.013-.214.147-.272.194-2.15 1.683-8.111 1.776-10.725 1.5-.335-.036-.666-.096-1-.146l1.114.097.067-1.307c.93.09 2.224.2 3.136.097.015-.001.03.002.045 0 .373-.062.742.018 1.113 0 2.195-.104 5.436-.434 6.612-2.564l.091-.023c-.041.111.04.247.046.314z"/><path fill="url(#d)" d="M21.868 36.356v1.306c-.979-.161-1.945-.358-2.84-.823l-.613-.483a10 10 0 0 1-.137-1.404c-.005-.17.009-.358 0-.532v-.146c.272.01.136.238.228.411.491.92 2.434 1.501 3.363 1.67z"/><path fill="#599C43" d="M52.632 32.92c-.05 1.432-1.192 1.44-2.226 1.548.132-.244.207-.722-.114-.823-.368-.116-.832.454-.932-.243.072-.082.14-.187.183-.29.197-.038.47-.142.682-.193-.02.145.121.094.204.097.45.016 1.06-.09 1.295-.533.03-.016.185-.116.228-.145.077.425.513.344.682.58z"/><path fill="#8ABB51" d="M18.552 32.34c-.582 1.215.09 1.388 1 1.644.037.01.198.097.227.146v.048c-.104.01-.21.13-.454.146-.313.02-.719-.03-1-.194-.155-.092-.448-.441-.499-.63-.156-.577.142-.94.454-1.355.01.015.23.163.272.194M52.543 33.743c-.064.147-.209.297-.272.435-.014.03-.032.07-.046.097-.027.056-.069.153-.09.194-.298.373-.72.31-1.137.29-.188-.01-.458-.153-.636-.146.008-.056-.036-.041-.046-.048-.008-.058.088-.091.091-.097 1.034-.11 2.177-.117 2.227-1.548.199.279.022.557-.091.823"/><path fill="#AA7C2C" d="m42.227 33.743.409.12-.318.17c-.268.037-.606.042-.863.097-4.47.15-9.062.283-13.519-.146-.036-.003-.01-.092-.045-.097-.177-.019-.539.106-.637.097-.058-.004.055-.085 0-.097-.1-.022-.385-.013-.386-.145.098-.02.266-.041.363-.049 1.799-.135 4.223.216 6.112.243 2.965.04 5.923-.049 8.884-.194z"/><path fill="#4C8B3F" d="M20.143 32.92c-.027.245-.481.244-.591.363-.207.225.034.47 0 .701-.912-.256-1.583-.429-1-1.645.413.294 1.105.459 1.59.581"/><path fill="#599C43" d="M21.822 33.211c-.233.67.24.932.796.726.241-.09.328-.435.658-.483.058.29-.119.104-.137.169-.024.092.03.314 0 .386-.345.88-2.541.67-1.453-.798.044.007.092-.006.136 0"/><path fill="#599C43" d="M21.688 33.21c-1.088 1.468 1.108 1.68 1.453.8.03-.074-.024-.295 0-.387.018-.065.195.119.137-.17h.046c.01.26.029.535.136.775a.5.5 0 0 0-.09.049c-.004-.365-.295.179-.387.242-.435.296-.956.334-1.454.146-.692-.262-.394-.665-.25-1.162.034-.119.067-.207.045-.338.114.02.245.031.363.049z"/><path fill="#A4852F" d="M27.23 33.695c-.097.007-.264.029-.362.048-.05.01-.108-.006-.16 0-.122.3.208.116.342.315l-.318.169c-.025-.008-.066.007-.09 0a26 26 0 0 0-.818-.243c-.026-.007-.065.008-.091 0-.101-.026-.192-.065-.318-.097-.541-.135-1.099-.328-1.681-.386-.08-.008-.289-.049-.318-.049v-.048c1.269.132 2.547.164 3.817.29z"/><path fill="#396933" d="M23.413 33.404v.048c-.03 0-.06-.003-.091 0h-.046c-.33.049-.416.394-.658.484-.555.206-1.029-.056-.795-.726.524.078 1.063.138 1.59.194"/><path fill="#599C43" d="M20.642 33.017c-.369.011-.256.37-.637.386-.018.01-.052-.004-.045.049l.09.435-.045.048c-.062.068-.154.136-.227.194-.03-.048-.191-.135-.228-.145.034-.234-.207-.478 0-.701.11-.12.564-.118.59-.363.141.035.343.063.5.097z"/><path fill="#487637" d="M20.642 33.017c.22.045.467.107.682.145.022.133-.01.22-.045.339a.7.7 0 0 0-.228.242c-.232-.06-.447-.185-.682-.242-.012-.095-.308-.124-.363-.097.38-.017.268-.377.636-.387"/><path fill="#E53825" d="m28.322 36.404-.023 1.258 1.25-.145c-1.07.223-2.045.336-3.135.386a22.5 22.5 0 0 1-3.955-.145v-1.259c1.737.238 4.12.134 5.863-.097z"/><path fill="#EEC228" d="M44.045 34.032q-.753.178-1.5.387c-.423.12-.854.248-1.272.387-.3.098-.61.227-.909.338-.05.019-.13.03-.182.048-.055.02-.142.081-.182.097-.496.194-.878.349-1.363.581-.272.13-.505.24-.773.387-.53.29-.872.517-1.363.87-.138.1-.272.182-.408.29-.503.393-1.012.786-1.409 1.306-.358-.216-.945-1.015-1.34-1.355-.302-.259-.69-.509-1.023-.726-.026-.016-.065-.033-.091-.049-.485-.309-.94-.529-1.454-.775-.167-.079-.33-.164-.5-.242-.247-.372-1.473-.516-1.703-.775-.054-.06-.11-.103-.046-.194.162.038.319.096.478.146 2.044.65 4.146 1.767 5.612 3.435 1.612-1.555 3.555-2.61 5.612-3.338.86-.305 1.724-.53 2.614-.726.05-.012.236-.053.204-.146.347-.028.71-.035 1.067-.145l-.067.194z"/><path fill="#E53825" d="M22.46 36.501v1.258c-.197-.025-.396-.064-.592-.097v-1.307c.141.025.332-.022.478 0 .04.006.105.145.113.146"/><path fill="#F1846B" d="M44.408 37.033c.569-.073 1.022-.232 1.408-.678.009-.008.023-.017.046-.048 1.19-.044 2.535-.23 3.68-.58.549-.168 1.254-.317 1.454-.968.417.02.84.084 1.137-.29-1.177 2.13-4.417 2.461-6.612 2.564-.371.018-.74-.062-1.113 0"/><path fill="#E53825" d="m41.228 36.936-.068 1.307-1.113-.097c-.119-.018-.244-.028-.363-.049.006-.179-.306-.048-.363-.169-.066-.14.05-1.05 0-1.281.593.114 1.313.233 1.908.29z"/><path fill="#F1846B" d="M39.137 36.017c.091-.006.487.131.637.146.488.048 1.246.065 1.681.145.507.094 1.056.463 1.613.581.43.09.866.072 1.295.145-.913.103-2.206-.007-3.136-.096a22 22 0 0 1-1.908-.29 11 11 0 0 1-.863-.194c.047-.112.469-.365.546-.387.051-.014.054-.042.137-.048z"/><path fill="#81457E" d="m40.365 35.145.272.17c.034.096-.044.114-.046.12-.002.013-.187-.047.022.145.884.806 3.034 1.353 4.135 1.162.379-.066.709-.284 1.068-.387-.387.446-.84.604-1.409.678-.015.001-.03-.002-.045 0-.43-.074-.866-.055-1.295-.146-.557-.117-1.108-.486-1.613-.58v-.049c.113-.063-.068-.04-.091-.048-.322-.134-.532-.32-.817-.484-.09-.051-.17-.19-.182-.194l.09-.12-.271-.218c.05-.02.13-.03.182-.049"/><path fill="#599C43" d="M47.044 33.452c.68.48.33 1.445-.318 1.742-.094-.01-.508.106-.59.097-.098-.01-.122-.035-.183-.049a7 7 0 0 1-.409-.194c-.06-.038-.251-.257-.363-.338-.065-.047-.19-.236-.295-.194-.145.097-.02.197-.023.243-.124.004-.108.185-.182.29-.047-.215-.308.1-.477.096-.301-.004-.873-.438-1.113-.483.06-.015.176-.068.228-.097.564.467 1.198.326 1.181-.532.192-.055.344-.093.546-.097h.045c.459.417.554.964 1.295.87.564-.07 1.066-.94.387-1.258v-.05c.097-.012.156-.042.272-.048z"/><path fill="#8ABB51" d="M47.226 33.403c.3.018.297.177.363.436.014.054.043.119.046.145.075.603-.15 1.001-.636 1.307-.052-.016-.24-.093-.272-.097.647-.297.998-1.263.317-1.742.084-.005.106-.053.182-.049"/><path fill="#599C43" d="M47.59 33.84c-.067-.259-.064-.419-.364-.435.14-.088.304-.037.454-.048.402.45.942.151 1.319-.194q.139-.024.272-.049c-.236.609-.623.662-1.159.678-.066.001-.127-.146-.136-.146-.021 0-.27.216-.387.194"/><path fill="#396933" d="M46.68 33.5s.029.01.092 0v.049c-.279.778-1.118.388-1.682.387h-.045c-.003-.027-.129-.094-.137-.097.56-.115 1.216-.252 1.773-.338"/><path fill="#8ABB51" d="M49.542 33.114c-.041.104-.11.209-.182.29-.313.357-.649.473-1.045.677-.072-.012-.036-.104-.068-.097-.01.003-.067.138-.136.194-.054.043-.065-.051-.068-.048l-.409-.146c-.002-.026-.031-.09-.045-.145.117.022.364-.194.386-.194.01 0 .07.147.137.145.537-.016.922-.069 1.158-.678.085-.014.191.017.272 0z"/><path fill="#4C8B3F" d="M51.724 32.485c-.235.442-.845.548-1.295.532-.083-.003-.224.048-.205-.097.493-.12 1.041-.194 1.5-.435"/><path fill="#396933" d="M48.998 33.162c-.377.344-.916.646-1.319.194.44-.035.882-.125 1.319-.194"/><path fill="#F1846B" d="M19.324 34.324c.005.57.545.527.84.726.054.037.205.297.363.387.438.247.954.208 1.432.29 1.817.31 3.662.395 5.5.193.216.013.304-.014.499-.097.347.068.704-.062 1.045-.097.11.315.714.359 1 .387-.55.145-1.12.216-1.682.29-1.742.23-4.125.333-5.862.096-.008 0-.073-.14-.113-.145-.147-.022-.336.025-.478 0-.93-.168-2.87-.748-3.363-1.67-.093-.174.044-.401-.228-.412.002-.056-.025-.14.046-.145.28.164.686.214 1 .194z"/><path fill="#4C8B3F" d="M50.407 34.47s-.1.037-.091.096c-.204-.145-.282-.278-.545-.387-.058-.023-.236-.145-.25-.145s-.19.125-.25.145c-.35.086-.619-.038-.954-.096.396-.205.732-.321 1.045-.678.098.695.563.125.932.242.32.102.246.578.113.824z"/><path fill="#F05430" d="M20.097 34.178c-.014.215.399.43.409.46.04.122-.475.194.022.604l1.431.484c-.476-.08-.994-.043-1.431-.29-.16-.09-.31-.35-.363-.386-.296-.199-.836-.154-.841-.726.244-.017.349-.136.454-.146s.214.008.318 0"/><path fill="#A62E23" d="M20.914 33.984a4 4 0 0 0-.046.194c-.255.013-.517-.017-.773 0-.105.008-.214-.01-.317 0v-.048c.072-.06.164-.127.228-.195.21.234.63-.035.908.05"/><path fill="#E53825" d="M50.361 34.613c.178-.007.45.137.637.146-.2.651-.906.8-1.454.967-.188-.156.222-.257.182-.508-.01-.067-.172-.178-.227-.218.044-.015.092-.032.136-.049.227-.083.478-.329.728-.338z"/><path fill="#E53825" d="M50.316 34.565c.01.006.052-.008.045.048-.25.01-.5.256-.727.339l-.272-.29c.083-.053.312-.391.408-.484.264.11.341.243.546.387"/><path fill="#D9AD28" d="M26.867 33.743c.002.132.287.123.387.145.055.012-.058.092 0 .097.098.01.458-.114.636-.097.036.005.01.093.046.097 4.456.43 9.048.294 13.519.146-.46.098-1.38.453-1.863.629-.247.091-.484.19-.727.29l.022-.146-8.43.097c-.456-.15-.97-.338-1.454-.242-.157-.05-.316-.108-.478-.146-.063.091-.008.132.046.194.23.257 1.458.401 1.704.775-.122-.055-.245-.094-.363-.146-.348-.15-.698-.251-1.046-.386-.102-.04-.167-.043-.182-.049-.005-.003.049-.044-.091-.097-.122-.046-.239-.1-.363-.145-.493-.18-1.001-.378-1.5-.533l.318-.169c-.134-.198-.464-.014-.34-.314.05-.006.108.01.158 0z"/><path fill="#E5C762" d="M40.228 34.856c-.165-.116-.602.149-.637-.097.482-.176 1.403-.53 1.863-.63.257-.053.596-.06.863-.096.178-.025.516-.031.727-.049.032.093-.154.134-.204.146-.89.195-1.754.422-2.614.726z"/><path fill="#8ABB51" d="M23.413 33.452c.03 0 .238.04.318.049v.048c-.511.323.113 1.04.567 1.113.67.107.983-.262 1.432-.678.026.008.065-.007.091 0 .077.113.014.085-.046.146-.189.19-.357.325-.408.629v.048c-.04-.003-.758.081-.796.097-.15.064-.085.37-.113.435-.208.496-.716.465-1.136.29-.004-.144.039-.117.137-.12.444-.014.943.078.954-.581-.073-.087-.183-.112-.272-.17-.285-.18-.508-.145-.682-.531-.108-.24-.125-.513-.137-.775.029-.003.06 0 .091 0"/><path fill="#8ABB51" d="M23.368 34.275c-.17.177-.416.483-.637.581a2.1 2.1 0 0 1-.863.146c-.498-.02-1.027-.192-1-.824 0-.01.038-.16.046-.194.004-.013.112-.2.137-.242a.7.7 0 0 1 .228-.243c-.144.497-.442.9.25 1.162.5.19 1.018.15 1.453-.146.093-.063.384-.606.387-.242z"/><path fill="#4C8B3F" d="M24.141 34.759c-.18.151.122.473-.25.435-.268-.794-1.038-.453-.704.338-.073-.051-.279-.228-.317-.29-.04-.061-.104-.3-.137-.386.22-.099.467-.404.636-.58a.5.5 0 0 1 .091-.05c.174.387.398.352.682.533"/><path fill="#599C43" d="M26.731 34.227c.499.154 1.007.353 1.5.532-.134.611-1.01.586-1.432.386-.14-.066-.258-.282-.341-.338l.182-.58c.025.007.066-.008.091 0"/><path fill="#4C8B3F" d="M25.414 33.889c-.406.616-1.712.572-1.682-.338v-.049c.583.059 1.14.252 1.682.387"/><path fill="#599C43" d="M23.732 33.549c-.03.911 1.276.954 1.682.338.127.03.216.069.317.097-.448.416-.76.785-1.431.678-.456-.074-1.08-.79-.568-1.113"/><path fill="#8ABB51" d="m26.64 34.227-.183.58c-.218-.148-.17.006-.408-.096.007-.202-.167-.428-.272-.581.06-.06.123-.031.045-.146.28.077.543.158.818.243"/><path fill="#396933" d="M45.045 33.937a2 2 0 0 0-.546.097c-.354.102-.858.343-1.181.532a1.2 1.2 0 0 1-.228.098 1 1 0 0 0-.228 0c-.015.002-.03-.002-.046 0l-.272-.243q.746-.209 1.5-.387c.085-.02.186-.029.272-.048.194-.044.396-.106.59-.146.009.003.135.07.137.097z"/><path fill="#D99F30" d="M44.908 33.84c-.194.04-.395.101-.59.146 0-.294.396-.213.59-.146"/><path fill="#F05430" d="M21.051 33.743a6 6 0 0 0-.137.243c-.277-.084-.7.187-.908-.049l.045-.048c.114-.122.195-.268.318-.387.233.056.449.182.682.243z"/><path fill="#EE936D" d="M20.369 33.5c-.123.12-.205.265-.318.387l-.091-.435c.124.004.29.02.409.048"/><path fill="#965634" d="M20.37 33.5a2.4 2.4 0 0 0-.41-.048c-.007-.053.027-.04.046-.048.057-.027.35.001.363.097"/><path fill="url(#e)" d="M32.23 36.598c-.831.509-1.752.726-2.681.919l-1.25.145.022-1.258c.562-.075 1.132-.144 1.682-.29.113-.03.257-.061.363-.097.124-.04.282-.14.409-.194.513.246.969.465 1.454.775"/><path fill="#F8E596" d="M30.457 35.002c1.515.496 3.051 1.562 4.159 2.757a14.3 14.3 0 0 1 4.25-2.709c.242-.101.478-.2.727-.29.034.246.472-.019.636.097-2.057.728-4 1.784-5.612 3.339-1.466-1.669-3.567-2.786-5.612-3.436.485-.097.998.093 1.454.243z"/><path fill="#A62E23" d="M37.864 36.258c.164.06.333.097.5.146-.032.18-.43.353-.454.46-.033.143.276 1.114.363.484l-.046.46c-.548-.136-1.313-.265-1.727-.678.49-.354.834-.58 1.363-.87z"/><path fill="#7E1F17" d="m42.545 34.42.271.243-.908.435c-.102-.025-.257-.03-.318-.048-.174-.056-.222-.038-.317-.243.418-.138.849-.269 1.273-.386z"/><path fill="#A62E23" d="m40 35.29.182.243c-.11.012-.982.353-1.045.484-.083.006-.086.034-.137.048l-.363-.194c.485-.232.867-.386 1.363-.58"/><path fill="#7E506E" d="M41.59 35.05v.048c-.137-.017-.213.094-.227.097-.106.02-.086.047-.091.049-.11.038-.31.02-.432.097-.09.107.12.161.158.194l.046.194c-.153-.093-.33-.149-.454-.29 0-.006.08-.025.045-.12l-.272-.17c.298-.11.61-.239.909-.337.095.202.143.186.317.242z"/><path fill="#B84E30" d="m38.637 35.872.364.194c-.078.022-.499.276-.546.386-.04-.011-.05-.036-.091-.048-.167-.047-.335-.085-.5-.146.268-.147.5-.255.773-.386M30.274 35.582c.17.076.333.161.5.242-.127.053-.284.153-.409.194-.023-.108-.6-.38-.636-.386l.182-.194c.12.051.242.09.363.145z"/><path fill="#5B1E1F" d="M40.365 35.533a.8.8 0 0 0-.183 0L40 35.291c.04-.016.127-.077.182-.097l.272.217-.09.121z"/><path fill="#E53825" d="M49.497 35.002c.054.04.217.15.228.217.04.251-.369.351-.183.509-1.145.35-2.492.536-3.68.58.105-.135.22-.311.272-.483.016-.056.034-.065.045-.146l.637-.097c.577.547 1.915.475 1.862-.435.287.03.551-.054.818-.145z"/><path fill="#B78EC1" d="M40.59 35.437c.125.142.303.198.455.29 1.439.87 3.83 1.65 5.089.096a1.7 1.7 0 0 1-.272.484c-.023.03-.037.04-.046.048-.36.103-.69.322-1.067.387-1.101.191-3.251-.356-4.135-1.161-.21-.193-.024-.133-.022-.146z"/><path fill="#C52126" d="M38.455 36.452c.28.078.578.138.863.194.05.23-.066 1.144 0 1.282.056.12.369-.01.363.169a20 20 0 0 1-1.454-.29l.046-.46c-.087.631-.396-.34-.363-.483.025-.108.422-.28.454-.46.04.011.051.036.091.048"/><path fill="#E53825" d="M40.364 35.534c.013.004.093.142.182.194-.029.055-.167.227-.204.242-.196.075-.672-.045-.567.194-.148-.014-.546-.151-.637-.145.064-.133.935-.472 1.045-.484a.8.8 0 0 1 .183 0z"/><path fill="#E53825" d="m41.364 36.211.09.049v.049c-.434-.081-1.192-.096-1.68-.146-.104-.24.372-.12.567-.194.037-.015.175-.187.204-.243.286.163.497.35.817.484z"/><path fill="#8B5C8A" d="m41.453 36.259-.09-.049c.021.009.204-.015.09.049"/><path fill="#E8DDEA" d="M45.953 35.243c.043 1.218-1.63 1.342-2.477 1.258-.621-.062-1.978-.564-2.477-.967-.04-.033-.248-.087-.158-.194.121-.077.321-.06.432-.097 1.025.852 3.795 1.653 4.271-.194.032.02.386.188.409.194"/><path fill="#E8DDEA" d="M45.18 34.71c.426.785-.381 1.241-1.023 1.307-.94.096-2.024-.26-2.795-.823.014-.003.09-.114.228-.097.156.02.758.41 1.023.484.517.142 2.074.316 2.25-.412.023-.098-.012-.29 0-.411.003-.046-.124-.146.021-.243.107-.043.23.147.296.194z"/><path fill="#599C43" d="M45.09 33.937c.563.001 1.403.39 1.681-.387.68.32.178 1.188-.386 1.259-.741.092-.837-.453-1.295-.87z"/><path fill="#81457E" d="M46.136 35.29c-.003.044.04.05.045.098.008.078.01.216 0 .29-.011.08-.029.09-.045.145-1.26 1.554-3.65.775-5.09-.097l-.045-.194c.497.404 1.855.906 2.477.967.846.084 2.52-.04 2.477-1.258.06.013.085.038.182.048z"/><path fill="#E53825" d="M44.862 34.759c-.01.12.024.312 0 .412-.175.727-1.734.554-2.249.411-.265-.073-.865-.463-1.023-.483v-.049c.061.02.216.024.318.049.606.148 1.763.347 2.364.242.255-.044.274-.097.408-.29.073-.104.058-.286.182-.289z"/><path fill="#8ABB51" d="M48.589 34.904c.012.072.084.133.09.243.053.911-1.286.982-1.861.435-.009-.009-.006-.21-.068-.243-.055-.027-.478-.008-.568.049-.004-.049-.048-.054-.045-.097.083.009.495-.106.59-.097.035.003.222.08.273.097.004 0-.09.066.022.097.291.078.574.212.886.145.367-.077.4-.502.682-.629z"/><path fill="#C7B3C8" d="M45.545 35.05c-.477 1.848-3.246 1.047-4.272.194.004-.001-.017-.03.091-.048.77.563 1.856.918 2.794.823.642-.066 1.45-.522 1.023-1.307.114.08.304.3.364.338"/><path fill="#599C43" d="M44.5 34.033c.016.858-.617 1-1.182.532.323-.191.827-.43 1.182-.532"/><path fill="#8ABB51" d="M43.09 34.662c.241.046.811.48 1.112.484.17.002.431-.312.478-.097-.134.194-.153.245-.408.29-.486-.146-1.14-.124-1.409-.678a1 1 0 0 1 .228 0z"/><path fill="#599C43" d="M48.044 34.13c-.2.22.227.58.136.992-.043.196-.302.193-.272.412-.31.066-.595-.066-.886-.146-.112-.03-.018-.095-.022-.097.487-.305.71-.702.636-1.307z"/><path fill="#599C43" d="M48.317 34.081c.337.06.605.183.954.097-.168.056-.734.278-.773.412-.03.106.035.159.046.217.008.046.037.052.045.098-.283.124-.314.55-.682.629-.03-.22.23-.215.272-.412.091-.411-.337-.77-.136-.992.002-.003.015.091.067.048.07-.054.126-.19.137-.194.032-.007-.003.084.068.097z"/><path fill="#E53825" d="M20.868 34.178c-.027.63.502.803 1 .823.305.175.647.315 1 .243.04.062.244.24.317.29.046.032.086.076.137.097.42.175.927.204 1.136-.29.424-.11.953.297 1.34.194.15-.04.221-.306.433-.242.33.317.773.602 1.227.629-1.838.203-3.682.116-5.499-.194l-1.432-.484c-.497-.41.017-.484-.022-.604-.01-.031-.422-.246-.409-.46.256-.018.517.013.774 0z"/><path fill="#8ABB51" d="M28.594 34.904c.14.053.084.094.091.097-.076.324-.43.697-.727.824-.195.082-.283.108-.5.097-.454-.027-.897-.312-1.227-.63-.06-.057-.086-.244-.183-.338.115-.247.366.212.478.29.8.566 1.571.688 2.068-.338z"/><path fill="#E53825" d="M28.867 35.05c-.192 0-.017.165.022.194.204.153.464.22.659.387-.12-.005-.387.08-.546.097-.34.035-.698.163-1.045.097.297-.127.652-.499.728-.824.015.006.08.01.182.049"/><path fill="#F05430" d="M29.549 35.63c.058.002.127-.008.182 0 .036.006.613.28.637.387-.107.035-.25.066-.363.097-.288-.03-.89-.072-1-.386.159-.017.425-.1.545-.097z"/><path fill="#7E1F17" d="M49.77 34.178c-.096.093-.325.431-.408.484-.239.151-.55.15-.817.145-.011-.06-.076-.113-.046-.217.039-.134.605-.356.773-.412.061-.02.236-.145.25-.145s.192.12.25.145z"/><path fill="#A62E23" d="m49.634 34.953-.137.048c-.267.092-.53.177-.817.146-.006-.109-.079-.17-.091-.243-.009-.045-.038-.051-.046-.097.27.005.578.006.817-.145l.272.29z"/><path fill="#EEC228" d="M38.864 35.05a14.4 14.4 0 0 0-4.25 2.71c-1.106-1.196-2.642-2.262-4.158-2.759l8.43-.097z"/><path fill="#599C43" d="M26.459 34.808c.083.055.201.273.341.338.421.2 1.298.224 1.432-.387.124.045.241.1.363.145-.496 1.027-1.268.906-2.068.339-.11-.078-.364-.537-.478-.29l-.046-.049c-.033-.088.044-.15.046-.194.239.103.19-.051.409.097z"/><path fill="#A62E23" d="M28.867 35.05c.348.137.697.236 1.045.386l-.182.194c-.056-.008-.123.002-.183 0-.196-.169-.455-.233-.658-.386-.039-.03-.216-.193-.022-.194"/><path fill="#7E1F17" d="M25.368 34.807c.134.008.56.37.545.049.025.012.075.035.091.048l.046.049c.097.095.123.282.182.338-.211-.063-.283.203-.432.243-.388.102-.917-.305-1.34-.194.027-.067-.038-.372.113-.436.037-.016.755-.098.795-.097"/><path fill="#599C43" d="M24.141 34.759c.09.057.2.082.272.169-.011.659-.51.567-.954.58-.098.004-.14-.021-.137.121-.05-.02-.09-.064-.136-.097-.333-.792.436-1.132.704-.338.371.038.07-.284.25-.435z"/><path fill="#4C8B3F" d="M26.05 34.71c-.002.045-.078.105-.046.195-.016-.014-.067-.037-.091-.049-.202-.096-.292-.128-.546-.097.051-.304.22-.438.409-.63.105.154.28.38.272.582z"/><path fill="#6D2F18" d="M25.914 34.856c.013.322-.412-.04-.546-.049v-.048c.254-.031.344.001.546.097"/><path fill="#A62E23" d="M22.733 34.856c.033.087.098.328.136.387-.352.073-.694-.067-1-.243.277.01.61-.03.864-.145zM44.272 35.34c-.6.104-1.756-.093-2.364-.243l.909-.435c.015-.002.03.003.045 0 .27.554.924.532 1.408.678z"/><path fill="#C52126" d="m46.816 35.582-.636.097c.01-.075.008-.213 0-.29.09-.057.512-.076.567-.048.062.032.06.234.068.243z"/></g><defs><linearGradient id="b" x1="21.948" x2="50.188" y1="22.613" y2="33.307" gradientUnits="userSpaceOnUse"><stop offset=".24" stop-color="#E6A94F"/><stop offset=".91" stop-color="#C46928"/></linearGradient><linearGradient id="c" x1="51.738" x2="41.606" y1="36.376" y2="36.502" gradientUnits="userSpaceOnUse"><stop stop-color="#AF1F23"/><stop offset="1" stop-color="#F0502A"/></linearGradient><linearGradient id="d" x1="18.72" x2="21.546" y1="35.707" y2="36.195" gradientUnits="userSpaceOnUse"><stop stop-color="#BA2025"/><stop offset="1" stop-color="#DF2F26"/></linearGradient><linearGradient id="e" x1="30.98" x2="28.589" y1="36.548" y2="36.862" gradientUnits="userSpaceOnUse"><stop stop-color="#A91E23"/><stop offset="1" stop-color="#D82C27"/></linearGradient><filter id="a" width="70" height="70" x="0" y="0" color-interpolation-filters="sRGB" filterUnits="userSpaceOnUse"><feFlood flood-opacity="0" result="BackgroundImageFix"/><feBlend in="SourceGraphic" in2="BackgroundImageFix" result="shape"/><feColorMatrix in="SourceAlpha" result="hardAlpha" values="0 0 0 0 0 0 0 0 0 0 0 0 0 0 0 0 0 0 127 0"/><feMorphology in="SourceAlpha" radius="3" result="effect1_innerShadow_356_97323"/><feOffset/><feGaussianBlur stdDeviation="1"/><feComposite in2="hardAlpha" k2="-1" k3="1" operator="arithmetic"/><feColorMatrix values="0 0 0 0 0 0 0 0 0 0 0 0 0 0 0 0 0 0 0.08 0"/><feBlend in2="shape" result="effect1_innerShadow_356_97323"/></filter></defs></svg>