<svg xmlns="http://www.w3.org/2000/svg" width="70" height="70" fill="none"><g filter="url(#a)"><path fill="#fff" fill-opacity=".75" d="M0 35C0 15.67 15.67 0 35 0s35 15.67 35 35-15.67 35-35 35S0 54.33 0 35"/><path fill="#CEB5B7" d="M13.9 19.79c-1.735.864-3.382 1.92-5.138 2.75-.012-.026.009-.086-.075-.073.126-.635.411-1.23.378-1.896l.189-.186c.06-.039.672-.113.794-.149a36 36 0 0 1 3.777-.818z"/><path fill="#F6956F" d="M16.015 20.162c1.034.854 1.208 1.172 1.36 2.454l-2.948-.819c-.004-.486.137-.897 0-1.337.05-.304.126-.637.227-.93-.057-.209-.622.194-.756.26l-.076-.372c.202-.029.826-.171.946-.149.075.015 1.113.784 1.245.893z"/><path fill="#F0A271" d="m9.972 31.387 4.306 4.832c-.542-.184-1.292-.79-1.85-.967-.183-.058-.32-.151-.34.149-.438-.296-1.324-.728-1.662-1.042-.404-.374-2.672-4.38-2.872-4.981L9.67 31.05l-.529-6.132c.521 1.94.164 4.534.832 6.467z"/><path fill="#DC784F" d="M14.127 21.722c-.078.259.019.04.075.26-.048.077-.042-.08-.226.038-.34.217-.719.465-1.06.67-.657.394-1.358.756-2.039 1.116-.594.312-1.315.589-1.813 1.041H8.99c.031-.442-.124-1.287-.227-1.746.145.335-.151.63-.151.67 0 .055.149.018.15.074.02.399.045.843.152 1.226-.071.527-.428 1.655-.68 2.118-.01.02-.307.312-.379.26.303-1.647.505-3.344.832-4.98.084-.013.063.047.076.074.023.047-.05.174.113.149l5.252-.968z"/><path fill="#DC784F" d="m9.14 24.92.53 6.132-2.116-1.672c-.193-.583.183-1.285.303-1.932.071.051.367-.24.378-.26.252-.464.609-1.592.68-2.12.017-.125.072-.17.076-.223h.076c.073-.008.063.027.075.075z"/><path fill="#CF3F2D" d="M17.377 22.615c.092.773-.015 1.536.226 2.23v.075c-.33-.285-.674-.587-.983-.893-.661-.655-1.405-1.606-2.266-1.933-.028-.206.075-.28.075-.297z"/><path fill="#D6D8D9" d="M14.43 20.46c-.076.452-.17.824-.303 1.262l-5.251.968c-.164.026-.09-.102-.114-.15 1.756-.83 3.403-1.886 5.138-2.75.135-.066.698-.47.756-.26-.1.293-.176.624-.226.93"/><path fill="#CF5A47" d="M14.429 21.797c0 .014-.103.09-.076.297.009.067.135.64.152.67-.074.068-.192.056-.227.075-.147.053-.668-.091-.719-.075-.386.124-2.15.96-2.606 1.189l-.076-.15c.68-.357 1.382-.719 2.04-1.115l1.058-.67c.185-.118.179.04.227-.037-.056-.221-.153 0-.075-.26.132-.44.226-.81.302-1.264.137.443-.004.854 0 1.338zM19.492 35.029c.308.291.705 1.757.907 2.23l-.907 1.635c-.719-.273-1.467-.447-2.191-.744.073-.596-2.678-1.513-2.645-1.747.28-.149.553-.337.832-.483.342-.178 2.002-.978 2.266-1.042.505-.12 1.374-.194 1.738.149z"/><path fill="#DC784F" d="M14.278 36.22c.086.028.128.088.19.148l1.02-.446c-.28.144-.55.334-.832.483-.033.234 2.719 1.151 2.645 1.747-2.008-.82-3.422-1.54-5.214-2.751.021-.3.158-.207.34-.15.56.179 1.31.784 1.851.968"/><path fill="#CF3F2D" d="M21.607 39.786c.11.29.183.693.303.968-.822-1.106-1.135-1.37-2.418-1.858l.907-1.635c.366.862.628 1.785 1.208 2.527z"/><path fill="#DC784F" d="M14.43 33.468c.172.08.285.28.491.372.901.41 1.905.688 2.834 1.042-.265.062-1.924.862-2.267 1.041l-1.02.447c-.062-.06-.104-.12-.19-.149L9.972 31.39c.095-.066.248-.031.34 0 1.084.374 2.933 1.525 4.118 2.081z"/><path fill="#FADCC2" d="M8.989 24.845c-.004.052-.059.098-.076.224-.107-.383-.132-.83-.15-1.226-.003-.056-.15-.019-.152-.075 0-.037.296-.332.151-.67.103.462.256 1.305.227 1.747"/><path fill="#F6956F" d="m13.976 22.02-1.059.67c.34-.205.716-.45 1.059-.67M17.601 24.92c.01.297-.082.64-.075.893-.444-.434-.794-1.13-1.208-1.56l.302-.224c.31.306.651.608.983.893z"/><path fill="#CF5A47" d="m16.62 24.027-.302.223c-.33-.34-1.704-1.288-1.813-1.486a10 10 0 0 1-.151-.67c.861.327 1.605 1.278 2.267 1.933"/><path fill="#E5613D" d="M14.278 22.837c-.476.237-2.31 1.167-2.569 1.486-.241-.087-1.44.32-1.283-.112.155-.126.353-.172.53-.26.455-.23 2.22-1.065 2.606-1.189.048-.017.571.128.718.075zM12.993 31.759c-.204.27-.805-.476-.908-.633-.37-.558-1.086-2.157-1.359-2.825-.09-.22-.28-.626-.151-.856.21.593 1.991 3.657 2.418 4.312z"/><path fill="#CF3F2D" d="M10.953 23.952c-.176.09-.374.135-.53.26-.157.433 1.043.026 1.284.112-.09.11-1.18 2.427-1.208 2.565-.054.271-.012.31.076.558-.128.23.06.635.151.856.275.668.992 2.267 1.36 2.825.102.155.7.904.907.633.411.632.947 1.14 1.434 1.71-1.184-.557-3.035-1.708-4.117-2.082-.092-.031-.245-.066-.34 0-.668-1.933-.31-4.526-.832-6.467-.012-.048 0-.083-.075-.075.497-.45 1.218-.727 1.812-1.041l.076.148z"/><path fill="#CF5A47" d="M10.388 27.892c.242.233.05.926-.075 1.188z"/><path fill="url(#b)" d="M39.89 16.816c.12.068.095.066.151-.074 1.906-.05 3.345.905 4.76 2.378l.152.856.453.484c-.254.884-1.26 1.312-1.888 1.932l-5.44 2.082c-.33-.087-.209-.06-.53-.075-1.743-.08-4.577.07-6.346.223-.4.035-.991.017-1.359.15l-3.363-.447c-.13.058-.08 2.313-.038 2.49.061.257.013.19.303.186-.076.054-.147.255-.303.298-.04.01-.102-.006-.15 0-.142-.356-5.078-3.799-5.82-4.311-.016-.013-.058.012-.075 0-1.012-.701-2.038-1.348-2.985-2.156-.302.132.17 1.713.19 1.97.047.671-.026 1.372 0 2.044-.242-.695-.135-1.457-.228-2.23-.151-1.282-.327-1.6-1.359-2.454.303.186.557.325.945.149.6-.27 1.748-2.102 2.532-2.528l-.227.67c-.24.205-.16.285-.227.372s-.433.403-.454.484c-.082.324.252 1.674.454 1.97.315.46 1.35.758 1.813.967 1.51.68 3.369 1.316 5.062 1.486.172.051.485.204.643.223 3.588.442 10.536-.01 13.94-1.116.077-.025.18-.033.302-.075.832-.285 1.11-.357 1.888-.818.387-.23.756-.389 1.059-.744.2-.083-.04-.178-.114-.223-.403-.242-2.97-1.309-3.325-1.412-1.134-.335-3.43-.304-4.382-.67-.447-.171-2.201-2.49-2.758-2.9 1.983.137 3.962.41 5.93.67.502.066.315-.12.794.149"/><path fill="#B8D2EB" d="M33.166 15.998c.557.409 2.308 2.726 2.758 2.9.952.365 3.247.334 4.382.669.355.105 2.922 1.172 3.325 1.412.074.045.313.14.113.223-2.705-1.385-5.438-1.939-8.46-2.23-1.652-.16-3.404-.269-5.063-.224a12 12 0 0 0-1.36-.818c.293-.184 1.286.616 1.473.595l2.153-2.602c.364-.008.404.056.681.075z"/><path fill="#C3C6CF" d="m32.485 15.923-2.153 2.602c-.189.021-1.18-.779-1.472-.595-.462-.242-1.084-.62-1.51-.818l-.757-.484c1.64-.325 3.376-.517 5.063-.633.281-.018.54-.068.831-.074z"/><path fill="#CB7769" d="M45.33 22.467c.14.94-.153 3.036-.226 4.088-.315.085-.082.655-.151.856-.057.165-.521-.019-.681.297-.067.135-.013.705-.378.93-.286-.11-.454-.103-.756-.297l.15-1.116 1.663-5.167.302-.075c-.065.174.06.38.076.484z"/><path fill="#DFF3FD" d="M31.656 15.998c-1.687.115-3.422.305-5.063.632l.757.484c-.234-.108-.855-.405-1.06-.447-.762-.157-1.953.126-2.757.223-.32.038-.8-.107-.983-.074-.067.012-.175.217-.19.223-.296.116-2.791 1.375-2.909 1.486-.067.066-.178.13-.075.224.063.064.977.09.87.372-.372-.108-.807-.352-1.208-.298.067-.087-.013-.166.227-.372.497-.428 1.554-.51 1.926-1.116l.075.149-.037-.373c2.251-.903 8.232-1.847 10.614-1.558.025.004.294.242.491.186l-.68.26z"/><path fill="#A84C56" d="M45.33 22.467c-.014-.104-.14-.31-.075-.484l-.302.074-1.662 5.167.076-4.609c.04-.039.111-.183.15-.223.629-.62 1.637-1.048 1.89-1.932h.075a16 16 0 0 1-.151 2.007"/><path fill="#90463D" d="M44.952 29.306c-.164 1.043-.689 2.197-.832 3.271-.292.017-.875.108-1.207.15z"/><path fill="#DC784F" d="M45.104 26.555c-.057.816-.04 1.645-.152 2.453-.372-.074-.71-.238-1.058-.372.365-.225.31-.796.378-.93.16-.316.624-.132.68-.298.07-.2-.164-.77.151-.855z"/><path fill="#FBC2A1" d="M26.291 27.299c.004.025-.006.052 0 .074-.139.079-.25.203-.378.298-1.437 1.054-5.134 4.32-6.195 5.65l.756-10.333c.742.514 5.678 3.955 5.82 4.31z"/><path fill="#CB7769" d="M37.548 24.4c-1.174 2.366-2.638 4.575-3.928 6.876l.227.111c-.095.085-.212.143-.303.223-.014.013-.06-.012-.075 0-.1-.006-.129-.144-.227-.148l-2.04-6.84c1.769-.153 4.602-.303 6.346-.223"/><path fill="url(#c)" d="M33.242 31.461s.027.122-.038.15c-2.137-1.255-4.149-2.741-6.27-4.015-.152-.09-.299-.188-.492-.148v-.15c.155-.043.227-.243.302-.297.406-.293 2.918-2.166 3.099-2.23.367-.132.958-.114 1.359-.149z"/><path fill="#CB7769" d="M38.077 24.474c.784.206 1.617.882 2.418 1.116-.013.012.012.062 0 .074-.01.01-.015.09-.151.223-1.996 1.93-4.41 3.644-6.498 5.502l-.226-.112c1.29-2.3 2.754-4.51 3.928-6.876.321.015.197-.012.53.075z"/><path fill="#F0A271" d="m20.472 22.986-.756 10.334c-.08.1-.139.159-.151.297-.005.05 0 .1 0 .15-.503-.968-.778-2.181-1.135-3.31-.05-.16-.056-.45-.302-.26-.137-.765-.525-1.738-.227-2.454l2.493-4.757c.017.012.06-.013.076 0z"/><path fill="#FABAA6" d="m20.396 22.986-2.493 4.757c-.302.036-.204-.06-.227-.26-.052-.488-.138-1.207-.151-1.672-.006-.252.086-.595.076-.893v-.074c-.026-.672.048-1.373 0-2.045-.02-.256-.49-1.837-.19-1.97.948.809 1.973 1.456 2.985 2.156"/><path fill="#ABBBCD" d="M43.518 22.392c-.04.04-.112.184-.152.223-.976.972-1.884 2.007-2.871 2.975-.8-.232-1.634-.91-2.418-1.117z"/><path fill="#B8D2EB" d="M29.84 24.771c-.18.064-2.692 1.937-3.098 2.23-.29.004-.241.07-.302-.186-.042-.178-.093-2.432.038-2.49z"/><path fill="#6C7E88" d="M20.246 19.12c.779.226 1.567.428 2.342.67-1.248.37-2.332 1.056-3.55 1.486-.202-.295-.536-1.645-.454-1.97.021-.08.387-.398.454-.483.403-.054.836.19 1.207.297"/><path fill="#FADCC2" d="M26.442 27.299v.149c0 3.416.07 7.494-.227 10.853-.017.181.01.374 0 .557-.023.067-.145.027-.151.038v-.15c0-3.54.52-7.706.227-11.15-.009-.1.03-.099 0-.223-.006-.023.004-.05 0-.074.048-.006.111.01.151 0"/><path fill="#AF3A25" d="M39.058 33.468c-.5.139-1.056.492-1.51.744-.218-.008-.267.02-.454.075l-3.55-2.677c.09-.08.208-.138.303-.223 2.088-1.856 4.502-3.571 6.497-5.502l-1.284 7.583z"/><path fill="#9F6A80" d="m43.29 27.225-.15 1.116c-.9-.581-1.738-2.022-2.645-2.677.013-.012-.013-.062 0-.074.987-.968 1.893-2.003 2.871-2.974z"/><path fill="#962920" d="M43.14 28.339c.3.194.47.188.756.297.349.134.687.298 1.059.372-.013.095.014.203 0 .298l-2.04 3.42c-.91.112-1.071.184-1.889.372-.58.133-1.55.257-1.964.372l1.284-7.583c.137-.132.14-.213.151-.223.908.655 1.746 2.096 2.645 2.677z"/><path fill="#AF3A25" d="M41.176 30.866c.281-.442.424-.636.756-1.041-.273.407-.443.653-.756 1.041M41.93 29.824c.184-.273.321-.58.567-.818.027.337-.387.597-.567.818M41.176 30.866c-.11.172-.187.496-.416.596 0-.263.288-.437.416-.596"/><path fill="#867C7E" d="M26.29 16.667c.205.042.826.34 1.06.447.426.198 1.048.574 1.51.818s.937.517 1.359.819c-.408.01-.805.047-1.208.074-1.775.114-4.264.39-5.967.819l3.249-2.975z"/><path fill="#7B8A93" d="m26.291 16.667-3.25 2.974c-.023.007-.052-.006-.075 0l-.605-2.602c.014-.006.122-.21.189-.223.183-.033.662.112.983.074.804-.095 1.993-.38 2.758-.223"/><path fill="#ABBBCD" d="M22.966 19.641c-.023.007-.135.077-.378.15-.776-.243-1.563-.445-2.343-.67.11-.281-.804-.306-.87-.372-.102-.093.01-.157.076-.224.118-.113 2.611-1.372 2.91-1.486z"/><path fill="#F58C4A" d="M27.12 37.705v.075c-.014.454-.707.868-.831 1.153-.02.045.157.006.15.112 0 .018-.197-.112-.075.26.349 1.069 1.557 2.447 1.964 3.567.063.033.446-.334.53-.409-.061.134-.297.502-.378.595-.475.532-1.1.935-1.587 1.486-.012.015-.153.031-.302.224-.004.004-.027.008-.076.074-.82-.411-2.02-1.889-2.758-2.23-.325-.15-.241-.01-.491.074-.309-.421-.62-.826-.908-1.263.675-.777 3.231-1.806 3.702-2.527.006-.01.128.03.15-.037.011-.184-.016-.375 0-.558.473.279.667-.331.908-.596z"/><path fill="#F9AD8B" d="M25.232 38.226c.225.153.477.536.832.521v.149c-.47.721-3.029 1.749-3.701 2.528-.01-.017-.179.039-.227-.038-.117-.181-.143-.44-.227-.632-.12-.275-.193-.678-.302-.967-.435-1.156-1.527-3.681-1.737-4.72-.032-.158-.015-.412.075-.559 1.034 1.038 3.945 2.807 5.29 3.716z"/><path fill="#CF5A47" d="M26.518 44.842c-.089.118-.452 1.106-.567 1.116-.198-.312-.469-.551-.719-.818-.714-.759-1.35-1.616-1.964-2.453.25-.085.166-.226.492-.075.737.341 1.934 1.819 2.758 2.23"/><path fill="#962920" d="M27.953 46.7c-.065-.025-.215.017-.303 0-.42-.159-1.09-.27-1.434-.446-.423-.217-.76-.703-.984-1.116.25.264.52.506.719.818.115-.01.479-.996.567-1.116.048-.066.071-.07.076-.074l1.359 1.932z"/><path fill="#432919" d="M28.785 20.162c-.292.356-1.183.168-1.624.223-.704.09-2.962.608-3.701 1.263-.093.083-.29.26-.19.41.358-.38.085.338.643.557-.48-.704.122-1.13.757-1.411.424-.188 3.426-.798 3.7-.67.062.03.062.192 0 .223-.75-.037-2.967.447-3.287 1.005-.382.667 1.509 1.238 2.002 1.374 1.12.31 2.27.348 3.401.596-.06-.263 1.305-.213 1.097.037-.045.054-1.248.182-1.397.186-.914.023-3.241-.12-4.269-.223-1.69-.17-3.552-.806-5.062-1.486-.13-.158.252-.461.34-.521 1.223-.848 4.626-1.319 6.233-1.486.46-.048.899-.054 1.359-.075z"/><path fill="#2B1A10" d="m29.011 18.823.038.67-5.29.223c.463.279 3.48-.104 3.626 0 .086.06.017.398.038.52-1.607.168-5.01.64-6.232 1.486-.086.06-.47.364-.34.521-.463-.208-1.498-.506-1.813-.967 1.218-.43 2.304-1.116 3.55-1.486.241-.072.352-.143.378-.149.025-.006.052.006.075 0 1.704-.428 4.195-.702 5.968-.818z"/><path fill="#673213" d="M43.742 21.202c-.3.353-.672.514-1.058.744-.09-.007-.097-.155-.152-.224.503.042 1.097-.336.416-.744-.754-.45-3.077-.874-3.965-.818-.024-.006-.053.006-.076 0-.009 0 .027-.132-.038-.149-.053-.012-.889.027-1.059 0l.303-.297c-.593-.005-1.185.004-1.775 0l.567-.447-1.624-.297c3.025.29 5.758.845 8.461 2.23z"/><path fill="#512B14" d="M30.219 18.748c1.66-.045 3.411.064 5.062.224l1.624.297-.567.447c-1.395-.01-3.296-.083-4.646.074-.072.008-.005.21-.076.223-.378.06-1.065-.24-1.662-.223-.203.006-.569.147-.832.075 1.02.37.064.279-.34.297-.46.02-.9.027-1.359.075-.02-.12.049-.461-.038-.521-.147-.104-3.163.279-3.625 0l5.289-.224-.038-.67c.406-.026.803-.063 1.208-.074"/><path fill="#7F5331" d="M42.535 21.723c-.088-.112-2.245-1.059-2.569-1.189s-.628-.268-.983-.372c.889-.056 3.212.368 3.966.819.68.407.086.783-.416.744z"/><path fill="#7F5331" d="M36.34 19.716c.59.004 1.185-.004 1.775 0l-.303.297c.169.027 1.005-.012 1.06 0 .064.017.029.147.037.15-.435-.02-.042.125.038.148.33.093.678.182 1.02.223.324.13 2.481 1.077 2.57 1.189.054.068.06.215.15.223-.776.46-1.056.533-1.888.818 1.072-.647-.85-1.163-1.283-1.597.361.146-.002-.542-.038-.558-.834-.37-3.233-.083-4.23-.298l-.152.223c1.67.319 4.954.314 5.403 2.305-3.403 1.106-10.354 1.558-13.94 1.116-.157-.019-.47-.172-.642-.223 1.027.103 3.357.246 4.268.223.152-.004 1.353-.132 1.397-.186.208-.25-1.157-.3-1.096-.037-1.13-.246-2.28-.284-3.401-.596-.496-.136-2.387-.706-2.002-1.374.32-.558 2.537-1.042 3.287-1.005.061-.03.061-.194 0-.223-.277-.128-3.279.482-3.7.67-.635.281-1.238.709-.757 1.412-.559-.218-.286-.937-.643-.558-.1-.15.097-.327.19-.41.739-.657 2.997-1.174 3.7-1.263.442-.055 1.334.133 1.624-.223.404-.018 1.36.073.34-.297.26.072.626-.069.832-.075.597-.018 1.284.281 1.662.223.071-.01.004-.215.075-.223 1.351-.157 3.252-.085 4.647-.074"/><path fill="#966844" d="M40.798 22.764c-.122.042-.225.05-.303.075-.45-1.99-3.733-1.986-5.403-2.305l.151-.223c.998.215 3.4-.072 4.231.298.036.014.4.704.038.558.435.436 2.357.95 1.283 1.597z"/><path fill="#62402B" d="M28.558 21.127v.224c-.213.088-.431.124-.605.297-.523.52-.154.777.378 1.08-.089.146-.805-.044-.983-.112-1.93-.736.646-1.253 1.207-1.486z"/><path fill="#432919" d="M28.558 21.128c-.563.233-3.139.752-1.208 1.485-.055.23-.889-.099-.945-.148-1.271-1.114 1.823-1.526 2.493-1.635.155.165-.183.231-.34.298"/><path fill="#62402B" d="M28.028 21.723c.282-.259 1.467-.488 1.889-.596-.17.408-.71.364-1.021.596-.198.149-.494.802-.605.818-.191.03-.68-.436-.265-.818zM26.102 21.35c.063-.006.158-.02.19.038-.723.543-.352 1.079.377 1.337 0 .238-1.325-.368-1.359-.595-.031-.21.612-.763.794-.781z"/><path fill="#966844" d="M29.917 21.128c-.423.107-1.607.336-1.889.595l-.075-.075c.174-.173.39-.208.605-.297.418-.174 2.722-.78 3.06-.744.128.014.175.06.076.149-.072.064-1.517.305-1.775.372zM38.907 20.162c.024.006.053-.006.076 0 .353.104.647.236.983.372a7 7 0 0 1-1.02-.223c-.08-.023-.473-.167-.039-.149M30.484 21.872c.149.367.647.353.945.558-.212.1-1.18-.215-.945-.558"/><path fill="#FDF0EA" d="m25.913 27.669-6.346 5.946c.012-.138.071-.196.151-.298 1.06-1.329 4.758-4.596 6.195-5.65z"/><path fill="#F6956F" d="m26.29 27.595-.377.074c.128-.093.237-.22.378-.298.03.124-.009.122 0 .224M33.242 31.462c.099.004.128.142.227.148-.078.069-.15.23-.227.298-1.347 1.197-2.62 2.482-3.928 3.716-.803.756-1.414 1.23-2.191 2.081-.242.265-.435.875-.908.596.297-3.361.227-7.439.227-10.853.193-.04.34.058.492.148 2.121 1.274 4.134 2.76 6.27 4.014.065-.027.03-.148.038-.148"/><path fill="#DC784F" d="M37.094 34.287c-.546.165-2.494.98-2.947 1.263-.567.355-.889.959-1.284 1.486l.378-5.13c.078-.068.15-.23.227-.298.015-.012.061.013.076 0l3.55 2.677z"/><path fill="url(#d)" d="M26.29 27.595c.295 3.445-.226 7.612-.226 11.15-.355.017-.607-.368-.832-.52l-5.516-4.015c-.122-.165-.11-.363-.151-.446 0-.05-.004-.1 0-.149l6.346-5.946.378-.075z"/><path fill="#FBB06E" d="M19.567 33.766c.042.083.03.281.151.446.07.093.147.217.227.298-.09.147-.107.4-.076.558.21 1.04 1.303 3.565 1.738 4.72-.582-.741-.845-1.665-1.208-2.527-.202-.473-.597-1.939-.908-2.23-.781-1.478-1.067-3.181-1.359-4.832.246-.193.252.1.303.26.357 1.128.632 2.342 1.134 3.309z"/><path fill="url(#e)" d="M32.864 37.036c-.231.31-.809 1.11-.983 1.411-.687.583-1.59.118-2.418.372-1.002.021-2.023.137-3.023.223.007-.105-.17-.066-.151-.111.124-.283.817-.699.832-1.153l2.19-2.156c1.311-1.234 2.582-2.52 3.929-3.716l-.378 5.13z"/><path fill="#CF5A47" d="M29.463 38.821c.733-.016 1.461.017 2.19.075-.029.064-.048.227-.075.297-.998.972-1.67 2.359-2.72 3.272-.084.072-.467.442-.53.41-.407-1.123-1.617-2.5-1.964-3.568-.122-.372.074-.242.076-.26 1-.087 2.018-.2 3.022-.223z"/><path fill="#BB3834" d="M31.58 39.191a7 7 0 0 0-.151.447q-.142.477-.227.967c-.43.544-.095 1.373-.378 2.044-.009.019-.246.106-.303.223-.31.658-.655 1.29-1.058 1.896-.416-.34-.605-1.29-.983-1.71.081-.09.317-.46.378-.595 1.05-.911 1.722-2.3 2.72-3.272z"/><path fill="#DD6626" d="M28.482 43.058c.378.42.567 1.37.983 1.71.317.26 1.189-.023 1.737.074.004.025-.004.05 0 .074-.594.044-1.3.166-1.888.15a13 13 0 0 1-1.172-.075c-.3-.041-.546-.345-.794-.075-.259-.084-.544 0-.454-.372.487-.551 1.111-.956 1.586-1.486z"/><path fill="#CF3F2D" d="M26.896 44.544c-.09.373.193.288.453.373.561.183 1.173.27 1.738.446-.179.407-.282.994-.53 1.412-.397-.002-.176.086-.605-.075l-1.359-1.932c.15-.193.29-.21.303-.224"/><path fill="#FADCC2" d="m29.314 35.624-2.191 2.156v-.075c.779-.851 1.388-1.325 2.19-2.081"/><path fill="#FDF0EA" d="M25.232 38.226c-1.344-.911-4.256-2.678-5.29-3.716-.08-.08-.157-.205-.226-.298z"/><path fill="#962920" d="M31.505 45.735c.075.254.132.492.227.744-1.057.151-2.099.304-3.174.298.247-.418.35-1.005.529-1.412.008-.016.237-.174.227-.297.588.016 1.294-.106 1.888-.15.049.23.223.553.303.82z"/><path fill="#FBB06E" d="M31.88 38.45a4 4 0 0 0-.226.446 22 22 0 0 0-2.191-.075c.828-.254 1.73.211 2.418-.371"/><path fill="#CF3F2D" d="M31.202 40.605c-.027.157-.132.442-.151.595a12.3 12.3 0 0 0 .151 3.642c-.548-.097-1.42.186-1.737-.074.403-.606.745-1.239 1.058-1.896.057-.117.295-.204.303-.223.284-.672-.053-1.5.378-2.044z"/><path fill="#E78C24" d="M29.314 45.065c.01.124-.219.282-.227.298-.565-.176-1.177-.263-1.737-.446.245-.271.491.033.794.074.302.041.853.066 1.172.074z"/><path fill="#BE783A" d="M62.331 45.363c-.13.66-.176.922-.378 1.56-.93.92-1.367 1.701-2.493 2.454-.584.388-2.981 1.786-3.55 2.007-.29.111-.441-.023-.53 0 .316-.224.607-.424.908-.67.195-.161.439-.333.605-.52.865-.042 1.464-.834 2.04-1.338.264-.232.483-.618.794-.893.798-.709 1.875-1.004 2.38-2.156.044-.1.113-.448.15-.595.095-.002.089.08.076.149z"/><path fill="#791915" d="M61.878 45.735c.012 0 .056.135.226.075-.504 1.15-1.581 1.446-2.38 2.155-.308.275-.529.66-.794.893l-1.172.52c.055-.303.334-.534.492-.818.401-.725.447-.944 1.059-1.56.105-.105 1.17-1.083 1.245-1.116.061-.025 1.216-.15 1.321-.149z"/><path fill="#F1C751" d="M33.469 47.742c-.116.097.183.44.227.484.96.94 2.84 1.934 2.644 3.458h-.075c-.611-.422-1.158-.895-1.813-1.263-.403-.418-.922-.904-1.283-1.337-.267-.32-.542-.602-.757-.968s-.518-1.199-.68-1.635c-.095-.252-.15-.49-.227-.744.45.139.544.765.832 1.08.26.284.8.646 1.134.93z"/><path fill="#9F4D23" d="M61.953 46.924c-.07.217-.147.456-.227.67-.294.79-.349 1.138-.907 1.783-.75.868-1.794 1.637-2.72 2.304-.326.236-.72.544-1.06.745.444-1.294 1.645-1.989 2.418-3.05 1.126-.751 1.563-1.533 2.494-2.452zM54.624 51.607c-.252.446-.9.982-1.321 1.263-.477.318-1.943 1.143-2.456 1.337-1.13.43-3.306.275-4.608.223 1.243-.438 2.581-1.699 3.777-2.081.918-.294 2.264-.333 3.25-.521.449-.087.915-.13 1.358-.223z"/><path fill="#CF892B" d="M44.272 52.128c1.904.018 3.832.312 5.743.223-1.195.382-2.533 1.643-3.776 2.081-.101-.004-.202.004-.303 0 .023-.116-.105-.246-.19-.297-.923-.552-2.213-1.067-3.21-1.56.127-.141.512-.402.68-.447.5-.135.647-.004 1.058 0z"/><path fill="#9F4D23" d="M55.38 51.384c.088-.023.24.111.53 0 .16.53.073 1.091.378 1.486-.576.262-1.21.411-1.813.595a40 40 0 0 1-3.098.818c-.179.04-.547.218-.53-.074.513-.194 1.979-1.019 2.456-1.337.42-.281 1.069-.819 1.321-1.263.32-.066.473-.147.756-.223z"/><path fill="#BA6428" d="M45.936 54.432c-.456-.018-1.149-.18-1.661-.223-1.212-.103-2.006.064-3.174-.298l1.359-1.337c.02.01.054-.01.075 0 .996.496 2.288 1.009 3.212 1.56.084.05.21.183.19.298"/><path fill="#CF892B" d="M42.762 49.972c.032.015.118-.014.151 0 .273.114.435-.006.908.298.472.304-.061.502.907.372-.046.155-.122-.015-.075.149.09.314.36.357.642.372 1.574.082 3.496-.575 5.1-.521-.014.029-.041.146-.075.223-.036.08-.353.492-.303.558 2.49-.155 4.996-.682 7.216-1.82l.076.148c-.16.132-.282.294-.416.446-.166.188-.41.36-.605.521l-3.626.967c-.855.052-1.918.62-2.91.372l.152-.67c-.059-.018-1.042.146-1.208.15-1.241.027-3.863.217-4.949 0-.264-.054-.642-.271-.983-.372-.262-.596-1.014-.844-1.51-1.189-.204-.14-.494-.454-.718-.595-.879-.55-1.933-.924-2.683-1.56.37.146.821.163 1.246.372.514.252 3.27 2.17 3.476 2.155.095-.006.311-.244.19-.372z"/><path fill="#9F4D23" d="M58.099 48.558c.046-.008.103.005.15 0-.155.284-.436.513-.49.819l1.172-.521c-.576.504-1.175 1.296-2.04 1.337.134-.153.256-.314.416-.446l-.076-.15c-2.22 1.142-4.726 1.667-7.215 1.822-.05-.064.266-.478.302-.558.75-.203 1.55-.234 2.305-.372.327-.06 2.279-.37 2.455-.447.603.32 2.057-.79 2.418-1.337.206-.045.405-.11.605-.149z"/><path fill="#903B1F" d="M57.042 52.425c-.088.052-.071.073-.076.075-.25.142-.41.248-.68.372-.305-.395-.219-.955-.378-1.486.569-.221 2.968-1.619 3.55-2.007-.773 1.06-1.975 1.755-2.418 3.049z"/><path fill="#D6A35E" d="M56.285 50.716c-.3.246-.592.447-.907.67-.282.076-.435.157-.756.223-.446.093-.912.136-1.36.223-.07-.051-.573-.15-.604-.149l3.625-.967z"/><path fill="#F7E7AF" d="M42.762 51.16c.34.102.718.319.983.372-.166.569.677.313.53.596-.412-.005-.56-.135-1.06 0l-2.644-.596c-2.871-1.353-4.543-1.62-7.102-3.79-.334-.283-.872-.645-1.134-.93-.286-.312-.383-.938-.832-1.08-.08-.266-.254-.588-.303-.818-.004-.024.005-.05 0-.074a12.3 12.3 0 0 1-.15-3.642c.22-.103.224.343.226.41.021.632-.185 2.102 0 2.676.057.174.624.633.756.819.147.204.217.82.416.93.055.03.44 0 .68.148.728.449 1.45 1.166 2.078 1.747.034.03.13.372.19.41.052.03.854.13 1.058.222 2.243 1.03 3.855 1.873 6.308 2.602z"/><path fill="url(#f)" d="M40.571 51.532c.643.304 1.259.73 1.889 1.042l-1.36 1.337c-1.604-.496-3.165-1.653-4.76-2.23.196-1.523-1.684-2.515-2.644-3.458-.044-.043-.342-.386-.227-.483 2.559 2.17 4.23 2.436 7.102 3.79z"/><path fill="#EDCA83" d="M52.66 51.681c.032 0 .534.097.605.149-.985.188-2.33.227-3.25.52-1.91.09-3.837-.204-5.742-.222.149-.282-.696-.025-.53-.596 1.086.217 3.708.027 4.95 0 .165-.004 1.15-.167 1.207-.148l-.151.67c.991.247 2.054-.321 2.91-.373z"/><path fill="#F1C751" d="M43.216 52.128c-.166.045-.553.306-.68.446-.022-.01-.055.01-.076 0-.63-.312-1.246-.738-1.889-1.041z"/><path fill="#E4AE44" d="M31.505 39.712c.156 1.304-.23 2.823.303 4.237.029.077-.009.199.15.223.028.153.14.122.228.15-.055.293.019.278.151.446.342.438 1.241.795 1.661 1.188.351.329.585.852.908 1.188.689.72.744.197 1.548.373.074.016 0 .202.076.223 1.838.49 3.006 1.554 4.722 2.23.498.345 1.248.595 1.51 1.188-2.453-.727-4.065-1.573-6.308-2.602-.204-.093-1.006-.192-1.059-.223-.058-.035-.155-.376-.189-.41-.628-.582-1.35-1.297-2.077-1.746-.24-.149-.624-.118-.68-.149-.2-.11-.27-.723-.417-.93-.132-.184-.7-.642-.756-.818-.185-.575.021-2.044 0-2.677-.002-.066-.006-.512-.227-.409.02-.15.124-.436.152-.595a9 9 0 0 1 .226-.967c.066-.009.07.018.076.074z"/><path fill="#BE783A" d="M33.847 44.619c.25.55.616 1.608 1.06 2.007.354.32.377.207.907.297 1.564.271 3.058.587 4.495 1.338.666.347 1.26 1.037 2.002 1.411.098.05.264.213.453.298.122.126-.094.366-.189.372-.206.014-2.96-1.904-3.476-2.156-.427-.208-.876-.225-1.246-.372-.96-.378-1.802-1.126-2.947-.67-.323-.338-.557-.861-.907-1.188.338-.103-.463-.895-.568-.967-.13-.089-.978-.502-1.096-.223-.132-.168-.206-.153-.151-.447.35.106 1.201.203 1.661.298z"/><path fill="#791915" d="M56.815 48.856c-.012.39-.573.326-.794.446-.296.162-.73.651-.945.744-.177.077-2.128.387-2.456.447-.754.138-1.554.17-2.304.372.033-.075.06-.194.075-.223.101-.197.221-.389.303-.596.754.005 1.689.021 2.418-.148.689-.162 1.168-.687 1.624-.819.455-.132 1.5-.132 2.077-.223z"/><path fill="#BA6428" d="M50.696 50.047c-.082.206-.202.398-.303.595-1.605-.054-3.526.603-5.1.52-.281-.014-.552-.057-.643-.371 1.52-.06 3.036-.038 4.496-.521l-.19-.372c.563.029 1.196.146 1.738.148z"/><path fill="#D6A35E" d="M37.85 47.816c.75.64 1.805 1.011 2.683 1.56.225.141.515.454.719.596-1.717-.676-2.885-1.74-4.723-2.23-.075-.02 0-.207-.075-.223-.805-.174-.861.35-1.548-.372 1.145-.459 1.985.29 2.947.67z"/><path fill="#9F4D23" d="m48.957 49.898.189.372c-1.46.481-2.977.458-4.495.52-.047-.163.03.007.075-.148.166-.023.31-.11.454-.15.195.39.668-.096.945.075l2.002-.67c.275.017.557-.014.832 0zM55.078 50.047c.212-.093.649-.583.945-.744.22-.12.781-.056.794-.447.233-.037.452-.1.68-.149-.36.548-1.814 1.658-2.417 1.337z"/><path fill="#CF892B" d="M33.999 45.958c-.423-.394-1.32-.752-1.662-1.188.115-.28.964.134 1.096.223.105.07.904.862.568.967z"/><path fill="#903B1F" d="M47.296 49.675c.228.235.537.204.831.223l-2.002.67c-.275-.172-.75.314-.945-.075.664-.176 1.475-.544 2.115-.818"/><path fill="#481024" d="M62.483 42.984c.052.471-.023.947-.076 1.412a6 6 0 0 1-.151.818c-.038.145-.107.492-.151.596-.17.06-.215-.075-.227-.075-.246-.275-.973-.715-1.36-.893.467-.562 1.994-1.318 1.813-2.118-.014-.062-.082.103-.227-.112.09-.665-.516-1.33-.302-2.007.187.56.622 1.85.68 2.38"/><path fill="#E1B5C2" d="M55.305 34.582c-.401.03-1.05.37-1.435.521-1.078.42-2.283 1.03-3.325 1.635h-.076c-.218-.223-1.859-.374-1.926-.446-.099-.106.008-.366-.038-.447.242-.06.334-1.292.303-1.411.388-.174 1.025.38 1.32.372.104-.002.62-.244.795-.298.502.541 1.04-.676 1.359-.819.487-.217 2.422.685 3.023.893"/><path fill="#D996A5" d="M49.335 32.799c-.277.463-.532.965-.832 1.411-.16-.074-2.552.081-2.72.15-.338-.245-.059-.85-.076-1.117.175.273 1.666.277 1.737.186-.52-.884-.848-.645-1.737-.409-.006-.07-.203-.45-.302-.52 1.023-.005 2.932.13 3.928.297z"/><path fill="#E1B5C2" d="M51.98 33.543c-.235.322-.63.45-.945.67-.068.047-.395.22-.114.297-.174.054-.69.294-.794.298-.298.008-.933-.544-1.321-.372-.034-.13-.191-.172-.303-.224.3-.446.555-.95.832-1.411.645.11 2.015.512 2.645.744z"/><path fill="#DAC1CE" d="m57.872 35.847.15 1.189c-.365-.1-2.648-.889-2.72-1.08-.04-.109.024-.729.076-.855.013-.03.309-.304.303-.446.762.118 1.542.752 2.19 1.188z"/><path fill="#B76477" d="M45.104 32.501c.049.172.257-.045.152.186-.038.083-1.309 1.14-1.397 1.154-.231.035-.355-.292-.378-.298-.057-.015-.03.15-.038.149-.057-.013-.383-.22-.567-.224-.233-.006-.61-.012-.794.15l-1.06-.522c.82-.188.98-.26 1.89-.372.333-.04.917-.132 1.207-.148.324-.019.664-.069.983-.075z"/><path fill="#C27593" d="M45.407 32.501c.099.07.294.45.303.521.008.07-.005.149 0 .223.016.267-.263.87.075 1.116-.01.005-.078.091-.151.15-.672-.24-1.531.067-2.191-.075-.103-.023-.3-.238-.454-.26.095-.05.17-.212.227-.261.044-.04.296.105.227-.223.008 0-.019-.164.038-.15.023.007.147.334.378.298.09-.014 1.361-1.07 1.397-1.153.105-.231-.103-.014-.151-.186z"/><path fill="#9F6A80" d="M59.158 36.813c.2.146.428.266.605.446-.112-.027-.624-.01-.908-.074-.178-.04-.493-.025-.68-.075-.15-.039-.143-.072-.152-.074l-.15-1.189c.444.3.854.647 1.283.968z"/><path fill="#240E0E" d="M55.305 34.583c.208-.015.263.055.378.074.006.14-.29.415-.302.446-.391.056-1.553.763-1.51 0 .384-.148 1.035-.492 1.434-.52M52.283 33.692c-.32.142-.858 1.36-1.36.818-.281-.076.047-.25.114-.297.313-.217.71-.348.945-.67.118.043.154.178.303.149z"/><path fill="#E2ABC5" d="M59.763 37.26c.142.034.325.057.378.222.006.794.136 1.85.378 2.603-.087-.013-.066.055-.076.074-.36-.112-.834-.231-1.172-.372-.151-.062-.088-.273-.151-.298-.01-.004-.061.095-.114.075-.05-.186-.031-.556-.075-.707-.02-.064-.147-.03-.152-.037-.035-.08.114-.062.152-.112-1.08-.213.264-.752-.076-1.523.284.064.794.047.908.074"/><path fill="#732A4F" d="M61.802 40.605c-.214.676.393 1.341.302 2.007-.252-.374-.777-.854-.983-1.189-.094-.154-.508-1.041-.605-1.337-.241-.752-.371-1.806-.378-2.602.748 1.127 1.24 1.854 1.662 3.123z"/><path fill="#732A4F" d="M62.104 42.612c.145.215.212.048.227.112.18.8-1.348 1.558-1.813 2.118-.315-.145-1.533-.626-1.812-.67.174-.29.573-.572.68-.892l1.737-1.858c.206.337.731.814.983 1.188z"/><path fill="#90463D" d="M60.517 44.842c.388.178 1.113.616 1.359.893-.105-.002-1.26.124-1.322.15-.077.032-1.142 1.01-1.245 1.115-.124-.302.956-1.59.907-1.672l-.189-.037c-.651.608-1.233 1.618-2.077 1.784.294-.935.479-1.94.68-2.9.026.002.05-.004.076 0 .281.041 1.498.525 1.813.67z"/><path fill="#C27593" d="m41.025 33.096 1.059.521c-.095.08-.234.135-.114.298h1.246c-.057.047-.133.209-.227.26.153.023.35.238.454.26l-1.021 1.117c.792-.02 1.58-.428 2.342-.521.283-.035.262.217.302.223.139.02.494-.684.567-.744.074-.06.141-.145.152-.149.166-.068 2.56-.223 2.72-.148-.172.256-.364.477-.53.744-.252.4-.663.727-.831 1.188-.685-.118-2.363.647-3.174.52-.286-.045-1.628-1.028-1.737-.966l-1.964 2.379c.025-.697-.145-.712-.681-1.117.22-.22 2.447-1.047 2.418-1.3-1.17-.508-3.023-1.453-4.306-1.374.002-.101-.078-.072-.152-.075.456-.252 1.013-.605 1.51-.744.414-.113 1.385-.237 1.965-.372z"/><path fill="#DDA097" d="M50.545 36.74c.063.017.09.083.15.149.562.614 1.154 2.321 1.738 3.049l-3.325-2.23v-.075l1.359-.893h.078"/><path fill="#E1B5C2" d="M48.503 35.848c.046.08-.06.34.038.446.067.072 1.71.223 1.926.446l-1.359.893c-.502-.134-1.596-1.424-1.964-1.486.166-.46.58-.787.832-1.188.252.159.22.611.302.781.066.136.22.101.227.112z"/><path fill="#240E0E" d="M48.806 34.436c.031.122-.061 1.351-.303 1.411-.006-.01-.162.025-.227-.111-.08-.17-.05-.622-.302-.781.166-.267.357-.488.529-.745.111.052.269.093.303.224zM45.71 33.245c-.005-.072.008-.15 0-.223.888-.236 1.216-.475 1.737.41-.072.09-1.563.086-1.738-.187M43.443 33.692c.07.328-.183.184-.227.223H41.97c-.12-.161.02-.215.114-.298.185-.16.558-.155.794-.148.185.004.51.21.567.223z"/><path fill="#CD88A7" d="M45.634 34.508c-.073.058-.428.763-.567.744-.04-.006-.019-.256-.303-.223-.762.093-1.55.5-2.342.52l1.021-1.115c.66.142 1.519-.166 2.191.074"/><path fill="#DAC1CE" d="M58.855 37.185c.34.77-1.004 1.312.076 1.523-.038.05-.185.03-.152.111a5 5 0 0 0-.68-.223c.075-.436-.527-.134-.605-.335-.072-.508.294-.86.68-1.153.187.05.502.035.681.075z"/><path fill="#CA8FB9" d="m61.121 41.424-1.737 1.858c.078-.23-.267-.591-.453-.67-.049-.579-.43-.699-.832-1.042.1-.039.088-.053.075-.148.385-.15 2.099-.988 2.267-1.263.01-.019-.01-.087.075-.075.095.296.51 1.185.605 1.337z"/><path fill="#673213" d="M58.099 38.598c.225.05.464.139.68.224.004.008.133-.03.152.037.044.149.025.52.075.707-.05-.021-.178.02-.227 0-.115-.594-.748-.701-1.134-1.042.107-.008.33.048.454.074"/><path fill="#E2ABC5" d="M58.93 42.612c.188.079.53.44.454.67-.107.32-.504.6-.68.893-.026-.005-.05.002-.076 0s-.05.002-.076 0c-.168-.455-.974-.534-.605-1.154.017-.029.715-.227.454-.409.227.027.214-.076.227-.074.08.01.237.047.303.074"/><path fill="#A84C56" d="M58.552 44.173c.026.002.05-.002.076 0-.202.959-.387 1.963-.68 2.9-.125.392-.34.787-.454 1.188-.576-.149-3.412-.876-3.777-.893l1.435-.67c.19.093.39.176.567.298.092-.047-.076-.449-.114-.52.71-.722 1.695-1.136 2.456-1.785.17-.144.403-.256.34-.52.05.002.1-.005.151 0z"/><path fill="#8B3C46" d="M59.309 46.998c-.612.616-.658.837-1.06 1.56-.047.004-.104-.008-.15 0a4 4 0 0 0-.605-.297c.111-.401.33-.796.453-1.189.845-.165 1.427-1.176 2.078-1.783l.189.037c.05.082-1.03 1.37-.907 1.672z"/><path fill="#DFF3FD" d="M37.549 34.213c.073.002.153-.027.151.074-.103.006-.265-.023-.34 0-.315.095-2.475 2.07-2.645 2.081l-.567-.818c.454-.283 2.4-1.098 2.947-1.263.187-.056.235-.083.454-.075"/><path fill="#A84C56" d="M43.97 36.666v.074c-.023.122-.208.28-.302.372-1.021 1.005-2.143 1.9-3.099 2.975l1.662-4.386c.11-.062 1.451.922 1.737.967z"/><path fill="#CF5A47" d="M47.144 36.145c-.269.742-.235 1.914-.605 2.676-.913-.442-1.668-1.494-2.569-2.08v-.075c.811.128 2.49-.639 3.174-.521"/><path fill="#95486A" d="M40.572 40.084c-.133.15-.345.327-.379.521-.081-.043-.147-.1-.226-.149-.028-.837.277-1.69.302-2.379l1.964-2.378z"/><path fill="#E0BAD8" d="M40.27 38.077c-.026.689-.33 1.542-.303 2.38-.021-.013-.061-.017-.152-.075.242-1.215.009-1.093-.983-1.523-.014-.09.595-1.534.68-1.672.022-.033-.05-.097.077-.224.533.403.705.418.68 1.117z"/><path fill="#791915" d="M46.539 40.233c.685.164 4.714 2.278 5.025 2.23.163-.025.73-.868.87-1.041.087-.11.283-.182.302-.372.019.01.088-.01.075.074-.166.53-.193 1.128-.453 1.635-.265.023-.91.167-1.135.149-.5-.042-1.378-.556-1.888-.67l-1.926-.67-3.515.819c-.65-.211-.79-.341-1.359-.595-.031-.015-.12.014-.151 0-.433-.199-.922-.343-1.283-.67 1.323.258 3.913-1.09 5.44-.893z"/><path fill="url(#g)" d="M58.175 41.424c.012.095.025.11-.076.149-.065.024-.084-.021-.227.074-1.49 1.003-.294.87.53.967.262.18-.438.38-.454.41-.37.62.437.698.605 1.153-.049-.004-.101.002-.152 0-1.296-.075-3.195.178-4.533.297-.172.017-.336.065-.454.075l.454-.26c-.611-.984-1.214-.488-2.04-.93.146.082 1.368.103 1.586.074.108-.015.305-.108.454-.112-.08-.153-.212-.264-.302-.41-.032-.049-.053-.216-.152-.297 1.385-.233 3.521-.71 4.76-1.188z"/><path fill="#D6E3F4" d="M53.339 39.638c-.477-.25-.344.897-.832.372-.012-.043 0-.085-.075-.075-.587-.727-1.179-2.434-1.738-3.048l3.099 1.004c-.187.569-.297 1.164-.454 1.747"/><path fill="#E1DAEC" d="M53.566 42.91c-.378-.077-1.074-.015-1.435.074-.11.027-.42.1-.454.186.065.025.141.18.151.186.826.442 1.429-.056 2.04.93l-.454.26c-.66.063-1.352.33-1.964.373-.453-.378-.241-1.379-.302-1.933.046-.012.084 0 .076-.074.222.019.867-.124 1.134-.149.433-.04.645-.078 1.059-.149.098.079.12.248.15.298z"/><path fill="#9F4D23" d="M52.51 40.233c.222.1.405.234.529.447-.032.105-.194.34-.227.446.012-.085-.057-.062-.076-.074-1.483-.87-1.542-.912-3.325-1.189-.296-.045-.611-.043-.908-.074-.136-.275-.569-.046-.453-.67 1.514.25 3.043.48 4.457 1.116z"/><path fill="url(#h)" d="M53.868 35.103c-.042.763 1.121.056 1.51 0-.053.126-.115.746-.076.856.07.188 2.355.98 2.72 1.079.009.002 0 .035.152.074-.387.292-.752.643-.68 1.154.077.2.68-.104.604.334-.122-.026-.346-.082-.453-.074-.213.018-.24.14-.379.26.003.143 1.288.684 1.51.782.05.02.177-.021.228 0 .05.02.1-.079.113-.075.063.025 0 .236.151.298.338.138.813.26 1.172.372-.168.277-1.882 1.116-2.266 1.263-1.24.477-3.376.957-4.76 1.188-.414.07-.626.11-1.059.149.26-.506.288-1.108.454-1.635.034-.105.195-.341.227-.446q.16-.519.302-1.042c.158-.583.265-1.178.454-1.746l-3.098-1.005c-.061-.066-.089-.132-.152-.149 1.04-.608 2.248-1.217 3.326-1.635z"/><path fill="#240E0E" d="M54.776 40.159c.453.39 1.291.167 1.51.818-.467.14-3.172-.326-1.51-.818"/><path fill="#6A4A1D" d="M56.286 40.977c-.218-.65-1.056-.426-1.51-.818.13-.04 1.479-.184 1.548-.15.128.065.437.825-.038.968"/><path fill="#240E0E" d="M54.17 38.077c.313.368 1.13.478 1.586.67-.737.527-2.926-.572-1.586-.67"/><path fill="#170B0C" d="M57.647 38.524c.386.34 1.017.448 1.134 1.041-.222-.097-1.508-.638-1.51-.78.139-.119.166-.243.378-.261z"/><path fill="#6A4A1D" d="M55.756 38.747c-.456-.192-1.273-.3-1.586-.67.374-.026 1.252.327 1.7.298l.075.149c-.096.066-.092.155-.189.223"/><path fill="#DAC1CE" d="M53.339 39.638a37 37 0 0 1-.303 1.042 1.1 1.1 0 0 0-.53-.447c-.01-.07.018-.165 0-.223.488.525.356-.622.833-.372"/><path fill="#D77B36" d="M52.433 39.936c.076-.01.063.03.076.074.017.058-.01.153 0 .223-1.414-.636-2.943-.864-4.458-1.116-.439-.072-.928-.012-1.359-.149.82-.374 1.597-.888 2.418-1.262l3.325 2.23z"/><path fill="#F6956F" d="M49.108 37.63v.075c-.821.374-1.598.89-2.418 1.263-.241-.076-.128-.138-.15-.149.369-.762.335-1.932.604-2.676.368.064 1.464 1.352 1.964 1.486z"/><path fill="#6A4A1D" d="M58.099 41.57c.403.344.783.462.832 1.042a1.7 1.7 0 0 0-.303-.074c-.132-.45-1.014-.325-.756-.893.143-.095.16-.048.227-.074"/><path fill="#E0BAD8" d="M46.237 47.444c-.04.248.21.052.227.26.014.17-1.571 2.37-1.737 2.938-.967.13-.44-.07-.908-.372.013-.077-.03-.17-.075-.224-.818-1.037-.263-1.221-.152-2.23.326.033 2.223-.28 2.645-.372"/><path fill="#E8EAF6" d="M43.594 47.817c-.111 1.008-.666 1.192.151 2.23-.189-.215-.437-.405-.567-.67l-.265.595c-.033-.014-.12.015-.151 0-.19-.085-.355-.248-.454-.297.248.076.334.008.227-.26-.067-.17-2.046-2.824-2.19-2.938.944-.128 2.398 1.249 3.249 1.337z"/><path fill="#6E1815" d="M43.743 50.047c.047.053.089.146.076.223-.473-.304-.634-.182-.907-.298l.264-.595c.13.264.378.455.567.67"/><path fill="#90463D" d="M53.717 47.37c.366.017 3.201.742 3.777.893.088.023.5.223.605.297-.2.038-.397.104-.605.15-.227.049-.447.11-.68.148-.578.091-1.605.087-2.078.223-.473.137-.935.658-1.624.819.04-.153-.073-.14-.076-.149-.11-.358-.754-1.85-.756-2.007 0-.02.128-.326.151-.372.032-.062.164-.238.227-.297-.02.08-.15.574-.113.595.361 0 .84-.312 1.172-.298z"/><path fill="#240E0E" d="M58.628 42.538c-.013 0 0 .1-.227.074-.823-.095-2.018.035-.53-.967-.257.568.623.442.757.893"/><path fill="#C27593" d="M58.401 44.173c.063.264-.17.374-.34.52-.76.65-1.746 1.065-2.456 1.784-.195-.38-.75-.95-1.134-1.188-.191-.118-.401-.217-.567-.372-.441.481.25 1.093.642 1.411.011.26-.113.073-.189 0-.411-.392-.747-.63-.87-1.188.116-.232.253-.444.379-.67 1.338-.12 3.237-.37 4.533-.297z"/><path fill="#C27593" d="M54.549 46.328c.02.017.124.056.151.075.13.093.317.229.454.297l-1.435.67c-.332-.015-.809.297-1.172.297-.038-.02.092-.512.113-.595.141-.535.574-1.416.832-1.932.12.558.458.797.87 1.188.075.072.197.26.189 0z"/><path fill="#240E0E" d="M55.605 46.477c.038.073.206.473.114.52-.177-.121-.377-.204-.568-.297-.136-.066-.323-.204-.453-.297.033-.523-.845-.965-.227-1.116.382.237.939.808 1.134 1.188z"/><path fill="#E3C1BD" d="M40.345 46.477c.145.114 2.123 2.768 2.19 2.937.108.269.022.335-.226.26-.742-.376-1.336-1.064-2.002-1.411-1.44-.75-2.93-1.067-4.495-1.337-.267-.476.926-.412 1.207-.447 1.036-.13 2.09-.198 3.137-.223.094.068.096.15.189.223z"/><path fill="#DAC1CE" d="M37.02 46.477c-.282.035-1.477-.029-1.208.446-.53-.09-.553.023-.908-.297.277-.01 1.344-1.515 1.284-1.598-.752-.25-1.58-.252-2.343-.41-.46-.094-1.31-.191-1.661-.297-.088-.027-.2.004-.227-.148l2.758-1.263c.771 1.25 1.838 2.317 2.72 3.42l-.416.15z"/><path fill="#E2ABC5" d="M53.868 44.47c-.124.225-.262.438-.378.67-.256.518-.69 1.397-.832 1.932-.063.06-.195.234-.227.298-.138.06-.214.273-.378.037-.163-.236-.665-2.187-.87-2.267-1.489.742-.764.647-.415 1.374.065.137-.15.103-.151.112a2.8 2.8 0 0 0-.378-.447c-.234-.225-.469-.438-.757-.595.015-.47-.647-.339-.453-.744.762.02 1.688.126 2.417.074.612-.043 1.307-.31 1.964-.372.118-.01.28-.057.454-.074z"/><path fill="#D6E3F4" d="M38.984 39.415c-.63.384.493.746.832.967.09.058.13.062.15.074.007.213.228.292.228.335 0 .097-.515.416-.53.447-.094.204.813 2.25.492 2.267-.258-.42-2.357-2.875-2.38-3.086-.034-.29.494-.92.756-1.004.107-.035.328.029.454 0z"/><path fill="#734139" d="M50.845 43.058c-.458.184-1.976.842-2.38.819-.201-.013-2.472-.955-2.985-1.116 1.78-.277 3.62-.1 5.365.297"/><path fill="#903B1F" d="M46.237 39.564c.195.21.71.254.453.595-.008 0 .004.116-.151.074-1.527-.198-4.115 1.15-5.44.893-.173-.033-.143-.072-.152-.074.328-.153.653-.559.983-.67.452-.153 3.823-.796 4.307-.819"/><path fill="#DECAE3" d="M39.513 37.185c-.086.14-.695 1.583-.68 1.672.989.43 1.224.31.982 1.523-.338-.221-1.46-.583-.831-.967.067-.015.371-.085.378-.112-.255-.176-.582-.22-.832-.41-.14-.105-.616-.743-.756-.743-.303 0-.507.332-.227.67-.383.055-.389-.993-.34-1.042.096-.095 2.125-.883 2.304-.596z"/><path fill="#8E6155" d="M49.335 42.24c.51.112 1.389.628 1.889.67.008.074-.03.062-.076.074-.084.023-.229.045-.303.074-1.745-.396-3.585-.574-5.364-.297-.09-.03-.177-.033-.303-.075-.075-.248.254-.264.416-.297 1.3-.26 2.435-.436 3.739-.149z"/><path fill="#6F182F" d="M42.006 39.712c-.599.234-.888.82-1.434 1.116-.181-.082-.244-.153-.379-.223.034-.194.246-.372.379-.52.955-1.075 2.077-1.97 3.098-2.975l-1.662 2.602z"/><path fill="#5A161A" d="M49.335 42.24c-1.305-.287-2.439-.111-3.74.149-.16.033-.49.05-.415.298-.378-.122-.847-.155-1.283-.298l3.514-.818 1.926.67z"/><path fill="#55100D" d="M44.424 39.415c-.593.554-2.11.24-2.493.967-.33.112-.656.517-.984.67-.247-.079-.296-.186-.378-.224.549-.293.836-.882 1.435-1.116.672-.262 1.683-.225 2.418-.297z"/><path fill="#E1DAEC" d="M31.806 43.95c-.534-1.415-.147-2.934-.303-4.238.09-.012.124-.318.227-.037.154.413.244 3.336.227 3.94-.004.136.076.367-.151.334"/><path fill="#240E0E" d="M38.532 38.896c.248.188.576.233.832.41-.006.026-.31.096-.378.11-.126.03-.347-.034-.454 0-.33-.183-.73-.29-.983-.594-.28-.337-.075-.668.227-.67-.374.483.262.847.756.744"/><path fill="#F8F9FA" d="M37.7 34.287c1.283-.076 3.138.866 4.306 1.374.03.255-2.197 1.081-2.418 1.3-.126.127-.055.19-.075.224-.179-.29-2.208.5-2.305.595-.05.047-.042 1.095.34 1.042.252.301.654.41.983.595-.262.084-.79.713-.756 1.004.023.211 2.122 2.666 2.38 3.086.322-.017-.586-2.063-.491-2.267.014-.031.53-.35.53-.447 0-.043-.222-.122-.228-.334.078.05.145.105.227.148.135.07.198.14.378.224.08.037.13.144.378.223.009.002-.02.041.152.074.36.327.85.47 1.283.67-.12.51.468 2.286 1.059 1.374l-.908-1.374c.57.254.708.382 1.36.595.438.143.905.176 1.283.298.126.041.21.045.302.074.51.16 2.781 1.104 2.985 1.116.403.025 1.922-.634 2.38-.818.074-.03.219-.052.303-.075.06.554-.152 1.557.302 1.933-.729.051-1.655-.054-2.418-.075a43 43 0 0 1-5.175-.446c-.158.072-.215 2.972-.265 3.42-.85-.088-2.302-1.467-3.25-1.337-.092-.072-.094-.155-.189-.223a31 31 0 0 0-3.136.223l.416-.148c-.88-1.104-1.95-2.169-2.72-3.421l-2.758 1.263c-.158-.023-.122-.147-.152-.224.227.033.147-.198.152-.334.016-.606-.074-3.526-.227-3.94-.103-.28-.137.025-.227.038-.006-.056-.01-.083-.076-.075.044-.147.097-.302.151-.446.028-.07.047-.234.076-.298.093-.209.116-.25.227-.446.174-.304.75-1.104.983-1.412.395-.53.716-1.133 1.283-1.486l.568.818c.168-.01 2.33-1.986 2.644-2.08.076-.024.238.005.34 0z"/><path fill="#DFF3FD" d="m40.458 43.875 1.624.41-1.624 1.078z"/><path fill="#170B0C" d="M42.346 44.247c.187-.025.586.403.454.595-.689.234-1.393.842-2.153.707.17-.198 1.592-1.285 1.7-1.3z"/><path fill="#240E0E" d="M38.305 45.214c-.067.585-.542 1.395-.832.633-.246-.651.007-1.313.53-1.747l-.152 1.153.454-.037zM36.114 42.017c-.555-.471 0-.577.378-.819.326-.208.937-.632 1.134-.185-.37.35-1.006.892-1.51 1.004zM42.536 41.794l.907 1.374c-.588.912-1.176-.864-1.059-1.374.032.014.12-.015.151 0M34.564 37.26c.18-.052 1.529.125 1.548.26.092.644-2.741.086-1.548-.26"/><path fill="#D6E3F4" d="M36.492 41.2c-.378.242-.933.345-.378.819-.015.004-.124.161-.303.037-.086-.53-.548-.843-.038-1.523.71.03.158.529.719.67z"/><path fill="#240E0E" d="M40.155 41.2c.637-.125.576 1.048.378 1.117-.432.144-.937-1.005-.378-1.116M38.532 35.699c-.013.417.712.649.907 1.041-.013.015.03.139-.038.15-.294.043-2.399-1.64-.87-1.19z"/><path fill="#6A4A1D" d="M35.51 39.861c-.18-.411-.847.304-1.097.223l.037-.223c.267-.295.517-.61.87-.818.128.283.336.516.19.818"/><path fill="#240E0E" d="M35.51 39.861c-.192.389-1.093.496-1.473.596l-.076-.15c.017-.082.414-.359.492-.446l-.038.224c.248.08.916-.635 1.096-.224z"/><path fill="#512B14" d="M39.437 36.74c-.195-.39-.92-.624-.907-1.041.453.132 1.36.543.907 1.041"/><path fill="#6A4A1D" d="m38.305 45.214-.454.037.151-1.153c.013-.01-.031-.12.038-.149.269.387.32.792.265 1.263z"/><path fill="#962920" d="M46.54 38.822c.023.01-.093.072.15.148-1.245.57-.966.319-2.266.447-.735.072-1.745.035-2.418.297l1.662-2.602c.094-.093.28-.25.302-.372.901.587 1.656 1.64 2.57 2.081"/><path fill="#9F4D23" d="M49.486 40.53a17 17 0 0 1 2.947.894c-.138.171-.703 1.017-.87 1.041-.31.046-4.337-2.067-5.024-2.23.155.042.143-.072.151-.074.668-.137 2.088.221 2.796.372z"/><path fill="#CF892B" d="M52.736 41.052c-.02.19-.214.262-.303.372a17.4 17.4 0 0 0-2.947-.893c-.208-.288-.132-.343-.075-.67 1.783.277 1.84.32 3.325 1.189z"/><path fill="#240E0E" d="M53.414 43.43c-.218.032-1.44.009-1.586-.074-.01-.006-.086-.161-.15-.186.033-.087.342-.159.453-.186.378.372 1.128-.223 1.283.447"/><path fill="#6A4A1D" d="M53.566 42.91c.09.142.222.256.302.409-.15.004-.347.097-.454.112-.155-.67-.907-.073-1.283-.447.363-.089 1.056-.15 1.435-.074"/><path fill="#791915" d="M48.052 39.117c-.118.624.317.395.453.67-.712-.077-1.552-.255-2.266-.224-.485.021-3.855.666-4.306.819.384-.725 1.898-.413 2.493-.967 1.3-.128 1.02.124 2.267-.447.432.137.922.077 1.359.15"/><path fill="#BE783A" d="M48.503 39.787c.297.03.612.029.908.074-.057.327-.133.382.075.67-.707-.151-2.127-.509-2.795-.372.258-.34-.257-.385-.454-.596.714-.03 1.554.147 2.266.224"/><path fill="#D08D8C" d="M46.841 47.37c.509.66 1.773.663 2.267 1.337-.63.254-1.195.703-1.813.967-.617.265-1.451.641-2.115.819-.145.04-.288.126-.454.149.166-.569 1.752-2.768 1.737-2.937-.017-.209-.267-.013-.227-.26.177-.038.372-.013.605-.075"/><path fill="#FABAA6" d="M34.904 46.626c-.443-.4-.806-1.46-1.058-2.007.762.155 1.59.157 2.342.41.06.084-1.006 1.587-1.284 1.597"/><path fill="#72265D" d="m49.562 48.558 3.476 1.189s.116-.005.076.148c-.729.17-1.664.153-2.418.15-.542-.003-1.174-.12-1.737-.15-.275-.014-.557.017-.832 0-.294-.018-.6.013-.832-.223.618-.264 1.185-.713 1.813-.967.093-.037.23-.12.303-.149.035-.014.115.013.15 0z"/><path fill="#E0BAD8" d="M52.433 47.37a4 4 0 0 0-.15.372c-.894.306-1.837.488-2.721.818-.036.013-.116-.014-.151 0 .04-.661-.032-1.484.302-2.08.21.063.588.272.718.297.087.016.532 0 .19-.075.004-.024-.005-.051 0-.074 0-.008.216.025.15-.112-.35-.727-1.073-.632.417-1.374.201.08.71 2.038.87 2.267.159.23.239.023.377-.037z"/><path fill="#C16E71" d="m53.039 49.749-3.477-1.189c.882-.33 1.828-.51 2.72-.818 0 .157.645 1.65.757 2.007"/><path fill="#240E0E" d="M54.473 45.289c-.617.148.26.593.227 1.116-.027-.019-.13-.058-.151-.075-.393-.32-1.084-.93-.643-1.411.166.153.376.252.567.372z"/><path fill="#E1B5C2" d="M49.713 46.477c-.334.597-.262 1.42-.302 2.081-.074.027-.21.112-.303.15-.493-.675-1.758-.679-2.266-1.338.491-.132 2.214-1.102 2.531-1.116.134-.006.321.217.34.223"/><path fill="#240E0E" d="M50.243 46.18c.142.138.268.283.378.446-.005.023.004.05 0 .074l-2.23-.893c-.062-.113.379-.417.492-.446.196.467.885.85 1.36.819"/><path fill="#6A4A1D" d="M49.486 45.586c.286.155.523.368.756.596-.474.03-1.163-.352-1.359-.819.29-.072.393.108.605.223z"/><path fill="#E1DAEC" d="M49.032 44.842c-.193.403.469.273.454.744-.212-.116-.313-.295-.605-.223-.113.029-.554.333-.491.446l2.228.893c.343.077-.103.091-.189.075-.128-.025-.506-.234-.718-.298-.019-.006-.206-.227-.34-.223-.318.012-2.038.984-2.532 1.116-.233.062-.428.037-.605.074-.42.091-2.317.405-2.644.372.05-.448.107-3.348.264-3.42 1.712.252 3.443.4 5.176.446z"/><path fill="#240E0E" d="M45.71 45.66c-.06.07-.313.54-.34.67l.945-.298c.069.42-1.252.594-1.549.819-.61-.471.584-.965.946-1.188z"/><path fill="#5C3D17" d="m46.312 46.033-.945.297c.028-.128.282-.6.34-.67.286-.34.547.017.605.373M38.532 38.896c-.494.105-1.13-.258-.756-.744.14 0 .615.636.756.744"/></g><defs><linearGradient id="b" x1="30.316" x2="31.309" y1="17.506" y2="24.802" gradientUnits="userSpaceOnUse"><stop stop-color="#E0F0FB"/><stop offset="1" stop-color="#F8F6FA"/></linearGradient><linearGradient id="c" x1="28.9" x2="30.944" y1="26.181" y2="30.079" gradientUnits="userSpaceOnUse"><stop stop-color="#D37B69"/><stop offset="1" stop-color="#EEA093"/></linearGradient><linearGradient id="d" x1="22.718" x2="24.523" y1="29.849" y2="37.297" gradientUnits="userSpaceOnUse"><stop stop-color="#FBBC8E"/><stop offset="1" stop-color="#FECC8A"/></linearGradient><linearGradient id="e" x1="32.773" x2="28.999" y1="34.378" y2="38.832" gradientUnits="userSpaceOnUse"><stop stop-color="#E67A56"/><stop offset="1" stop-color="#F68F42"/></linearGradient><linearGradient id="f" x1="37.215" x2="40.665" y1="50.571" y2="53.109" gradientUnits="userSpaceOnUse"><stop stop-color="#DD9F34"/><stop offset="1" stop-color="#CB8029"/></linearGradient><linearGradient id="g" x1="56.397" x2="55.011" y1="43.125" y2="43.883" gradientUnits="userSpaceOnUse"><stop stop-color="#E0CFE6"/><stop offset="1" stop-color="#E6E3F1"/></linearGradient><linearGradient id="h" x1="57.325" x2="52.632" y1="37.761" y2="39.63" gradientUnits="userSpaceOnUse"><stop stop-color="#E7D4E7"/><stop offset="1" stop-color="#F8FCFE"/></linearGradient><filter id="a" width="70" height="70" x="0" y="0" color-interpolation-filters="sRGB" filterUnits="userSpaceOnUse"><feFlood flood-opacity="0" result="BackgroundImageFix"/><feBlend in="SourceGraphic" in2="BackgroundImageFix" result="shape"/><feColorMatrix in="SourceAlpha" result="hardAlpha" values="0 0 0 0 0 0 0 0 0 0 0 0 0 0 0 0 0 0 127 0"/><feMorphology in="SourceAlpha" radius="3" result="effect1_innerShadow_289_3600"/><feOffset/><feGaussianBlur stdDeviation="1"/><feComposite in2="hardAlpha" k2="-1" k3="1" operator="arithmetic"/><feColorMatrix values="0 0 0 0 0 0 0 0 0 0 0 0 0 0 0 0 0 0 0.08 0"/><feBlend in2="shape" result="effect1_innerShadow_289_3600"/></filter></defs></svg>