<svg width="70" height="70" viewBox="0 0 70 70" fill="none" xmlns="http://www.w3.org/2000/svg">
<g filter="url(#filter0_i_345_22106)">
<path d="M0 35C0 15.67 15.67 0 35 0C54.33 0 70 15.67 70 35C70 54.33 54.33 70 35 70C15.67 70 0 54.33 0 35Z" fill="white" fill-opacity="0.75"/>
<path d="M45.4047 39.4088C45.2044 39.434 44.7536 39.4542 44.7342 39.6472C44.6399 39.6346 44.463 39.6358 44.3687 39.6472C44.3919 39.3886 44.6464 39.0468 44.6735 38.8134C44.649 39.0442 44.8466 38.8147 44.9177 38.6948C44.9939 38.8121 45.3517 39.3457 45.406 39.41L45.4047 39.4088Z" fill="#906B6D"/>
<path d="M45.4046 39.4087C45.4783 39.4957 45.8645 39.8729 45.9536 39.9448L45.4654 40.0634C45.4473 40.0419 45.3155 39.9725 45.2819 39.9448C45.0739 39.772 45.0352 39.6862 44.7329 39.6471C44.7536 39.4541 45.2044 39.4339 45.4033 39.4087H45.4046Z" fill="#BE9A99"/>
<path d="M46.5026 40.3033C46.4626 40.297 45.8387 40.4786 45.7095 40.4824C45.703 40.4597 45.4899 40.0951 45.4653 40.0649L45.9536 39.9463C46.1112 40.0724 46.3244 40.2036 46.5026 40.3033Z" fill="#906B6D"/>
<path d="M44.9167 38.6948C44.8456 38.8159 44.648 39.0442 44.6725 38.8134C44.6945 38.6229 44.6441 38.2974 44.6118 38.0981C44.7604 38.2672 44.7927 38.5056 44.9167 38.6935V38.6948Z" fill="#A9857C"/>
<path d="M54.189 33.8089C54.4771 34.2883 54.7535 35.0439 54.7987 35.5964C54.8142 35.7755 54.8078 36.0088 54.7987 36.1917C54.7742 36.6698 54.636 37.2249 54.4939 37.6815C54.335 37.7269 54.4008 37.4885 54.2497 37.5919C54.1877 37.6348 53.68 38.683 53.5173 38.9025C51.8328 41.1706 48.9986 41.7092 46.5016 40.3027C46.3233 40.2018 46.1102 40.0719 45.9526 39.9457C45.8634 39.8738 45.4772 39.4967 45.4036 39.4096C45.3493 39.3453 44.9915 38.8117 44.9153 38.6944C44.7913 38.5052 44.7577 38.268 44.6104 38.099C44.5807 37.9186 44.3895 37.3813 44.3055 37.2059C44.3172 36.9019 44.3017 36.5904 44.3055 36.2826C44.3055 36.2384 44.1815 36.2662 44.1841 36.2233C44.1854 36.1766 44.29 36.2573 44.3055 36.0744L44.5497 36.1337C44.6027 36.3936 44.7293 36.3545 44.7331 36.3721C45.153 38.3841 45.972 39.812 48.1796 40.3633C54.1335 41.8479 56.6524 33.9931 51.413 31.6065L49.6742 31.189C51.4104 31.2142 53.3067 32.3432 54.1877 33.8102L54.189 33.8089Z" fill="#E77C24"/>
<path d="M48.1499 32.4983C48.4006 33.0444 48.8423 34.2453 49.0038 34.8218C48.6008 34.7802 48.8527 35.2065 48.699 35.4172C48.3941 35.4033 47.0158 34.7209 46.7471 34.5241C46.8039 34.2731 47.1824 34.0952 47.2354 33.8391C47.2651 33.6966 47.0971 33.5667 47.1139 33.4822C47.1566 33.2576 47.5764 33.0028 47.1747 32.4692L48.1512 32.4995L48.1499 32.4983Z" fill="#FBBA57"/>
<path d="M48.1498 32.4984L47.1733 32.4681C47.575 33.0017 47.1552 33.2565 47.1125 33.4811C47.0957 33.5656 47.2637 33.6955 47.234 33.838C47.181 34.0941 46.8038 34.272 46.7457 34.523C46.3543 34.2367 46.1721 33.9818 46.2574 33.4811C46.154 33.336 46.0882 33.4256 45.9525 33.4508C45.9176 33.1455 45.9667 32.9551 46.0739 32.6763C46.5274 32.7066 47.4691 31.8652 47.8734 32.0216C48.009 32.0733 48.0982 32.3899 48.1486 32.4984H48.1498Z" fill="#FED386"/>
<path d="M48.1501 35.3579C47.9744 35.4853 47.3182 35.2746 47.2045 35.2986C46.9733 35.3478 47.1748 35.6669 47.0211 35.7161C46.6723 35.8271 45.9489 35.5269 45.7707 36.0731C45.5123 35.8007 45.4903 35.0879 45.6492 34.7625C45.9774 34.8634 46.3894 34.5594 46.6555 34.5834C46.7395 34.591 47.8995 35.2519 48.1501 35.3579Z" fill="#FBBA57"/>
<path d="M48.1497 35.3579C48.3912 35.4601 48.6186 35.5572 48.8821 35.5963C48.8873 35.6568 48.9816 35.6922 48.9428 35.7451C48.8769 35.836 47.0839 36.2308 46.8385 36.251C46.4574 36.2838 46.0156 36.3304 45.7715 36.0718C45.9498 35.5244 46.6731 35.8259 47.0219 35.7149C47.1757 35.6657 46.9741 35.3465 47.2054 35.2973C47.319 35.2734 47.9753 35.484 48.151 35.3566L48.1497 35.3579Z" fill="#F9A021"/>
<path d="M46.0751 32.6774C45.9679 32.9562 45.9175 33.1467 45.9537 33.4519C45.9059 33.4608 45.8787 33.491 45.8322 33.5112C45.229 33.7673 44.9835 34.4434 44.7949 35.001C44.6593 35.4021 44.4423 35.6039 44.5508 36.1325L44.3066 36.0732C44.3919 35.1397 44.5934 34.5746 45.0391 33.7496C45.1295 33.5819 45.2419 33.3712 45.3439 33.2135C45.5648 32.8742 46.3192 32.1388 46.3812 31.8436C46.42 31.8398 46.4717 31.8525 46.5027 31.8436C46.668 31.797 46.7481 31.6506 46.8683 31.6052C46.7274 32.0984 46.2805 32.1439 46.0751 32.6774Z" fill="#FBBA57"/>
<path d="M46.7469 34.5241C47.0169 34.7209 48.394 35.4033 48.6988 35.4172C48.7544 35.4197 48.8345 35.4273 48.8823 35.4172C48.9404 35.4954 48.8823 35.5875 48.8823 35.5963C48.6187 35.5572 48.3914 35.4601 48.1498 35.3579C47.9083 35.2557 46.7392 34.591 46.6552 34.5834C46.3891 34.5582 45.9757 34.8634 45.6489 34.7625C45.7652 34.5216 46.0713 34.3463 46.0765 34.316C46.0843 34.2718 45.6916 33.7849 45.8324 33.5112C45.8802 33.491 45.9073 33.4607 45.9538 33.4519C46.0894 33.4267 46.1553 33.3359 46.2586 33.4822C46.1721 33.9842 46.3542 34.239 46.7469 34.5241Z" fill="#FED386"/>
<path d="M45.0382 35.0603L44.8548 36.2511C44.8095 36.2876 44.7437 36.323 44.7333 36.3696C44.7295 36.352 44.6029 36.3911 44.5499 36.1312C44.4414 35.6027 44.6584 35.4009 44.794 34.9997C44.8832 34.9884 44.9684 35.0048 45.0382 35.059V35.0603Z" fill="#FED386"/>
<path d="M49.0036 34.8218C49.1005 35.1687 49.2632 35.334 48.8822 35.4172C48.8357 35.4273 48.7556 35.4198 48.6987 35.4172C48.8525 35.2066 48.6006 34.779 49.0036 34.8218Z" fill="#F9A021"/>
<path d="M49.6133 31.189C49.6339 31.189 49.6533 31.189 49.674 31.189L51.4127 31.6065C56.6535 33.9931 54.1332 41.8467 48.1794 40.3633C45.9704 39.8133 45.1527 38.3841 44.7329 36.3721C44.7445 36.3255 44.8104 36.2901 44.8543 36.2536C45.154 36.0088 45.34 35.3037 45.0378 35.0628C44.968 35.0073 44.8828 34.9909 44.7936 35.0035C44.9822 34.4459 45.2277 33.7698 45.8309 33.5138C45.6901 33.7875 46.0828 34.2744 46.0751 34.3185C46.0699 34.3488 45.765 34.5254 45.6475 34.7651C45.4899 35.0893 45.5119 35.8032 45.7689 36.0757C46.026 36.3482 46.4562 36.2876 46.8359 36.2548C47.0814 36.2334 48.8757 35.8398 48.9403 35.749C48.9777 35.696 48.8834 35.6607 48.8795 35.6001C48.8795 35.5913 48.9377 35.5005 48.8795 35.421C49.2619 35.3378 49.0991 35.1713 49.001 34.8256C48.8395 34.2492 48.3977 33.0483 48.1471 32.5021C48.098 32.3936 48.0076 32.077 47.8719 32.0253C47.4676 31.8701 46.5259 32.7102 46.0725 32.68C46.2779 32.1464 46.7235 32.101 46.8656 31.6078C47.3268 31.4337 49.0475 31.1927 49.6107 31.1902L49.6133 31.189Z" fill="#FED567"/>
<path d="M50.0099 35.9534C50.1545 35.8891 53.0313 36.0228 53.1825 36.072C53.7341 36.2537 53.0959 38.9241 51.963 38.4548C51.8196 38.3955 49.9207 36.3142 49.9194 36.1616C49.9259 36.1124 49.9879 35.9635 50.0111 35.9534H50.0099Z" fill="#F79229"/>
<path d="M52.327 33.3332C53.2584 33.2462 53.695 35.7766 52.9974 35.9545C52.4252 36.1008 50.8324 35.6517 50.131 35.8359C50.0819 35.7716 49.9695 35.7287 49.9785 35.6278C49.9928 35.465 52.1319 33.3522 52.327 33.3345V33.3332Z" fill="#F9A021"/>
<path d="M48.3625 36.014C48.6454 35.9887 49.153 35.9042 49.0032 36.2827C48.9438 36.4328 46.9957 38.6503 46.8381 38.6957C46.0101 38.9316 45.2402 36.9651 45.6484 36.5211C45.8512 36.3003 46.5346 36.4265 46.8381 36.3722C47.2812 36.294 47.9555 36.0506 48.3637 36.0152L48.3625 36.014Z" fill="#F9A021"/>
<path d="M49.1559 36.3711C49.4375 36.3623 49.5318 37.485 49.5524 37.7713C49.5809 38.1687 49.6532 39.5663 49.2166 39.7076C49.0021 39.777 47.5747 39.4276 47.3861 39.2901C47.1226 39.0983 47.1252 38.7691 47.2337 38.4853C47.3125 38.2797 49.0073 36.3749 49.1559 36.3711Z" fill="#F79229"/>
<path d="M50.1313 32.082C50.6196 31.9218 52.1336 32.3519 52.0535 33.0646C52.0251 33.3119 50.1029 35.5017 49.8885 35.4172C49.6172 34.9782 49.7296 32.2132 50.1326 32.082H50.1313Z" fill="#F9A021"/>
<path d="M49.6441 36.3118C49.8856 36.2197 51.8724 38.5356 52.0532 38.9027C49.6957 41.0509 49.471 38.0929 49.6441 36.3118Z" fill="#F79229"/>
<path d="M49.2771 32.0227C50.0418 31.8676 49.6917 34.0612 49.6129 34.5544C49.5742 34.7915 49.5354 35.0892 49.3998 35.2986C49.2435 35.3403 48.3147 32.8464 48.3328 32.7077C48.3754 32.3709 48.7126 32.5626 48.8508 32.4995C49.0523 32.4075 49.0497 32.0694 49.2784 32.0227H49.2771Z" fill="#FBBA57"/>
<path d="M44.8555 36.2511L45.0389 35.0603C45.3425 35.3012 45.1552 36.0076 44.8555 36.2511Z" fill="#FDEEB0"/>
<path d="M54.4939 37.6819C54.4112 37.9455 54.2743 38.194 54.1891 38.4564C53.9449 38.662 53.9333 38.9874 53.8235 39.111C53.6142 39.3457 53.3701 39.6799 53.153 39.8856C52.4813 40.5201 51.4427 40.9754 50.5294 41.1369C49.3139 41.3513 48.5323 41.2227 47.3878 40.8392C47.1617 40.7635 46.5546 40.3107 46.5029 40.3031C48.9987 41.7096 51.8341 41.1709 53.5186 38.9029C53.6814 38.6834 54.1878 37.6352 54.2511 37.5923C54.4009 37.4889 54.3363 37.726 54.4952 37.6819H54.4939Z" fill="#A94724"/>
<path d="M46.5028 31.8437C46.4718 31.8525 46.4202 31.8399 46.3814 31.8437C46.3956 31.7769 46.3775 31.6822 46.3814 31.6053C46.6579 31.5839 46.5377 31.6608 46.5028 31.8437Z" fill="#F9FBF8"/>
<path d="M46.685 27.3164C47.1552 27.9672 47.2405 28.077 47.4175 28.8654C47.4846 29.1669 47.4265 29.3308 47.5092 29.5806C47.5389 29.5554 47.5518 29.5175 47.6009 29.5213C47.938 29.5478 47.7068 29.3939 47.7223 29.3422C48.0143 29.0672 49.1472 28.5513 49.5825 28.27C49.8886 28.0719 50.178 27.8108 50.4364 27.5548L50.7115 27.7036C50.4247 28.6799 49.2117 29.2955 48.3023 29.6399C48.1499 29.6979 47.597 29.713 47.5092 29.7585C47.3554 29.8379 46.9847 30.8244 46.747 30.9795C47.225 31.117 50.2775 30.3072 50.4376 30.4131C50.7658 30.6314 49.7543 31.0905 49.6135 31.1876C49.0503 31.1902 47.3296 31.4311 46.8684 31.6052C46.7483 31.6506 46.6669 31.7969 46.5029 31.8436C46.5365 31.6607 46.6579 31.5837 46.3814 31.6052C46.4008 31.2381 46.3621 30.837 46.198 30.533C46.0688 30.2933 44.1234 28.6282 44.7034 28.3886C45.5469 28.8969 46.539 29.4759 46.6553 30.533C46.7276 30.3816 47.2947 29.5516 47.296 29.491C47.3012 29.1807 45.7252 27.4059 45.5276 26.8408C45.7549 26.8105 45.8841 27.363 46.0456 27.4362C46.1683 27.4917 46.4667 27.1435 46.6863 27.3176L46.685 27.3164Z" fill="#44873F"/>
<path d="M47.7223 29.3423C47.6642 29.3965 47.6255 29.4482 47.6009 29.5214C47.5531 29.5176 47.5389 29.5555 47.5092 29.5807C47.4278 29.3309 47.4859 29.1669 47.4175 28.8655C47.6823 28.6548 47.8799 28.0102 47.9665 27.6747C47.991 27.5776 48.0052 27.4716 48.0272 27.377C48.1396 26.9077 48.3282 25.1544 48.6369 24.8453C48.9276 24.5552 48.9702 25.4508 48.9418 25.6791C48.8927 26.0714 48.4922 26.4448 48.4535 26.5722C48.1822 27.4779 48.022 28.424 47.721 29.3423H47.7223Z" fill="#758F3A"/>
<path d="M48.0269 27.3757C48.0037 27.4703 47.9908 27.5763 47.9662 27.6734C47.6123 27.411 47.8151 27.1398 47.6614 26.8686C47.5076 26.5974 46.3515 25.8418 46.3799 25.6779C46.4574 25.2376 47.5206 26.1118 47.6614 26.3325C47.8978 26.7059 47.828 27.0326 48.0269 27.3745V27.3757Z" fill="#62AC45"/>
<path d="M46.6852 27.3166C46.4656 27.1437 46.1672 27.4919 46.0445 27.4351C45.883 27.362 45.7525 26.8095 45.5265 26.8397C45.4425 26.5975 45.2565 26.2065 45.6789 26.1851C45.768 26.2015 46.5767 27.1652 46.6852 27.3166Z" fill="#62AC45"/>
<path d="M49.705 26.6618C50.9413 26.5281 48.6251 27.6104 48.4546 27.7643C48.3797 27.3682 49.4002 26.6959 49.705 26.6618Z" fill="#62AC45"/>
<path d="M47.6011 29.5202C47.6269 29.447 47.6657 29.3966 47.7225 29.3411C47.7057 29.3915 47.9382 29.5454 47.6011 29.5202Z" fill="#75B563"/>
<path d="M58.2766 32.916C58.1474 33.9731 57.6178 35.3796 56.9952 36.2512C56.8221 36.4934 56.4216 36.9273 56.202 37.1443C56.1581 37.1884 56.0276 37.2301 56.0186 37.3234C55.9992 37.3234 55.9759 37.3196 55.9579 37.3234C55.9501 37.0219 56.1439 36.694 55.8971 36.4896C56.162 36.0405 55.861 35.5322 55.8364 35.0604C56.14 35.0554 57.2548 35.4893 57.331 35.478C57.9072 35.3859 56.1038 34.8334 56.0806 34.793L58.2766 32.916Z" fill="#44873F"/>
<path d="M57.7879 32.7368C57.8047 32.8062 57.9107 32.9021 57.8797 32.9752C57.7544 33.2691 56.2443 34.3615 55.8968 34.6428C55.9717 34.4347 55.7211 33.2338 55.7753 33.1834C55.951 33.0206 56.8385 33.1707 56.9341 32.8554C57.2118 32.8112 57.5102 32.7721 57.7879 32.7368Z" fill="#44873F"/>
<path d="M58.2762 32.9161L56.0801 34.7931C56.1034 34.8335 57.9067 35.386 57.3306 35.478C57.2544 35.4907 56.1396 35.0555 55.836 35.0605C55.7779 35.0605 55.7017 35.0492 55.6526 35.0605C55.38 34.8473 55.7443 34.7679 55.8967 34.643C56.2442 34.3604 57.7543 33.2693 57.8796 32.9754C57.9106 32.9022 57.806 32.8064 57.7879 32.737C57.9403 32.7181 58.1108 32.7004 58.2452 32.6184C58.3563 32.6878 58.2891 32.8038 58.2762 32.9161Z" fill="#62AC45"/>
<path d="M55.8967 36.4896C56.1447 36.694 55.9497 37.0219 55.9574 37.3234C55.889 37.3373 55.026 38.0387 54.8594 38.1572C54.7586 38.2291 54.2523 38.4019 54.189 38.4549C54.2742 38.1925 54.4112 37.9453 54.4938 37.6804C54.6372 37.2238 54.7741 36.6688 54.7987 36.1907C54.9976 36.2638 55.7895 36.4001 55.8967 36.4884V36.4896Z" fill="#376C35"/>
<path d="M55.8361 35.0602C55.8607 35.5333 56.163 36.0403 55.8968 36.4894C55.7896 36.4011 54.9965 36.2649 54.7988 36.1917C54.8079 36.0088 54.8143 35.7754 54.7988 35.5963C55.0158 35.6064 55.5674 35.0804 55.6527 35.0602C55.7018 35.0489 55.778 35.0602 55.8361 35.0602Z" fill="#376C35"/>
<path d="M55.8967 34.6427C55.7443 34.7663 55.38 34.847 55.6526 35.0602C55.5673 35.0804 55.0157 35.6064 54.7987 35.5963C54.7522 35.0438 54.477 34.2882 54.189 33.8089C55.0467 33.2034 55.907 33.0179 56.934 32.8552C56.8384 33.1706 55.9497 33.0192 55.7753 33.1832C55.721 33.2336 55.9716 34.4345 55.8967 34.6427Z" fill="#44873F"/>
<path d="M55.0116 34.9417C55.1331 34.9076 55.2467 34.9795 55.3475 35.0313C54.7081 35.6367 54.6887 35.0325 55.0116 34.9417Z" fill="#376C35"/>
<path d="M39.426 44.3535C34.0612 48.4884 24.1958 48.9374 18.2885 45.7234C16.4567 44.7268 14.4222 43.1513 13.3784 41.3752C19.5002 44.2059 32.5743 44.5628 39.426 44.3535Z" fill="url(#paint0_linear_345_22106)"/>
<path d="M55.0419 45.0081C54.8818 45.1191 54.7125 45.2036 54.5536 45.3058C54.5007 45.1973 54.17 45.3361 54.0964 45.3651C50.1125 46.9684 46.0718 48.3736 41.8347 49.2364L37.6558 49.9516C32.2523 50.1648 26.4754 49.7069 21.4297 47.8072C22.2177 48.0494 23.1813 48.2765 23.9913 48.4619C24.8452 48.6587 25.7158 48.9261 26.5839 49.0573C34.6162 50.2695 43.5438 48.1718 49.9781 43.3985C52.3524 43.0126 58.3541 41.8584 59.6769 39.825C58.9909 41.9719 56.8634 43.7505 55.0406 45.0069L55.0419 45.0081Z" fill="url(#paint1_linear_345_22106)"/>
<path d="M13.3782 41.3753C14.4232 43.1526 16.4565 44.7268 18.2883 45.7234C24.1943 48.9375 34.061 48.4884 39.4257 44.3535C39.719 44.3446 40.0393 44.3055 40.3403 44.2942C41.3996 44.2526 42.4563 44.1933 43.5129 44.1151C43.1784 44.4935 42.5842 44.8177 42.1398 45.0687C38.0978 47.3506 33.862 48.6637 29.147 48.7621C27.4173 48.7987 25.6863 48.5527 23.9928 48.4644C23.1815 48.2777 22.2179 48.0507 21.4312 47.8098C21.0152 47.6823 20.9984 47.8186 20.9739 47.8098C20.1278 47.531 18.1849 46.4436 17.344 45.963C14.5976 44.3913 12.3344 42.3667 11 39.4995C11.2622 39.4201 11.3501 39.9322 11.4883 40.0949C11.965 40.66 12.7077 41.0649 13.3795 41.3753H13.3782Z" fill="#CCB193"/>
<path d="M27.8969 41.4347C28.2173 41.9783 29.0557 42.6217 29.6654 42.8046C30.1873 42.961 30.5916 42.903 31.129 42.9231C31.532 42.9383 33.5265 43.0278 33.6299 42.715C33.4387 42.4009 32.7243 42.6545 32.4104 42.387C32.8109 42.1562 33.1416 41.7046 33.387 41.5532C33.4929 41.4876 33.5937 41.4738 33.6919 41.4347C33.8598 41.504 34.1117 41.5255 34.3016 41.5532C35.4177 41.7172 36.5403 41.8648 37.6564 42.0301C37.7817 42.049 38.4082 42.3769 38.4805 42.387C40.0759 42.6305 42.9746 42.5397 44.4886 42.2685C45.2469 42.1322 45.9664 41.9708 46.7454 41.8509C46.9314 41.8219 47.2337 41.8635 47.4468 41.7916C47.647 41.7235 47.5812 41.5331 47.691 41.4939C47.7646 41.4675 48.7386 41.6163 48.9104 41.6125C51.0599 41.5797 53.6732 41.7815 55.6509 41.195C55.8525 41.1357 56.178 41.0234 56.3834 41.0764C52.1269 42.5964 46.4663 43.2397 41.9257 43.4592C40.9956 43.5046 39.7387 43.6472 38.8448 43.5778C37.8695 43.5034 36.632 43.0505 35.6115 42.9824C33.8172 42.8613 31.8575 43.1855 30 43.101C29.1022 43.0606 26.3377 42.8361 25.5472 42.6242C25.3444 42.5699 25.387 42.6254 25.3947 42.3858C27.2846 42.3101 27.1968 42.1461 25.4555 41.7311C25.5459 41.6453 25.914 41.113 25.9437 41.0159L27.8956 41.4334L27.8969 41.4347Z" fill="#F4E8E5"/>
<path d="M59.923 39.4087C59.7783 39.2636 59.7228 39.6862 59.6788 39.8262C58.3561 41.8596 52.3544 43.0151 49.9801 43.3998C47.8538 43.7454 45.6643 43.9561 43.5134 44.115C42.4568 44.1932 41.4001 44.2513 40.3408 44.2942L41.2864 43.9372L41.9271 43.4604C46.4678 43.2409 52.1284 42.5975 56.3848 41.0775C57.7231 40.5995 60.3493 39.7644 59.8623 37.9795C60.0328 38.3806 60.0341 38.976 59.923 39.4087Z" fill="#CBC4B9"/>
<path d="M59.8613 37.9795C60.3496 39.7632 57.7234 40.5982 56.3838 41.0776C56.1784 41.0246 55.8542 41.1369 55.6514 41.1961L57.0542 40.3031C57.1731 40.2589 57.2028 40.2299 57.2984 40.1845C59.6159 39.0656 57.7931 37.6225 56.2004 37.147C56.42 36.93 56.8204 36.4948 56.9935 36.2539C57.7983 36.4608 59.528 37.1987 59.86 37.9808L59.8613 37.9795Z" fill="#E4D1C8"/>
<path d="M14.476 37.4434C14.6 37.601 15.7716 38.2393 15.8491 38.2179C16.0338 38.1662 15.8633 38.0299 16.0016 37.9795C16.1049 39.1816 17.2817 40.3888 18.4417 40.7193C18.3423 41.0409 18.6161 41.133 18.8693 41.2554C17.2869 41.0498 13.3947 40.0848 13.7448 37.9795C13.9257 37.7133 14.3145 37.5745 14.4772 37.4434H14.476Z" fill="#E2BFC5"/>
<path d="M22.4067 41.1963C22.5733 41.3123 22.7774 41.6441 23.0771 41.851L22.4364 42.0301C22.4558 42.1361 22.625 42.1815 22.7115 42.2092C22.3318 42.4476 22.1987 41.9973 21.9494 41.9115C21.1136 41.6252 19.7818 41.6529 18.9292 41.3161C18.9731 41.1736 19.0868 41.19 19.2043 41.1976C19.5996 41.2203 22.0527 41.499 21.0645 40.8406C21.5464 40.92 22.0062 40.9175 22.4067 41.1976V41.1963Z" fill="#F3DCE0"/>
<path d="M25.396 42.3871C24.5977 42.4187 23.4829 42.454 22.7117 42.208C22.6264 42.1803 22.4572 42.1361 22.4365 42.0289L23.0772 41.8498C23.2646 41.9784 23.4067 42.1664 23.5953 42.2068C24.1714 42.3304 24.8057 42.1828 25.2733 41.8498C25.3198 41.8157 25.4205 41.7653 25.4567 41.7312C27.198 42.1462 27.2859 42.3115 25.396 42.3859V42.3871Z" fill="#B29FA0"/>
<path d="M15.1465 36.0736C15.2731 36.0862 15.8531 36.751 15.9397 36.9074C15.8441 36.8733 15.6219 36.6046 15.5431 36.6097C15.4772 36.6147 14.5639 37.2341 14.4451 37.3249C14.3805 37.3741 14.5097 37.417 14.4761 37.4435C14.3133 37.5747 13.9245 37.7134 13.7437 37.9796C13.8354 37.4296 14.0834 37.4712 14.2319 37.1748C14.2423 37.1533 14.1066 36.9679 14.2319 36.698C14.3017 36.5491 14.998 36.0584 15.1465 36.0723V36.0736Z" fill="#E4D1C8"/>
<path d="M21.0645 40.8393C22.0528 41.4977 19.5997 41.219 19.2044 41.1963C19.0881 41.19 18.9731 41.1723 18.9292 41.3148C18.8465 41.282 18.8724 41.2568 18.8685 41.2555C18.6153 41.1332 18.3427 41.0411 18.4409 40.7194C18.4732 40.7283 18.5275 40.7119 18.5624 40.7194C19.2444 40.8784 19.5532 40.9515 20.2701 40.6602C20.4807 40.7813 20.8165 40.7977 21.0632 40.8393H21.0645Z" fill="#795F64"/>
<path d="M54.5546 45.306C49.5463 48.5428 43.617 49.7172 37.6567 49.9518L41.8357 49.2366C46.0714 48.3738 50.1134 46.9673 54.0973 45.3653C54.1709 45.3363 54.5016 45.1963 54.5546 45.306Z" fill="#9C7457"/>
<path d="M49.9785 43.3999C43.5455 48.1732 34.6166 50.2721 26.5843 49.0587C25.7162 48.9275 24.8456 48.6588 23.9917 48.4633C25.6865 48.5516 27.4162 48.7976 29.1459 48.761C33.8622 48.6626 38.0967 47.3494 42.1387 45.0675C42.5818 44.8178 43.176 44.4936 43.5119 44.1139C45.6627 43.955 47.851 43.7443 49.9785 43.3987V43.3999Z" fill="url(#paint2_linear_345_22106)"/>
<path d="M57.0554 40.3033L55.6525 41.1963C53.6748 41.7816 51.0615 41.5811 48.912 41.6139C48.7389 41.6164 47.7649 41.4676 47.6925 41.4953C47.5827 41.5357 47.6486 41.7249 47.4484 41.793C47.2352 41.8662 46.933 41.8245 46.7469 41.8523C46.9472 41.3477 45.9641 41.4713 45.6489 41.4348C45.7445 41.2191 45.7445 40.8987 45.7096 40.6602C45.9073 40.4269 45.751 40.8495 45.9848 41.0172C46.5919 41.4562 49.802 41.4247 50.652 41.3742C51.9451 41.2985 53.224 41.074 54.4951 40.8381C55.2947 40.6905 56.3087 40.5846 57.0567 40.302L57.0554 40.3033Z" fill="#D5BAB7"/>
<path d="M43.2086 41.1371C43.2887 41.5647 43.6698 41.759 44.0018 41.9709C44.1529 42.068 44.2743 42.2232 44.4901 42.2686C42.9761 42.541 40.0773 42.6306 38.482 42.3871C38.4096 42.3758 37.7831 42.0478 37.6578 42.0302C37.6152 41.7464 37.9704 41.7199 38.1461 41.6126C38.2856 41.6908 38.4277 41.7867 38.5737 41.851C39.341 42.1891 39.6175 42.3796 40.5256 42.2686C41.05 42.3506 43.361 42.3871 42.2333 41.5534C42.5033 41.4133 42.9076 41.1245 43.2099 41.1358L43.2086 41.1371Z" fill="#A38B89"/>
<path d="M37.0468 40.9578C37.2832 41.2454 37.8374 41.4409 38.1448 41.6124C37.9704 41.7197 37.6139 41.7449 37.6565 42.03C36.5404 41.8647 35.4179 41.7171 34.3018 41.5532L37.0468 40.9578Z" fill="#E2BFC5"/>
<path d="M36.9252 40.6602C36.9885 40.7674 37.0363 40.9452 37.0467 40.9579L34.3016 41.5532C34.1117 41.5255 33.8598 41.5028 33.6919 41.4347C34.1621 41.2429 34.9695 41.1445 35.4914 41.0171C35.5443 41.0045 35.5159 40.8998 35.5224 40.8986C35.5456 40.8935 35.6554 40.9919 35.7975 40.9579C36.167 40.8696 36.5364 40.6967 36.9265 40.6602H36.9252Z" fill="#A38B89"/>
<path d="M31.1304 42.9233C31.6096 42.7518 31.9623 42.6458 32.4118 42.3872C32.7257 42.6546 33.4401 42.4011 33.6313 42.7152C33.5279 43.028 31.5321 42.9384 31.1304 42.9233Z" fill="#A4958E"/>
<path d="M27.6526 40.8986C27.6849 40.9945 27.8463 41.3502 27.8967 41.4347L25.9448 41.0172C25.9565 40.9793 25.9991 40.7687 26.0055 40.7195L27.6526 40.8986Z" fill="#E2BFC5"/>
<path d="M46.747 41.8511C45.9668 41.9709 45.2485 42.1311 44.4902 42.2686C44.2745 42.2232 44.1531 42.068 44.002 41.9709C44.4592 42.0718 45.0238 42.0352 45.4048 41.7325C45.6477 41.8372 46.3272 41.9268 46.3504 41.6139H45.5263C45.5405 41.5938 45.6438 41.4449 45.6477 41.4348C45.9629 41.4714 46.9459 41.3478 46.7457 41.8523L46.747 41.8511Z" fill="#917C7F"/>
<path d="M57.2997 40.1833C57.1628 39.6232 56.5001 39.656 56.0802 39.4088C56.5815 39.2107 57.2609 38.8954 57.1175 38.247C57.0698 38.0313 56.2417 37.3325 56.0195 37.3237C56.0286 37.2316 56.1578 37.1887 56.203 37.1445C57.7957 37.6213 59.6184 39.0644 57.301 40.182L57.2997 40.1833Z" fill="#B29FA0"/>
<path d="M56.0805 39.4089C56.5003 39.6562 57.1643 39.6234 57.2999 40.1834C57.2043 40.2289 57.1746 40.2579 57.0557 40.302C56.3078 40.5846 55.2938 40.6905 54.4941 40.8381C54.582 40.5694 54.8339 40.5518 54.9824 40.2717C54.9966 40.2453 54.8197 40.2579 54.861 40.1532C54.9023 40.0485 55.202 39.8933 55.1052 39.6473C55.3532 39.5893 55.5934 39.5527 55.8376 39.4682C55.8996 39.4468 56.0236 39.4316 56.0817 39.4089H56.0805Z" fill="#A38B89"/>
<path d="M15.9397 36.9074C15.9539 36.9326 15.9332 37.2126 16.1231 37.3842C16.1076 37.3956 16.012 37.6882 16.0017 37.7412C15.963 37.9291 15.9914 37.8547 16.0017 37.9796C15.8635 38.03 16.0327 38.1663 15.8493 38.218C15.7731 38.2394 14.6014 37.6012 14.4761 37.4435C14.5097 37.417 14.3818 37.3728 14.4451 37.3249C14.564 37.2341 15.4772 36.6147 15.5431 36.6097C15.6219 36.6046 15.8441 36.8733 15.9397 36.9074Z" fill="#D5BAB7"/>
<path d="M56.0184 37.3237C56.2406 37.3325 57.0686 38.0313 57.1164 38.247C57.2598 38.8941 56.5803 39.2095 56.0791 39.4088C56.021 39.4315 55.897 39.4466 55.835 39.4681C55.8647 39.3331 55.4487 39.3747 55.286 39.3495C55.255 38.8336 55.317 38.5346 54.8584 38.1587C55.025 38.0401 55.888 37.3375 55.9564 37.3249C55.9745 37.3211 55.999 37.3249 56.0171 37.3249L56.0184 37.3237Z" fill="#917C7F"/>
<path d="M22.1622 40.1239C22.1544 40.2337 22.1518 40.3724 22.1622 40.4809C22.1841 40.7067 22.3017 40.9905 22.4063 41.1962C22.0059 40.9161 21.546 40.9186 21.0642 40.8392C20.8174 40.7988 20.4828 40.7824 20.271 40.66C20.5371 40.5516 21.0021 40.216 21.1856 40.0054L22.1622 40.1239Z" fill="#F4E8E5"/>
<path d="M55.1038 39.6472C55.2007 39.8932 54.901 40.0458 54.8597 40.153C54.8183 40.2603 54.9953 40.2464 54.9811 40.2716C54.8325 40.5517 54.5807 40.5693 54.4928 40.838C53.2217 41.0739 51.9428 41.2984 50.6497 41.3741L50.5283 41.1357C51.4416 40.9742 52.4802 40.5201 53.1519 39.8844C53.6131 39.9512 54.1608 39.8465 54.6155 39.7658C54.7718 39.738 54.9462 39.6838 55.1038 39.6472Z" fill="#795F64"/>
<path d="M50.5278 41.1369L50.6492 41.3753C49.7992 41.4258 46.5905 41.4573 45.982 41.0184C45.7495 40.8506 45.9058 40.428 45.7069 40.6614C45.6991 40.6046 45.7198 40.5302 45.7069 40.4823C45.8361 40.4785 46.46 40.2968 46.5 40.3031C46.5517 40.3107 47.1588 40.7636 47.3849 40.8392C48.5294 41.2227 49.311 41.3514 50.5265 41.1369H50.5278Z" fill="#A38B89"/>
<path d="M40.5244 42.2684C41.1496 42.1915 41.6831 41.8383 42.2322 41.5532C43.3599 42.3858 41.0489 42.3492 40.5244 42.2684Z" fill="#917C7F"/>
<path d="M45.4048 41.7323C45.4138 41.726 45.5223 41.6201 45.5262 41.6138H46.3504C46.3271 41.9266 45.6476 41.837 45.4048 41.7323Z" fill="#544442"/>
<path d="M54.8597 38.1587C55.317 38.5346 55.2563 38.8336 55.2873 39.3495C55.06 39.3129 54.8533 39.2612 54.6169 39.2309C54.3559 39.1968 54.0743 39.1918 53.8237 39.1123C53.9348 38.9887 53.9452 38.6633 54.1893 38.4576C54.2526 38.4047 54.7603 38.2319 54.8597 38.16V38.1587Z" fill="#795F64"/>
<path d="M54.6155 39.2309C54.5341 39.4227 54.4695 39.627 54.6155 39.767C54.1595 39.849 53.613 39.9524 53.1519 39.8856C53.3689 39.68 53.613 39.3457 53.8223 39.1111C54.0729 39.1906 54.3545 39.1956 54.6155 39.2297V39.2309Z" fill="#544442"/>
<path d="M55.287 39.3496C55.4497 39.3761 55.8657 39.3332 55.836 39.4681C55.5931 39.5527 55.3528 39.5892 55.1035 39.6473C54.9459 39.6838 54.7715 39.7381 54.6152 39.7658C54.4693 39.6258 54.5339 39.4215 54.6152 39.2297C54.8529 39.2613 55.0583 39.3117 55.2857 39.3483L55.287 39.3496Z" fill="#544442"/>
<path d="M21.3083 36.4898C21.3161 36.4924 21.4207 36.6046 21.4298 36.6084C21.8225 37.8673 21.214 39.9613 19.8138 40.4204C19.39 40.5592 18.8152 40.4053 18.5633 40.7181C18.5284 40.7105 18.4742 40.7269 18.4419 40.7181C17.2819 40.3876 16.105 39.1792 16.0017 37.9783C15.9914 37.8534 15.9629 37.9279 16.0017 37.7399C16.2458 38.6469 16.6618 39.4239 17.4653 39.9739L17.6487 39.9146C16.9602 39.4378 16.5029 38.7806 16.3066 37.9783L16.9163 38.1574C16.9589 38.4185 17.0855 38.2684 17.0997 38.276C17.1501 38.6305 18.6615 39.8376 18.8992 39.8843C20.8859 40.2779 21.8729 37.8017 20.7593 36.4886C20.8924 36.4823 21.2037 36.4634 21.3083 36.4886V36.4898Z" fill="#F1564A"/>
<path d="M17.0982 37.2051C17.0297 37.5444 16.854 37.7815 16.9147 38.1587L16.305 37.9796C16.2559 37.7752 16.2572 37.5785 16.1836 37.3842C16.2159 37.3653 16.3748 37.3413 16.4277 37.3249C16.5815 37.277 16.9083 37.2442 17.0982 37.2063V37.2051Z" fill="#F26C62"/>
<path d="M16.3053 37.9795C16.5004 38.7818 16.959 39.439 17.6475 39.9158L17.4641 39.9751C16.6593 39.4251 16.2446 38.6481 16.0005 37.7411C16.0121 37.6881 16.1077 37.3955 16.1219 37.3841C16.1335 37.3753 16.1671 37.393 16.1826 37.3841C16.2563 37.5784 16.255 37.7764 16.3041 37.9795H16.3053Z" fill="#F68F7D"/>
<path d="M21.7955 36.9666C22.2412 37.8395 21.8162 39.2813 21.1858 40.0041C21.0011 40.2148 20.5373 40.5503 20.2712 40.6588C19.5543 40.9515 19.2455 40.877 18.5635 40.7181C18.8154 40.4053 19.3902 40.5592 19.8139 40.4204C21.2155 39.9612 21.8239 37.8673 21.4299 36.6084C21.6379 36.7131 21.6896 36.756 21.7955 36.9654V36.9666Z" fill="#C22126"/>
<path d="M20.7592 36.4897C21.8728 37.8029 20.8845 40.279 18.8991 39.8855C18.6614 39.8388 17.15 38.6316 17.0996 38.2772C17.5995 38.585 18.1679 38.7616 18.6252 39.1703C18.6368 39.2409 18.6394 39.2914 18.6859 39.3494C18.9998 39.7354 18.912 39.0857 19.0825 39.111C19.076 39.7404 19.2362 39.1312 19.3577 39.3191C19.3848 39.9561 19.5204 39.526 19.8149 39.3494C19.8937 39.3014 20.0462 39.4112 20.0901 39.3797C20.1482 39.3368 20.3472 38.2835 20.0294 38.2482C20.4053 38.4601 20.5035 37.9088 20.7618 37.6528C20.612 37.3311 20.6391 37.7272 20.2735 37.5039C20.218 37.4699 20.0888 37.2516 19.9687 37.2062C19.9971 37.1078 20.1792 36.819 20.1211 36.7887C19.7284 36.8417 19.3964 36.906 18.9921 36.9073C19.1006 36.8165 19.3383 36.8202 19.4804 36.7887C19.7026 36.7395 19.9247 36.6499 20.1508 36.6096C20.3446 36.5755 20.5655 36.4998 20.7605 36.491L20.7592 36.4897Z" fill="#C22126"/>
<path d="M17.2817 37.205L17.6472 37.4132L17.1589 37.6516C17.137 37.7903 17.5155 38.0224 17.5865 38.0086L17.4948 38.2772C18.3022 37.726 18.8499 37.2277 19.904 37.2643C19.8769 37.3375 19.9337 37.5368 19.904 37.5923C19.7515 37.8824 18.6807 38.3706 18.6225 38.6052C18.5644 38.8398 18.7465 38.8285 18.744 38.8436C18.7388 38.884 18.6187 39.1539 18.6225 39.1716C18.1652 38.7629 17.5969 38.585 17.0969 38.2785C17.084 38.2709 16.9561 38.421 16.9135 38.1599C16.8528 37.7828 17.0272 37.5456 17.0969 37.2063C17.1538 37.1949 17.2222 37.2164 17.2804 37.2063L17.2817 37.205Z" fill="#F26C62"/>
<path d="M19.9663 37.2051C19.9663 37.2051 19.9366 37.1824 19.9056 37.2644C18.8515 37.2278 18.3038 37.7261 17.4965 38.2773L17.5882 38.0086C17.5171 38.0212 17.1386 37.7904 17.1606 37.6516L17.6489 37.4132L17.2833 37.2051C17.6321 37.1458 17.9628 37.0638 18.3206 37.026C18.3994 37.0171 18.548 37.0689 18.5648 36.9667C18.5854 36.9667 18.6048 36.9667 18.6255 36.9667C18.7146 36.9642 18.8993 37.0096 18.9303 36.9074C18.951 36.9074 18.9704 36.9074 18.991 36.9074C19.3954 36.9049 19.7261 36.8418 20.1201 36.7888C20.1782 36.8191 19.9961 37.1067 19.9676 37.2063L19.9663 37.2051Z" fill="#F58E8C"/>
<path d="M18.9289 36.9074C18.8979 37.0096 18.7132 36.9642 18.624 36.9667C18.655 36.8658 18.841 36.9087 18.9289 36.9074Z" fill="#C56841"/>
<path d="M18.5635 36.9667C18.5467 37.0701 18.3994 37.0184 18.3193 37.026C18.3335 36.9289 18.486 36.968 18.5635 36.9667Z" fill="#C56841"/>
<path d="M18.6849 39.3494C18.7676 38.6657 19.0634 39.0265 19.3863 38.8726C20.0141 38.5736 19.9689 38.0539 20.2712 37.5027C20.6368 37.726 20.6096 37.3299 20.7595 37.6515C20.5011 37.9089 20.4043 38.4588 20.0271 38.2469C20.3448 38.2822 20.1459 39.3355 20.0878 39.3784C20.0451 39.4112 19.8927 39.3015 19.8126 39.3481C19.5181 39.526 19.3824 39.9561 19.3553 39.3179C19.2339 39.1287 19.0737 39.7392 19.0802 39.1097C18.9097 39.0832 18.9988 39.7341 18.6836 39.3481L18.6849 39.3494Z" fill="#F1564A"/>
<path d="M20.2709 37.5028C19.97 38.054 20.0139 38.5737 19.3861 38.8727C19.0631 39.0266 18.7673 38.6658 18.6846 39.3495C18.6381 39.2915 18.6355 39.241 18.6239 39.1704C18.6213 39.1527 18.7415 38.8828 18.7453 38.8424C18.7466 38.8273 18.5671 38.8336 18.6239 38.604C18.6808 38.3744 19.7529 37.8825 19.9054 37.5911C19.9351 37.5356 19.8782 37.3363 19.9054 37.2631C19.9364 37.1811 19.9648 37.2076 19.9661 37.2038C20.0862 37.2493 20.2154 37.4675 20.2709 37.5015V37.5028Z" fill="#F1564A"/>
<path d="M43.1467 35.6562C43.2203 35.7268 43.2591 35.8845 43.2681 35.8946C42.6933 36.0371 43.1195 36.2907 43.0847 36.5203C43.0498 36.7498 42.6648 37.8119 42.5047 37.9204C42.4052 37.9885 42.183 37.9696 42.1688 37.9797C42.1933 37.7451 42.1352 36.7524 42.1688 36.6388C42.2644 36.3197 43.48 36.2629 42.0474 35.3585L42.3522 35.0608C42.5266 35.1567 43.002 35.5174 43.1454 35.6562H43.1467Z" fill="#599341"/>
<path d="M41.5617 34.7037C41.5617 34.7037 41.5397 34.7289 41.6224 34.763C41.8769 34.8664 42.0978 34.9194 42.3549 35.0607L42.05 35.3584C41.9131 35.2726 41.7141 35.1831 41.5617 35.12C41.4183 35.0607 41.2555 35.067 41.1341 34.9409C41.147 34.8664 41.1264 34.7794 41.1341 34.7025C41.2233 34.7365 41.4726 34.6684 41.5617 34.7025V34.7037Z" fill="#62AC45"/>
<path d="M43.2692 35.8945C43.5405 36.1935 44.1463 36.8734 44.3065 37.2051C44.3905 37.3805 44.5817 37.9178 44.6114 38.0982C44.6437 38.2963 44.6941 38.623 44.6721 38.8135C44.645 39.0468 44.3905 39.3899 44.3672 39.6473C43.8182 39.7128 43.277 40.1846 43.2085 40.7195C43.1956 40.8166 43.1917 41.0462 43.2085 41.137C42.9075 41.1244 42.5032 41.4132 42.2319 41.5545C41.6829 41.8396 41.1494 42.1928 40.5242 42.2697C39.616 42.3807 39.3396 42.1915 38.5723 41.8522L38.084 41.4057C38.4224 41.3199 38.6356 41.494 38.9379 41.2871C38.6227 40.886 39.2195 40.4104 39.4869 40.0068C39.5502 39.9109 39.607 39.7986 39.6703 39.7091C40.0152 39.844 40.6546 39.2133 40.7076 38.8753C40.8768 38.7781 41.1843 38.6987 41.3173 38.5776C41.6596 39.0203 41.9258 38.1727 42.1712 37.9822C42.1841 37.9721 42.4076 37.9897 42.5071 37.9229C42.6659 37.8144 43.0509 36.7636 43.0871 36.5227C43.1232 36.2818 42.6957 36.0396 43.2705 35.8971L43.2692 35.8945Z" fill="#376C35"/>
<path d="M39.4871 40.0054C39.2197 40.409 38.6229 40.8846 38.9381 41.2857C38.6358 41.4938 38.4226 41.3198 38.0842 41.4043L38.5725 41.8508C38.4278 41.7865 38.2857 41.6906 38.1449 41.6124C37.8375 41.4409 37.2833 41.2441 37.0469 40.9577C37.0366 40.9451 36.9875 40.7673 36.9255 40.66C36.9035 40.6235 36.8841 40.5793 36.8647 40.5415C37.0688 40.2513 37.645 40.3762 37.6889 40.3624C37.778 40.3346 37.8568 40.1277 37.8723 40.1239C38.4278 39.9953 38.9355 40.0407 39.4884 40.0054H39.4871Z" fill="#62AC45"/>
<path d="M42.0484 35.3583C43.4822 36.264 42.2654 36.3195 42.1698 36.6386C42.1362 36.7509 42.1943 37.7436 42.1698 37.9795C41.9243 38.17 41.6582 39.0177 41.3159 38.5749C41.6957 38.228 41.719 37.5897 41.7435 37.1154C41.7461 37.07 41.8649 37.1016 41.8649 37.0561C41.8688 36.8417 41.5665 36.6929 41.5601 36.52C41.5523 36.3081 41.781 36.3132 41.7435 35.9247C41.7254 35.7342 41.4361 35.4226 41.5601 35.1199C41.7125 35.1829 41.9114 35.2712 42.0484 35.3583Z" fill="#599341"/>
<path d="M41.5614 35.12C41.4373 35.4215 41.7254 35.7331 41.7448 35.9248C41.7835 36.3146 41.5549 36.3083 41.5614 36.5202C41.5678 36.693 41.8714 36.8419 41.8662 37.0563C41.8662 37.1017 41.7461 37.0702 41.7448 37.1156C41.7215 37.5899 41.697 38.2282 41.3172 38.5751C41.1841 38.6962 40.8767 38.7769 40.7075 38.8728C40.5486 38.9636 39.9776 39.1465 39.9453 39.1705C39.749 39.3117 39.8032 39.5173 39.6702 39.7066C39.6069 39.7961 39.55 39.9084 39.4867 40.0042C38.9326 40.0396 38.4262 39.9954 37.8707 40.1228C37.8565 40.1266 37.7777 40.3335 37.6873 40.3612C37.6447 40.3738 37.0672 40.2502 36.8631 40.5404C36.7094 40.2401 36.5001 39.6738 36.4355 39.3496C36.7004 39.337 37.075 39.617 37.3204 39.6473C37.7829 39.704 39.6069 39.5173 39.8523 39.1414C39.9208 39.0355 39.9182 38.8475 39.9737 38.6949C40.1326 38.6217 40.3574 38.57 40.4918 38.4565C40.6377 38.3341 40.5628 38.2118 40.5835 38.1878C40.6106 38.1575 40.8896 38.1058 40.949 37.9494C41.0111 37.7842 41.0072 37.0361 41.0705 36.7586C41.0821 36.7107 41.3766 36.5202 41.3753 36.2818C41.374 36.0434 40.9581 35.6927 40.9478 35.5666C40.9452 35.5338 41.1092 35.0708 41.1312 34.9409C41.2513 35.0671 41.4154 35.0608 41.5588 35.12H41.5614Z" fill="#84AC47"/>
<path d="M41.1341 34.7036C41.1263 34.7806 41.147 34.8676 41.1341 34.942C41.1121 35.072 40.948 35.5349 40.9506 35.5677C40.961 35.6938 41.3769 36.0483 41.3782 36.2829C41.3795 36.5175 41.0837 36.7118 41.0733 36.7597C41.0088 37.0385 41.0139 37.7865 40.9519 37.9505C40.8899 38.1145 40.6135 38.1574 40.5863 38.1889C40.5657 38.2116 40.6406 38.3352 40.4946 38.4576C40.359 38.5711 40.1355 38.6228 39.9766 38.696C39.9831 38.6771 39.8707 38.5509 39.9159 38.4273C39.9663 38.2911 40.2724 38.0363 40.2815 38.0098C40.5308 37.3715 39.6123 36.4633 39.6718 35.7758C39.7467 35.598 39.8035 35.376 39.7932 35.1804C39.8474 35.1552 40.0632 34.9874 40.0373 34.9118C39.2261 34.6014 39.8061 34.7717 40.098 34.5838C40.1342 34.5598 40.3551 34.2218 40.4636 34.1663C40.4688 34.1688 40.4856 34.0515 40.5553 34.107C40.7814 34.2874 40.8602 34.5977 41.1353 34.7024L41.1341 34.7036Z" fill="#99CB48"/>
<path d="M39.9144 34.4653L40.0979 34.5839C39.8059 34.7719 39.2259 34.6016 40.0372 34.9119C40.063 34.9863 39.8473 35.1541 39.793 35.1806C39.6354 35.255 39.0774 35.3067 38.8474 35.419C37.566 36.0434 36.8038 37.0575 36.8645 38.4867C36.9265 38.6633 38.0284 38.9144 38.2377 38.9333C38.5477 38.961 38.5258 38.8147 38.5426 38.8147C38.5865 38.8147 38.5594 38.9371 38.6033 38.9333C38.8642 38.9106 39.6561 38.6759 39.7323 38.4274C39.771 38.3026 39.3112 36.6766 39.4274 36.1039C39.4391 36.0446 39.6638 35.7949 39.6716 35.7759C39.6122 36.4634 40.5306 37.3716 40.2813 38.0099C40.271 38.0351 39.9661 38.29 39.9157 38.4274C39.8705 38.5511 39.9829 38.6772 39.9764 38.6961C39.9209 38.8488 39.9235 39.0367 39.855 39.1427C39.6096 39.5186 37.7856 39.7065 37.3231 39.6485C37.0777 39.6182 36.7044 39.3382 36.4382 39.3508C36.1967 38.1298 36.3569 37.436 37.1087 36.4319C37.1487 36.3789 37.1875 36.3032 37.2301 36.2528C37.8308 35.5565 38.7247 35.1856 39.4869 34.7037C39.585 34.6419 39.6432 34.5423 39.6703 34.5246C39.691 34.5107 39.8964 34.4779 39.9144 34.4653Z" fill="#99CB48"/>
<path d="M40.7077 38.8728C40.6548 39.2109 40.0153 39.8416 39.6704 39.7066C39.8035 39.5174 39.7479 39.3118 39.9456 39.1705C39.9791 39.1465 40.5488 38.9636 40.7077 38.8728Z" fill="#62AC45"/>
<path d="M40.4636 34.1676C40.3538 34.2231 40.1342 34.5612 40.098 34.5851L39.9146 34.4666C39.9998 34.4048 40.2956 34.0036 40.3718 33.9897C40.5592 33.9923 40.3085 34.0907 40.4636 34.1689V34.1676Z" fill="#F9FBEE"/>
<path d="M39.7917 35.1792C39.8021 35.3747 39.7452 35.598 39.6703 35.7746C39.6625 35.7935 39.4378 36.0433 39.4261 36.1026C39.3099 36.6752 39.7698 38.3012 39.731 38.4261C39.6548 38.6746 38.8629 38.9092 38.602 38.9319C38.5581 38.9357 38.5852 38.8121 38.5413 38.8133C38.5245 38.8133 38.5464 38.9597 38.2364 38.9319C38.0271 38.913 36.9265 38.6607 36.8632 38.4854C36.8025 37.0562 37.5647 36.042 38.8461 35.4176C39.0761 35.3053 39.6341 35.2536 39.7917 35.1792Z" fill="#C9DE79"/>
<path d="M45.4654 40.0646C45.4899 40.0949 45.7031 40.4582 45.7095 40.4821C45.7224 40.5301 45.7018 40.6045 45.7095 40.6613C45.7431 40.8997 45.7444 41.2201 45.6488 41.4358C45.6449 41.4459 45.5416 41.5947 45.5274 41.6149C45.5222 41.6212 45.4137 41.7272 45.406 41.7335C45.0249 42.035 44.4604 42.0728 44.0031 41.9719C43.6724 41.7587 43.29 41.5644 43.2099 41.1381C43.1931 41.0485 43.197 40.8177 43.2099 40.7206C43.5225 40.578 43.5471 41.152 43.8506 41.3159C44.7523 41.8041 45.8787 40.8278 45.2845 39.946C45.3181 39.9738 45.4499 40.0432 45.468 40.0646H45.4654Z" fill="#253C55"/>
<path d="M44.3675 39.6472C44.4631 39.6358 44.6388 39.6346 44.7331 39.6472C45.0354 39.6863 45.0742 39.7721 45.2821 39.9449C45.8763 40.8266 44.7499 41.8029 43.8482 41.3148C43.5447 41.1508 43.5214 40.5768 43.2075 40.7194C43.276 40.1845 43.8185 39.7128 44.3662 39.6472H44.3675Z" fill="#253C55"/>
<path d="M43.9102 40.0055C44.6207 39.8466 44.6491 40.7245 44.1544 40.8393C43.4206 41.0109 43.4335 40.1127 43.9102 40.0055Z" fill="#8D9FAA"/>
<path d="M33.2639 41.0171C33.3039 41.2416 33.4835 41.3438 33.3853 41.5532C33.1399 41.7046 32.8092 42.1562 32.4087 42.387C31.9605 42.6456 31.6078 42.7515 31.1273 42.9231C30.5886 42.9029 30.1856 42.9597 29.6637 42.8045C30.068 42.6847 29.5474 42.58 29.6327 42.5661C29.8083 42.5384 29.9802 42.6304 29.9982 42.6254C30.0745 42.6077 30.0925 42.4513 30.1197 42.4463C31.1673 42.2608 31.4282 42.3782 32.3467 41.6718C32.596 41.48 32.8725 41.2378 33.0171 40.9565C33.0636 40.9767 33.1799 40.9364 33.2613 41.0158L33.2639 41.0171Z" fill="#C22126"/>
<path d="M29.2996 38.8727C29.0335 39.0241 29.4392 39.1414 29.4831 39.2007C29.5657 39.3155 29.5167 39.5287 29.5748 39.5879C29.6536 39.6699 30.0825 39.6371 30.2452 39.7065C30.687 39.897 31.1456 40.4672 31.4957 40.1241C31.5745 40.1669 31.6636 40.1972 31.7398 40.2426C31.816 40.288 31.9917 40.3044 31.8923 40.4217C31.4853 40.2388 31.2154 40.4583 31.4647 40.8393C30.9273 40.143 30.8278 40.6551 30.4274 40.7207C30.0269 40.7863 29.8693 40.6892 29.4818 40.8393C29.3591 40.8872 29.3048 41.0525 29.1769 41.0474C29.6846 40.4634 29.0167 40.9339 29.1162 40.5706C29.1278 40.5302 29.9042 40.0433 29.0245 40.4217L29.2996 40.1531C29.0632 39.9815 28.9883 40.1796 28.9031 40.1833C28.7933 40.1871 28.9224 39.9096 28.6899 39.9147C29.288 39.7242 28.6137 39.8516 28.5685 39.7961C28.7752 39.516 28.5633 39.3722 28.5685 39.3193C28.5711 39.2928 28.6886 39.2259 28.6899 39.2007C28.6925 39.1704 28.5155 39.1767 28.5685 39.0821C28.6124 39.0026 29.0632 38.9471 29.0568 38.7542C29.1382 38.7907 29.2196 38.8349 29.3009 38.8727H29.2996Z" fill="#F26C62"/>
<path d="M29.483 41.2555C29.6574 41.3388 29.6535 41.6516 30.0927 41.3148C30.0579 41.4649 30.4092 41.3627 30.4583 41.5532C30.4389 41.5658 30.1405 41.8459 30.1832 41.9102C30.6883 41.9606 31.8367 41.5128 32.1958 41.195C32.3753 41.036 32.4722 40.6715 32.5006 40.6589C32.5962 40.6147 32.9308 40.9175 33.0186 40.9566C32.874 41.2379 32.5962 41.48 32.3482 41.6718C32.0421 41.6718 31.5576 42.0868 31.3419 42.1486C30.9595 42.2571 30.4286 42.1108 30.1225 42.3277L29.97 42.2382C30.271 41.668 29.9339 41.9392 29.6342 41.7916C28.9754 41.4674 28.4728 40.8872 28.5361 40.124C29.0374 40.3195 28.788 40.7888 28.9934 41.0474C29.1304 41.2202 29.3836 41.2088 29.4817 41.2555H29.483Z" fill="#E63032"/>
<path d="M31.8613 40.1833C31.8703 40.1833 31.9711 40.2388 32.0447 40.1833C32.0499 40.5352 32.241 40.4368 32.2281 40.6298C32.2281 40.6462 32.0305 40.9048 32.015 40.8985C31.9478 40.8695 32.0382 40.6046 31.8626 40.8089C31.9465 41.3173 30.7994 41.3413 30.4597 41.5532C30.4093 41.364 30.0592 41.4649 30.0941 41.3148C30.0967 41.3009 30.3098 41.3501 30.1858 41.1357C30.0902 41.1697 30.1018 41.3085 30.0941 41.3148C29.6549 41.6516 29.6588 41.3375 29.4844 41.2555C29.5076 41.0764 29.7556 40.9591 29.4844 40.838C29.8719 40.6866 30.0489 40.7812 30.43 40.7194C30.8304 40.6538 30.9286 40.1429 31.4673 40.838C31.2179 40.457 31.4879 40.2375 31.8948 40.4204C31.9943 40.3031 31.816 40.2867 31.7424 40.2413C31.7411 40.1606 31.8044 40.182 31.8638 40.182L31.8613 40.1833Z" fill="#F1564A"/>
<path d="M28.2014 38.3972L27.8358 39.202L27.6523 39.0532C27.7776 38.729 27.7725 38.4199 28.2014 38.3985V38.3972Z" fill="#F68F7D"/>
<path d="M28.5064 38.4565C28.5994 38.4843 28.9107 38.6899 29.0554 38.7542C29.0631 38.9459 28.611 39.0014 28.5671 39.0822C28.5141 39.178 28.6924 39.1705 28.6885 39.2007C28.6859 39.226 28.5697 39.2941 28.5671 39.3193C28.5619 39.3723 28.7738 39.5161 28.5671 39.7961C28.6123 39.8529 29.2866 39.7255 28.6885 39.9147C28.921 39.9097 28.7919 40.1859 28.9017 40.1834C28.9869 40.1809 29.0618 39.9828 29.2982 40.1531L29.0231 40.4218C29.9028 40.0434 29.1251 40.5303 29.1148 40.5706C29.0153 40.9339 29.6832 40.4634 29.1755 41.0475C29.3034 41.0525 29.3577 40.8873 29.4804 40.8393C29.7517 40.9604 29.5036 41.0765 29.4804 41.2568C29.3822 41.2102 29.1303 41.2215 28.9921 41.0487C28.7867 40.7901 29.036 40.3209 28.5348 40.1254C28.4715 40.8885 28.974 41.4688 29.6328 41.793C29.9325 41.9405 30.2697 41.6693 29.9687 42.2395L30.1211 42.3291C30.4273 42.1121 30.9595 42.2597 31.3405 42.1499C31.5563 42.0881 32.0407 41.6731 32.3468 41.6731C31.4284 42.3795 31.1674 42.2622 30.1198 42.4476C30.0927 42.4527 30.0733 42.6078 29.9984 42.6267C29.9803 42.6305 29.8085 42.5384 29.6328 42.5675C29.5475 42.5813 30.0681 42.686 29.6638 42.8059C29.0528 42.623 28.2157 41.9796 27.8954 41.436C27.845 41.3502 27.6835 40.9957 27.6512 40.8999C27.5504 40.5971 27.4691 40.2073 27.4678 39.8869C27.4678 39.641 27.5194 39.3458 27.5892 39.1124C27.6137 39.0304 27.6486 39.0569 27.6499 39.0532L27.8333 39.202L28.1989 38.3972C28.3048 38.3922 28.4056 38.4275 28.5038 38.4565H28.5064Z" fill="#F1564A"/>
<path d="M27.6824 39.4089L27.8038 40.6603C27.6062 40.2781 27.6243 39.829 27.6824 39.4089Z" fill="#F68F7D"/>
<path d="M29.6042 38.9926C29.67 39.0267 29.8961 39.2222 30.0317 39.2903C30.033 39.5035 30.365 39.4871 30.4593 39.5287C30.4852 39.5401 30.5588 39.5174 30.5808 39.5287C30.6324 39.5565 30.8443 39.7634 31.069 39.8857C31.2111 39.9627 31.3532 40.0472 31.4966 40.1241C31.1466 40.4672 30.6867 39.8971 30.2462 39.7066C30.0834 39.636 29.6545 39.6688 29.5757 39.588C29.5176 39.5287 29.5667 39.3156 29.484 39.2008C29.4414 39.1415 29.0345 39.0254 29.3006 38.8728C29.3975 38.9195 29.537 38.9573 29.6055 38.9914L29.6042 38.9926Z" fill="#F68F7D"/>
<path d="M30.0928 41.3149C30.1005 41.3086 30.0889 41.1698 30.1845 41.1357C30.3085 41.3502 30.0966 41.301 30.0928 41.3149Z" fill="#E63032"/>
<path d="M30.4583 39.5287C30.364 39.4871 30.0333 39.5035 30.0308 39.2903C30.1522 39.3508 30.395 39.3622 30.4583 39.5287Z" fill="#F89F64"/>
<path d="M25.9449 39.767C26.0146 40.0167 26.0404 40.4671 26.0056 40.7206C25.9991 40.7711 25.9565 40.9805 25.9449 41.0183C25.9151 41.1142 25.547 41.6477 25.4566 41.7335C25.4204 41.7676 25.3209 41.8193 25.2731 41.8521L24.9683 41.7032C25.6917 41.2517 25.8932 40.3901 25.8221 39.5891C25.8312 39.608 25.9242 39.6951 25.9436 39.7682L25.9449 39.767Z" fill="#141E30"/>
<path d="M25.4567 39.0518C25.6117 39.1906 25.7383 39.4 25.8222 39.588C25.8933 40.3902 25.6918 41.2505 24.9684 41.7021L25.2732 41.8509C24.8069 42.1852 24.1713 42.3315 23.5952 42.2079C23.4066 42.1675 23.2632 41.9796 23.0772 41.8509C22.7775 41.6441 22.5734 41.3123 22.4067 41.1963C22.3021 40.9906 22.1846 40.7081 22.1626 40.481L22.284 40.3915C23.3859 41.9834 25.9217 40.3019 24.7849 38.6936C25.0162 38.7718 25.2758 38.8891 25.4554 39.0506L25.4567 39.0518Z" fill="#253C55"/>
<path d="M24.7849 38.695C25.9217 40.3033 23.3859 41.9848 22.284 40.3929L22.1626 40.4824C22.1522 40.3739 22.1548 40.2352 22.1626 40.1254C22.1677 40.0573 22.2052 39.9022 22.2233 39.8277C22.2659 39.8202 22.4584 39.7773 22.4674 39.7685C22.4171 39.8921 22.5256 39.9387 22.5282 39.9476C22.7581 40.6716 23.621 40.3979 23.931 39.8883C24.006 39.7647 24.4374 38.8451 24.4193 38.7858L23.9917 38.5171C24.192 38.5146 24.5795 38.6256 24.7849 38.6963V38.695Z" fill="#41608B"/>
<path d="M22.4673 39.767C22.4582 39.7759 22.2658 39.8187 22.2231 39.8263C22.3174 39.4504 22.4092 39.3697 22.6507 39.1111C22.8432 39.1906 22.5551 39.6762 22.4673 39.7658V39.767Z" fill="#8D9FAA"/>
<path d="M23.9312 39.8855C23.6212 40.3964 22.7583 40.6688 22.5283 39.9448L23.9312 39.8855Z" fill="#8C98AE"/>
<path d="M23.9917 38.5156L24.4193 38.7843C24.4374 38.8436 24.0072 39.7619 23.931 39.8868L22.5281 39.9461C22.5256 39.9372 22.4157 39.8906 22.4674 39.767C22.5553 39.6774 22.842 39.1905 22.6509 39.1123C23.0242 38.7137 23.4027 38.5245 23.993 38.5169L23.9917 38.5156Z" fill="#A9B0BA"/>
<path d="M23.5963 38.754C23.8172 38.7237 24.3494 38.7162 24.2371 39.082C24.1957 39.2157 23.307 39.1551 23.17 39.1122C22.8794 39.0214 23.555 38.7603 23.5976 38.7553L23.5963 38.754Z" fill="#141E30"/>
<path d="M17.0986 36.7281C16.8415 36.9186 16.7059 37.1469 16.2744 37.0258L16.4268 37.3235C16.3739 37.3399 16.215 37.3651 16.1827 37.3828C16.1672 37.3916 16.1336 37.374 16.122 37.3828C15.9321 37.2112 15.9527 36.9312 15.9385 36.906C15.852 36.7496 15.272 36.0848 15.1454 36.0722C15.1492 36.0343 15.1363 35.9839 15.1454 35.9536C15.166 35.8817 15.2771 35.777 15.3288 35.7152C16.0923 35.415 17.8517 34.1649 18.5919 34.1069C19.0569 34.0703 19.624 34.5711 20.1175 34.5244L18.5919 35.4781C18.0493 35.8186 17.5907 36.3623 17.0973 36.7294L17.0986 36.7281Z" fill="#62AC45"/>
<path d="M15.3302 35.7153C15.2785 35.7771 15.1674 35.8818 15.1468 35.9537C14.9892 35.8705 14.891 35.7254 14.7812 35.5967C15.0589 35.463 14.5577 35.0909 14.4763 34.9118C14.4182 34.7844 14.1921 34.213 14.2632 34.107C14.6171 33.8509 15.0008 33.919 15.3005 33.8686C16.3249 33.6945 17.4552 33.4208 18.3814 33.9582C18.1799 34.054 17.742 34.131 17.5572 34.2268C16.9101 34.5586 15.8107 35.1376 15.3302 35.7166V35.7153Z" fill="#99CB48"/>
<path d="M20.6366 30.8309C20.6534 31.0416 20.4609 31.1336 20.4532 31.2182C20.3924 31.946 21.1455 32.2285 21.7346 32.4392C21.3019 33.056 20.8084 33.8066 20.4532 34.465L19.7827 30.5938C20.0708 30.6581 20.3459 30.7804 20.6366 30.8322V30.8309Z" fill="#62AC45"/>
<path d="M14.781 31.0694C15.1659 31.0757 15.2641 31.5575 15.4514 31.8136C15.4902 31.8666 15.3868 31.9271 15.3907 31.9322C15.4269 31.9839 16.3737 32.6663 16.0921 32.9148C15.6387 32.7521 15.1491 32.6814 14.6893 32.5578C14.4955 32.5048 14.0408 32.2652 13.8354 32.2008C13.63 32.1365 13.134 32.2854 13.0112 31.8439C13.2037 31.6673 14.5291 31.0656 14.7797 31.0694H14.781Z" fill="#99CB48"/>
<path d="M13.6833 34.0477C13.4404 33.6188 12.9676 32.7194 12.8901 32.2602C12.9509 32.0105 13.961 32.4166 13.9882 32.4684C14.0101 32.5112 13.9223 33.2403 13.9274 33.422C13.9352 33.7285 14.3369 34.2243 13.6833 34.0477Z" fill="#99CB48"/>
<path d="M20.3321 34.7037C19.9923 35.3558 19.6604 36.0748 19.4782 36.7888C19.3361 36.8203 19.0997 36.8165 18.9899 36.9074C18.9693 36.9074 18.9499 36.9074 18.9292 36.9074C18.8414 36.9074 18.6553 36.8657 18.6243 36.9666C18.6037 36.9666 18.5843 36.9666 18.5636 36.9666C18.4861 36.9679 18.335 36.9288 18.3195 37.0259C17.9617 37.0638 17.631 37.1458 17.2822 37.205C17.224 37.2151 17.1556 37.1937 17.0987 37.205C16.9089 37.2429 16.5807 37.2757 16.4283 37.3236L16.2759 37.0259C16.7073 37.147 16.843 36.9187 17.1 36.7282L20.3334 34.7024L20.3321 34.7037Z" fill="#599341"/>
<path d="M19.7829 30.5924L20.4533 34.4637C20.4132 34.5382 20.3719 34.6252 20.3319 34.7021L17.0985 36.728C17.5907 36.3609 18.0506 35.8172 18.5931 35.4766L20.1187 34.523C19.6253 34.5709 19.0582 34.0702 18.5931 34.1055C17.8516 34.1635 16.0935 35.4136 15.3301 35.7138C15.8106 35.1361 16.9099 34.5571 17.5571 34.2241C17.7418 34.1295 18.1785 34.0525 18.3813 33.9554C17.4564 33.418 16.3247 33.6917 15.3004 33.8658C15.002 33.9163 14.617 33.8482 14.2631 34.1042C14.192 34.2102 14.4181 34.7816 14.4762 34.909C14.5589 35.0881 15.0588 35.4602 14.7811 35.594C14.378 35.1209 13.9879 34.5848 13.683 34.0449C14.3367 34.2215 13.9349 33.7271 13.9272 33.4193C13.922 33.2389 14.0112 32.5085 13.9879 32.4656C13.9608 32.4139 12.9506 32.0077 12.8899 32.2575C12.8718 32.1528 12.8201 32.0935 12.8292 31.9888C12.8434 31.9358 12.9739 31.8753 13.0126 31.84C13.1353 32.2827 13.6223 32.1301 13.8368 32.197C14.0512 32.2638 14.4969 32.5022 14.6906 32.5539C15.1505 32.6788 15.6401 32.7482 16.0935 32.9109C16.3751 32.6612 15.4282 31.98 15.3921 31.9283C15.3882 31.9232 15.4915 31.8627 15.4528 31.8097C15.2655 31.5536 15.1673 31.0718 14.7824 31.0655C16.3377 30.4007 18.1255 30.2191 19.7841 30.5887L19.7829 30.5924Z" fill="#99CB48"/>
<path d="M19.5089 32.201C19.589 32.2048 19.7376 32.2818 19.8448 32.2906L20.1806 34.2862C19.9856 34.1638 19.0103 34.0187 18.9302 33.8989C18.8501 33.7791 18.7132 32.6917 18.4419 32.4697C18.7674 32.5214 19.2493 32.1884 19.5089 32.201Z" fill="#62AC45"/>
<path d="M26.3104 23.802C26.03 23.9711 25.7756 24.5866 25.7614 24.9045C25.7562 25.0345 26.1541 25.7118 25.9448 25.8872C25.8815 25.7875 25.7962 25.5655 25.7614 25.5302C25.4784 25.2338 23.9826 24.6472 23.5046 24.6371C22.9698 24.3545 22.5461 24.429 21.979 24.2801C22.0811 23.7642 22.1766 23.2294 22.3446 22.7311C22.2567 22.9645 23.0008 23.0944 23.046 23.0881C23.2411 23.0616 23.0279 22.8547 23.046 22.8497C23.2372 22.7942 24.4386 23.3769 24.6323 23.6835L23.626 21.5693L24.5109 22.7311C24.5032 22.1193 26.1101 21.7813 26.3104 22.1647C26.424 22.3817 25.7936 23.7819 26.3104 23.8033V23.802Z" fill="#99CB48"/>
<path d="M28.323 23.2068L28.1706 23.6243L28.0491 23.1475C27.5841 23.3935 26.7328 23.5486 26.3104 23.8022C25.7937 23.7807 26.4241 22.3818 26.3104 22.1636C26.1102 21.7801 24.5032 22.1182 24.5109 22.7299L23.6261 21.5682L24.6324 23.6823C24.4386 23.3758 23.2385 22.793 23.046 22.8485C23.028 22.8536 23.2411 23.0592 23.046 23.0869C23.0008 23.0932 22.2568 22.9633 22.3446 22.7299C22.5035 22.2632 22.9285 21.0233 23.4736 21.0018C24.9243 20.945 27.287 22.238 28.323 23.2055V23.2068Z" fill="#99CB48"/>
<path d="M28.3229 23.2067C28.4895 23.3619 28.6807 23.4893 28.8112 23.6836C28.5955 23.84 28.1433 24.2171 27.9573 24.3988L27.7132 24.3092C27.6537 24.5174 27.2184 24.776 27.1642 24.8453C27.1525 24.8592 27.2275 25.0055 27.1034 25.2023C27.0414 25.3007 26.9549 25.1657 26.951 25.172C26.8309 25.3713 26.8696 25.6375 26.7986 25.7674C26.6694 26.0046 26.433 26.2859 26.3103 26.5419C26.0959 26.3716 26.061 26.0727 25.9447 25.8873C26.1553 25.7119 25.7561 25.0345 25.7613 24.9046C25.7755 24.5867 26.03 23.9712 26.3103 23.8021C26.7327 23.5486 27.584 23.3922 28.049 23.1475L28.1705 23.6243L28.3229 23.2067Z" fill="#62AC45"/>
<path d="M23.5044 24.6358C23.6672 24.7216 25.1851 25.7345 25.2729 25.8266C25.6436 26.2164 25.2806 26.0966 25.517 26.4813C25.0132 26.3135 24.1594 26.0398 23.6569 25.9452C23.5174 25.9187 23.3817 25.8417 23.3817 26.0638C23.1272 25.9464 22.7901 25.8001 22.5279 25.7068C22.2656 25.6134 21.9569 25.6109 21.7954 25.3498C21.8212 24.9865 21.9078 24.6333 21.9788 24.2776C22.5446 24.4264 22.9696 24.352 23.5044 24.6346V24.6358Z" fill="#599341"/>
<path d="M25.5175 26.4827C25.7216 26.5509 25.936 26.7401 26.1879 26.7211C26.1815 26.735 26.2383 26.9078 26.1879 27.0188C26.1543 27.092 25.9425 27.5461 25.9128 27.5549C25.5097 27.3052 25.1325 27.0201 24.723 26.7804C24.2399 26.4979 23.8963 26.3036 23.3809 26.0652C23.3809 25.8419 23.5152 25.9201 23.656 25.9466C24.1585 26.0412 25.0137 26.315 25.5162 26.4827H25.5175Z" fill="#376C35"/>
<path d="M25.7616 25.5291C25.6777 25.8003 25.4658 25.659 25.2733 25.8268C25.1842 25.7334 23.6664 24.7218 23.5049 24.636C23.9828 24.6461 25.4787 25.2326 25.7616 25.5291Z" fill="#62AC45"/>
<path d="M25.9448 25.8873C26.0611 26.0739 26.096 26.3729 26.3104 26.5419C26.2781 26.6088 26.2019 26.692 26.189 26.7211C25.9371 26.74 25.7214 26.5508 25.5186 26.4826C25.2822 26.0967 25.6452 26.2165 25.2744 25.828C25.4669 25.6602 25.6787 25.8015 25.7627 25.5303C25.7963 25.5656 25.8828 25.7876 25.9461 25.8873H25.9448Z" fill="#44873F"/>
<path d="M32.4711 24.4568C32.5887 25.1127 32.6184 25.6955 32.5318 26.3628C32.2386 26.3918 31.8059 26.4889 31.4945 26.5419C31.0954 26.61 30.6833 26.5898 30.3358 26.8396C30.0413 26.861 29.7648 26.9695 29.4819 27.0187C29.7855 26.1067 30.5541 25.9024 31.3731 25.5593L30.2441 25.8872C30.1743 24.9677 31.4183 24.7091 32.1663 24.5173C32.2489 24.4959 32.3768 24.4921 32.4711 24.458V24.4568Z" fill="#62AC45"/>
<path d="M32.4711 24.4567C32.3755 24.492 32.2489 24.4945 32.1662 24.516C31.9647 24.3053 30.7543 24.8818 30.7026 24.7847C30.8732 24.3823 31.78 22.9821 31.7399 22.6403C31.7309 22.5608 31.5087 22.5734 31.5565 22.4321C32.0513 22.5709 32.3807 23.9471 32.4711 24.458V24.4567Z" fill="#62AC45"/>
<path d="M28.934 27.1372C28.3463 27.2785 27.7198 27.4425 27.1656 27.6733L26.189 27.0187C26.2394 26.9077 26.1825 26.7348 26.189 26.721C26.2032 26.692 26.2781 26.61 26.3104 26.5418C26.4331 26.2858 26.6682 26.0045 26.7987 25.7673C27.5802 25.9919 28.4858 26.4435 28.934 27.1372Z" fill="#599341"/>
<path d="M27.9576 24.3974C27.7715 24.5778 27.6127 24.796 27.4086 24.9638C27.4215 25.013 28.1255 25.2703 28.2327 25.2917C28.4562 25.3371 28.6319 25.1593 28.69 25.2022C28.8295 25.3043 29.3863 26.76 29.2997 27.0186C29.1667 27.0451 29.0465 27.1107 28.9341 27.1372C28.4859 26.4434 27.5804 25.9918 26.7988 25.7673C26.8699 25.6374 26.8324 25.3712 26.9513 25.1719C26.9551 25.1656 27.0417 25.2993 27.1037 25.2022C27.2277 25.0041 27.1541 24.8591 27.1644 24.8452C27.2187 24.7758 27.654 24.5172 27.7134 24.3091L27.9576 24.3986V24.3974Z" fill="#62AC45"/>
<path d="M31.5564 22.4322C31.5086 22.5747 31.7295 22.5609 31.7399 22.6403C31.7812 22.9822 30.8744 24.3824 30.7026 24.7848C30.7542 24.8819 31.9659 24.3067 32.1662 24.5161C31.4195 24.7078 30.1755 24.9677 30.244 25.886L31.373 25.558C30.554 25.9011 29.7854 26.1055 29.4818 27.0175C29.4237 27.0276 29.3552 27.0061 29.2984 27.0175C29.385 26.7576 28.8282 25.3032 28.6887 25.201C28.6305 25.1581 28.4549 25.336 28.2314 25.2906C28.1255 25.2691 27.4201 25.0131 27.4072 24.9626C27.6113 24.7961 27.7702 24.5779 27.9562 24.3962C28.1423 24.2146 28.5944 23.8374 28.8101 23.681C29.1292 23.4489 30.5243 22.5987 30.8537 22.4902C31.1147 22.4032 31.2697 22.3515 31.5552 22.4309L31.5564 22.4322Z" fill="#99CB48"/>
<path d="M29.0558 25.2312L29.9096 25.4103C29.8877 25.9136 29.7985 26.1609 29.4523 26.6011L28.9033 25.2312C28.9124 25.2161 29.0454 25.2438 29.0558 25.2312Z" fill="#62AC45"/>
<path d="M29.9095 25.4105L29.0557 25.2314C29.1642 25.0964 29.6279 24.4771 29.8178 24.5767C29.978 24.8618 29.9212 25.1317 29.9095 25.4105Z" fill="#62AC45"/>
<path d="M26.1876 27.0187L27.1641 27.6734C25.1076 28.5274 23.4076 30.2341 22.1016 31.9622C21.9789 32.1249 21.8549 32.2687 21.7361 32.439C21.1483 32.2284 20.3939 31.9458 20.4546 31.218C20.4624 31.1335 20.6548 31.0414 20.6381 30.8307C20.6329 30.7702 20.505 30.6806 20.4546 30.5923C20.9287 30.9039 21.293 30.147 21.6444 30.0562C21.8045 30.0146 22.2269 30.002 22.4065 29.9969C22.4556 29.9957 22.6003 30.1508 22.6507 29.9969C22.8418 30.0524 22.9994 30.0827 23.1997 30.0562C23.2513 30.0499 23.3624 30.0802 23.3831 30.0259C22.9284 29.6828 22.732 29.2514 22.8341 28.6851C22.9258 29.0155 23.2927 30.3035 23.5045 29.4003C23.4929 29.5113 23.4425 30.1117 23.5355 30.1155L24.1762 27.1966C24.2873 27.1146 24.6516 27.131 24.7253 26.7791C25.1348 27.0187 25.512 27.3038 25.915 27.5536C25.9447 27.5447 26.1566 27.0906 26.1901 27.0175L26.1876 27.0187Z" fill="#44873F"/>
<path d="M18.9292 25.4697C18.9137 25.6224 18.9162 25.6564 19.0209 25.7674C19.1345 25.8885 20.4483 26.798 20.394 26.9292C19.9174 27.0011 19.4019 26.6428 18.8077 26.8699C20.0259 26.9342 20.8475 27.2811 21.6135 28.1805C21.5941 28.4013 21.0916 28.0455 21.0335 28.0317C20.6963 27.9509 20.2829 27.9345 19.9355 27.9131C19.8993 27.9106 19.5557 27.7087 19.2947 27.8828C19.8799 27.9787 20.4367 28.178 21.0025 28.3294C20.9366 28.4883 20.8216 29.2779 20.881 29.3713C20.9146 29.4255 21.9377 29.6324 22.1315 29.6993C22.2684 29.7459 22.5487 29.9679 22.6495 29.997C22.5991 30.1508 22.4544 29.9957 22.4053 29.997L20.9715 29.5201C20.5826 29.6829 20.85 30.2921 20.3915 30.4738C19.5647 29.148 18.313 27.8185 18.5003 26.0954C18.5494 25.6488 18.5532 25.5744 18.9279 25.4697H18.9292Z" fill="#99CB48"/>
<path d="M21.3692 25.3512C20.9662 25.6313 21.1664 26.151 21.4299 26.4537C21.0889 26.214 21.3305 27.6041 21.3692 27.705C21.4493 27.9119 22.4117 28.8025 22.6197 29.0459C22.6533 29.0194 22.5964 28.3168 22.5887 28.2121C22.5667 27.922 22.4931 27.6104 22.4672 27.3191C22.4324 26.9255 22.3471 26.4474 22.4672 26.0677C22.484 26.8044 22.6365 27.98 22.8328 28.689C22.7308 29.2553 22.9271 29.6867 23.3818 30.0298C23.3612 30.0841 23.2514 30.0525 23.1984 30.0601C22.723 29.6098 22.4634 28.9374 21.7955 28.7192C22.4685 28.4732 21.2039 28.3862 21.0024 28.332C20.4366 28.1793 19.8798 27.98 19.2946 27.8854C19.5556 27.7114 19.8992 27.9132 19.9353 27.9157C20.2828 27.9384 20.6962 27.9535 21.0334 28.0343C21.0915 28.0481 21.5927 28.4039 21.6134 28.1831C20.8473 27.285 20.0245 26.9368 18.8076 26.8725C19.4018 26.6455 19.916 27.005 20.3939 26.9318C20.4482 26.8006 19.1357 25.8911 19.0208 25.77C18.9161 25.659 18.9135 25.625 18.929 25.4723C19.5388 25.3008 20.7363 25.2718 21.3692 25.3538V25.3512Z" fill="#85C351"/>
<path d="M21.7956 25.3512C21.9571 25.6123 22.2633 25.6148 22.5281 25.7081C22.4454 25.8217 22.4635 25.9365 22.4674 26.0651C22.3472 26.4448 22.4325 26.9216 22.4674 27.3164C22.1444 27.541 22.0152 26.7589 21.6742 26.6315L21.4908 26.6908L22.5888 28.2095C22.5965 28.3142 22.6521 29.0168 22.6198 29.0433C22.4118 28.8011 21.4494 27.9106 21.3694 27.7024C21.3306 27.6015 21.089 26.2114 21.4301 26.4511C21.1665 26.1496 20.9663 25.6287 21.3694 25.3486C21.5386 25.3701 21.8266 25.5706 21.7969 25.3486L21.7956 25.3512Z" fill="#62AC45"/>
<path d="M22.4066 29.9971C22.2271 30.0021 21.8047 30.016 21.6445 30.0564C21.2931 30.1472 20.9301 30.904 20.4548 30.5925C20.4341 30.5571 20.4147 30.508 20.394 30.4739C20.8513 30.2923 20.5852 29.6842 20.9741 29.5203L22.4079 29.9971H22.4066Z" fill="#62AC45"/>
<path d="M23.3819 26.0652C23.8961 26.3036 24.241 26.4979 24.7241 26.7804C24.6505 27.1324 24.2862 27.116 24.1751 27.1979C24.1609 27.2093 24.1027 27.1715 24.0537 27.2282C23.9787 27.3127 23.5279 29.191 23.5046 29.4029C23.2915 30.3061 22.9259 29.0194 22.8342 28.6877C22.6366 27.9788 22.4854 26.8031 22.4686 26.0665C22.4661 25.9378 22.4467 25.823 22.5293 25.7095C22.7916 25.8028 23.1287 25.9491 23.3832 26.0665L23.3819 26.0652Z" fill="#599341"/>
<path d="M23.1997 30.0562C22.9995 30.0827 22.8419 30.0524 22.6507 29.9969C22.5499 29.9679 22.2696 29.7459 22.1327 29.6992C21.9389 29.6337 20.9158 29.4255 20.8822 29.3713C20.8241 29.2767 20.9378 28.487 21.0037 28.3293C21.2052 28.3836 22.4699 28.4706 21.7968 28.7166C22.4647 28.9348 22.7243 29.6059 23.1997 30.0575V30.0562Z" fill="#62AC45"/>
<path d="M24.1753 27.1981L23.5346 30.117C23.4415 30.1132 23.4919 29.5128 23.5035 29.4018C23.5268 29.1899 23.9776 27.3116 24.0526 27.2271C24.1016 27.1716 24.1598 27.2082 24.174 27.1968L24.1753 27.1981Z" fill="#84AC47"/>
<path d="M22.4673 27.3165C22.4931 27.6079 22.5681 27.9195 22.5887 28.2096L21.4907 26.6909L21.6742 26.6316C22.0152 26.759 22.1444 27.5411 22.4673 27.3165Z" fill="#62AC45"/>
<path d="M41.6223 27.6734C41.7308 28.2221 42.3418 28.6724 42.6596 29.1921C43.4295 30.4523 43.6517 31.7591 43.6362 33.2135C43.6271 34.0435 43.5974 34.9202 43.1479 35.6556C43.0045 35.5169 42.5291 35.1561 42.3547 35.0603C42.0989 34.919 41.8767 34.866 41.6223 34.7626C42.2552 32.8692 41.9646 30.586 40.8291 28.9247C41.2399 28.458 40.9699 27.8361 40.8898 27.3164C41.1417 27.4161 41.3807 27.5561 41.6223 27.6734Z" fill="url(#paint3_linear_345_22106)"/>
<path d="M35.1557 26.3035C37.1579 27.4047 38.4381 28.2006 39.3036 30.3539C38.5944 30.697 38.3089 31.5144 37.778 31.9622C37.5881 28.5311 35.6091 27.8083 32.8369 26.3627C33.6068 26.2984 34.3793 26.2845 35.1544 26.3035H35.1557Z" fill="#F79229"/>
<path d="M44.4889 29.6401C44.5018 30.7514 44.5392 31.8628 44.5496 32.9753C44.3106 33.2188 43.976 33.2087 43.635 33.2137C43.6505 31.7606 43.4296 30.4537 42.6584 29.1923C42.3406 28.6726 41.7309 28.2223 41.6211 27.6736C42.8832 28.2854 43.427 28.8858 44.4876 29.6389L44.4889 29.6401Z" fill="#CE4727"/>
<path d="M45.8309 30.4739C45.5222 30.6266 45.5144 32.8076 45.3426 33.2137C45.2406 33.3714 45.1282 33.5821 45.0378 33.7498L44.5495 34.3162C44.5508 33.8684 44.5534 33.4206 44.5495 32.9753C44.5391 31.8615 44.5017 30.7514 44.4888 29.6401C44.9008 29.9328 45.384 30.2343 45.8309 30.4739Z" fill="#CE4727"/>
<path d="M40.8901 27.3165C40.9702 27.8362 41.2402 28.4581 40.8294 28.9249C40.7158 28.7596 40.584 28.6473 40.4639 28.5073C40.3838 28.4152 40.4031 28.3332 40.3424 28.2689C40.4884 28.0431 40.2352 27.6988 40.0673 27.5537C40.0221 27.5146 39.1333 27.0037 39.3051 27.4351C39.0778 27.2573 38.8323 27.1248 38.6037 26.9583C38.5197 26.8978 38.251 26.735 38.3905 26.6013C39.2057 26.7565 40.1228 27.0125 40.8914 27.3165H40.8901Z" fill="#F15F27"/>
<path d="M45.8311 30.4739C45.946 30.5357 45.6825 30.5546 46.0752 30.5332C46.1153 30.5306 46.1566 30.5332 46.1966 30.5332C46.3607 30.8372 46.3982 31.2383 46.3801 31.6054C46.3762 31.6823 46.3943 31.7769 46.3801 31.8438C46.3181 32.1402 45.5637 32.8744 45.3428 33.2137C45.5146 32.8075 45.521 30.6252 45.8311 30.4739Z" fill="#B63D26"/>
<path d="M32.8379 26.3628C35.6101 27.8071 37.5891 28.5312 37.779 31.9623C37.7893 32.1439 37.7221 32.4101 37.8397 32.5576C37.8048 32.6132 37.7648 32.6636 37.779 32.7368C37.5736 31.9547 37.6433 31.102 37.4134 30.3237C36.8657 28.4732 34.9125 27.6205 33.3262 26.7791C33.0988 26.6593 32.8327 26.5546 32.6558 26.3616C32.7152 26.3565 32.7785 26.3666 32.8392 26.3616L32.8379 26.3628Z" fill="#FED567"/>
<path d="M38.0232 26.6012C38.1666 26.7891 38.3836 26.9392 38.5722 27.078L36.3762 26.8396C36.0468 26.6504 35.6399 26.5469 35.3389 26.3035C36.309 26.3388 37.0776 26.446 38.0232 26.6012Z" fill="#F15F27"/>
<path d="M35.3389 26.3035C35.6386 26.5469 36.0455 26.6504 36.3762 26.8396C37.8243 27.6709 38.7724 28.6308 39.3654 30.1748C39.4325 30.3501 39.4933 30.562 39.6095 30.7109C39.5992 30.7273 39.6147 30.7929 39.6095 30.8294C39.6005 30.8004 39.408 30.6112 39.3047 30.3526C38.4392 28.1981 37.159 27.4034 35.1567 26.3022C35.2136 26.3035 35.2523 26.2984 35.3402 26.3022L35.3389 26.3035Z" fill="#FED386"/>
<path d="M32.5332 26.3629C32.5733 26.3591 32.6159 26.3667 32.6547 26.3629C32.8316 26.5559 33.099 26.6593 33.3251 26.7804L32.7761 26.9293L33.3251 27.3758C32.9582 27.1727 32.4389 26.9646 32.0436 26.899C32.1948 26.6884 31.5734 26.764 31.4946 26.542C31.8059 26.4891 32.2374 26.3919 32.5319 26.3629H32.5332Z" fill="#F79229"/>
<path d="M38.389 26.6013C38.2495 26.735 38.5195 26.8977 38.6022 26.9583C38.8308 27.1248 39.0762 27.2572 39.3036 27.4351C39.5775 27.6495 40.1278 28.0456 40.3409 28.2689C40.4029 28.3332 40.3822 28.4152 40.4623 28.5073L40.4016 28.5666C40.3926 28.5565 40.3487 28.5767 40.3409 28.5666C39.7803 27.9346 39.2416 27.5713 38.5724 27.0768C38.3838 26.9381 38.1668 26.788 38.0234 26.6C38.0519 26.6051 38.256 26.5748 38.389 26.6V26.6013Z" fill="#FCBE7A"/>
<path d="M46.0752 30.5333C45.6838 30.5547 45.946 30.5358 45.8311 30.474C45.8569 30.4614 46.0765 30.4475 46.0752 30.5333Z" fill="#CE4727"/>
<path d="M35.3999 39.0516C35.4515 39.6609 35.7241 40.3736 35.5213 40.8983C35.5148 40.8996 35.5432 41.0043 35.4903 41.0169C34.9684 41.1443 34.161 41.2414 33.6908 41.4344C33.5926 41.4748 33.4919 41.4887 33.386 41.553C33.4828 41.3436 33.3046 41.2414 33.2645 41.0169C33.1754 40.5136 33.1418 39.8652 33.1431 39.3493C33.1431 38.8019 33.1754 38.2695 33.3265 37.741C33.4053 37.5657 33.5939 37.35 33.51 37.1456C34.0538 36.4985 34.6842 35.912 35.4011 35.4478C35.2758 36.5767 35.1118 37.7133 35.2177 38.8435C35.2332 39.0062 35.1583 39.0794 35.4011 39.0516H35.3999Z" fill="#B63D26"/>
<path d="M20.9416 34.5243C20.6058 35.1689 20.2402 35.8854 20.1485 36.6095C19.9211 36.6486 19.7002 36.7381 19.478 36.7886C19.6602 36.0759 19.9922 35.3569 20.3319 34.7035C20.3719 34.6265 20.4133 34.5395 20.4533 34.4651C20.8073 33.8066 21.3007 33.0561 21.7348 32.4392C21.8549 32.2689 21.9776 32.1251 22.1004 31.9624L20.9416 34.5243Z" fill="#F1D2B1"/>
<path d="M44.5508 32.9753C44.5547 33.4194 44.5521 33.8684 44.5508 34.3162L45.0391 33.7499C44.5948 34.5736 44.3919 35.1399 44.3067 36.0734C44.2899 36.2563 44.1865 36.1756 44.1853 36.2222C44.184 36.2664 44.308 36.2374 44.3067 36.2815C44.3028 36.5893 44.3183 36.9009 44.3067 37.2049C44.1465 36.8731 43.5407 36.1932 43.2694 35.8943C43.2603 35.8842 43.2203 35.7265 43.1479 35.6559C43.5975 34.9204 43.6272 34.0438 43.6362 33.2137C43.9773 33.2087 44.3118 33.2188 44.5508 32.9753Z" fill="#B63D26"/>
<path d="M40.8294 28.9248C41.9649 30.5861 42.2556 32.8693 41.6226 34.7627C41.5399 34.7286 41.5658 34.7046 41.5619 34.7034C42.0385 32.8365 41.8926 30.8144 40.8294 29.1632C40.7119 28.9816 40.5414 28.728 40.4019 28.5678L40.4626 28.5085C40.5827 28.6473 40.7158 28.7596 40.8281 28.9261L40.8294 28.9248Z" fill="#E37951"/>
<path d="M30.3366 26.8395C30.8739 26.8016 31.5121 26.8117 32.0443 26.8988C32.4383 26.9631 32.9576 27.1712 33.3258 27.3756C34.0194 27.7603 35.1614 28.7947 35.5825 29.4607C35.5076 29.5238 35.3319 29.7206 35.2776 29.7584C35.0257 29.93 35.0077 29.8972 34.7286 30.1759C34.6369 30.2668 34.0259 30.9063 33.9962 30.9504C33.9355 27.667 28.9595 27.9987 26.7364 28.806C24.198 29.7281 22.135 32.2283 20.9414 34.524L22.1001 31.9621C23.4061 30.234 25.1074 28.5273 27.1626 27.6733C27.7181 27.4424 28.3433 27.2785 28.9311 27.1372C29.0448 27.1094 29.1636 27.0438 29.2967 27.0186C29.3535 27.0073 29.422 27.0287 29.4801 27.0186C29.763 26.9694 30.0394 26.8609 30.334 26.8395H30.3366Z" fill="#FFF3CB"/>
<path d="M39.3035 30.354C39.4069 30.6126 39.5994 30.8018 39.6084 30.8308C39.9469 31.9484 39.766 33.3776 39.6691 34.5243C39.6433 34.5419 39.5852 34.6403 39.4857 34.7034L39.5464 31.0995L39.425 31.0402C39.2183 31.5221 38.0299 32.2474 37.8387 32.559C37.7211 32.4114 37.7883 32.144 37.778 31.9636C38.3089 31.5158 38.5944 30.6984 39.3035 30.3553V30.354Z" fill="#F15F27"/>
<path d="M31.4956 26.542C31.5744 26.7653 32.1958 26.6883 32.0447 26.899C31.5124 26.8119 30.8743 26.8006 30.3369 26.8397C30.6844 26.5899 31.0965 26.6088 31.4956 26.542Z" fill="#A94724"/>
<path d="M40.3407 28.2701C40.1289 28.0455 39.5773 27.6507 39.3034 27.4363C39.1329 27.0049 40.0217 27.517 40.0656 27.5548C40.2322 27.6986 40.4854 28.0443 40.3407 28.2701Z" fill="#F47729"/>
<path d="M37.779 32.7367L37.23 36.251C37.1873 36.3002 37.1473 36.3759 37.1085 36.4301L37.6265 32.8565L35.5222 35.2393C35.5623 34.3955 35.5816 33.5553 35.5222 32.7077C35.4137 32.7039 35.3375 32.8931 35.2781 32.9764H35.0946C35.548 32.463 35.9588 31.6443 36.0092 30.9505C36.0596 30.2567 35.933 30.0158 35.5816 29.4608C35.1605 28.796 34.0173 27.7604 33.3249 27.3757L32.7759 26.9291L33.3249 26.7803C34.9112 27.6216 36.8644 28.4731 37.4121 30.3249C37.642 31.1032 37.5723 31.9559 37.7777 32.738L37.779 32.7367Z" fill="#E77C24"/>
<path d="M39.4872 34.7034C38.7251 35.1853 37.8299 35.5562 37.2305 36.2525L37.7795 32.7382C37.7653 32.665 37.8066 32.6158 37.8402 32.559C38.0314 32.2475 39.2198 31.5221 39.4265 31.0403L39.5479 31.0996L39.4872 34.7034Z" fill="#CE4727"/>
<path d="M38.5723 27.078C39.2428 27.5724 39.7801 27.9357 40.3408 28.5677C40.0811 29.1517 39.8305 29.7244 39.3642 30.176C38.7713 28.6308 37.8231 27.6708 36.375 26.8408L38.571 27.0792L38.5723 27.078Z" fill="#F79229"/>
<path d="M41.5618 34.7035C41.474 34.6694 41.2234 34.7375 41.1342 34.7035C40.8604 34.5975 40.7816 34.2885 40.5542 34.1081C40.4857 34.0526 40.4677 34.1699 40.4625 34.1674C40.3088 34.0892 40.5581 33.992 40.3708 33.9883C40.2946 34.0021 39.9987 34.4033 39.9135 34.4651C39.8954 34.4777 39.69 34.5105 39.6693 34.5244C39.7662 33.3777 39.9471 31.9485 39.6086 30.8309C39.6138 30.7943 39.5983 30.7287 39.6086 30.7124C39.9316 30.1636 40.4547 29.683 40.8281 29.1633C41.8912 30.8145 42.0359 32.8353 41.5605 34.7035H41.5618Z" fill="#CE4727"/>
<path d="M40.4017 28.5679C40.54 28.7293 40.7118 28.9816 40.8293 29.1632C40.4547 29.6829 39.9328 30.1635 39.6099 30.7123C39.4949 30.5634 39.4329 30.3515 39.3657 30.1762C39.8308 29.7246 40.0827 29.1519 40.3423 28.5679C40.3514 28.5779 40.3953 28.5578 40.403 28.5679H40.4017Z" fill="#F15F27"/>
<path d="M37.1074 36.4303C36.3556 37.4344 36.1954 38.1282 36.437 39.3492C36.5016 39.6747 36.7096 40.2411 36.8646 40.54C36.884 40.5779 36.9046 40.622 36.9253 40.6586C36.5365 40.6952 36.1657 40.868 35.7963 40.9563C35.6542 40.9904 35.5444 40.8907 35.5211 40.897C35.7227 40.3723 35.4501 39.6596 35.3997 39.0503C35.2796 37.6211 35.4565 36.6233 35.5211 35.2383L37.6255 32.8555L37.1074 36.4291V36.4303Z" fill="#CE4727"/>
<path d="M35.5223 35.2397C35.4564 36.6247 35.2794 37.6237 35.4009 39.0517C35.158 39.0794 35.2329 39.0063 35.2174 38.8435C35.1115 37.7133 35.2743 36.578 35.4009 35.4478C34.6839 35.912 34.0535 36.4986 33.5097 37.1457C32.9039 37.8659 32.0319 39.2409 32.0461 40.1832C31.9725 40.2387 31.873 40.1832 31.8627 40.1832L32.1378 38.2179C32.0668 38.2254 31.9867 38.1914 31.9247 38.2481C31.8097 38.3516 31.3227 39.6735 31.0708 39.8867C30.846 39.7644 30.6342 39.5562 30.5825 39.5297L31.3757 38.339C31.9544 37.9719 33.6441 35.4566 34.1207 34.7654C34.5173 34.1902 34.8855 33.5267 35.2795 32.9779C35.3389 32.8947 35.4151 32.7067 35.5236 32.7093C35.583 33.5569 35.5636 34.397 35.5236 35.2409L35.5223 35.2397Z" fill="#F15F27"/>
<path d="M33.3264 37.7411C33.2321 37.9505 33.0862 38.1157 33.0216 38.4853C33.0048 38.585 32.8924 39.415 33.143 39.3494C33.143 39.8666 33.1753 40.5137 33.2644 41.017C33.1831 40.9375 33.0668 40.9779 33.0203 40.9577C32.9325 40.9186 32.5966 40.6159 32.5023 40.66C32.4739 40.6726 32.377 41.0372 32.1974 41.1961C31.8383 41.514 30.6899 41.9618 30.1848 41.9113C30.1422 41.847 30.4406 41.5657 30.46 41.5544C30.7997 41.3412 31.9481 41.3185 31.8629 40.8101C32.0385 40.6058 31.9481 40.8707 32.0153 40.8997C32.0308 40.906 32.2271 40.6487 32.2284 40.631C32.2413 40.438 32.0502 40.5364 32.045 40.1845C32.0308 39.2422 32.904 37.866 33.5086 37.147C33.5938 37.3513 33.404 37.567 33.3252 37.7424L33.3264 37.7411Z" fill="#B63D26"/>
<path d="M33.3264 37.741C33.1753 38.2695 33.1442 38.8018 33.143 39.3493C32.8923 39.4149 33.0034 38.5849 33.0215 38.4852C33.0861 38.1143 33.2321 37.9504 33.3264 37.741Z" fill="#CE4727"/>
<path d="M36.0088 30.9506L35.2156 32.3508C33.4407 34.2946 31.2343 35.8298 28.749 36.7884C28.0992 36.9928 27.483 37.1858 26.7971 37.2653C26.4315 37.3081 26.1176 37.3018 25.7598 37.3245C24.7987 37.3863 23.7665 37.1744 22.8623 37.5629C23.1465 37.5352 23.4023 37.6298 23.6864 37.6222C24.1334 37.6752 24.5829 37.7395 25.0286 37.8014C25.6164 37.8821 26.3695 38.0524 26.9508 38.0398C28.4441 38.0057 30.5949 36.4516 31.8001 35.6569C33.1656 34.7576 33.9742 34.2454 35.0942 32.9764H35.2776C34.8836 33.5251 34.5142 34.1887 34.1189 34.7639C33.7068 34.8736 33.4407 35.4337 33.1423 35.7465C32.7264 36.183 31.7058 37.1454 31.2201 37.4444C30.3882 37.9565 29.3651 38.0183 28.5061 38.4573C28.4079 38.4283 28.3072 38.3917 28.2012 38.398C27.7724 38.4194 27.7775 38.7285 27.6522 39.0527C27.6509 39.0565 27.6161 39.03 27.5915 39.112L25.4562 39.0527C25.2766 38.8912 25.017 38.7739 24.7858 38.6957C24.5804 38.6263 24.1928 38.5141 23.9926 38.5166C23.4022 38.5241 23.0238 38.7134 22.6504 39.112C22.4089 39.3693 22.3184 39.4513 22.2229 39.8272C22.2035 39.9016 22.166 40.0568 22.1621 40.1249L21.1855 40.0063C21.8172 39.2835 22.2409 37.8405 21.7953 36.9688C22.3391 36.8553 22.8545 36.656 23.3816 36.492C24.3569 36.4567 25.4355 36.55 26.4018 36.4327C28.5048 36.1754 32.0934 34.0133 33.6306 32.5614C34.2248 32.0001 34.5206 31.8601 34.9121 31.0717C35.1291 30.634 35.3616 30.3035 35.2776 29.7611C35.3332 29.7232 35.5076 29.5252 35.5825 29.4634C35.9339 30.0184 36.0605 30.2568 36.0101 30.9531L36.0088 30.9506Z" fill="#F3A95A"/>
<path d="M34.1184 34.7627C33.6417 35.454 31.952 37.9692 31.3733 38.3363C30.9586 38.5999 30.0505 38.6882 29.6049 38.991C29.5364 38.9556 29.3956 38.9178 29.3 38.8724C29.2186 38.8333 29.1385 38.7904 29.0558 38.7538C28.9112 38.6895 28.5998 38.4839 28.5068 38.4561C29.3659 38.0172 30.3903 37.9566 31.2209 37.4432C31.7053 37.1443 32.7271 36.1818 33.1431 35.7453C33.4402 35.4325 33.7063 34.8724 34.1196 34.7627H34.1184Z" fill="#FCEA7C"/>
<path d="M27.4691 39.8855C27.4691 40.2059 27.5518 40.5944 27.6526 40.8984L26.0055 40.7193C26.0391 40.4657 26.0133 40.0166 25.9448 39.7656L27.4704 39.8842L27.4691 39.8855Z" fill="#FCBE7A"/>
<path d="M27.592 39.111C27.521 39.3444 27.4693 39.6396 27.4706 39.8856L25.945 39.767C25.9243 39.6938 25.8313 39.6068 25.8236 39.5879C25.7383 39.3999 25.6117 39.1905 25.458 39.0518L27.5933 39.111H27.592Z" fill="#FCEA7C"/>
<path d="M21.3086 36.4895C21.204 36.4643 20.8914 36.4832 20.7596 36.4895C20.5646 36.4983 20.3437 36.5753 20.1499 36.6081C20.2416 35.884 20.6072 35.1675 20.9431 34.5229C22.1367 32.2272 24.1996 29.727 26.738 28.8049C26.9899 29.2111 26.6256 29.0862 26.4021 29.2225C24.976 30.0878 23.7592 31.2773 22.8329 32.6472C22.1095 33.7182 21.2634 35.2066 21.3073 36.4895H21.3086Z" fill="#FBBA57"/>
<path d="M34.9115 31.0694C34.5214 31.8577 34.2242 31.9965 33.63 32.5591C33.5719 32.1971 33.6339 31.8275 33.7515 31.4869C33.8005 31.3443 33.9155 31.0731 33.9956 30.9508C34.0253 30.9066 34.6363 30.2671 34.728 30.1763L34.9115 31.0694Z" fill="#FDEEB0"/>
<path d="M35.2785 29.7585C35.3625 30.301 35.1299 30.6314 34.9129 31.0692L34.7295 30.1761C35.0085 29.8986 35.0266 29.9301 35.2785 29.7585Z" fill="#FED386"/>
<path d="M36.0093 30.9507C35.959 31.6445 35.5482 32.4619 35.0948 32.9765C33.9748 34.2455 33.1661 34.7576 31.8007 35.657C31.0644 35.6457 30.2738 36.2928 29.5737 36.5501C29.3024 36.6498 29.0195 36.704 28.7495 36.7885C31.2336 35.8298 33.4413 34.2934 35.2162 32.3509L36.0093 30.9507Z" fill="#FDEEB0"/>
<path d="M31.8615 40.1833C31.8021 40.1833 31.7375 40.1631 31.7401 40.2426C31.6639 40.1959 31.5747 40.1656 31.4959 40.124C31.3526 40.047 31.2105 39.9625 31.0684 39.8856C31.3203 39.6724 31.8086 38.3504 31.9222 38.247C31.9842 38.1902 32.0643 38.2243 32.1354 38.2167L31.8602 40.182L31.8615 40.1833Z" fill="#CE4727"/>
<path d="M31.3733 38.3364L30.5801 39.5272C30.5581 39.5159 30.4845 39.5386 30.4587 39.5272C30.3954 39.3607 30.1538 39.3493 30.0311 39.2888C29.8955 39.2207 29.6694 39.0252 29.6035 38.9911C30.0505 38.6884 30.9586 38.5988 31.372 38.3364H31.3733Z" fill="#FED567"/>
<path d="M33.6309 32.559C32.0936 34.0122 28.5051 36.1742 26.402 36.4303C25.4371 36.5476 24.3571 36.4543 23.3818 36.4896C25.5843 35.8021 28.6084 35.3833 30.55 34.2266C31.6983 33.5417 32.8157 32.4278 33.7523 31.4868C33.6347 31.8274 33.5714 32.197 33.6309 32.559Z" fill="#FFF3CB"/>
<path d="M31.8008 35.6559C30.5943 36.4506 28.4448 38.0047 26.9515 38.0387C26.3715 38.0513 25.6171 37.881 25.0293 37.8003C25.1727 37.5165 25.6868 37.6262 25.9749 37.5619L26.799 37.2642C27.485 37.1847 28.1012 36.9918 28.7509 36.7874C29.0209 36.7029 29.3025 36.6499 29.5751 36.549C30.2739 36.2904 31.0645 35.6446 31.8021 35.6559H31.8008Z" fill="#FCEA7C"/>
<path d="M25.7616 37.3236C25.2642 37.5178 24.2631 37.6074 23.687 37.6213C23.4041 37.6276 23.1483 37.5342 22.8628 37.562C23.767 37.1735 24.7992 37.3867 25.7603 37.3236H25.7616Z" fill="#FDEEB0"/>
<path d="M26.7989 37.2642L25.9748 37.5619C25.6867 37.6262 25.1726 37.5164 25.0292 37.8003C24.5835 37.7397 24.134 37.6754 23.687 37.6211C24.2631 37.6073 25.2643 37.5177 25.7616 37.3234C26.1194 37.3007 26.4333 37.3058 26.7989 37.2642Z" fill="#FDEEB0"/>
<path d="M33.9963 30.9506C33.9162 31.073 33.8012 31.3442 33.7521 31.4867C32.8156 32.4278 31.6982 33.5429 30.5498 34.2265C28.6083 35.3833 25.5855 35.8033 23.3817 36.4895C22.8559 36.6535 22.3392 36.8516 21.7954 36.9663C21.6882 36.7569 21.6365 36.7141 21.4298 36.6094C21.4208 36.6043 21.3161 36.492 21.3084 36.4908C21.2632 35.2079 22.1093 33.7194 22.834 32.6485C23.7602 31.2786 24.9758 30.0891 26.4032 29.2238C26.6254 29.0888 26.9896 29.2124 26.739 28.8062C28.9609 27.9989 33.9369 27.6672 33.9989 30.9506H33.9963Z" fill="#FCBE7A"/>
<path d="M31.617 31.1893C31.2669 31.4857 30.9233 31.7783 30.5797 32.0823C30.559 31.8679 30.8083 30.7553 30.4272 30.831L30.1521 31.0694C30.1882 30.9963 30.4001 30.7616 30.2438 30.7124C28.6536 30.6494 27.128 31.3987 26.309 32.7383C26.1811 32.9477 26.008 33.123 26.0959 33.393C26.5428 33.398 26.995 33.4005 27.438 33.3337C27.8811 33.2668 28.5154 33.0284 28.9636 32.9767C29.0786 32.9641 29.6379 32.8405 29.5436 33.0953C29.5398 33.0978 29.5604 33.1154 29.4829 33.1545C28.341 33.1394 27.3205 33.6415 26.2806 33.9883C26.1682 34.0262 25.6618 33.9568 25.6399 34.286C25.1064 34.4412 24.4695 34.4841 23.9321 34.7629C24.2112 34.0829 24.5212 33.4245 24.9087 32.7976C26.0416 30.9584 29.2737 28.4608 31.4658 29.9985C32.0613 30.416 31.6415 30.6544 31.6183 31.1893H31.617Z" fill="#FCBE7A"/>
<path d="M31.617 31.1892C31.6403 30.6543 32.0601 30.4147 31.4646 29.9984C29.2711 28.4607 26.0404 30.9583 24.9075 32.7975C24.405 33.0561 24.1091 33.8129 23.8702 34.3162C23.8017 34.4613 23.8327 34.8069 23.8095 34.8523C23.772 34.9217 22.9556 35.2711 22.8949 35.478C22.7799 35.502 22.5164 35.7151 22.4673 35.6268C22.9452 32.6209 25.7019 29.6099 28.903 29.3424C29.9713 29.2529 32.1453 29.3324 32.6543 30.3844C32.343 30.696 31.9516 30.9053 31.617 31.1892Z" fill="#FDEEB0"/>
<path d="M30.5808 32.0824C30.2023 32.4179 30.0666 32.8001 29.5435 33.0953C29.6391 32.8392 29.0784 32.9628 28.9635 32.9767C28.5165 33.0284 27.8887 33.2668 27.4379 33.3337C26.987 33.4005 26.5427 33.398 26.0957 33.393C26.0091 33.123 26.181 32.9464 26.3088 32.7383C27.8564 32.0395 29.2799 32.848 30.1519 31.0707L30.427 30.8323C30.8081 30.7566 30.5588 31.8679 30.5795 32.0836L30.5808 32.0824Z" fill="#FED386"/>
<path d="M24.9074 32.7974C24.5212 33.4255 24.2099 34.0827 23.9309 34.7627C23.8469 34.9683 23.9205 35.1928 23.7784 35.2988C23.7371 35.329 23.0305 35.4489 22.8936 35.4779C22.9556 35.271 23.772 34.9216 23.8081 34.8522C23.8327 34.8068 23.8004 34.4612 23.8689 34.3161C24.1078 33.8115 24.4024 33.056 24.9062 32.7974H24.9074Z" fill="#FCEA7C"/>
<path d="M29.4832 33.1544C28.7546 33.5177 26.5767 34.0147 25.6401 34.2859C25.6621 33.9566 26.1685 34.026 26.2809 33.9882C27.3208 33.6413 28.3426 33.1393 29.4832 33.1544Z" fill="#FDEEB0"/>
<path d="M31.2204 32.6777C31.4142 32.7017 31.2721 32.7723 31.2514 32.8266C31.1364 33.1104 30.5409 33.6074 30.2451 33.7499L31.2217 32.6777H31.2204Z" fill="#F3A95A"/>
<path d="M30.1536 31.0693C29.2817 32.8466 27.8581 32.0381 26.3105 32.7369C27.1295 31.3985 28.6551 30.6493 30.2453 30.7111C30.4016 30.7603 30.1898 30.9949 30.1536 31.068V31.0693Z" fill="#FDEEB0"/>
</g>
<defs>
<filter id="filter0_i_345_22106" x="0" y="0" width="70" height="70" filterUnits="userSpaceOnUse" color-interpolation-filters="sRGB">
<feFlood flood-opacity="0" result="BackgroundImageFix"/>
<feBlend mode="normal" in="SourceGraphic" in2="BackgroundImageFix" result="shape"/>
<feColorMatrix in="SourceAlpha" type="matrix" values="0 0 0 0 0 0 0 0 0 0 0 0 0 0 0 0 0 0 127 0" result="hardAlpha"/>
<feMorphology radius="3" operator="erode" in="SourceAlpha" result="effect1_innerShadow_345_22106"/>
<feOffset/>
<feGaussianBlur stdDeviation="1"/>
<feComposite in2="hardAlpha" operator="arithmetic" k2="-1" k3="1"/>
<feColorMatrix type="matrix" values="0 0 0 0 0 0 0 0 0 0 0 0 0 0 0 0 0 0 0.08 0"/>
<feBlend mode="normal" in2="shape" result="effect1_innerShadow_345_22106"/>
</filter>
<linearGradient id="paint0_linear_345_22106" x1="15.6326" y1="41.8483" x2="36.5571" y2="47.5291" gradientUnits="userSpaceOnUse">
<stop stop-color="#FBDFD1"/>
<stop offset="1" stop-color="#D1C1A5"/>
</linearGradient>
<linearGradient id="paint1_linear_345_22106" x1="57.3801" y1="43.7227" x2="37.8168" y2="46.4692" gradientUnits="userSpaceOnUse">
<stop stop-color="#C4A67A"/>
<stop offset="0.85" stop-color="#A68063"/>
</linearGradient>
<linearGradient id="paint2_linear_345_22106" x1="35.3969" y1="46.3655" x2="47.2916" y2="46.4449" gradientUnits="userSpaceOnUse">
<stop stop-color="#C19C81"/>
<stop offset="1" stop-color="#A88D6B"/>
</linearGradient>
<linearGradient id="paint3_linear_345_22106" x1="41.6546" y1="29.9313" x2="42.8919" y2="34.3556" gradientUnits="userSpaceOnUse">
<stop stop-color="#D84D27"/>
<stop offset="1" stop-color="#B63C26"/>
</linearGradient>
</defs>
</svg>
