<svg width="70" height="70" viewBox="0 0 70 70" fill="none" xmlns="http://www.w3.org/2000/svg">
<g filter="url(#filter0_i_289_3600)">
<path d="M0 35C0 15.67 15.67 0 35 0C54.33 0 70 15.67 70 35C70 54.33 54.33 70 35 70C15.67 70 0 54.33 0 35Z" fill="white" fill-opacity="0.75"/>
<path d="M12.6327 20.5188C10.8345 21.4288 9.1278 22.5412 7.30786 23.4163C7.2948 23.388 7.31657 23.3249 7.22949 23.338C7.36011 22.6696 7.65618 22.0427 7.62135 21.3417L7.81727 21.1458C7.8804 21.1044 8.5139 21.026 8.64016 20.989C9.72647 20.6777 11.4419 20.2946 12.5543 20.127L12.6327 20.5188Z" fill="#CEB5B7"/>
<path d="M14.825 20.9108C15.8961 21.8099 16.0767 22.1451 16.2335 23.4948L13.1792 22.6328C13.1749 22.1212 13.3207 21.688 13.1792 21.2243C13.2315 20.9043 13.3098 20.5538 13.4143 20.2446C13.3555 20.0248 12.7699 20.4493 12.6306 20.5189L12.5522 20.1271C12.7612 20.0966 13.4078 19.9464 13.5319 19.9703C13.6102 19.9856 14.6857 20.7954 14.8228 20.9108H14.825Z" fill="#F6956F"/>
<path d="M8.56184 32.7338L13.0246 37.8235C12.463 37.6298 11.6858 36.9919 11.1067 36.8047C10.9173 36.7438 10.7758 36.6458 10.754 36.9615C10.3012 36.6502 9.38255 36.1952 9.03206 35.8643C8.61408 35.4703 6.26296 31.2513 6.05615 30.6178L8.24835 32.379L7.69976 25.9199C8.23964 27.9641 7.86956 30.6962 8.56184 32.7316V32.7338Z" fill="#F0A271"/>
<path d="M12.8681 22.5542C12.7875 22.8263 12.8877 22.5956 12.9465 22.8285C12.8964 22.909 12.9029 22.7436 12.7113 22.8677C12.3587 23.0963 11.9668 23.3575 11.6142 23.573C10.9328 23.9888 10.2057 24.3698 9.50032 24.7486C8.88424 25.0773 8.13755 25.369 7.62161 25.8458H7.54323C7.57589 25.3799 7.41479 24.4895 7.30812 24.0062C7.45833 24.3589 7.15138 24.6702 7.15138 24.7116C7.15138 24.7703 7.30595 24.7312 7.30812 24.7899C7.32772 25.2101 7.35384 25.6781 7.46486 26.0809C7.39085 26.636 7.02076 27.8246 6.75953 28.3123C6.74864 28.334 6.44169 28.641 6.36768 28.5866C6.68116 26.8515 6.89015 25.0642 7.22975 23.3401C7.31683 23.327 7.29506 23.3902 7.30812 23.4185C7.33207 23.4685 7.25588 23.6013 7.42568 23.5752L12.8681 22.5564V22.5542Z" fill="#DC784F"/>
<path d="M7.69983 25.9219L8.24842 32.381L6.05622 30.6198C5.85594 30.0059 6.24562 29.2657 6.3697 28.5844C6.44372 28.6388 6.75067 28.3318 6.76156 28.3101C7.02279 27.8224 7.39288 26.6338 7.46689 26.0787C7.48431 25.9459 7.54091 25.898 7.54526 25.8436H7.62363C7.69983 25.8349 7.68894 25.8719 7.702 25.9219H7.69983Z" fill="#DC784F"/>
<path d="M16.2356 23.4946C16.3314 24.3088 16.2203 25.1121 16.4707 25.8436C16.4707 25.8697 16.4707 25.8958 16.4707 25.922C16.1289 25.6215 15.7719 25.3037 15.4519 24.9815C14.7661 24.2914 13.9955 23.29 13.1029 22.9461C13.0746 22.7284 13.1813 22.65 13.1813 22.6326L16.2356 23.4946Z" fill="#CF3F2D"/>
<path d="M13.1815 21.2241C13.1032 21.7009 13.0052 22.0927 12.8681 22.5542L7.42566 23.5731C7.25586 23.6014 7.33205 23.4664 7.30811 23.4163C9.12805 22.5412 10.8348 21.4288 12.633 20.5188C12.7723 20.4491 13.3557 20.0246 13.4167 20.2445C13.3122 20.5536 13.2338 20.9019 13.1815 21.2241Z" fill="#D6D8D9"/>
<path d="M13.1812 22.6326C13.1812 22.6478 13.0746 22.7284 13.1029 22.9461C13.1116 23.0157 13.2422 23.6188 13.2596 23.6514C13.1834 23.7233 13.0615 23.7102 13.0245 23.7298C12.8721 23.7864 12.3322 23.634 12.28 23.6514C11.8794 23.782 10.0508 24.6615 9.57837 24.9032L9.5 24.7464C10.2053 24.3698 10.9324 23.9888 11.6138 23.5709L12.711 22.8655C12.9026 22.7414 12.8961 22.9069 12.9461 22.8263C12.8874 22.5934 12.7872 22.8263 12.8678 22.552C13.0049 22.0884 13.1029 21.6987 13.1812 21.2219C13.3227 21.6878 13.1769 22.121 13.1812 22.6304V22.6326Z" fill="#CF5A47"/>
<path d="M18.4277 36.5696C18.7477 36.8765 19.1592 38.42 19.3681 38.9185L18.4277 40.6405C17.6832 40.3531 16.9082 40.1702 16.1571 39.8568C16.2333 39.2298 13.3815 38.2632 13.4163 38.0172C13.7059 37.8605 13.9889 37.6624 14.2784 37.5078C14.6333 37.3206 16.3531 36.4781 16.6274 36.4106C17.1498 36.2844 18.0511 36.206 18.4277 36.5674V36.5696Z" fill="#CF5A47"/>
<path d="M13.025 37.8235C13.1142 37.854 13.1578 37.9171 13.2209 37.9803L14.2789 37.5101C13.9894 37.6624 13.7085 37.8627 13.4168 38.0195C13.382 38.2655 16.2338 39.232 16.1576 39.859C14.0764 38.9947 12.6113 38.2372 10.7544 36.9615C10.7762 36.6458 10.9177 36.7438 11.1071 36.8047C11.6861 36.9919 12.4633 37.6298 13.025 37.8235Z" fill="#DC784F"/>
<path d="M20.6199 41.5809C20.7331 41.8857 20.8093 42.3102 20.9334 42.5997C20.0822 41.435 19.7579 41.1564 18.4277 40.6426L19.3682 38.9207C19.747 39.8284 20.0191 40.8015 20.6199 41.5831V41.5809Z" fill="#CF3F2D"/>
<path d="M13.1815 34.9259C13.36 35.0108 13.4776 35.2198 13.6909 35.3177C14.6249 35.7488 15.6654 36.0426 16.6277 36.4149C16.3534 36.4802 14.6336 37.3227 14.2787 37.5121L13.2207 37.9823C13.1576 37.9192 13.114 37.8561 13.0248 37.8256L8.56201 32.7358C8.65997 32.6662 8.81889 32.7032 8.91468 32.7358C10.038 33.1299 11.9537 34.3424 13.1815 34.928V34.9259Z" fill="#DC784F"/>
<path d="M7.54273 25.8434C7.53838 25.8979 7.48178 25.9458 7.46436 26.0786C7.35334 25.6758 7.32721 25.2056 7.30762 24.7876C7.30544 24.7288 7.15306 24.768 7.15088 24.7092C7.15088 24.6701 7.45783 24.3588 7.30762 24.0039C7.41429 24.4894 7.57321 25.3776 7.54273 25.8434Z" fill="#FADCC2"/>
<path d="M12.711 22.8677L11.6138 23.573C11.9664 23.3575 12.3561 23.0984 12.711 22.8677Z" fill="#F6956F"/>
<path d="M16.4688 25.9219C16.4797 26.2354 16.3839 26.5968 16.3904 26.8624C15.9311 26.4052 15.5675 25.6716 15.1387 25.2188L15.4522 24.9836C15.7722 25.3058 16.127 25.6237 16.471 25.9241L16.4688 25.9219Z" fill="#F6956F"/>
<path d="M15.452 24.9815L15.1385 25.2166C14.7967 24.8574 13.373 23.8604 13.2598 23.6514C13.2424 23.6187 13.1117 23.0179 13.103 22.946C13.9956 23.29 14.7662 24.2914 15.452 24.9815Z" fill="#CF5A47"/>
<path d="M13.0249 23.7277C12.5307 23.9781 10.6302 24.9577 10.3624 25.293C10.1121 25.2015 8.86903 25.6304 9.0323 25.1754C9.1934 25.0426 9.39803 24.9947 9.5809 24.9011C10.0533 24.6595 11.8819 23.78 12.2825 23.6493C12.3326 23.6319 12.8746 23.7843 13.027 23.7277H13.0249Z" fill="#E5613D"/>
<path d="M11.6921 33.1256C11.4809 33.4108 10.8583 32.6249 10.7516 32.4594C10.3685 31.8717 9.62612 30.1867 9.34311 29.4835C9.2495 29.2528 9.05357 28.8239 9.18637 28.5823C9.40407 29.2071 11.2501 32.4333 11.6921 33.1234V33.1256Z" fill="#E5613D"/>
<path d="M9.57841 24.9031C9.39554 24.9967 9.19091 25.0446 9.02981 25.1774C8.86654 25.6324 10.1096 25.2035 10.3599 25.295C10.2663 25.4103 9.13648 27.8507 9.10818 27.9966C9.05158 28.2817 9.09512 28.3231 9.18655 28.5843C9.05376 28.826 9.24968 29.2527 9.34329 29.4856C9.62848 30.1888 10.3708 31.8737 10.7518 32.4615C10.8585 32.6248 11.4789 33.4128 11.6922 33.1277C12.1189 33.7938 12.674 34.3293 13.1791 34.928C11.9513 34.3424 10.0334 33.1298 8.91226 32.7358C8.81647 32.7032 8.65755 32.6661 8.55959 32.7358C7.86731 30.7003 8.2374 27.9683 7.69751 25.9241C7.68445 25.874 7.69751 25.837 7.61914 25.8457C8.13508 25.3711 8.88178 25.0794 9.49786 24.7485L9.57623 24.9053L9.57841 24.9031Z" fill="#CF3F2D"/>
<path d="M8.99292 29.0525C9.24327 29.2985 9.04517 30.0278 8.91455 30.3042L8.99292 29.0525Z" fill="#CF5A47"/>
<path d="M39.5685 17.386C39.6926 17.4578 39.6665 17.4557 39.7253 17.3076C41.6998 17.2554 43.191 18.2611 44.6583 19.8133L44.815 20.7146L45.2852 21.224C45.0218 22.1557 43.9791 22.6064 43.3281 23.2594L37.6898 25.4516C37.348 25.3602 37.4743 25.3885 37.1412 25.3733C35.3343 25.2884 32.3976 25.4473 30.5646 25.6084C30.1488 25.6454 29.5371 25.6258 29.1561 25.7651L25.6708 25.2949C25.5358 25.3559 25.5881 27.7309 25.6316 27.9181C25.6948 28.1881 25.6447 28.1184 25.9451 28.1141C25.8667 28.1707 25.7927 28.3818 25.6316 28.4276C25.5903 28.4384 25.525 28.421 25.4749 28.4276C25.329 28.0531 20.2132 24.4263 19.4447 23.8864C19.4273 23.8733 19.3838 23.8995 19.3663 23.8864C18.317 23.1484 17.2547 22.467 16.2729 21.6158C15.9594 21.7552 16.4492 23.4205 16.4688 23.6905C16.5189 24.398 16.4427 25.136 16.4688 25.8435C16.2185 25.112 16.3295 24.3087 16.2337 23.4946C16.0769 22.1448 15.8941 21.8096 14.8252 20.9105C15.1387 21.1064 15.4021 21.2523 15.8048 21.0672C16.4253 20.7821 17.6161 18.8533 18.4281 18.4048L18.193 19.1102C17.9448 19.3257 18.0275 19.4106 17.9578 19.502C17.8882 19.5934 17.5094 19.9265 17.4876 20.0114C17.4027 20.3532 17.7489 21.7748 17.9578 22.0861C18.2844 22.5715 19.3576 22.885 19.8366 23.1049C21.4018 23.8211 23.3284 24.4916 25.083 24.6701C25.2615 24.7245 25.5859 24.8856 25.7492 24.9052C29.4674 25.3711 36.6688 24.8943 40.1955 23.7297C40.2761 23.7035 40.3827 23.6948 40.509 23.6513C41.3711 23.3509 41.6606 23.2747 42.4661 22.7892C42.8666 22.5476 43.2498 22.38 43.5633 22.0055C43.7701 21.9184 43.5219 21.8183 43.4457 21.7704C43.0277 21.5157 40.3675 20.3924 39.9996 20.2835C38.824 19.9309 36.4446 19.9635 35.4584 19.5782C34.9947 19.3975 33.177 16.955 32.6001 16.5239C34.6551 16.6676 36.7058 16.955 38.7456 17.2293C39.2659 17.2989 39.0722 17.103 39.5685 17.386Z" fill="url(#paint0_linear_289_3600)"/>
<path d="M32.5998 16.524C33.1767 16.955 34.9922 19.3954 35.4581 19.5782C36.4443 19.9636 38.8237 19.9309 39.9992 20.2836C40.3672 20.3946 43.0274 21.5179 43.4454 21.7704C43.5216 21.8183 43.7697 21.9185 43.5629 22.0056C40.759 20.547 37.9268 19.9636 34.7941 19.6566C33.083 19.489 31.2675 19.3736 29.5477 19.4215C29.1101 19.1037 28.6137 18.8141 28.1392 18.5594C28.4418 18.3657 29.4715 19.2082 29.6652 19.1864L31.8966 16.4456C32.2732 16.4369 32.3146 16.5044 32.6019 16.524H32.5998Z" fill="#B8D2EB"/>
<path d="M31.8945 16.4458L29.6631 19.1866C29.4671 19.2083 28.4396 18.3659 28.137 18.5596C27.6581 18.3049 27.0137 17.9065 26.5718 17.6975L25.7881 17.1881C27.4883 16.8463 29.2865 16.6439 31.0346 16.522C31.3263 16.5024 31.594 16.4501 31.8966 16.4436L31.8945 16.4458Z" fill="#C3C6CF"/>
<path d="M45.2068 23.338C45.3505 24.3285 45.0479 26.536 44.9717 27.6441C44.6452 27.7333 44.8868 28.3341 44.815 28.5453C44.7562 28.7195 44.2751 28.5257 44.1096 28.8588C44.04 29.0003 44.0966 29.6011 43.7178 29.8384C43.4217 29.723 43.2476 29.7296 42.9341 29.5249L43.0908 28.3494L44.8128 22.907L45.1263 22.8286C45.0588 23.0115 45.1894 23.2292 45.2047 23.338H45.2068Z" fill="#CB7769"/>
<path d="M31.0345 16.524C29.2864 16.646 27.4883 16.8462 25.7881 17.1902L26.5718 17.6996C26.3301 17.5864 25.6857 17.2729 25.4746 17.2294C24.6843 17.0639 23.45 17.3622 22.6162 17.4645C22.2853 17.5037 21.7868 17.3513 21.5974 17.3861C21.5277 17.3992 21.4167 17.6147 21.4015 17.6212C21.0945 17.7431 18.5083 19.0689 18.3864 19.1865C18.3167 19.2561 18.2013 19.3236 18.308 19.4216C18.3733 19.4891 19.3203 19.5174 19.2093 19.8134C18.824 19.7002 18.3733 19.4433 17.9575 19.4999C18.0272 19.4085 17.9445 19.3258 18.1926 19.1081C18.7086 18.6575 19.8036 18.5704 20.1889 17.9325L20.2673 18.0893L20.2281 17.6974C22.5618 16.7461 28.7596 15.7512 31.2283 16.056C31.2544 16.0603 31.5331 16.3107 31.7377 16.2519L31.0323 16.5262L31.0345 16.524Z" fill="#DFF3FD"/>
<path d="M45.2066 23.338C45.1914 23.2291 45.0607 23.0114 45.1282 22.8285L44.8148 22.9069L43.0928 28.3493L43.1711 23.4947C43.2125 23.4533 43.2865 23.3009 43.3279 23.2596C43.9788 22.6065 45.0237 22.1559 45.285 21.2241H45.3633C45.3503 21.9229 45.3067 22.6479 45.2066 23.338Z" fill="#A84C56"/>
<path d="M44.8145 30.5415C44.6447 31.6409 44.1005 32.8556 43.9524 33.9876C43.6498 34.005 43.0446 34.1008 42.7007 34.1444L44.8145 30.5415Z" fill="#90463D"/>
<path d="M44.9712 27.644C44.9124 28.5039 44.9299 29.3769 44.8145 30.2281C44.4292 30.1497 44.0787 29.9777 43.7173 29.8362C44.0961 29.5989 44.0395 28.9981 44.1091 28.8566C44.2746 28.5235 44.7557 28.7173 44.8145 28.5431C44.8863 28.3319 44.6447 27.7311 44.9712 27.6418V27.644Z" fill="#DC784F"/>
<path d="M25.4748 28.4279C25.4792 28.454 25.4683 28.4823 25.4748 28.5062C25.3311 28.589 25.2157 28.7196 25.0829 28.8197C23.5939 29.93 19.7625 33.3696 18.6631 34.7715L19.4468 23.8867C20.2153 24.4288 25.3311 28.0534 25.477 28.4279H25.4748Z" fill="#FBC2A1"/>
<path d="M37.1411 25.3733C35.9241 27.8659 34.4068 30.1931 33.0701 32.616L33.3052 32.7336C33.2073 32.8228 33.0854 32.8838 32.9918 32.9687C32.9765 32.9817 32.9286 32.9556 32.9134 32.9687C32.8111 32.9621 32.7806 32.8163 32.6783 32.8119L30.5645 25.6084C32.3975 25.4473 35.3342 25.2884 37.1411 25.3733Z" fill="#CB7769"/>
<path d="M32.6782 32.8122C32.6782 32.8122 32.7065 32.9406 32.639 32.9689C30.425 31.6475 28.3395 30.0823 26.1408 28.7413C25.984 28.6455 25.8316 28.5432 25.6313 28.5845V28.4278C25.7924 28.3821 25.8665 28.1709 25.9448 28.1143C26.365 27.8052 28.9686 25.8329 29.1558 25.7654C29.5368 25.6261 30.1485 25.6457 30.5643 25.6086L32.6782 32.8122Z" fill="url(#paint1_linear_289_3600)"/>
<path d="M37.6893 25.4517C38.5013 25.6694 39.3656 26.3812 40.195 26.6272C40.182 26.6403 40.2081 26.6926 40.195 26.7056C40.1841 26.7165 40.1798 26.8014 40.0383 26.9407C37.9702 28.974 35.4688 30.7787 33.3049 32.7358L33.0698 32.6182C34.4065 30.1953 35.9238 27.8681 37.1407 25.3755C37.4738 25.3907 37.3454 25.3624 37.6893 25.4539V25.4517Z" fill="#CB7769"/>
<path d="M19.4445 23.8844L18.6608 34.7692C18.5781 34.8759 18.5171 34.9368 18.5041 35.0827C18.4997 35.1349 18.5041 35.1872 18.5041 35.2394C17.9838 34.2206 17.6986 32.9427 17.3285 31.7541C17.2763 31.5865 17.2697 31.2795 17.015 31.4798C16.8735 30.6743 16.4708 29.649 16.7799 28.8958L19.364 23.8844C19.3814 23.8974 19.4249 23.8713 19.4423 23.8844H19.4445Z" fill="#F0A271"/>
<path d="M19.366 23.8843L16.782 28.8957C16.4685 28.9327 16.5708 28.8326 16.5468 28.6214C16.4924 28.1076 16.4032 27.3501 16.3901 26.8602C16.3836 26.5947 16.4794 26.2333 16.4685 25.9198C16.4685 25.8937 16.4685 25.8676 16.4685 25.8414C16.4423 25.1339 16.5185 24.3959 16.4685 23.6884C16.4489 23.4185 15.9612 21.7531 16.2725 21.6138C17.2544 22.465 18.3167 23.1464 19.366 23.8843Z" fill="#FABAA6"/>
<path d="M43.3278 23.2595C43.2864 23.3009 43.2124 23.4533 43.171 23.4946C42.1588 24.5178 41.2183 25.6085 40.1951 26.6273C39.3657 26.3835 38.5015 25.6694 37.6895 25.4517L43.3278 23.2595Z" fill="#ABBBCD"/>
<path d="M29.1535 25.7654C28.9663 25.8329 26.3626 27.8052 25.9425 28.1143C25.642 28.1187 25.6921 28.1883 25.629 27.9184C25.5854 27.7312 25.5332 25.3561 25.6682 25.2952L29.1535 25.7654Z" fill="#B8D2EB"/>
<path d="M19.2092 19.8135C20.0169 20.0508 20.8333 20.2641 21.6366 20.5188C20.3434 20.9085 19.2201 21.6312 17.9575 22.084C17.7485 21.7727 17.4024 20.3512 17.4873 20.0094C17.509 19.9245 17.8878 19.5892 17.9575 19.5C18.3755 19.4434 18.8239 19.7003 19.2092 19.8135Z" fill="#6C7E88"/>
<path d="M25.6316 28.4275V28.5843C25.6316 32.1828 25.7034 36.4779 25.3965 40.0155C25.3791 40.2071 25.4074 40.4095 25.3965 40.6033C25.3725 40.6729 25.2463 40.6316 25.2397 40.6425V40.4857C25.2397 36.7566 25.7796 32.3678 25.4749 28.741C25.4662 28.6343 25.5053 28.6365 25.4749 28.5059C25.4683 28.482 25.4792 28.4537 25.4749 28.4275C25.5249 28.421 25.5902 28.4384 25.6316 28.4275Z" fill="#FADCC2"/>
<path d="M38.7062 34.926C38.1881 35.0718 37.6112 35.4441 37.141 35.7097C36.9146 35.701 36.8645 35.7293 36.6708 35.7881L32.9917 32.9689C33.0853 32.884 33.2072 32.823 33.3052 32.7338C35.4691 30.7789 37.9704 28.972 40.0385 26.9387L38.7084 34.926H38.7062Z" fill="#AF3A25"/>
<path d="M43.0927 28.3493L42.936 29.5248C42.0042 28.9131 41.1356 27.3957 40.1952 26.7056C40.2082 26.6926 40.1821 26.6403 40.1952 26.6273C41.2183 25.6085 42.1566 24.5178 43.1711 23.4946L43.0927 28.3493Z" fill="#9F6A80"/>
<path d="M42.9359 29.5228C43.2472 29.7274 43.4236 29.7209 43.7196 29.8363C44.081 29.9778 44.4315 30.1498 44.8168 30.2281C44.8038 30.3283 44.8321 30.4415 44.8168 30.5416L42.703 34.1445C41.7604 34.262 41.5927 34.3382 40.7459 34.5363C40.1451 34.6757 39.1393 34.8063 38.7104 34.9282L40.0406 26.9409C40.1821 26.8016 40.1864 26.7167 40.1973 26.7058C41.1378 27.3959 42.0064 28.9132 42.9381 29.525L42.9359 29.5228Z" fill="#962920"/>
<path d="M40.9004 32.1851C41.1921 31.7192 41.3401 31.5146 41.6841 31.0879C41.4011 31.5168 41.2248 31.7758 40.9004 32.1851Z" fill="#AF3A25"/>
<path d="M41.6821 31.0879C41.8737 30.8005 42.0152 30.4762 42.2699 30.2258C42.2982 30.5807 41.8693 30.855 41.6821 31.0879Z" fill="#AF3A25"/>
<path d="M40.9003 32.1851C40.7871 32.3657 40.7065 32.7075 40.4692 32.812C40.4692 32.5356 40.7675 32.3527 40.9003 32.1851Z" fill="#AF3A25"/>
<path d="M25.475 17.2295C25.6861 17.273 26.3305 17.5865 26.5721 17.6997C27.0141 17.9087 27.6585 18.3049 28.1374 18.5618C28.6163 18.8187 29.1083 19.106 29.5459 19.4239C29.1235 19.4348 28.7121 19.4739 28.2941 19.5022C26.4546 19.622 23.8749 19.9137 22.1094 20.3643L25.4771 17.2317L25.475 17.2295Z" fill="#867C7E"/>
<path d="M25.4745 17.2294L22.1067 20.3621C22.0828 20.3686 22.0523 20.3556 22.0283 20.3621L21.4014 17.6213C21.4166 17.6148 21.5276 17.3992 21.5973 17.3862C21.7867 17.3513 22.283 17.5037 22.6161 17.4645C23.4499 17.3644 24.682 17.064 25.4745 17.2294Z" fill="#7B8A93"/>
<path d="M22.0284 20.3621C22.0044 20.3687 21.8891 20.4427 21.6365 20.5189C20.8332 20.2642 20.0169 20.0508 19.2092 19.8135C19.3224 19.5175 18.3754 19.4913 18.308 19.4217C18.2013 19.3237 18.3167 19.2562 18.3863 19.1866C18.5082 19.0668 21.0923 17.7411 21.4014 17.6213L22.0284 20.3621Z" fill="#ABBBCD"/>
<path d="M26.3346 39.3887V39.467C26.3193 39.946 25.6009 40.3814 25.4725 40.6818C25.4529 40.7297 25.6358 40.6883 25.6293 40.7993C25.6293 40.8189 25.4246 40.6818 25.5509 41.0736C25.9123 42.1991 27.164 43.6512 27.5863 44.8311C27.6516 44.8659 28.0479 44.4784 28.1349 44.4C28.0718 44.5415 27.828 44.929 27.7431 45.027C27.2511 45.5865 26.6045 46.011 26.0995 46.5922C26.0864 46.6075 25.9406 46.6249 25.786 46.8273C25.7816 46.8317 25.7577 46.8361 25.7076 46.9057C24.8564 46.4725 23.6134 44.916 22.8493 44.5568C22.5118 44.3979 22.5989 44.5459 22.3399 44.6351C22.0198 44.191 21.6977 43.7644 21.3994 43.305C22.0982 42.4865 24.7476 41.4024 25.2352 40.6426C25.2418 40.6317 25.368 40.6753 25.392 40.6034C25.4028 40.4097 25.3745 40.2094 25.392 40.0156C25.8818 40.3095 26.0821 39.6673 26.3324 39.3887H26.3346Z" fill="#F58C4A"/>
<path d="M24.3771 39.9373C24.6101 40.0984 24.8713 40.5012 25.2392 40.4859V40.6427C24.7516 41.4024 22.1 42.4844 21.4034 43.3051C21.3925 43.2877 21.2184 43.3465 21.1683 43.2659C21.0464 43.0744 21.0203 42.8022 20.9332 42.5998C20.8091 42.3102 20.7329 41.8857 20.6197 41.581C20.1691 40.364 19.0371 37.7038 18.8194 36.6088C18.7867 36.4433 18.8041 36.1756 18.8977 36.021C19.9688 37.1138 22.9861 38.9773 24.3793 39.9352L24.3771 39.9373Z" fill="#F9AD8B"/>
<path d="M25.7096 46.9058C25.6181 47.0299 25.2415 48.0704 25.1218 48.0813C24.9171 47.7526 24.6363 47.5001 24.3773 47.2192C23.6371 46.4203 22.9775 45.5169 22.3418 44.6352C22.6009 44.5459 22.5138 44.3979 22.8512 44.5568C23.6153 44.916 24.8562 46.4726 25.7096 46.9058Z" fill="#CF5A47"/>
<path d="M27.1966 48.8628C27.1291 48.8367 26.9746 48.8802 26.8831 48.8628C26.4477 48.6952 25.7533 48.5776 25.3963 48.3926C24.9587 48.164 24.6082 47.6524 24.3774 47.217C24.6365 47.4957 24.9152 47.7504 25.122 48.0791C25.2417 48.0682 25.6183 47.0298 25.7097 46.9036C25.7598 46.8339 25.7838 46.8295 25.7881 46.8252L27.1966 48.8607V48.8628Z" fill="#962920"/>
<path d="M28.0588 20.9106C27.7562 21.2851 26.8331 21.087 26.376 21.1458C25.6467 21.2394 23.3065 21.7858 22.5402 22.4759C22.4444 22.563 22.2398 22.7502 22.3443 22.9069C22.7143 22.5064 22.4313 23.2639 23.0104 23.4947C22.5119 22.7524 23.1367 22.3039 23.7941 22.0078C24.2339 21.8097 27.3447 21.1675 27.6299 21.3025C27.693 21.333 27.693 21.505 27.6299 21.5376C26.8527 21.4984 24.5539 22.0078 24.223 22.5956C23.8268 23.2988 25.786 23.8996 26.2976 24.0433C27.4579 24.3698 28.6509 24.409 29.8221 24.6703C29.759 24.3938 31.174 24.446 30.9585 24.7094C30.9128 24.766 29.6654 24.901 29.5108 24.9054C28.5638 24.9293 26.1518 24.7791 25.0872 24.6703C23.3348 24.4917 21.406 23.8212 19.8407 23.105C19.7058 22.9396 20.102 22.6196 20.1934 22.5564C21.4604 21.6639 24.9871 21.1675 26.6525 20.9912C27.1292 20.9411 27.5842 20.9346 28.061 20.9128L28.0588 20.9106Z" fill="#432919"/>
<path d="M28.2937 19.5L28.3329 20.2053L22.8513 20.4404C23.3303 20.7343 26.4564 20.3316 26.6088 20.4404C26.698 20.5036 26.6262 20.8606 26.6479 20.989C24.9826 21.1654 21.4559 21.6617 20.1889 22.5543C20.0996 22.6174 19.7013 22.9374 19.8362 23.1029C19.3573 22.883 18.2841 22.5695 17.9575 22.0841C19.2202 21.6312 20.3456 20.9085 21.6366 20.5188C21.8869 20.4426 22.0023 20.3686 22.0284 20.3621C22.0546 20.3555 22.0829 20.3686 22.1068 20.3621C23.8723 19.9114 26.4542 19.6219 28.2916 19.5H28.2937Z" fill="#2B1A10"/>
<path d="M43.5608 22.0057C43.2495 22.3779 42.8642 22.5477 42.4636 22.7894C42.37 22.7828 42.3635 22.6261 42.3069 22.5543C42.8272 22.5978 43.4432 22.1994 42.7379 21.7705C41.9564 21.296 39.5487 20.8497 38.6278 20.9085C38.6039 20.9019 38.5734 20.915 38.5494 20.9085C38.5407 20.9085 38.5777 20.7691 38.5102 20.7517C38.4558 20.7387 37.5894 20.78 37.4131 20.7517L37.7265 20.4382C37.1126 20.4339 36.4987 20.4426 35.887 20.4382L36.4748 19.968L34.792 19.6545C37.9268 19.9615 40.759 20.5449 43.5608 22.0035V22.0057Z" fill="#673213"/>
<path d="M29.5457 19.4216C31.2655 19.3737 33.0811 19.489 34.7922 19.6567L36.475 19.9702L35.8872 20.4404C34.4417 20.4295 32.4716 20.3533 31.0718 20.5187C30.9978 20.5275 31.0674 20.7408 30.9934 20.7539C30.6015 20.817 29.8897 20.5013 29.2714 20.5187C29.0603 20.5253 28.6815 20.6733 28.4093 20.5971C29.4652 20.9868 28.4747 20.891 28.0567 20.9106C27.5799 20.9324 27.1228 20.9389 26.6482 20.989C26.6264 20.8627 26.6983 20.5035 26.609 20.4404C26.4566 20.3315 23.3305 20.7343 22.8516 20.4404L28.3331 20.2053L28.294 19.4999C28.7141 19.4716 29.1256 19.4324 29.5457 19.4216Z" fill="#512B14"/>
<path d="M42.3092 22.5541C42.2177 22.4366 39.982 21.4395 39.6467 21.3024C39.3115 21.1652 38.9958 21.0193 38.6279 20.9105C39.5488 20.8517 41.9565 21.298 42.738 21.7726C43.4434 22.2014 42.8273 22.5976 42.307 22.5563L42.3092 22.5541Z" fill="#7F5331"/>
<path d="M35.889 20.4405C36.5007 20.4449 37.1168 20.4362 37.7285 20.4405L37.415 20.754C37.5892 20.7823 38.4556 20.7409 38.5122 20.754C38.5797 20.7714 38.5427 20.9086 38.5514 20.9107C38.1008 20.8911 38.5078 21.0435 38.5906 21.0675C38.9324 21.1654 39.2937 21.2591 39.6486 21.3026C39.9838 21.4397 42.2196 22.4368 42.311 22.5543C42.3676 22.6262 42.3741 22.7808 42.4677 22.7895C41.6623 23.2749 41.3727 23.3511 40.5106 23.6515C41.6209 22.9701 39.629 22.4259 39.1805 21.9687C39.555 22.1233 39.1784 21.3984 39.1413 21.381C38.2771 20.9913 35.791 21.2939 34.7569 21.0675L34.6002 21.3026C36.3309 21.6378 39.7335 21.6335 40.1993 23.7299C36.6727 24.8946 29.4691 25.3713 25.753 24.9055C25.5898 24.8859 25.2654 24.7248 25.0869 24.6704C26.1514 24.7792 28.5657 24.9294 29.5105 24.9055C29.6672 24.9011 30.9124 24.7661 30.9581 24.7095C31.1737 24.4461 29.7586 24.3939 29.8218 24.6704C28.6506 24.4113 27.4598 24.3721 26.2973 24.0434C25.7835 23.8997 23.8242 23.2989 24.2226 22.5957C24.5535 22.0079 26.8524 21.4985 27.6296 21.5377C27.6927 21.5051 27.6927 21.3331 27.6296 21.3026C27.3422 21.1676 24.2313 21.8098 23.7938 22.0079C23.1363 22.304 22.5115 22.7546 23.0101 23.4948C22.431 23.2662 22.714 22.5086 22.3439 22.907C22.2394 22.7503 22.444 22.5631 22.5398 22.476C23.3061 21.7837 25.6464 21.2395 26.3756 21.1459C26.8328 21.0871 27.758 21.2852 28.0584 20.9107C28.4764 20.8911 29.4669 20.9869 28.4111 20.5973C28.681 20.6735 29.0598 20.5254 29.2732 20.5189C29.8914 20.4993 30.6033 20.815 30.9952 20.754C31.0692 20.7431 30.9995 20.5276 31.0735 20.5189C32.4733 20.3534 34.4435 20.4296 35.889 20.4405Z" fill="#7F5331"/>
<path d="M40.5088 23.6514C40.3826 23.695 40.2759 23.7037 40.1953 23.7298C39.7295 21.6334 36.3269 21.6377 34.5962 21.3025L34.7529 21.0674C35.787 21.2938 38.2753 20.9912 39.1373 21.3809C39.1743 21.3961 39.551 22.1232 39.1765 21.9686C39.6271 22.428 41.6191 22.97 40.5066 23.6514H40.5088Z" fill="#966844"/>
<path d="M27.8234 21.9272V22.1624C27.6036 22.256 27.3772 22.293 27.1965 22.4758C26.6544 23.0223 27.0376 23.2944 27.5883 23.6122C27.4969 23.7668 26.7546 23.5665 26.5695 23.4947C24.5689 22.7197 27.24 22.1754 27.8213 21.9294L27.8234 21.9272Z" fill="#62402B"/>
<path d="M27.8238 21.9273C27.2404 22.1732 24.5715 22.7197 26.5721 23.4925C26.5155 23.7341 25.6512 23.388 25.5925 23.3357C24.2754 22.1624 27.4821 21.7291 28.1765 21.6138C28.3376 21.7879 27.9871 21.8576 27.8238 21.9273Z" fill="#432919"/>
<path d="M27.2755 22.5542C27.5672 22.2821 28.795 22.0404 29.2325 21.9272C29.0562 22.3561 28.4967 22.3104 28.1745 22.5542C27.9699 22.711 27.663 23.3989 27.5476 23.4163C27.3495 23.4468 26.8422 22.9569 27.2733 22.5542H27.2755Z" fill="#62402B"/>
<path d="M25.2789 22.1623C25.3442 22.1558 25.4422 22.1406 25.4748 22.2015C24.726 22.7741 25.1113 23.3379 25.8667 23.61C25.8667 23.8604 24.493 23.2225 24.4582 22.9831C24.4255 22.761 25.0917 22.1798 25.2811 22.1602L25.2789 22.1623Z" fill="#62402B"/>
<path d="M29.2322 21.9273C28.7947 22.0405 27.5669 22.2822 27.2751 22.5543L27.1968 22.4759C27.3775 22.2931 27.6017 22.2561 27.8237 22.1624C28.257 21.9796 30.6451 21.3417 30.9956 21.3787C31.1284 21.394 31.1763 21.4419 31.0739 21.5355C30.9999 21.603 29.5022 21.8577 29.2344 21.9273H29.2322Z" fill="#966844"/>
<path d="M38.5495 20.9106C38.5734 20.9171 38.6039 20.904 38.6279 20.9106C38.9936 21.0194 39.2984 21.1588 39.6467 21.3024C39.294 21.2589 38.9305 21.1653 38.5887 21.0673C38.506 21.0434 38.0989 20.891 38.5495 20.9106Z" fill="#966844"/>
<path d="M29.8201 22.7109C29.9747 23.0984 30.4906 23.0832 30.7998 23.2987C30.5799 23.4054 29.5763 23.0723 29.8201 22.7109Z" fill="#966844"/>
<path d="M25.0825 28.8174L18.5059 35.0805C18.5189 34.9346 18.5799 34.8737 18.6626 34.767C19.762 33.3672 23.5934 29.9254 25.0825 28.8152V28.8174Z" fill="#FDF0EA"/>
<path d="M25.4744 28.739L25.0825 28.8174C25.2153 28.7194 25.3285 28.5866 25.4744 28.5039C25.5048 28.6345 25.4657 28.6323 25.4744 28.739Z" fill="#F6956F"/>
<path d="M32.6779 32.812C32.7803 32.8164 32.8107 32.9623 32.913 32.9688C32.8325 33.0406 32.7585 33.2104 32.6779 33.2823C31.2825 34.5427 29.9633 35.8968 28.607 37.1964C27.7754 37.9932 27.1419 38.4917 26.3364 39.3886C26.0861 39.6673 25.8858 40.3095 25.396 40.0156C25.7029 36.4759 25.6311 32.1807 25.6311 28.5844C25.8314 28.543 25.9838 28.6453 26.1405 28.7411C28.3392 30.0821 30.4248 31.6474 32.6387 32.9688C32.7062 32.9405 32.6692 32.812 32.6779 32.812Z" fill="#F6956F"/>
<path d="M36.6705 35.788C36.1045 35.9622 34.0865 36.8199 33.6163 37.1181C33.0285 37.4926 32.6954 38.1282 32.2861 38.6834L32.678 33.2801C32.7585 33.2083 32.8325 33.0385 32.9131 32.9667C32.9283 32.9536 32.9762 32.9797 32.9915 32.9667L36.6705 35.7858V35.788Z" fill="#DC784F"/>
<path d="M25.4745 28.739C25.7793 32.368 25.2394 36.7568 25.2394 40.4837C24.8715 40.5011 24.6103 40.0962 24.3773 39.9351L18.6606 35.7075C18.5344 35.5333 18.5474 35.3243 18.5039 35.2372C18.5039 35.185 18.4995 35.1327 18.5039 35.0805L25.0805 28.8174L25.4723 28.739H25.4745Z" fill="url(#paint2_linear_289_3600)"/>
<path d="M18.5064 35.2394C18.5499 35.3265 18.5369 35.5355 18.6631 35.7096C18.735 35.8076 18.8155 35.9382 18.8982 36.0231C18.8046 36.1777 18.7872 36.4455 18.8199 36.6109C19.0376 37.7059 20.1696 40.3662 20.6202 41.5831C20.0172 40.8016 19.7451 39.8285 19.3685 38.9207C19.1595 38.4221 18.7502 36.8787 18.428 36.5717C17.6182 35.0152 17.3221 33.2214 17.0195 31.482C17.2742 31.2795 17.2808 31.5887 17.333 31.7563C17.7031 32.9449 17.9883 34.2228 18.5086 35.2416L18.5064 35.2394Z" fill="#FBB06E"/>
<path d="M32.2866 38.6832C32.0471 39.0098 31.4484 39.8523 31.2677 40.1701C30.5559 40.784 29.6198 40.2942 28.7621 40.562C27.7236 40.5837 26.6656 40.7056 25.6294 40.7971C25.6359 40.6861 25.4531 40.7274 25.4727 40.6795C25.6011 40.3813 26.3195 39.9437 26.3347 39.4648L28.6053 37.1942C29.9637 35.8946 31.2808 34.5405 32.6762 33.28L32.2844 38.6832H32.2866Z" fill="url(#paint3_linear_289_3600)"/>
<path d="M28.7617 40.5643C29.5215 40.5469 30.2769 40.5817 31.0323 40.6427C31.0018 40.7102 30.9822 40.8821 30.9539 40.9562C29.9199 41.9793 29.2232 43.4401 28.1348 44.4023C28.0477 44.4785 27.6515 44.8682 27.5862 44.8333C27.1638 43.6512 25.9099 42.2014 25.5507 41.0759C25.4244 40.684 25.6269 40.8212 25.6291 40.8016C26.6653 40.7102 27.7211 40.5904 28.7617 40.5665V40.5643Z" fill="#CF5A47"/>
<path d="M30.9564 40.9539C30.8998 41.1062 30.8453 41.2673 30.7996 41.4241C30.7017 41.7593 30.6233 42.0989 30.5645 42.4429C30.1182 43.0154 30.4665 43.8884 30.1727 44.5959C30.1639 44.6155 29.9179 44.7069 29.8592 44.831C29.537 45.5233 29.18 46.1895 28.762 46.8273C28.3309 46.4703 28.135 45.4689 27.7432 45.027C27.8281 44.9312 28.0719 44.5415 28.135 44.4C29.2235 43.4399 29.9201 41.977 30.9542 40.9539H30.9564Z" fill="#BB3834"/>
<path d="M27.7455 45.0271C28.1373 45.469 28.3333 46.4704 28.7643 46.8274C29.093 47.1017 29.9965 46.8035 30.5646 46.9058C30.569 46.9319 30.5603 46.9581 30.5646 46.9842C29.9486 47.0299 29.2171 47.1583 28.6076 47.1409C28.2767 47.1322 27.7041 47.1061 27.3928 47.0626C27.0815 47.019 26.8268 46.699 26.5699 46.9842C26.3022 46.8949 26.0061 46.9842 26.0997 46.5923C26.6048 46.0111 27.2513 45.5844 27.7433 45.0271H27.7455Z" fill="#DD6626"/>
<path d="M26.1016 46.5923C26.008 46.9841 26.3018 46.8949 26.5718 46.9841C27.153 47.1779 27.7865 47.2693 28.3721 47.4544C28.1871 47.8832 28.0804 48.5015 27.8235 48.9412C27.4121 48.9391 27.6407 49.0327 27.1966 48.8629L25.7881 46.8274C25.9427 46.6249 26.0885 46.6075 26.1016 46.5923Z" fill="#CF3F2D"/>
<path d="M28.607 37.1965L26.3364 39.4671V39.3887C27.1441 38.4918 27.7754 37.9933 28.607 37.1965Z" fill="#FADCC2"/>
<path d="M24.3773 39.9374C22.9841 38.9773 19.9668 37.116 18.8958 36.0232C18.813 35.9383 18.7325 35.8077 18.6606 35.7097L24.3773 39.9374Z" fill="#FDF0EA"/>
<path d="M30.878 47.8462C30.9564 48.114 31.0152 48.3643 31.1131 48.6299C30.0181 48.7889 28.9383 48.9499 27.8237 48.9434C28.0806 48.5037 28.1873 47.8854 28.3723 47.4566C28.381 47.4391 28.6183 47.2737 28.6074 47.1431C29.217 47.1605 29.9484 47.032 30.5645 46.9863C30.6146 47.228 30.7953 47.5676 30.878 47.8484V47.8462Z" fill="#962920"/>
<path d="M31.2674 40.1724C31.152 40.3792 31.1303 40.4227 31.0323 40.6426C30.2769 40.5816 29.5215 40.5468 28.7617 40.5642C29.6194 40.2964 30.5555 40.7863 31.2674 40.1724Z" fill="#FBB06E"/>
<path d="M30.5645 42.4429C30.5362 42.6083 30.4274 42.9087 30.4078 43.0698C30.2663 44.2715 30.3316 45.7192 30.5645 46.9056C29.9963 46.8033 29.0929 47.1016 28.7642 46.8273C29.1821 46.1894 29.537 45.5233 29.8613 44.831C29.9201 44.7069 30.1661 44.6155 30.1748 44.5959C30.4687 43.8884 30.1204 43.0154 30.5667 42.4429H30.5645Z" fill="#CF3F2D"/>
<path d="M28.6072 47.1408C28.6181 47.2714 28.3808 47.4368 28.3721 47.4542C27.7865 47.2692 27.153 47.1778 26.5718 46.984C26.8265 46.6988 27.0812 47.0188 27.3947 47.0624C27.7082 47.1059 28.2785 47.132 28.6094 47.1408H28.6072Z" fill="#E78C24"/>
<path d="M62.8247 47.4544C62.6897 48.1488 62.6418 48.4253 62.4328 49.098C61.4684 50.0667 61.0156 50.8896 59.8488 51.682C59.2436 52.0913 56.7596 53.5629 56.1697 53.7959C55.8693 53.9134 55.7125 53.7719 55.6211 53.7959C55.9476 53.5607 56.2502 53.3496 56.5615 53.0905C56.764 52.9207 57.0165 52.74 57.1885 52.5419C58.0854 52.4984 58.7058 51.6646 59.3023 51.1334C59.5766 50.8896 59.803 50.4825 60.1252 50.193C60.9525 49.4463 62.0693 49.135 62.5917 47.9224C62.6374 47.8157 62.7093 47.45 62.7485 47.2955C62.8464 47.2933 62.8399 47.3804 62.8268 47.4522L62.8247 47.4544Z" fill="#BE783A"/>
<path d="M62.3545 47.8462C62.3675 47.8462 62.4133 47.9877 62.5896 47.9246C62.0671 49.1372 60.9503 49.4485 60.1231 50.1952C59.8031 50.4847 59.5745 50.8896 59.3002 51.1356L58.0854 51.6842C58.1421 51.3642 58.4316 51.1204 58.5949 50.8221C59.0107 50.058 59.0586 49.8273 59.692 49.1785C59.8009 49.0675 60.9046 48.0378 60.983 48.003C61.0461 47.9768 62.2434 47.844 62.3523 47.8462H62.3545Z" fill="#791915"/>
<path d="M32.9134 49.96C32.7937 50.0624 33.1028 50.4237 33.1485 50.4694C34.1434 51.46 36.0918 52.5071 35.8893 54.1115H35.8109C35.1774 53.6674 34.6114 53.1689 33.9322 52.7814C33.5142 52.3416 32.9765 51.8301 32.6021 51.3729C32.3256 51.0355 32.0404 50.7394 31.8184 50.3541C31.5963 49.9687 31.2807 49.0914 31.113 48.6321C31.0151 48.3665 30.9585 48.1162 30.8779 47.8484C31.3438 47.9942 31.4418 48.6539 31.74 48.9848C32.0099 49.2852 32.5694 49.6662 32.9156 49.9644L32.9134 49.96Z" fill="#F1C751"/>
<path d="M62.4327 49.0979C62.3609 49.3265 62.2803 49.579 62.1976 49.8032C61.8928 50.637 61.8362 51.0027 61.2572 51.682C60.48 52.5963 59.3981 53.4061 58.438 54.1093C58.1006 54.3574 57.6935 54.6818 57.3408 54.893C57.8002 53.5302 59.0454 52.7987 59.8465 51.682C61.0134 50.8895 61.4662 50.0666 62.4306 49.0979H62.4327Z" fill="#9F4D23"/>
<path d="M54.8379 54.031C54.5767 54.5012 53.904 55.065 53.4686 55.3611C52.9744 55.6964 51.4549 56.565 50.9237 56.7696C49.7525 57.2224 47.4972 57.0591 46.1475 57.0047C47.4362 56.5432 48.8229 55.2153 50.0616 54.8125C51.013 54.5034 52.4084 54.462 53.4294 54.2639C53.8953 54.1725 54.3786 54.1268 54.8379 54.0288V54.031Z" fill="#9F4D23"/>
<path d="M44.1094 54.5795C46.0818 54.5991 48.0802 54.9082 50.0612 54.8146C48.8226 55.2173 47.4358 56.5453 46.1471 57.0068C46.0426 57.0025 45.9381 57.0112 45.8336 57.0068C45.8575 56.8849 45.7247 56.7477 45.6377 56.6933C44.6798 56.1121 43.3431 55.57 42.3091 55.0497C42.4419 54.9017 42.8403 54.6274 43.0144 54.5795C43.5325 54.438 43.6849 54.5751 44.1116 54.5795H44.1094Z" fill="#CF892B"/>
<path d="M55.6213 53.7958C55.7127 53.7718 55.8695 53.9133 56.1699 53.7958C56.3354 54.3552 56.2461 54.9452 56.5618 55.361C55.9653 55.6375 55.3078 55.7942 54.683 55.988C53.6425 56.308 52.5344 56.6171 51.472 56.85C51.287 56.8914 50.906 57.0786 50.9234 56.7717C51.4546 56.567 52.9741 55.6984 53.4683 55.3632C53.9037 55.0671 54.5764 54.5011 54.8376 54.033C55.1685 53.9634 55.3274 53.8785 55.6213 53.7979V53.7958Z" fill="#9F4D23"/>
<path d="M45.8336 57.0069C45.3612 56.9873 44.6428 56.8175 44.1117 56.7717C42.8555 56.6629 42.0327 56.8392 40.8223 56.4583L42.2308 55.0498C42.2525 55.0607 42.2874 55.0389 42.3091 55.0498C43.341 55.5722 44.6798 56.1121 45.6377 56.6934C45.7248 56.7456 45.8554 56.8849 45.8336 57.0069Z" fill="#BA6428"/>
<path d="M42.5441 52.3089C42.5768 52.3242 42.666 52.2937 42.7008 52.3089C42.9838 52.4287 43.1515 52.3024 43.6413 52.6224C44.1311 52.9424 43.5782 53.1514 44.5817 53.0143C44.5338 53.1775 44.4555 52.999 44.5034 53.171C44.597 53.5019 44.8778 53.5476 45.1695 53.5629C46.8001 53.6499 48.792 52.9577 50.4552 53.0143C50.4399 53.0448 50.4116 53.1688 50.3768 53.2494C50.3398 53.3343 50.0111 53.7675 50.0633 53.8372C52.643 53.6739 55.2401 53.1188 57.5412 51.9193L57.6196 52.076C57.4541 52.2153 57.3278 52.3851 57.1885 52.5462C57.0165 52.7443 56.764 52.925 56.5616 53.0948L52.8041 54.1136C51.9181 54.1681 50.8166 54.7667 49.789 54.5055L49.9458 53.8002C49.8848 53.7806 48.866 53.9525 48.694 53.9569C47.4074 53.9852 44.6906 54.1855 43.5651 53.9569C43.2908 53.9003 42.8989 53.6717 42.5463 53.565C42.2742 52.9381 41.4948 52.6768 40.981 52.3133C40.7699 52.1653 40.4695 51.8344 40.2365 51.6863C39.3266 51.1073 38.2337 50.7132 37.4565 50.0427C37.8397 50.1973 38.3077 50.2147 38.7475 50.4346C39.2808 50.7002 42.137 52.7204 42.3504 52.7051C42.4483 52.6986 42.6725 52.4483 42.5463 52.3133L42.5441 52.3089Z" fill="#CF892B"/>
<path d="M58.4382 50.82C58.4861 50.8113 58.5449 50.8243 58.595 50.82C58.4339 51.1182 58.1422 51.3598 58.0856 51.682L59.3003 51.1334C58.7038 51.6646 58.0834 52.4984 57.1865 52.5419C57.3258 52.3808 57.4521 52.211 57.6175 52.0717L57.5391 51.915C55.2381 53.1167 52.641 53.6696 50.0613 53.8329C50.009 53.7654 50.3378 53.33 50.3748 53.2451C51.1519 53.0318 51.9814 52.9991 52.7629 52.8532C53.1025 52.7901 55.1249 52.4636 55.3078 52.383C55.9325 52.7204 57.439 51.5514 57.8134 50.9745C58.0268 50.9266 58.2336 50.8591 58.4404 50.8178L58.4382 50.82Z" fill="#9F4D23"/>
<path d="M57.3435 54.8932C57.2521 54.9476 57.2695 54.9694 57.2652 54.9715C57.0061 55.1217 56.8407 55.2328 56.5598 55.3634C56.2442 54.9476 56.3334 54.3576 56.168 53.7982C56.7579 53.5652 59.244 52.0936 59.847 51.6843C59.0459 52.8011 57.8007 53.5326 57.3414 54.8953L57.3435 54.8932Z" fill="#903B1F"/>
<path d="M56.5594 53.0928C56.2481 53.3518 55.9455 53.563 55.619 53.7981C55.3273 53.8787 55.1683 53.9636 54.8353 54.0332C54.3737 54.1312 53.8905 54.1769 53.4268 54.2683C53.3528 54.2139 52.8325 54.1094 52.7998 54.1116L56.5572 53.0928H56.5594Z" fill="#D6A35E"/>
<path d="M42.5441 53.5607C42.8967 53.6674 43.2886 53.896 43.5629 53.9526C43.3909 54.5513 44.2639 54.2813 44.1115 54.5796C43.6848 54.5752 43.5324 54.4381 43.0143 54.5796L40.2735 53.9526C37.2976 52.5267 35.5647 52.2459 32.9132 49.96C32.567 49.6618 32.0097 49.2808 31.7376 48.9804C31.4416 48.6517 31.3414 47.9921 30.8755 47.844C30.7928 47.5632 30.6121 47.2236 30.5621 46.982C30.5577 46.9558 30.5664 46.9297 30.5621 46.9036C30.3291 45.715 30.2638 44.2695 30.4053 43.0678C30.6339 42.9589 30.6383 43.4292 30.6404 43.4988C30.6622 44.165 30.4489 45.7128 30.6404 46.318C30.6992 46.5009 31.287 46.9841 31.4241 47.1801C31.5765 47.3956 31.6484 48.0443 31.8552 48.1597C31.9118 48.1924 32.3102 48.1597 32.5605 48.3164C33.3137 48.7888 34.0626 49.5442 34.7135 50.156C34.7484 50.1886 34.8485 50.5478 34.9095 50.587C34.9639 50.6197 35.7955 50.7242 36.0066 50.8221C38.3316 51.9063 40.0014 52.7945 42.5441 53.5629V53.5607Z" fill="#F7E7AF"/>
<path d="M40.2734 53.9525C40.9396 54.2725 41.5774 54.721 42.2305 55.0497L40.822 56.4582C39.1588 55.9357 37.5413 54.7166 35.889 54.1092C36.0915 52.5048 34.1431 51.4599 33.1482 50.4672C33.1025 50.4215 32.7934 50.0601 32.9131 49.9578C35.5647 52.2436 37.2975 52.5244 40.2734 53.9503V53.9525Z" fill="url(#paint4_linear_289_3600)"/>
<path d="M52.8023 54.1092C52.8349 54.1092 53.3552 54.2115 53.4292 54.266C52.4082 54.4641 51.015 54.5054 50.0615 54.8146C48.0805 54.9082 46.0842 54.599 44.1097 54.5795C44.2642 54.2834 43.3891 54.5533 43.5611 53.9525C44.6866 54.1811 47.4034 53.9808 48.69 53.9525C48.862 53.9481 49.883 53.7762 49.9418 53.7957L49.785 54.5011C50.8125 54.7623 51.9141 54.1637 52.8001 54.1092H52.8023Z" fill="#EDCA83"/>
<path d="M43.0142 54.5794C42.8423 54.6273 42.4417 54.9015 42.3089 55.0496C42.2871 55.0387 42.2523 55.0605 42.2305 55.0496C41.5774 54.7209 40.9396 54.2724 40.2734 53.9524L43.0142 54.5794Z" fill="#F1C751"/>
<path d="M30.8777 41.5025C31.0388 42.8761 30.6382 44.4762 31.1912 45.9652C31.2216 46.0458 31.1824 46.1742 31.3479 46.2003C31.3762 46.3614 31.4916 46.3288 31.583 46.3571C31.5264 46.6662 31.6026 46.651 31.7398 46.8273C32.0946 47.2888 33.0263 47.6654 33.4617 48.0791C33.8253 48.4252 34.0669 48.976 34.4022 49.3308C35.1162 50.0884 35.1728 49.5376 36.0066 49.7227C36.0828 49.7401 36.0066 49.936 36.085 49.9578C37.9898 50.4737 39.2002 51.5949 40.9788 52.3067C41.4947 52.6703 42.2719 52.9337 42.544 53.5585C40.0013 52.7922 38.3316 51.9018 36.0066 50.8177C35.7954 50.7197 34.9638 50.6152 34.9094 50.5826C34.8485 50.5456 34.7483 50.1864 34.7135 50.1515C34.0626 49.5376 33.3137 48.7844 32.5605 48.312C32.3123 48.1553 31.9139 48.1879 31.8551 48.1553C31.6483 48.0399 31.5765 47.3933 31.4241 47.1756C31.2869 46.9819 30.6992 46.4986 30.6404 46.3135C30.4488 45.7084 30.6622 44.1605 30.6404 43.4944C30.6382 43.4247 30.6339 42.9545 30.4053 43.0633C30.4249 42.9044 30.5337 42.604 30.562 42.4364C30.6208 42.0924 30.6992 41.7528 30.7971 41.4176C30.8646 41.4089 30.869 41.4372 30.8755 41.4959L30.8777 41.5025Z" fill="#E4AE44"/>
<path d="M33.305 46.6706C33.5641 47.2497 33.9429 48.3643 34.4022 48.7845C34.7701 49.1219 34.7941 49.0022 35.3427 49.0979C36.9645 49.3831 38.5123 49.7162 40.0014 50.5064C40.6915 50.8722 41.3075 51.5993 42.076 51.9933C42.1783 52.0456 42.3503 52.2175 42.5462 52.3068C42.6725 52.4396 42.4483 52.6921 42.3503 52.6986C42.137 52.7139 39.283 50.6937 38.7474 50.4281C38.3055 50.2082 37.8396 50.1908 37.4565 50.0362C36.4616 49.6378 35.5887 48.8498 34.4022 49.3309C34.067 48.9739 33.8253 48.4231 33.4618 48.0791C33.8123 47.9703 32.9828 47.1365 32.874 47.0603C32.739 46.9667 31.8595 46.5313 31.7376 46.8252C31.6005 46.6489 31.5243 46.6641 31.5809 46.355C31.9444 46.466 32.8261 46.5683 33.3028 46.6685L33.305 46.6706Z" fill="#BE783A"/>
<path d="M57.1081 51.1333C57.095 51.5447 56.5138 51.4773 56.2852 51.6035C55.9782 51.7733 55.5276 52.2893 55.3056 52.3872C55.1227 52.4678 53.1003 52.7943 52.7607 52.8575C51.9792 53.0033 51.1497 53.036 50.3726 53.2493C50.4074 53.1709 50.4357 53.0447 50.4509 53.0142C50.5554 52.8074 50.6795 52.6049 50.7644 52.3872C51.5459 52.3916 52.5147 52.409 53.2701 52.2305C53.9841 52.0607 54.4805 51.5077 54.9529 51.3684C55.4253 51.2291 56.5072 51.2291 57.1059 51.1333H57.1081Z" fill="#791915"/>
<path d="M50.7668 52.3872C50.6819 52.6049 50.5578 52.8074 50.4533 53.0142C48.7901 52.9576 46.7982 53.6498 45.1676 53.5628C44.8759 53.5475 44.5951 53.5018 44.5015 53.1709C46.0754 53.1078 47.6472 53.1317 49.1602 52.6223L48.9642 52.2305C49.5477 52.2609 50.2029 52.385 50.7646 52.3872H50.7668Z" fill="#BA6428"/>
<path d="M37.4544 50.0383C38.2316 50.711 39.3245 51.1028 40.2344 51.6819C40.4674 51.8299 40.7678 52.1587 40.9789 52.3089C39.2004 51.597 37.99 50.4759 36.0851 49.9599C36.0068 49.9382 36.0851 49.7422 36.0068 49.7248C35.173 49.5419 35.1142 50.0927 34.4023 49.333C35.5888 48.8497 36.4596 49.6377 37.4566 50.0383H37.4544Z" fill="#D6A35E"/>
<path d="M48.964 52.2305L49.16 52.6224C47.647 53.1296 46.0752 53.1056 44.5013 53.1709C44.4534 52.999 44.5318 53.1775 44.5796 53.0142C44.7516 52.9903 44.8997 52.8988 45.0499 52.8575C45.2523 53.2667 45.7421 52.7551 46.0295 52.9358L48.1041 52.2305C48.3893 52.2479 48.681 52.2153 48.9662 52.2305H48.964Z" fill="#9F4D23"/>
<path d="M55.3076 52.3872C55.5275 52.2893 55.9803 51.7733 56.2872 51.6035C56.5158 51.4773 57.0971 51.5447 57.1101 51.1333C57.3518 51.0941 57.5782 51.0288 57.8155 50.9766C57.441 51.5535 55.9346 52.7225 55.3098 52.3851L55.3076 52.3872Z" fill="#9F4D23"/>
<path d="M33.4617 48.0812C33.0242 47.6654 32.0946 47.2888 31.7397 46.8294C31.8595 46.5355 32.739 46.9709 32.8761 47.0646C32.985 47.1386 33.8122 47.9723 33.4639 48.0834L33.4617 48.0812Z" fill="#CF892B"/>
<path d="M47.242 51.9956C47.4793 52.2438 47.7993 52.2111 48.1041 52.2307L46.0294 52.9361C45.7443 52.7554 45.2523 53.2669 45.0498 52.8577C45.7377 52.6726 46.578 52.2851 47.242 51.9956Z" fill="#903B1F"/>
<path d="M62.9817 44.9486C63.0362 45.4449 62.9578 45.9456 62.9034 46.4354C62.8707 46.7293 62.8207 47.0123 62.7466 47.2975C62.7075 47.4499 62.6356 47.8156 62.5899 47.9245C62.4136 47.9876 62.3678 47.8461 62.3548 47.8461C62.1001 47.5566 61.3468 47.0929 60.9463 46.9056C61.4296 46.3135 63.0122 45.5167 62.825 44.6743C62.8098 44.6089 62.7401 44.7831 62.5899 44.5567C62.6835 43.8557 62.0544 43.1547 62.2764 42.4429C62.4702 43.0328 62.9208 44.3913 62.9817 44.9486Z" fill="#481024"/>
<path d="M55.5429 36.0992C55.1271 36.1297 54.4544 36.4889 54.056 36.6478C52.9392 37.0898 51.6897 37.732 50.6099 38.3698H50.5315C50.3051 38.1347 48.6049 37.9758 48.5352 37.8996C48.4329 37.7886 48.544 37.5143 48.4961 37.4294C48.7464 37.3662 48.8422 36.0688 48.8095 35.9425C49.2123 35.7596 49.8719 36.3431 50.1788 36.3344C50.2855 36.3322 50.8211 36.0775 51.0017 36.0209C51.522 36.5912 52.0793 35.309 52.4102 35.1588C52.9153 34.9302 54.9203 35.8794 55.5429 36.0992Z" fill="#E1B5C2"/>
<path d="M49.3558 34.2205C49.0685 34.7082 48.805 35.2372 48.4937 35.7074C48.3283 35.629 45.8487 35.7923 45.6746 35.8641C45.3241 35.6073 45.6136 34.9694 45.5962 34.6886C45.7769 34.9759 47.3225 34.9803 47.3965 34.8845C46.8567 33.9528 46.5171 34.2053 45.5962 34.4535C45.5897 34.3795 45.385 33.9789 45.2827 33.9049C46.3429 33.9005 48.3218 34.042 49.3536 34.2184L49.3558 34.2205Z" fill="#D996A5"/>
<path d="M52.0965 35.0042C51.8527 35.3438 51.4434 35.4788 51.1169 35.7095C51.0472 35.7596 50.7076 35.9425 50.9993 36.023C50.8186 36.0796 50.2831 36.3321 50.1764 36.3365C49.8673 36.3452 49.2099 35.7639 48.8071 35.9446C48.7723 35.8075 48.609 35.7639 48.4937 35.7095C48.805 35.2393 49.0684 34.7081 49.3557 34.2227C50.0241 34.338 51.4434 34.7625 52.0965 35.0064V35.0042Z" fill="#E1B5C2"/>
<path d="M58.2033 37.4316L58.3601 38.6834C57.9813 38.5789 55.6149 37.7473 55.5409 37.547C55.4995 37.4316 55.5648 36.7786 55.6193 36.6458C55.6323 36.6131 55.9393 36.3257 55.9327 36.1755C56.723 36.2996 57.5306 36.968 58.2033 37.4273V37.4316Z" fill="#DAC1CE"/>
<path d="M44.9715 33.907C45.0216 34.0877 45.2371 33.8591 45.1283 34.1029C45.0891 34.19 43.772 35.3024 43.6806 35.3177C43.4411 35.3547 43.3127 35.0107 43.2887 35.0042C43.23 34.9889 43.2583 35.1631 43.2496 35.1609C43.1908 35.1478 42.8534 34.9302 42.6618 34.9258C42.4201 34.9193 42.0305 34.9127 41.8389 35.0825L40.7417 34.5339C41.5907 34.3358 41.7562 34.2596 42.6988 34.1421C43.0449 34.0986 43.6501 34.0028 43.9505 33.9854C44.2858 33.9658 44.6385 33.9135 44.9694 33.907H44.9715Z" fill="#B76477"/>
<path d="M45.285 33.907C45.3873 33.981 45.5898 34.3816 45.5985 34.4556C45.6072 34.5296 45.5941 34.6123 45.5985 34.6907C45.6159 34.9715 45.3263 35.6072 45.6768 35.8662C45.6659 35.8706 45.5963 35.962 45.5201 36.023C44.8235 35.7705 43.9331 36.0948 43.2495 35.9446C43.1429 35.9207 42.9382 35.6943 42.7793 35.6703C42.8773 35.6181 42.9556 35.4483 43.0144 35.396C43.0601 35.3547 43.3214 35.507 43.2495 35.1609C43.2582 35.1609 43.2299 34.9889 43.2887 35.0042C43.3127 35.0107 43.4411 35.3547 43.6806 35.3177C43.7742 35.3024 45.0912 34.19 45.1282 34.1029C45.2371 33.8591 45.0216 34.0877 44.9715 33.907C45.076 33.907 45.1805 33.907 45.285 33.907Z" fill="#C27593"/>
<path d="M59.5354 38.4483C59.7422 38.6028 59.9795 38.7291 60.1624 38.9185C60.047 38.8902 59.5158 38.9076 59.2219 38.8401C59.0369 38.7988 58.7104 38.814 58.5166 38.7618C58.362 38.7204 58.3686 38.6856 58.3599 38.6834L58.2031 37.4316C58.6646 37.7473 59.0891 38.113 59.5332 38.4505L59.5354 38.4483Z" fill="#9F6A80"/>
<path d="M55.5427 36.0992C55.7582 36.084 55.8148 36.158 55.9346 36.1776C55.9411 36.3256 55.6341 36.6152 55.6211 36.6478C55.2162 36.7066 54.0123 37.4511 54.0558 36.6478C54.4542 36.4911 55.1291 36.1297 55.5427 36.0992Z" fill="#240E0E"/>
<path d="M52.4102 35.1611C52.0793 35.3113 51.522 36.5936 51.0017 36.0232C50.71 35.9427 51.0496 35.7598 51.1193 35.7097C51.4437 35.4811 51.8551 35.344 52.0989 35.0044C52.2208 35.0501 52.2579 35.1916 52.4124 35.1611H52.4102Z" fill="#240E0E"/>
<path d="M60.1623 38.9185C60.3103 38.9555 60.4997 38.9794 60.5541 39.1536C60.5607 39.9895 60.6956 41.102 60.946 41.8944C60.8567 41.8813 60.8785 41.9531 60.8676 41.9727C60.4953 41.8552 60.0034 41.7289 59.6529 41.5809C59.4961 41.5156 59.5614 41.2935 59.4961 41.2674C59.4852 41.263 59.433 41.3675 59.3786 41.3458C59.3263 41.1498 59.3459 40.7602 59.3002 40.6013C59.2806 40.5338 59.1478 40.5708 59.1435 40.5621C59.1064 40.4772 59.261 40.4968 59.3002 40.4445C58.1812 40.2203 59.5745 39.6521 59.2218 38.8401C59.5157 38.9076 60.0447 38.8902 60.1623 38.9185Z" fill="#E2ABC5"/>
<path d="M62.2764 42.443C62.0544 43.1548 62.6835 43.8558 62.5899 44.5568C62.3287 44.1628 61.7844 43.6577 61.5711 43.305C61.4731 43.1418 61.0442 42.2079 60.9441 41.8966C60.6937 41.1041 60.5588 39.9939 60.5522 39.1558C61.3272 40.3422 61.8367 41.1085 62.2742 42.4452L62.2764 42.443Z" fill="#732A4F"/>
<path d="M62.5897 44.5569C62.7399 44.7833 62.8096 44.607 62.8248 44.6745C63.012 45.5169 61.4272 46.3159 60.9461 46.9059C60.6196 46.7535 59.3569 46.2462 59.0674 46.2005C59.2481 45.8936 59.6617 45.5975 59.7727 45.2601L61.5731 43.303C61.7864 43.6578 62.3306 44.1607 62.5919 44.5547L62.5897 44.5569Z" fill="#732A4F"/>
<path d="M60.9439 46.9059C61.3467 47.0931 62.0977 47.5546 62.3524 47.8463C62.2436 47.8441 61.0463 47.9769 60.9831 48.003C60.9026 48.0379 59.7989 49.0676 59.6922 49.1786C59.5637 48.8608 60.6827 47.5045 60.6326 47.4174L60.4367 47.3783C59.7618 48.0183 59.1588 49.0828 58.2837 49.257C58.5885 48.273 58.78 47.215 58.989 46.2027C59.0152 46.2049 59.0413 46.1984 59.0674 46.2027C59.3591 46.2462 60.6196 46.7557 60.9461 46.908L60.9439 46.9059Z" fill="#90463D"/>
<path d="M40.7435 34.5339L41.8407 35.0825C41.7427 35.1674 41.599 35.224 41.7231 35.396H43.0141C42.9553 35.4461 42.8769 35.6159 42.779 35.6703C42.9379 35.6943 43.1425 35.9207 43.2492 35.9446L42.1912 37.1202C43.0119 37.0984 43.8282 36.6695 44.6185 36.5716C44.9124 36.5346 44.8906 36.8002 44.932 36.8067C45.0756 36.8285 45.4436 36.0861 45.5197 36.023C45.5959 35.9598 45.6656 35.8706 45.6765 35.8662C45.8485 35.7944 48.3302 35.6311 48.4957 35.7095C48.3171 35.9794 48.119 36.2124 47.9471 36.4932C47.6858 36.9155 47.2591 37.2595 47.085 37.745C46.3753 37.6209 44.6359 38.4263 43.7956 38.2935C43.4995 38.2457 42.1085 37.2094 41.9952 37.2747L39.9598 39.7804C39.9859 39.0468 39.8096 39.0315 39.2545 38.6049C39.483 38.3719 41.7906 37.5011 41.7601 37.2355C40.5476 36.7 38.6275 35.7051 37.2974 35.7879C37.2995 35.6812 37.2168 35.7117 37.1406 35.7095C37.613 35.4439 38.1899 35.0716 38.7059 34.9258C39.1347 34.8061 40.1405 34.6754 40.7413 34.5339H40.7435Z" fill="#C27593"/>
<path d="M50.6096 38.3721C50.675 38.3895 50.7033 38.4591 50.7664 38.5288C51.3476 39.1754 51.9615 40.9735 52.5667 41.7398L49.1206 39.3909V39.3125L50.5291 38.3721H50.6075H50.6096Z" fill="#DDA097"/>
<path d="M48.4939 37.4315C48.5418 37.5164 48.4308 37.7907 48.5331 37.9017C48.6028 37.9779 50.3052 38.1368 50.5294 38.3719L49.1209 39.3123C48.6006 39.1708 47.4664 37.8124 47.0854 37.7471C47.2574 37.2617 47.6863 36.9177 47.9475 36.4954C48.2088 36.663 48.1761 37.1397 48.261 37.3183C48.3285 37.4619 48.4896 37.4249 48.4961 37.4358L48.4939 37.4315Z" fill="#E1B5C2"/>
<path d="M48.8074 35.9448C48.84 36.0732 48.7443 37.3685 48.4939 37.4317C48.4874 37.4208 48.3263 37.4578 48.2588 37.3141C48.1761 37.1356 48.2065 36.6589 47.9453 36.4912C48.1173 36.2104 48.3154 35.9775 48.4939 35.7075C48.6093 35.7619 48.7726 35.8055 48.8074 35.9426V35.9448Z" fill="#240E0E"/>
<path d="M45.5986 34.691C45.5942 34.6148 45.6073 34.5321 45.5986 34.4559C46.5194 34.2077 46.859 33.9552 47.3989 34.8869C47.3249 34.9827 45.7793 34.9783 45.5986 34.691Z" fill="#240E0E"/>
<path d="M43.2495 35.161C43.3213 35.5071 43.0601 35.3547 43.0144 35.3961H41.7234C41.5993 35.2263 41.743 35.1697 41.841 35.0826C42.0326 34.9128 42.4201 34.9193 42.6639 34.9259C42.8555 34.9302 43.1929 35.1479 43.2517 35.161H43.2495Z" fill="#240E0E"/>
<path d="M45.5205 36.0208C45.4443 36.0818 45.0764 36.8241 44.9327 36.8045C44.8913 36.798 44.9131 36.5346 44.6192 36.5694C43.829 36.6674 43.0126 37.0962 42.1919 37.118L43.2499 35.9424C43.9335 36.0926 44.8238 35.7683 45.5205 36.0208Z" fill="#CD88A7"/>
<path d="M59.2218 38.8401C59.5744 39.6521 58.1812 40.2224 59.3001 40.4445C59.2609 40.4967 59.1086 40.4771 59.1434 40.562C58.9213 40.475 58.671 40.3792 58.438 40.3269C58.5164 39.8676 57.8916 40.1854 57.8111 39.9743C57.7371 39.4387 58.1159 39.0687 58.5164 38.7595C58.7102 38.8118 59.0367 38.7965 59.2218 38.8379V38.8401Z" fill="#DAC1CE"/>
<path d="M61.5711 43.3051L59.7708 45.2622C59.8513 45.0205 59.4943 44.6395 59.3006 44.5568C59.2505 43.9473 58.8565 43.821 58.4385 43.4596C58.543 43.4183 58.5299 43.403 58.5168 43.3029C58.9152 43.1462 60.6916 42.2623 60.8658 41.9728C60.8767 41.9532 60.8549 41.8813 60.9442 41.8944C61.0421 42.2057 61.4732 43.1418 61.5711 43.3029V43.3051Z" fill="#CA8FB9"/>
<path d="M58.438 40.3292C58.6709 40.3815 58.9191 40.4751 59.1433 40.5644C59.1477 40.5731 59.2805 40.5339 59.3001 40.6035C59.3458 40.7603 59.3262 41.1521 59.3784 41.3481C59.3262 41.3263 59.1934 41.3698 59.1433 41.3481C59.0236 40.7233 58.3683 40.6101 57.9678 40.2509C58.0788 40.2422 58.3096 40.3009 58.438 40.3292Z" fill="#673213"/>
<path d="M59.3003 44.5567C59.4941 44.6394 59.8489 45.0204 59.7706 45.262C59.6595 45.5994 59.2481 45.8933 59.0652 46.2025C59.0391 46.1981 59.013 46.2046 58.9869 46.2025C58.9607 46.2003 58.9346 46.2046 58.9085 46.2025C58.7343 45.7235 57.8984 45.6408 58.2815 44.9877C58.2989 44.9572 59.0217 44.7482 58.7517 44.5567C58.9869 44.585 58.9738 44.4761 58.9869 44.4783C59.0696 44.4892 59.2329 44.5284 59.3003 44.5567Z" fill="#E2ABC5"/>
<path d="M58.9083 46.2005C58.9345 46.2027 58.9606 46.1983 58.9867 46.2005C58.7777 47.2106 58.5861 48.2686 58.2814 49.2548C58.1529 49.6684 57.9287 50.0842 57.8111 50.5065C57.2147 50.3498 54.2758 49.5835 53.897 49.5661L55.3838 48.8607C55.5819 48.9587 55.7888 49.0458 55.9716 49.1742C56.0674 49.1241 55.8932 48.7018 55.8541 48.6256C56.5899 47.8659 57.6109 47.4305 58.3989 46.7469C58.5753 46.5945 58.8169 46.477 58.7516 46.1983C58.8038 46.2005 58.8561 46.194 58.9083 46.1983V46.2005Z" fill="#A84C56"/>
<path d="M59.6924 49.1763C59.0589 49.8251 59.011 50.058 58.5952 50.8199C58.5452 50.8243 58.4864 50.8112 58.4385 50.8199C58.3296 50.7416 57.9051 50.5304 57.8115 50.5064C57.9269 50.0841 58.1533 49.6683 58.2817 49.2547C59.1569 49.0805 59.7599 48.016 60.4348 47.376L60.6307 47.4152C60.6829 47.5022 59.564 48.8585 59.6902 49.1763H59.6924Z" fill="#8B3C46"/>
<path d="M37.1407 35.7097C37.2169 35.7119 37.2996 35.6814 37.2975 35.7881C37.1908 35.7946 37.0232 35.7641 36.9448 35.7881C36.6182 35.8882 34.3803 37.9694 34.204 37.9803L33.6162 37.1182C34.0864 36.82 36.1045 35.9622 36.6705 35.7881C36.8642 35.7293 36.9143 35.701 37.1407 35.7097Z" fill="#DFF3FD"/>
<path d="M43.796 38.2938V38.3721C43.772 38.5006 43.5805 38.666 43.4825 38.764C42.4245 39.822 41.262 40.7646 40.2715 41.8966L41.9935 37.2771C42.1067 37.2118 43.4977 38.2481 43.7938 38.2959L43.796 38.2938Z" fill="#A84C56"/>
<path d="M47.0853 37.7452C46.8066 38.5267 46.8415 39.7611 46.4583 40.5644C45.5113 40.0985 44.7298 38.9904 43.7959 38.3722V38.2938C44.6362 38.4288 46.3756 37.6211 47.0853 37.7452Z" fill="#CF5A47"/>
<path d="M40.2738 41.8944C40.1366 42.0512 39.9168 42.2384 39.8819 42.443C39.797 42.3973 39.7295 42.3385 39.6468 42.2863C39.6185 41.4046 39.9342 40.5055 39.9603 39.7806L41.9958 37.2749L40.2738 41.8944Z" fill="#95486A"/>
<path d="M39.9605 39.7806C39.9344 40.5055 39.6187 41.4046 39.647 42.2862C39.6253 42.2732 39.5839 42.2688 39.4903 42.2079C39.7406 40.9278 39.499 41.0563 38.4715 40.6035C38.4562 40.5098 39.0875 38.9881 39.1768 38.8423C39.1986 38.8075 39.1245 38.74 39.2552 38.6072C39.8081 39.0317 39.9866 39.0469 39.9605 39.7827V39.7806Z" fill="#E0BAD8"/>
<path d="M46.4584 42.0512C47.1681 42.2231 51.3435 44.4502 51.6657 44.4001C51.8355 44.374 52.4233 43.4858 52.567 43.3029C52.6584 43.1875 52.8609 43.1113 52.8805 42.9111C52.9 42.9219 52.9719 42.9002 52.9588 42.9894C52.7868 43.5467 52.7585 44.178 52.4886 44.7114C52.2143 44.7353 51.546 44.8877 51.313 44.8681C50.7949 44.8246 49.885 44.2825 49.356 44.1628L47.3597 43.4575L43.7176 44.3195C43.0428 44.0975 42.8991 43.9603 42.3091 43.6926C42.2765 43.6773 42.185 43.7078 42.1524 43.6926C41.7039 43.4836 41.1967 43.3312 40.8223 42.9872C42.1938 43.2594 44.8779 41.84 46.4606 42.0468L46.4584 42.0512Z" fill="#791915"/>
<path d="M58.5165 43.3052C58.5296 43.4053 58.5427 43.4206 58.4382 43.4619C58.3707 43.488 58.3511 43.4401 58.2031 43.5403C56.6596 44.5961 57.8983 44.4568 58.7517 44.5591C59.0238 44.7485 58.2988 44.9597 58.2814 44.9901C57.8983 45.6432 58.7342 45.726 58.9084 46.2049C58.8583 46.2005 58.8039 46.2071 58.7517 46.2049C57.4085 46.1265 55.4405 46.3921 54.0538 46.5184C53.8753 46.5358 53.7055 46.5859 53.5835 46.5967L54.0538 46.3224C53.4203 45.2862 52.7955 45.8087 51.9399 45.3428C52.0902 45.4299 53.3571 45.4517 53.5835 45.4212C53.6946 45.4059 53.8992 45.308 54.0538 45.3036C53.971 45.1425 53.8339 45.025 53.7403 44.8726C53.7076 44.8203 53.6859 44.644 53.5835 44.5591C55.0182 44.3131 57.2321 43.8102 58.5165 43.3074V43.3052Z" fill="url(#paint5_linear_289_3600)"/>
<path d="M53.5054 41.4241C53.0113 41.1607 53.1484 42.3689 52.6434 41.816C52.6303 41.7703 52.6434 41.7267 52.565 41.7376C51.9576 40.9713 51.3437 39.1732 50.7646 38.5266L53.9757 39.5846C53.7819 40.1833 53.6687 40.8102 53.5054 41.4241Z" fill="#D6E3F4"/>
<path d="M53.7405 44.8704C53.3487 44.7898 52.6281 44.8551 52.2537 44.9488C52.1405 44.9771 51.8183 45.0533 51.7835 45.1447C51.8509 45.1708 51.9293 45.3341 51.9402 45.3406C52.7957 45.8065 53.4205 45.2818 54.054 46.3202L53.5838 46.5945C52.9002 46.6598 52.1818 46.9407 51.5483 46.9864C51.0781 46.588 51.298 45.5344 51.2349 44.9509C51.2828 44.9379 51.3219 44.9509 51.3132 44.8726C51.544 44.8922 52.2123 44.7419 52.4888 44.7158C52.9372 44.6745 53.1571 44.6331 53.586 44.5591C53.6883 44.6418 53.7101 44.8203 53.7427 44.8726L53.7405 44.8704Z" fill="#E1DAEC"/>
<path d="M52.6452 42.0511C52.876 42.1556 53.0654 42.2971 53.1938 42.5213C53.1611 42.6323 52.9935 42.8805 52.9587 42.9915C52.9718 42.9023 52.8999 42.9262 52.8803 42.9131C51.3434 41.9966 51.2824 41.9531 49.4342 41.6614C49.1272 41.6135 48.8007 41.6157 48.4937 41.583C48.3522 41.2935 47.9038 41.5351 48.0235 40.8777C49.5931 41.1411 51.1779 41.3827 52.643 42.0532L52.6452 42.0511Z" fill="#9F4D23"/>
<path d="M54.0536 36.6479C54.01 37.4512 55.216 36.7067 55.6188 36.6479C55.5644 36.7807 55.4991 37.4338 55.5404 37.5492C55.6123 37.7473 57.9808 38.5811 58.3596 38.6856C58.3683 38.6878 58.3596 38.7226 58.5163 38.764C58.1158 39.0709 57.737 39.441 57.811 39.9787C57.8915 40.1899 58.5163 39.8699 58.438 40.3314C58.3117 40.3031 58.0788 40.2443 57.9677 40.253C57.7479 40.2726 57.7196 40.401 57.5759 40.5273C57.5781 40.6775 58.9104 41.2479 59.1411 41.3502C59.1912 41.372 59.324 41.3284 59.3762 41.3502C59.4285 41.372 59.4807 41.2675 59.4938 41.2718C59.5591 41.2979 59.4938 41.52 59.6505 41.5853C60.001 41.7312 60.493 41.8596 60.8653 41.9772C60.6911 42.2689 58.9147 43.1527 58.5163 43.3073C57.2319 43.8102 55.0179 44.3152 53.5833 44.559C53.1545 44.633 52.9346 44.6744 52.4861 44.7158C52.7561 44.1824 52.7844 43.5489 52.9564 42.9938C52.9912 42.8828 53.1588 42.6346 53.1915 42.5236C53.3003 42.16 53.407 41.7943 53.505 41.4264C53.6682 40.8125 53.7793 40.1855 53.9752 39.5868L50.7642 38.5288C50.701 38.4592 50.6727 38.3895 50.6074 38.3721C51.685 37.7321 52.9368 37.0899 54.0536 36.6501V36.6479Z" fill="url(#paint6_linear_289_3600)"/>
<path d="M54.9941 41.9727C55.4643 42.3841 56.333 42.149 56.5594 42.8347C56.0761 42.9828 53.2721 42.4908 54.9941 41.9727Z" fill="#240E0E"/>
<path d="M56.5599 42.8349C56.3335 42.1491 55.4649 42.3864 54.9946 41.9728C55.1296 41.9314 56.5272 41.779 56.599 41.816C56.7318 41.8835 57.0519 42.6847 56.5599 42.8349Z" fill="#6A4A1D"/>
<path d="M54.3671 39.7805C54.6915 40.168 55.5383 40.2834 56.0107 40.4859C55.2466 41.041 52.9782 39.8828 54.3671 39.7805Z" fill="#240E0E"/>
<path d="M57.9702 40.2507C58.3708 40.6099 59.0239 40.7231 59.1458 41.3479C58.915 41.2456 57.5827 40.6752 57.5806 40.525C57.7242 40.4009 57.7525 40.2703 57.9724 40.2507H57.9702Z" fill="#170B0C"/>
<path d="M56.0108 40.4859C55.5384 40.2835 54.6916 40.1703 54.3672 39.7806C54.7547 39.7523 55.6647 40.1246 56.1284 40.0941L56.2067 40.2508C56.1066 40.3205 56.1109 40.4141 56.0108 40.4859Z" fill="#6A4A1D"/>
<path d="M53.5053 41.4241C53.4073 41.7898 53.3006 42.1577 53.1918 42.5213C53.0634 42.2992 52.874 42.1556 52.6432 42.0511C52.6323 41.977 52.6606 41.8769 52.6432 41.8159C53.1483 42.3689 53.0111 41.1607 53.5053 41.4241Z" fill="#DAC1CE"/>
<path d="M52.5668 41.7376C52.6452 41.7267 52.6321 41.7703 52.6452 41.816C52.6626 41.8769 52.6343 41.9771 52.6452 42.0511C51.1801 41.3806 49.5953 41.1411 48.0257 40.8755C47.5707 40.7993 47.0635 40.8625 46.6172 40.7188C47.4662 40.3248 48.2717 39.7827 49.1229 39.3887L52.569 41.7376H52.5668Z" fill="#D77B36"/>
<path d="M49.1208 39.3103V39.3887C48.2696 39.7827 47.4641 40.3248 46.6151 40.7188C46.3648 40.6383 46.4823 40.573 46.4584 40.5621C46.8415 39.7588 46.8067 38.5266 47.0853 37.7429C47.4663 37.8104 48.6027 39.1667 49.1208 39.3082V39.3103Z" fill="#F6956F"/>
<path d="M58.4382 43.4597C58.8562 43.8211 59.2502 43.9452 59.3003 44.5569C59.2328 44.5286 59.0696 44.4894 58.9868 44.4785C58.8497 44.004 57.9354 44.1368 58.2031 43.5381C58.3512 43.4379 58.3686 43.488 58.4382 43.4597Z" fill="#6A4A1D"/>
<path d="M46.1449 49.6465C46.1035 49.9077 46.3626 49.7009 46.38 49.9208C46.3952 50.0993 44.7516 52.4156 44.5796 53.0142C43.5782 53.1514 44.1246 52.9402 43.6392 52.6224C43.6522 52.5418 43.6087 52.4439 43.5608 52.3873C42.714 51.2944 43.2887 51.1007 43.4041 50.0383C43.7415 50.0732 45.7073 49.7423 46.1449 49.6465Z" fill="#E0BAD8"/>
<path d="M43.4063 50.0384C43.291 51.1008 42.7162 51.2945 43.5631 52.3874C43.3671 52.161 43.1103 51.9607 42.9753 51.682L42.701 52.309C42.6662 52.2938 42.5769 52.3242 42.5443 52.309C42.3483 52.2197 42.1764 52.0478 42.074 51.9955C42.3309 52.0761 42.4202 52.0042 42.3091 51.7212C42.2395 51.5427 40.1888 48.7475 40.0386 48.6278C41.0182 48.4928 42.5247 49.9426 43.4063 50.0363V50.0384Z" fill="#E8EAF6"/>
<path d="M43.5608 52.3875C43.6087 52.4441 43.6522 52.542 43.6392 52.6226C43.1494 52.3026 42.9817 52.431 42.6987 52.3091L42.973 51.6821C43.108 51.9608 43.3649 52.1611 43.5608 52.3875Z" fill="#6E1815"/>
<path d="M53.8972 49.5681C54.276 49.5856 57.2149 50.3497 57.8114 50.5086C57.9029 50.5325 58.3295 50.7437 58.4384 50.8221C58.2316 50.8613 58.0269 50.9309 57.8114 50.9788C57.5763 51.0311 57.3477 51.0964 57.1061 51.1356C56.5074 51.2313 55.4429 51.227 54.9531 51.3707C54.4633 51.5143 53.9843 52.0629 53.2703 52.2327C53.3116 52.0716 53.1941 52.0847 53.1919 52.076C53.0765 51.6994 52.4104 50.1276 52.4082 49.9622C52.4082 49.9404 52.541 49.6182 52.5649 49.5703C52.5976 49.505 52.7347 49.32 52.8001 49.2568C52.7783 49.3417 52.6433 49.862 52.6825 49.8838C53.0569 49.8838 53.5533 49.5551 53.8972 49.5703V49.5681Z" fill="#90463D"/>
<path d="M58.9871 44.4783C58.974 44.4783 58.9871 44.585 58.752 44.5567C57.8986 44.4565 56.6599 44.5937 58.2034 43.5378C57.9356 44.1365 58.8477 44.0037 58.9871 44.4783Z" fill="#240E0E"/>
<path d="M58.7516 46.2004C58.8169 46.479 58.5752 46.5944 58.3989 46.749C57.6109 47.4325 56.5899 47.8701 55.854 48.6277C55.6516 48.2271 55.0769 47.6263 54.6785 47.3759C54.4804 47.2518 54.2627 47.1473 54.0907 46.9841C53.6335 47.4913 54.3498 48.1357 54.7569 48.4709C54.7677 48.7452 54.6393 48.5471 54.5609 48.4709C54.1342 48.0573 53.7859 47.807 53.6597 47.2192C53.7794 46.9754 53.9209 46.7511 54.0515 46.5138C55.4382 46.3876 57.4062 46.1242 58.7494 46.2004H58.7516Z" fill="#C27593"/>
<path d="M54.7595 48.471C54.7812 48.4884 54.8879 48.5298 54.9162 48.5494C55.0512 48.6473 55.2449 48.791 55.3864 48.8628L53.8996 49.5682C53.5556 49.5529 53.0614 49.8817 52.6848 49.8817C52.6456 49.8599 52.7806 49.3418 52.8024 49.2547C52.9482 48.6909 53.3967 47.7635 53.6645 47.2192C53.7885 47.807 54.139 48.0595 54.5657 48.471C54.6441 48.5472 54.7704 48.7453 54.7616 48.471H54.7595Z" fill="#C27593"/>
<path d="M55.854 48.6277C55.8932 48.7039 56.0673 49.1262 55.9716 49.1763C55.7887 49.0479 55.5819 48.9608 55.3838 48.8628C55.2423 48.7932 55.0485 48.6473 54.9136 48.5493C54.9484 47.9986 54.0384 47.5327 54.6784 47.3738C55.0747 47.6241 55.6515 48.225 55.854 48.6255V48.6277Z" fill="#240E0E"/>
<path d="M40.0387 48.6277C40.1889 48.7474 42.2396 51.5427 42.3092 51.7212C42.4203 52.0042 42.331 52.0738 42.0741 51.9955C41.3057 51.5993 40.6896 50.8743 39.9995 50.5086C38.5083 49.7184 36.9626 49.3853 35.3408 49.1001C35.0643 48.5994 36.3008 48.6669 36.5925 48.6299C37.6658 48.4927 38.7586 48.4209 39.8428 48.3948C39.9407 48.4666 39.9429 48.5537 40.0387 48.6299V48.6277Z" fill="#E3C1BD"/>
<path d="M36.5922 48.6278C36.3005 48.6648 35.0618 48.5973 35.3404 49.098C34.7918 49.0022 34.7679 49.122 34.4 48.7845C34.6873 48.7737 35.7932 47.1888 35.7301 47.1017C34.9508 46.8383 34.093 46.8362 33.3028 46.6707C32.826 46.5706 31.9444 46.4683 31.5808 46.3572C31.4894 46.3289 31.374 46.3616 31.3457 46.2005L34.2041 44.8704C35.003 46.1874 36.1089 47.3107 37.0232 48.4732L36.5922 48.63V48.6278Z" fill="#DAC1CE"/>
<path d="M54.0539 46.5139C53.9254 46.7512 53.7818 46.9754 53.662 47.2192C53.3964 47.7656 52.9458 48.6909 52.7999 49.2547C52.7346 49.3178 52.5975 49.5007 52.5648 49.5682C52.4211 49.6313 52.3428 49.8555 52.173 49.6074C52.0032 49.3592 51.4829 47.3041 51.2717 47.2192C49.7283 48.0008 50.4793 47.9006 50.8407 48.6669C50.9082 48.8106 50.6861 48.7758 50.6839 48.7845C50.5707 48.6125 50.4401 48.4601 50.2921 48.3142C50.0504 48.077 49.8066 47.8527 49.5084 47.6873C49.5236 47.1931 48.8379 47.3303 49.0382 46.9036C49.8284 46.9253 50.7884 47.0364 51.5438 46.9819C52.1773 46.9362 52.8979 46.6554 53.5793 46.5901C53.7012 46.5792 53.8688 46.5291 54.0495 46.5117L54.0539 46.5139Z" fill="#E2ABC5"/>
<path d="M38.6279 41.1892C37.9748 41.5941 39.1394 41.975 39.4899 42.208C39.5835 42.2689 39.6249 42.2733 39.6467 42.2863C39.6532 42.5106 39.8818 42.5933 39.8818 42.639C39.8818 42.7413 39.3484 43.0766 39.3332 43.1092C39.2352 43.3248 40.1757 45.4799 39.8426 45.4974C39.5748 45.0554 37.4 42.4692 37.3761 42.2472C37.3413 41.9424 37.8877 41.2784 38.1598 41.1892C38.2708 41.1521 38.4994 41.2196 38.63 41.1892H38.6279Z" fill="#D6E3F4"/>
<path d="M50.9213 45.027C50.4467 45.2208 48.8728 45.913 48.4548 45.8891C48.2458 45.876 45.8925 44.8833 45.3613 44.7135C47.2052 44.4218 49.1122 44.609 50.9213 45.027Z" fill="#734139"/>
<path d="M46.1452 41.3457C46.3476 41.5678 46.881 41.6135 46.6154 41.9727C46.6067 41.9727 46.6197 42.0946 46.4586 42.051C44.876 41.842 42.194 43.2614 40.8203 42.9915C40.6418 42.9567 40.6723 42.9153 40.6636 42.9131C41.0032 42.752 41.3406 42.3253 41.6824 42.2078C42.1504 42.0467 45.6445 41.3696 46.1452 41.3457Z" fill="#903B1F"/>
<path d="M39.1767 38.8399C39.0874 38.988 38.4561 40.5075 38.4714 40.6011C39.4967 41.0539 39.7405 40.9277 39.4902 42.2055C39.1397 41.9726 37.9772 41.5916 38.6281 41.1867C38.6978 41.1715 39.0134 41.0975 39.02 41.0692C38.7565 40.8841 38.4169 40.8384 38.1579 40.6381C38.012 40.5271 37.52 39.8544 37.3742 39.8544C37.0607 39.8544 36.8495 40.2049 37.1391 40.5597C36.7428 40.6185 36.7363 39.5148 36.7864 39.4626C36.8865 39.3624 38.9895 38.533 39.1745 38.8356L39.1767 38.8399Z" fill="#DECAE3"/>
<path d="M49.3558 44.1649C49.8848 44.2824 50.7948 44.8266 51.3129 44.8702C51.3216 44.9486 51.2825 44.9355 51.2346 44.9486C51.1475 44.9725 50.9973 44.9965 50.9211 45.0269C49.112 44.609 47.205 44.4217 45.3611 44.7134C45.2675 44.683 45.1783 44.6786 45.0476 44.6351C44.9693 44.3738 45.311 44.3564 45.4787 44.3216C46.8262 44.0473 48.0018 43.8623 49.3537 44.1649H49.3558Z" fill="#8E6155"/>
<path d="M41.7606 41.5025C41.1401 41.7485 40.8397 42.3668 40.2737 42.6781C40.0865 42.591 40.0212 42.517 39.8818 42.443C39.9167 42.2383 40.1365 42.0511 40.2737 41.8944C41.2642 40.7623 42.4267 39.8197 43.4847 38.7617L41.7627 41.5025H41.7606Z" fill="#6F182F"/>
<path d="M49.3559 44.1651C48.004 43.8625 46.8284 44.0475 45.4809 44.3218C45.3133 44.3566 44.9715 44.374 45.0499 44.6353C44.658 44.5068 44.1725 44.472 43.7197 44.3218L47.3618 43.4597L49.3581 44.1651H49.3559Z" fill="#5A161A"/>
<path d="M44.2662 41.189C43.6523 41.7724 42.0805 41.4415 41.6822 42.2078C41.3404 42.3253 41.0029 42.752 40.6633 42.9131C40.4065 42.8304 40.3564 42.7172 40.2715 42.678C40.8397 42.3689 41.1379 41.7484 41.7583 41.5024C42.455 41.226 43.5021 41.2652 44.264 41.189H44.2662Z" fill="#55100D"/>
<path d="M31.189 45.9653C30.636 44.4763 31.0366 42.8762 30.8755 41.5025C30.9691 41.4895 31.0039 41.1673 31.1106 41.4634C31.2695 41.8987 31.3631 44.977 31.3457 45.6126C31.3414 45.7563 31.4241 46.0001 31.189 45.9653Z" fill="#E1DAEC"/>
<path d="M38.1601 40.6426C38.417 40.8407 38.7566 40.8886 39.0222 41.0736C39.0157 41.1019 38.7 41.1759 38.6303 41.1912C38.4997 41.2217 38.2711 41.1542 38.1601 41.1912C37.8183 40.9974 37.4025 40.8842 37.1413 40.5642C36.8518 40.2094 37.0629 39.8611 37.3764 39.8589C36.9889 40.3683 37.6485 40.7514 38.1601 40.6426Z" fill="#240E0E"/>
<path d="M37.2975 35.7879C38.6276 35.7074 40.5499 36.7001 41.7603 37.2356C41.7908 37.5034 39.4832 38.3742 39.2546 38.6049C39.124 38.7377 39.198 38.8052 39.1762 38.84C38.9912 38.5353 36.8882 39.3669 36.7881 39.467C36.7358 39.5171 36.7446 40.6208 37.1408 40.5642C37.402 40.882 37.8178 40.9974 38.1596 41.1912C37.8875 41.2804 37.341 41.9422 37.3759 42.2492C37.3998 42.4712 39.5746 45.0574 39.8424 45.4994C40.1755 45.4819 39.235 43.3268 39.333 43.1112C39.3482 43.0786 39.8816 42.7433 39.8816 42.641C39.8816 42.5953 39.653 42.5126 39.6464 42.2883C39.727 42.3406 39.7967 42.3994 39.8816 42.4451C40.0209 42.5191 40.0862 42.5931 40.2734 42.6802C40.3561 42.7194 40.4084 42.8326 40.6653 42.9153C40.674 42.9175 40.6435 42.9588 40.822 42.9937C41.1964 43.3376 41.7037 43.4879 42.1521 43.699C42.028 44.2367 42.6376 46.1067 43.2493 45.1467L42.3089 43.699C42.8988 43.9668 43.0425 44.1018 43.7174 44.326C44.1723 44.4762 44.6556 44.511 45.0475 44.6395C45.1781 44.683 45.2652 44.6874 45.361 44.7178C45.89 44.8855 48.2433 45.8803 48.4544 45.8934C48.8724 45.9195 50.4464 45.2251 50.9209 45.0313C50.9971 45.0008 51.1473 44.9769 51.2344 44.9529C51.2975 45.5364 51.0777 46.5922 51.5479 46.9884C50.7925 47.0428 49.8325 46.9318 49.0422 46.91C47.2462 46.8621 45.4524 46.7054 43.6782 46.4398C43.5149 46.516 43.4561 49.5703 43.4039 50.0427C42.5222 49.9491 41.0179 48.497 40.0361 48.6342C39.9403 48.558 39.9382 48.4709 39.8402 48.3991C38.7561 48.4252 37.6654 48.497 36.59 48.6342L37.021 48.4774C36.1089 47.3149 35.0008 46.1938 34.2019 44.8746L31.3435 46.2047C31.1802 46.1808 31.2173 46.0501 31.1868 45.9696C31.4219 46.0044 31.3392 45.7606 31.3435 45.6169C31.3609 44.9791 31.2673 41.903 31.1084 41.4676C31.0017 41.1716 30.9669 41.4938 30.8733 41.5068C30.8668 41.448 30.8624 41.4197 30.7949 41.4284C30.8406 41.2739 30.8951 41.1106 30.9517 40.9582C30.98 40.8842 30.9996 40.7122 31.03 40.6447C31.1258 40.4249 31.1498 40.3813 31.2651 40.1745C31.4458 39.8545 32.0423 39.012 32.284 38.6877C32.6932 38.1303 33.0263 37.4947 33.6141 37.1224L34.2019 37.9845C34.376 37.9736 36.6161 35.8924 36.9427 35.7923C37.021 35.7683 37.1887 35.7988 37.2953 35.7923L37.2975 35.7879Z" fill="#F8F9FA"/>
<path d="M40.1558 45.887L41.8386 46.318L40.1558 47.4544V45.887Z" fill="#DFF3FD"/>
<path d="M42.1132 46.2789C42.307 46.2528 42.7206 46.7034 42.5834 46.9059C41.8694 47.1519 41.1401 47.7919 40.3521 47.6504C40.5284 47.4414 42.0022 46.2963 42.1132 46.2811V46.2789Z" fill="#170B0C"/>
<path d="M37.9246 47.2976C37.8549 47.9137 37.363 48.7671 37.0625 47.9638C36.8078 47.2781 37.0691 46.5814 37.6111 46.1243L37.4544 47.339L37.9246 47.2998V47.2976Z" fill="#240E0E"/>
<path d="M35.654 43.9299C35.0793 43.4335 35.654 43.3225 36.0459 43.0678C36.3833 42.8479 37.0168 42.4016 37.2214 42.8719C36.8383 43.242 36.1787 43.8123 35.6562 43.9299H35.654Z" fill="#240E0E"/>
<path d="M42.3091 43.6946L43.2496 45.1423C42.64 46.1023 42.0305 44.2323 42.1524 43.6946C42.1851 43.7098 42.2765 43.6793 42.3091 43.6946Z" fill="#240E0E"/>
<path d="M34.0475 38.9186C34.2348 38.8642 35.6324 39.0514 35.652 39.1929C35.7477 39.8721 32.811 39.2843 34.0475 38.9186Z" fill="#240E0E"/>
<path d="M36.0462 43.0699C35.6543 43.3246 35.0796 43.4334 35.6543 43.9319C35.6391 43.9363 35.5259 44.1017 35.3408 43.9711C35.2516 43.4138 34.7726 43.0829 35.3016 42.3667C36.0375 42.3994 35.4649 42.924 36.0462 43.072V43.0699Z" fill="#D6E3F4"/>
<path d="M39.8425 43.07C40.5021 42.9372 40.439 44.1737 40.2343 44.2456C39.7859 44.398 39.2634 43.1876 39.8425 43.07Z" fill="#240E0E"/>
<path d="M38.1595 37.2749C38.1464 37.7147 38.8975 37.9585 39.0999 38.3721C39.0869 38.3874 39.1304 38.518 39.0607 38.5289C38.756 38.5746 36.5747 36.8025 38.1595 37.2771V37.2749Z" fill="#240E0E"/>
<path d="M35.027 41.6592C34.842 41.226 34.1497 41.9792 33.8906 41.8943L33.9298 41.6592C34.2063 41.3479 34.4653 41.017 34.8311 40.7971C34.9639 41.0954 35.1794 41.3414 35.027 41.6592Z" fill="#6A4A1D"/>
<path d="M35.0273 41.6592C34.8292 42.0685 33.8953 42.1817 33.5012 42.2862L33.4229 42.1294C33.4403 42.0424 33.8517 41.7507 33.9323 41.6592L33.8931 41.8943C34.15 41.9792 34.8422 41.226 35.0295 41.6592H35.0273Z" fill="#240E0E"/>
<path d="M39.0983 38.3721C38.8959 37.9606 38.1448 37.7146 38.1579 37.2749C38.6281 37.4142 39.5686 37.8474 39.0983 38.3721Z" fill="#512B14"/>
<path d="M37.9243 47.2976L37.4541 47.3368L37.6108 46.1221C37.6239 46.1112 37.5782 45.9958 37.65 45.9653C37.9287 46.3724 37.9809 46.7991 37.9243 47.2955V47.2976Z" fill="#6A4A1D"/>
<path d="M46.4586 40.5643C46.4826 40.5752 46.3628 40.6405 46.6154 40.721C45.3244 41.3219 45.614 41.0563 44.2664 41.1912C43.5045 41.2674 42.4574 41.2282 41.7607 41.5047L43.4827 38.7639C43.5807 38.666 43.7723 38.5005 43.7962 38.3721C44.7301 38.9903 45.5116 40.0984 46.4586 40.5643Z" fill="#962920"/>
<path d="M49.5128 42.3646C50.5621 42.591 51.5765 42.8936 52.567 43.3051C52.4234 43.4857 51.8378 44.3761 51.6658 44.4022C51.3436 44.4501 47.1704 42.2253 46.4585 42.0533C46.6196 42.0968 46.6065 41.9771 46.6152 41.9749C47.3075 41.8313 48.7791 42.2079 49.5128 42.3668V42.3646Z" fill="#9F4D23"/>
<path d="M52.8804 42.9131C52.8608 43.1134 52.6584 43.1896 52.5669 43.305C51.5764 42.8957 50.5619 42.5909 49.5127 42.3645C49.2971 42.0619 49.3755 42.0031 49.4343 41.6592C51.2825 41.9509 51.3413 41.9966 52.8804 42.9109V42.9131Z" fill="#CF892B"/>
<path d="M53.584 45.419C53.3576 45.4516 52.0906 45.4277 51.9404 45.3406C51.9295 45.3341 51.8512 45.1708 51.7837 45.1447C51.8185 45.0532 52.1385 44.977 52.2539 44.9487C52.6458 45.3406 53.4229 44.7136 53.584 45.419Z" fill="#240E0E"/>
<path d="M53.7403 44.8704C53.8339 45.0206 53.971 45.1403 54.0538 45.3014C53.8992 45.3058 53.6946 45.4037 53.5835 45.419C53.4224 44.7136 52.6431 45.3428 52.2534 44.9487C52.63 44.8551 53.3484 44.7898 53.7403 44.8704Z" fill="#6A4A1D"/>
<path d="M48.0261 40.8755C47.9042 41.5329 48.3548 41.2913 48.4963 41.5808C47.7583 41.5003 46.8875 41.3131 46.1473 41.3457C45.6445 41.3675 42.1526 42.0467 41.6846 42.2078C42.083 41.4437 43.6525 41.7724 44.2686 41.189C45.6162 41.054 45.3266 41.3196 46.6176 40.7188C47.066 40.8624 47.5733 40.7993 48.0261 40.8755Z" fill="#791915"/>
<path d="M48.494 41.5807C48.8009 41.6133 49.1275 41.6112 49.4344 41.6591C49.3756 42.003 49.2973 42.0618 49.5128 42.3644C48.7791 42.2055 47.3075 41.8289 46.6152 41.9725C46.883 41.6155 46.3497 41.5676 46.145 41.3456C46.8852 41.3129 47.756 41.5001 48.494 41.5807Z" fill="#BE783A"/>
<path d="M46.7718 49.5681C47.2986 50.2626 48.6091 50.2669 49.1207 50.9766C48.4676 51.2444 47.882 51.7168 47.242 51.9954C46.602 52.2741 45.7377 52.6703 45.0498 52.8575C44.8996 52.8989 44.7516 52.9903 44.5796 53.0142C44.7516 52.4156 46.3952 50.0993 46.3799 49.9208C46.3625 49.7009 46.1035 49.9077 46.1448 49.6465C46.3277 49.6073 46.5301 49.6334 46.7718 49.5681Z" fill="#D08D8C"/>
<path d="M34.4004 48.7845C33.9411 48.3622 33.5645 47.2475 33.3032 46.6707C34.0935 46.8339 34.9512 46.8361 35.7305 47.1017C35.7937 47.1909 34.6878 48.7736 34.4004 48.7845Z" fill="#FABAA6"/>
<path d="M49.5911 50.8198L53.194 52.0716C53.194 52.0716 53.3137 52.0672 53.2724 52.2283C52.517 52.4068 51.5482 52.3894 50.7667 52.385C50.205 52.3829 49.5498 52.2588 48.9663 52.2283C48.6812 52.2131 48.3894 52.2457 48.1043 52.2283C47.7995 52.2087 47.4817 52.2414 47.2422 51.9932C47.8822 51.7145 48.47 51.2421 49.1209 50.9744C49.2167 50.9352 49.3582 50.8481 49.4344 50.8176C49.4714 50.8024 49.5541 50.8307 49.5911 50.8176V50.8198Z" fill="#72265D"/>
<path d="M52.5667 49.5682C52.5428 49.6161 52.41 49.9383 52.41 49.9601C51.4848 50.2822 50.5073 50.4738 49.5908 50.8221C49.5538 50.8352 49.4711 50.8069 49.4341 50.8221C49.4754 50.1255 49.4014 49.2591 49.7476 48.6299C49.9653 48.6974 50.3571 48.9173 50.4921 48.9434C50.5813 48.9608 51.0429 48.9434 50.688 48.865C50.6924 48.8389 50.6837 48.8106 50.688 48.7867C50.688 48.778 50.9122 48.8128 50.8448 48.6691C50.4812 47.9028 49.7323 48.003 51.2758 47.2214C51.4848 47.3063 52.0116 49.3679 52.1771 49.6096C52.3425 49.8512 52.4252 49.6335 52.5689 49.5704L52.5667 49.5682Z" fill="#E0BAD8"/>
<path d="M53.1942 52.0738L49.5913 50.822C50.5056 50.4737 51.4853 50.2843 52.4105 49.96C52.4105 50.1254 53.0788 51.6972 53.1942 52.0738Z" fill="#C16E71"/>
<path d="M54.6809 47.376C54.0408 47.5327 54.9508 48.0008 54.916 48.5516C54.8877 48.532 54.781 48.4906 54.7592 48.4732C54.3521 48.1358 53.6359 47.4936 54.0931 46.9863C54.2651 47.1474 54.4828 47.2519 54.6809 47.3782V47.376Z" fill="#240E0E"/>
<path d="M49.7479 48.6276C49.4017 49.2567 49.4758 50.1232 49.4344 50.8198C49.3582 50.8481 49.2167 50.9373 49.1209 50.9765C48.6093 50.2668 47.2988 50.2625 46.772 49.568C47.2814 49.4287 49.0665 48.4077 49.3952 48.3925C49.5345 48.3859 49.7283 48.621 49.7479 48.6276Z" fill="#E1B5C2"/>
<path d="M50.2963 48.3142C50.4444 48.4601 50.575 48.6125 50.6882 48.7845C50.6838 48.8084 50.6925 48.8367 50.6882 48.8628L48.3784 47.9224C48.3131 47.8026 48.7703 47.4826 48.8878 47.4521C49.0903 47.9441 49.8043 48.3469 50.2963 48.3142Z" fill="#240E0E"/>
<path d="M49.5125 47.6894C49.8086 47.8527 50.0545 48.0769 50.2962 48.3164C49.8042 48.349 49.0902 47.9463 48.8877 47.4543C49.1881 47.3781 49.2948 47.5675 49.5147 47.6894H49.5125Z" fill="#6A4A1D"/>
<path d="M49.0424 46.9058C48.8421 47.3303 49.5278 47.1931 49.5126 47.6895C49.2927 47.5676 49.1882 47.3782 48.8856 47.4544C48.7681 47.4849 48.3109 47.8049 48.3762 47.9246L50.686 48.8651C51.0408 48.9456 50.5793 48.9608 50.49 48.9434C50.3572 48.9173 49.9654 48.6974 49.7455 48.6299C49.7259 48.6234 49.5322 48.3905 49.3929 48.3948C49.0641 48.4079 47.2812 49.4311 46.7696 49.5704C46.528 49.6357 46.3255 49.6096 46.1426 49.6488C45.7073 49.7445 43.7415 50.0754 43.4019 50.0406C43.4541 49.5682 43.5129 46.5139 43.6762 46.4377C45.4504 46.7033 47.2442 46.8601 49.0402 46.908L49.0424 46.9058Z" fill="#E1DAEC"/>
<path d="M45.5986 47.7678C45.5377 47.8418 45.2743 48.336 45.246 48.4732L46.2256 48.1597C46.2975 48.6016 44.9281 48.7845 44.6212 49.0218C43.9877 48.5254 45.2264 48.0051 45.6008 47.77L45.5986 47.7678Z" fill="#240E0E"/>
<path d="M46.2233 48.1598L45.2437 48.4733C45.272 48.3383 45.5354 47.842 45.5963 47.7679C45.8924 47.4087 46.1623 47.7854 46.2233 48.1598Z" fill="#5C3D17"/>
<path d="M38.1596 40.6426C37.6481 40.7536 36.9884 40.3705 37.3759 39.8589C37.5218 39.8589 38.0138 40.5294 38.1596 40.6426Z" fill="#5C3D17"/>
</g>
<defs>
<filter id="filter0_i_289_3600" x="0" y="0" width="70" height="70" filterUnits="userSpaceOnUse" color-interpolation-filters="sRGB">
<feFlood flood-opacity="0" result="BackgroundImageFix"/>
<feBlend mode="normal" in="SourceGraphic" in2="BackgroundImageFix" result="shape"/>
<feColorMatrix in="SourceAlpha" type="matrix" values="0 0 0 0 0 0 0 0 0 0 0 0 0 0 0 0 0 0 127 0" result="hardAlpha"/>
<feMorphology radius="3" operator="erode" in="SourceAlpha" result="effect1_innerShadow_289_3600"/>
<feOffset/>
<feGaussianBlur stdDeviation="1"/>
<feComposite in2="hardAlpha" operator="arithmetic" k2="-1" k3="1"/>
<feColorMatrix type="matrix" values="0 0 0 0 0 0 0 0 0 0 0 0 0 0 0 0 0 0 0.08 0"/>
<feBlend mode="normal" in2="shape" result="effect1_innerShadow_289_3600"/>
</filter>
<linearGradient id="paint0_linear_289_3600" x1="29.646" y1="18.1131" x2="30.7083" y2="25.7934" gradientUnits="userSpaceOnUse">
<stop stop-color="#E0F0FB"/>
<stop offset="1" stop-color="#F8F6FA"/>
</linearGradient>
<linearGradient id="paint1_linear_289_3600" x1="28.1784" y1="27.2501" x2="30.351" y2="31.3275" gradientUnits="userSpaceOnUse">
<stop stop-color="#D37B69"/>
<stop offset="1" stop-color="#EEA093"/>
</linearGradient>
<linearGradient id="paint2_linear_289_3600" x1="21.7715" y1="31.1141" x2="23.7003" y2="38.9446" gradientUnits="userSpaceOnUse">
<stop stop-color="#FBBC8E"/>
<stop offset="1" stop-color="#FECC8A"/>
</linearGradient>
<linearGradient id="paint3_linear_289_3600" x1="32.1929" y1="35.8837" x2="28.2069" y2="40.5119" gradientUnits="userSpaceOnUse">
<stop stop-color="#E67A56"/>
<stop offset="1" stop-color="#F68F42"/>
</linearGradient>
<linearGradient id="paint4_linear_289_3600" x1="36.7946" y1="52.9402" x2="40.4106" y2="55.5569" gradientUnits="userSpaceOnUse">
<stop stop-color="#DD9F34"/>
<stop offset="1" stop-color="#CB8029"/>
</linearGradient>
<linearGradient id="paint5_linear_289_3600" x1="56.6748" y1="45.0968" x2="55.2272" y2="45.8762" gradientUnits="userSpaceOnUse">
<stop stop-color="#E0CFE6"/>
<stop offset="1" stop-color="#E6E3F1"/>
</linearGradient>
<linearGradient id="paint6_linear_289_3600" x1="57.6368" y1="39.4475" x2="52.7517" y2="41.3611" gradientUnits="userSpaceOnUse">
<stop stop-color="#E7D4E7"/>
<stop offset="1" stop-color="#F8FCFE"/>
</linearGradient>
</defs>
</svg>
