<svg xmlns="http://www.w3.org/2000/svg" width="70" height="70" fill="none"><g filter="url(#a)"><path fill="#fff" fill-opacity=".75" d="M0 35C0 15.67 15.67 0 35 0s35 15.67 35 35-15.67 35-35 35S0 54.33 0 35"/><path fill="#9B3F24" d="M16.875 44.527c9.617 5.88 25.204 5.836 35 .588 3.182-1.706 6.805-4.529 7.773-8.949.004.01.09.14.117.146-.003.17.007.344 0 .513-.136 3.525-1.442 5.846-3.608 7.994-7.189 7.132-20.9 8.14-29.632 6.307-5.488-1.15-15.837-5.193-16.457-13.494-.036-.487-.148-1.164.03-1.613.78 4.029 3.959 6.784 6.777 8.508"/><path fill="#C06450" d="M59.767 36.313c-.027-.006-.116-.137-.117-.146-.014-.058.046-.328-.058-.257-1.428 6.355-7.63 9.306-12.263 10.891l4.957-2.787 2.141-1.76c1.678-1.338 3.795-4.257 4.107-6.786.053-.424.179-1.252-.176-1.43 0-.047.008-.106 0-.145l.116.037a.73.73 0 0 0-.058-.404c.15-.176.017-.474 0-.661-.17-1.874-.675-3.122-1.467-4.694 2.212 3.075 2.884 3.629 2.816 8.142zM13.06 27.95c-.589 1.112-1.416 2.943-1.585 4.254-.115-.296-.165.118-.176.184-.08.49-.05 1.039-.059 1.54-.006.3-.06.341-.058.367.106 4.954 3.708 7.662 6.748 9.865 1.389 1.006 2.437 1.754 3.99 2.42-.077.152-.329.04-.44 0-1.525-.55-3.245-1.451-4.663-2.347-3.483-2.197-8.136-6.674-6.339-12.285.483-1.507 1.577-2.994 2.582-3.998"/><path fill="#EC9D32" d="M52.021 24.065c-.157.021-.358.329-.615.293-.12-.015-1.253-.893-1.526-1.027-2.05-.996-4.699-1.929-6.865-2.42-1.773-.402-3.676-.673-5.456-.66l.323.293c-.322-.073-.433.01-.703 0-.488-.02-.854-.069-1.35 0-.252.035-.501.126-.761.073 0-.012-.062-.187-.059-.22.013-.202-.061-.419-.058-.44.003-.017.08-.182.117-.295 5.817-.276 11.89.704 16.957 4.4z"/><path fill="#FBC868" d="M53.135 24.504c1.56-.041 2.92 2.426 3.814 3.667.792 1.572 1.297 2.82 1.467 4.694-.544-.438-.989-.395-1.525-.404-.51-3.422-1.985-6.292-4.636-7.592v-.073c.271-.06.653-.288.88-.294zM34.652 19.662h-.058c-4.746-.171-9.832.83-14.287 2.86-.846.385-1.723.858-2.435 1.54-.297-.033-.754.166-1.056.221 2.33-2.99 10.234-4.908 13.582-5.133.523-.036 3.778-.113 4.05 0 .165.069.162.367.204.512M17.46 24.796c.011.008.152.186.177.221-1.684.886-2.959 2.675-3.814 4.657-.2.465-.85 2.753-.939 2.86-.052.063-.593-.067-.762-.038-.1-.193-.04-.489 0-.696.27-1.394 1.185-3.54 1.878-4.694.319-.53 1.085-1.304 1.29-1.686.102-.19-.086-.03-.058-.257.343-.244 1.084-.761 1.468-.733.04.003.726.339.762.366zM52.902 24.138c-.311.104-.546-.119-.88-.074-5.067-3.698-11.142-4.678-16.957-4.402.039-.12.175-.475.263-.512.259-.109 2.865-.022 3.345 0 3.313.153 11.935 2.003 14.229 4.988"/><path fill="#EC9D32" d="M52.021 24.065c.335-.044.57.177.88.072.083.107.165.247.236.367-.227.006-.61.233-.88.294-.408.091-.43-.07-.998.221-2.835-1.994-6.322-3.15-9.535-3.814-.694-.144-2.548-.58-3.14-.513-.124.014-.126.022-.235.073-.146-.166-.287-.18-.47-.221l-.323-.294c1.781-.012 3.684.259 5.456.66 2.166.492 4.814 1.425 6.865 2.42.273.133 1.406 1.01 1.526 1.028.257.036.459-.272.615-.294zM34.77 19.956c.007.055-.143.268 0 .44-.036.04-.115.207-.116.22l-3.462.147a4 4 0 0 0-.352 0c-1.166-.233-2.359.112-3.491.44-1.886.544-4.575 1.53-6.396 2.347-.86.384-1.705.89-2.492 1.467-.33-.162-.611-.475-.998-.22a11 11 0 0 0-.762-.368c-.01-.088.1-.122.117-.146.303-.055.759-.252 1.056-.22.124.013.293.313.498.293.054-.006.772-.578.939-.66 3.425-1.693 8.238-3.12 11.911-3.448 1.106-.099 2.236-.09 3.345-.073l.03-.513h.058c.023.075.116.278.117.294z"/><path fill="#E09583" d="M59.648 36.165c-.969 4.42-4.591 7.242-7.774 8.948-9.795 5.248-25.384 5.294-35-.588l-.058-.294c1.419.896 3.14 1.797 4.665 2.347.11.04.362.152.44 0 7.367 3.162 17.95 2.773 25.406.221 4.634-1.587 10.835-4.538 12.263-10.89.104-.072.044.2.058.256"/><path fill="#FBC868" d="M12.12 32.498c-.26.045-.447.274-.703.294-.014-.259.032-.373.059-.588.168-1.311.995-3.142 1.584-4.254.633-1.195 1.152-2.06 2.17-2.787-.026.227.16.07.06.256-.207.385-.973 1.156-1.291 1.687-.693 1.154-1.608 3.3-1.878 4.694-.04.207-.101.503 0 .696z"/><path fill="#713D46" d="M34.946 19.956c-.003.022.07.24.058.44-.095-.079-.142-.1-.235 0-.144-.172.006-.384 0-.44z"/><path fill="#803630" d="m54.427 42.253-2.14 1.761-4.958 2.787c-7.456 2.554-18.04 2.941-25.406-.22-1.555-.667-2.602-1.415-3.99-2.42l.116-.221c2.195 2.36 9.106 3.97 12 4.327 8.035.99 14.665.03 21.856-4.474.814-.508 1.754-.926 2.522-1.54"/><path fill="#EC9D32" d="M58.358 33.892c.008.04 0 .1 0 .146.003.275-.52 2.1-.645 2.458-1.113 3.15-3.47 5.305-5.869 6.785-.063-.442-.156-.868-.351-1.247 1.958-1.14 4.182-3.09 5.28-5.463.47-1.018.644-2.181 1.116-3.191.123.092.437.347.47.512z"/><path fill="#803630" d="M54.428 42.253c-.769.614-1.71 1.03-2.523 1.54-.053-.171-.034-.339-.059-.512 2.399-1.48 4.756-3.633 5.868-6.785.126-.357.649-2.183.645-2.457.354.177.23 1.005.177 1.43-.312 2.528-2.43 5.447-4.107 6.784z"/><path fill="#EC9D32" d="M52.256 24.871c2.651 1.3 4.126 4.17 4.636 7.592.535.008.981-.036 1.526.404.017.187.15.485 0 .66-.271-.623-1.332-.924-1.82-.512-.07.061-.113.067-.116.073-.619-1.61-.862-3.568-1.701-5.024-.418-.723-2.035-2.457-2.7-2.676-.13-.174 0-.465.177-.513z"/><path fill="#5A190E" d="M58.416 33.526a.7.7 0 0 1 .058.404l-.116-.037c-.034-.166-.348-.42-.47-.513-.193-.148-.201-.14-.41-.221-.302-.114-.56-.195-.881-.146.487-.412 1.547-.11 1.819.513"/><path fill="#803630" d="M11.476 32.204c-.027.213-.073.328-.059.588.005.103-.03.379.03.44.49-.432 1.17-.543 1.731-.221-.003.004.02.051-.058.073-.217.061-.455-.124-.94.073a.9.9 0 0 0-.351.22c-.074.066-.4.35-.41.405-.11.543.735 3.085.997 3.667.652 1.447 1.663 2.64 2.67 3.704l2.786 2.053c-.03.297.017.562.177.733l-.117.221c-3.04-2.203-6.643-4.91-6.748-9.865 0-.026.052-.067.058-.367.01-.5-.022-1.05.058-1.54.011-.065.062-.48.177-.184z"/><path fill="#EC9D32" d="m34.594 19.662-.03.513c-1.108-.016-2.237-.025-3.345.073-3.673.328-8.486 1.755-11.911 3.448-.167.083-.885.654-.939.66-.205.02-.375-.28-.498-.293.711-.683 1.59-1.156 2.434-1.54 4.458-2.028 9.545-3.032 14.29-2.86M17.814 25.53c-1.344.734-2.376 2.083-3.11 3.631-.283.596-1.313 3.631-1.526 3.85-.562-.322-1.242-.211-1.73.22-.06-.06-.024-.336-.03-.439.255-.02.443-.246.703-.294.169-.03.712.099.762.038.089-.107.739-2.397.939-2.86.855-1.982 2.13-3.773 3.814-4.657.162.235.088.265.176.513z"/><path fill="#5A190E" d="M50.906 41.3c.167.152.475.517.587.734.195.38.288.805.352 1.247.025.175.006.34.058.512-7.192 4.505-13.822 5.464-21.856 4.474-2.894-.357-9.805-1.967-12-4.328-.159-.171-.205-.435-.176-.733.017-.17.274-1.02.352-1.174.07-.138.465-.605.587-.733.012-.012.277-.133.293-.146.055-.006.117-.024.117.072 0 .024.005.058 0 .073-.01.03-.224.355-.294.513-.091.207-.642 1.405-.557 1.54 4.936 3.494 10.442 4.511 16.077 4.474-.01-.399.088-.86.088-1.247h.762c-.006.174-.02 1.203.03 1.247 5.658.1 11.15-.882 16.077-4.473a6.8 6.8 0 0 0-.557-1.395c-.134-.258-.085-.244-.294-.513-.104-.134-.159-.256-.293-.366.011-.058.076-.103.117-.146.139.132.402.254.528.366z"/><path fill="#F4B259" d="M57.89 33.378c-.473 1.008-.645 2.171-1.116 3.191-1.098 2.375-3.323 4.323-5.281 5.463-.112-.217-.42-.581-.587-.733 2.212-1.274 5.057-3.677 6.043-6.564.169-.495.16-1.345.528-1.578.21.079.218.073.41.22z"/><path fill="#FBC868" d="M57.477 33.159c-.367.233-.358 1.08-.528 1.578-.986 2.887-3.831 5.29-6.043 6.563-.125-.112-.39-.234-.529-.366.347-.357 1.377-.756 1.848-1.101 1.992-1.463 3.146-3.714 4.137-6.234.017-.042-.002-.16.058-.294.035-.08.052-.211.058-.221.005-.006.046-.014.117-.073.32-.05.58.031.88.146z"/><path fill="#E48925" d="M18.224 42.032c-.077.154-.334 1.004-.352 1.174l-2.786-2.053c-1.007-1.064-2.018-2.257-2.67-3.704-.262-.582-1.106-3.125-.997-3.667.01-.055.338-.337.41-.404.653 3.917 3.69 6.91 6.395 8.654"/><path fill="#EC9D32" d="M12.181 33.159c.188.355.167.878.293 1.284.753 2.416 4.418 5.854 6.337 6.858-.12.128-.516.595-.587.733-2.706-1.745-5.742-4.737-6.395-8.654a.94.94 0 0 1 .352-.221"/><path fill="#FBC868" d="M13.12 33.086c.04.089.05.114.058.22.008.095-.013.208 0 .295.442 2.93 4.037 6.205 6.19 7.187.055.077-.215.32-.264.367-.016.015-.28.134-.293.145-1.919-1.003-5.584-4.441-6.337-6.857-.126-.407-.106-.927-.293-1.284.484-.197.722-.012.939-.073"/><path fill="#E48925" d="M34.477 46.361c.013.188.059.21.059.221 0 .387-.098.848-.089 1.247-5.636.035-11.142-.98-16.076-4.474-.085-.136.465-1.333.557-1.54 3.247 3.061 7.48 3.927 11.47 4.327 1.353.136 2.72.192 4.08.221z"/><path fill="#EC9D32" d="M34.36 45.48c.089.31.095.558.116.88a51 51 0 0 1-4.079-.221c-3.99-.4-8.223-1.267-11.47-4.328.069-.157.283-.483.293-.512 4.492 3.607 9.913 4.07 15.138 4.18z"/><path fill="#FBC868" d="M20.277 41.007c.01.004.116.11.176.146 1.753 1.098 3.287 2.246 5.31 2.786 2.502.67 5.64.35 8.214.88.227.14.302.385.382.66-5.224-.11-10.646-.573-15.138-4.18.005-.016 0-.05 0-.073.313-.43.644-.409 1.056-.221z"/><path fill="#ED1F24" d="M35.768 21.937c.006.122.038.315.059.44h-.763s-.061.035-.058-.146c.006-.545.041-1.075.058-1.614.262.053.51-.04.763-.073-.193.472-.087.906-.059 1.395z"/><path fill="#A0623C" d="M35.004 20.396c-.001.032.059.21.059.221-.018.538-.052 1.069-.059 1.613-.129.032-.205.093-.351.073.197-.434-.045-1.333 0-1.686a1 1 0 0 1 .116-.22c.093-.101.14-.08.235 0"/><path fill="#AE532E" d="M52.256 24.796v.073c-.175.048-.304.34-.176.513-.434-.144-1.054.055-1.41.44-.064-.018-.066-.075-.176-.073-.049-.061-.054-.211-.059-.22.275-.074.605-.403.823-.514.568-.292.59-.128.997-.22zM18.46 25.017c.346.172.684.468 1.055.588-.032.071-.074.128-.059.22-.085-.033-.111.058-.176.074-.511-.434-.912-.669-1.468-.367-.088-.248-.014-.28-.176-.513a5 5 0 0 0-.177-.22c.388-.257.667.057.997.22z"/><path fill="#ED1F24" d="M51.257 25.017c-.216.11-.547.442-.822.513-.014-.024-.145-.114-.176-.146-.928-1.018-7.169-3.38-8.655-3.814-.604-.176-2.548-.539-3.021-.146-.087-.032-.011-.27 0-.367.014-.127.075-.18 0-.367.591-.065 2.445.37 3.14.513 3.212.662 6.699 1.82 9.534 3.814M30.839 20.763c-.433.014-1.857.32-2.26.513-.432.209-.868.862-1.232 1.027-.451.205-1.086.138-1.584.367-.642.294-1.599 1.572-2.23 1.686-.43.08-.726-.215-.997-.22-.918-.016-2.166.246-2.786 1.1a1.5 1.5 0 0 0-.177.294c-.002.004-.019-.018-.058.073-.371-.118-.709-.416-1.056-.588a14 14 0 0 1 2.493-1.467c1.822-.817 4.51-1.803 6.395-2.347 1.131-.328 2.326-.673 3.492-.44zM34.653 20.617c-.044.353.197 1.254 0 1.686-.02-.002-.041.004-.059 0-1.178-.313-1.955-1.467-3.403-1.54zM52.08 25.384c.663.219 2.281 1.953 2.7 2.676.839 1.458 1.083 3.415 1.7 5.024-.006.008-.023.142-.058.22l-1.994.074s-.11-.142-.117-.146c.743-1.099.592-1.842-.294-2.641-.328-.505-.814-.787-1.174-1.247-.594-1.049-.197-2.236-1.202-3.007a12 12 0 0 0-.969-.513c.354-.385.974-.584 1.41-.44zM19.28 25.897c-1.017.254-.979.911-1.468 1.578-.374.508-.954.895-1.232 1.32-.222.34-.31.893-.529 1.246-.653 1.059-1.55 1.591-1.29 3.19-.007 0 .03.066-.117.074-.486.025-.98-.02-1.467 0a.5.5 0 0 0-.059-.221c.08-.022.055-.071.059-.073.213-.219 1.243-3.256 1.525-3.85.734-1.548 1.766-2.897 3.11-3.631.554-.304.956-.067 1.468.367"/><path fill="#FDE4A5" d="M35.826 22.377c.008.045-.008.102 0 .145.142.76.333 1.316.939.513.088.006.21.014.294 0 .214.284.522.864.88.807.114.177.208.3.352.44.369.359.607.27.88.696-1.02.313-1.36-1.466-2.493-.77l.264.295c-.534-.221-1.242-.105-1.526.587-.237.576-.186.98.323 1.32l.147-.11c-.049-.038-.085-.129-.058-.184.082.085.146.15.235.22-.272.372.104.243.147.295.533.625.632 1 1.437.44-.047.936-1.474.865-1.7.183-.154-.46.39-.491-.206-.623.014.155-.142.3-.147.33-.02.155.57 1.001.734 1.135.405.333 1.097.207 1.027.807-.47.197-.248.451-.382.588-.036.037-.856-.109-.938-.146-.628-.286-.775-1.103-1.028-1.762 0-1.74.038-3.47.059-5.206h.762z"/><path fill="#EC9D32" d="M35.004 22.23c-.001.184.059.139.059.146-.02 1.736-.059 3.47-.059 5.207v1.835c-.139-.03-.268-.062-.41-.073.024-1.93-.032-3.87 0-5.795.006-.416.114-.842 0-1.247.019.004.04-.002.058 0 .147.02.223-.041.352-.073"/><path fill="#FDE4A5" d="M50.672 25.824c.074.022.887.452.969.513 1.005.771.609 1.956 1.202 3.008-.702-.898-.309-1.282-.645-2.018-.24-.523-.653-.62-.41.294.26.984.8 1.86 1.467 2.457-.233.308-.631-.236-.822-.44-.91-.976-1.556-2.43-2.113-3.741 0-.06.153-.146.177-.146.109-.002.112.055.177.073z"/><path fill="#EC9D32" d="M50.437 25.53s.01.158.059.22c-.024 0-.175.09-.177.147l-5.985 3.008c-.03-.01-.08-.004-.117 0l-.235-.44c.886-.229 1.574-.706 2.407-1.1.51-.243 1.011-.47 1.525-.734.786-.403 1.577-.801 2.348-1.247.03.034.163.124.177.146z"/><path fill="#E48925" d="m26.145 28.684-.41.22c-.127-.068-.316-.137-.47-.22-.173-.093-.362-.132-.53-.221-1.746-.925-3.516-1.767-5.28-2.641-.015-.093.026-.148.058-.22.04-.092.057-.07.058-.074 1.217.702 2.618 1.087 3.844 1.686.882.432 1.785 1.006 2.728 1.468z"/><path fill="#FDE4A5" d="M50.26 25.384c-.77.446-1.56.844-2.347 1.247-.166-.172.076-.677-.177-.661.011-.024.115-.416.117-.44.01-.114.019-.54 0-.623-.276-1.168-4.432-1.628-4.518.477-.105-.014-.333.15-.41.22.14-.28-.364-.009-.382 0-.486.255-.943.575-1.409.88-.126.083-.39.042-.528.146-.026.02-.065.425-.382.478.175.088.37.015.41.256-.082.028-.112-.047-.176-.073-.386-.152-2.453.085-2.759.367l2.7-1.063-2.758-1.357c-.02-.17-.057-.14-.058-.146-.11-.311-.407-.487-.646-.588l-.263-.294c1.133-.694 1.475 1.083 2.493.77-.273-.428-.511-.338-.88-.697l.586.073c.407 1.312 3.866 1.282 4.166-.366.104-.574-.032-1.134-.587-1.174-.71-.588-1.829-.546-2.7-.22-.107.039-.31.072-.41.145l-1.116-.66c.01-.012-.01-.062 0-.074.138-.16.329-.566.352-.587.474-.39 2.417-.03 3.022.146 1.486.434 7.727 2.796 8.654 3.814z"/><path fill="#C47229" d="M37.176 20.544v.073l-.47.183c.163.24.261.839.41 1.064-.474.142-.99.573-1.35.073-.028-.488-.134-.922.059-1.395.497-.069.863-.02 1.349 0z"/><path fill="#AF892E" d="M37.88 20.544c.182.041.324.055.471.22-.006.005.024.121-.03.147a10 10 0 0 0-1.144.66c-.22-.44-.413-.498 0-.952v-.073c.27.01.384-.073.704 0z"/><path fill="#D15627" d="M38.585 20.69c.075.188.014.24 0 .367l-1.291.734a4 4 0 0 1-.117-.221 10 10 0 0 1 1.144-.66c.052-.026.022-.145.03-.147.107-.051.11-.059.235-.073z"/><path fill="#AF892E" d="M37.117 21.864c.174.264.17.12.294.145.283.06.54.064.822 0-.01.012.009.062 0 .073-.273.318-.393.531-.763.734-.11.061-.3.201-.41.221a1.5 1.5 0 0 1-.293 0c-.79-.057-.453-.452-.557-.588l-.382.073c-.008-.043.008-.102 0-.146-.02-.126-.052-.317-.059-.44.36.502.878.068 1.35-.073z"/><path fill="#CABB5B" d="M37.175 20.617c-.413.456-.22.515 0 .953.043.085.074.14.117.22.038.07.041.192.117.222-.123-.026-.12.116-.294-.146-.148-.227-.246-.827-.41-1.063l.47-.184z"/><path fill="#D16A28" d="M38.585 21.057c-.011.097-.087.335 0 .367-.026.02-.215.426-.352.588-.28.063-.538.059-.822 0-.078-.03-.08-.15-.117-.221z"/><path fill="#EC9D32" d="m42.223 29.49-.117.513c-1.597.785-3.24 1.483-4.81 2.347-.105.057-.71.288-.705.405 1.321.587 2.837.252 4.284.256.128.201.365.08.235.294-.137-.006-.183.065-.293.073-.426.03-.863-.016-1.29 0-.783.03-1.56.08-2.349.073-.574-.006-1.164-.115-1.73 0 3.682 1.903 7.461 3.518 11.118 5.5.384.21.796.371 1.174.588.38.217.807.539 1.116.734-.145.126-.096.099-.177.22-.031.048-.049.062-.058.074-.377-.398-1.018-.702-1.496-.953-1.674-.881-3.39-1.649-5.076-2.493-.724-.363-1.444-.741-2.171-1.1a187 187 0 0 1-4.782-2.42c-.215.098-.029 1.84-.03 2.126v.294c-.007 1.418.004 2.84 0 4.254v.66q-.002.442 0 .88c-.004.722-.052 1.47-.059 2.201a73 73 0 0 1-.058 2.568h-.294c.05-.777-.049-1.578-.058-2.347-.047-3.522.047-7.064 0-10.599-.068-.158-1.448.773-1.584.844-3.676 1.913-7.63 3.669-11.207 5.795-.041.024-.08.051-.117.073-.101.061-.21.057-.235.073-.054-.077-.043-.172-.059-.221a1 1 0 0 0-.058-.146c.068.014.055-.07.058-.073 2.126-1.227 4.453-2.305 6.63-3.447 1.043-.549 4.174-1.82 4.9-2.494.1-.092.246-.524.351-.66-.42.002-.84-.002-1.262 0-.9.006-1.797.126-2.7.073.024-.154.11-.29.117-.367l3.96-.073c.33-.132-.95-.69-1.027-.734-.997-.546-3.785-2.161-4.694-2.347l.235-.22 4.694 2.2c.275.212.679.318.998.367-.138.211.855.758.908.734.154-.071.067-.57.089-.734.13-.014.292.026.41 0v.77c1.46-.573 2.88-1.5 4.312-2.237.308-.158.723-.211 1.027-.367.365-.185 1.662-.757 1.878-.953z"/><path fill="#F2D081" d="M34.594 23.55c-.032 1.925.024 3.866 0 5.794-.115-.01-.316-.073-.352-.073-.535-1.177.379-1.581.177-2.75-.128-.735-.784-1.447-1.086-2.091-.104.076.25.948.147 1.284-.084.272-1.802.548-2.083.477-.244-.061-.333-.19-.44-.44.497.104 1.606.04 2.054-.221.043-.024.13.012.177-.11a3.9 3.9 0 0 0-.117-1.211c-.038-.142-.093-.452-.205-.513-.017.288-.128.45-.263.66-.08-.189.356-.708.088-.806-.077-.03-1.138 1.043-1.437.953.397-.58 1.002-.874 1.554-1.174.06-.034 0-.197.058-.22.182-.07 1.387.595 1.731.439z"/><path fill="#FBC868" d="M26.438 28.61c.062.147.172.29.236.44-.21-.112-.225-.218-.53-.366-.944-.462-1.845-1.034-2.727-1.468-1.226-.601-2.627-.984-3.844-1.686.073-.146.084-.166.177-.294.301-.132 1.08-.298 1.29.038.152.24.196.848.324.917.058.031.13-.125.235-.073.926.451 1.06.087 1.761.22.55.105 1.248 1.671 2.523 1.687.063 0-.038-.21.117-.221.172-.012.364.625.44.807z"/><path fill="#CABB5B" d="M27.906 29.565c-.412-.152-.836-.303-1.232-.512-.062-.15-.174-.294-.235-.44.388.065 1.625.276 1.467.952"/><path fill="#EC9D32" d="M35.298 46.58c.001-.047-.003-.098 0-.146 1.898-.126 3.826-.102 5.721-.293 2.449-.247 4.61-.906 6.865-2.127 1.04-.562 1.991-1.339 2.963-2.053.234.448.423.886.557 1.395-4.926 3.593-10.42 4.573-16.076 4.473-.05-.046-.037-1.073-.03-1.247z"/><path fill="#F4B259" d="M50.847 41.96c-.971.713-1.923 1.49-2.963 2.053-2.254 1.22-4.416 1.88-6.865 2.126-1.893.191-3.823.167-5.721.293.028-.4.087-.67.235-1.027.32.252.981.16 1.379.146 4.052-.13 7.138-.535 10.914-2.42.939-.47 1.838-1.095 2.728-1.686.208.27.16.254.293.512z"/><path fill="#ED1F24" d="M14.586 33.599c.159 3.148 2.54 3.952 4.342 5.355.634.498 1.947.544 2.406 1.1.008.01.047.112.058.146l-1.115.807c-.414-.188-.743-.21-1.056.22 0-.096-.063-.078-.116-.072.049-.048.32-.288.263-.367-2.152-.982-5.748-4.256-6.19-7.187.467-.016.944.021 1.41 0z"/><path fill="#FBC868" d="M50.025 40.934c.076.05.164.088.235.146.133.11.19.23.294.367-.892.591-1.79 1.216-2.728 1.686-3.776 1.885-6.862 2.29-10.914 2.42-.398.014-1.059.106-1.38-.146.449-1.079.872-.087 1.468-.734.759.036 1.538-.012 2.288-.146l2.846-.146c1.682-.264 4.287-1.357 5.868-2.2.537-.287 1.116-.955 1.554-1.174a.9.9 0 0 1 .47-.073"/><path fill="#ED1F24" d="M56.364 33.599c-.991 2.52-2.145 4.77-4.138 6.234-.47.345-1.502.744-1.847 1.1-.043.044-.107.092-.117.147-.071-.06-.16-.095-.235-.146-.336-.231-.795-.422-1.174-.661 1.016-.884 2.454.684 3.345-1.357.276-.633.18-1.114.352-1.724.385-1.362 1.504-.647 1.878-2.493.03-.146.036-.836.116-1.1.605.022 1.217-.022 1.82 0M34.066 44.306c.077-.004.157.01.235 0 .113-.014.173-.1.293-.073.011.77.107 1.57.058 2.347h-.116c0-.011-.046-.033-.059-.22-.022-.322-.026-.57-.116-.88-.08-.276-.155-.52-.382-.66-2.574-.531-5.712-.214-8.214-.88-2.025-.54-3.557-1.689-5.31-2.787.346-.192.668-.525.997-.734.025-.016.134-.012.235-.073.463.318 1.25-.037 1.673.367.4.382-.024 1.006.528 1.613 1.441 1.584 7.658 2.071 9.624 2.126.18.006.407-.012.557-.146zM37 44.673c-.596.647-1.02-.345-1.467.734a3 3 0 0 0-.235 1.027c-.004.048.001.099 0 .146h-.352a66 66 0 0 0 .058-2.567c.7.639 1.165.62 1.995.66z"/><path fill="#FDE4A5" d="M52.432 29.638c.189.203.588.748.822.44.225.203.63.395.762.513.885.799 1.036 1.54.293 2.64-.304-.163-.84-.027-1.174-.072.016-.432-.066-.828-.116-1.247-.048-.39-.013-.76-.177-1.136-.164-.374-.799-1-1.174-.99.23-.509-.758-.633-.997-.733.07-.259-.01-.734 0-.77.188-.755 1.349 1.886 1.76 1.357z"/><path fill="#FBC868" d="M52.842 29.344c.36.462.844.744 1.174 1.247-.133-.119-.537-.312-.763-.513-.667-.598-1.207-1.473-1.467-2.457-.241-.914.172-.817.41-.294.336.735-.056 1.12.646 2.017"/><path fill="#AE532E" d="M56.422 33.305c-.06.134-.043.25-.059.294-.6-.022-1.215.022-1.819 0-.055 0-.061-.071-.117-.073-.005-.046.01-.13 0-.146l1.995-.073z"/><path fill="#EC9D32" d="M54.309 33.232s.112.138.117.146c.01.018-.005.1 0 .146-.448-.018-.901.014-1.35 0 0-.008-.126.02-.116-.038.027-.167.175-.31.177-.329.334.045.87-.089 1.174.073z"/><path fill="#E48925" d="M17.989 33.086c-.029.089-.063.099-.059.22-.664.036-1.331.092-1.994.147-.415.035-.816.051-1.232.073-.018-.081-.082-.117-.059-.221.149-.008.11-.073.117-.073.535-.032 2.914-.296 3.227-.146"/><path fill="#AE532E" d="M14.644 33.305c-.024.105.041.14.058.22-.056.003-.061.072-.116.074-.464.022-.94-.016-1.41 0-.012-.087.008-.2 0-.294.488-.02.98.026 1.468 0"/><path fill="#FFF0CC" d="M39.347 22.743c-.316.231-.509.578-.53 1.028-.005.144.02.46.06.587l-.588-.072a2.3 2.3 0 0 1-.352-.44c-.099-.156-.366-.807-.47-1.028.371-.203.49-.414.762-.734l1.116.661z"/><path fill="#F4B259" d="M36.765 23.037c-.606.8-.797.247-.939-.513l.382-.073c.104.136-.232.529.557.588z"/><path fill="#FDE4A5" d="M37.939 23.844c-.358.057-.666-.523-.88-.807.108-.02.3-.16.41-.22.104.22.37.87.47 1.027M37.352 28.905c.04-.016.167-.073.177-.073.053-.002.205.092.323 0l.089.11-.236.073c.163.073.217.217.352.33.302.25.085-.547.41.146-.058.007-.102.076-.116.145-.328-.076-.797-.71-1.144-.512-.148.084-.354 1.339-.03 1.54.224.138.997-.239 1.29-.294.018-.004.267.164.324.146.424-.134-.114-.621.03-.952.163-.02.506-.02.645-.073l.88.952c-.304.156-.717.207-1.026.367-1.433.738-2.853 1.665-4.313 2.237v-.77c.58-.128 1.48-.601 1.526-1.467.054-1.01-.882-1.258-1.526-1.394V27.58c.253.657.398 1.474 1.028 1.762.082.037.902.183.938.145.134-.136-.088-.388.382-.587z"/><path fill="#FFF0CC" d="M37.704 27.658c-.23.213-.317.842-.176 1.174-.01 0-.136.057-.177.073.07-.6-.622-.474-1.027-.807-.164-.134-.755-.98-.734-1.136.005-.03.16-.174.147-.33.596.133.052.164.205.624.227.684 1.653.753 1.7-.183.004-.048 0-.1 0-.146.332-.22.076-.525-.116-.734.072-.28.153-.663.117-.953l2.758 1.357-2.7 1.063z"/><path fill="#FDE4A5" d="M50.319 25.897c.557 1.31 1.2 2.765 2.112 3.741-.41.529-1.573-2.112-1.76-1.357-.01.038.07.513 0 .77-.332 1.21-1.542 1.152-2.23.44l.177-.146c.421.368 1.267-.028 1.584-.478.252-.357.715-1.686.177-1.797s-1.81.29-2.348.588c-1.05.58-1.28 1.866-2.376 2.126h.557c-.11.067-.355.434-.41.588-.256.698.296.568.703.367l1.29-.184-2.17.513c-.149 1.028-.097 1.188.762 1.284-.23.056-1.013.338-1.116-.037-.046-.17.161-.29.089-.33-.766-.427-1.92-.136-2.377.807-.232-.08-.318.116-.528-.294.033-.1.156-.274.088-.367-.562-.138-1.193-.522-1.614.073l-.088-.294c-1.124.574-2.353.768-3.55.44 1.571-.864 3.214-1.562 4.81-2.347-.036.37.565.302.762.294.267-.012.606-.132.763-.22.055-.032.203.052.235-.147.262.103.58.351.205-.073l.323.146c-.356.767-1.617.044-1.7 1.284.255.1 2.29.361 2.376.257.197-.239.014-.6.03-.697.028-.175.246-.627.235-.66-.02-.056-.76-.47-.88-.478.05-.3.188-.712-.118-.806l5.985-3.008zM42.927 25.603c-.13.116-.286.404-.47.477-.02.095.444.604.528.697l-.734-.44c-.168.323-.21.585-.263.952-.079.535-.256.884.293.953.1.014 1.76-.118 1.848-.146.06-.02.484-.548.499-.588.118-.32-.015-.52-.177-.733.715.232 1.694.22 2.406-.073l-.47.66c-.832.395-1.52.872-2.406 1.1-.284.074-1.108.01-1.35.257-.058.061-.279.651-.41.77-.216.195-1.513.767-1.877.952l-.88-.953c.492-.19 1.276-1.526 1.173-2.126-.04-.24-.236-.167-.41-.256.317-.053.355-.458.382-.477.139-.105.4-.064.529-.146.465-.306.922-.626 1.409-.88.017-.01.522-.28.381 0z"/><path fill="#FBC868" d="M47.914 26.63c-.514.263-1.015.492-1.526.734l.47-.66c.23-.095.76-.462.88-.734.253-.016.012.489.178.66zM28.022 36.532c-2.177 1.142-4.504 2.22-6.63 3.447l-.498-.513c1.442-.116 2.548-1.394 3.755-2.053.202-.11 1.855-.856 1.994-.88.35-.06.974.139 1.38 0z"/><path fill="#FDE4A5" d="M17.93 33.305c.038.868.283 1.195.881 1.467.926.42 1.186-.112 2.054-.22-.54.826-1.49 1.01-2.288.66-.058-.026-.42-.463-.528-.513-.297-.508-.825-.548-.969-1.246-.16-.034-.3.668-.323.696-.161.21-.474.112-.529.404-.071.058-.183.127-.177.257.076.305.343.377.47.55.507.688.756 1.077 1.585.513a1 1 0 0 1-.059.146c-.56.716-1.896.708-1.877-.367.001-.124.178-.31.176-.33-.004-.035-.375-.264-.41-.512-.043-.298.183-.973 0-1.357.664-.055 1.33-.11 1.994-.146zM32.013 33.378c-.48.915-3.058 2.946-2.875.587 0-.011.04-.09.058-.22.028-.188.103-.202.117-.294.9.05 1.8-.067 2.7-.073"/><path fill="#FFF0CC" d="M23.68 34.405c-.025.133-.07.168-.058.367-.175-.094-.415.268-.47.294-.515.23-1.262.207-1.761.588-.092-.014-.32-.071-.352-.073.04-.614.353-1.2.645-1.687.617.074 1.102.21 1.673.294.084.012.263.109.323.221z"/><path fill="#FFF0CC" d="M21.686 33.893c-.292.487-.606 1.075-.645 1.686-.857-.044-2.577.227-2.523 1.686.004.119.07.332.116.44-.429-.05-.143-.8-.176-.99-.02-.113-.26-.718-.41-.696a1 1 0 0 0 .058-.146c.195-.134.17-.272.235-.367.05-.075.214-.156.235-.294.798.351 1.747.166 2.288-.66.134-.204.267-.383.293-.661.008-.36.39-.016.529 0z"/><path fill="#FBC868" d="M26.203 33.01c.002.025-.003.05 0 .074-1.467-.008-2.936.006-4.4 0l-.059-.294c.35.065.776-.11 1.116-.146.156-.016.524.079.557.073.353-.057.874-.509 1.349-.44.309.045 1.06.667 1.437.734"/><path fill="#FDE4A5" d="m16.17 35.652-1.116-.734c-.215-.578-.223-.815-.352-1.394.417-.022.818-.04 1.232-.073.184.384-.042 1.059 0 1.357.037.248.406.477.41.512.004.02-.173.206-.176.33z"/><path fill="#E48925" d="M21.803 33.086c1.464.006 2.933-.008 4.4 0 .011.09-.017.219 0 .294-1.46-.213-3.316.311-4.724.073-.25-.044-.63-.085-.645-.513.246.235.65.146.969.146"/><path fill="#FFF0CC" d="M24.032 36.532c-.08.36-.547 1.06-.792 1.246-.142.108-1.007.542-1.202.623-.086.036-.236.107-.294-.037.49-.17.636-.187.939-.734.368-.663.196-.544.235-1.173.032-.501.22-.279.529-.661.172.331.284.556.587.734z"/><path fill="#929938" d="M20.337 28.098c-.308.174-.63.665-.939.88-.01-.018-.235.023-.293-.184-.05-.18.042-.872.116-1.063l1.38-.588-.264.953z"/><path fill="#F2D081" d="M23.622 34.772c.036.608.702 1.539 1.202 1.614.276.041.638-.087.91-.146-.354.605-1.178.601-1.702.293-.303-.177-.415-.402-.587-.733-.11-.211-.203-.501-.293-.734.055-.024.293-.388.47-.294"/><path fill="#FDE4A5" d="M24.737 28.465c.167.089.357.128.529.22-.6.133-.742 1.018-1.203 1.395-.157.128-.262-.023-.293 0-.221.16-.454.456-.734.55.238.11.532.146.645.478-.233-.263-.65-.207-.762-.588.584-.193.887-.418.998-1.174.04-.278.098-.28 0-.587.372.083.579.08.822-.294z"/><path fill="#CABB5B" d="M21.628 27.804c-.442.028-.876.06-1.291.294l.264-.953-1.38.588c.021-.051-.031-.162.03-.22.176-.168 1.225-.492 1.468-.734l.909 1.027z"/><path fill="#fff" d="M23.68 31.106c.066.193.091.463.058.66-.762.943-2.764 1.105-2.933-.66.04-.09.45-.345.529-.367.524-.138 1.011-.03 1.584-.22.114.378.529.325.762.587"/><path fill="#9B6373" d="M23.739 31.765c-.076.455-.53.82-.88.88-.34.035-.765.21-1.116.145-.592-.108-1.267-.91-.94-1.686.171 1.765 2.172 1.601 2.934.66z"/><path fill="#FDE4A5" d="M19.456 25.824c1.764.872 3.533 1.716 5.281 2.64-.241.376-.45.378-.822.295-.186-.584-1.07-.886-1.525-.953-.2-.03-.493-.008-.704 0h-.059l-.909-1.027c-.24.242-1.292.566-1.467.733-.061.06-.01.17-.03.221-.074.191-.167.884-.117 1.063.059.207.284.166.294.184.04.075.057.069.058.073.038.114-.038.467 0 .587.289.923 1.15 1.127 1.878 1.101-.079.022-.49.274-.529.367-.328.779.347 1.578.94 1.686l.057.294c-.318 0-.72.089-.968-.146.014.43.394.471.645.513 1.408.239 3.261-.286 4.724-.073.06.252.294.722.47.88-.471.045.253.485.382.512.693.15 1.537-.307 2.083-.806-.183 2.358 2.395.329 2.875-.588.42-.002.84.002 1.262 0-.106.136-.252.568-.352.66-.726.673-3.856 1.947-4.9 2.494-.405.138-1.028-.062-1.378 0-.139.023-1.793.769-1.994.88-1.207.658-2.314 1.936-3.756 2.052l.499.513s.01.087-.058.073c-.458-.556-1.77-.601-2.407-1.1-1.211-.953-3.285-2.45-3.872-4.034l1.116.734c-.02 1.075 1.317 1.083 1.877.367.152-.022.392.584.41.696.032.19-.252.94.177.99.455 1.073 2.314.935 3.11.66.059.145.209.072.294.038.195-.08 1.06-.514 1.202-.623.245-.185.712-.886.792-1.246.526.307 1.35.311 1.701-.294.036-.008.082.01.117 0 .088-.024.31.01.323 0 .14-.097.194-.927.147-1.136-.016-.071-.088.065-.177-.184-.093-.266-.894-1.422-1.027-1.467-.16-.055-.795.396-.969.513-.023-.012-.198.205-.263-.146-.038 0-.125.374-.147.44-.003.007-.03 0-.058.146-.06-.111-.24-.208-.324-.221-.57-.085-1.054-.221-1.672-.294-.14-.016-.52-.36-.529 0 .002-.018-.066-.247-.03-.367l-.176.22v-.22l-.264.11c.114-.154.071-.313 0-.477-.152-.353-.596-.294-.85-.513-.15-.13-.21-.347-.324-.513-.016-.023.032-.19-.03-.22-.276-.137-.91.57-1.085.844 0 .075.45.438.528.477.232.118.131.085.352.073l.205.294.85.44a18 18 0 0 1-2.347-.953c-.313-.15-2.692.116-3.227.146-.259-1.6.637-2.132 1.29-3.191.218-.353.305-.907.53-1.247.277-.424.858-.81 1.232-1.32.489-.664.45-1.323 1.467-1.577.065-.016.091-.106.177-.073z"/><path fill="#FFF0CC" d="M15.056 34.918c.588 1.584 2.66 3.081 3.872 4.034-1.802-1.4-4.183-2.205-4.343-5.355.056-.002.062-.071.117-.073.13.58.137.815.352 1.394z"/><path fill="#E5B975" d="M16.463 30.958h.058c.625.73 1.477.36 1.995-.367l.235-.11c.317.858-2.134 2.234-2.288.477"/><path fill="#BDCB31" d="m18.693 30.297-2.172.661h-.058c-.016-.17-.106-.369-.058-.55.015-.06.647-.819.733-.844.277-.08 1.712.106 1.731.477.003.075-.165.237-.176.256"/><path fill="#B39931" d="M18.693 30.297a3 3 0 0 1-.177.294c-.518.728-1.37 1.097-1.994.367z"/><path fill="#CABB5B" d="M19.661 31.546c.799-.024 1.089 1.266.94 1.32-.171-.14-.552-.159-.705-.295-.184-.161-.318-.787-.351-.806-.089-.054-.491.26-.616.037.155-.047.619-.252.734-.256z"/><path fill="#7B7B32" d="M20.337 34.039c.188.063.36.098.557.073.256.16-1.314.642-1.41.66-.204.038-.461-.027-.674 0-.598-.272-.843-.6-.88-1.467-.006-.12.03-.13.058-.221.836.402 1.443.655 2.347.953z"/><path fill="#CABB5B" d="M20.689 33.159c.07.164.113.321 0 .477l.263-.11v.22l.177-.22c-.038.12.031.349.03.367-.027.276-.16.455-.294.66-.867.107-1.126.641-2.054.221.213-.027.47.038.675 0 .095-.017 1.663-.499 1.41-.66a1.2 1.2 0 0 1-.558-.073l-.85-.44-.205-.294s.047-.148.088-.146c.437.01.904.134 1.32 0z"/><path fill="#929938" d="M19.515 32.131c.112.166.172.383.323.513.255.221.7.162.85.513-.416.134-.881.01-1.32 0-.04 0-.08.146-.088.146-.221.012-.12.045-.352-.073-.024-.28.289-.067.352-.183.04-.072-.07-.876.235-.918z"/><path fill="#929938" d="M19.515 32.131c-.305.042-.196.846-.235.917-.063.117-.376-.096-.352.184-.077-.04-.529-.402-.529-.477.176-.275.81-.979 1.086-.845.06.03.013.196.03.221"/><path fill="#F2D081" d="M29.196 33.745c-.019.13-.058.209-.058.22-.546.5-1.39.957-2.083.807-.13-.027-.853-.467-.382-.513.625.559 1.716.265 2.202-.44.111-.161.023-.039-.03-.22.111.053.235.11.351.146"/><path fill="#fff" d="M36.942 24.504c.238.099.535.274.645.588l-.293.88c-.324-.194-1.24-.387-1.468.073-.296-.136-.525-.543-.41-.953.284-.692.993-.808 1.526-.588"/><path fill="#BDCB31" d="M37.294 25.97c.032.02.194.175.235.22.194.21.45.516.117.734-.379.251-1.248-.317-1.584-.587a2 2 0 0 1-.235-.221c.008-.018-.01-.055 0-.073.227-.462 1.142-.266 1.467-.073"/><path fill="#B39931" d="M37.646 26.924c0 .05.003.099 0 .146-.806.558-.904.186-1.438-.44-.042-.049-.418.08-.146-.293.336.268 1.205.836 1.584.587"/><path fill="#B67D8A" d="M35.827 26.045c-.01.017.007.055 0 .073-.026.055.009.146.058.183l-.147.11c-.508-.339-.558-.743-.323-1.319-.115.412.113.817.41.953z"/><path fill="#C9A9BB" d="M37.646 25.238c.036.292-.046.675-.117.953a3 3 0 0 0-.235-.221l.293-.88s.038-.023.059.146z"/><path fill="#FDE4A5" d="M33.01 34.478c.278 1.162 1.526.468 1.35 1.651-.01.061-.231.308-.236.33-.994-.772-1.979-1.3-2.758.145-.085-.114-.237-.57-.323-.587-.073-.014-.494.404-.558.44-.307.173-.64.317-.938.512-.179.117-.14-.08-.41.294-.337.462-.526 1.608-.236 2.09.29.484 1.22.03 1.673.33l-.03-.367c.093-.014.918-1.09.792-1.32-.153.305-.246.208-.263.222l-1.526-1.247L31.042 38c.146.02.05-.213.03-.294.24.069.256-.29.41-.44.252.805 2.27.82 2.582.038.098-.245.017-.476.058-.624.475-.236.23 1.032.059 1.284-.226.33-.693.351-.997.405-.876.148-1.269-.466-1.291 1.1v.294c-.601.089-1.032.053-1.584.44l-.205-.221c-.674.142-1.119-.39-1.731-.513.005-.128.022-.76-.03-.807-.41-.015-.773.198-1.144.367-.803.367-1.707.787-1.584 1.98.006.066-.087.083 0 .33.147.416.885.558 1.202.55.047 0-.022-.13.117-.146.04-.006.019.156.058.146.156-.037.376-.225.499-.294.243-.132.558-.29.704-.587.476.927 1.93 2.773 2.816 1.834.133.033.439.065.587.073l.205.294c.595-.174 1.919.737 1.7-.661a.4.4 0 0 1-.263.146c.095-.215.403-.292.529-.44.151.108.562-.217.645-.367.177-.031.114.195.117.33.014.497.172 1.982-.323 1.942l.088.146c-.076.01-.158-.004-.235 0-1.9.077-9.082-.605-10.21-2.42.178.03.3-.008.47-.073.48-.187.609-.698.645-1.246a.9.9 0 0 1 .117-.257c-.068-.31-1.256-.469-1.496-.404-.295.08-.213.201-.675.294-.3.06-.783.028-1.116.073 3.577-2.126 7.531-3.88 11.208-5.795zM42.046 37.12c1.685.843 3.4 1.61 5.076 2.492.478.252 1.119.556 1.496.953-.02.025.02.229 0 .256-.846 1.186-2.703.69-3.902 1.43-1.848 1.14-3.301 1.893-5.428 2.274-.75.134-1.53.181-2.288.146-.831-.037-1.297-.02-1.994-.66.006-.73.055-1.48.058-2.202.177.08.344.081.529.073-.538 1.2.662 2.229 1.526 1.834.167-.077.284-.25.351-.44.152.04.494-.364.557-.366.185-.002.748.826 1.35.44l-.03-.221c.844.128 2.324-.014 2.758-1.1.015-.04.028-.038.058-.147 1.287-.134 1.642-.947.117-1.1.1-.45.317-.63.47-1.028.016.01.042-.01.058 0 .134.079.56.063.734.221.04.06-.134.341-.147.513-.036.477.036.337.059.587.01.13.047.148.058.221.005.03-.257.257.03.513.648.276 1.423-.085 1.614-.952.275-.097.546.17.85.073.767-.24-.083-1.456-.47-1.468-.247-.008-.385.49-.675.513-.055-.024-.164.016-.235 0 .057-.389-.598-.185-.792-.294-.073-.04-.488-.6-.616-.734-.009-.01.12-.116-.088-.293-.177-.152-1.24-.663-1.437-.478.476.127.148.075.235.33-.095.59-.372.51-.645.66-.431.235-.744.263-1.116.77.29-1.063 1.595-.525 1.614-1.503-.626-.438-1.58.962-1.79 1.613a3.2 3.2 0 0 0-.761.073c-.52-.558.01-.525.117-1.063-.005-.03-.332-.39-.352-.404l1.085-.367c.331-.318.237-.468.205-.88a4 4 0 0 0-.116-.513c.298-.57 1.393.472 1.73.44.17-.016-.099-.233.147-.22z"/><path fill="#ED1F24" d="M49.557 41.007c-.439.219-1.018.887-1.555 1.173-1.579.844-4.186 1.935-5.867 2.201l-2.847.146c2.127-.38 3.58-1.134 5.428-2.274 1.199-.74 3.056-.244 3.902-1.43.02-.027-.02-.23 0-.256.01-.012.028-.026.058-.073z"/><path fill="#FDE4A5" d="m37.175 33.453 3.52 2.053c.512.637 1.223.446 1.82.588.31.935 1.31 1.11 2.024 1.027.328-.04.301-.079.44-.294.01-.013.158.05.117-.146.016.01.043-.01.058 0 .008.004-.023.119.03.146.464.239.945.348 1.438.44-.188.442-.005 1.107.235 1.468-.03 0-.267.15-.294.22-3.657-1.984-7.436-3.597-11.119-5.5.567-.115 1.157-.006 1.731 0zM36.53 36.826c.846.913 2.24 2.386 3.169.88.038-.01.116-.052.176-.074.153-.059.275-.118.41-.22.032.413.127.563-.205.879l-1.085.367c-.442-.282-.672.027-.792 0-.284-.063-.917-.422-1.174-.44-.243-.016-.691.043-.85.22-.258.287-.38.798-.236 1.174.02.054.218.357.236.367l-.059.221c-.254-.024-.76.183-1.055.073.004-1.414-.007-2.836 0-4.254.39.63.848.885 1.467.806zM34.594 44.233c-.12-.027-.18.06-.293.073l-.089-.146c.496.038.336-1.447.324-1.942-.004-.135.06-.363-.117-.33.188-.337.28-1.321-.294-1.1-.176-.69-.943-.687-1.349-1.028.35-.126.769-.737.587-1.173-.042-.105-.16-.083-.176-.221.304-.052.773-.073.997-.405.172-.25.416-1.52-.059-1.284.01-.035-.01-.106 0-.145.005-.022-.004-.05 0-.073.005-.022.226-.269.236-.33.176-1.183-1.073-.489-1.35-1.65.136-.072 1.517-1.003 1.585-.845.047 3.533-.048 7.077 0 10.6zM52.55 37.192c-.172.61-.076 1.089-.352 1.724-.892 2.041-2.328.473-3.345 1.357-.31-.193-.726-.51-1.116-.734.161-.382.993-.499 1.116-.733.699.276 1.212.704 1.907.145.224-.179.567-1.075 1.028-.806-.179.236-.175 1.248-.704 1.503.214.384 1.688-1.689 1.055-1.651l.41-.807z"/><path fill="#FFFBEE" d="M38.936 40.2c-.588.217-1.188.657-1.055 1.54.014.091-.008.2 0 .294l-.059.11-.205-.623c-.102.357.275.787-.147.807-.197-.523-.658-.994-1.115-.66-.074.053-.073.062-.117.145-.22-.018-.424.063-.645.073-.185.008-.352.006-.529-.073v-.88l1.174-.587c.527.03 1.318.227 1.76-.294.372.402.54.164.94.146z"/><path fill="#FDE4A5" d="M41.107 33.305c.046 0 .065.012.059.073-.472.313-.813.653-.763 1.394.018.249.154.559.294.734l-3.52-2.053c.789.008 1.563-.044 2.348-.073-.103.23.741.74.792.734.042-.004.5-.578.498-.734.11-.008.156-.079.294-.073zM40.93 32.204c-.012.018-.044.113-.058.146-.121.292-.218.316 0 .66-1.447-.003-2.963.332-4.284-.255-.003-.115.6-.346.704-.405 1.198.328 2.427.132 3.55-.44zM39.875 36.019c-.016.189.122.258.117.512a2.07 2.07 0 0 0-1.467-1.027c-.414-.061-.649.037-.998.294.063-1.312-1.213-1.385-1.907-.807-.262.219-.469.359-.44.734h-.117c0-.288-.186-2.028.03-2.126 1.582.836 3.184 1.635 4.782 2.42"/><path fill="#FFF0CC" d="M22.918 40.2c-.049.294.297.183.44.294.158.122.27.373.324.588.005.017-.106.213-.058.366.067.217.135.28.235.44 1.128 1.817 8.308 2.497 10.21 2.42-.15.136-.379.152-.557.146-1.966-.057-8.183-.542-9.623-2.126-.553-.607-.128-1.23-.529-1.613-.423-.405-1.21-.05-1.672-.367q.055-.037.116-.073c.333-.045.814-.014 1.116-.073z"/><path fill="#FBC868" d="M29.431 33.086c.024-.252.014-.387-.117-.588.602-.347 2.325.334 2.787.146.057-.023.142-.311.263-.367.078.044 1.357.602 1.028.734l-3.96.073zM48.853 38.806c-.123.234-.955.35-1.116.733-.378-.217-.788-.379-1.174-.588.027-.069.264-.22.294-.22.543.021.535.274 1.232 0 .237-.093.396-.148.529-.44.085-.188.035-.217.058-.367.003-.024-.003-.05 0-.073.444-.243.242.826.177.953z"/><path fill="#FDE4A5" d="M42.046 37.12c-.246-.012.024.203-.146.22-.338.032-1.433-1.01-1.731-.44-.098-.301-.074-.183-.177-.367.003-.254-.133-.323-.117-.512.728.357 1.447.737 2.171 1.1zM40.814 33.378c.002.155-.456.73-.499.733-.05.006-.894-.502-.792-.733.428-.016.865.03 1.291 0"/><path fill="#AF892E" d="M42.34 32.644c-.013.028-.007.15-.059.221-.034 0-.531.25-.645.294-.2.075-.276.09-.47.22.006-.06-.013-.07-.058-.072.129-.213-.108-.093-.236-.294-.217-.345-.121-.369 0-.66-.105 1.06 1.03.206 1.468.293z"/><path fill="#FFF0CC" d="M36.12 40.2c.008 0 .108.146.116.146l-1.173.588v-.661c.295.108.803-.099 1.055-.073z"/><path fill="#FDE4A5" d="M34.594 32.28c-.02.163.065.662-.088.733-.054.026-1.046-.523-.909-.734.424.067.584.046.997 0"/><path fill="#AE532E" d="M50.025 40.934a.9.9 0 0 0-.47.073l-.88-.513c.079-.122.031-.095.177-.221.378.239.836.428 1.173.66M21.45 40.419c-.329.209-.652.542-.996.734-.059-.038-.166-.142-.177-.146l1.115-.807c.016.047.005.144.059.22z"/><path fill="#AAB938" d="M32.6 24.357a3 3 0 0 1-.823.88c-.26.187-.55.287-.822.44-.168-.616-.04-.69.294-1.174.3.088 1.36-.983 1.437-.953.27.098-.169.617-.088.807z"/><path fill="#B39931" d="M32.541 25.384c.163.012.35-.059.47.146-.446.259-1.555.326-2.054.221-.008-.018.006-.05 0-.073.271-.152.562-.252.822-.44.018.278.524.13.762.146"/><path fill="#7B7B32" d="M33.068 24.21c-.229.117-.098.42-.323.661-.114.12-.403.109-.499.33l.293.183c-.238-.018-.744.132-.762-.146.338-.242.578-.5.822-.88.136-.21.248-.372.264-.66.112.06.167.37.205.512"/><path fill="#87782F" d="M33.068 24.21c.106.395.14.794.117 1.212-.047.122-.134.084-.177.11-.12-.205-.306-.134-.47-.146l-.293-.183c.096-.223.385-.21.498-.33.226-.238.095-.542.324-.66z"/><path fill="#B57F73" d="M26.145 28.684c.305.148.319.254.529.367.396.21.82.363 1.232.513-.008.037.005.1 0 .145l-.235.221c-.055-.011-.12 0-.177 0-.077 0-.017-.082-.177 0l-1.525-.952c-.068.013-.055-.071-.059-.073l.41-.221z"/><path fill="#fff" d="M27.32 29.932c-.19.099-.328.492-.5.588-.12.067-1.173.11-1.29.073-.232-.073-.552-.647-.557-.953.027-.13-.122-.177.03-.293.07-.056.678-.152.792-.367z"/><path fill="#B57F73" d="M27.319 29.932c.158-.082.1 0 .177 0-.237.67-.652.975-1.233 1.028-.524.047-.667-.032-1.115-.294-.254-.323-.262-.608-.177-1.028.005.308.325.882.557.953.118.037 1.17-.006 1.29-.073.173-.097.31-.487.5-.588z"/><path fill="#FDE4A5" d="m49.44 33.526.645.44q.002.036 0 .072c-.008.105.209.148.03.294-.238-.185-1.123-.447-1.262-.073-.191-.513-1.338-.712-1.73-.587-.039.011-.653.473-.676.512-.767 1.346.932 1.775 1.7 1.614.359.004.873.234 1.203.44.25.153.134.368.675.587.08.032.26.061.352.073.548.07.787.002 1.29-.294.622-.364.9-.966 1.438-1.394.338-.268.832-.325 1.116-.734l.205.221c-.374 1.848-1.493 1.132-1.878 2.493l-.41.807a1 1 0 0 0-.352.146c-.46-.269-.803.627-1.027.806-.696.559-1.209.13-1.908-.145.067-.127.269-1.196-.176-.953.022-.205.107-.46.058-.696-.085-.42-1.063-1.397-1.409-.77a2.5 2.5 0 0 0-.177.513c-.102-.004-.503.31-.528.367-.492-.093-.975-.201-1.438-.44-.053-.027-.022-.142-.03-.146-.045-.666.324-1.282-.41-1.467l.059-.184c.04.44 1.301.365 1.349.294-.08-.122-1.02-.93-1.086-.917-.019.004-.128.25-.264.367.016-.106.041-.185.059-.294.006-.045 0-.1 0-.146-.017-.52-.122-.526-.47-.806h5.052"/><path fill="#FDE4A5" d="M54.427 33.526c.057.002.062.07.117.073-.082.264-.088.954-.117 1.1l-.205-.22c-.284.408-.776.463-1.115.733-.538.428-.816 1.028-1.438 1.394.215-.443.385-.706.235-1.246-.053-.195-.15-.351-.293-.44.448-.19 1.101-.209 1.349-.769-.013-.051-.199.026-.235.037.005-.059.04-.082.058-.146.25-.02.251-.297.294-.512.448.014.9-.018 1.349 0z"/><path fill="#FFF0CC" d="M48.03 27.658c-.604.939-.066 1.061.353 1.578.022.028-.053.142.058.256.688.712 1.898.772 2.23-.44.24.101 1.227.226.997.734-.128.004-.559.213-.704.294-.096.053-.229-.035-.235.294-.529.128-.568 1.024-.822 1.395l-.059.072c-.028.036-.637.5-.675.513-.377.154-1.865.326-1.907-.367.228-.165.43-.396.586-.66.47.335.816.58 1.35.183.009-.08-.952-.86-1.116-.77.227-.58.554-.916 0-1.1-.41-.136-1.502-.085-1.878.146h-.557c1.097-.26 1.327-1.546 2.377-2.126z"/><path fill="#7B7B32" d="M38.35 29.638c-.002.012.045.034.058.221-.287.213-1.32.424-1.233.807-.325-.201-.12-1.456.03-1.54.348-.198.816.437 1.145.512"/><path fill="#7B7B32" d="M38.408 29.857c.012.178.001.343.058.513-.293.055-1.066.432-1.29.294-.087-.383.945-.594 1.232-.807"/><path fill="#C59D34" d="M38.82 29.565c-.144.334.394.82-.03.953-.056.018-.307-.15-.324-.146-.057-.17-.046-.335-.058-.513-.013-.177-.062-.209-.059-.22.015-.07.059-.139.117-.147.13.032.205.091.352.073z"/><path fill="#FDE4A5" d="M46.388 32.352c.098-.023.264-.04.352-.073.75.272 1.92 1.294 2.582.588 0 .063-.048.073-.059.146-.01.069.007.15 0 .22-.34-.167-4.801-.163-5.516-.145h-.177c-.13-.225-.396-.227-.587-.294.456-.943 1.611-1.235 2.377-.807.072.042-.135.162-.089.33.101.374.885.09 1.116.037z"/><path fill="#FFF0CC" d="M44.392 30.005c.007-.014.05-.239.059-.294.12.006.861.422.88.478.011.033-.207.485-.235.66-.016.099.167.46-.03.696-.085.105-2.12-.155-2.376-.256.085-1.24 1.344-.517 1.7-1.284z"/><path fill="#BDCB31" d="M42.456 32.498s-.112.136-.117.146c-.436-.087-1.573.767-1.467-.294.014-.035.046-.128.059-.146.42-.595 1.052-.21 1.614-.073.067.093-.056.267-.089.367"/><path fill="#7B7B32" d="M48.09 30.739c-.067.167-.155.451-.236.587a2.2 2.2 0 0 1-.587.661c-.145.105-.37.233-.528.294-.089.034-.254.05-.352.073-.86-.097-.91-.256-.762-1.284l2.17-.513-1.29.184c.017-.008.194-.245.294-.294.203-.099.547-.36.733-.44.038-.016.721.122.557-.367.554.182.227.519 0 1.1z"/><path fill="#90B63E" d="M48.09 29.638c.163.49-.52.351-.558.367-.184.08-.53.341-.733.44-.299-.223-.662-.053-.998-.073.055-.152.302-.52.41-.588.376-.23 1.468-.282 1.878-.146"/><path fill="#BDCB31" d="M46.799 30.445c-.1.05-.276.284-.294.294-.407.201-.96.331-.704-.367.338.02.7-.15.998.073"/><path fill="#F4B259" d="M42.985 32.792c.19.067.456.069.587.294-.194.006-.393-.014-.587 0-.151.09-.667-.221-.704-.221.052-.07.046-.191.059-.221.004-.01.113-.136.116-.146.21.41.297.213.529.294"/><path fill="#7B7B32" d="m43.982 28.465.235.44c-.203.015-.533.364-.762.404-.181.246.322.3.382.477l-.557-.183c.162.201.38.248.587.33-.03.198-.178.114-.235.145-.256.044-.688-.26-.762.221-.2.008-.799.077-.762-.294l.116-.513c.131-.118.352-.71.41-.769.242-.246 1.066-.183 1.35-.256z"/><path fill="#CABB5B" d="M44.334 28.905c.306.094.169.506.117.806a7 7 0 0 1-.059.294l-.323-.146c.375.426.055.178-.205.073-.207-.08-.425-.13-.587-.33l.557.184c-.059-.177-.564-.23-.382-.477.229-.038.559-.387.762-.404.036-.004.087-.01.117 0z"/><path fill="#B39931" d="M43.63 30.078a2 2 0 0 1-.762.221c.076-.48.507-.177.762-.22"/><path fill="#CABB5B" d="M43.337 25.384v.073c.031.761.566 1.142 1.115 1.32.161.213.296.414.177.733-.66.168-.806.052-1.349-.44a3 3 0 0 1-.293-.293c-.084-.093-.548-.604-.529-.697.183-.073.34-.359.47-.477.078-.07.305-.233.41-.22z"/><path fill="#929938" d="M42.985 26.777c.125.138.158.171.294.294l.293.329c-.136.032-.283.146-.41.183-.155.046-1.067.194-1.116.11-.035-.056.065-.362-.058-.404.053-.368.096-.63.263-.952z"/><path fill="#B39931" d="M44.628 27.51c-.014.04-.439.568-.499.588-.09.03-1.748.16-1.847.146-.184-.55 1.24-.146.88-.66.128-.038.274-.152.41-.184l-.293-.33c.542.492.688.608 1.349.44"/><path fill="#87782F" d="M43.162 27.585c.361.513-1.064.11-.88.661-.55-.07-.373-.42-.294-.952.123.039.025.345.058.404.05.083.961-.065 1.116-.11z"/><path fill="#BDCB31" d="M18.048 34.7c.107.05.47.486.528.512-.02.136-.184.22-.235.294-.656.306-1.193-.215-1.82-.146-.127-.173-.392-.242-.47-.55-.006-.13.105-.2.177-.257.535-.435 1.283-.106 1.82.146"/><path fill="#B39931" d="M18.34 35.506c-.064.095-.037.233-.234.367-.829.564-1.078.175-1.585-.513.627-.069 1.162.452 1.82.146"/><path fill="#FDE4A5" d="M18.047 34.7c-.536-.255-1.284-.583-1.819-.147.055-.29.368-.193.529-.404.022-.03.162-.73.323-.696.144.7.672.737.969 1.246zM23.153 35.066c.09.23.183.523.293.734-.309.38-.497.158-.528.66-.42-.477-.97-.72-1.526-.806.499-.38 1.245-.357 1.761-.588"/><path fill="#C3BD30" d="M24.15 33.966c.255.13.423.248.676.366.43.201.861.529 1.32.588.087.249.161.112.177.183.047.212-.008 1.04-.147 1.137-.014.01-.233-.024-.323 0l-.147-.221.352-.073-2.318-1.687c.022-.065.11-.44.147-.44.066.352.241.135.264.146"/><path fill="#929938" d="M26.145 34.918c-.458-.057-.89-.386-1.32-.588-.253-.116-.422-.236-.676-.366.174-.117.808-.569.969-.513.13.045.934 1.199 1.027 1.467"/><path fill="#7C8837" d="M25.851 36.24c-.034.01-.08-.008-.116 0-.273.06-.635.187-.91.145-.501-.075-1.167-1.005-1.202-1.613-.01-.2.034-.235.059-.367.028-.148.056-.14.058-.146l2.318 1.687-.352.073.147.22z"/><path fill="#AAB938" d="M24.092 35.433c.502.615.816.525 1.467.696-.677.12-1.059-.053-1.467-.696M24.092 35.433c-.134-.164-.357-.383-.323-.661.145.14.231.517.323.66"/><path fill="#607835" d="M28.551 33.453c.095.055.196.098.294.146.053.181.142.057.03.22-.485.705-1.577.999-2.201.44-.177-.157-.41-.627-.47-.88-.018-.074.01-.202 0-.293-.004-.024 0-.05 0-.073-.012-.12-.086-.225-.059-.44.464.977 1.538 1.574 2.406.88"/><path fill="#AAB938" d="M29.313 32.498c.131.2.14.334.117.588-.008.077-.093.213-.117.367-.014.092-.088.104-.116.294a3 3 0 0 1-.352-.146c-.098-.048-.2-.091-.294-.146-.16-.095-.328-.286-.498-.367-.548-.26-1.4-.31-1.731-.807.087-.08.609-.31.675-.294.043.012.19.28.235.294.254.075.474-.173.704-.146.28.032 1.254.176 1.379.367z"/><path fill="#649540" d="M26.322 32.28c.331.498 1.183.546 1.73.806.171.08.338.272.5.367-.867.694-1.943.096-2.407-.88.047-.369.06-.185.177-.294"/><path fill="#FDE4A5" d="M25.147 30.664c.449.262.59.34 1.116.294.068.304.167 1.477-.264 1.32-.096-.036-1.484-1.628-1.173-1.908.12.138.17.203.323.294z"/><path fill="#FDE4A5" d="M25.735 28.905s-.01.086.058.073c-.113.215-.721.311-.792.367-.152.114-.003.163-.03.293-.085.419-.079.703.177 1.028-.153-.089-.204-.156-.324-.294-.31.28 1.076 1.872 1.174 1.907.432.158.331-1.015.264-1.32.58-.05.995-.356 1.232-1.027.057 0 .122-.011.177 0 .909.186 3.697 1.801 4.694 2.347-.123.056-.207.343-.264.367-.462.188-2.185-.495-2.786-.146-.125-.191-1.098-.335-1.38-.367-.231-.025-.449.223-.703.146-.046-.014-.19-.282-.235-.294-.065-.017-.589.214-.675.294-.117.109-.13-.075-.177.294-.027.215.049.32.058.44-.377-.067-1.128-.688-1.437-.734-.475-.069-.996.383-1.35.44-.032.006-.4-.09-.556-.073.35-.059.803-.424.88-.88a1.5 1.5 0 0 0-.058-.66c-.114-.33-.409-.365-.645-.478.279-.094.512-.39.733-.55.032-.023.136.128.294 0 .46-.375.602-1.26 1.202-1.394.155.083.344.152.47.22z"/><path fill="#929938" d="M28.58 31.546c.514.033.51.451.176.587-.288.117-.656-.138-.88-.146-.186-.005-.469.306-.675.11.205-.289 1.088-.57 1.379-.55z"/><path fill="#90B63E" d="M40.462 27.291v.073c-.699.523-1.486.643-2.113 1.395-.142.171-.258-.02-.293.587-.136-.112-.19-.256-.352-.329l.235-.073-.088-.11c-.118.092-.268-.002-.324 0-.142-.332-.055-.96.177-1.174.306-.282 2.373-.518 2.758-.367z"/><path fill="#607835" d="M40.638 27.364c.104.602-.682 1.935-1.174 2.126-.14.054-.483.054-.646.073-.146.018-.222-.041-.352-.073-.325-.694-.108.105-.41-.146.035-.607.152-.416.294-.587.716.548 2.038-.434 2.112-1.395v-.073c.065.026.093.103.177.073z"/><path fill="#649540" d="M38.35 28.759c.624-.75 1.413-.87 2.112-1.395-.074.96-1.396 1.943-2.112 1.395"/><path fill="#FFF0CC" d="M30.31 40.2c-.441.31-.708.653-.645 1.32.071.749.836 1.19 1.35 1.319-.886.939-2.34-.907-2.817-1.834-.131-.255-.209-.647-.47-.807.009-.03-.005-.1 0-.146.123.176.313.33.44.513.074-.395.19-.682.205-1.1.612.124 1.057.656 1.73.512l.206.221z"/><path fill="#BDCB31" d="M24.97 40.567c-.048 0-.06.053-.116.073-.385.14-.748.446-1.174.44-.054-.213-.164-.466-.323-.588-.144-.11-.49 0-.44-.294.46-.09.378-.211.675-.294.24-.067 1.428.095 1.495.404a.8.8 0 0 0-.116.257z"/><path fill="#fff" d="M34.125 36.459c-.005.023.005.05 0 .072-.236.375-.39.624-.792.588.403.314-.948.343-1.174.294-.13-.03-.572-.457-.675-.588-.032-.04-.085-.177-.117-.22.78-1.446 1.764-.918 2.758-.146"/><path fill="#A57388" d="M34.125 36.68c-.04.147.04.378-.058.623-.313.783-2.33.767-2.582-.038-.028-.089.02-.32 0-.44.103.129.543.558.676.588.224.051 1.576.02 1.174-.294.402.038.555-.21.792-.587-.01.039.01.11 0 .145z"/><path fill="#929938" d="M33.187 38.366c.015.136.132.116.176.22-.325.216-.924 1.054-1.29 1.064-.12.004.01-.23-.177-.184.022-1.566.415-.952 1.29-1.1"/><path fill="#FDE4A5" d="M31.603 42.914c.615.035 1.06-.142 1.642-.221.101-.014.19-.06.264-.146.216 1.398-1.106.487-1.701.66z"/><path fill="#F2D081" d="M26.145 41.226c.165.075.907.564.997.145.12.054.232.162.352.221-.125.067-.343.257-.499.294-.04.01-.019-.152-.058-.146-.14.018-.07.146-.117.146-.319.01-1.055-.134-1.202-.55-.087-.247.006-.264 0-.33.172.081.355.143.528.221z"/><path fill="#7C8837" d="M33.362 38.587c.181.435-.237 1.047-.587 1.173-.276.1-.7-.027-.88 0v-.294c.186-.045.056.188.176.184.366-.01.966-.85 1.29-1.063"/><path fill="#FFF0CC" d="M34.419 41.886c-.084.15-.494.475-.646.367a2.1 2.1 0 0 0 .352-.66c.063-.26.068-.541 0-.807.575-.221.481.763.294 1.1"/><path fill="#7C8837" d="m29.548 36.973 1.526 1.247c-.214.156-.806.755-.939.806-.757.294-.834-1.138-.997-1.76.273-.376.234-.176.41-.295z"/><path fill="#AF892E" d="M30.135 39.026c.04.136.322.306.41.294l.03.367c-.45-.302-1.383.148-1.672-.33-.289-.477-.101-1.626.235-2.09.164.623.24 2.053.997 1.761z"/><path fill="#CABB5B" d="M31.368 36.606c.031.044.085.18.117.221.018.12-.029.351 0 .44-.155.15-.17.51-.41.44-.09-.357-.537-.81-.588-1.247.065-.035.485-.453.557-.44.087.016.237.472.324.588z"/><path fill="#929938" d="M30.487 36.459c.05.435.497.889.587 1.246.02.08.115.314-.03.294l-1.496-1.028c.299-.197.632-.339.94-.512"/><path fill="#BBA835" d="M30.546 39.32c-.089.012-.373-.158-.41-.294.132-.05.724-.65.938-.806.017-.012.112.084.264-.221.126.229-.7 1.307-.793 1.32z"/><path fill="#F4B259" d="M24.325 41.813c-.17.067-.29.103-.47.073-.1-.16-.167-.225-.235-.44.281.24.62.004.88-.145a7 7 0 0 0-.176.512z"/><path fill="#E5B975" d="M24.326 41.813c.022-.086.153-.469.176-.512.09-.176.314-.38.352-.661.056-.02.068-.071.117-.073-.036.548-.167 1.061-.645 1.246"/><path fill="#FFF0CC" d="M38.995 38.66c.02.013.347.374.352.404-.108.538-.636.505-.117 1.063-.08.016-.227.05-.294.073-.399.018-.568.254-.938-.146.254-.3.284-.901.351-1.284-.058-.083-.173-.008-.235-.038-.561-.266-1.34-.283-1.936-.293.16-.178.608-.237.85-.221.258.017.89.376 1.175.44.12.027.35-.282.792 0z"/><path fill="#BDCB31" d="M37.469 42.326c.136.361.133.588 0 .953-.068.19-.185.363-.352.44.01-.066-.016-.182 0-.221.003-.006.125.02.117-.038-.014-.108-1.133-1.094-.88-1.797.457-.333.916.139 1.115.661zM44.627 39.979c.071.016.18-.024.235 0 .072.03.24.235.352.256.034.105-.12.164-.116.257h-.059c-.473.286-1.049.637-1.584.588-.022-.249-.095-.109-.058-.588.331-.746.591-.663 1.232-.513z"/><path fill="#FFF0CC" d="M45.156 40.859c.032-.144-.055-.227-.058-.367-.002-.093.15-.152.117-.257-.114-.023-.281-.227-.352-.256.29-.024.426-.52.675-.513.385.012 1.236 1.227.47 1.468-.304.094-.577-.17-.85-.073z"/><path fill="#F2D081" d="M36.237 41.813c-.425.787.14 1.83.88 1.687-.016.037.01.155 0 .22-.863.395-2.064-.633-1.526-1.834.221-.01.425-.09.646-.073"/><path fill="#7B7B32" d="M41.284 39.172c-.115.381.683.96.704 1.137-.008.268-.278.078-.47.037-.48-.105-1.042-.286-1.526-.294.21-.65 1.163-2.051 1.789-1.613-.017.978-1.324.44-1.614 1.503.372-.507.683-.537 1.115-.77z"/><path fill="#929938" d="M42.75 39.76c-.152.397-.37.576-.47 1.028-.002.008-.03-.01-.059.146-.19-.162-.432-.537-.704-.44-.053-.087-.06 0 0-.146.191.041.463.233.47-.038-.02-.175-.818-.755-.703-1.136.273-.148.55-.07.645-.66.169.495.409 1.005.822 1.246z"/><path fill="#CABB5B" d="m43.22 38.954-.41.806c-.016-.01-.043.01-.059 0-.411-.24-.653-.751-.822-1.246-.086-.257.243-.206-.235-.33.198-.185 1.261.326 1.438.478.208.177.079.284.088.293z"/><path fill="#FDE4A5" d="M37.88 42.032c.045.018.09.1.118.146.48.77.517.829 1.349.953l.03.22c-.601.387-1.165-.441-1.35-.439-.062 0-.405.406-.556.367.132-.367.135-.594 0-.953.421-.02.044-.45.146-.806l.206.623z"/><path fill="#FFF0CC" d="M42.163 41.886c.11-.406.025-.769.059-.953.028-.157.056-.138.058-.145 1.526.153 1.17.966-.117 1.1z"/><path fill="#F2D081" d="M45.156 40.859c-.19.868-.964 1.228-1.614.952-.287-.256-.025-.483-.03-.512.734.426 1.254.069 1.526-.807h.058c.003.14.09.223.059.367z"/><path fill="#FFF0CC" d="M44.627 39.979c-.64-.15-.9-.233-1.232.513.013-.174.186-.456.147-.513-.174-.156-.6-.14-.734-.22l.41-.808c.128.135.545.695.616.734.194.107.849-.095.792.294z"/><path fill="#B39931" d="M43.514 41.3c-.012-.072-.048-.088-.059-.22.537.051 1.11-.302 1.584-.588-.271.878-.792 1.233-1.526.807z"/><path fill="#E5B975" d="M47.15 36.898c-.102.586-.157 1.057.235 1.468.237.246.43.262.704.367-.696.274-.69.021-1.232 0-.24-.361-.422-1.026-.235-1.468.023-.057.426-.37.528-.367"/><path fill="#D6B545" d="M44.98 36.825c-.14.215-.113.255-.441.294-.715.085-1.714-.092-2.024-1.027.019.004.04-.004.058 0 .54.13.557.45.909.587.352.139 1.082.038 1.496.146z"/><path fill="#FBC868" d="M39.699 37.705c-.93 1.507-2.323.034-3.169-.88.298-.037.59-.108.822-.367.313 1.18 1.496 1.452 2.348 1.247z"/><path fill="#BDCB31" d="M38.114 38.733c.283.197-.151.477-.293.66l-1.878.221c-.147-.377-.022-.887.235-1.173.595.01 1.374.027 1.936.293z"/><path fill="#EACF9D" d="M37.997 40.052c-.441.52-1.234.323-1.76.294-.009 0-.11-.146-.117-.146l.058-.221c.704.389 1.212-.03 1.643-.588.142-.183.575-.463.293-.66.06.03.177-.046.235.037-.068.383-.098.984-.352 1.284"/><path fill="#B39931" d="M37.82 39.393c-.432.556-.938.977-1.642.588a3 3 0 0 1-.235-.367z"/><path fill="#FBC868" d="M51.786 38.147c.027-.036.278-.142.352-.146.633-.038-.84 2.033-1.055 1.65.53-.256.525-1.268.703-1.502z"/><path fill="#B39931" d="M37.117 43.5c-.738.144-1.305-.902-.88-1.687.045-.083.042-.093.116-.146-.252.702.866 1.69.88 1.797.009.057-.114.03-.116.038z"/><path fill="#B67D8A" d="M35.18 35.725c.075.962 1.656.822 2.172.44.013.088-.019.223 0 .294-.232.258-.524.329-.822.366-.619.08-1.076-.175-1.468-.806v-.294z"/><path fill="#fff" d="M37.529 35.8c-.015.01-.082.297-.177.367-.514.382-2.097.52-2.171-.44-.029-.375.178-.515.44-.734.694-.578 1.97-.505 1.908.807"/><path fill="#AF892E" d="M24.854 40.64c-.038.28-.262.485-.352.66-.26.153-.6.385-.88.147-.048-.154.063-.35.058-.367.426.006.789-.3 1.174-.44"/><path fill="#BDCB31" d="M48.676 37.853c-.003.023.003.05 0 .073-.077.41-.568.128-.733 0-.382-.296-.553-1.026-.616-1.54.346-.628 1.322.349 1.41.769.048.236-.037.49-.06.696z"/><path fill="#AF892E" d="M48.676 37.926c-.025.15.027.18-.058.367l-1.232.073c-.393-.41-.336-.882-.235-1.468.02-.122.113-.4.176-.513.064.515.234 1.245.616 1.54.165.13.656.411.733 0"/><path fill="#D19533" d="M48.618 38.293c-.133.292-.292.347-.529.44-.274-.105-.468-.12-.703-.367z"/><path fill="#FDE4A5" d="M30.839 20.763c.115-.004.236-.006.352 0 1.448.073 2.224 1.227 3.403 1.54.114.405.006.83 0 1.247-.344.156-1.55-.509-1.731-.44-.06.022 0 .187-.058.22-.553.3-1.157.595-1.555 1.175-.332.485-.462.558-.293 1.173.006.024-.008.055 0 .073.107.25.196.379.44.44.281.07 2-.205 2.083-.477.103-.336-.25-1.208-.147-1.284.302.644.958 1.356 1.086 2.09.203 1.17-.712 1.572-.177 2.752-.789.011-2.258.414-2.171 1.686.025.379.275.76.529.952l-4.695-2.2c.005-.048-.007-.111 0-.147.158-.676-1.079-.887-1.467-.952-.076-.182-.268-.819-.44-.807-.155.012-.055.221-.117.221-1.275-.018-1.974-1.582-2.523-1.686-.7-.134-.833.232-1.76-.221-.106-.051-.177.104-.236.073-.128-.07-.17-.677-.323-.917-.212-.336-.99-.17-1.291-.038.62-.854 1.868-1.116 2.787-1.1.273.004.566.3.997.22.63-.116 1.587-1.392 2.23-1.686.498-.229 1.132-.162 1.583-.367.365-.165.8-.818 1.233-1.027.402-.194 1.825-.5 2.26-.513"/><path fill="#FFF0CC" d="M28.667 27.07c0-.173-.012-.161-.058-.294-.104-.293-.587-.688-.822-.733l-.557-.073.147-.294c.752.152 1.74.097 2.464-.22.576 1.009-.591 1.287-1.174 1.612z"/><path fill="#F2D081" d="M24.502 24.723c.058.963.388 1.316 1.174 1.174-.559 1.148-2.515-.19-1.496-1.1.1-.09.286-.05.324-.074z"/><path fill="#BDCB31" d="M25.734 25.824c-.533-.012-1.213-.533-1.056-1.32.63-.274 1.313.482 1.056 1.32"/><path fill="#FBC868" d="M32.541 28.832c-.734.86-1 1.4-2.024.733-.106-.069-.56-.396-.382-.588.517.58 1.024.296 1.584.146.205-.055.62-.205.822-.293z"/><path fill="#BDCB31" d="M32.306 22.01c-.653.335-1.403.593-2.113.44-.012-.1-.112-.316-.058-.478.022-.067.563-.67.675-.696.482-.11 1.222.246 1.701.367.049.22-.177.325-.205.366"/><path fill="#F4B259" d="M30.252 22.67c.334.21.957.318 1.32.221.238-.063.368-.359.557-.513.06-.05.22-.126.294-.183-.144 1.23-1.783 1.574-2.172.477z"/><path fill="#B39931" d="M32.306 22.01c-.068.1-.175.22-.177.366-.189.154-.318.45-.557.513-.36.097-.986-.01-1.32-.22-.033-.091-.044-.107-.059-.222.709.154 1.46-.104 2.113-.44z"/><path fill="#fff" d="M27.787 26.045c.235.045.718.44.822.734-.065 1.524-2.31 1.256-2.64 0 .11-.69 1.296-.835 1.82-.734z"/><path fill="#C9A9BB" d="M28.609 26.777c.047.13.058.12.058.293.002.458-.323.914-.645 1.101-.207-.373-.827-.13-1.262-.294-.272-.102-.486-.37-.734-.513-.055-.195-.091-.382-.058-.587.331 1.256 2.576 1.524 2.64 0z"/><path fill="#B0839E" d="M28.022 28.171c-.636.367-1.742.083-1.994-.806.248.142.462.412.734.512.435.164 1.055-.079 1.262.294z"/><path fill="#B39931" d="M25.734 25.824c-.03.1-.057.069-.058.073-.784.142-1.116-.211-1.174-1.174.085-.055.05-.165.177-.22-.158.786.524 1.307 1.055 1.319z"/><path fill="#FDE4A5" d="M25.763 26.558c.33-.028.015 1.39-.324.769-.199-.365.153-.553.323-.77"/><path fill="#607835" d="M31.542 28.392s.037-.026.117.073c.125.152.174.134.294.256l-.235.404c-.56.148-1.067.434-1.585-.145-.247-.277-.476-1.202-.47-1.614.453.708 1.143 1.669 1.878 1.028z"/><path fill="#AAB938" d="M31.66 28.465c-.08-.099-.111-.067-.116-.073-.6-.66-1.14-.903-1.82-1.395.08-.124.288-.183.41-.22.384.42 1.162.165 1.615.587.358.334.382.963-.088 1.1"/><path fill="#649540" d="M31.542 28.392c-.735.641-1.425-.32-1.877-1.028.003-.157-.032-.223.058-.366.68.49 1.22.733 1.82 1.394"/><path fill="#929938" d="M32.541 28.832a8 8 0 0 1-.822.294l.235-.405c-.12-.122-.169-.104-.294-.256.47-.138.447-.767.089-1.1-.453-.423-1.23-.166-1.614-.588.718-.213.972.098 1.614.366l-.529-.512c.595.15 2.236.552 1.966 1.723-.006.03-.3.464-.323.478-.063.035-.248-.034-.324 0z"/><path fill="#DED092" d="M32.541 27.585c-.19-.142-.533-.162-.704-.404.286-.05.502.215.704.404M32.893 28.025a11 11 0 0 0-.352-.44c.224.17.229.109.352.44M33.01 28.17c.192.14-.251.238-.352.257z"/><path fill="#DED092" d="M33.01 28.171c-.16.036-.094-.08-.117-.146.012.018.129.06.116.146"/><path fill="#7F1416" d="M30.663 24.577c-.11.507-.465.726-.822.88-.723.316-1.712.37-2.464.22-.551-.11-1.248-.39-1.291-1.246.772 1.383 2.256 1.247 3.432.953l1.144-.807z"/><path fill="#ED1F24" d="M28.492 22.743c-.065.328-.467.158-.645.257.492.025.493.53 0 .294.312.696-.174-.085-.294.145.636.584-.11.103-.117.367l.147.257c-.562-.284-.18-.016-.41.44.172-.32.222.076.235.072.144-.033.26-.67.557-.183.197.323-.25.233-.352.44.098.26.276-.087.294 0 .112.548-1.215-.187-1.291-.588-.1-.532.181-.771.44-1.063-.457.201-.861.525-.675 1.211.344 1.256 3.332 1.168 3.932.073.48-.876-.336-1.105-.85-1.357-.108-.053-.291-.065-.089-.22.713.2 1.53.585 1.29 1.685l-1.143.807c-1.176.294-2.66.43-3.432-.953-.068-1.343 1.605-1.686 2.406-1.686z"/><path fill="#F68E73" d="M26.878 23.77c.328-.082.054.437-.088.184-.027-.05.061-.177.088-.183"/><path fill="#F15D59" d="M27.172 23.256c.044-.014.263-.012.263.037l-.323.11c-.059-.037.044-.141.058-.145z"/><path fill="#F2B079" d="M26.995 23.477c.22-.04-.02.304-.089.11a.6.6 0 0 1 .089-.11"/><path fill="#F68E73" d="M27.055 24.284c.082.013-.02.226-.059.22-.082-.013.02-.226.059-.22"/><path fill="#F15D59" d="M29.371 22.891c-.203.154-.019.168.088.22.515.253 1.33.482.85 1.358-.599 1.095-3.587 1.183-3.931-.073-.186-.684.218-1.008.675-1.211-.257.294-.54.53-.44 1.063.076.4 1.403 1.136 1.29.588-.017-.087-.195.26-.293 0 .103-.21.55-.119.352-.44-.296-.487-.413.15-.557.183-.013.002-.063-.394-.235-.073.23-.455-.151-.724.41-.44l-.146-.256c.007-.264.752.217.116-.367.12-.23.606.55.294-.146.494.239.492-.268 0-.294.18-.098.58.072.645-.256.284 0 .604.07.88.146z"/><path fill="#ED1F24" d="M28.991 23.11c.343-.13 1.365.428 1.262 1.063-.06.365-1.46 1.341-1.642.588 0-.24.56.14.117-.294l.088-.183c.409-.054.644.441 1.027.183-.768-.12-.19-.19-.235-.367-.011-.043-.23-.108-.235-.146-.02-.181.169-.07.177-.146.098-.968-.59.276-.762-.073l.528-.44c-.274-.13-.306.13-.498.257-.125-.09.124-.42.176-.44z"/><path fill="#F49257" d="m29.695 24.065.264.11c-.086.132-.362-.047-.264-.11"/><path fill="#EF6442" d="M28.933 24.797c.02-.018.129-.012.146.037.044.122-.334.124-.146-.037"/><path fill="#FFF0CC" d="M50.085 34.039c.198.138.373.207.587.294-.159.798-1.252.305-1.173 1.54.023.37.288.745.528.952-.541-.219-.426-.431-.675-.587-.33-.205-.846-.436-1.203-.44.013-.002.18-.119.236-.146.443-.237.687-.81.47-1.395.139-.374 1.024-.112 1.262.074.178-.145-.038-.19-.03-.294z"/><path fill="#EC9D32" d="M49.263 33.232c.115.057.125.175.177.294h-5.046c-.186-.15-.597-.166-.645-.44.714-.018 5.176-.022 5.516.146z"/><path fill="#fff" d="M48.853 34.26c.218.583-.027 1.157-.47 1.394l.088-.294c-.947.087-2.062.515-2.024-1.173.023-.04.636-.501.675-.513.393-.127 1.54.073 1.73.587z"/><path fill="#9B6373" d="M48.383 35.652c-.055.03-.223.144-.235.146-.77.162-2.468-.268-1.701-1.613-.038 1.688 1.076 1.26 2.024 1.173z"/><path fill="#FBC868" d="M51.61 34.918a1.3 1.3 0 0 0-.41-.146l.117-.22c.739.098.788-.16 1.41-.367.036-.012.22-.087.235-.038-.248.56-.901.582-1.35.77z"/><path fill="#FDE4A5" d="M49.85 31.837c-.114.223-.393.884-.528 1.028-.663.706-1.832-.316-2.582-.588a2.7 2.7 0 0 0 .529-.294c.04.693 1.529.521 1.907.367.038-.016.647-.477.676-.513zM47.856 31.325c.08-.136.169-.418.235-.588.163-.089 1.124.69 1.116.77-.535.396-.88.151-1.35-.184z"/><path fill="#CABB5B" d="M51.67 29.784c.373-.01 1.012.62 1.173.99.161.371.128.746.177 1.136-.08-.002-.055.077-.058.146-.382-.516-1.214-.278-1.468-.99-.052-.146-.077-.765-.116-.806-.11-.119-.417.104-.41-.184.144-.08.575-.29.703-.294z"/><path fill="#7B7B32" d="M50.964 33.818c.609.004 1.21.114 1.82 0 0 .031.034.1 0 .22-.02.064-.054.09-.06.146-.62.208-.67.466-1.408.367-.188-.025-.46-.144-.646-.22-.213-.087-.39-.156-.587-.295q.002-.036 0-.072c.004-.077-.022-.17.03-.221.032-.036.725.219.822.22.048 0 .024-.145.03-.145z"/><path fill="#6F5E26" d="M51.318 33.599h-.91l.558.22s.019.148-.03.147c-.097 0-.79-.255-.822-.221-.052.051-.027.144-.03.22l-.646-.44c-.05-.118-.06-.236-.176-.293.006-.071-.011-.152 0-.221.618.389 1.376.487 2.054.588z"/><path fill="#929938" d="M50.73 30.372c.084-.02.51-.06.53.11l-.97.918.998-.807c.03.106.046.191.088.294-.368-.14-.454 1.18-.47 1.54-.324-.124-.858-.225-.997-.66.254-.371.293-1.265.822-1.395"/><path fill="#FFF0CC" d="M50.964 30.078c-.005.288.301.065.41.184.04.041.065.66.117.806.254.712 1.084.474 1.467.99-.01.292.023.559.059.845-.112.13-.168-.038-.177-.038.08-1.604-.863-.497-1.467-1.98-.041-.103-.059-.188-.089-.294l-.997.807.969-.918c-.019-.17-.444-.13-.529-.11.007-.33.138-.239.235-.294z"/><path fill="#A6A654" d="M51.376 30.885c.604 1.485 1.548.376 1.467 1.98-.57.057-1.385-.229-1.936-.44.016-.36.101-1.68.47-1.54z"/><path fill="#BDCB31" d="M50.906 32.425c.55.211 1.366.497 1.936.44.01 0 .065.168.177.037a5 5 0 0 1-.059-.844c.003-.07-.022-.15.059-.146.05.419.132.817.116 1.247 0 .02-.148.163-.176.33-.01.056.118.029.116.037-.042.215-.044.493-.293.512.035-.118 0-.189 0-.22 0-.067.126-.18.03-.294-.284.315-.956.266-1.35.22-.047-.005.035-.12-.146-.145-.677-.101-1.434-.2-2.054-.588.01-.073.06-.083.058-.146.134-.144.415-.805.529-1.028l.058-.073c.139.434.674.537.997.661z"/><path fill="#DED092" d="M52.783 33.818c-.609.114-1.21.004-1.819 0l-.557-.221h.91c.18.027.099.142.146.146.393.045 1.065.094 1.349-.221.096.114-.029.227-.03.294z"/><path fill="#EDDD79" d="M49.703 32.425c.032.144.125.278 0 .367-.049-.063-.044-.357 0-.367"/><path fill="#607835" d="M48.618 29.344c-.135-.118-.095-.195-.177-.329.087-.099.166-.213.235-.33.357.726 1.725-.701 1.82-1.173.035-.18.014-.331-.117-.44.538.11.075 1.44-.177 1.797-.317.45-1.163.846-1.584.477z"/><path fill="#649540" d="M50.495 27.51c-.095.471-1.463 1.9-1.82 1.174.297-.501 1.358-1.497 1.82-1.174"/><path fill="#90B63E" d="M50.379 27.07c.13.109.153.26.116.44-.462-.323-1.522.673-1.819 1.174-.07.116-.148.23-.235.33.082.135.042.212.177.329l-.177.145c-.11-.114-.036-.228-.059-.256-.42-.517-.956-.639-.351-1.578.538-.298 1.79-.7 2.348-.588z"/><path fill="#CFE186" d="M48.236 27.877c.046.178.077.46-.059.588-.045-.174-.077-.46.059-.588"/><path fill="#ED1F24" d="M23.915 28.759c.098.305.041.31 0 .587-.82 1.336-2.343 1.413-3.55 1.028l-.909-.734c-.038-.118.038-.471 0-.587.11-.026.174-.067.294-.073-.055 2.041 4.277 1.554 3.932-.257-.117-.607-1.03-.493-1.291-.917.456.067 1.34.37 1.526.953z"/><path fill="#7F1416" d="M22.918 30.518c-.572.19-1.06.08-1.584.22-.727.029-1.589-.177-1.878-1.1l.91.734c1.205.387 2.729.308 3.55-1.027-.11.755-.414.98-.998 1.173"/><path fill="#B85A27" d="M21.627 27.804h.059c-.014.438-.248.213-.41.33-.076.053.003.244 0 .256-.248.05-.087-.28-.147-.294-.123-.026-1.182.539-1.203.88q-.088-.001-.176 0c-.12.006-.185.047-.294.073 0-.004-.017 0-.058-.073.31-.215.631-.708.939-.88.415-.235.849-.264 1.29-.294z"/><path fill="#B23F25" d="M21.276 28.392c-.018.057.102.11.03.146-.068-.057-.308.006-.324 0-.014-.006.05-.371-.117-.11.018.063.117.1.117.11 0 .08.024.242-.03.294l-.352-.146c-.063.18.276.114.205.256-.03.06-.918.663-.88.038.02-.342 1.08-.906 1.202-.88.06.012-.1.341.147.294z"/><path fill="#F15D59" d="M22.39 27.804c.26.424 1.173.31 1.29.917.347 1.81-3.987 2.298-3.932.257q.088-.002.177 0c-.038.625.85.021.88-.038.071-.142-.268-.077-.205-.256l.352.146c.054-.051.028-.213.03-.294.016.006.256-.057.323 0 .073-.038-.045-.089-.03-.146.004-.012-.075-.203 0-.256.163-.117.397.108.41-.33.212-.008.504-.03.704 0"/><path fill="#F47D6C" d="M20.775 29.272c.437-.032-.028.435-.058.44-.191.021-.319-.415.058-.44"/><path fill="#ED1F24" d="M22.243 28.17c.257-.074 1.139.257 1.262.551.317.762-1.393 1.746-1.878 1.1.33-.173.232-.53.616-.329l-.117-.294.645.146c-.318-.414.089-.556.382-.696l-.498.11.146-.256c-.336-.331-.298.363-.675.257.391-.318.388-.734-.058-.221-.11-.168.088-.341.176-.367z"/><path fill="#F47F50" d="M23.007 29.199c.217-.012.138.301-.117.22-.106-.092.107-.218.116-.22M22.184 29.711c.01-.006.194.061.205.11-.126.192-.416.04-.205-.11"/><path fill="#F49257" d="M23.007 28.905c.022-.02.235-.04.205.11-.101.108-.337.006-.206-.11"/><path fill="#D16A28" d="M20.982 28.538s-.101-.046-.117-.11c.17-.261.103.104.117.11"/><path fill="#F69288" d="M43.044 23.99c-.223-.046-.38.45-.557.587-.684.525-2.547.566-3.199-.073-.124-.53-.445-1.418.177-1.577-.128.079-.193.84-.177.88.122.309 1.613 1.084 1.35.366-.149-.406-.558-.079-.47-.513.013-.07.166-.002.176-.073.016-.13-.125-.151-.117-.293.01-.2.36-.038.177-.367.12-.119.088.055.176.11.35.221.654.56.998.807.121.086.36.14.498.22v.221c.313-.189.777-.514.557-1.027.011.006.265.136.235-.037-.113-.174-.265-.283-.41-.405.556.04.691.6.587 1.174z"/><path fill="#F15D59" d="M42.456 22.816c.145.12.297.231.41.405.032.171-.224.043-.235.037-.109-.06-.199-.264-.263-.294-.31-.134-1.113-.48-1.263-.073-.033.089-.13.243 0 .294l-.03.146c.27.022.397-.235.41-.513.518.357-.242.466-.058.734l.587-.513c.02.176-.164.692-.088.807-.112-.016-.276-.174-.352 0-.344-.247-.647-.586-.997-.807.033-.81-.29-.077-.323-.073s-.296-.408-.5-.367c.87-.325 1.99-.369 2.7.221z"/><path fill="#7F1416" d="M39.288 24.505c.652.639 2.516.597 3.199.072.18-.138.336-.633.557-.587-.3 1.649-3.76 1.676-4.166.367a2.5 2.5 0 0 1-.058-.588c.172.069.096.317.176.477.09.181.23.195.294.257z"/><path fill="#E09583" d="M39.758 22.597c.204-.041.467.371.499.367s.356-.735.323.073c-.087-.055-.055-.229-.176-.11.184.327-.168.167-.177.367-.006.142.134.163.117.293-.01.072-.161 0-.177.073-.088.436.32.109.47.513.264.718-1.227-.057-1.349-.367-.016-.041.049-.8.177-.88-.622.16-.3 1.048-.177 1.579-.063-.061-.203-.075-.293-.257-.08-.16-.005-.408-.177-.477.019-.45.213-.797.528-1.028.1-.073.305-.106.41-.146z"/><path fill="#FFF0CC" d="M39.67 23.037h.058c.115-.012.115.085 0 .073z"/><path fill="#CD472D" d="M42.633 23.256c.218.51-.244.838-.557 1.028v-.221c-.139-.08-.377-.134-.498-.221.075-.174.241-.016.352 0 .067.1.307.2.41.11-.115-.236-.347-.1-.41-.11-.078-.114.105-.631.088-.807l-.587.513c-.185-.268.576-.377.058-.734-.015.278-.142.537-.41.513l.03-.146c.128-.124.265-.446 0-.294.15-.406.953-.06 1.262.073.067.028.155.235.264.294z"/><path fill="#F68E73" d="M41.107 23.183c-.13-.051-.033-.205 0-.294.265-.152.128.168 0 .294"/><path fill="#F15D59" d="M41.93 23.844c.064.008.294-.126.41.11-.105.089-.343-.01-.41-.11"/><path fill="#E09583" d="M42.193 23.55c.013-.002.227.095.205.183-.068.158-.432-.143-.205-.183"/><path fill="#F2B079" d="M42.193 23.11c.203-.031.142.278-.059.146-.058-.037.046-.144.059-.146"/><path fill="#7F1416" d="M34.126 41.592c-.05.2-.23.517-.352.661s-.434.225-.529.44c-.582.077-1.027.256-1.642.22a4 4 0 0 1-.587-.072c-.513-.129-1.28-.572-1.35-1.32.684 1.117 2.232 1.33 3.257.953.432-.16.788-.69 1.203-.88z"/><path fill="#ED1F24" d="M31.896 39.76c.18-.027.604.1.88 0 .407.341 1.173.337 1.35 1.028.067.266.063.548 0 .806-.416.19-.77.722-1.203.88-1.026.377-2.572.162-3.257-.953-.063-.668.204-1.01.646-1.32.552-.386.983-.35 1.584-.439z"/><path fill="#F15D59" d="M31.808 39.906c.061-.02 1.077.249 1.262.257-.145.228-.74-.314-.822.22-.071.46.298-.31.41-.073l-.323.478.733-.33c-.33.304-.139.513-.088.917l-.587-.073.177.367-.382-.183c.31.406-.08.059-.117.367.191.56 1.772-.207 1.701-.953-.02-.213-.346-.343-.323-.55 1.245.868-.317 1.87-1.056 1.98-.738.11-2.555-.057-2.434-1.284l-.177.073c.017-.34.296-.665.557-.77-.344.61-.256 1.127.293 1.468 1.056.655 1.086-.903.47-.146.479-.907-.04-.234-.47-.073-.098-.301.284-.6.03-.696l.44.184-.146-.33c.003-.067.831-.057.352-.513.45.16.33-.276.498-.329z"/><path fill="#F47F50" d="M30.34 40.713c.248-.054.248.274 0 .22-.091-.02-.091-.2 0-.22M30.517 41.007c.215.033-.115.347-.264.183.029-.06.25-.185.264-.183M32.335 41.813c.042-.04.189.006.146.11-.045.115-.273.005-.146-.11"/><path fill="#EC9D32" d="M33.333 40.64c.008 0 .119.108.059.146-.329.067-.136-.154-.059-.146"/><path fill="#F47F50" d="M31.162 40.419c.152-.1.169.13.059.146-.007 0-.119-.107-.059-.146"/><path fill="#F2B079" d="M30.75 40.346c.09-.04.13.109.06.146-.086.047-.13-.114-.06-.146"/><path fill="#AAB938" d="M27.612 39.833c-.342-.373-.65.58-.822.88a1.6 1.6 0 0 1-.293.367c-.123-.101-.264-.19-.294-.405-.057-.414.2-.647.147-.99-.417.487-.03 1.034-.205 1.54-.172-.076-.355-.14-.529-.22-.123-1.194.781-1.614 1.584-1.98.08.246.28.599.41.806z"/><path fill="#929938" d="M28.375 39.466c-.015.418-.131.706-.206 1.1-.126-.183-.317-.337-.44-.512-.085-.122-.093-.181-.117-.221-.13-.207-.331-.56-.41-.807.37-.17.734-.382 1.144-.367.052.048.033.679.03.807z"/><path fill="#607835" d="M28.2 41.007c-.146.296-.463.453-.704.587-.12-.059-.232-.165-.352-.22-.248-.111-.406-.097-.645-.294.112-.109.211-.221.293-.367.224.341.871-.306.939-.513.26.16.34.552.47.807z"/><path fill="#7C8837" d="M27.612 39.833c.024.038.032.099.117.22-.005.046.01.117 0 .147-.068.207-.715.854-.939.513.17-.3.48-1.253.822-.88"/><path fill="#C1AA6F" d="M26.497 41.08c.24.197.398.18.645.293-.09.416-.831-.073-.997-.146.175-.506-.211-1.053.205-1.54.052.343-.203.576-.147.99.03.215.17.302.294.404z"/><path fill="#7B7B32" d="M44.393 34.845c.053.067.069.119.116.184-.312.404-.759.552-1.174.733.29.097.52-.136.762-.256-.091.633.632.949.998 1.173.04.196-.11.135-.117.146-.413-.108-1.127-.004-1.496-.146-.37-.142-.37-.455-.909-.587v-.073c.087 0 .145-.192.177-.221.088-.083.524-.369.645-.44.05-.03.415-.067.557-.146.215-.118.243-.349.44-.367"/><path fill="#929938" d="M44.746 35.212c.734.186.364.8.41 1.468-.015-.01-.042.01-.058 0-.366-.225-1.089-.54-.997-1.174.288-.144.31-.377.645-.294"/><path fill="#F2D081" d="M44.746 34.333c.036-.01.079.003.117 0 0 .047.006.102 0 .145-.488.03-.551.712-.059.294.136-.116.245-.363.264-.366.066-.014 1.006.794 1.085.917-.047.073-1.308.145-1.349-.294l-.058.183c-.335-.085-.357.15-.646.294-.242.12-.471.353-.762.256.415-.181.862-.327 1.174-.733-.049-.065-.063-.117-.117-.184-.14-.171-.135-.173-.351-.146.008-.006-.05-.037.116-.146.016-.01.294-.122.352-.146.074-.03.158-.055.235-.072z"/><path fill="#B39931" d="M44.805 34.772c-.493.419-.43-.264.058-.294-.017.107-.043.186-.059.294"/><path fill="#7B7B32" d="M44.393 34.845c-.197.018-.226.249-.44.367-.143.08-.509.119-.558.146.01-.05.038-.104.059-.146.044-.089.047-.09.117-.146.134-.106.344-.278.47-.367.216-.027.211-.025.352.146"/><path fill="#D6B545" d="M39.64 37.192c.014 0 .2-.083.293-.037-.052-.217.057-.454.059-.624.1.184.079.065.176.367.038.115.11.408.117.513a1.6 1.6 0 0 1-.41.22c-.981-.11-1.832-.13-2.406-1.283.672.832 1.502 1.363 2.464 1.028z"/><path fill="#7C8837" d="M38.526 35.506c-.254.122-.24.51-.294.806-.172-.106-.47-.12-.498-.44l-.059.222c.05.134 1.736 1.069 1.908 1.1.019.004.04 0 .058 0l.294.184c-.963.337-1.791-.196-2.465-1.028.573 1.154 1.424 1.173 2.407 1.284-.06.024-.138.065-.177.073-.85.203-2.034-.067-2.348-1.247-.019-.07.013-.205 0-.293.093-.07.16-.355.177-.367.348-.257.583-.355.997-.294"/><path fill="#AAB938" d="M39.992 36.532c-.003.17-.11.408-.059.623-.093-.046-.279.037-.293.037-.02 0-.04.004-.059 0-.372-.386-.904-.605-1.349-.88.054-.295.04-.684.294-.806a2.07 2.07 0 0 1 1.467 1.027z"/><path fill="#CABB5B" d="M38.232 36.312c.445.275.977.495 1.35.88-.173-.03-1.856-.964-1.908-1.1l.058-.221c.029.321.327.333.499.44z"/><path fill="#7F1416" d="M36.53 30.812c-.046.866-.947 1.339-1.526 1.467-.12.026-.28-.014-.41 0-.413.045-.572.067-.997 0-.319-.05-.723-.156-.997-.367-.254-.195-.502-.576-.529-.952 1.015 1.656 3.47 1.394 4.46-.146z"/><path fill="#F68E73" d="M32.805 30.591c.008-.014.267.041.263.11-.006.172-.374.083-.263-.11"/><path fill="#F4B259" d="M32.98 30.005c.109.018.087.247-.058.221-.17-.031.014-.227.058-.22"/><path fill="#ED1F24" d="M34.594 29.345c.142.011.271.043.41.072.644.135 1.58.383 1.526 1.395-.99 1.54-3.444 1.802-4.459.146-.087-1.274 1.382-1.675 2.171-1.686.037 0 .237.063.352.073"/><path fill="#F15D59" d="M33.627 29.49c.645-.025 2.775.006 2.611 1.212-.13.952-2.026 1.165-2.611 1.063-.944-.166-1.994-1.434-.645-2.054l.352.073c-1.433.2-.479 1.9.44 1.578-.557-.1.309-.19-.147-.623l-.47.367c-.106-.442.22-.687-.382-.623.194-.296.507-.004.675.11l-.263-.477c.443-.075.495.355.704-.44l-.53-.073.264-.11z"/><path fill="#ED1F24" d="M34.74 29.638c.206-.059 1.268.407 1.322.697.154.751-1.51 1.534-1.643.952.052-.292.098-.102.235-.073l-.117-.294c.2-.402.521.085.822-.073-.17-.295-.091-.55.117-.806-.032-.105-.743.582-.792.11.199-.254.284-.587-.058-.22-.09-.084.093-.287.116-.294z"/><path fill="#EF6442" d="m34.74 30.885.616.183c-.233.156-.587.221-.615-.183"/><path fill="#F68E73" d="M35.034 29.932c.055-.013.163-.015.205.038l-.323.183c-.101-.092.091-.213.117-.22z"/><path fill="#F47F50" d="m35.444 30.518.324.11c-.101.073-.357.075-.324-.11"/><path fill="#F2B079" d="M35.504 30.224c.152-.1.17.13.059.146-.007 0-.119-.106-.059-.146"/><path fill="#C9A9BB" d="M51.67 36.606c-.506.296-.745.363-1.291.294l.762-.33c-.35-.123-.83.005-1.174-.183.787-.075 1.865.399 1.936-1.027.15.54-.02.803-.235 1.246z"/><path fill="#B0839E" d="M49.673 35.873c.032.041.03.369.294.512.344.188.823.06 1.174.184l-.762.33a2 2 0 0 1-.352-.074c-.239-.209-.505-.582-.529-.952.047.008.166-.014.177 0z"/><path fill="#fff" d="M51.2 34.772c.102.01.315.087.41.146.143.089.24.245.293.44-.071 1.426-1.149.95-1.936 1.027-.264-.143-.262-.473-.294-.512.308-.675.906-1.154 1.526-1.1"/><path fill="#CABB5B" d="m51.318 34.551-.117.221c-.62-.055-1.217.426-1.526 1.1-.01-.013-.13.008-.177 0-.079-1.234 1.013-.74 1.174-1.54.186.075.458.196.646.221z"/><path fill="#7F1416" d="M19.104 37.926c.662.481 1.44.481 2.172.367.41-.063 1.085-.331 1.409-.66-.303.546-.449.563-.94.733-.796.274-2.655.412-3.11-.66a1.6 1.6 0 0 1-.116-.44c.216.171.365.498.587.66z"/><path fill="#F69288" d="M21.04 35.579c.032 0 .26.06.352.073.556.087 1.106.33 1.526.807-.04.629.134.51-.235 1.173-.323.328-.997.596-1.41.66-.453-.236-.954-.1-1.436-.22-.242-.06-.603-.57-.734-.146-.223-.162-.371-.49-.587-.66-.054-1.462 1.666-1.73 2.523-1.687z"/><path fill="#CA3131" d="M21.275 38.293c-.732.114-1.51.114-2.171-.367.131-.424.492.087.734.146.482.12.983-.018 1.437.22"/><path fill="#C06450" d="M19.338 37.12c.027.214.4.17.557.22.066.02-.076.414.41-.073.144.394-.588.335-.03.477-.183.336-1.115-.414-1.115-.512-.026-.176.168-.093.176-.11z"/><path fill="#C17353" d="M19.955 36.019c.189-.012.172-.01.263.183-.277-.085-.19.182-.205.184-.31.049-.658-.456-.587.22l-.263-.11c.165-.493.404-.306.675-.33.025-.001.093-.145.117-.145z"/><path fill="#C06450" d="M19.338 37.12c.088-.22.049-.32.058-.33.272-.278.344.382-.058.33M19.661 36.386c.06.005.23.234.324.256l-.44-.038c-.105-.092.107-.22.116-.22zM19.133 36.68c.224-.026.217.36 0 .293-.045-.014-.114-.28 0-.294M20.13 36.973c.192-.031.118.255-.117.294-.093-.085.1-.29.117-.294M22.037 36.752c-.086.136.103.213.089.294-.325-.079-.136-.217-.089-.294"/><path fill="#C06450" d="M22.037 36.753c.095-.152.3-.221.294-.33-.295-.122-.3.018-.557.183l.116-.366-.675.33c.328-.36.808-.638 1.202-.257.91.875-1.028 1.994-1.554 1.357.521-1.217.96.215 1.584-.588-.5-.097.149-.081-.205-.404-.033.112-.195.057-.205.073z"/><path fill="#D97D6B" d="M21.362 37.265c.016-.002.264.1.324.11-.138.817-.146.1-.47 0 .04-.005.138-.108.146-.11"/><path fill="#7F1416" d="M47.856 25.53a9 9 0 0 1-.117.44c-.12.272-.652.639-.88.733-.71.294-1.692.306-2.407.073-.547-.179-1.082-.56-1.115-1.319.58 1.444 2.603 1.458 3.667.88.315-.172.579-.56.85-.807z"/><path fill="#F47F50" d="M44.129 25.09c.043-.04.19.006.147.11-.046.115-.273.005-.147-.11"/><path fill="#ED1F24" d="M47.856 25.53c-.272.247-.535.635-.85.807-1.066.578-3.087.564-3.668-.88v-.073c.086-2.104 4.243-1.645 4.518-.477.019.083.01.509 0 .623"/><path fill="#F15D59" d="M44.951 24.065c.541-.1 2.996.02 2.67 1.284-.314 1.213-3.41 1.382-3.932.22-.34-.757.096-1.053.615-1.283.003.331-.59.315-.498.99.047.355 1.44 1.242 1.32.404l-.263.183c.763-1.268-.335-.05-.47-.44-.214-.617.785.107.146-.623.65.276.515-.01 0-.22.284-.103.39.003.646.145l-.147-.329c.372.229.416-.16.205-.256-.087-.04-.372.234-.294-.073z"/><path fill="#ED1F24" d="M46.27 25.75c.018.01-.121.182-.03.222.347.146.188-.075.03-.221-.085-.079-.298-.215-.293-.33.445-.049.573-.173.88-.477.02-.02.185.04.235-.11-.091-.192-.138.004-.235-.038-.042-.017-.085.15-.176-.037-.063-.793.803.031.822.294.036.512-1.607 1.59-1.554.55.069.142.257.11.323.146z"/><path fill="#EC9D32" d="M46.857 24.944v-.146c.097.042.144-.153.236.038-.051.15-.217.09-.236.11z"/><path fill="#EF6442" d="M47.004 25.09c.373-.063.24.395-.058.294-.16-.053.014-.286.058-.294"/><path fill="#F15D59" d="M46.27 25.751c.16.146.319.367-.03.22-.091-.039.046-.21.03-.22"/><path fill="#ED1F24" d="M42.223 40.934c-.035.183.052.546-.058.952-.03.109-.043.109-.059.146-1.21.973-2.89 1.318-4.107.146-.028-.045-.072-.128-.116-.146-.008-.095.014-.203 0-.294.08.014.07.205.146.221.029.006.015-.21.147-.146.546 1.225 2.842.933 3.639.073.448-.483.457-.667-.03-1.246-.063-.077-.146.045-.264-.146.273-.097.514.278.704.44z"/><path fill="#7F1416" d="M42.105 42.032c-.434 1.087-1.913 1.227-2.758 1.1-.846-.125-.87-.183-1.35-.952 1.217 1.17 2.899.825 4.108-.146z"/><path fill="#F15D59" d="M40.462 40.713c.119.161-.274.32.352.367.05.003-.036.059.117 0 .582-.087.027.388.323.512l.147-.11-.088-.11c.218-.129.612-.192.382.145.068-.12-.11-.217-.177-.11.02.059.15.156.177.11-.348.507-.497.067-.97.073l.5.257c-.296.455-.477-.125-.793-.184.016.087.098.203.147.294-.166-.07-.25-.055-.41.038.175.593 1.392.102 1.584-.184l.058.073c-.796.86-3.092 1.152-3.638-.073-.216-.485-.15-.93.263-1.173.212.232-.151.335-.146.696.004.306.23.552.41.696.04.034.694.37.734.367s.489-.828-.117-.294c-.074-.079 0-.138.03-.22.088-.048.167-.038.235-.184-.098-.103-.204.094-.235.183-.073.04-.205.04-.264.146-.022-.171-.124-.118-.146-.22.236-.168.224-.12.352-.44.003-.009.145.04.116-.111l-.47-.367.734-.037c-.403-.602-.008-.233.117-.294.194-.097.194-.46.498-.11.019.021-.033.167.03.256.014.02.134-.018.147 0z"/><path fill="#CD472D" d="M39.347 41.886c-.029.083-.103.14-.03.221.605-.536.157.29.116.294s-.692-.333-.733-.367c.026-.138.148-.16.235-.22.022.102.124.048.146.22.059-.108.191-.108.264-.146z"/><path fill="#E95344" d="M39.992 40.052c.484.008 1.046.19 1.526.294-.06.148-.054.059 0 .146.12.191.2.07.263.146.486.58.478.763.03 1.246l-.058-.073c.59-.877-.677-1.727-1.086-.806-.197-.186.018-.211.089-.405l-.294.11c-.012-.017-.132.02-.147 0-.061-.088-.01-.234-.03-.256-.304-.349-.304.014-.498.11-.125.062-.52-.309-.117.295l-.733.037.47.367c.028.152-.114.103-.117.11-.251-.218-.417.139-.352.44-.087.061-.208.083-.235.221-.18-.146-.407-.392-.41-.696-.005-.361.358-.464.147-.696-.414.242-.482.688-.264 1.173-.133-.065-.118.152-.147.146-.076-.016-.066-.207-.147-.22-.13-.884.468-1.324 1.056-1.541a3 3 0 0 1 .293-.073c.278-.057.48-.077.763-.073z"/><path fill="#E09583" d="M39.288 41.374c-.127.321-.115.272-.352.44-.064-.302.101-.66.352-.44"/><path fill="#F47F50" d="M39.142 40.64c.127 0 .243-.042.323.11-.082.085-.308.034-.323-.11"/><path fill="#F69288" d="M38.673 41.592c.084 0 .161-.033.147.11l-.264.038c-.061-.037.11-.146.117-.146z"/><path fill="#F68E73" d="M38.555 41.3c.22-.039-.02.304-.089.111a.6.6 0 0 1 .089-.11"/><path fill="#CD472D" d="M39.347 41.886c.03-.088.137-.286.235-.183-.068.146-.147.136-.235.183"/><path fill="#ED1F24" d="M41.694 41.52c-.025.045-.156-.05-.176-.111.066-.106.244-.012.176.11"/><path fill="#ED1F24" d="M41.753 41.813c-.192.286-1.409.777-1.584.184.16-.093.245-.109.41-.038.016.008-.128.408.177.11-.033-.116-.17-.1-.177-.11-.049-.09-.13-.207-.147-.294.316.06.497.64.792.184l-.498-.257c.472-.006.62.434.969-.073.232-.337-.164-.274-.382-.146l.088.11-.147.111c-.295-.124.26-.601-.323-.513.617-.234.133-.646-.117 0-.626-.047-.233-.205-.352-.366l.294-.11c-.071.193-.284.218-.089.404.41-.92 1.676-.071 1.086.806z"/><path fill="#EF6442" d="M40.931 41.08c-.153.059-.068.003-.116 0 .25-.647.735-.235.116 0"/><path fill="#F49257" d="M41.313 41.007c.033-.022.266-.012.323.037-.13.252-.538.108-.323-.037"/><path fill="#EF6442" d="M40.58 41.96c.006.01.141-.007.176.11-.303.297-.16-.103-.177-.11"/><path fill="#7F1416" d="M42.575 36.019v.073c-.019-.004-.04.004-.059 0-.596-.142-1.307.049-1.819-.588a1.5 1.5 0 0 1-.293-.734l.615.734 1.554.513z"/><path fill="#ED1F24" d="M41.636 33.159c-.45.448-1.27.562-.939 1.578.256.785 1.532.8 2.055 1.063-.03.027-.09.22-.177.22l-1.554-.512-.616-.734c-.05-.741.29-1.08.762-1.394.194-.128.269-.144.47-.221"/><path fill="#F15D59" d="M42.985 33.086c-.4.03-1.436.23-1.79.513-.137.108-.351.627-.323.844.059.432 1.341 1.229 1.35.733-.927-.108.447-.17-.03-.696-.261-.288-.523.442-.734.11.211-.607.296-.177.323-.183.322-.067-.355-.581-.117-.587l.41.22-.058-.366.235.294c-.25-.709.005-.233.117-.294.101-.054-.036-.18-.03-.184.622-.42 2.032-.085 2.406.844a2 2 0 0 0-.235.073c-.013-.668-1.286-1.293-1.467-.623.022.055.733-.3.03.184l.058.145c.363-.248.518-.3.939-.22l-.235.072c-.388.718.082.27.323.588-.167.109-.11.142-.116.146-.127.089-.337.26-.47.367l-.09-.294.353-.146c-.245.03-.5-.075-.734.073-.035.022-.139-.05-.117.11l.47.405c-.02.043-.048.097-.058.146-.121.07-.557.357-.645.44-.52-.263-1.797-.278-2.054-1.063-.332-1.016.489-1.13.938-1.578.115-.044.61-.292.646-.294.036 0 .553.312.703.22z"/><path fill="#ED1F24" d="M43.572 35.066c-.07.055-.073.057-.117.146l-.47-.404c-.02-.16.082-.087.117-.11-.087.133.162.21.235.11-.027-.093-.207-.154-.235-.11.233-.149.489-.044.734-.074l-.352.146.088.294z"/><path fill="#ED1F24" d="M43.572 33.086h.177c.049.274.459.29.645.44.349.282.453.286.47.806-.037.004-.08-.01-.116 0-.374-.927-1.785-1.264-2.407-.844-.006.004.13.13.03.184-.112.06-.367-.415-.116.294l-.236-.294.059.367-.41-.221c-.237.004.44.518.116.587-.025.006-.11-.424-.323.184.211.331.473-.397.734-.11.476.526-.897.589.03.696-.008.497-1.293-.302-1.35-.734-.028-.217.187-.734.324-.844.354-.282 1.39-.486 1.79-.513.193-.014.392.006.586 0z"/><path fill="#F47F50" d="M41.137 33.965c.21-.039.267.23.059.146-.018-.008-.117-.11-.059-.146"/><path fill="#F2B079" d="M41.37 33.672c.009 0 .12.108.06.146-.329.067-.136-.154-.06-.146M41.665 33.599h.058c.115-.012.115.085 0 .073z"/><path fill="#ED1F24" d="M44.51 34.405c-.06.024-.335.136-.351.146-.24-.315-.71.13-.323-.587l.235-.073c-.422-.081-.576-.028-.94.22l-.058-.145c.704-.484-.008-.129-.03-.184.182-.67 1.454-.045 1.468.623"/><path fill="#F4B259" d="M43.894 34.112c.077-.02.164-.02.147.11-.174.148-.311-.069-.147-.11"/><path fill="#F15D59" d="M43.102 34.7c.029-.044.208.017.235.11-.072.102-.322.023-.235-.11"/></g><defs><filter id="a" width="70" height="70" x="0" y="0" color-interpolation-filters="sRGB" filterUnits="userSpaceOnUse"><feFlood flood-opacity="0" result="BackgroundImageFix"/><feBlend in="SourceGraphic" in2="BackgroundImageFix" result="shape"/><feColorMatrix in="SourceAlpha" result="hardAlpha" values="0 0 0 0 0 0 0 0 0 0 0 0 0 0 0 0 0 0 127 0"/><feMorphology in="SourceAlpha" radius="3" result="effect1_innerShadow_344_17545"/><feOffset/><feGaussianBlur stdDeviation="1"/><feComposite in2="hardAlpha" k2="-1" k3="1" operator="arithmetic"/><feColorMatrix values="0 0 0 0 0 0 0 0 0 0 0 0 0 0 0 0 0 0 0.08 0"/><feBlend in2="shape" result="effect1_innerShadow_344_17545"/></filter></defs></svg>