<svg xmlns="http://www.w3.org/2000/svg" width="70" height="70" fill="none"><g filter="url(#a)"><path fill="#fff" fill-opacity=".75" d="M0 35C0 15.67 15.67 0 35 0s35 15.67 35 35-15.67 35-35 35S0 54.33 0 35"/><path fill="url(#b)" d="M54.328 38.433c-.1.16-.272.375-.39.55-.067.099-.127.21-.196.306-.176.248-.398.56-.585.796-.257.322-.566.673-.846.979-2.044 2.225-5.073 4.27-7.94 5.444-3.445 1.412-7.17 2.065-10.934 1.835-1.576-.097-3.15-.348-4.654-.795-.005.627.736.923.423 1.652-.107-.033-.219-.087-.326-.123-.902-.304-2.508-.944-2.993-1.744-.145-.237-.184-.636-.261-.764.055 0 .066-.048.13-.062l2.278.826-1.14-.458c-.051-.286-.68-.445-.943-.612-1.438-.91-3.39-2.695-3.97-4.252s.278-2.705.195-4.251c2.003.623 4.223 1.062 6.313 1.346 3.387.459 10.471.84 13.667-.062 5.422-.833 12.136-2.63 14.708-7.646a17.56 17.56 0 0 1-2.538 7.035z"/><path fill="#AE9B96" d="M16.256 34.946c.065 1.124.602 2.377 1.107 3.395 1.463 2.953 3.947 5.456 6.866 7.188.45.268 1.195.518 1.594.795.076.053.197.11.196.215-.024.05-.11-.064-.26-.03-.065.013-.075.06-.131.06-.102-.17-2.027-.988-2.44-1.223-5.513-3.14-9.502-8.152-10.121-14.315.594 1.636 1.749 2.874 3.189 3.916z"/><path fill="#95908E" d="M22.178 37.76c.083 1.546-.766 2.72-.195 4.252.57 1.531 2.532 3.342 3.97 4.251l-.13.062c-.4-.278-1.144-.528-1.595-.796-2.92-1.732-5.403-4.235-6.866-7.188-.505-1.019-1.04-2.27-1.107-3.395 1.72 1.243 3.866 2.174 5.922 2.814z"/><path fill="#193033" d="M44.37 46.509c.007.673-.54 1.205-1.074 1.59-1.446 1.044-4.536 1.683-6.345 1.835-.5.043-.996.05-1.497.062a23 23 0 0 1-2.213-.062c-.107-.008-.218.01-.325 0l.455-.153c-.342-.372.04-.978.065-1.438 3.764.23 7.49-.423 10.934-1.835"/><path fill="#314543" d="M33.437 48.344c-.025.46-.407 1.065-.065 1.438l-.455.153a21 21 0 0 1-1.432-.184 20 20 0 0 1-2.278-.55c.313-.727-.429-1.025-.422-1.652 1.504.447 3.077.698 4.653.795z"/><path fill="#8B9393" d="M25.757 46.508c.15-.033.237.08.261.03.001-.105-.12-.16-.195-.214l.13-.06c.264.166.892.325.944.61l1.14.46-2.279-.827z"/><path fill="#787D33" d="M36.757 33.355c.18.305-.758.301-.944.245-.105-.033-.138-.385-.359-.245 0-.04-.003-.082 0-.123.009-.12.081-.202.13-.306.366.173.782.31 1.172.428"/><path fill="#CF9841" d="M34.805 24.301c-.321.158-.676.36-.977.55l-.716-.06c-.012-.079-.096-.26-.13-.367z"/><path fill="#BE7833" d="M33.828 24.852s-.002.02-.065.06h-.65c-.004-.039.006-.082 0-.122z"/><path fill="url(#c)" d="M48.21 27.177c-.046.164-.075.324-.13.489-.024.072-.038.174-.065.245-.024.066-.038.18-.065.245-.38.941-1.066 1.81-1.757 2.569-.146.068-.191.197-.26.245-.14.096-.209.203-.327.306-.098.086-.223.161-.326.245-.115.094-.258.167-.325.306-.216.03-.22.165-.261.184-1.243.577-1.858 1.11-3.32 1.468-.227.056-.485.149-.715.184-.09.014-.053-.128-.098-.122-.033.004.035.098-.228.122-.466.045-.897.073-1.367.062-.47-.012-.97-.037-1.431-.123-.263-.05-.527-.167-.781-.245a9 9 0 0 1-1.171-.428c-.258-.121-.65-.344-.912-.489-.011-.007-.092-.124-.195-.184-.312-.179-.753-.632-1.042-.734a.44.44 0 0 0-.13-.184c-.546-.507-1.008-1.007-1.367-1.652-.004-.147-.032-.249.163-.122.651.422 1.056 1.041 1.952 1.468 4.006 1.903 13.699.632 14.09-4.466l1.172.52-1.01-.276c-.166.093-.064.249-.097.367z"/><path fill="#fff" d="M48.146 25.953c.02.166.013.44 0 .611-.392 5.099-10.085 6.37-14.09 4.467-.898-.427-1.302-1.047-1.953-1.469-.195-.126-.167-.024-.163.123-.002-.004-.024.019-.065-.061-.052-.103-.126-.115-.13-.123a18 18 0 0 1-.196-.734c-.02-.093-.058-.14-.065-.184-.028-.187.02-.418 0-.612.043-.172.023-.621.065-.734.218-.585 1.05-1.492 1.562-1.896.2-.158.394-.26.651-.428.063-.041.061-.058.065-.06a12.037 12.037 0 0 1 2.083-1.04c.687-.245 1.56-.48 2.278-.612 2.57-.47 9.529-.71 9.958 2.753z"/><path fill="#F1D05F" d="M33.763 24.913c-.257.168-.45.27-.65.427-.009-.14.011-.287 0-.427z"/><path fill="#F6D2C8" d="M38.384 31.336c.045-.363-.123-1.031.26-1.284 1.94.137 6.109-.817 4.947-3.365 1.266.447 2.437 1.235 3.872 1.101-1.81 2.846-5.757 3.715-9.078 3.548z"/><path fill="#F1E7E8" d="M38.645 30.052c-.384.253-.216.922-.261 1.284-.336-.017-2.379-.226-2.473-.458l.52-1.377c.65.283 1.496.5 2.213.55"/><path fill="url(#d)" d="M43.59 26.687c1.162 2.548-3.006 3.503-4.947 3.365a7.3 7.3 0 0 1-2.212-.55c-3.978-1.73-.848-4.735 2.375-4.833 1.44-.045 4.156.644 4.784 2.018"/><path fill="#F9EB86" d="M37.635 25.341c.06-.003.134-.017.163.03-.483.808-2.204 1.142-1.822 2.265-.101.3-1.06-.263-.65-.98.139-.246 2.078-1.303 2.31-1.315"/><path fill="#FCD081" d="M37.505 27.421c.885-.083.23 1.192-.716.98-.89-.201.427-.952.716-.98"/><path fill="#ACBA3A" d="M27.19 20.692a.7.7 0 0 1 .066.122c-.053-.008-.254-.041-.261-.03l.195.52h-.065c-.038-.068-.355-.561-.455-.429.005-.04-.004-.083 0-.122l.033-.306c.14.148.33.177.487.245"/><path fill="url(#e)" d="M27.254 20.814c.113.017.502.186.651.245.943.373 2.534.87 3.352 1.346.46.268 1.485 1.446 1.595 1.468-.103.146.085.405.13.55.034.108.118.289.13.367.007.039-.003.083 0 .123.012.14-.008.287 0 .427-.513.406-1.344 1.312-1.562 1.897-.172-.361-.736-.4-1.009-.612-.216-.169-1.97-2.988-2.31-3.518-.375-.583-.613-1.253-1.042-1.804l-.195-.52c.007-.01.208.023.26.031"/><path fill="#638239" d="M31.55 27.238c-.042.112-.022.56-.065.734-.008.032-.125.16-.065.275-.09.08-.059-.09-.065-.091.075-.409-.28-.396-.326-.459-.021-.03.111-.04-.13-.337-1.549-1.898-2.617-4.005-3.775-6.057h.065c.428.55.667 1.223 1.042 1.805.34.53 2.094 3.348 2.31 3.517.273.212.837.251 1.01.612"/><path fill="#416B33" d="M30.9 27.36c.241.297.109.308.13.337.045.064.401.05.326.459-.514-.037-.247-.13-.359-.184-.404-.193-.803-.335-1.203-.55l-.033-.307c.257.133.923.53 1.14.245z"/><path fill="#ACBA3A" d="M20.812 22.71c.18.043.405.064.586.061-.29.262.723.36.78.673-.061.009-.13-.005-.195 0l-.748-.306.163.734c-.157-.289-.379-.568-.52-.857-.212-.43-.064-.194-.066-.306z"/><path fill="url(#f)" d="M27.126 21.303c1.158 2.052 2.226 4.16 3.774 6.057-.215.285-.883-.112-1.14-.245l.033.307c-.572-.309-1.84-.963-2.212-1.346-.029-.03.143-.054-.033-.245-.39-.427-1.337-.564-1.79-.734a23 23 0 0 1-2.05-.857c-.288-.137-1.07-.704-1.3-.795a2 2 0 0 0-.229 0c-.058-.313-1.07-.412-.781-.673.13-.002.262.006.39 0 1.55-.067 3.097-.308 4.653-.307.028-.302.138-.61.098-.918.164-.19.101-.463.13-.672.101-.133.418.36.456.427z"/><path fill="url(#g)" d="m21.983 23.444 9.502 5.14c.007.043.046.094.066.183-.208-.032-.419.147-.586.184-.167.036-.671.07-.846.061-.81-.04-1.043-.526-1.66-.612-.407-.056-.913.048-1.334.062-.795.025-1.564.092-2.343.245-.633-.347-1.083-.968-1.496-1.53-.041-.056-.116-.252-.196-.366-.064-.094-.186-.17-.195-.184-.032-.048-.072-.152-.13-.245-.04-.062-.096-.129-.131-.184-.093-.148-.164-.33-.26-.49-.35-.575-.653-1.238-.977-1.834l-.163-.734.748.306z"/><path fill="#839439" d="M25.758 25.097c-.078.077.335.354.358.366.405.217 1.018.454 1.464.612.373.383 1.64 1.037 2.213 1.346.4.215.799.358 1.203.55.112.052-.155.147.359.184.006 0-.026.17.065.091-.06-.113.057-.243.065-.275.02.194-.028.425 0 .611l-9.502-5.139c.063-.005.132.01.195 0 .043-.006.218-.004.229 0 .23.092 1.013.659 1.3.796a24 24 0 0 0 2.05.857"/><path fill="#638239" d="M27.58 26.074c-.445-.159-1.059-.395-1.463-.611-.024-.012-.436-.29-.359-.367.453.17 1.398.308 1.79.734.176.192.004.216.033.245"/><path fill="#AC6457" d="M26.603 34.518c.322.05.304.34.456.49-.442.179-.788.196-1.236.244l-.196-.611c.3.014.79-.152.976-.123M25.888 32.682c-.256.206-.717 1.017-1.042 1.285-.11.014-.14.053-.195.061-.415.061-.82.185-1.237.245-.256-.15-.452-.339-.78-.367-.22-.194-.688.111-.847-.091-.005-.007.103-.059.066-.154 1.141-.212 2.325-.245 3.351-.734.263-.125.348-.53.716-.428l-.032.184"/><path fill="#AA6628" d="M24.652 34.028c-.003.04.007.084 0 .122-.083.422.064.48.032.857-.473-.014-.77-.397-1.14-.612-.09-.052-.121-.117-.13-.122.418-.06.822-.183 1.237-.245"/><path fill="#96943B" d="M22.634 33.906c.329.028.524.218.78.367.008.005.04.07.13.122-.001.655-.608.57.131.918-.212-.013-.437-.002-.65 0-.058 0-.215.123-.228.123-.856.01-1.025.015-1.4-.673.027-.572.649-.906 1.237-.857"/><path fill="#BDC46F" d="M22.666 34.212c.052.006.279.126.358.153.054.205-.869.224-.976 0 .004-.086.586-.156.618-.153"/><path fill="#F6D2C8" d="M26.995 33.722v.062c-.195.202-.18.672-.39.734-.186-.03-.676.137-.977.122-.431-.021-.733-.162-.976-.489.007-.038-.003-.083 0-.122.056-.008.085-.047.195-.062.567-.077 1.64-.038 2.148-.245"/><path fill="#AC6457" d="M19.51 32.132c.704.273.824.2 1.563 0 .214-.059.515-.262.78-.245-.26.476-1.046.4-.715 1.223a5 5 0 0 0-.196.061c-.13.044-.264.06-.39.123-.596.047-.914 0-1.431-.245-.358-.17-1.317-.862-1.432-1.224-.273-.864.087-.87.326-1.407.223.727.752 1.424 1.497 1.714z"/><path fill="#F6D2C8" d="m30.119 29.011.65.307v.06c-.86-.297-1.968-.538-2.895-.427-.32.038-1.742.619-2.05.795-1.369.787-1.022 1.488-.065 2.479-.225.256-.549.366-.846.52-.473-.014-.984.417-1.465.366-.135-.015-1.28-.558-1.334-.642-.41-.648.74-3.448 1.856-3.518l3.156-.49c.42-.013.927-.117 1.334-.06.617.086.85.572 1.66.611z"/><path fill="#F8E2DB" d="m27.125 28.46-3.157.49c-1.116.07-2.266 2.871-1.855 3.518.054.084 1.198.627 1.334.642.482.051.991-.38 1.464-.367-1.181.61-2.108.764-2.993-.366.02-.152-.029-.348 0-.49.382-1.895.874-2.789 2.863-3.181.779-.153 1.547-.22 2.343-.245z"/><path fill="#DBB179" d="M31.55 28.767c.021.093.177.692.196.734-.198.17-.833-.018-.911 0 .01-.077.023-.092-.066-.122v-.062l.196-.366c.167-.036.377-.216.585-.184"/><path fill="#CF9841" d="M23.286 27.176c-.572.263-1.233.268-1.823.428.444-.489 1.047-.535 1.627-.795.079.115.154.31.195.366z"/><path fill="#BB764D" d="m30.965 28.95-.196.367-.65-.307c.174.01.685-.026.846-.061z"/><path fill="#F0BFB5" d="M31.875 29.624c.04.08.063.057.065.061.36.645.82 1.145 1.366 1.652-.746.047-1.568-.062-2.31.062-.311.05-1.18.486-1.366.489-.092.002-.786-.412-.88-.581-.063-.118-.163-.426-.13-.55.12-.446 2.699-1.212 3.255-1.132z"/><path fill="#F6D2C8" d="M31.746 29.502c.004.007.077.018.13.122-.555-.08-3.134.687-3.254 1.131-.033.125.066.434.13.55.094.17.788.584.88.582.186-.004 1.056-.438 1.366-.49.742-.123 1.564-.014 2.31-.06a.44.44 0 0 1 .13.183c-1.034-.363-3.206.148-4.229.55.254-.285-.468-.48-.65-.887-.084-.185-.04-.393-.066-.58.549-.448 1.612-.735 2.31-.919.061-.015.023-.18.033-.184.077-.017.713.17.912 0z"/><path fill="#AC6457" d="M34.675 32.438c.073.282-.252 1.529.163 1.407l.293-.306c-.695 1.15-1.664 1.489-2.864 2.08-.981.274-1.897.747-2.993.611-.406-.056-.355-.054-.716-.184.415-.544 1.209-.227 1.855-.306.877-.107 1.667-.599 2.409-.98.368-.189.855.026 1.009-.672.856-.584.756-.895.65-1.835.103.06.183.177.196.184z"/><path fill="#BC7364" d="M33.828 34.089c-.153.698-.639.483-1.009.673-.74.38-1.531.872-2.408.98-.646.077-1.439-.239-1.855.305-.772-.275-.946-.5-1.497-1.04-.152-.15-.133-.439-.455-.49.21-.061.197-.53.39-.733.593 3.094 5.076 1.504 6.833.306z"/><path fill="#F6D2C8" d="M33.438 31.52c.288.102.729.555 1.041.734.106.94.206 1.251-.65 1.835-1.758 1.199-6.241 2.79-6.834-.306v-.062c.277-.112.533-.6.781-.795.187-.146.383-.302.586-.428a4.4 4.4 0 0 1 .846-.428c1.023-.402 3.196-.913 4.23-.55"/><path fill="#AC6457" d="M35.586 32.927c-.05.104-.122.185-.13.306-.479.075-.247.174-.327.307l-.293.306c-.414.122-.09-1.124-.163-1.407.262.145.654.367.912.49z"/><path fill="#BC7364" d="M28.361 31.825c.101.341.387.16 0 .673-.203.126-.4.282-.585.428-.607.014-1.433-.61-1.888-.245l.033-.184c-.368-.102-.453.303-.716.428-1.027.49-2.21.522-3.352.734-.116-.287-.153-.339-.13-.673.004-.067.174-.46.195-.611.885 1.13 1.812.977 2.994.366.297-.153.62-.263.846-.52-.957-.99-1.304-1.691.065-2.478-.7.684-.253 1.717.422 2.264.999.807 1.24.547 2.115-.184z"/><path fill="#DB9C8B" d="M27.776 32.927c-.248.195-.503.683-.78.795-.509.207-1.582.167-2.148.246.323-.27.785-1.08 1.041-1.285.456-.365 1.28.259 1.888.245"/><path fill="#9D5243" d="M21.918 32.377c-.021.152-.191.544-.196.611-.188.062-.397.075-.585.123-.331-.822.454-.747.716-1.223h.065c-.029.141.02.338 0 .489"/><path fill="#F6D2C8" d="M23.286 27.176c.413.562.863 1.183 1.496 1.53-1.988.391-2.48 1.285-2.863 3.181h-.065c-.266-.016-.567.187-.781.245-.512-.146-1.05.198-1.562 0-.063-.024-.739-.878-.846-1.01-.159-.194-.385-.223-.39-.244-.04-.154.088-.917.065-1.132.736-1.163 1.298-1.632 2.733-2.08.024-.008.202-.01.39-.06.589-.162 1.25-.166 1.823-.429"/><path fill="#F8E2DB" d="M19.511 32.132c-.745-.29-1.274-.986-1.497-1.714.053-.12.083-.273.13-.366.033-.065.053-.162.066-.184.004-.008.125-.114.13-.123.023.215-.105.979-.065 1.132.005.021.231.05.39.245.107.131.783.985.846 1.01M21.073 32.132c-.74.2-.858.273-1.562 0 .513.197 1.05-.147 1.562 0"/><path fill="#F9B399" d="M23.057 27.421c.061.005.125-.023.163.031.108.169-.938 1.076-1.14 1.193-.217.127-.863.362-1.139.337.113-.73 1.412-1.623 2.115-1.56z"/><path fill="#F6D2C8" d="M30.77 29.379c.088.03.074.045.065.122-.01.002.028.168-.033.184-.699.184-1.762.47-2.31.918-.51.416-.302.641-.13 1.223-.876.73-1.117.992-2.115.184-.677-.546-1.124-1.58-.423-2.263.308-.177 1.731-.758 2.05-.796.927-.11 2.035.13 2.896.428"/><path fill="#AC6457" d="M29.208 32.07c-.365.143-.52.226-.847.428.387-.514.101-.332 0-.673-.17-.582-.38-.807.13-1.223.026.188-.017.396.066.58.183.408.906.602.65.888"/><path fill="#F9B399" d="M15.8 26.197c-1.59 1.623-2.24 3.454-1.236 5.567.518 1.092 1.28 1.7 2.213 2.448.201.162.357.25.52.366.042.03.095.116.195.184 1.065.722 2.903 1.787 4.166 2.08-.123.124.067.151.163.184a37.4 37.4 0 0 0 6.866 1.59l-.196.49c-2.09-.284-4.308-.723-6.313-1.346-2.057-.64-4.202-1.571-5.922-2.814-1.44-1.042-2.595-2.28-3.189-3.916-.26-2.587.187-3.659 2.148-5.444-.095.405.449.314.585.611"/><path fill="#DA6743" d="M56.867 31.398c-2.572 5.017-9.286 6.814-14.709 7.646.086-.024.633-.186.65-.214.035-.055 0-.32-.064-.397.128-.022.26-.038.39-.062l.325-.06c.18-.035.345-.086.52-.123.09-.02.178-.044.261-.062 1.057-.23 2.107-.437 3.124-.795.337.337.417-.138.651-.245s.572-.189.846-.306c.939-.401 1.646-.728 2.539-1.224.6-.334 1.08-.629 1.627-1.04.114-.086.211-.152.326-.245.525-.426.793-.644 1.236-1.162.388-.455.65-.733.911-1.285 1.038-2.191.311-4.157-1.366-5.812l.52-.611c2.242 1.951 2.595 3.173 2.213 5.996"/><path fill="#FAAA70" d="M48.472 22.16c.675.345 1.906 1.201 2.603 1.652-1.466-.55-2.883-1.25-4.392-1.713-4.117-1.265-8.916-1.785-13.245-1.591v-.49c3.9-.128 11.605.39 15.034 2.142"/><path fill="#F28675" d="M20.681 22.466c.15.04.128.13.13.245s-.146-.124.066.307c-1.786.812-3.717 1.794-5.076 3.181-.138-.297-.681-.206-.586-.611 1.61-1.466 3.414-2.323 5.467-3.12z"/><path fill="#EC824A" d="m54.654 25.402-.52.611c-.873-.86-2.024-1.532-3.06-2.202-.696-.45-1.927-1.307-2.603-1.652 2.24.68 4.45 1.735 6.183 3.242"/><path fill="#EC6F66" d="M26.668 20.753c-.004.04.006.083 0 .122-.028.21.034.483-.13.673-.012-.09.06-.256-.098-.245-1.511.42-3.096.717-4.555 1.285-.101.04-.2.071-.098.184-.13.006-.262-.002-.39 0a2.5 2.5 0 0 1-.585-.062c-.003-.113.018-.204-.13-.245 1.934-.752 3.908-1.386 5.986-1.713"/><path fill="#F79C7B" d="M33.437 20.019v.489c-.063.003-.132-.023-.13.06-1.065-.326-4.178.42-5.402.49-.149-.06-.538-.227-.65-.245a.7.7 0 0 0-.066-.122c2.047-.447 4.15-.603 6.248-.672"/><path fill="#942E24" d="M21.398 23.873c.323.596.627 1.26.976 1.835a28.7 28.7 0 0 0-4.686 2.509c-1.326.878-2.947 1.883-3.124 3.548-1.004-2.113-.354-3.945 1.236-5.567 1.36-1.386 3.291-2.37 5.076-3.181.142.288.364.568.52.856z"/><path fill="#fff" d="M17.818 34.09c.45-.062 1.143.046.586.488-.113.09-.718.254-.912.184-.1-.068-.153-.153-.195-.184.008-.329.188-.444.52-.489z"/><path fill="url(#h)" d="M51.074 23.812c1.035.67 2.186 1.342 3.059 2.203 1.677 1.654 2.404 3.62 1.366 5.812.075-1.229-1.047-2.208-1.984-2.937-1.554-1.207-3.571-2.098-5.37-2.937-.428-3.462-7.388-3.223-9.957-2.752-1.132-.833-2.531-1.285-3.807-1.896-.21-.1-.97-.702-1.074-.735-.002-.084.067-.058.13-.06 4.328-.195 9.128.325 13.244 1.59 1.51.463 2.927 1.163 4.393 1.713"/><path fill="#D34E40" d="M26.538 21.548c.04.308-.07.615-.097.918-1.557 0-3.104.238-4.654.306-.102-.112-.004-.144.098-.183 1.46-.568 3.045-.866 4.556-1.285.157-.01.086.153.097.245"/><path fill="#DA6743" d="M33.308 20.57c.105.032.865.634 1.074.733 1.276.612 2.675 1.064 3.807 1.896-.719.132-1.592.367-2.278.612-.685-.455-2.487.177-3.059.061-.109-.021-1.134-1.2-1.594-1.468-.818-.476-2.408-.974-3.352-1.346 1.223-.069 4.337-.816 5.401-.489"/><path fill="#56672E" d="M40.27 37.026c-.452.379-1.03.803-1.692.856-.042.003-.087 0-.13 0-.256 0-.668-.056-.781-.306-.036-.08.051-.257-.065-.367.02-.02.04-.033.065-.06.702.88 1.788-.112 2.408-.277.23-.06.056.12.195.154"/><path fill="#F9EB86" d="M35.91 23.812c-.338.121-.78.329-1.107.49l-1.822.122c-.046-.146-.234-.404-.13-.55.571.115 2.373-.517 3.058-.062z"/><path fill="#839439" d="M39.165 36.169c.241-.011.417-.001.65.061.19.052.242.039.39.184.092.089.094.295.196.367-.01.01-.012.145-.13.245-.14-.034.034-.215-.196-.154-.62.164-1.706 1.157-2.408.276.01-.012-.01-.048 0-.061.14-.162.236-.456.455-.612.453-.162.493-.28 1.041-.306z"/><path fill="#B1C885" d="M38.806 36.292c.255-.048.486-.049.358.214.936-.126-.738.596-1.041.367-.088-.101.58-.563.683-.581"/><path fill="#F28675" d="M42.158 39.044c-3.195.902-10.28.521-13.666.062l.195-.49c2.174.296 4.84.545 7.03.428.25-.013.467-.034.715-.061.324.165.717.005 1.042-.061.503.17 1.058-.027 1.562-.061.235-.016.482.021.715 0 .157-.015.31-.047.456-.062.56-.058 1.078-.166 1.627-.245.196-.029.38-.029.585-.061.113-.018.219-.043.326-.061.065.078.1.343.065.397-.018.027-.564.19-.65.214z"/><path fill="#F9EB86" d="M20.486 34.395c.035.061-.035.346 0 .397.696 1.048 2.88.843 4.003 1.01-.252-.362-1.116-.19-1.464-.489.213-.002.438-.013.65 0 .354.167.371.104.651.184.686.196 1.385.387 2.082.55 1.606 1.224 4.377 1.206 6.053.123.99-.207 1.863-.776 2.798-1.101.461-.161 1.187-.437 1.627-.55.617-.16 1.176-.274 1.822-.307 1.87-.095 3.072.697 4.752 1.285.602.262.888.496 1.627.55.054.247-.257.332-.488.306-.739-.083-2.103-.871-3.156-1.04-.317-.05-.47-.159-.847-.122-.268-.183-.887-.196-1.203-.184-3.897.153-5.476 2.494-8.2 2.875-.394.055-1.242-.164-1.269.123-.017.182 1.437.15 1.725.122 2.458-.246 4.71-2.533 7.094-2.753.41-.037.852.114 1.204.062.237-.036.123-.111.52-.184.865.349 1.763.617 2.669.856.094.025.264-.024.358 0 .112.03-.04.152-.032.154.799.21 1.185.21 2.017.153l.065.122c-.802.058-1.554.107-2.343-.06-.065-.023-.131-.041-.196-.062-5.699-1.847-4.597-.3-9.143 1.407-.793.297-1.992.645-2.798.428l-.098.306c-.118.005-.239-.004-.358 0 .941.24 2.46.066 3.448-.245 1.626-.513 2.837-1.867 4.458-2.325 1.328-.375 3.271-.12 4.49.49.279.138.898.7 1.042.978.105.203.097.469.196.673-.083.018-.172.043-.261.061.131-1.128-1.926-2.011-2.896-1.835-.173.032-.576.329-.683.428-.101-.072-.104-.277-.196-.366.403-.181.829-.205 1.27-.184-.1-.168-.497-.158-.684-.184-.458-.063-1.28-.167-1.627.123-.549.024-.589.144-1.042.306-1.256.45-1.806 1.214-2.961 1.775-.255.123-.547.253-.846.245-.044.206.52.185.618.183.702-.014 2.188-.987 2.669-1.468.116.11.03.288.065.367-.292.314-.71.349-.944.734l1.725-.428c.043 0 .087.003.13 0-.3 1.003-2.084.598-2.863 1.162-2.19.116-4.855-.132-7.029-.428a37.4 37.4 0 0 1-6.866-1.59c-.096-.033-.286-.059-.163-.184.379.088.95.176 1.334.183.085.001.37.053.26-.122-1.064-.19-2.336-.358-3.286-.857-.055-.17.402-.067.422-.061.482.13.597.4 1.075-.03.008-.215-1.395-.18-1.302-.52 1.266.426 2.763.457 4.068.795 1.565.405 2.98 1.225 4.654 1.407 3.32.36 4.465-1.19 7.288-2.202 1.044-.375 1.903-.638 2.994-.734-.01.212.51.149.585.03l-.585-.03c.227-.02.48-.087.715-.092-.677-.253-1.326-.261-2.05-.154-.28.042-1.928.549-2.147.673-.218.125-.25.186-.293.428-1.057.406-2.252.949-3.222 1.346-.208.085-.421.43-.846.55-.518.148-1.828.174-2.375.123-1.506-.142-3.084-1.032-4.523-1.407-.965-.252-4.01-.459-4.458-1.193-.126-.206-.186-.414-.065-.642.01-.019.26-.176.293-.245-.03.316.246.222.293.306"/><path fill="#B3653A" d="M20.42 27.422c-.13.096-.244.249-.325.306-.251.178-.588.476-.814.611-.282.17-1.887.776-1.951.857-.164.203.214.127.228.153-.274.827-1.24.722-1.758 1.5-.006.008-.154-.015-.195.091.249 1.36-.317 2.05 1.041 2.906.221.14.35.284.65.276l-.52.092c-.932-.747-1.694-1.356-2.212-2.448.177-1.665 1.797-2.67 3.124-3.548l.358.49c.667-.597 1.554-.9 2.31-1.347l.066.062z"/><path fill="#CF9841" d="M18.404 34.58c.193.727.931.9 1.464 1.222.07.042-.153.113.098.245.95.498 2.222.665 3.287.857.11.175-.175.124-.26.123a7.5 7.5 0 0 1-1.335-.184c-1.263-.293-3.1-1.358-4.165-2.08.193.071.799-.095.911-.184"/><path fill="#DDAF4B" d="M16.712 33.294c.314.123.813.585 1.106.795-.332.045-.512.16-.52.489-.163-.117-.318-.206-.52-.367l.52-.091c-.302.008-.43-.137-.65-.276.073-.105.029-.2 0-.306s-.16-.206-.131-.337c.064-.045.114.059.195.091z"/><path fill="#EEE1B3" d="M55.5 31.825c-.26.552-.522.83-.911 1.285l-1.367.428c-.02-.046-.045-.077-.065-.123.291-.079.79-.262.977-.489.354.092 1.39-1.247.715-1.223.248-1.247-2.444-2.896-3.448-3.487-.028-.023-.143-.272-.294-.245l-.097.366c-.743-.544-1.944-.801-2.798-1.162.033-.118-.069-.274.097-.366l1.01.275-1.172-.52a3.6 3.6 0 0 0 0-.61c1.799.838 3.816 1.728 5.37 2.936.938.729 2.06 1.708 1.984 2.936"/><path fill="#F1D05F" d="M43.98 38.189c-.176.036-.34.087-.52.122-.025-.364.183-.306 0-.642-.182-.336-1.966-1.391-1.236-.52-.534.105-.464.557.196.55-.073.364-.348.59-.586.857-.548.08-1.067.187-1.627.245.453-.401 1.657-.764 1.236-1.56-.34-.643-.993.364-1.268.52-.869.493-2.736 1.114-3.742 1.223-.248.027-.465.047-.716.061.78-.564 2.564-.159 2.863-1.162.661-.053 1.24-.477 1.692-.856.12-.1.12-.236.13-.245.108-.1.51-.397.684-.428.97-.176 3.028.707 2.896 1.835z"/><path fill="#EDDA94" d="M53.027 34.518a13 13 0 0 1-1.627 1.04c-.715.077-1.425.42-2.115.612-.215.06-.727.042-.944.122-.942-.133-1.844.177-2.798.245l-.066-.122c.296-.02.614-.097.912-.123 1.255-.108 2.747-.222 3.937-.611.533-.174 2.456-1.032 2.506-1.591.327-.14.159.196.196.428z"/><path fill="#CF9841" d="M51.4 35.557c-.892.496-1.599.822-2.539 1.224-.215-.116-.615.087-.846.183.007-.112-.027-.357 0-.427.043-.111.233-.21.326-.245.218-.08.73-.063.944-.123.69-.193 1.401-.535 2.115-.612"/><path fill="#DCBD74" d="M52.962 33.05c-.004.016 0 .042 0 .06.01.318.139.177.195.307.02.046.046.077.066.123.117.264.206.452.13.734-.115.093-.211.159-.326.245-.036-.232.131-.568-.196-.428.057-.632-.805-1.214-1.236-1.53-1.589-1.16.957.197 1.367.49z"/><path fill="#CF9841" d="M43.46 38.31q-.163.031-.326.061c-.015-.242-.034-.698-.326-.795.355-.333-.238-.496-.586-.428-.73-.871 1.05.176 1.237.52s-.026.278 0 .642"/><path fill="#DDAF4B" d="M54.589 33.11c-.443.52-.712.738-1.236 1.163.075-.282-.013-.47-.13-.734z"/><path fill="#fff" d="M48.015 36.537c-.027.07.007.316 0 .427 0 .006-.11-.01 0 .123-.234.106-.314.582-.65.245-.412-.412.149-.998.65-.796"/><path fill="#F1D05F" d="M42.809 37.577c.291.097.311.553.326.795-.13.024-.262.04-.39.062-.107.018-.212.043-.326.06-.32-.09.206-.63.13-.795.015-.002.25-.112.261-.122zM48.861 36.782c-.274.117-.604.196-.846.306-.11-.133 0-.117 0-.123.23-.096.63-.299.846-.183"/><path fill="#CF9841" d="M40.206 38.8c-.147.015-.3.047-.455.062.621-.331 1.18-.676 1.627-1.193l-.097-.153c-.146.193-.711.11-.749.122-1.031.34-1.607.988-3.059 1.285-.323.066-.717.226-1.041.061 1.006-.11 2.873-.73 3.742-1.223.276-.157.929-1.163 1.268-.52.42.795-.784 1.16-1.236 1.56"/><path fill="#DDAF4B" d="M39.75 38.862c-.233.021-.481-.016-.716 0 .489-.417 1.26-.574 1.497-1.224.038-.011.603.073.748-.122l.098.153c-.448.518-1.006.863-1.627 1.193"/><path fill="#F9EB86" d="M39.035 38.861c-.504.035-1.059.233-1.562.062 1.451-.298 2.027-.946 3.058-1.285-.236.651-1.008.807-1.496 1.223"/><path fill="#CF9841" d="M42.548 37.699c.076.163-.45.704-.13.795-.206.032-.39.032-.585.061.237-.267.513-.493.585-.856.042 0 .091.007.13 0"/><path fill="#B3653A" d="M27.06 35.007c.55.539.726.765 1.497 1.04.36.129.31.128.715.184.917.127 2.281.129 3.19-.06-1.676 1.082-4.447 1.1-6.053-.123-.044-.034-.119-.121-.195-.184-.053-.043-.218-.432-.359-.49-.019-.007-.206.074-.422 0 .043-.046.348-.117.39-.122.45-.048.795-.064 1.236-.245"/><path fill="#F1D05F" d="M46.388 36.291c-.297.026-.616.103-.911.123-.832.056-1.219.056-2.017-.153-.009-.002.144-.124.032-.153-.094-.025-.264.024-.358 0l-1.01-.49c-.338.09-.511-.054-.683-.306 1.053.17 2.418.956 3.157 1.04.231.027.542-.059.488-.306.953.072 1.155-.191 1.919-.306 1.36-.204 5.355-.411 4.653-2.447l.098-.428c.748.282.879 1.105.423 1.682-.758.96-4.211 1.396-5.37 1.56-.044.007-.02-.127-.065-.122l-.358.306zM19.315 33.6c-.298.45-.512 1.264.098 1.59.036.02.58.19.748.246-.093.34 1.31.305 1.301.52-.476.43-.593.16-1.074.03-.021-.006-.477-.11-.423.061-.25-.131-.028-.202-.097-.245-.533-.323-1.271-.495-1.464-1.223.555-.443-.136-.55-.586-.49-.293-.209-.793-.67-1.107-.795l-.065-.306c.231.19.518.294.781.428.376.193.756.37 1.14.55l.358-.58c-.447.627-2.856-1.708-2.115-1.683.4 1.07 1.303 1.113 2.147 1.53.115.056.288.326.359.366zM43.004 36.414v.061c-1.219-.608-3.162-.864-4.49-.489-1.094-.017-2.05.91-2.961 1.346-1.758.84-2.633 1.137-4.588 1.223l.098-.306c.806.217 2.005-.13 2.798-.428 4.546-1.707 3.445-3.254 9.143-1.407"/><path fill="#F1D05F" d="M40.596 35.191c-.162.016-.123.06-.13.061-.399.072-.283.148-.52.184-.141-.176-.803-.195-1.01-.184-3.062.161-5.199 2.529-7.224 2.753-.555.061-1.221-.045-1.79 0 .026-.287.875-.067 1.269-.123 2.725-.38 4.303-2.722 8.2-2.875.316-.013.936.001 1.203.184z"/><path fill="#BE7833" d="m36.301 34.212-1.041.856c-.935.326-1.808.895-2.798 1.101-.909.19-2.273.188-3.19.061 1.097.136 2.012-.337 2.994-.611 1.418-.398 2.685-.821 4.035-1.407"/><path fill="#C18938" d="M39.946 35.435c-.354.052-.796-.099-1.204-.061-2.384.219-4.637 2.506-7.094 2.752-.288.029-1.742.06-1.725-.122.568-.046 1.235.061 1.79 0 2.026-.225 4.161-2.592 7.224-2.753.207-.01.869.007 1.01.184z"/><path fill="#DDAF4B" d="M20.096 33.661c-.217.245-.393.4-.195.673-.121.228-.061.436.065.642.449.735 3.493.942 4.458 1.193 1.439.376 3.016 1.265 4.523 1.407l-.066.061c-1.673-.181-3.088-1.001-4.653-1.407-1.305-.337-2.802-.368-4.068-.795-.167-.056-.711-.225-.748-.245-.61-.327-.395-1.14-.098-1.59.324.186.393.224.781.06z"/><path fill="#CF9841" d="m25.628 34.64.196.612c-.042.005-.347.076-.39.123-.277-.093-.558-.157-.814-.307l-.163.215 1.758.58c.076.063.151.15.195.184a46 46 0 0 1-2.082-.55c.035-.155-.477-.173-.65-.184-.739-.348-.132-.263-.131-.918.369.215.665.598 1.14.612.03-.376-.116-.435-.033-.857.242.328.544.468.976.49zM38.514 35.986c-1.621.459-2.832 1.812-4.458 2.325-.988.311-2.507.484-3.45.245.12-.004.24.005.36 0 1.954-.087 2.829-.382 4.587-1.223.912-.436 1.867-1.363 2.962-1.346z"/><path fill="#DDAF4B" d="M39.165 34.702c-1.091.097-1.95.36-2.994.734.032-.215-.632.065-.78.122.041-.242.07-.302.292-.427.223-.126 1.866-.632 2.148-.673.723-.108 1.373-.1 2.05.153-.236.006-.49.072-.716.092z"/><path fill="#F1D05F" d="M21.137 34.028c.067.332.095.432.26.734.376.688.545.683 1.4.673.012 0 .17-.122.228-.123.348.299 1.212.128 1.464.49-1.123-.167-3.307.037-4.003-1.01-.035-.052.035-.337 0-.398zM38.123 36.476c-.22.156-.316.45-.455.611l-2.733 1.591c-.099.002-.663.023-.618-.184.298.01.59-.121.846-.245 1.155-.56 1.705-1.324 2.961-1.774"/><path fill="#CF9841" d="M36.171 35.435c-2.823 1.013-3.969 2.563-7.288 2.202l.065-.06c.548.05 1.857.025 2.375-.123.425-.12.639-.466.847-.55.969-.398 2.164-.94 3.221-1.347.15-.057.813-.337.781-.122"/><path fill="#F9EB86" d="M36.887 34.518c-.44.114-1.166.39-1.627.55l1.041-.856c.12-.052.235-.143.326-.184.153-.07.338-.085.52-.184.301.124.953-.057 1.107.276-.43.103-1.056.102-1.366.397z"/><path fill="#AA6628" d="M40.336 33.661c.159.603-.395.241-.749.428 1.435.08 2.62.862 3.873 1.407-1.68-.589-2.882-1.38-4.751-1.285l-.098-.244.618-.092-.26-.154c.47.012.9-.016 1.366-.06"/><path fill="#F1D05F" d="M20.942 33.172c.35.6-.496.526-.52 1.071l.618-.52c.297.038.09.266.098.307l-.65.366c-.048-.083-.323.011-.294-.306-.033.07-.283.226-.293.245-.198-.273-.023-.428.195-.673.114-.127.306-.291.455-.366.126-.064.26-.08.39-.123z"/><path fill="#C18938" d="m38.969 33.723.26.153-.617.092.097.245c-.645.032-1.205.146-1.822.306.31-.295.936-.294 1.366-.397-.153-.333-.806-.151-1.107-.276.054-.028.083-.232.39-.245.46.086.964.11 1.432.123z"/><path fill="#CF9841" d="M37.668 37.087c-.01.012.01.05 0 .061-.025.027-.045.042-.065.061-.48.482-1.966 1.454-2.669 1.469z"/><path fill="#BE7833" d="m38.449 37.882-1.725.428c.232-.385.652-.42.944-.734.114.25.526.304.781.306"/><path fill="#CF9841" d="M40.596 35.191c.378-.037.53.072.846.122.172.252.345.397.684.307l1.009.489c-.905-.238-1.804-.508-2.67-.857.008 0-.032-.045.131-.061"/><path fill="#DDAF4B" d="M40.792 36.048c-.276.286-.67.063-.977.184a2 2 0 0 0-.65-.062c.348-.29 1.168-.184 1.627-.122"/><path fill="#CF9841" d="M40.206 36.414c-.148-.145-.2-.132-.39-.184.306-.12.701.103.977-.184.187.026.584.016.683.184-.44-.02-.867.003-1.269.184"/><path fill="#96943B" d="M24.326 35.496c-.28-.08-.299-.017-.65-.184.173.011.685.029.65.184"/><path fill="#DDAF4B" d="m39.165 34.702.585.03c-.077.119-.595.182-.585-.03"/><path fill="#BB764D" d="M22.374 25.708c.097.16.168.341.26.49-.176.192-.472.238-.715.306-1.205.334-.775.392-1.562.856-.787.465-1.644.75-2.31 1.346l-.359-.489a28.7 28.7 0 0 1 4.686-2.509"/><path fill="#CF9841" d="M22.894 26.626c-.776.118-1.415.363-1.822 1.04-1.435.448-1.997.918-2.733 2.08-.005.01-.126.115-.13.123-.664.278-1.874.372-2.148 1.131-.053.147-.097 1.02-.065 1.162.073.332.394.616.65.826l.066.307c-.082-.033-.13-.137-.196-.092-.03.13.101.23.13.337-.323-.008-.182-.325-.26-.459-.088-.15-.365-.319-.39-.366-.286-.53-.065-1.256-.196-1.866.518-.777 1.485-.672 1.758-1.499-.014-.025-.391.05-.228-.153.065-.08 1.669-.687 1.952-.857.226-.135.562-.433.813-.611.547.034.926-.608 1.302-.887-.011-.237-.857.493-.977.58l-.065-.06c.787-.465.357-.523 1.562-.857l-.033.183.879-.306c.059.092.099.197.13.245z"/><path fill="#BE7833" d="M15.8 30.847c.13.61-.09 1.335.196 1.865.025.048.303.217.39.367.078.133-.063.45.26.459.03.105.074.201 0 .306-1.357-.856-.792-1.546-1.041-2.906.041-.106.19-.083.195-.092"/><path fill="#F1D05F" d="M20.097 27.727c.08-.057.194-.209.325-.306.12-.09.966-.819.977-.581-.375.278-.756.922-1.301.887z"/><path fill="#EEE1B3" d="M51.4 28.217c.403.337.718.875 1.009 1.1.164.128.7.275.911.428 1.108.81 1.343 1.066.944 2.387-.251.164-.48.229-.716.427-.82.072-1.576-.337-2.278-.703-.022-.4 2.327 1.08 2.733-.061.443-1.244-.724-1.716-1.66-2.234-.134.29-.113.366-.358.612a3 3 0 0 1-.455.307c-.053.021-1.171.35-1.107.06.022-.001.044.003.065 0 1.106-.117 1.673-.685 1.042-1.651a2 2 0 0 0-.52-.55l.097-.367c.15-.027.266.222.294.245z"/><path fill="#CF9841" d="M54.849 31.704c-.062.314-.372.74-.65.918-.002-.01-.192-.004-.196-.092-.002-.024.185-.15.26-.397.4-1.32.164-1.577-.944-2.386-.209-.154-.747-.3-.911-.428-.29-.226-.605-.765-1.01-1.101 1.006.59 3.698 2.24 3.45 3.487zM51.009 28.338c.224.165.37.321.52.55-.152.035-.219-.059-.326-.122-.2-.118-.365-.371-.39 0-.424-.634-1.994-.958-2.733-1.1.055-.166.083-.326.13-.49.856.36 2.055.618 2.798 1.162"/><path fill="#DDAF4B" d="M54.198 32.62c.015.14.055.16-.066.307-.187.227-.685.41-.976.49-.056-.131-.186.011-.196-.307.202-.054.27-.174.39-.306.074-.08.183-.235.196-.245.236-.2.465-.264.716-.428-.075.247-.262.374-.26.397.003.088.194.082.195.092"/><path fill="#F9EB86" d="M54.133 32.927c.12-.147.08-.167.065-.306.28-.177.589-.604.65-.918.674-.024-.361 1.315-.715 1.223"/><path fill="#fff" d="M42.809 37.577c-.01.01-.246.12-.26.123-.039.008-.09 0-.131 0-.66.007-.73-.447-.196-.55.348-.069.942.095.586.427"/><path fill="#DDAF4B" d="M48.34 36.292c-.093.034-.28.133-.325.244-.501-.203-1.063.384-.65.796-1.018.358-2.068.564-3.125.795-.098-.204-.09-.47-.195-.672l1.431-.643c-.539-.143-1.12.053-1.66-.03-.304-.047-.455-.252-.617-.307.79.168 1.54.119 2.343.061.954-.068 1.856-.378 2.798-.245"/><path fill="#CF9841" d="M43.2 36.475c.161.055.313.26.617.307.54.083 1.121-.113 1.66.03l-1.431.643c-.143-.278-.764-.84-1.042-.98v-.06zM46.68 36.782c.054-.014.183-.012.229.03.078.105-1.405.849-1.627.796.278-.063 1.283-.797 1.399-.826M52.832 34.09c-.05.558-1.973 1.415-2.506 1.59-1.19.39-2.682.503-3.938.612l.359-.307c.045-.005.02.129.065.123 1.158-.165 4.611-.601 5.369-1.56.456-.577.325-1.4-.423-1.683l-.097.428c-.006-.016-.255-.161-.261-.215-.01-.087.27-.34.196-.52.43.315 1.293.897 1.236 1.53z"/><path fill="#B3653A" d="M49.317 28.522c.549 1.566-.872 1.08-1.562 1.683-.022.019.212.184-.293.337-.421.127-.838-.017-1.269.183.692-.758 1.378-1.628 1.758-2.568.452.033.952.205 1.366.366"/><path fill="#EDDA94" d="M42.484 34.273c1.322.546 2.882 1.213 4.36.489l.065.061-.325.428c-.198.03-.51.008-.684.122.154.079 1.489-.219 1.367 0-2.003.802-3.787-.131-5.532-.979-.242-.229.736-.047.748-.122z"/><path fill="#CF9841" d="M50.814 28.767c.026-.371.19-.118.39 0 .13.46.293 1.205-.163 1.53-.135.096-.529.05-.553.245-.02.002-.043-.002-.065 0-.428.03-.701.067-.716-.367.927-.48 1.011-.865.13-1.407a3.3 3.3 0 0 0-.52-.245c-.415-.16-.914-.334-1.366-.366.026-.065.04-.18.065-.245.989.14 2.379.408 2.896 1.284.12-.051-.05-.358-.098-.428"/><path fill="#DDAF4B" d="M49.383 33.172c.413 1.106-1.103 1.736-2.018 1.958-.248.06-.525.084-.78.122l.325-.428c.37-.22.646-.055.684-.061.208-.033 1.183-.71 1.333-.887.161-.19.198-.633.456-.704"/><path fill="#AA6628" d="M42.353 34.028c1.596.706 4.03 1.655 5.142-.245-.05.512-.135.726-.651.979-1.478.723-3.039.056-4.36-.49-.642-.265-1.092-.64-1.823-.61.23-.035.489-.128.716-.185.202.27.656.41.976.55"/><path fill="#C18938" d="M48.602 32.132c-.245-.162-.182.052-.196.06-.396.267-.294.432-.553.857-.507-.265-.246-.757.098-1.07-.508-.042-.657.024-1.107-.154.708-.084 1.655-.413 2.213.03l-.553-.03c-.057.029.077.273.098.307"/><path fill="#A35826" d="M49.707 30.174c-.007-.22.392-.249.455-.58.063-.333-.105-.58-.326-.827.881.542.797.927-.13 1.407z"/><path fill="#CF9841" d="M49.838 28.767c.22.247.39.49.325.826-.064.336-.463.36-.455.581.015.435.288.398.716.367-.064.29 1.053-.04 1.107-.061.064.07 0 .174 0 .183-.66.187-1.318.246-1.952.337.437.17 1.062.352 1.53.276.533-.087.406-.086.422-.55.486-.113.14.556.293.672.522-.176.372-.823.163-1.223.245-.246.223-.323.359-.611.935.516 2.102.989 1.66 2.233-.406 1.142-2.756-.34-2.733.061.702.366 1.457.775 2.277.704-.012.01-.122.165-.195.245-.377-.163-.337.038-.39.245-.41-.294-2.957-1.65-1.367-.49.075.18-.205.433-.195.52.006.053.255.199.26.215.703 2.036-3.294 2.244-4.653 2.447-.765.115-.966.377-1.92.306-.738-.055-1.024-.288-1.626-.55-1.252-.545-2.438-1.327-3.873-1.407.353-.187.907.175.749-.428.261-.024.194-.118.228-.122.045-.006.007.136.098.122.73-.027 1.18.347 1.822.612-.011.075-.99-.107-.748.122 1.744.847 3.53 1.78 5.532.98.122-.22-1.214.078-1.367 0 .174-.115.486-.092.684-.123.255-.039.533-.062.78-.123-.033.166.522.01.553 0 .9-.272 2.066-.9 1.66-1.988-.134-.36-.828-.771-.976-1.01-.021-.033-.155-.277-.098-.306l.553.03c-.558-.443-1.506-.114-2.213-.03-.013-.006-.031-.216-.163-.245-.45-.096-1.02.189-1.399-.061.103-.084.227-.16.326-.245.048.152.122.098.228.061.52-.178.954-.381 1.53-.458l-1.432.092c.068-.048.113-.177.26-.245.432-.2.849-.056 1.27-.184.503-.153.27-.317.293-.337.69-.602 2.11-.117 1.562-1.683.18.07.355.143.52.245z"/><path fill="#AA6628" d="M53.352 32.805c-.122.132-.188.252-.39.306 0-.019-.004-.044 0-.061.053-.207.013-.407.39-.245"/><path fill="#B3653A" d="M48.602 32.132c.148.238.842.649.976 1.01.406 1.087-.76 1.715-1.66 1.988-.032.01-.586.166-.552 0 .914-.223 2.43-.853 2.017-1.958-.184-.493-1-.576-.977-.979.014-.009-.05-.222.196-.061M51.53 30.725c-.017.464.111.463-.422.55-.468.076-1.093-.106-1.53-.276.634-.09 1.292-.149 1.952-.337v.062"/><path fill="#DDAF4B" d="M51.53 30.725v-.062c0-.009.064-.112 0-.183.083-.034.39-.24.456-.307.209.402.358 1.048-.163 1.224-.152-.117.192-.787-.294-.673z"/><path fill="#A35826" d="M45.607 31.275c.118-.103.185-.21.326-.306l1.431-.092c-.576.077-1.01.28-1.529.458-.106.037-.18.091-.228-.06"/><path fill="#B3653A" d="M49.414 32.01c.53.122.73.459.911.917z"/><path fill="#A6512F" d="M51.302 31.52c.2-.12.133.176.065.184-.023.002-.158-.128-.065-.184"/><path fill="#F9EB86" d="M25.433 35.375c.217.073.404-.008.423 0 .14.057.305.446.358.489l-1.758-.581.163-.215c.256.149.537.213.814.307"/><path fill="#CF9841" d="M18.143 30.052c-.047.093-.078.248-.13.367-.239.537-.598.542-.326 1.407-.62.593.945 1.318 1.432 1.223.518.244.836.292 1.431.245-.15.075-.342.24-.455.367-.388.163-.457.125-.78-.062-.07-.04-.245-.31-.36-.366-.843-.416-1.748-.46-2.147-1.53-.74-.025 1.668 2.31 2.115 1.683l-.358.58c-.384-.18-.762-.357-1.14-.55.146-.057.049-.18-.032-.245-.782-.612-1.581-.558-1.269-1.926.014-.06.175 0 .196-.062.029-.084-.032-.315 0-.366.269-.433 1.335-.574 1.822-.765z"/><path fill="#B3653A" d="M18.209 29.868c-.012.02-.033.12-.066.184-.486.19-1.553.332-1.822.765-.032.051.03.282 0 .366-.021.062-.182 0-.196.062-.31 1.368.487 1.314 1.269 1.926.08.064.179.188.033.245-.263-.135-.55-.238-.782-.427-.256-.21-.576-.494-.65-.826-.033-.145.013-1.017.065-1.162.274-.76 1.484-.855 2.148-1.132"/><path fill="#AA6628" d="M35.455 33.355c.006.226.11.01.13.092.015.056-.123.193-.065.306.2.386.723.26 1.107.276-.09.041-.206.131-.326.183-1.35.586-2.617 1.01-4.035 1.407 1.199-.59 2.17-.928 2.863-2.08.08-.131-.152-.232.326-.306q-.003.06 0 .123z"/><path fill="#BE7833" d="M21.724 32.988c-.022.334.014.386.13.673.038.095-.07.146-.065.153.159.203.627-.102.846.092-.589-.05-1.21.284-1.236.857-.165-.302-.194-.402-.26-.734-.01-.04.2-.269-.099-.307l-.618.52c.024-.544.87-.47.52-1.07.048-.017.168-.055.196-.062.19-.047.397-.061.586-.123z"/><path fill="#3D451C" d="M36.756 33.355c.255.077.519.196.781.245-.307.013-.337.216-.39.245-.182.099-.367.114-.52.184-.383-.016-.907.11-1.107-.276-.058-.113.08-.249.065-.306-.02-.081-.124.134-.13-.092.22-.14.252.212.358.245.187.057 1.124.06.944-.245"/><path fill="#F9EB86" d="M22.894 26.626c.01.015.13.09.195.184-.58.26-1.182.306-1.627.795-.188.052-.366.053-.39.061.407-.677 1.046-.922 1.823-1.04z"/><path fill="#B3653A" d="m22.764 26.381-.88.306.033-.183c.243-.068.54-.113.716-.307.035.056.09.122.13.184"/><path fill="#AA6628" d="M45.802 32.438c-.07.04-.085.024-.065.122-.87-.36-1.018-.044-1.627.245-.413.197-.784.452-1.236.581.575.362 1.244.613 1.952.643.202.008.529.025.716 0 .209-.029.382-.143.585-.184-.064.125-.2.202-.293.306l.065.123c1.147-.596 1.11-1.215.033-1.896.005-.004-.14-.016-.033-.123 2.155 1.268.454 2.372-1.432 2.203-.727-.066-1.4-.591-2.114-.428-.321-.143-.775-.283-.977-.55 1.461-.36 2.076-.892 3.32-1.469.397.04 1.142-.074 1.106.428z"/><path fill="#CF9841" d="M44.956 31.826c.214-.03 1.812.27 1.985.366.104.058-.154.053-.066.123.594.468.689.746.619 1.468-1.111 1.899-3.547.95-5.142.245.715-.163 1.388.363 2.115.428 1.886.17 3.587-.935 1.432-2.203-.107.107.038.119.033.123-.09.07-.108.048-.13.061.035-.503-.71-.388-1.108-.428.04-.018.046-.154.261-.183z"/><path fill="#EEE1B3" d="M50.814 28.767c.047.07.219.377.098.428-.517-.878-1.907-1.145-2.896-1.285.026-.07.041-.173.065-.245.74.143 2.31.468 2.733 1.101z"/><path fill="#DDAF4B" d="M51.53 28.89c.63.965.064 1.534-1.042 1.652.026-.196.419-.148.553-.245.456-.325.293-1.07.163-1.53.107.064.175.157.326.123"/><path fill="#CF9841" d="M46.844 31.825c.45.178.6.112 1.107.154-.343.312-.605.805-.098 1.07.26-.424.157-.59.553-.856-.023.403.792.486.977.98-.258.07-.296.514-.456.703-.15.177-1.125.853-1.333.887-.038.006-.314-.158-.684.061l-.065-.061c.517-.253.602-.466.65-.98.071-.722-.024-1-.617-1.468-.088-.069.17-.064.065-.122-.173-.096-1.771-.396-1.984-.367.066-.139.21-.212.325-.306.38.249.95-.035 1.4.061.13.028.148.24.162.245z"/><path fill="#A6512F" d="M48.113 32.805c.57.25.934.747.39 1.223.038-.53.054-.726-.423-1.071l.033-.154zM47.463 32.01c.245-.042.167.16.065.183-.035.008-.262-.151-.066-.184"/><path fill="#F1D05F" d="M17.688 31.825c.114.362 1.073 1.055 1.431 1.223-.486.095-2.052-.63-1.431-1.223"/><path fill="#913C1F" d="M44.11 32.805c-.088.116-.068.234-.065.366.013.574.247.642.781.857-.707-.03-1.377-.28-1.952-.642.452-.13.823-.386 1.236-.581"/><path fill="#C18938" d="M46.129 33.845c.273-.538.293-1.002-.39-1.285-.02-.098-.006-.083.065-.122.023-.013.04.009.13-.061 1.078.681 1.114 1.301-.032 1.896l-.066-.123c.094-.102.23-.18.294-.306z"/><path fill="#2B2D15" d="M45.543 34.028c-.187.026-.514.009-.716 0-.534-.216-.768-.283-.781-.857.179.29 1.188.436 1.269.49.138.091-.23.299.228.366"/><path fill="#645824" d="M45.737 32.56c.684.283.663.746.39 1.284-.203.04-.377.155-.586.184-.457-.068-.089-.276-.228-.367-.082-.053-1.09-.2-1.268-.489-.004-.132-.023-.25.065-.366.608-.29.757-.605 1.627-.245z"/><path fill="#817849" d="M44.989 32.5c.327-.038.746.227.455.55-.365.027-.69 0-.944-.276.16-.059.313-.256.488-.276z"/></g><defs><linearGradient id="b" x1="25.565" x2="50.257" y1="32.718" y2="44.903" gradientUnits="userSpaceOnUse"><stop stop-color="#7F8280"/><stop offset=".88" stop-color="#183036"/><stop offset="1" stop-color="#3C4E50"/></linearGradient><linearGradient id="c" x1="40.107" x2="36.966" y1="28.981" y2="32.896" gradientUnits="userSpaceOnUse"><stop stop-color="#D9BAB4"/><stop offset="1" stop-color="#D7CECF"/></linearGradient><linearGradient id="d" x1="37.995" x2="39.858" y1="25.44" y2="29.016" gradientUnits="userSpaceOnUse"><stop stop-color="#FECE1F"/><stop offset="1" stop-color="#F68A25"/></linearGradient><linearGradient id="e" x1="28.171" x2="31.681" y1="22.307" y2="25.508" gradientUnits="userSpaceOnUse"><stop stop-color="#507D3A"/><stop offset="1" stop-color="#385D2C"/></linearGradient><linearGradient id="f" x1="24.372" x2="28.393" y1="22.181" y2="26.529" gradientUnits="userSpaceOnUse"><stop stop-color="#56863C"/><stop offset="1" stop-color="#426F35"/></linearGradient><linearGradient id="g" x1="22.107" x2="27.977" y1="25.562" y2="28.218" gradientUnits="userSpaceOnUse"><stop stop-color="#58883D"/><stop offset="1" stop-color="#3F6B33"/></linearGradient><linearGradient id="h" x1="48.597" x2="43.199" y1="22.073" y2="28.056" gradientUnits="userSpaceOnUse"><stop stop-color="#F89D52"/><stop offset="1" stop-color="#EF7F4F"/></linearGradient><filter id="a" width="70" height="70" x="0" y="0" color-interpolation-filters="sRGB" filterUnits="userSpaceOnUse"><feFlood flood-opacity="0" result="BackgroundImageFix"/><feBlend in="SourceGraphic" in2="BackgroundImageFix" result="shape"/><feColorMatrix in="SourceAlpha" result="hardAlpha" values="0 0 0 0 0 0 0 0 0 0 0 0 0 0 0 0 0 0 127 0"/><feMorphology in="SourceAlpha" radius="3" result="effect1_innerShadow_366_118543"/><feOffset/><feGaussianBlur stdDeviation="1"/><feComposite in2="hardAlpha" k2="-1" k3="1" operator="arithmetic"/><feColorMatrix values="0 0 0 0 0 0 0 0 0 0 0 0 0 0 0 0 0 0 0.08 0"/><feBlend in2="shape" result="effect1_innerShadow_366_118543"/></filter></defs></svg>