<svg xmlns="http://www.w3.org/2000/svg" width="70" height="70" fill="none"><g filter="url(#a)"><path fill="#fff" fill-opacity=".75" d="M0 35C0 15.67 15.67 0 35 0s35 15.67 35 35-15.67 35-35 35S0 54.33 0 35"/><path fill="#F26E86" d="M22.514 33.383c.082.815-.071 1.2-.713 1.644l-.615-.93c-.487.081-.035.385-.551.288.16-.788 1.194-1.428 1.877-1.002z"/><path fill="#F0586E" d="M20.766 35.314c.392.182.71-.06 1.037-.286.641-.444.795-.831.712-1.645 1.28.798-.873 3.049-1.748 1.931"/><path fill="#F26E86" d="M21.803 35.027c-.327.227-.645.469-1.037.287-.262-.334-.218-.498-.13-.93.516.1.065-.206.551-.286zM22.903 30.02c-.163.416-.41.736-.809.858-.67.205-2.677.493-3.334.287.276-.13.544-.358.841-.429.84-.202 1.77.265 2.493 0 .375-.137.191-.199-.064-.214l.875-.5z"/><path fill="#F69594" d="M19.6 30.736c-.297.071-.566.3-.84.429-.558-.176-.786-.925-.842-1.503.347-.023.41.453.68.644.3.213.764.156 1.002.429z"/><path fill="#A28252" d="M20.96 25.585c-.011.003.014.177-.098.214-.504.167-.64-.205-.679-.214.212-.1.645-1.198.875-1.145.329.075-.436.877-.098 1.145"/><path fill="#F8A79C" d="M20.183 25.585c.04.01.176.382.68.214.11-.037.086-.212.097-.214 1.482-.373 2.434 3.183 1.942 4.436l-.875.501c.255.016.44.077.064.214-.724.265-1.653-.202-2.492 0-.239-.273-.702-.216-1.003-.428-.27-.191-.334-.668-.68-.645-.132-1.365.58-4.496 2.266-4.078z"/><path fill="#F9CBBF" d="M19.892 26.23c.913-.075-.486 2.391-.745 1.394-.116-.447.376-1.188.745-1.395"/><path fill="#9ABF43" d="M49.77 33.025c-.12-.28-.252-.377-.453-.572.825-1.224 1.95-1.965 3.302-2.289l-.097 1.717c-.397.06-1.814 1.488-2.008 1.503-.315.025-.743-.548-.517-.93l-.226.573z"/><path fill="#A7CE38" d="M49.77 33.025c.04.09.045.119.065.215-.126.092-.05.352-.064.5-.062.614-.405.805-.841 1.146-.243.188-.537.313-.745.572-.431-.153.932-2.707 1.133-3.005.2.195.333.292.453.572"/><path fill="#A7CE38" d="M48.928 34.884c.438-.339.78-.53.841-1.145.256.014.1-.34.065-.501a.9.9 0 0 0-.065-.214l.226-.572c-.226.382.204.956.518.93.192-.016 1.611-1.443 2.007-1.504l.098-1.717c.38-.09 2.671-.458 2.784-.108-.34 4.43-3.568 5.947-7.219 5.76l-.064-.144.81-.788z"/><path fill="#C1DB7A" d="M53.622 30.52c.526.04.053.579-.421.18.089 0 .399-.181.421-.18M49.77 33.74c.016-.148-.06-.408.065-.5.033.161.19.514-.065.5"/><path fill="#F4C97E" d="M29.183 32.023c-.403.247-.58.797-.939 1.145-.409.398-.926.636-1.424.86-.067.028 0 .187-.064.213-.369.148-.826-.308-1.199-.143-.951-.991-.873-2.542-.355-3.792 1.085 1.04 2.39 1.862 3.885 1.503.099.072.08.117.097.214z"/><path fill="#CE6E50" d="M29.183 32.023c.385 2.112-2.145 3.616-3.625 2.075.37-.165.828.291 1.198.143.065-.026-.002-.185.064-.214.498-.224 1.015-.46 1.424-.858.359-.349.536-.9.94-1.146"/><path fill="#51A646" d="M30.542 25.298c.42.68 1.435 2.875 1.424 3.649a197 197 0 0 0-3.302-2.79c.186-.144.478.384.615.357.042-.007.671-.491.68-.536.067-.358-.568-.561-.584-.644-.008-.045.418-.435.227-.823.138.376.37.195.387.214.385.385.53 1.808.777 2.361.056-.473-.198-.963-.291-1.395-.009-.038-.095-.447.064-.393zM25.686 23.868c.576.694 1.301 1.136 1.877 1.825l-1.91.465c-.066-.014-.25-.878-.355-1.037-.05-.075-.106.08-.13.036-.212-.404-.297-.622-.453-1.146.183-.25.487-.101.745-.214.064-.028-.207-.45.226.07"/><path fill="#83C565" d="m27.693 22.652.098.5c-.087.033-.381-.124-.486-.143-.74-.13-1.9-.34-2.524-.07a.8.8 0 0 1-.324.07c-.018-.14-.135-.38-.032-.5 1.112-.294 2.193-.284 3.27.142z"/><path fill="#C5E2BB" d="M28.664 26.157c1.106.922 2.214 1.843 3.302 2.79v.322c-.113.117-.123-.037-.13-.035l-5.956-5.295c.392.09 2.316 1.828 2.784 2.218"/><path fill="#3E9444" d="m25.88 23.939 5.956 5.294c-2.957.486-5.787-.777-6.667-4.078.023.045.078-.111.13-.036.107.16.288 1.024.355 1.038l1.91-.466c-.576-.689-1.302-1.13-1.878-1.825.093-.032.123.056.194.071z"/><path fill="#3E9444" d="M30.056 27.66c.123.046.077.25.13.286.463.32 1.043.648 1.36 1.146-.794-.04-1.677.077-2.46-.071-.098-.019-1.454-.66-1.457-.75.326-.009 2.31-.653 2.427-.61z"/><path fill="#51A646" d="M27.725 26.801c.222-.117 1.233.777.713 1.073.06-.569-.118-.119-.26-.143-.45-.078-.776-.759-.453-.93"/><path fill="#83C565" d="M27.305 23.01c-.432.153-.858.361-1.326.357-.034 0-.426-.2-.518-.215-.216-.038-.428.336-.68-.214.624-.27 1.785-.058 2.526.071z"/><path fill="#75BA6D" d="M30.542 25.298c-.16-.052-.073.355-.064.393.093.432.347.922.291 1.395-.247-.552-.392-1.976-.777-2.361-.02-.019-.25.162-.388-.215.19.389-.234.777-.226.824.016.081.65.286.584.644-.009.045-.64.529-.68.536-.137.027-.43-.5-.615-.357-.469-.39-2.392-2.126-2.784-2.218-.071-.017-.1-.104-.194-.071-.433-.521-.162-.1-.226-.071-.257.112-.562-.034-.745.214-.081-.273-.226-.735-.26-1.002a.8.8 0 0 0 .324-.07c.253.551.463.175.68.214.091.017.485.214.517.214.47.004.894-.205 1.327-.358.104.019.398.176.485.144l-.098-.501c1.1.434 2.197 1.595 2.849 2.646"/><path fill="#75BA6D" d="M26.495 23.44c.169-.121.666.309.907.07-.105.28.035.527.162.823-.388.592-1.553-.549-1.069-.894"/><path fill="#83C565" d="M28.503 24.155c.096-.033.86.198.874.25-.171.49-1.335 1.126-.906.213-.136-.205-.218.044-.226.036-.19-.165.194-.48.259-.501z"/><path fill="#F3DB6E" d="M36.888 19.003c.18.22.567.239.809.428.902.71.8 2.333-.065 3.077-1.054.908-2.364.344-3.56.788l-1.07-.071c-.643-.913-.252-1.446.356-2.146.805-.928 2.333-2.147 3.53-2.076"/><path fill="#BE6137" d="M37.405 20.22c-.238.765-1.096 1.004-1.748.858-.248-.384-.055-.74.26-1.002.156.6 1.084.213.517-.214.32-.016.768.034.971.357"/><path fill="#923D20" d="M35.657 21.078c.652.146 1.51-.093 1.748-.859.635 1.01-1.32 1.522-1.748.859"/><path fill="#E08859" d="M36.434 19.862c.566.426-.361.813-.517.214.043-.036.124-.187.225-.215.073-.02.203.005.292 0"/><path fill="#3E9444" d="m33.002 23.223 1.069.071c1.195-.444 2.505.12 3.561-.787.865-.745.967-2.368.064-3.077-.242-.19-.627-.208-.809-.428 2.81.168 2.137 5.542-.874 5.222-.285-.031-.777-.292-1.1-.358-.73-.15-1.375.117-1.91-.644z"/><path fill="#75BA6D" d="M34.265 23.51c.357-.126.523.42-.098.108.035-.025.07-.097.098-.108"/><path fill="#CECB36" d="M42.81 20.72c1.223-.154 2.162 2.181.971 2.72-1.343.607-2.409-2.538-.97-2.72"/><path fill="#CECB36" d="m42.876 20.934.388.071c.51.586-.635.509-.388-.07"/><path fill="#F5D53B" d="M55.89 36.817c.69-.16 2.565.529 2.298 1.466-.128.453-3.207.118-3.302-.214-.11-.386.69-1.18 1.003-1.252"/><path fill="#F3DB6E" d="M55.953 37.318c.51-.096 1.334.125 1.652.609-.85-.264-1.61-.916-2.363.035-.047-.291.537-.61.713-.644z"/><path fill="url(#b)" d="M46.663 32.237c.477 2.348.51 5.605.777 8.085.012.105.044.324.065.501-.58.185-.062.987-.13 1.43-.721.113-1.715.369-2.395.645l-.13-10.588c.003-.023-.003-.048 0-.07h1.813z"/><path fill="#F4C97E" d="M43.296 31.809c-.064.159.066.424.064.501-.02 3.883-.216 7.773-.13 11.66-.024.007-.283.278-.387.358l.194-12.591c.157.003.245.07.26.07z"/><path fill="#F58547" d="M46.664 32.238H44.85c.043-.367-.082-.361.324-.501.463.012.929-.01 1.392 0 .039.026.078.407.097.5"/><path fill="#F36F37" d="M45.173 31.737c-.406.14-.28.134-.323.5-.003.024.003.048 0 .072H43.36c0-.078-.128-.343-.064-.501.614.006 1.252-.09 1.878-.071z"/><path fill="#FAFCFD" d="M40.383 31.021c0 .148-.572.702-.615.716-.542.17-2.58-.051-3.27-.071.033-.598.084-1.187.065-1.788-.01-.313-.212-1.667-.194-1.753.01-.05.637-.661.68-.68.129-.057 2.648-.11 2.783-.07.042.012.666.562.68.608.08.26-.19 2.403-.13 3.041z"/><path fill="#BE6137" d="M41.16 49.05c.558.117 1.106.404 1.684.428 0 .07.097.1.064.215l-.064.07c-.162 1.092.759.822 1.488.86v.357c-1.725 0-3.454-.006-5.18 0 .157-.384.523-.61.714-.967.053-.098.44-1.116.453-1.18.119.24.601.163.841.214z"/><path fill="#EDAB51" d="M45.497 49.122a3 3 0 0 1-.064.287c-.01.015-.253.023-.226.287h-2.299c.032-.114-.064-.145-.064-.215 0-.371-.011-.776.064-1.145.85.275 1.733.523 2.589.788z"/><path fill="#F58547" d="M42.908 31.666c-.128-.006-.665.248-.647-.071.072-.114.057-.951.064-1.145.247-.375.092.608.098.644.025.015.216-.088.226-.108.234-.447-.152-3.034 0-3.72-.08-.23-1.996-1.196-2.072-1.752.175.035 2.285 1.537 2.331 1.682v4.471z"/><path fill="#FAFCFD" d="M38.376 26.3c.53-.01 1.677-.208 2.04-.143.105.018 1.751 1.19 1.813 1.287.164.265.115 2.537.097 3.004-.007.193.007 1.031-.064 1.145-.008.013-.088.059-.098.144-.4.086-.885-.085-1.262-.071.13-.813.045-1.648.064-2.468.007-.256.236-1.244.194-1.43-.018-.084-.976-.853-1.1-.895-.16-.053-3.113-.121-3.27-.07-.062.02-.92.897-.939.966-.124.467.124 1.045.13 1.503.004.353-.102 1.734-.064 1.896-.448.228-.757.5-1.23.572-.006-.834.006-1.671 0-2.503-.003-.35-.225-1.392-.033-1.645.409-.06 1.747-1.387 1.942-1.43.296-.065 1.361.15 1.78.143z"/><path fill="#F4C97E" d="M40.06 26.872c.122.442.506.674.84.894-.22.966-.012 2.052-.129 3.004-.08.658-.195.455-.324.68.062-.143-.06-.373-.064-.429-.06-.636.208-2.78.13-3.04-.014-.047-.637-.597-.68-.61-.135-.038-2.654.016-2.784.071-.043.019-.67.63-.679.68-.017.086.184 1.44.194 1.753-.342.103-.179 1.055-.26 1.43-.234-.002-.308.197-.387-.143-.038-.16.068-1.543.064-1.896-.006-.456-.253-1.034-.13-1.503.018-.068.877-.947.939-.967.157-.049 3.11.019 3.27.071z"/><path fill="#F8984D" d="M40.9 31.666c-.029 0-.397.28-.55.214-.102-.068.057-.36.097-.428.129-.226.243-.022.324-.68.117-.954-.09-2.038.13-3.004-.337-.22-.719-.452-.841-.895.124.042 1.082.811 1.1.895.04.186-.188 1.174-.194 1.43-.02.82.066 1.655-.064 2.468z"/><path fill="#F58547" d="M36.564 29.878c.018.6-.032 1.191-.064 1.788-.196-.006-.597.178-.841.035.36-.262.545.076.647-.393.08-.375-.082-1.329.26-1.43z"/><path fill="#D97E2A" d="M41.16 49.05c-.24-.051-.722.026-.84-.214.02-.113.054-.321.063-.429.383.217.902-.07.777.644z"/><path fill="url(#c)" d="M40.577 25.512c.076.557 1.992 1.522 2.072 1.753-.152.686.234 3.274 0 3.72-.01.018-.201.121-.226.107-.006-.035.149-1.017-.098-.644.018-.469.067-2.74-.098-3.004-.061-.099-1.706-1.269-1.813-1.287-.363-.065-1.51.134-2.04.143.155-.162-.458-.213-.485-.214-.198-.019-1.233-.163-1.294-.143-.097.032-1.034.852-1.23 1.001-.197.15-.8.392-.907.501-.246.25.076 1.343.097 1.86.03.748-.02 1.505 0 2.254l-.453.215c.181 0 .406-.008.583-.036.474-.074.783-.345 1.23-.572.08.341.155.14.388.144-.102.47-.287.13-.647.393.244.143.647-.042.841-.036.69.02 2.727.242 3.27.071.043-.014.615-.567.615-.715.006.057.127.285.064.428-.039.07-.198.361-.098.429.153.066.522-.214.551-.214.377-.014.862.157 1.263.07.01-.084.09-.13.098-.143-.019.32.518.067.647.071.007 0-.034.068.13.071l-.194 12.592c-.708.538-1.799 1.514-1.814 2.432-.018 1.21.93 1.269 1.878 1.574-.076.368-.066.774-.064 1.145-.577-.024-1.126-.311-1.684-.428.124-.714-.395-.427-.777-.645.08-.869-.18-2.26-.875-2.79-.694-.528-1.272-.198-2.04-.143-.178-.348.078-1.148-.193-1.43.42-.347 1.053-.699 1.36-1.181 1.059-1.665-.596-1.907-1.424-.179-.123-.134-.769.415-.777.466-.035.215.26 1.57.26 2.039-.641-.072-1.401-.065-1.878.428-.44.192-.844.867-.971 1.36-.409 1.578.143 2.818 1.036 4.006-.552.008-1.148-.088-1.683-.07-.077-.442-.261-1.067-.26-1.504 0-.217.114-.52.13-.715.018-.246.216-.821.194-1.037-.009-.08-.313-.325-.26-.715.012-.082.24-.427.26-.572.078-.585.06-1.802-.454-2.183-.666-.495-.954.055-1.294.572.063-.378-.063-.947 0-1.324.195-1.164.771-1.227.388-2.826-.177-.735-.52-1.165-1.037-1.644-.346-.322-.71-.544-1.1-.788l.517-6.332c.108-.267 2.373 0 2.752-.108.059-.017.981-.689 1.003-.75.211-.593-.262-2.943-.13-3.72.511-.173 2.047-1.737 2.364-1.825s1.227.145 1.618.143c.69-.003 2.124-.186 2.686-.07z"/><path fill="#D18930" d="M32.97 33.096c.076 1.08.497 1.187.552.108.75 1.105-1.242 1.238-.551-.108"/><path fill="#FBC15D" d="M38.376 26.3c-.42.008-1.484-.208-1.78-.143-.195.043-1.534 1.37-1.941 1.43-.193.253.029 1.297.032 1.645l-.13.07c-.02-.517-.343-1.608-.098-1.86.108-.11.72-.359.907-.5.197-.15 1.134-.97 1.23-1.003.063-.021 1.097.125 1.295.144.026.003.64.054.485.214z"/><path fill="#F58547" d="M34.687 29.233c.007.834-.006 1.671 0 2.504a4 4 0 0 1-.584.035l.454-.214c-.021-.75.03-1.506 0-2.254z"/><path fill="#BE7839" d="M40.352 33.169c.399.498.076 1.136-.518.858-.167-.252-.229-.44-.098-.75l.194.644c.501.262.338-.697.422-.75z"/><path fill="#ECBC2E" d="M33.488 32.023c.165.064.115 1.073.064 1.073-.08-.351.013-.723-.064-1.073"/><path fill="url(#d)" d="m44.85 32.31.13 10.588c-.348.14-.59.299-.907.5-.265.17-.555.337-.777.573-.02.003-.044-.005-.064 0-.087-3.888.109-7.778.13-11.66z"/><path fill="#E3974B" d="M45.433 49.407c.352.418 1.106.082 1.456.215.05.018.493.618.777.787.321.191 1.09.44 1.457.501-1.59.131-3.197.071-4.792.071v-.358c.557.028 1.166.039 1.716-.07-.191-.048-.857.066-.97 0-.023-.013-.132-.47-.195-.502-.272-.13-1.654-.135-2.04-.286l.065-.071h2.299c-.025-.264.216-.271.226-.287z"/><path fill="#E08859" d="M44.332 50.624c-.73-.038-1.651.232-1.488-.86.385.152 1.767.157 2.04.288.062.03.172.488.193.5.114.067.78-.047.97 0-.549.11-1.158.1-1.715.072"/><path fill="#EB3F4A" d="M40.383 48.405c-.01.11-.043.316-.064.429-.013.063-.4 1.08-.453 1.18-.19.357-.557.583-.713.967h-.324v-.143c.046-.019.627-.774.648-.823.051-.117-.141-.111-.13-.144.162-.474.612-.761-.064-.966.221-1.019.262-1.89-.454-2.647-.535-.567-.676-.456-1.392-.5-.21.101-.264 1.32.098 1.001-.131.589.273 1.468.13 2.04-.014.056-.57.846-.648.929-.01-.176.07-.541-.162-.537-.28.56-1.197.295-1.326.788-.187-.325-.79-.783-.518-1.287.43.392 1.62.373 1.748-.393.067-.402-.166-2.092-.777-1.967.129-.084.528-.558.647-.715.16-.012.31-.055.454-.07.143-.016.25-.062.388-.072.767-.055 1.355-.377 2.039.144.684.52.954 1.92.875 2.79z"/><path fill="#EC6757" d="M34.297 47.118c-.353.623-.098 2.1.388.859.117.234.113.524.323.715-.27.504.33.964.518 1.287.033.059.118.376.13.393.124.188.187-.043.259.071.014.022.088.469.064.537-.365.003-.735-.005-1.1 0-.893-1.189-1.446-2.428-1.037-4.007.225-.003.235.343.453.144z"/><path fill="#3E9444" d="M37.275 44.042c-.013-.013-.28-.03-.324-.071l1.554-2.183-1.618 1.967c-.03-.3.195-.805.324-1.073.828-1.728 2.483-1.486 1.424.179-.307.48-.94.834-1.36 1.18"/><path fill="#D18930" d="M37.211 42.682c-.128.268-.354.776-.324 1.073.013.116-.033.119.065.214.043.042.31.059.323.071.27.282.016 1.082.194 1.43-.138.01-.251.058-.388.071-.153.098-.368-.141-.388-.143v-.214c0-.469-.294-1.824-.259-2.04.008-.049.654-.597.777-.465z"/><path fill="#F58547" d="M36.692 45.401c.021.002.234.24.388.144-.144.015-.294.058-.453.07-.211.017-.7-.161-.875-.07-.156.08-.063.268-.098.357-.177-.265-.939.255-.97.393-.044.185.118.22.13.322.003.047-.004.096 0 .144-.132-.056-.48.288-.518.357-.22.2-.23-.146-.454-.143.127-.492.533-1.168.971-1.36.306-.132 1.52-.248 1.878-.214z"/><path fill="#F3DB6E" d="M36.692 45.187v.214c-.358-.034-1.572.082-1.877.214.477-.494 1.237-.502 1.877-.428"/><path fill="#DD242D" d="M38.83 46.26c.715.758.674 1.629.453 2.646-.16.737-.53 1.33-1.037 1.825.017.134.505.138.583.108v.144c-.948.004-1.9-.01-2.848 0 .023-.068-.05-.515-.065-.537-.07-.114-.135.117-.259-.07-.011-.018-.096-.337-.13-.394.13-.491 1.047-.226 1.327-.787.232-.004.152.36.162.536.078-.083.633-.872.647-.93.144-.571-.26-1.448-.13-2.039.157-.7.829-.419 1.295-.5z"/><path fill="#F26D6E" d="M35.01 48.692c-.211-.191-.207-.48-.324-.715.21-.537.155-.69.13-1.216-.003-.047.004-.098 0-.144.187.097.453-.09.583-.214.117.166.464.006.583-.07.61-.124.844 1.564.777 1.966-.128.768-1.318.785-1.748.393z"/><path fill="#DD242D" d="M38.83 50.838c-.078.029-.567.026-.584-.108.506-.495.876-1.087 1.036-1.825.679.203.228.49.065.966-.011.033.181.025.13.144-.021.049-.602.804-.648.823"/><path fill="#EB3F4A" d="M38.83 46.26c-.467.081-1.14-.2-1.295.5-.362.321-.307-.9-.098-1.001.714.044.856-.066 1.392.5"/><path fill="#EC6757" d="M36.628 45.616c-.12.157-.52.63-.648.715-.117.077-.464.239-.582.07.324-.314.154-.23.259-.5.035-.09-.06-.278.098-.358.174-.09.664.088.874.07z"/><path fill="#F7B9AB" d="M34.814 46.76c.025.526.081.68-.13 1.217-.486 1.24-.742-.236-.387-.859.039-.07.386-.413.517-.357"/><path fill="#99C995" d="M36.951 43.97c-.097-.095-.053-.1-.064-.214l1.618-1.966-1.554 2.182z"/><path fill="#F8A79C" d="M35.657 45.902c-.105.27.065.185-.26.501-.13.127-.396.313-.583.214-.01-.103-.173-.137-.13-.322.033-.139.794-.658.971-.393z"/><path fill="#EC6757" d="M45.497 25.298c-1.222 2.926 2.483 4.803 3.82 2.362-.016.29.377-.16.387-.18.335-.688.19-1.65.064-2.396.29.635.4.88.324 1.645-.076.764-.625 1.667-1.198 2.074-.624.443-1.335.524-2.04.429-1.8-.584-2.603-2.637-1.554-4.436.009.336-.233.376.194.5z"/><path fill="#F58876" d="M49.77 25.084c.126.746.271 1.708-.063 2.397-.01.02-.405.468-.388.179 1.675-3.06-2.593-5.297-3.82-2.362-.426-.125-.185-.163-.193-.5.293-.503.61-.827 1.1-1.074 1.412-.391 2.665-.178 3.366 1.36z"/><path fill="#AA1F23" d="M50.418 26.801c-.153 2.01-1.92 2.966-3.561 2.433.704.093 1.416.012 2.04-.429.573-.407 1.122-1.323 1.198-2.075z"/><path fill="#DD242D" d="m50.418 26.801-.324-.07c.076-.767-.033-1.01-.323-1.646-.703-1.538-1.955-1.75-3.366-1.359 1.937-.977 4.198.658 4.014 3.077z"/><path fill="#EB3F4A" d="M49.318 27.66c-1.338 2.441-5.043.565-3.82-2.362 1.227-2.935 5.497-.698 3.82 2.362"/><path fill="#F58876" d="M47.02 25.728c.01-.009.164.208.193.215.431.084.425-.212.453-.215.284-.035.317 1.109.194 1.146-.082.024-.608-.158-.874.108-.035-.195-.077-1.16.032-1.252z"/><path fill="#EC6757" d="M47.472 26.945c.069.448.206 1.058.065 1.503-.078-.465-.168-1.04-.065-1.503"/><path fill="#F36F37" d="M49.026 26.587c.057-.042.246.006.292.108-.113.104-.456.015-.292-.108"/><path fill="#F58547" d="M46.308 27.516c.228-.052-.031.304-.065.287-.085-.043-.012-.268.064-.287"/><path fill="#F29D6B" d="M46.178 26.371c.135.016.3-.038.421.036 0 .032-.428.103-.421-.036M46.112 25.227c.116.097.236.091.13.287z"/><path fill="#F58876" d="M49.026 26.23c.22-.129.29.173.064.143-.014-.002-.128-.107-.064-.144"/><path fill="#F58547" d="M48.573 26.515c.064.007.289-.027.291.035-.034.048-.341.088-.291-.035"/><path fill="#EFAA8F" d="M46.825 24.583c.131-.03.127.182.064.214-.025.014-.163-.192-.064-.214"/><path fill="#F8A79C" d="M47.149 24.44c.065.023.054.266-.064.214-.098-.042.041-.222.064-.214"/><path fill="#EFB274" d="m47.02 28.16.031.107-.096.037-.032-.037z"/><path fill="#F29D6B" d="m49.09 25.585.066.07v.073h-.066z"/><path fill="#3E9444" d="M18.112 35.314c-.017.099-.064.066-.064.071-.408.245-1.013.114-1.393.214-.122.033-.247.245-.355.287-.127-.73-.34-1.336-.648-2.04-.126-.289-.562-1.195-.712-1.43-.151-.234-.098-.248-.324-.107-.04-.215-.018-.484-.13-.68.11-.144.091-.111.194 0 .357.382.706 1.546 1.003 2.039l-.226-1.825.13-.07.68 1.68.063-1.716c.132.168.503 1.946.616 1.825l.26-.788.225 1.395.388-1.36.13 1.217.647-1.146c-.115.828-.356 1.673-.486 2.433z"/><path fill="#83C565" d="M16.298 35.886c-.357.133-.616-.05-.907.466l.356.035c.002.365-.227-.119-.55.214l-2.138-2.039c.084-.203 1.05.517 1.133.68.258.048-.752-1.167-.518-1.287l1.069.894-.68-2.11.971 1.287c.12-.037-.395-1.576-.421-1.718.226-.14.174-.124.324.108.149.233.584 1.141.713 1.43.308.702.52 1.31.647 2.04z"/><path fill="#F3DB6E" d="M16.752 39.177c-.106.159-.119.65.097.715.038.011.726-.38.68-.035-.035.267-.84.021-.648.858.08.12.865-.1.971-.25.034.156.043.201.064.358-.393.053-.95.033-.679.572-.11.05-.208-.391-.356-.428-.12-.227.02-.369-.323-.358.134-.666-.998-.284-1.165-.536-.195-.295.637-.105.583-.215l-.064-.608c.217.013.582-.343.841-.071z"/><path fill="#F5D53B" d="M17.852 40.466c-.106.15-.891.371-.971.25-.192-.838.612-.593.647-.86.046-.345-.641.048-.679.036-.216-.065-.202-.556-.098-.715.2-.3.362-.194.648-.358.232.23.087.526.453.61-.33.343-.119.494 0 1.037"/><path fill="#F6ED96" d="M17.399 38.82c-.286.163-.448.056-.647.357-.261-.27-.625.086-.841.07-.044-.002-.571-.244-.713-.249.005-.148.537-.173.647-.179.363-.023.586.162.615.144.075-.05-.01-.242.064-.287.035-.02.74-.082.777-.071.104.028.09.207.098.214"/><path fill="#CFA62B" d="M19.989 42.254c-.177-.04-.106.104-.13.143-.164.274-.481.393-.777.428-.035-.097-.044-.457-.064-.5.073-.367.317-.315.583-.502.258.225.246.267.388.429z"/><path fill="#F5D53B" d="M17.918 40.823c.014.1.2.18.13.393-.031.091-.726.412-.81.393-.193-.04-.273-.488-.355-.644.148.039.245.48.355.429-.27-.54.288-.52.68-.572zM19.472 41.466c-.002.012-.12.202-.13.214-.04.057-.304.14-.356.287-.329-.087-.148-.336-.421-.536.248-.17.48-.343.713-.537.13.137.224.375.194.572M18.305 37.96c-.078.278-.583.571-.68.502-.023-.017-.175-.503-.225-.572.23-.12.432-.284.647-.429l.26.501z"/><path fill="#CFA62B" d="M19.86 40.537c.15.314.138.53-.065.787-.039.05-.029.107-.13.144-.045.017-.133-.011-.193 0 .03-.2-.066-.437-.194-.572.127-.107.47-.253.583-.358z"/><path fill="#F3DB6E" d="M16.817 37.102c.114.659.285.378.583.788.052.07.202.555.226.572.098.07.601-.224.68-.501.019-.07-.036-.355.031-.358.073.65.29.423.648.144.16-.023.07.157.097.214-.692.302-.012.763-.323 1.18.134.122.293-.16.323-.178.085-.051.212-.215.226-.215.04-.001.133.18.162.215-.096.364-.707.336-.745.357-.068.039.004.178-.064.215-.492.265-.929-.067-.453.93.344.005.668-.557.713-.573.034-.012.266.367.615-.143.2-.045.06.19.032.214-.33.307-.609.031-.324.645.162.117 1.048-.973 1.069-.61-.105.32-.275.184-.454.358-.018.017.016.165 0 .179-.113.105-.456.251-.583.358a9 9 0 0 1-.713.536c.272.2.093.45.422.536.051-.145.316-.23.355-.286.25-.215.238.125.26.143-.265.187-.51.134-.583.501-.006-.012-.158-.083-.162-.214l-.098.108c-.04.405.11.706.13 1.108-.105-.01-.22.015-.324 0-.382-.059-.726-.387-.906-.429l-.226-.357c0 .308-.198.305-.292.428-.118.16-.025.29-.098.358-.072.068-.382-.174-.42.035-.044.233.294.133.582.18-.138.264-.553.07-.712.143-.236-.289-.487-.64-.777-.859.036-.654-.196-1.449-.324-2.146.213-.067.476.07.647.071-.08.547.712.18.841.215.083.155.162.604.356.644.084.017.778-.302.81-.393.07-.213-.117-.295-.13-.393-.022-.158-.031-.202-.065-.358-.118-.542-.329-.694 0-1.037-.365-.082-.22-.38-.453-.61-.009-.007.005-.187-.098-.213-.037-.011-.742.05-.777.07-.074.044.01.236-.064.287-.03.019-.252-.165-.615-.143-.028-.615-.254-.466-.583-.75.028-.098.866-.12.939-.18.065-.053-.158-.439.291-.715.024-.015.254-.032.324-.07z"/><path fill="#ECBC2E" d="M19.535 39.75c-.348.51-.58.132-.615.144-.044.015-.368.58-.713.572-.475-.996-.039-.666.454-.93.068-.037-.004-.175.064-.214.038-.022.649.006.745-.358.188.22.255.509.064.788z"/><path fill="#F5D53B" d="M18.92 40.322c.185.096.27.24.226.466-.306-.005-.53.495-.744.322-.381-.67.171-.42.517-.788z"/><path fill="#CFA62B" d="M19.082 38.963c-.03.018-.19.3-.323.179.31-.417-.369-.879.323-1.181.06.128.007.347.194.393z"/><path fill="#F6ED96" d="M16.88 40.967c-.13-.034-.92.331-.84-.215.283.003.49-.142.517-.143.344-.01.204.133.324.358"/><path fill="#CFA62B" d="M17.658 42.898c-.025-.006-.44.114-.517.071.093-.125.291-.122.291-.428zM18.273 42.826a.63.63 0 0 1 .356.035c-.15.159-.359.216-.518.071.05-.006.138-.102.162-.108z"/><path fill="#F3DB6E" d="M20.053 42.54c-.037.028.104.091.032.144-.145.106-.69.202-.745.428-.345-.054-.178-.062-.259-.287.296-.037.612-.155.777-.428l.194.143z"/><path fill="#CFA62B" d="M20.572 39.75c.174.372.523.788.713 1.217.082.185.155.575.26.787-.01.014.01.053 0 .071l-.356-.644c-.034.015-.056.168-.098.214-.084.094-.38.365-.388.393-.036.119.127.168.13.179.026.096.237.641.291.644l.422-.715c-.006.113.099.054.13.071-.045.555.287 1.033.387 1.574-.301-.224-1.365-.634-1.715-.644-.307-.01-.692.263-1.003.214.054-.227.6-.322.744-.429.072-.052-.07-.115-.032-.143.15-.111.674-.111.583-.537-.36-.024-.34.598-.647.25-.143-.162-.13-.205-.388-.428-.02-.019-.01-.358-.26-.144.01-.014.128-.202.13-.214.06-.01.148.017.194 0 .042.755 1.302-1.023.13-.143.204-.258.216-.474.064-.788.016-.014-.018-.162 0-.179.179-.174.35-.038.454-.357-.021-.364-.905.724-1.069.608-.283-.611-.005-.335.324-.644.028-.026.169-.259-.032-.214.19-.278.124-.567-.064-.788-.03-.034-.123-.217-.162-.214-.015 0-.142.165-.226.214l.194-.609c-.189-.046-.134-.266-.194-.393-.027-.057.064-.237-.098-.214-.358.28-.574.509-.647-.143-.067.003-.013.288-.032.357l-.26-.5c.01-.008-.029-.1.033-.144.03-.023.538.16.485-.393-.17.145-.399.168-.583.25l-.194-.572c.152-.117.579-.244.453-.466-.089-.157-.674.558-.647-.035.423.042-.075-.174.162-.429.68.418.159-.03.162-.108 0-.027.117-.086.13-.178 0-.005.047.026.064-.071 1.163 1.042 1.888 2.468 2.46 3.97.01.027-.16.122 0 .466z"/><path fill="#CFA62B" d="M21.543 41.825c-.01.019.008.053 0 .071l-.421.715c-.055-.003-.265-.548-.292-.644.477.072.438-.208.26-.572.041-.046.064-.199.097-.214zM19.342 37.46c-.042.072-.11.185-.194.214-.018-.02-.15.039-.194-.035-.018-.03-.184-.643-.162-.68.426-.054.854-.014.551.5z"/><path fill="#F5D53B" d="M19.666 41.466c.1-.037.09-.094.13-.143 1.172-.88-.089.898-.13.143"/><path fill="#DBC026" d="M20.83 41.967c-.003-.01-.165-.06-.13-.179.009-.028.304-.299.388-.393.179.364.218.646-.26.572z"/><path fill="#F5D53B" d="M20.215 39.034c.243.234-.144.35-.162.393-.017.038.374.644-.323.143zM20.053 42.54l-.194-.143c.024-.039-.048-.183.13-.143.307.348.287-.275.647-.25.091.425-.433.425-.583.536M20.604 40.68c.248-.01.205.5 0 .5-.311 0-.248-.49 0-.5M19.148 37.676c.084-.03.152-.144.194-.215.31-.007.142.389.032.502-.17.032-.215-.273-.226-.287M19.698 38.462c.329-.031.118.45-.065.428-.24-.027-.064-.417.065-.428"/><path fill="#F3DB6E" d="M18.047 35.385c-.012.093-.128.151-.13.179-.002.077.52.524-.161.108-.238.256.26.472-.162.428-.009 0-.056-.19-.13-.108l.13.108c-.027.594.56-.12.647.036.126.22-.301.348-.453.465-.428.33-.903.383-.226.93.106-.07.355-.328.421-.358.184-.083.413-.106.583-.25.053.554-.455.372-.485.393-.062.045-.023.136-.032.144-.215.145-.418.308-.648.428-.297-.408-.467-.13-.583-.787-.004-.022.31-.11-.032-.287l-.453.143.162.215c-.45.276-.226.66-.292.715-.072.06-.91.082-.939.179.33.285.555.135.583.75-.11.006-.641.031-.647.18.142.004.668.247.713.249l.064.609c.056.11-.777-.08-.583.214.167.253 1.299-.13 1.165.536-.027 0-.236.147-.518.144-.171-.002-.434-.139-.647-.071-.12-.65-.534-2.354-.518-2.898.013-.415.266-.754.324-1.18.322-.334.553.15.551-.215l-.356-.035c.29-.517.55-.332.907-.466.109-.04.234-.253.356-.287.38-.101.985.031 1.392-.214z"/><path fill="#F3DB6E" d="M16.817 37.102c-.07.039-.3.057-.324.071l-.162-.214.454-.143c.342.177.03.265.032.286"/><path fill="#F5D53B" d="M17.982 37.175c-.066.029-.314.288-.422.357-.675-.548-.2-.6.226-.93l.194.573z"/><path fill="#F6ED96" d="M15.619 36.959c.019-.005.264.106.387 0 .207.85-1.406.266-.388 0"/><path fill="#CFA62B" d="m17.594 36.102-.13-.108c.074-.082.121.106.13.108"/><path fill="#75BA6D" d="M29.765 38.175c.39.242.755.466 1.1.788-.013.558.575 1.143.584 1.788.007.58-.507 1.171-.324 1.752-.47-.502-.125.905-.13 1.217l-.226-.68-.226.715c0-.433-.034-1.409-.13-1.86-.041-.2-.126-.384-.193-.572-.175-.494-.45-.859-.713-1.287-.048-.079-.075-.133-.13-.215-.017-.024-.049-.12-.064-.143.41-.473-.174-.72-.517-.966-.097-.07-.176-.249-.194.035-.286-.271-.486-.32-.777-.501-.05-.03-.073-.117-.26-.214-1.718-.905-4.162-1.264-5.762.07.591-1.945 2.78-2.968 4.434-1.93.296.184.907 1.047.971 1.072.172.065.724-.015 1.037.071.16.045 1.312.73 1.521.859z"/><path fill="#51A646" d="M31.902 40.607c-.137.253-.236.047-.453.144-.009-.645-.598-1.23-.584-1.788.517.48.86.91 1.037 1.644M29.311 39.678c-.259-.371-.37-.606-.712-.93.018-.285.099-.104.194-.035.344.247.929.493.517.966z"/><path fill="#3E9444" d="M31.513 44.757c-.004.023.005.05 0 .07-.119.511-1.129 1.17-1.554 1.36.698-.46.49-1.143.518-1.86v-.143c0-.051.065-.256.064-.429l.226-.715.226.68c.004-.312-.34-1.72.13-1.217-.182-.58.33-1.171.323-1.752.218-.096.317.11.453-.144.384 1.599-.194 1.662-.387 2.826-.063.376.062.946 0 1.324"/><path fill="#71A65F" d="M30.963 43.898c.251-.152.165.643.13.645.028-.13-.195-.605-.13-.645"/><path fill="#DEE9A3" d="M27.564 38.033c.032.364-.196.639-.518.645-1.106-.817-2.49-1.284-3.723-.788-.014.006-.187.163-.13.214.203-.057.537.028.713 0 .025-.004.06-.208.13-.214.127-.012 1.872.068 1.488.287l-.68.07c-.582-.01-2.53.298-2.88.716-.398.478.533.185.551.393-.46.425-.19.985-.387 1.645-.218.004-.359-.04-.584-.036-.128.003-.138-.103-.259 0-.188-.428-.538-.845-.713-1.216.355-.59.713-1.213 1.23-1.645 1.6-1.336 4.044-.975 5.763-.07z"/><path fill="#DEE9A3" d="M27.823 38.248c.291.18.49.228.777.5.342.326.452.559.713.93.016.023.047.117.064.143-.46-.037.008 1.149-.356 1.002-.43-.738-1.13-1.418-1.78-1.931.22-.36.186-.008.454-.108-.344-.07-.105-.487.13-.536z"/><path fill="#DEE9A3" d="M29.507 40.036c.26.43.537.793.713 1.287-.032.363-.018 1.057-.388 1.251-.276-.979-.727-1.475-.518-2.575l.194.035z"/><path fill="#C1DB7A" d="M30.412 41.896c.094.452.128 1.427.13 1.86 0 .173-.063.38-.064.43l-.388.249c.042-.896-.348-1.822.323-2.54z"/><path fill="#E5EEBE" d="M27.823 38.248c-.234.049-.471.465-.13.536-.267.099-.232-.251-.453.108-.092-.072-.171-.197-.194-.214.323-.006.55-.28.518-.645.187.1.208.184.26.215"/><path fill="#DEE9A3" d="M21.996 41.682c.476.04 1.041-.03 1.522-.071-.1.38.4 2.05.615 2.254.176.168 1.118.217 1.327.536.589-.179.573-1.731.647-1.788.08-.062 1.772-.174 1.942-.143.38.069.916.505 1.198.787-.018.185.037.728-.194.894-.34.245-1.114-1.03-.453-1.145.014-.288-1.088.331-1.1.428.54.125.07.397.064.429-.012.063.096.409-.098.609-.014.015-.361-.016-.388 0-.614.354-1.124.894-1.845 1.037.585.138 1.032-.382 1.554-.609.104.58.57 1.121-.13 1.503-.09-.023-.193-.103-.324-.143-.057-.017-.072-.054-.13-.071-.285-.088-1.775-.738-1.877-.609a6 6 0 0 0-.194.466h-.064v-.894l.388.286c-.137-.25-.141-.488-.194-.75-.083-.41.117-.95-.68-.788-.21.043-.426.467-.55.644l-.388-1.108c.863-.023-.098-.408-.356-.68-.17-.178-.414-.67-.615-.787-.03-.017-.134.041-.13-.071.008-.019-.01-.054 0-.071s-.01-.057 0-.071c.074-.102.067-.203.098-.214.05-.019.134.124.355.143z"/><path fill="#93A650" d="M23.032 44.543c-.007.009-.01.142-.064.214-.306-.47-.452-.879-.907-1.216-.1-.541-.433-1.02-.388-1.574.2.117.445.609.615.788.258.271 1.22.656.356.68z"/><path fill="#C1DB7A" d="M21.543 40.967c.142.13.781.476.454.715-.222-.019-.306-.16-.356-.144-.03.011-.022.113-.098.215-.103-.211-.177-.601-.26-.788.12-.103.132.003.26 0z"/><path fill="#DEE9A3" d="M24.845 38.248c.169.003 1.2.05 1.262.07.081.028 1.345 1.089 1.327 1.181l-2.946.108c-.305.42-.597-.026-.875.393 1.791-.175 4.006-1.145 5.05 1.073.3.64-.143.191-.13.429.003.044.467.403.583.644.188.393.167.701.13 1.108-.28-.282-.818-.717-1.198-.787-.17-.031-1.863.081-1.942.143-.074.057-.059 1.61-.648 1.788-.209-.32-1.15-.369-1.326-.537-.215-.203-.716-1.874-.615-2.253-.48.04-1.046.113-1.522.07.328-.24-.311-.585-.454-.714.224-.005.366.04.584.035.2-.661-.072-1.22.387-1.645-.016-.208-.95.085-.55-.393.348-.417 2.298-.726 2.88-.715z"/><path fill="#E5EEBE" d="M29.959 46.189c-.24.108-.466.146-.713.214-.173-.404.194-.764.194-1.145.615.168.467-.663 1.036-.93-.027.717.18 1.4-.517 1.86"/><path fill="#C1DB7A" d="M29.441 45.258c0 .38-.366.741-.194 1.145-.716.197-1.253.267-2.007.144.021-.859.52-.646.907-.859.32-.176.513-1.079.745-1.145.308-.087.55.419.55.715"/><path fill="#DEE9A3" d="M28.147 45.688c-.385.213-.886 0-.907.859-.191-.033-.394-.094-.583-.144.7-.38.233-.922.13-1.503.624-.27 1.192-.602 1.91-.5l.063.143-.615 1.145z"/><path fill="#E5EEBE" d="M27.046 38.676c.022.017.102.142.194.214.65.514 1.349 1.195 1.78 1.932.364.148-.105-1.038.355-1.002.055.081.083.137.13.214L29.311 40c-.209 1.1.243 1.596.518 2.575.37-.194.355-.887.388-1.251.067.188.152.371.194.572-.671.716-.282 1.644-.324 2.54l.388-.25v.143c-.57.269-.42 1.1-1.037.93 0-.296-.241-.802-.55-.715-.232.064-.426.968-.746 1.145l.616-1.145-.065-.144c-.717-.101-1.286.23-1.91.501-.52.227-.967.746-1.553.61.72-.144 1.232-.684 1.845-1.038.027-.016.374.015.388 0 .194-.2.086-.546.098-.61.005-.031.475-.304-.064-.428.012-.097 1.114-.716 1.1-.428-.661.114.113 1.39.453 1.145.232-.166.178-.709.194-.894.04-.408.059-.715-.13-1.108-.114-.24-.58-.598-.582-.644-.013-.24.43.21.13-.429-1.044-2.22-3.26-1.248-5.05-1.073.276-.419.569.026.874-.393l2.946-.108c.019-.092-1.245-1.153-1.326-1.18-.062-.022-1.094-.068-1.263-.071l.68-.071c.382-.22-1.362-.3-1.489-.287-.068.006-.104.211-.13.214-.175.028-.51-.057-.712 0-.058-.05.116-.21.13-.214 1.233-.496 2.616-.03 3.723.788z"/><path fill="#DEE9A3" d="m27.985 43.326.647.93-.939-.036c.032-.192.112-.881.292-.894M29.345 43.827c.166.01.227 1.12-.292.466z"/><path fill="#9ABF43" d="M12.381 38.676c1.457-.311.942 2.267-.388 1.645-.799-.373-.18-1.525.388-1.645"/><path fill="#CECB36" d="M12.803 42.969c.15.636-.087.347-.13.465-.028.077.192.096.194.108.07.35-.599 1.768-.292 2.004.022.017.318-.368.421.071-.184.293-.15.663-.194.75-.086.175-.263.035-.387.215-.035.05-.108.581-.13.644-.146.418-.27.718-.388 1.145-.13.461.007.871-.517 1.325-1.38-1.571-1.95-4.25-.649-6.083.109.22-.144.328.26.287-.073.163-.199.925.032.93.06 0 .532-.771.615-.895.074-.112.054-.377.064-.393.195-.285.616-.288.713-.644.134.05.25.012.388.07"/><path fill="#9ABF43" d="M13.71 45.187c-.789.73-.414 1.69-.518 2.503-.056.436-.395.529-.453.75-.137.519.264 1.535-.324 2.11a4 4 0 0 1-1.037-.858c.525-.453.388-.863.518-1.324.12-.425.241-.726.388-1.145.022-.063.095-.593.13-.644.124-.18.302-.04.387-.215.045-.089.01-.457.194-.75.285-.455.46-.287.713-.429z"/><path fill="#51A646" d="M15.07 50.553v.286c-.008 0 .031.071-.13.071h-.194c-.211-.371-.507-.168-.777 0-.338.005-.632.01-.971 0-.189-.126-.39-.24-.583-.357.588-.578.187-1.594.323-2.11.059-.223.398-.315.454-.751.219 1.117.782 2.532 1.877 2.86M15.716 42.826c.29.218.542.57.777.858-.064.03-.453.556-.485.572-.286.137-.678.086-1.133.287-.084.037-.128.16-.194.108.46-.535-.152-1.192-.194-1.43-.046-.263.228-.235.162-.323-.177-.237-1.346-.074-1.651-.143-.14-.133-.123-.204-.194-.287 1.001-.563 2.017-.32 2.914.357z"/><path fill="#F3DB6E" d="M11.702 42.682c.362-.043.445.113.713.214-.097.356-.518.36-.713.645-.228-.225-.615.135-.713.357-.402.042-.15-.066-.26-.286.4-.566.395-.588.971-.93z"/><path fill="#A88837" d="M12.802 42.468c.072.083.055.152.194.286.301.287.486.47.907.466-.12.039-.195.147-.26.25-.055-.344-.581.117-.777.07-.002-.012-.221-.03-.193-.107.043-.117.28.17.13-.466-.034-.139-.242-.507-.388-.572.209-.089-.016-.399.387.071z"/><path fill="#9ABF43" d="M12.802 42.969c-.138-.059-.255-.022-.387-.071-.268-.102-.35-.258-.713-.214.187-.111.48-.188.713-.287.147.065.355.433.387.572"/><path fill="#A7CE38" d="M13.71 45.187c-.253.143-.43-.025-.714.428-.103-.439-.399-.055-.42-.07-.308-.235.362-1.653.29-2.004.196.046.722-.416.778-.071-.026.041-.204.213-.098.287.172.103.702-.321.68-.393-.01-.034-.514-.131.031-.393.317.214.026.37.033.393.03.095.24.325.259.5.109 1.129-.06.884-.841 1.325z"/><path fill="#F6ED96" d="M11.702 43.54c-.011.016.01.281-.064.394-.081.123-.555.895-.615.894-.23-.006-.105-.766-.032-.93.097-.222.484-.582.712-.357"/><path fill="#D0B679" d="M17.658 43.684c-.196.521-.061 1.007-.453 1.43-.284-.029-.551-.152-.841-.143l-1.489-.428c.455-.2.847-.15 1.133-.287.032-.015.421-.543.486-.572.157-.072.573.122.712-.143.118.018.28.11.454.143z"/><path fill="#BAA258" d="M17.659 42.898c.18.043.524.37.906.428.038.26-.03.29-.194.429-.2-.122-.566-.045-.712-.07-.175-.033-.336-.126-.454-.144-.288-.046-.625.054-.583-.18.04-.209.349.033.422-.034.072-.068-.021-.2.097-.358.078.041.493-.077.518-.071"/><path fill="#ECBC2E" d="m14.874 44.543 1.489.428c-.07.002-.245-.024-.26.036l1.424.823c-.047.861-.482 1.987-.84 2.754-.104.222-1.014 1.938-1.101 2.004-.133.102-.374.008-.518-.035-1.095-.33-1.658-1.745-1.877-2.861.104-.816-.271-1.774.517-2.504.781-.44.951-.195.841-1.324-.017-.175-.229-.405-.26-.5-.006-.025.285-.18-.031-.394-.546.263-.042.36-.032.394.02.074-.51.497-.68.393-.106-.074.071-.245.098-.287.063-.105.138-.213.26-.25-.422.006-.605-.179-.907-.465.305.069 1.473-.094 1.651.143.066.088-.208.06-.162.322.042.24.653.896.194 1.43.066.053.112-.07.194-.107"/><path fill="#F8984D" d="M18.371 45.258c1.678.476 1.258 2.58.454 3.827-.557.863-1.416 1.38-2.266 1.825-.495-.01-1-.074-1.488-.07v-.287c.143.043.385.137.517.035.088-.066.998-1.782 1.1-2.004.36-.767.796-1.891.842-2.754.017-.313-.1-.464-.064-.715.332.046.562.044.907.143z"/><path fill="#D8532C" d="M20.572 45.973c-.018.097-.162.476-.13.609.055.226.203.285.26.465l-.518 1.539c-.613 1.037-1.404 1.863-2.46 2.324-.388-.004-.779.008-1.165 0 .851-.444 1.71-.962 2.265-1.825.805-1.247 1.225-3.35-.453-3.827.113-.074.264-.198.388-.215.255-.035.157.229.421.358.208.102.911.305 1.165.358.159.032.26-.088.226.214z"/><path fill="#A28252" d="M18.371 43.757c.306-.039-.033.445 0 .536.017.043.438.334.388.75-.125.018-.275.14-.388.215-.344-.097-.574-.097-.906-.144-.119-.016-.212.005-.26 0 .392-.423.257-.91.453-1.43.147.026.511-.05.713.071z"/><path fill="#ECBC2E" d="M16.364 44.973c.291-.01.558.114.841.143.048.005.141-.017.26 0-.035.251.082.404.064.715l-1.424-.823c.015-.06.19-.034.259-.035"/><path fill="#AC5528" d="M19.019 42.325c.02.043.03.403.064.5.08.224-.088.233.26.287-.015.06.144.6.193.715-.22.111-.098.19-.162.215-.217.086-.432-.207-.713 0-.07-.35.26-.031.226-.715-.02-.403-.17-.703-.13-1.109l.098-.108c.005.131.157.202.162.215z"/><path fill="#DE6C26" d="M22.06 43.54c.456.338.602.747.908 1.217-.012.014.01.057 0 .07-.22.312-.518.523-.777.788a.3.3 0 0 0-.098-.143l-1.327.071c.058-.373.11-.976.13-1.36.008-.141.188-.605-.032-.715-.396-.06-.709.077-1.069.215-.136.052-.157.092-.259.143-.049-.116-.208-.655-.194-.715.311.05.696-.224 1.003-.214.35.009 1.415.419 1.716.644"/><path fill="#D12E27" d="M23.55 50.838c.055.044.062.07.065.07-.764.132-1.56.072-2.331.072h-.064c-.006-.316.287-.104.356-.144.152-.09.922-1.054.938-1.216.338.529.564.822 1.037 1.216z"/><path fill="#D8532C" d="M22.19 45.616c.006.015 0 .052 0 .07-.008.165-.302.817-.323 1.288-.015.332.001.857.064 1.18.063.324.579 1.273.583 1.395 0 .023.003.05 0 .071-.017.162-.787 1.125-.939 1.216-.068.04-.361-.172-.355.144h-.777c.347-.825.904-1.28.647-2.254-.02-.07-.174 0-.194-.07-.059-.207.155-.523.13-.86-.017-.234-.261-.553-.324-.75-.057-.179-.205-.239-.26-.466-.031-.13.112-.511.13-.608.005-.023.179-.324.194-.429l1.327-.07a.3.3 0 0 1 .098.142"/><path fill="#EFB274" d="M20.896 44.185c-.518.285-.755-.165-1.1-.5.36-.14.672-.275 1.068-.215.22.11.04.573.032.715"/><path fill="#D97E2A" d="M18.889 43.327c.033.684-.297.366-.226.715.28-.207.494.086.712 0 .065-.026-.058-.104.162-.215.1-.05.122-.09.26-.143.346.336.583.786 1.1.501-.02.384-.072.987-.13 1.36-.016.106-.19.405-.193.428.033-.302-.067-.182-.226-.214-.254-.053-.957-.256-1.165-.358-.264-.13-.166-.393-.421-.357.049-.416-.373-.708-.388-.751-.034-.09.305-.575 0-.536.163-.14.232-.171.194-.429.103.015.219-.01.323 0z"/><path fill="#F4C97E" d="M18.727 44.4c.053-.04.291.024.291.107 0 .22-.531.073-.291-.108"/><path fill="#AA1F23" d="M20.7 47.047c.064.198.308.518.324.751.025.336-.187.65-.13.859.02.072.176 0 .195.07.256.975-.3 1.43-.648 2.254h-2.46c-.016-.117-.178-.07-.26-.07 1.056-.463 1.847-1.288 2.46-2.325z"/><path fill="#D49E31" d="M33.067 48.692c-.014.194-.129.498-.13.715-.31.603-1.078.984-1.23 1.574-.41.062-.643.26-.971.501-.275.03-.564.247-.907.287-1.346.156-2.576.431-3.949 0-.157-.05-.342-.066-.485-.144-.076-.04.068-.12.032-.143.45-.351.72.085 1.198.143 1.403.173 3.847.165 4.92-.858.71-.677.077-.392.098-.537.01-.07.752-.853.906-1.037.076-.09.413-.333.518-.5"/><path fill="#D97E2A" d="M25.428 51.482c.037.022-.107.103-.032.143.144.076.328.094.486.144-.554-.003-1.172-.173-1.684-.429-.08-.04-.476-.347-.583-.428-.004-.003-.011-.026-.064-.071l.323-.144c.065.045.332.265.388.108-.111-.077-.135-.214-.194-.322.502.338.827.677 1.36 1.002z"/><path fill="#F3DB6E" d="M32.809 44.185v.143c-.515-.14-.17.194-.26.393-.596 1.346-1.487 2.65-2.946 2.826-.442.054-1.594.034-1.91-.358.614-.02 2.808-.997 3.334-1.43.042-.036.897-.917.486-.93.005-.021-.005-.048 0-.07.341-.517.629-1.067 1.294-.572z"/><path fill="#CFA62B" d="M33.067 48.692c-.106.168-.443.41-.518.501.113-.348.136-.714.194-1.073.01-.06-.078-.072-.064-.179.053-.442.625-.801-.194-.966-.08-.016-.148-.117-.291-.071-.093.03-1.133 1.07-1.522 1.287-1.013.119-2.156.672-3.172.572l1.813-.501c.07-.396.332.002.356 0 .242-.015.14-.133.194-.143.076-.014.177.13.259.07.024-.016.127-.392.324-.5.55-.3.885-.267 1.456-1.002 1.322.578 1.116-.55.97-1.574a5 5 0 0 1-.063-.788v-.143c.512.38.531 1.597.453 2.182-.02.145-.248.492-.26.572-.054.39.252.635.26.716.02.215-.176.79-.194 1.037z"/><path fill="#F5D53B" d="M27.434 50.195c1.415.472 2.868-.032 4.047-.93.43-.328.775-.926 1.262-1.145-.059.36-.08.725-.194 1.073-.153.184-.897.967-.907 1.038-.019.144.613-.14-.097.536-1.074 1.023-3.518 1.031-4.92.858-.479-.058-.746-.493-1.198-.143-.533-.324-.858-.664-1.36-1.002-.705-1.295-1.098-1.139-1.165-2.933l.583 1.682c.724.645 1.188 1.122 1.975 1.465.924.404 1.76.992 1.975-.5z"/><path fill="#ECBC2E" d="M23.291 45.258c-.21.857-.422 1.378-.388 2.289.067 1.794.46 1.638 1.165 2.933.059.108.082.245.194.322-.057.16-.325-.061-.388-.108-.272-.194-1.085-1.296-1.165-1.324-.14-.047-.099.168-.194.18-.004-.123-.518-1.074-.582-1.396-.065-.322-.08-.848-.065-1.18.233-.263.214 1.344.388.75.201-.683-.095-1.104.453-1.967.027-.041.526-.575.584-.5z"/><path fill="#EDAB51" d="m23.874 50.696-.323.143c-.473-.394-.7-.687-1.037-1.216.003-.023 0-.048 0-.07.096-.012.055-.227.194-.18.08.028.893 1.13 1.165 1.324z"/><path fill="#CFA62B" d="M32.809 44.328c0 .29.025.504.064.788l-.971 1.574c-.57.735-.908.703-1.456 1.002-.197.106-.3.484-.324.5-.082.058-.183-.084-.26-.07-.054.01.05.126-.193.143-.024.002-.288-.396-.356 0-.264-.086-1.27-.148-1.456-.287-.08-.06.015-.306-.065-.357-.23-.145-1.025-.384-1.23-.572s.053-.157.032-.179c-.107-.119-.661-.544-.388-.68.058.017.073.054.13.071.063.486 1.011.942 1.36.93.315.391 1.468.411 1.91.357 1.459-.175 2.349-1.48 2.946-2.825.088-.199-.255-.533.26-.393z"/><path fill="#F3DB6E" d="M27.694 47.19c-.35.01-1.298-.445-1.36-.93.13.04.234.12.323.143.19.05.392.111.583.144.754.124 1.29.053 2.008-.144.246-.068.472-.108.712-.214.426-.191 1.436-.85 1.554-1.36.412.014-.443.896-.485.93-.526.434-2.722 1.41-3.334 1.43z"/><path fill="#F5D53B" d="M26.205 46.189c-.273.135.28.56.388.68.02.021-.229-.002-.032.178s1 .427 1.23.572c.08.051-.015.298.064.358.188.139 1.193.199 1.457.287l-1.814.5c-.029-.003-.467-.13-.517-.143-.382-.106-.933-.507-1.36-.572-.07-.07-.186-.134-.194-.143-.481-.529-1.382-1.01-1.294-1.86a6 6 0 0 1 .193-.466c.102-.131 1.59.52 1.878.609z"/><path fill="#F5D53B" d="m32.485 46.975-.324.179c.843.212-.422 1.347-.745 1.609-.938.768-1.874 1.09-3.042.93-.25-.035-.687-.381-.939-.215-.267-.13-.57-.188-.84-.357.06-.107.174-.108.259-.215.9.215 1.785-.143 2.622-.357.592-.153.565-.002 1.198-.358.39-.219 1.43-1.258 1.522-1.287.144-.046.212.055.292.071z"/><path fill="#F5D53B" d="M32.743 48.12c-.487.22-.833.817-1.262 1.146-1.178.898-2.633 1.4-4.047.929-.229-.075-.933-.486-1.133-.644-.123-.097-.314-.188-.098-.358.433.375 1.415.857 1.942.609-.258-.048-.48-.21-.712-.322.25-.167.689.18.938.214 1.17.16 2.104-.163 3.043-.93.32-.261 1.587-1.398.744-1.609l.324-.178c.819.165.247.522.194.966-.013.106.074.119.064.179z"/><path fill="#CFA62B" d="M32.873 45.115c.145 1.024.351 2.153-.971 1.573z"/><path fill="#F9F070" d="M30.672 48.191c-.634.356-.606.205-1.198.358-.837.214-1.722.572-2.623.357.01-.012.052-.225.13-.286.051.014.488.14.517.143 1.017.099 2.161-.453 3.172-.572z"/><path fill="#F5D53B" d="M24.068 46.045h.064c-.087.851.814 1.332 1.295 1.86.18.497.363.929.777 1.288-.216.17-.027.26.098.358.2.157.905.567 1.132.644-.215 1.49-1.052.905-1.975.5-.785-.343-1.25-.82-1.975-1.465l-.583-1.682c-.035-.91.177-1.432.388-2.289.202.383.086.785-.098 1.145l.875-.357z"/><path fill="#EBE02C" d="M24.262 44.686c.053.262.057.5.194.75l-.388-.286v.894l-.875.358c.183-.36.3-.764.098-1.146-.057-.074-.556.46-.583.501-.195-.162-.305-.132-.518-.07 0-.02.006-.058 0-.072.26-.263.557-.476.777-.787.642.359.731-.12 1.295-.144z"/><path fill="#3E9444" d="M24.262 44.686c-.564.023-.653.502-1.294.143.01-.015-.012-.057 0-.07.054-.075.058-.206.064-.215.124-.176.339-.601.55-.644.799-.164.598.376.68.788z"/><path fill="#F5D53B" d="M22.708 45.759c-.548.863-.253 1.284-.453 1.966-.175.594-.157-1.012-.388-.75.02-.47.315-1.124.323-1.287.212-.062.324-.091.518.07"/><path fill="#ECBC2E" d="M25.622 48.048c.317.314.33.669.971 1.072.27.17.575.229.841.358.232.113.455.274.713.322-.529.25-1.51-.232-1.942-.609-.43-.376-.597-.79-.777-1.287.009.01.124.074.194.144"/><path fill="#F5D53B" d="M26.98 48.621c-.076.06-.12.274-.13.287-.084.106-.199.108-.259.214-.641-.404-.654-.76-.97-1.073.425.065.978.467 1.36.572"/><path fill="#302761" d="M46.21 49.336c1.332.227 3.081.053 4.466.071 1.703.023 3.41-.004 5.115 0 .016.42.388.068.324.429-.335.075-1.18.925-1.684.966.75.352 2.73-.211 3.108-.966.102-.202.12-.145.065-.429.66 0 1.308.105 1.975.071l.097-.358c.823.59-1.24.475-1.326.501-.201.06-1.29 1.176-1.78 1.146-2.39-.002-5.01.547-7.445.143-.367-.06-1.137-.31-1.456-.501-.285-.17-.727-.768-.777-.788-.352-.132-1.105.204-1.457-.214.009-.012.058-.234.065-.287.02.007.044-.006.064 0 .26.079.296.155.647.215z"/><path fill="#4C3B81" d="M57.605 49.122c.107-.002.216.002.324 0 .384-.008 1.478-.193 1.747 0l-.097.358c-.667.034-1.314-.071-1.976-.071H55.79c-1.703-.005-3.412.023-5.115 0v-.287c.388-.003.778.002 1.165 0 .235 0 .498-.07.712-.07 1.683-.013 3.355.105 5.05.07z"/><path fill="#211746" d="M56.115 49.837c.385-.088 1.009.065 1.425 0-.379.754-2.358 1.316-3.108.967.503-.04 1.349-.89 1.683-.967"/><path fill="#7A52A1" d="M50.224 49.122h.454v.287c-1.386-.019-3.135.155-4.467-.071.169.014.398-.213.421-.214.957-.091 2.533.017 3.594 0z"/><path fill="#4C3B81" d="M49.965 49.05c.082 0 .244-.045.26.07-1.06.017-2.637-.09-3.594 0-.024.002-.252.229-.421.215-.352-.06-.388-.136-.648-.215a.6.6 0 0 1 .13-.143c.659-.155 3.382.06 4.273.071z"/><path fill="#302761" d="M57.605 49.407c.054.284.036.227-.064.429-.416.065-1.04-.088-1.424 0 .064-.361-.309-.008-.324-.429.604.002 1.205 0 1.813 0z"/><path fill="#D49E31" d="m53.267 38.033-.064 1.931c-.127-.086-.392-.149-.453-.214-.257-.27.125-1.2-.26-1.752-.233-.335-.639-.324-.97-.322-.157 0-.302.003-.454-.036.193.35.268.587.388.966.036.115.047.651.064.68.015.026.43.198.518.25-.186.202-.54-.117-.388.287-.243-.236-.614-.13-.907-.071.226-.372.354-.159.194-.823-.537-2.23-3.161-.524-3.238 1.145l.841-.322c-.04.1-.136.612-.13.715h-.063c-.18-.18-.397.271-.324.501-.234-.154-.08-.225-.162-.287l-.291.108c.03.67.294 1.127.906 1.252a1.4 1.4 0 0 0-.453.143c-.085.006-.174-.01-.26 0 .066-.359-.28-.485-.323-.894-.007-.07.09-.262.064-.465-.02-.178-.053-.397-.064-.501.173-.268.132-.726.26-1.038.214-.525 1.072-1.469 1.585-1.609.436-.119.784.096.907.071.027-.005.056-.202.13-.214 1.438-.236 1.67-.347 2.946.5z"/><path fill="#ECBC2E" d="M54.368 39.965c-.403.724-.672.334-1.165 0l.064-1.932c.095.063.39.133.486.215.639.542.47 1 .615 1.717M50.743 39.75c-.05.082-.274.211-.324.358-.116-.006-.043-.156-.064-.214.665-.884-.805-2.27-1.554-1.109l.032.18c.15-.107.798-.174.68.213-.472-.05-.775.091-.972.572l-.84.322c.075-1.669 2.7-3.374 3.237-1.145.16.665.032.452-.194.823zM52.75 39.75c.01.082-.062.068-.065.071-.294.033-.449-.165-.647-.286-.088-.054-.502-.224-.517-.25-.017-.03-.028-.566-.065-.68l.518-.035-.453-.894c.333 0 .738-.013.97.322.386.552.003 1.483.26 1.752z"/><path fill="#F3DB6E" d="m51.52 37.675.453.894-.518.036c-.121-.38-.197-.617-.388-.967.152.039.297.037.454.036zM50.353 39.892c-.136-.365-.484-.677-.84-.715.118-.387-.53-.32-.68-.214l-.032-.18c.749-1.158 2.22.227 1.554 1.11z"/><path fill="#923D20" d="M54.627 40.465c.066.632-.208 1.824-.647 2.29.01-.027.01-.428.13-.537-.063-.097-1.987.259-1.942.75-.473-.149-.951-.345-1.424-.5.6.006 1.625.23 1.618-.716 1.169-.124 1.243-1.005 2.265-1.287"/><path fill="#B4802C" d="M53.203 39.965c.492.334.761.724 1.164 0 .006.027.225.163.26.5-1.023.284-1.096 1.163-2.265 1.287-.055.007-.285-.14-.454 0 .007-.016-.007-.334.032-.357.376-.217 1.476.054 1.327-.894-.032-.205-.186-.197-.26-.25-.182-.13-.25-.123-.453-.143-.011-.106.073-.217.13-.287.003-.003.077.01.064-.07.061.064.325.127.453.214z"/><path fill="#AC5528" d="M53.979 42.754a1.3 1.3 0 0 1-.454.572c-.445-.132-.913-.217-1.36-.357-.043-.492 1.88-.848 1.942-.751-.12.11-.12.512-.13.536z"/><path fill="#BE7839" d="M47.505 40.823c.023.202-.073.396-.065.465.044.409.39.535.324.895-.144.015-.255.05-.388.07.069-.444-.449-1.245.13-1.43z"/><path fill="#9D5F28" d="M49.642 41.753c-.158.31 1 .491 1.132.5.748.056.853.184 1.133-.5.169-.14.399.006.453 0 .007.944-1.02.721-1.618.715h-.064c-.018-.125-.174-.06-.26-.071-.02-.003-.044.005-.064 0-.99-.217-1.221-.282-2.265-.214q-.031-.002-.064 0c.119-.071.325-.125.453-.144.12-.017.458.043.518-.035-.016-.176-.123-.308-.194-.466.318.073.474.264.841.215z"/><path fill="#544C66" d="M50.677 42.468c-.082-.002-.243.046-.26-.071.084.012.242-.054.26.07"/><path fill="#BD9431" d="M52.684 39.821c-.056.068-.14.18-.13.287-.733-.071-.203.117-.194.25.03.442-.258.471-.097.75.55-.303.806-.003.745-.858.074.052.226.044.26.25.148.947-.952.676-1.327.893-.04.024-.026.341-.033.358-.28.684-.385.556-1.132.501-.134-.01-1.29-.191-1.133-.501.268-.035.71-.416.777-.715.458-.057 1.669.377 1.554-.537a7 7 0 0 0-.323-.68c-.153-.403.202-.083.387-.286.198.122.353.319.648.287z"/><path fill="#C8B02E" d="M51.65 39.821c.026.025.319.641.323.68.114.914-1.097.48-1.554.536.012-.052-.095-.09-.064-.214.036-.154.007-.549.064-.715.05-.147.273-.276.324-.358.292-.058.663-.165.906.071"/><path fill="#CFA62B" d="M48.024 40.966c.228.151.194-.035.387-.143.098.284.292.504.388.715.071.156.18.29.194.466-.06.08-.399.018-.517.035-.613-.125-.876-.582-.907-1.251l.291-.108c.083.061-.072.13.162.286z"/><path fill="#D8532C" d="M50.353 40.823c-.03.125.077.162.064.214-.067.3-.509.68-.777.715-.367.05-.524-.143-.841-.214-.096-.211-.29-.431-.388-.715a1.1 1.1 0 0 1-.064-.358h.064c.045.6.201.168.292.215.688.353.62 1.012 1.651.143z"/><path fill="#D0B679" d="M48.347 40.465c-.004.116.028.253.064.358-.193.108-.16.293-.387.143-.073-.23.143-.68.323-.5"/><path fill="#CFA62B" d="M52.554 40.108c.204.02.27.012.453.143.062.856-.193.555-.744.859-.16-.28.127-.31.097-.75-.008-.133-.538-.321.194-.25z"/><path fill="#F36F37" d="M49.512 39.177c.358.038.704.35.84.715.023.059-.05.21.065.214-.057.167-.028.561-.064.715-1.032.87-.964.21-1.652-.143-.09-.046-.247.384-.291-.214-.009-.103.088-.615.13-.715.197-.483.499-.623.97-.572z"/><path fill="#F58876" d="M49.156 39.464c.063-.008.187-.022.226.035-.51.842-1.066.062-.226-.035"/><path fill="#225C98" d="M57.346 47.189c-.156-.139-.601-.906-.777-1.002 0-.048.003-.095 0-.143.978-.142 1.91.886 2.784 1.36.011.005.015.178.162.213.145-.288-.153-.197-.162-.214-.02-.04.069-.102.064-.108-.655-.977-1.828-1.577-2.914-1.609-.028-.13-.103-.302-.13-.428-.041-.2-.117-.286-.13-.358.24-.068-.033-.146.099-.214.167-.088.588-.171.647-.215.307-.224-.066-.382-.26-.07-.255-.156.634-.57.713-.645.405-.376 1.239-1.418 1.133-2.004-.011-.06.025-.212-.032-.214a2.9 2.9 0 0 1-.648.715c-.01.008-.16-.084-.259 0-.431.367-.759 1.15-1.069 1.718-.128.132-.246.276-.387.393.323.243-.014.09.064.536a.2.2 0 0 1-.064 0l-.518-.715c-1.843-.33-3.677-1.247-5.503-1.574l.194-.214c.021.004.043-.003.064 0 .016.117.177.07.26.07h.064c.473.155.951.352 1.424.502.445.14.915.225 1.36.357.597.18 1.786.871 2.427.645.321-.114 1.927-3.404 3.043-3.077.11.09-.15 2.164-.226 2.468-.098.388-.721 1.418-.713 1.503.011.103 1.024 1.206 1.23 1.573.3.534.514 1.13.713 1.718-.865.135-1.978-.363-2.655-.967z"/><path fill="#9BC0DE" d="M49.706 44.686v.07l.194.788c-1.768-.627-1.969.26-3.464.429-.39.044-.925.035-1.295-.144-.089.056-.068.62-.097.716-.212.69-.622 1.186-.907 1.825.477.015 1.324.103 1.554.608a.6.6 0 0 0-.13.144c-.02-.006-.044.006-.064 0-.856-.264-1.738-.513-2.589-.788-.948-.305-1.896-.364-1.877-1.574.373.136 2.689 1.089 2.88 1.002.275-.123.755-1.69.745-2.074.109.615.066 1.25-.324 1.752.024.268.25-.125.26-.143.244-.486.506-1.83.323-2.325 1.15-.274 2.158-.37 3.334-.357.551.006.767.333 1.457.07"/><path fill="#225C98" d="M47.764 42.183c.083-.01.174.006.26 0q.03-.002.063 0l-4.014 1.216c.316-.202.56-.36.907-.501.68-.276 1.675-.532 2.395-.645.133-.02.245-.055.387-.07z"/><path fill="#5697C9" d="M50.159 42.611c1.826.327 3.66 1.244 5.503 1.574-.732.285-1.788.385-2.557.287-.462-.06-1.654-.674-1.942-.645-.108.011-.772.44-1.068.501-1.568.324-2.938-.633-4.403-.787.011-.085.17-.193.226-.215 1.386-.522 2.79-.974 4.241-.715"/><path fill="#9BC0DE" d="m55.662 44.185.517.715c-.234-.043-.428-.425-.485-.428-.088-.005-1.272.716-1.618.787-1.328.272-1.735-1.023-2.816.358-.106-.016-.16-.073-.194-.071l-.032-.572-.162.501c-.098-.698-.288-.734-.841-.715-.017 0-.201-.142-.324-.071.247-.094.328-.046.388-.358.296-.061.958-.49 1.068-.5.288-.03 1.48.584 1.942.644.769.098 1.825 0 2.557-.287z"/><path fill="#CDE0F0" d="M56.181 44.9a.2.2 0 0 0 .064 0c.013.072.088.157.13.358-.28.13-1.057.707-1.294.286-.005-.095.034-.488-.162-.428-.211.063.12.596-.422.93-1.015.627-1.334-.17-1.78-.215-.246-.025-.43.347-.744.143-.131-.12-.225-.288-.422-.357-.067-.023-.202.012-.291 0 1.08-1.381 1.488-.087 2.816-.358.346-.07 1.53-.792 1.618-.788.057.004.251.386.486.429z"/><path fill="#367FBB" d="m50.353 42.397-.194.214c-1.45-.259-2.855.193-4.24.715-.056.022-.217.13-.226.215-.878-.093-1.221.246-2.008.571a4 4 0 0 0-.388-.143c.222-.237.512-.404.777-.572l4.015-1.216c1.045-.068 1.276-.003 2.265.214z"/><path fill="#225C98" d="M56.245 44.9c-.078-.445.26-.293-.064-.536.142-.12.26-.26.388-.393.689-.719 1.453-1.35 2.007-2.219.106.585-.73 1.627-1.133 2.004-.078.073-.967.489-.713.645.193-.312.567-.153.26.07-.059.044-.48.127-.648.215-.13.068.143.146-.097.214"/><path fill="#CDE0F0" d="M56.505 45.688c.026.125.058.223.064.357.003.048 0 .096 0 .144a6 6 0 0 0-.615-.071c-.228.054-.469.522-.745.5-.17-.59-.105-.542-.13-1.072.237.422 1.016-.156 1.295-.287.026.128.101.298.13.429"/><path fill="#225C98" d="M59.353 47.405c-.875-.473-1.807-1.501-2.784-1.36-.007-.134-.038-.232-.065-.357 1.086.032 2.257.633 2.914 1.609.003.005-.086.066-.064.108zM58.576 41.753c-.554.869-1.317 1.5-2.007 2.218.31-.568.636-1.35 1.068-1.717.1-.085.249.007.26 0 .238-.193.481-.441.647-.716.057.002.021.155.032.215"/><path fill="#225C98" d="M59.353 47.405c.01.017.307-.074.162.214-.147-.035-.15-.208-.162-.214"/><path fill="#CDE0F0" d="m54.497 46.045.065.429c-.228-.18-.671-.017-.94-.071-.012.38-.044.513-.225.858-.314.595-.908 1.009-.841 1.789-.215 0-.476.07-.713.07.714-.624.943-.781.777-1.86-.071-.46-.155-.569-.388-.93-.057-.087-.197-.3-.26-.357.313.203.498-.168.745-.143.445.044.766.841 1.78.214zM49.771 46.26c-.756.963-.478 1.89.194 2.79-.891-.011-3.615-.227-4.272-.071-.23-.504-1.077-.592-1.554-.61.284-.637.694-1.134.906-1.824l.584.108c-.266.148-.185.186-.26.393-.239.653.374.492.745.715.238.143.967.743 1.165.644.31-.888 1.124-1.655 1.132-2.575.454.15.861.516 1.36.428z"/><path fill="#76ABD4" d="M45.692 43.54c1.465.155 2.835 1.112 4.403.788-.062.312-.141.264-.388.358-.689.262-.905-.066-1.456-.071-1.176-.012-2.185.083-3.334.357-.1-.268-.638-.961-.971-.644a5 5 0 0 0-.26-.214c.787-.325 1.13-.664 2.008-.572z"/><path fill="#CDE0F0" d="M49.9 45.544c.125.045.26.162.388.215a8 8 0 0 0-.518.5c-.498.088-.905-.279-1.36-.428-.013-.005.082-.18-.226-.143l-2.816 1.36c.075-.207-.006-.246.259-.394l-.583-.108c.03-.095.008-.661.098-.715.37.179.903.186 1.294.143 1.495-.168 1.696-1.057 3.464-.428z"/><path fill="#225C98" d="M44.916 44.973c.182.494-.08 1.84-.324 2.324-.01.019-.236.412-.26.143.39-.502.433-1.139.324-1.752-.077-.432-.411-1.073-.713-1.36.334-.317.872.375.971.645z"/><path fill="#CDE0F0" d="M43.685 44.114c.014.008.232.19.26.214.301.287.636.928.713 1.36.01.383-.47 1.951-.745 2.074-.193.087-2.507-.866-2.88-1.001.013-.92 1.104-1.895 1.813-2.433.104-.08.364-.351.387-.358.02-.004.044.004.065 0 .02-.003.348.122.387.144"/><path fill="#1C447C" d="M42.357 45.544c.69-.283.702.77.064.572-.18-.055-.339-.46-.064-.572"/><path fill="#EB3F4A" d="M56.568 46.189c.176.095.621.863.777 1.002-.115.006-.043.155-.064.214-.19.507-.523.159-.84.143-.008 0 .033-.061-.13-.07v-.144c.06-.006.45-.151.453-.25-.505.151-.91-.62-1.23.036-.075-.034-.27.05-.324-.036-.032-.049.03-.364 0-.465.276.021.516-.446.745-.501.03-.008.587.057.615.07z"/><path fill="#ECBC2E" d="M57.929 49.122c-.108.002-.217-.002-.324 0-.495-.154-.227-.953-.55-1.36-.225-.098-1.169.851-1.263.68-.214-.382.555-.615.647-.894.318.017.65.365.841-.143.526.492.855.885.647 1.717z"/><path fill="#F5D53B" d="M54.691 47.047c.007.096.16.145.13.25-.046.156-.585.233-.615.465.535-.45 1.044.168 1.1.144.028-.013.04-.289.194-.358.08-.037.688-.079.81-.07.162.008.122.07.129.07-.092.28-.86.512-.647.894.094.171 1.037-.778 1.262-.68.322.407.054 1.206.551 1.36-1.695.035-3.367-.083-5.05-.071-.065-.782.528-1.193.842-1.788h.064c.252.431-.438.609-.226 1.002l.809-.537c-.316-.007-.108-.394-.388-.536.37-.117.647-.224 1.036-.143z"/><path fill="#3A7F3D" d="M55.079 45.544c.025.53-.04.483.13 1.073.029.102-.033.416 0 .466.055.086.25.003.323.035.187.083.507.24.777.214v.144c-.123-.008-.728.035-.809.07-.153.07-.167.346-.194.358-.056.025-.565-.593-1.1-.143.03-.233.569-.308.615-.466.03-.106-.123-.154-.13-.25-.01-.143.174-.33-.13-.571l-.064-.429c.54-.334.21-.867.421-.93.197-.058.158.334.162.43z"/><path fill="#F5D53B" d="M56.31 47.332c-.27.025-.59-.13-.778-.214.32-.655.726.116 1.23-.035-.002.098-.391.245-.453.25"/><path fill="#EB3F4A" d="M54.561 46.474c.303.24.12.43.13.572-.388-.08-.667.026-1.037.143-.064.02-.12.01-.193.07h-.064c.18-.344.214-.477.226-.858.267.054.71-.11.938.071z"/><path fill="#F9F070" d="M53.655 47.189c.28.142.072.529.387.536l-.809.537c-.212-.393.479-.57.226-1.002.073-.063.13-.051.194-.071z"/><path fill="#225C98" d="M48.411 45.831c-.008.919-.821 1.688-1.132 2.576-.2.098-.927-.5-1.165-.644-.37-.224-.983-.062-.745-.716l2.816-1.36c.31-.036.214.14.226.144"/><path fill="#DD242D" d="M52.62 47.262c.166 1.077-.063 1.234-.777 1.86-.388.002-.779-.003-1.165 0h-.194c-.049-.125-.123-.117-.13-.287 0-.01.053-.175.065-.214.757-.36 1.233-1.034 1.651-1.788.249.159.2.587.551.428z"/><path fill="#3E9444" d="M50.742 45.688c-.077.01-.432.061-.453.07-.129-.052-.264-.169-.388-.214l-.194-.787c.402.182.785.538 1.036.93"/><path fill="#93A650" d="m50.03 44.757.84.715.162-.501.032.572c-.014 0-.243.097-.26.143-.02 0-.043-.003-.064 0-.25-.393-.634-.749-1.036-.93v-.07c.123-.07.307.072.324.07z"/><path fill="#499157" d="m50.872 45.473-.841-.715c.554-.018.743.017.84.715"/><path fill="#EFAA8F" d="M51.26 45.615c.087.013.224-.023.291 0 .195.07.29.238.421.358.063.057.201.27.26.358-.473-.256-.34-.467-.907-.501.042-.216-.349-.153-.517-.144.016-.046.244-.143.26-.143.034 0 .087.057.193.07z"/><path fill="#F36F37" d="M51.196 45.831c-.263.37.372.288.453.536.296.904-1.052 1.696-1.23 2.254a3 3 0 0 0-.065.214c-.472-.177-.184-1.256-.194-1.788.079-.048.203-.336.26-.428.184-.3.205-.617.226-.645.03-.037.457-.134.55-.143"/><path fill="#D8532C" d="M51.325 45.831c.566.034.434.245.907.501.234.36.318.47.388.93-.352.158-.303-.27-.551-.429-.418.754-.893 1.43-1.652 1.788.178-.558 1.526-1.35 1.23-2.254-.08-.248-.715-.168-.453-.536a1 1 0 0 1 .13 0z"/><path fill="#F8984D" d="M50.806 45.688c.169-.01.561-.073.518.143a1 1 0 0 0-.13 0c-.092.01-.522.106-.551.143-.022.028-.043.344-.226.645-.384-.911-1.004.89-.26.428.01.534-.278 1.613.195 1.788.005.17.08.162.13.287h-.26c-.016-.117-.177-.07-.26-.07-.672-.9-.95-1.827-.194-2.79.038-.049.486-.488.518-.502.02-.009.377-.061.453-.07.021-.004.044 0 .064 0z"/><path fill="#EFB274" d="M50.418 46.617c-.057.094-.181.381-.26.429-.744.46-.123-1.341.26-.429"/><path fill="#FDC890" d="M49.673 47.047c.232.18.251.65 0 .859zM50.45 46.116c.145.007.124.184.065.215-.038.02-.27-.222-.065-.215"/></g><defs><linearGradient id="b" x1="46.556" x2="45.443" y1="32.937" y2="41.797" gradientUnits="userSpaceOnUse"><stop stop-color="#F9A553"/><stop offset="1" stop-color="#F38945"/></linearGradient><linearGradient id="c" x1="41.66" x2="32.693" y1="32.628" y2="44.204" gradientUnits="userSpaceOnUse"><stop stop-color="#FDD86B"/><stop offset="1" stop-color="#D6AC4B"/></linearGradient><linearGradient id="d" x1="44.299" x2="43.984" y1="32.846" y2="42.428" gradientUnits="userSpaceOnUse"><stop stop-color="#F68E46"/><stop offset="1" stop-color="#ED7236"/></linearGradient><filter id="a" width="70" height="70" x="0" y="0" color-interpolation-filters="sRGB" filterUnits="userSpaceOnUse"><feFlood flood-opacity="0" result="BackgroundImageFix"/><feBlend in="SourceGraphic" in2="BackgroundImageFix" result="shape"/><feColorMatrix in="SourceAlpha" result="hardAlpha" values="0 0 0 0 0 0 0 0 0 0 0 0 0 0 0 0 0 0 127 0"/><feMorphology in="SourceAlpha" radius="3" result="effect1_innerShadow_345_21659"/><feOffset/><feGaussianBlur stdDeviation="1"/><feComposite in2="hardAlpha" k2="-1" k3="1" operator="arithmetic"/><feColorMatrix values="0 0 0 0 0 0 0 0 0 0 0 0 0 0 0 0 0 0 0.08 0"/><feBlend in2="shape" result="effect1_innerShadow_345_21659"/></filter></defs></svg>