<svg xmlns="http://www.w3.org/2000/svg" width="70" height="70" fill="none"><g filter="url(#a)"><path fill="#fff" fill-opacity=".75" d="M0 35C0 15.67 15.67 0 35 0s35 15.67 35 35-15.67 35-35 35S0 54.33 0 35"/><path fill="#5A2B36" d="M35.067 43.068c.025 1.206-.06 2.443 0 3.646.055 1.093.134 3.044.336 4.062.016.083.157.16.2.223q-.067.002-.133 0c-.116.001-.146-.059-.268-.064l-5.835-3.838c.006-.02-.006-.045 0-.064l5.298-.288-5.164-2.911c1.821-.18 3.625-.624 5.432-.896H35c.003.16.067.12.067.128z"/><path fill="#9B4F57" d="m26.682 42.108-2.146 1.984c-.114.048-.223.109-.336.16 1.543 1.078 3.282 1.88 4.963 2.75-2.198-.182-4.376-.631-6.573-.8-.096-.006-.368-.142-.503-.127-.088.036-.3 1.443-.235 1.568.008.013.12.028.268.16-.238.049-.396-.076-.57-.192-.788-.533-3.65-3.268-4.259-4.03.006-.042-.01-.096 0-.128.847.026 4.285 2.55 4.695 2.494.31-.04 2.089-1.627 2.08-1.759l-4.426-4.062-.067-.127c-.012-.075.065-.06.067-.064.465.222.875.536 1.375.703.917.306 4.876 1.429 5.667 1.472z"/><path fill="#803741" d="M29.366 43.835c.093.664.168 2.602 0 3.199-.006.02.006.044 0 .064-.173.516-1.298 1.741-1.543 2.398-.094.253.06.075.067.289-.21-.047-.407-.141-.604-.192l-4.695-3.39c2.199.168 4.377.618 6.573.8-1.68-.87-3.42-1.672-4.963-2.752.114-.05.223-.111.336-.16.567-.242 3.704-.17 4.695-.255.043-.004.09.004.134 0"/><path fill="#0D172A" d="M53.98 30.402c-.017 1.66-.23 3.329-.067 4.99-.072.941.075 1.97 0 2.91-.132 1.65-.64 3.375-.671 5.054-.055.124-.287.169-.336.224-.135.046-.19-.284-.2-.353-.148-.908-.076-2.268-.337-3.102-.019-.062-.007-.12-.066-.191l-3.354-.64c1.055-.69 2.653-.86 3.688-1.759.386-1.958.577-3.958.94-5.917.047-.255.139-.51.2-.767.051-.21.1-.386.067-.608l.134.16z"/><path fill="#894B59" d="M35.2 50.936c-1.876-.084-5.43-.729-7.31-1.151-.007-.214-.16-.035-.067-.288.244-.657 1.37-1.884 1.543-2.4l5.836 3.84z"/><path fill="#DCC3C7" d="M16.824 33.6c.734 2.183 1.92 4.222 2.683 6.397-.186.096-2.144 3.233-2.213 3.454-.01.032.005.086 0 .128-.165-.206-.132-.156-.268-.385l.2.16c.466-3.257.036-6.547-.603-9.755h.2"/><path fill="#C4A6A9" d="M16.623 33.6c.639 3.208 1.069 6.499.603 9.755l-.2-.16c-1.271-2.127-1.087-5.682-.873-8.091.058-.661.172-1.541.403-2.112 0 .2.028.413.067.608"/><path fill="#A08079" d="M18.366 33.92c.881.813 1.075 1.148 2.147 1.855.665.44 1.476.938 2.213 1.215 0 .009.103.031 0 .128-.751-.068-1.896.174-2.683.192-.274-.188-2.027-2.422-2.348-2.847-.36-.479-.623-1.04-1.006-1.504-.04-.135-.1-.248-.134-.384.093-.081.236.017.303.064.428.306 1.112.912 1.509 1.28z"/><path fill="#C4A6A9" d="M20.043 37.31s-.009.02.067.064c-.13.832-.387 1.656-.47 2.495-.002.022.006.05 0 .064-.002.004-.079-.01-.067.063h-.067c-.762-2.175-1.949-4.214-2.683-6.396-.08-.24-.08-.455-.134-.64.383.465.646 1.025 1.006 1.504.321.426 2.073 2.66 2.348 2.846"/><path fill="#803741" d="m22.592 46.203 4.695 3.39c-.775-.198-4.758-1.435-5.165-1.79-.149-.131-.261-.147-.268-.16-.064-.124.147-1.532.235-1.568.135-.015.407.12.503.128"/><path fill="url(#b)" d="M52.907 43.58c-.567.654-3.907 3.811-4.527 4.157-.847.473-4.402 1.508-5.5 1.791-1.588.41-5.787 1.39-7.277 1.472-.043-.064-.184-.14-.2-.223-.201-1.018-.281-2.968-.336-4.062 1.818.249 3.678.224 5.5.384.022.002.045-.002.066 0 3.401.299 4.441 1.26 7.512-1.088 1.232-.942 3.069-3.337 3.756-4.701.192-.381.193-.86.47-1.184.258.835.188 2.194.335 3.102.011.069.066.398.201.353z"/><path fill="#251823" d="m39.762 42.108.804 4.99c-1.822-.16-3.681-.135-5.5-.384-.06-1.203.025-2.44 0-3.646-.034-.133.137-.171.235-.192 1.16-.242 3.352-.317 4.325-.767.023-.01.092.006.134 0z"/><path fill="#5A2B36" d="m29.5 43.835 5.164 2.91-5.299.289c.169-.597.093-2.535 0-3.199.043-.004.09.004.134 0M34.865 40.509c.257.702.116 1.656.134 2.43h-.067a311 311 0 0 0-5.768-1.215c1.776-.447 3.862-1.037 5.7-1.215"/><path fill="#894B59" d="M29.165 41.725c1.924.388 3.851.79 5.768 1.215-1.806.27-3.61.716-5.432.896-.044.004-.091-.004-.134 0-.085-.607-.606-1.661-.604-2.111q-.001-.032 0-.064c.148-.025.266.036.403.064z"/><path fill="#3D2431" d="m34.999 40.38 4.627 1.728c-.973.45-3.164.525-4.325.767-.1.02-.269.06-.234.192 0-.008-.064.033-.067-.128-.018-.775.123-1.73-.134-2.43.01 0-.044-.175.134-.128z"/><path fill="#9B4F57" d="m23.397 38.462 5.298 3.263c-.513.148-1.214.373-1.744.384-.088.002-.18.005-.268 0-.791-.043-4.75-1.165-5.667-1.472-.5-.167-.91-.48-1.375-.703.007-.014-.002-.041 0-.064l3.488-1.472c.096.02.2.053.267.064"/><path fill="#AD787E" d="m19.64 40.126 2.348 5.82c-.41.055-3.848-2.47-4.694-2.494.069-.222 2.026-3.357 2.213-3.454h.067z"/><path fill="#A96167" d="m21.989 45.946-2.348-5.82 4.426 4.061c.009.132-1.77 1.718-2.08 1.76zM26.951 42.108l2.28 1.727c-.99.087-4.128.014-4.694.255l2.146-1.983c.088.005.18.002.268 0z"/><path fill="#AD787E" d="M28.762 41.725c-.002.449.52 1.505.604 2.111-.044.004-.091-.004-.134 0l-2.28-1.727c.53-.01 1.23-.236 1.743-.384z"/><path fill="#1A2F50" d="M48.95 39.293c-.04.027-.104-.015-.268.128l-3.287-1.024c-.022-.1.064-.217-.134-.191 1.229-.431 6.529-3.56 7.176-4.447.41-.56.656-1.585 1.14-2.143-.361 1.96-.552 3.96-.939 5.917-1.036.9-2.633 1.069-3.688 1.759z"/><path fill="#3E5A7A" d="M53.778 30.849c-.061.256-.154.512-.2.767-.486.557-.73 1.582-1.141 2.144-.648.885-5.947 4.015-7.176 4.446-1.123.393-3.267.644-4.225 1.151.284-.578.96-.834 1.374-1.28.167-.177.048-.059-.033-.19 1.497-.41 2.251-.588 3.688-1.216.293-.128.859-.193 1.107-.32.39-.2.866-.8 1.24-1.088.798-.61 1.835-1.18 2.214-2.111a.46.46 0 0 0 .134-.192c.556.18.983-.284 1.207-.703.147-.274.139-.424.201-.703.068-.301.132-.585.134-.896z"/><path fill="#322D44" d="M52.303 39.933c.06.072.047.13.067.191-.276.325-.278.803-.47 1.184-.686 1.365-2.523 3.759-3.755 4.701-.158-.583-1.816-2.463-2.28-2.687l6.438-3.39"/><path fill="#322D44" d="m48.95 39.293 3.353.64-6.438 3.39c-.033-.015-.135-.005-.201-.064-.006-.04.01-.1 0-.127.075.011.063-.061.067-.064 1.095-.95 1.943-2.77 2.95-3.646.165-.143.229-.102.269-.128"/><path fill="#392729" d="M22.726 37.118c.441.04 2 .591 2.514.767.644.222 1.282.513 1.912.768-1.21-.139-2.553.012-3.756-.192-.068-.011-.172-.044-.268-.064-.362-.073-2.749-.866-3.018-1.024-.075-.044-.063-.061-.066-.063.787-.018 1.931-.26 2.683-.192z"/><path fill="#A08079" d="M22.726 36.99c-.738-.277-1.549-.775-2.214-1.215.138.035.127-.063.134-.064.193-.03 1.555-.037 1.71 0 .369.088.374.95.37 1.28"/><path fill="#AD787E" d="M23.127 38.398 19.64 39.87c.082-.84.339-1.662.47-2.494.268.157 2.655.95 3.017 1.023"/><path fill="#251823" d="M45.663 43.132c.01.026-.006.087 0 .127l-5.03 3.839c-.023-.002-.045.002-.067 0l-.804-4.99c.493-.327.7-2.138 1.073-2.623.038-.049.044-.044.067-.064.716.84 4.447 2.946 4.762 3.71z"/><path fill="#322D44" d="M45.865 43.323c.463.224 2.123 2.105 2.28 2.687-3.07 2.349-4.11 1.387-7.512 1.088l5.03-3.838c.066.058.17.048.2.063z"/><path fill="#564C5C" d="M40.834 39.486c-.373.485-.58 2.296-1.074 2.623-.042.006-.11-.01-.133 0l-4.628-1.727-.134-.192c1.299-.023 3.401-.49 4.828-.64.358-.036.784-.144 1.14-.063z"/><path fill="#5A2B36" d="m34.865 40.19.134.19c-.178-.044-.125.127-.134.128-1.84.179-3.925.77-5.702 1.216-.137-.028-.254-.09-.402-.064.055-.553.941-1.738 1.073-2.367 1.205.229 3.972.916 5.03.896"/><path fill="#5A2B36" d="M27.152 38.654c.155.017.314.042.47.064.803.113 1.485.437 2.213.575-.132.629-1.018 1.814-1.073 2.367q-.001.031 0 .064h-.067l-5.299-3.263c1.203.204 2.547.054 3.756.192"/><path fill="#1B1928" d="M45.26 38.206c.199-.026.113.091.135.191.304 1.428.07 3.204.336 4.67-.004.003.008.075-.067.064-.316-.764-4.046-2.87-4.762-3.711.092-.08.103-.047.134-.064.96-.507 3.102-.758 4.225-1.151"/><path fill="#322D44" d="M48.682 39.422c-1.008.877-1.856 2.696-2.951 3.646-.266-1.467-.032-3.243-.336-4.67z"/><path fill="#767081" d="m38.621 38.781 1.844.512-.77.256c-1.428.149-3.53.615-4.83.64-1.058.019-3.825-.667-5.029-.897-.727-.138-1.409-.462-2.213-.575l.335-.96c3.765.82 6.767 1.598 10.664 1.023z"/><path fill="#564C5C" d="M53.04 25.924c-.246.063.324.453.337.48.084.177.05.953.335 1.088l-1.34.416c-.03-.132-.114-.245-.135-.32-.055-.197.044-.633-.067-.865-.123-.26-.805-.418-1.04-.607-.3-.242-1.207-.956-1.407-1.152-.172-.167-.42-.853-.537-.896s-.495.045-.604 0c-.077-.032-.218-.25-.234-.255-.26-.205-.207-.592-.436-.767-.158-.121-3.29-1.167-3.79-1.343-1.093-.387-2.041-.892-3.251-1.088-.304-.048-1.439-.18-1.677-.128-.028.006-.092.296-.303.256-.163-.114-.757-.617-.804-.64l2.717-.384-.1-.192c3.785.79 10.015 3.378 12.34 6.397z"/><path fill="#81685A" d="m40.7 19.526.1.192-2.716.384a17 17 0 0 0-.973-.255c-.319-.015-.65.253-.738.255-.229.006-.687-.148-1.107-.128-.592-.214-1.258-.158-1.877-.127-.388.02-.253-.098-.738.063-.413.138-.736.429-1.14.576-.06.022-.138.044-.2.064-.295-.238-.959.015-1.375 0-.051-.002-.52-.235-.94-.192-.116.013-1.907.61-2.146.704-.303.12-1.288.837-1.476.896-.2.062-.737-.037-1.207.128-.056.02-.156.186-.167.191-.2.098-.67.31-.94.512.488-.5.07-.525.068-1.088 5.448-2.37 11.623-3.416 17.572-2.175"/><path fill="#9A805E" d="M23.06 22.79c-.26.196-.57.72-.67.767-.232.112-.614.028-.838.127-1.323.584-2.856 2.301-3.722 3.39-.326.41-.983 1.578-1.274 1.824-.16.136-.141.01-.336.032.078-.597.458-2.582.738-3.039.196-.32 3.29-2.856 3.722-3.102.534-.306 1.81-.81 2.448-1.087.003.562.42.587-.067 1.087"/><path fill="#836746" d="M22.39 23.557v.128c-1.317.255-.93.404-1.844 1.088-.915.683-.919.664-1.677 1.471-.074.08-.516.17-.637.416-.021.045-.197.881-.2.96 0 .023.206.302.2.32-.023.062-.435.125-.47.192-.05.096.12 1.634.134 1.919.002.051-.148.37-.134.64.041.835 1.655 2.668 2.482 3.038.057.085.131.18.2.255l-2.08-.064c-.396-.366-1.079-.973-1.509-1.279-.067-.047-.208-.146-.302-.064-.025-.097-.102-.179-.134-.32.06-.257 1.313-.728 1.341-.8.02-.048-.107-.877-.2-.991.194-.384.186-.66.1-1.088l-1.442.384c.239-.61 1.308-1.252 1.744-1.886l-.134-.8c.866-1.09 2.4-2.806 3.722-3.39.224-.099.607-.015.838-.128z"/><path fill="#3E4A67" d="M53.041 25.924c1.136 1.475.956 2.736.94 4.478l-.134-.16c.033.222-.017.398-.067.608l-1.475-.191c0-.133.073-.396.067-.416-.022-.067-.469-.293-.47-.32-.004-.16.906.104.737-1.216-.015-.122-.192-.367-.2-.416-.023-.125-.04-.26-.067-.384l1.34-.416c-.286-.135-.25-.91-.335-1.088-.013-.026-.583-.417-.336-.48z"/><path fill="#9A805E" d="M17.562 30.466c-.201.396-.985 1.13-1.274 1.536-.103-.506-.215-1.6-.201-2.112a.6.6 0 0 0 .134-.127l1.441-.385c.086.429.094.703-.1 1.088"/><path fill="#836746" d="M16.22 29.762c-.003.009-.102.123-.134.128.007-.245.099-.686.134-.96.195-.021.175.104.336-.032.29-.245.948-1.413 1.274-1.823l.134.8c-.436.635-1.505 1.277-1.744 1.886z"/><path fill="#81685A" d="M16.421 32.257c-.003-.015-.122-.194-.134-.256.29-.403 1.073-1.138 1.274-1.535.094.114.22.943.201.992-.028.072-1.28.541-1.341.799"/><path fill="#392729" d="M44.12 21.701c-.232-.11-1.08-.102-1.173-.127-.91-.255-1.454-.991-2.615-.768-1.052.202-.388.67-1.442-.063.21.04.274-.25.303-.256.237-.051 1.373.08 1.676.128 1.21.195 2.159.701 3.253 1.087z"/><path fill="#4C3627" d="M20.445 33.984c.085.09.185.239.201.255v1.472c-.007.001.005.099-.134.064-1.07-.707-1.265-1.042-2.146-1.855z"/><path fill="#7E696B" d="M24.336 36.735c1.062.648 2.402.757 3.622 1.024l-.336.96c-.156-.022-.314-.047-.47-.064-.63-.255-1.268-.546-1.911-.768-.514-.177-2.073-.728-2.515-.767.103-.098 0-.12 0-.128.005-.33 0-1.191-.37-1.279-.155-.037-1.516-.03-1.71 0v-1.471c.848.85 2.56 2.025 3.689 2.494z"/><path fill="#596E88" d="M42.377 37.886c.081.133.2.014.033.192-.415.445-1.09.701-1.374 1.279-.031.017-.042-.015-.134.064-.023.02-.03.015-.067.064-.356-.082-.783.026-1.14.063l.77-.255-1.843-.512c1.386-.205 2.43-.532 3.755-.896z"/><path fill="#F7F3F9" d="M33.39 19.847c.29.161.651.149.973.191.037.005.166.189.2.192.046.004.591-.25.705-.256.42-.02.878.135 1.107.128.088-.003.42-.27.737-.255.05.002.928.234.973.255.048.023.641.526.804.64 1.054.733.39.266 1.442.063 1.163-.223 1.706.514 2.615.768.093.026.942.016 1.174.128.5.176 3.631 1.222 3.789 1.343.229.174.177.562.436.767a3.2 3.2 0 0 0-.67-.16l.402-.064c-.25-.122-.075-.346-.302-.48-.953-.564-3.898-1.137-5.03-1.471-.459-.135-1.022-.61-1.61-.704-.774-.124-1.205.119-1.844.48.04.16 2.013.243 2.147.544-.292-.081-.538-.076-.738-.128-.245-.064-.502-.04-.603-.064-1.986-.458-2.996-.648-5.098-.575-.478.016-1.001-.01-1.475.064-.955.146-2.676.846-3.622 1.215-1.392.543-2.483 1.006-3.755 1.79-.072.045-.063.063-.067.065-1.94 1.216-2.305 1.695-3.622 3.454-.024.033-.184.058-.133.191-.02.009-.051-.008-.067 0-.05.026-.723.75-.738.8-.132.434.377.835 0 1.12-.217.163-1.154.199-1.207.351.219.2.043 1.219.067 1.28.016.04.827.23.871.223.054.586.347 1.986-.503 2.175-.175.04-.352-.125-.503-.191-.827-.37-2.44-2.204-2.482-3.039-.013-.27.138-.588.134-.64-.014-.285-.183-1.822-.133-1.918.034-.067.447-.13.47-.192.006-.017-.203-.296-.202-.32.004-.08.18-.915.201-.96.121-.246.563-.336.637-.416.757-.807.796-.812 1.677-1.471.881-.66.527-.834 1.844-1.088 1.013-.196 1.486.224 1.475-1.183.256-.05.146.187.47.16.023-.003.05.004.067 0 .33.382-.016 1.584.704 1.535.897-.062.224-1.603.302-1.76.013-.026.354-.129.537-.288.15-.128 1.032-.95 1.107-.96.108-.014.527.283.737.192.042-.017.27-.566.537-.703.907-.468 1.579.18 2.147.127.044-.004.722-.219.837-.255.063-.02.143-.042.201-.064.18.15 1.295.272 1.375.192l.1-.736-.336-.032c.485-.161.351-.044.738-.063z"/><path fill="#E1E2F1" d="M48.346 23.813c.016.006.157.223.234.255.11.045.483-.044.604 0 .12.044.365.73.537.896.202.196 1.109.91 1.408 1.152.234.19.916.348 1.04.607.11.232.011.667.066.864l-.267.608c.133.166.267.225.47.096.008.05.185.293.2.416.168 1.321-.742 1.057-.737 1.215 0 .028.448.252.47.32.006.021-.067.284-.068.417-.002.31-.065.594-.133.896a2.9 2.9 0 0 0-1.007.063c-.035-.232.27-.066.336-.16.308-.44-.704-1.281-1.14-1.374.195-.188.454-.64.737-.896.17-.154.749-.405.838-.512.36-.426-.601-1.16-1.04-1.215-.021-.003-.045 0-.067 0-.564-.68-1.546-.875-2.414-.96.046-.651.336-1.072-.302-1.536-.244-.177-1.46-.91-1.778-1.087-.519-.289-1.441-.683-2.011-.896-.733-.273-1.373-.355-2.08-.576-.276-.086-.574-.384-.804-.448-.134-.3-2.107-.384-2.147-.544.64-.361 1.07-.603 1.844-.48.588.094 1.151.569 1.61.704 1.133.333 4.079.906 5.03 1.471.226.134.053.358.302.48l-.403.064c.222.034.466.079.671.16z"/><path fill="#141B21" d="M52.37 27.907c.029.122.046.26.068.384-.202.128-.336.07-.47-.096l.268-.608c.021.077.103.189.134.32"/><path fill="#6F5638" d="M31.31 20.55a23 23 0 0 1-.838.256c-.567.052-1.24-.597-2.146-.128-.267.138-.495.686-.537.703-.21.091-.63-.207-.737-.191-.075.01-.958.83-1.107.96-.86-.408-1.041.361-1.543.512-.018.005-.044-.003-.067 0l-.336-.385c.012-.006.112-.172.167-.191.47-.165 1.008-.067 1.208-.128.189-.058 1.173-.775 1.475-.896.24-.096 2.029-.692 2.146-.703.42-.044.888.19.94.191.416.016 1.08-.238 1.374 0z"/><path fill="#D4C0B9" d="m24 22.277.336.384c-.324.028-.213-.21-.47-.16.011 1.407-.463.988-1.474 1.184v-.128c.099-.048.41-.571.67-.767s.74-.413.94-.512z"/><path fill="#E1E2F1" d="m32.652 19.91.336.032-.1.736c-.08.08-1.194-.043-1.375-.192.404-.147.727-.438 1.14-.576"/><path fill="#5D463C" d="M35.267 19.974c-.113.006-.658.26-.704.256-.034-.003-.165-.188-.2-.192-.322-.042-.682-.03-.973-.191.62-.031 1.285-.087 1.877.127"/><path fill="#F7F3F9" d="M21.25 31.745c-.044.005-.856-.183-.872-.223-.023-.061.153-1.08-.067-1.28.053-.15.99-.188 1.208-.352.165.103.613 1.18.603 1.248-.013.095-.818.601-.871.607zM25.945 22.15c-.184.157-.524.261-.537.288-.078.156.595 1.697-.302 1.759-.721.05-.375-1.153-.704-1.536.502-.15.683-.92 1.543-.512"/><path fill="#E1E2F1" d="M51.164 31.617c-.07.017-.455-.02-.303.192.376.016.797.692 1.107.448-.225.419-.651.883-1.207.703-.143-.046-.52-.727-.704-.703-.074.01-1.076.864-1.107.928-.2.409.641.576.906.544.181-.023.628-.444.77-.576-.378.932-1.416 1.5-2.213 2.111l-.503-.831c-.879.492-1.194 1.451-1.911 2.047-.47.39-2.83 1.25-3.32 1.088-.183-.06-.174-.612-1.007-.703-.054-.007-.092-.13-.1-.128l.302-.767 1.006.448c.44-.765.16-2.115 1.442-1.984 1.394 1.791 1.115.442 2.18-.448.499-.417 1.125-.128.838-1.151.159-.027.458-.286.604-.385.029.05 1.027.583 1.073.544.069-.777-.185-1.492.067-2.27.579.01.909-.29 1.274-.64.436.092 1.448.934 1.14 1.375-.066.093-.37-.072-.336.16z"/><path fill="#B1ABBE" d="M49.553 27.715c.412.461.122.613.94 1.088.185.108.534.168.603.384-.283.256-.543.707-.737.896-.365.351-.697.65-1.275.64-.318-.007-.949-.398-1.34-.224-.06.08.15 1.865.2 1.95-.146.1-.445.357-.603.385-.44.075-.877-.19-1.342-.128l1.208-2.943c.301-.264.332-.378.47-.703.007-.018-.008-.045 0-.064.025-.065.044-.126.066-.191.248-.703.387-1.52.604-2.24.346.388.877.782 1.207 1.152z"/><path fill="#B5BBC7" d="M51.096 29.186c-.069-.216-.418-.276-.603-.384l.402-1.343c.439.055 1.4.789 1.04 1.215-.09.107-.668.357-.838.512"/><path fill="#C4C6D9" d="M50.827 27.459c-.273-.012-.938.253-1.274.255-.33-.37-.862-.764-1.207-1.151l.067-.064c.868.085 1.85.28 2.414.96"/><path fill="#B1ABBE" d="M50.828 27.459c.021 0 .045-.003.066 0l-.402 1.343c-.818-.475-.528-.626-.94-1.088.336-.003 1.001-.268 1.274-.255z"/><path fill="#B5BBC7" d="M52.169 31.554c-.063.279-.054.429-.201.703-.31.244-.731-.432-1.107-.448-.152-.212.232-.175.302-.192.33-.079.67-.1 1.007-.064z"/><path fill="#E1E2F1" d="M46.065 36.671c-1.437.628-2.19.805-3.688 1.215-1.327.363-2.37.691-3.756.896-3.897.575-6.9-.202-10.664-1.023-1.22-.266-2.56-.376-3.621-1.024 1.207.502 2.061.485 3.152.703 1.468.295 1.845.648 3.387.448.152-.02.698-.334.805-.32.067.01.814.783 1.006.896.138.081.896.333 1.006.32.092-.01.867-.826 1.074-.896.236-.08.963-.065 1.274-.127.252-.05 1.037-.43 1.106-.289.052.108-.058.373-.033.416.039.068 1.285.565 1.475.64l.167-.831h.067c.185-.006.906-.212.973-.192.11.033.499 1.07.94.767.244-.167.146-.998.167-1.279.152-.057.54-.25.67-.255.01 0 .047.122.1.128.832.091.824.643 1.007.703.49.162 2.85-.697 3.32-1.087l.067.191"/><path fill="#B5BBC7" d="M48.413 35.263c-.375.287-.85.887-1.24 1.088-.25.127-.815.191-1.108.32L46 36.479c.716-.596 1.032-1.554 1.91-2.047zM50.76 32.96a.46.46 0 0 1-.134.192c-.142.132-.59.553-.77.576-.265.033-1.105-.135-.907-.544.032-.064 1.034-.919 1.107-.928.184-.023.562.658.704.703z"/><path fill="#F7F3F9" d="M29.835 35.2c.469.08 1.076-.514 1.475-.513.064 0 .547.208.67.256.182.07.405.214.671.32.014.006.128.099.201.128-.118.191.135 1.235.234 1.279.413.184 2.399.037 2.985.128.022.003.045-.005.067 0 .676.113 1.578.683 2.28.83.065.014.112.058.268.065h.067l-.167.83c-.191-.074-1.436-.57-1.475-.639-.025-.042.085-.308.033-.416-.069-.143-.854.237-1.106.288-.311.063-1.038.048-1.275.128-.206.07-.981.885-1.073.896-.11.012-.868-.239-1.006-.32-.192-.113-.939-.887-1.007-.896-.107-.014-.652.3-.804.32-1.541.2-1.919-.153-3.387-.448l-1.341-.735c.567-.06 2.79-1.534 2.18-2.143-.028-.028-.724-.434-.771-.256l-.134-.064v-.255c.642.24 1.872 1.123 2.414 1.215z"/><path fill="#F7F3F9" d="M21.989 30.466c.176.556.101.898.737 1.151.02.007.048-.007.067 0l4.561 2.367c-.014-.005-.151.045-.302 0-.699-.21-.653-.679-1.375.16-.017.196.794.728.94.864.12.112.84.89.906.896.006-.248.288-.376.302-.416.045-.137-.355-.939-.268-1.184.048-.177.743.228.771.256.612.61-1.61 2.082-2.18 2.143l1.341.735c-1.09-.218-1.945-.202-3.152-.703-1.128-.469-2.84-1.645-3.688-2.495-.018-.016-.117-.165-.201-.255a2 2 0 0 1-.2-.255c.15.068.327.23.502.191.85-.19.557-1.589.503-2.175.054-.006.86-.512.872-.608.01-.068-.439-1.144-.604-1.247.377-.284-.131-.685 0-1.12.015-.05.69-.774.738-.799-.027.597-.593 1.469-.537 2.016.005.057.248.418.268.48z"/><path fill="#E9DBE8" d="M24.235 32.512c.075 0 1.306.663 1.307.736-.527.905-1.331 1.523-2.247 2.079-.181-.068-.064-.733-.167-.864-.084-.104-.9-.234-.94-.32-.022-.05.168-1.043.201-1.088.102-.136.616.116.771.096.113-.015.914-.639 1.073-.64zM27.354 33.984c.02.007.047-.007.067 0v.256l-.805.767c-.145-.136-.955-.667-.939-.864.722-.839.676-.37 1.375-.16.15.046.287-.005.302 0z"/><path fill="#F7F3F9" d="M27.555 34.304c-.086.245.313 1.047.268 1.184-.013.04-.296.169-.302.416-.066-.006-.786-.784-.906-.896l.804-.768.134.064z"/><path fill="#B1ABBE" d="M44.322 34.432c-1.283-.13-1.003 1.218-1.442 1.984l-1.006-.448-.303.767c-.13.005-.518.199-.67.255-.113.042-.9.478-.94.416l.537-1.055c.85-.624 4.709-3.493 5.432-3.646l-1.61 1.727z"/><path fill="#B5BBC7" d="M47.34 32.833c.287 1.023-.34.734-.838 1.151-1.065.89-.786 2.24-2.18.448l1.61-1.727c.02-.004.045.003.067 0 .464-.062.901.204 1.34.128"/><path fill="#B1ABBE" d="M49.084 30.721c-.252.779.002 1.494-.068 2.271-.045.04-1.042-.493-1.073-.543-.05-.086-.26-1.872-.2-1.951.391-.174 1.022.217 1.34.223"/><path fill="#B5BBC7" d="M40.9 36.99c-.02.28.078 1.111-.166 1.28-.44.302-.829-.735-.94-.768-.067-.02-.787.186-.973.192.495-.514 1.1-.921 1.677-1.343l-.536 1.055c.037.062.827-.374.939-.416"/><path fill="#E1E2F1" d="M33.457 35.647c.88.368 1.804.642 2.615 1.152-.586-.09-2.572.056-2.984-.128-.1-.044-.353-1.088-.235-1.28.204.082.402.173.604.256"/><path fill="#FCB969" d="M26.079 24.325c.077.196.063.15.234.191 1.342.323 2.763.438 4.091.831.359.106 2.292 1.026 2.482 1.024.029 0 .318-.196.436-.191 1.05.405 2.131.756 3.085 1.343.013.021.166.063.2.095.021.255-1.796-.553-1.978-.607-.553-.167-1.2-.411-1.777-.448-2.257-.144-4.428-.014-6.773-.256-.007 0 .022-.122-.034-.127-.308-.032-.469.134-.537.127-.052-.006-.014-.122-.066-.127-.399-.043-.812-.05-1.208-.128l2.649.799c-1.082.202-1.968.343-3.051.608-.144.035-.737.291-.872.32-.087.018-.37-.059-.503 0 1.316-1.76 1.681-2.238 3.622-3.454"/><path fill="#FCB969" d="M29.902 22.47c.306.233.72.224 1.073.32-.05.425.857.44 1.04.512.763.299 2.48 1.188 3.22 1.343.043.01.022-.135.066-.128.2.03.477.159.637.064 1.066.527 2.192 1.294 3.152 1.984.293.21.597.404.804.703-.974-.472-3.125-2.003-4.024-2.175-.656-.126-1.995.007-2.784-.064-1.53-.139-3.064-.3-4.594-.448-.042-.004-.568-.122-.637-.128-.394-.038-.882.032-1.274 0-.024-.002-.261-.204-.436-.191 1.271-.785 2.364-1.248 3.755-1.791z"/><path fill="#F89A57" d="M33.524 21.254c.04.148.405.324.536.384l3.354 2.974c.4.603 1.228 1.145 1.644 1.695.087.117.156.089.033.256-.96-.69-2.086-1.456-3.152-1.984-1.37-.679-3.445-1.382-4.962-1.791-.354-.096-.768-.087-1.074-.32.946-.369 2.667-1.07 3.622-1.216zM40.097 21.765c.108.103.137.214.2.32 1 1.671 2.182 3.27 3.22 4.927-2.172-1.957-4.277-3.56-6.909-4.926-.543-.281-1.149-.482-1.61-.896 2.102-.072 3.11.117 5.098.575"/><path fill="#FCB969" d="M27.421 27.203c-.9.474-1.987 1.665-2.918 2.047-.203.084-.773.015-.905.256-.482.055-1.198.021-1.51.32l2.75-.255-.704.384c-.72.15-1.43.344-2.146.512-.02-.062-.263-.423-.268-.48-.056-.547.51-1.42.536-2.016.018-.008.048.009.067 0 .662-.273 2.26-.308 3.052-.448.584-.103 1.166-.324 1.744-.448.162-.035.347-.152.302.128"/><path fill="#FFCD74" d="M26.079 26.307c-.148.105.342.188.369.192 1.707.309 4.56 1.146 6.136 1.855.4.179.724.51 1.14.671-.07.146-.484-.06-.603-.096-1.79-.535-3.55-1.565-5.433-1.918-.07.007-.167.139-.267.191.045-.28-.14-.163-.303-.128-.577.124-1.16.344-1.743.448-.792.14-2.391.176-3.052.449-.05-.134.11-.16.134-.192.133-.059.415.018.503 0 .135-.028.728-.284.871-.32 1.084-.265 1.97-.406 3.052-.608l-2.649-.8c.395.078.809.087 1.207.129.053.005.015.122.067.127.068.007.23-.16.537-.127.056.006.027.127.033.127"/><path fill="#FCB969" d="M41.437 21.958c.23.064.528.362.805.448l1.307 1.407c.635.279 1.139 1.177 1.778 1.215.062.108.135.207.2.32-.286.305.285.753.134 1.152-1.051-1.283-1.315-1.51-2.615-2.495-.066-.05-.148-.152-.2-.191-.337-.44-.798-1.007-1.241-1.343-.043-.033-.924-.352-1.007-.448-.19-.224.048-.049.1-.192.2.053.447.048.738.128z"/><path fill="#FFCD74" d="M34.999 21.19c.46.413 1.067.613 1.61.896-.098.144-.089.14.033.255.347.33 1.199.579 1.442 1.088-1.335-.746-2.637-1.162-4.024-1.791-.132-.06-.496-.236-.537-.384.475-.074.998-.048 1.475-.064zM28.494 24.58c-.287-.006.072.123.1.128 1.749.35 3.089.836 4.729 1.471-.118-.004-.406.192-.437.192-.19.002-2.123-.918-2.48-1.024-1.329-.394-2.75-.51-4.092-.83-.17-.042-.158.004-.234-.192.004-.002-.006-.02.067-.064.173-.012.412.19.436.191.392.032.88-.038 1.274 0 .069.007.595.124.637.128M40.7 21.83c-.053.144-.29-.032-.1.19.08.097.962.416 1.006.449.443.337.904.903 1.24 1.343-.807-.607-1.653-1.237-2.547-1.727-.064-.106-.093-.217-.201-.32.101.023.358 0 .603.063z"/><path fill="#EC5E24" d="M46.334 23.877c.508.895 1.67 2.89 1.61 3.87-.004.069-.2.817-.402.8-.64-1.083-1.38-2.125-2.012-3.2-.066-.112-.138-.21-.2-.32-.37-.635-.602-1.418-1.007-2.047.57.213 1.492.606 2.011.895z"/><path fill="#EF4525" d="m48.413 26.5-.067.064c-.217.72-.356 1.536-.603 2.239a1 1 0 0 1-.201-.256c.202.018.398-.73.402-.799.062-.98-1.101-2.975-1.61-3.87.319.177 1.534.91 1.778 1.087.638.464.347.884.302 1.536z"/><path fill="#F47E3A" d="M42.243 22.406c.706.221 1.347.303 2.08.576.405.629.638 1.412 1.006 2.047-.64-.039-1.142-.936-1.777-1.215l-1.308-1.407z"/><path fill="#F37444" d="M33.12 28.93c-.724.279-1.72.319-2.414.64-.086.04-.197.032-.267.16 0 .102 1.304 1.303 1.14 1.695-.29-.27-2.415-1.651-2.717-1.727-.22-.056-.156.127-.167.127-.072.003-.154-.134-.168-.127-.092.047-.346.436-.47.512-.603.368-1.637.704-2.146 1.023-.509.32.568.258.57.448-1.014-.145-2.067-.26-3.085-.384-.452-.055-1.148-.281-.67.32-.636-.253-.562-.595-.738-1.151.716-.168 1.426-.361 2.147-.512.256-.053.803-.3.973-.32.976-.114 2.254.175 3.287 0l.1-.096c0-.029-.165-.023-.2-.16-.207-.785-.35-1.592-.604-2.366 1.883.353 3.642 1.383 5.432 1.918z"/><path fill="#EC5E24" d="M25.341 32.193c.436.046.998-.098 1.341-.064.848.083 2.607 1.159 3.421 1.152.461-.005 1.034-.776 1.107-.768.553.064-.71 1.408-.771 1.504-.233.361-.302.842-.604 1.183-.543-.092-1.772-.974-2.414-1.215-.02-.007-.048.007-.067 0l-4.561-2.367c.46.167 2.048.523 2.548.576"/><path fill="#F89A57" d="m23.397 31.297 2.514.64c.081.346-.419.083-.57.255-.5-.053-2.09-.409-2.548-.575-.02-.008-.049.007-.067 0-.477-.6.218-.375.67-.32"/><path fill="#EC5E24" d="M43.785 27.524c.106.075.212.161.302.255.264-.192-1.014-3.26-1.04-3.774 1.3.984 1.565 1.21 2.616 2.494.676.825 1.198 1.79 2.011 2.494-.007.019.008.046 0 .064-.133.068-.573-.07-.603-.064.012-.072-.064-.06-.067-.064-.117-.121-.366-.446-.503-.511-1.706-.806-9.224-1.104-10.832-.192-.7.143-1.256.744-1.944.96-.816.255-2.174.378-3.019.384.694-.321 1.69-.361 2.415-.64.119.035.532.242.603.096-.416-.16-.74-.492-1.14-.671l.268-1.791c.577.037 1.224.28 1.777.448.182.054 2 .862 1.979.607-.035-.032-.188-.074-.201-.095-.54-.919-.643-1.319-.537-2.43.898.171 3.05 1.703 4.024 2.174.026.013.2.271.336.16-.465-1.339-1.327-2.507-1.877-3.807 2.072 1.192 3.555 2.569 5.432 3.903"/><path fill="#F37444" d="M28.494 24.58c1.53.148 3.065.309 4.595.448.787.071 2.126-.062 2.783.064-.105 1.112-.003 1.512.537 2.43-.953-.588-2.036-.937-3.085-1.342-1.64-.635-2.98-1.121-4.728-1.472-.028-.006-.388-.134-.1-.128zM32.853 26.564l-.268 1.79c-1.576-.708-4.43-1.546-6.136-1.854-.026-.005-.516-.088-.37-.192 2.347.243 4.518.113 6.774.256"/><path fill="#F47E3A" d="M34.06 21.638c1.388.629 2.69 1.045 4.024 1.79.077.044.192.148.268.192.551 1.299 1.413 2.467 1.878 3.807-.136.111-.309-.148-.336-.16-.208-.299-.512-.493-.804-.703.123-.167.054-.14-.034-.256-.415-.55-1.242-1.092-1.643-1.695z"/><path fill="#FFCD74" d="M35.938 24.58c-.16.095-.437-.034-.637-.064-.044-.006-.023.137-.067.128-.74-.155-2.457-1.044-3.219-1.343-.183-.072-1.09-.087-1.04-.512 1.518.409 3.593 1.113 4.963 1.791"/><path fill="#EC5E24" d="M42.847 23.813c.053.04.135.142.2.191.025.515 1.304 3.582 1.04 3.775a2 2 0 0 0-.302-.255c.202-.152-.162-.343-.268-.512-1.038-1.656-2.22-3.255-3.219-4.926.895.49 1.74 1.12 2.549 1.727"/><path fill="#FCB969" d="M43.517 27.012c.106.169.47.36.268.511-1.877-1.333-3.36-2.71-5.433-3.902-.076-.044-.19-.15-.267-.191-.244-.51-1.095-.758-1.442-1.088-.122-.116-.132-.112-.033-.255 2.632 1.365 4.737 2.969 6.908 4.926z"/><path fill="#F89A57" d="M28.293 29.378a26 26 0 0 0-4.695.128c.131-.242.701-.172.906-.255.93-.382 2.018-1.574 2.917-2.048.1-.053.198-.184.268-.191.255.774.397 1.58.604 2.366"/><path fill="#FFCD74" d="M28.292 29.378c.036.137.202.131.201.16l-.1.096c-1.032.175-2.31-.115-3.287 0-.17.02-.717.267-.973.32l.704-.384-2.75.255c.312-.298 1.027-.264 1.51-.32a25.7 25.7 0 0 1 4.694-.128z"/><path fill="#EE963B" d="M47.542 28.546c.047.08.127.198.2.256q-.031.096-.067.191c-.813-.704-1.336-1.67-2.011-2.494.149-.399-.421-.848-.134-1.152.633 1.076 1.373 2.116 2.011 3.2"/><path fill="#EC5E24" d="M31.58 31.425c.02.02.052.138.133.127-.024.04-.045.087-.067.128-.119.23-.053.277-.067.32-.269.82-.354 1.2-.067 2.048l-.2.64c-.401-.002-1.007.59-1.476.511.302-.34.37-.822.604-1.183.061-.096 1.324-1.44.77-1.504-.071-.008-.644.764-1.106.767l-1.408-3.454c.01 0-.053-.183.167-.127.303.076 2.426 1.457 2.717 1.727"/><path fill="#F47E3A" d="m28.695 29.827 1.408 3.454c-.814.007-2.572-1.07-3.42-1.152.542-.344 1.33.112 1.944-.032-.718-.119-1.425-.312-2.147-.416-.002-.19-1.096-.118-.57-.448s1.542-.655 2.147-1.023c.123-.076.375-.465.47-.512.014-.007.095.132.167.128"/><path fill="#EC5E24" d="m33.725 29.186-.94 1.151c-.23.2-.928.974-1.073 1.215-.08.01-.112-.108-.134-.127.164-.392-1.141-1.594-1.14-1.695.07-.13.183-.12.268-.16.844-.006 2.202-.129 3.018-.384"/><path fill="#FCB969" d="M26.481 31.681c.72.103 1.428.297 2.147.416-.613.143-1.402-.31-1.945.032-.344-.034-.905.11-1.34.064.15-.172.65.09.57-.255l-2.515-.64c1.018.124 2.07.238 3.084.384"/><path fill="#D34427" d="M35.67 28.227c-.473.269-2.447 1.73-2.883 2.111l.939-1.151c.69-.215 1.245-.817 1.945-.96"/><path fill="#6A9940" d="M45.999 32.705c-.022.003-.047-.004-.067 0-.724.153-4.582 3.022-5.433 3.645-.575.423-1.182.83-1.676 1.343h-.134l-.268-2.974c2.262-.99 4.254-2.587 6.405-3.806.722-.41 1.787-.629 2.381-1.152L46 32.704z"/><path fill="#CAD66C" d="M47.675 29.058c-.137.326-.168.439-.47.703-.593.524-1.658.742-2.38 1.152-2.151 1.22-4.144 2.817-6.406 3.806l.268 2.975c-.156-.007-.204-.05-.268-.064a25.8 25.8 0 0 0-4.325-4.478l2.045 3.646c-.022-.004-.045.003-.067 0-.812-.51-1.735-.784-2.615-1.152.318-1.185.26-2.394-.738-3.263 1.196.528 3.697 1.651 4.93 1.855.215.036.29.04.503 0 .72-.136 3.045-1.96 3.855-2.43 1.277-.742 2.651-1.355 3.958-2.048.222-.117.922-.73 1.107-.767.03-.006.47.132.603.064z"/><path fill="#E1E78E" d="M38.42 37.63c-.704-.148-1.605-.718-2.281-.831l-2.045-3.646a25.7 25.7 0 0 1 4.325 4.478z"/><path fill="#AFBE41" d="M32.317 32.193c.01.004.13.098.2.128.033.865.455 1.843.336 2.719-.018.138-.007.234-.2.223-.267-.106-.49-.25-.67-.32-.012-.276-.398-.682-.47-.896-.288-.849-.203-1.229.066-2.047.243.042.511.105.738.191z"/><path fill="#CAD66C" d="M32.72 32.385c.997.867 1.057 2.076.737 3.262-.202-.084-.4-.174-.604-.255-.074-.03-.186-.123-.2-.128.194.01.182-.085.2-.223.12-.876-.303-1.854-.335-2.72.07.03.165.048.2.065z"/><path fill="#919C39" d="M31.98 34.944c-.124-.049-.606-.256-.67-.256l.2-.64c.073.215.46.62.47.897z"/><path fill="#E1E78E" d="M45.462 28.93c.513-.02 1.035.045 1.543 0 .003.004.079-.008.067.064-.183.037-.884.65-1.107.768-1.306.692-2.68 1.305-3.957 2.047-.812.472-3.137 2.295-3.856 2.43-.534-.042-.906-.639-1.308-.83-.608-.292-1.901-.494-2.615-.704-.637-.188-1.234-.555-1.911-.512a4 4 0 0 0-.737-.191c.014-.044-.052-.09.067-.32.477.092.282.335.804.32 1.968-.062 4.102-2.191 5.533-3.327 2.396.183 4.833.45 7.243.384.024 0 .221-.128.234-.128"/><path fill="#AFBE41" d="M47.005 28.93c-.508.045-1.03-.02-1.543 0-1.232-.075-2.735-.643-3.924-.703-1.578-.08-5.676.49-6.908 1.472-.223.177-.755.96-1.04 1.247-.35.352-.844.638-1.14 1.055-.522.017-.328-.226-.805-.32.022-.041.043-.088.067-.128.144-.242.843-1.015 1.073-1.215.437-.38 2.41-1.842 2.884-2.111 1.61-.912 9.127-.614 10.832.191.137.065.386.39.503.512"/><path fill="#E1E78E" d="M38.152 34.24c-.213.04-.286.035-.503 0-1.232-.205-3.734-1.328-4.93-1.855-.036-.017-.13-.035-.2-.064-.07-.03-.19-.124-.201-.128.677-.043 1.275.323 1.911.512.714.211 2.007.412 2.615.703.402.193.773.79 1.308.831"/><path fill="#CAD66C" d="M45.462 28.93c-.014 0-.212.128-.234.128-2.41.065-4.849-.2-7.244-.384-1.43 1.136-3.564 3.265-5.532 3.326.297-.417.791-.703 1.14-1.055.285-.288.817-1.07 1.04-1.247 1.23-.982 5.33-1.552 6.908-1.472 1.189.06 2.692.628 3.924.703z"/></g><defs><linearGradient id="b" x1="52.036" x2="35.676" y1="45.387" y2="45.779" gradientUnits="userSpaceOnUse"><stop stop-color="#292537"/><stop offset="1" stop-color="#39222D"/></linearGradient><filter id="a" width="70" height="70" x="0" y="0" color-interpolation-filters="sRGB" filterUnits="userSpaceOnUse"><feFlood flood-opacity="0" result="BackgroundImageFix"/><feBlend in="SourceGraphic" in2="BackgroundImageFix" result="shape"/><feColorMatrix in="SourceAlpha" result="hardAlpha" values="0 0 0 0 0 0 0 0 0 0 0 0 0 0 0 0 0 0 127 0"/><feMorphology in="SourceAlpha" radius="3" result="effect1_innerShadow_344_12246"/><feOffset/><feGaussianBlur stdDeviation="1"/><feComposite in2="hardAlpha" k2="-1" k3="1" operator="arithmetic"/><feColorMatrix values="0 0 0 0 0 0 0 0 0 0 0 0 0 0 0 0 0 0 0.08 0"/><feBlend in2="shape" result="effect1_innerShadow_344_12246"/></filter></defs></svg>