<svg width="70" height="70" viewBox="0 0 70 70" fill="none" xmlns="http://www.w3.org/2000/svg">
<g filter="url(#filter0_i_345_22106)">
<path d="M0 35C0 15.67 15.67 0 35 0C54.33 0 70 15.67 70 35C70 54.33 54.33 70 35 70C15.67 70 0 54.33 0 35Z" fill="white" fill-opacity="0.75"/>
<g clip-path="url(#clip0_345_22106)">
<path d="M46.6184 39.1593C46.3937 39.1883 45.8877 39.2115 45.8659 39.4333C45.7601 39.4188 45.5614 39.4203 45.4556 39.4333C45.4817 39.1361 45.7673 38.7432 45.7978 38.4749C45.7702 38.7403 45.9921 38.4764 46.0718 38.3386C46.1573 38.4735 46.559 39.0868 46.6199 39.1608L46.6184 39.1593Z" fill="#906B6D"/>
<path d="M46.6182 39.1592C46.7009 39.2592 47.1344 39.6928 47.2345 39.7754L46.6864 39.9117C46.6661 39.8871 46.5182 39.8073 46.4805 39.7754C46.247 39.5768 46.2035 39.4782 45.8643 39.4332C45.8875 39.2114 46.3935 39.1882 46.6168 39.1592H46.6182Z" fill="#BE9A99"/>
<path d="M47.8508 40.1872C47.8059 40.1799 47.1056 40.3887 46.9606 40.3931C46.9533 40.367 46.7141 39.948 46.6865 39.9132L47.2346 39.7769C47.4115 39.9219 47.6507 40.0726 47.8508 40.1872Z" fill="#906B6D"/>
<path d="M46.0702 38.3384C45.9905 38.4776 45.7686 38.7401 45.7962 38.4747C45.8208 38.2558 45.7643 37.8817 45.728 37.6526C45.8948 37.8469 45.931 38.1209 46.0702 38.337V38.3384Z" fill="#A9857C"/>
<path d="M56.4781 32.7228C56.8014 33.2737 57.1117 34.1423 57.1624 34.7774C57.1798 34.9832 57.1726 35.2515 57.1624 35.4617C57.1349 36.0113 56.9797 36.6493 56.8202 37.1741C56.6419 37.2263 56.7158 36.9523 56.5462 37.0712C56.4766 37.1205 55.9068 38.3254 55.7241 38.5777C53.8333 41.1847 50.6521 41.8039 47.8493 40.1872C47.6492 40.0712 47.41 39.9218 47.2331 39.7768C47.133 39.6942 46.6995 39.2606 46.6169 39.1606C46.556 39.0866 46.1543 38.4733 46.0688 38.3385C45.9296 38.121 45.8919 37.8484 45.7266 37.6541C45.6932 37.4467 45.4786 36.8291 45.3844 36.6275C45.3974 36.2781 45.38 35.9199 45.3844 35.5661C45.3844 35.5154 45.2452 35.5473 45.2481 35.498C45.2495 35.4443 45.367 35.5371 45.3844 35.3269L45.6584 35.395C45.7179 35.6937 45.86 35.6488 45.8643 35.6691C46.3356 37.9818 47.2548 39.6231 49.7328 40.2568C56.4157 41.9634 59.2431 32.9345 53.3621 30.1911L51.4104 29.7112C53.3592 29.7402 55.4877 31.0379 56.4766 32.7242L56.4781 32.7228Z" fill="#E77C24"/>
<path d="M49.6997 31.2162C49.981 31.844 50.4768 33.2244 50.6581 33.887C50.2057 33.8392 50.4884 34.3293 50.3159 34.5714C49.9737 34.5555 48.4266 33.771 48.125 33.5449C48.1888 33.2563 48.6136 33.0519 48.6731 32.7575C48.7064 32.5937 48.5179 32.4443 48.5368 32.3472C48.5846 32.0891 49.0559 31.7962 48.6049 31.1829L49.7011 31.2177L49.6997 31.2162Z" fill="#FBBA57"/>
<path d="M49.6996 31.2161L48.6034 31.1813C49.0543 31.7947 48.5831 32.0876 48.5352 32.3457C48.5164 32.4428 48.7049 32.5922 48.6715 32.756C48.6121 33.0503 48.1887 33.2548 48.1235 33.5433C47.6841 33.2142 47.4797 32.9213 47.5754 32.3457C47.4594 32.1789 47.3854 32.2819 47.2332 32.3109C47.194 31.96 47.2491 31.741 47.3695 31.4206C47.8784 31.4554 48.9354 30.4883 49.3893 30.6681C49.5415 30.7275 49.6416 31.0914 49.6981 31.2161H49.6996Z" fill="#FED386"/>
<path d="M49.6996 34.5034C49.5024 34.6498 48.7658 34.4077 48.6382 34.4353C48.3787 34.4918 48.6049 34.8586 48.4323 34.9152C48.0409 35.0428 47.2289 34.6977 47.0288 35.3255C46.7388 35.0123 46.7141 34.1931 46.8925 33.819C47.2608 33.935 47.7233 33.5856 48.022 33.6131C48.1163 33.6218 49.4183 34.3816 49.6996 34.5034Z" fill="#FBBA57"/>
<path d="M49.6997 34.5032C49.9708 34.6206 50.226 34.7323 50.5218 34.7772C50.5276 34.8468 50.6334 34.8874 50.5899 34.9483C50.516 35.0527 48.5034 35.5066 48.2279 35.5298C47.8002 35.5675 47.3043 35.6211 47.0303 35.3239C47.2304 34.6946 48.0423 35.0411 48.4338 34.9135C48.6064 34.857 48.3802 34.4902 48.6397 34.4336C48.7673 34.4061 49.5039 34.6482 49.7011 34.5018L49.6997 34.5032Z" fill="#F9A021"/>
<path d="M47.3707 31.4222C47.2504 31.7426 47.1938 31.9616 47.2344 32.3124C47.1808 32.3226 47.1503 32.3574 47.0981 32.3806C46.421 32.6749 46.1455 33.4521 45.9338 34.093C45.7816 34.5541 45.538 34.7861 45.6598 35.3936L45.3857 35.3255C45.4814 34.2525 45.7076 33.6029 46.2079 32.6546C46.3094 32.4618 46.4355 32.2196 46.5501 32.0384C46.798 31.6484 47.6448 30.803 47.7144 30.4637C47.7579 30.4594 47.8159 30.4739 47.8507 30.4637C48.0363 30.4101 48.1262 30.2419 48.261 30.1897C48.103 30.7566 47.6013 30.8088 47.3707 31.4222Z" fill="#FBBA57"/>
<path d="M48.125 33.5448C48.4281 33.771 49.9737 34.5554 50.3159 34.5714C50.3783 34.5743 50.4682 34.583 50.5218 34.5714C50.5871 34.6613 50.5218 34.7671 50.5218 34.7773C50.226 34.7323 49.9708 34.6207 49.6997 34.5032C49.4286 34.3858 48.1163 33.6216 48.0221 33.6129C47.7234 33.5839 47.2594 33.9348 46.8926 33.8188C47.0231 33.5419 47.3667 33.3403 47.3725 33.3055C47.3812 33.2548 46.9404 32.6951 47.0985 32.3805C47.1521 32.3573 47.1826 32.3225 47.2348 32.3123C47.387 32.2833 47.461 32.1789 47.577 32.3471C47.4798 32.9242 47.6843 33.2171 48.125 33.5448Z" fill="#FED386"/>
<path d="M46.2066 34.1612L46.0007 35.5299C45.9499 35.572 45.876 35.6126 45.8644 35.6662C45.86 35.6459 45.7179 35.6909 45.6585 35.3922C45.5367 34.7846 45.7803 34.5526 45.9325 34.0916C46.0326 34.0785 46.1283 34.0974 46.2066 34.1597V34.1612Z" fill="#FED386"/>
<path d="M50.6581 33.887C50.7669 34.2857 50.9496 34.4757 50.5218 34.5714C50.4696 34.583 50.3797 34.5743 50.3159 34.5714C50.4885 34.3292 50.2057 33.8377 50.6581 33.887Z" fill="#F9A021"/>
<path d="M51.3422 29.7112C51.3654 29.7112 51.3872 29.7112 51.4104 29.7112L53.362 30.1911C59.2445 32.9344 56.4156 41.9619 49.7328 40.2568C47.2533 39.6246 46.3355 37.9818 45.8643 35.6691C45.8773 35.6154 45.9513 35.5748 46.0006 35.5328C46.3369 35.2515 46.5457 34.441 46.2064 34.164C46.1281 34.1002 46.0324 34.0814 45.9324 34.0959C46.1441 33.455 46.4196 32.6778 47.0967 32.3835C46.9387 32.6981 47.3795 33.2578 47.3708 33.3085C47.365 33.3433 47.0228 33.5463 46.8908 33.8218C46.7139 34.1945 46.7386 35.0151 47.0271 35.3283C47.3157 35.6415 47.7985 35.5719 48.2248 35.5342C48.5003 35.5096 50.5143 35.0572 50.5868 34.9528C50.6288 34.8919 50.523 34.8513 50.5186 34.7817C50.5186 34.7716 50.5839 34.6672 50.5186 34.5758C50.9478 34.4801 50.7651 34.2887 50.6549 33.8914C50.4737 33.2288 49.9778 31.8484 49.6965 31.2206C49.6414 31.0959 49.5399 30.732 49.3877 30.6725C48.9338 30.4942 47.8768 31.4598 47.3679 31.425C47.5984 30.8117 48.0986 30.7595 48.2581 30.1926C48.7758 29.9925 50.7071 29.7155 51.3393 29.7126L51.3422 29.7112Z" fill="#FED567"/>
<path d="M51.7875 35.1877C51.9499 35.1137 55.179 35.2674 55.3486 35.324C55.9678 35.5328 55.2515 38.6024 53.9799 38.063C53.8189 37.9948 51.6875 35.6024 51.686 35.4269C51.6933 35.3704 51.7629 35.1993 51.789 35.1877H51.7875Z" fill="#F79229"/>
<path d="M54.3886 32.1761C55.434 32.0761 55.9241 34.9847 55.1411 35.1891C54.4988 35.3573 52.711 34.8411 51.9236 35.0528C51.8685 34.9789 51.7424 34.9296 51.7525 34.8136C51.7685 34.6265 54.1696 32.1979 54.3886 32.1776V32.1761Z" fill="#F9A021"/>
<path d="M49.9386 35.2573C50.2561 35.2283 50.826 35.1312 50.6578 35.5662C50.5911 35.7387 48.4045 38.2878 48.2276 38.34C47.2982 38.6111 46.434 36.3506 46.8922 35.8402C47.1198 35.5865 47.8869 35.7315 48.2276 35.6691C48.725 35.5792 49.4818 35.2994 49.94 35.2588L49.9386 35.2573Z" fill="#F9A021"/>
<path d="M50.8289 35.6678C51.145 35.6576 51.2508 36.9481 51.274 37.2772C51.3059 37.734 51.3871 39.3405 50.897 39.5029C50.6563 39.5827 49.0541 39.181 48.8424 39.023C48.5466 38.8026 48.5495 38.4242 48.6713 38.0979C48.7598 37.8616 50.6621 35.6721 50.8289 35.6678Z" fill="#F79229"/>
<path d="M51.9234 30.7379C52.4715 30.5537 54.1708 31.0482 54.0809 31.8674C54.049 32.1516 51.8915 34.6687 51.6508 34.5716C51.3463 34.067 51.4724 30.8887 51.9248 30.7379H51.9234Z" fill="#F9A021"/>
<path d="M51.3772 35.5995C51.6483 35.4937 53.8783 38.1558 54.0813 38.5777C51.4352 41.047 51.1829 37.6469 51.3772 35.5995Z" fill="#F79229"/>
<path d="M50.965 30.6697C51.8234 30.4913 51.4304 33.0128 51.342 33.5797C51.2985 33.8523 51.255 34.1945 51.1027 34.4352C50.9273 34.4831 49.8848 31.6165 49.9051 31.457C49.9529 31.0698 50.3314 31.2902 50.4865 31.2177C50.7127 31.1119 50.7098 30.7233 50.9664 30.6697H50.965Z" fill="#FBBA57"/>
<path d="M46.002 35.5299L46.2078 34.1611C46.5486 34.4381 46.3383 35.2501 46.002 35.5299Z" fill="#FDEEB0"/>
<path d="M56.8201 37.174C56.7273 37.4771 56.5736 37.7627 56.4779 38.0643C56.2038 38.3007 56.1908 38.6748 56.0675 38.8169C55.8326 39.0865 55.5586 39.4708 55.315 39.7071C54.561 40.4365 53.3952 40.9599 52.3701 41.1455C51.0057 41.392 50.1285 41.2441 48.8438 40.8033C48.5901 40.7163 47.9086 40.1958 47.8506 40.1871C50.6519 41.8038 53.8346 41.1846 55.7253 38.5776C55.908 38.3253 56.4764 37.1204 56.5475 37.0711C56.7157 36.9522 56.6432 37.2248 56.8215 37.174H56.8201Z" fill="#A94724"/>
<path d="M47.8508 30.4636C47.816 30.4738 47.758 30.4593 47.7145 30.4636C47.7304 30.3868 47.7101 30.278 47.7145 30.1896C48.0248 30.1649 47.8899 30.2534 47.8508 30.4636Z" fill="#F9FBF8"/>
<path d="M48.0551 25.2597C48.5829 26.0079 48.6786 26.134 48.8772 27.0402C48.9526 27.3868 48.8874 27.5753 48.9802 27.8624C49.0135 27.8334 49.028 27.7899 49.0831 27.7942C49.4616 27.8247 49.202 27.6478 49.2194 27.5883C49.5471 27.2722 50.8187 26.6792 51.3074 26.3559C51.651 26.1282 51.9758 25.8281 52.2658 25.5337L52.5746 25.7048C52.2527 26.8271 50.8912 27.5347 49.8705 27.9305C49.6994 27.9972 49.0788 28.0146 48.9802 28.0668C48.8076 28.1582 48.3915 29.292 48.1247 29.4704C48.6612 29.6284 52.0874 28.6975 52.2672 28.8193C52.6355 29.0702 51.5002 29.598 51.3422 29.7096C50.71 29.7125 48.7786 29.9895 48.261 30.1896C48.1261 30.2418 48.0348 30.41 47.8507 30.4636C47.8884 30.2534 48.0246 30.1649 47.7144 30.1896C47.7361 29.7676 47.6926 29.3065 47.5085 28.9571C47.3635 28.6816 45.1798 26.7676 45.8309 26.4922C46.7777 27.0765 47.8913 27.742 48.0217 28.9571C48.1029 28.7831 48.7395 27.829 48.7409 27.7594C48.7467 27.4027 46.9778 25.3626 46.7559 24.713C47.0111 24.6782 47.1561 25.3133 47.3374 25.3974C47.4751 25.4612 47.8101 25.061 48.0566 25.2611L48.0551 25.2597Z" fill="#44873F"/>
<path d="M49.2196 27.5884C49.1544 27.6508 49.1109 27.7102 49.0833 27.7943C49.0297 27.79 49.0137 27.8335 48.9804 27.8625C48.889 27.5754 48.9543 27.3869 48.8774 27.0403C49.1747 26.7982 49.3965 26.0573 49.4937 25.6716C49.5212 25.5599 49.5372 25.4381 49.5618 25.3294C49.688 24.79 49.8997 22.7746 50.2462 22.4193C50.5724 22.0858 50.6203 23.1153 50.5884 23.3777C50.5333 23.8287 50.0838 24.2579 50.0403 24.4043C49.7358 25.4454 49.556 26.5329 49.2182 27.5884H49.2196Z" fill="#758F3A"/>
<path d="M49.5617 25.3279C49.5356 25.4367 49.5211 25.5585 49.4935 25.6701C49.0962 25.3685 49.3239 25.0568 49.1513 24.7451C48.9788 24.4333 47.6811 23.5648 47.713 23.3763C47.8 22.8703 48.9933 23.8751 49.1513 24.1288C49.4167 24.558 49.3384 24.9336 49.5617 25.3265V25.3279Z" fill="#62AC45"/>
<path d="M48.0549 25.2598C47.8084 25.0612 47.4735 25.4614 47.3357 25.3961C47.1545 25.312 47.008 24.677 46.7543 24.7118C46.66 24.4334 46.4512 23.9839 46.9254 23.9592C47.0254 23.9781 47.9331 25.0858 48.0549 25.2598Z" fill="#62AC45"/>
<path d="M51.4451 24.5073C52.8327 24.3536 50.2329 25.5976 50.0415 25.7745C49.9574 25.3192 51.1029 24.5464 51.4451 24.5073Z" fill="#62AC45"/>
<path d="M49.083 27.7928C49.112 27.7087 49.1555 27.6507 49.2193 27.5869C49.2005 27.6449 49.4614 27.8218 49.083 27.7928Z" fill="#75B563"/>
<path d="M61.0656 31.6963C60.9206 32.9114 60.3262 34.5281 59.6273 35.53C59.433 35.8084 58.9835 36.3072 58.737 36.5566C58.6877 36.6073 58.5413 36.6552 58.5311 36.7625C58.5094 36.7625 58.4833 36.7581 58.463 36.7625C58.4543 36.4159 58.6718 36.0389 58.3948 35.804C58.6921 35.2878 58.3542 34.7035 58.3267 34.1612C58.6674 34.1554 59.9187 34.6542 60.0043 34.6412C60.651 34.5353 58.6268 33.9002 58.6007 33.8538L61.0656 31.6963Z" fill="#44873F"/>
<path d="M60.5178 31.4902C60.5366 31.57 60.6555 31.6802 60.6207 31.7643C60.4801 32.1021 58.785 33.3578 58.395 33.6811C58.4791 33.4419 58.1978 32.0615 58.2587 32.0035C58.4559 31.8165 59.452 31.989 59.5593 31.6265C59.8711 31.5758 60.206 31.5308 60.5178 31.4902Z" fill="#44873F"/>
<path d="M61.0655 31.6962L58.6006 33.8537C58.6267 33.9001 60.6509 34.5352 60.0042 34.6411C59.9186 34.6556 58.6673 34.1553 58.3266 34.1611C58.2613 34.1611 58.1758 34.1481 58.1207 34.1611C57.8147 33.9161 58.2236 33.8247 58.3947 33.6812C58.7847 33.3564 60.4798 32.1022 60.6204 31.7643C60.6552 31.6802 60.5378 31.57 60.5175 31.4903C60.6886 31.4686 60.8799 31.4483 61.0307 31.354C61.1554 31.4338 61.08 31.5671 61.0655 31.6962Z" fill="#62AC45"/>
<path d="M58.3949 35.8038C58.6733 36.0387 58.4543 36.4157 58.463 36.7623C58.3862 36.7782 57.4176 37.5844 57.2306 37.7207C57.1175 37.8033 56.5491 38.002 56.478 38.0629C56.5737 37.7613 56.7274 37.4771 56.8202 37.1726C56.9812 36.6477 57.1349 36.0097 57.1624 35.4602C57.3857 35.5443 58.2745 35.7009 58.3949 35.8024V35.8038Z" fill="#376C35"/>
<path d="M58.3269 34.1611C58.3545 34.7048 58.6938 35.2877 58.3951 35.8039C58.2747 35.7024 57.3844 35.5458 57.1626 35.4617C57.1727 35.2514 57.18 34.9832 57.1626 34.7773C57.4062 34.7889 58.0253 34.1843 58.121 34.1611C58.1761 34.148 58.2617 34.1611 58.3269 34.1611Z" fill="#376C35"/>
<path d="M58.3949 33.6813C58.2238 33.8234 57.8149 33.9162 58.1208 34.1612C58.0251 34.1844 57.406 34.7891 57.1624 34.7775C57.1102 34.1424 56.8014 33.2739 56.478 32.7229C57.4408 32.0269 58.4065 31.8138 59.5592 31.6267C59.4519 31.9892 58.4543 31.8152 58.2586 32.0037C58.1977 32.0617 58.479 33.4421 58.3949 33.6813Z" fill="#44873F"/>
<path d="M57.4015 34.025C57.5378 33.9859 57.6654 34.0685 57.7785 34.128C57.0608 34.824 57.039 34.1294 57.4015 34.025Z" fill="#376C35"/>
<path d="M39.908 44.843C33.8863 49.596 22.8129 50.1122 16.1822 46.4177C14.1262 45.2722 11.8425 43.4612 10.6709 41.4197C17.5423 44.6734 32.2173 45.0837 39.908 44.843Z" fill="url(#paint0_linear_345_22106)"/>
<path d="M57.4365 45.5956C57.2567 45.7232 57.0668 45.8203 56.8885 45.9378C56.829 45.8131 56.4578 45.9726 56.3752 46.0059C51.9035 47.8488 47.368 49.4641 42.6121 50.4559L37.9215 51.278C31.8563 51.523 25.3721 50.9967 19.7085 48.8131C20.593 49.0915 21.6746 49.3524 22.5838 49.5656C23.5422 49.7918 24.5195 50.0992 25.4938 50.25C34.5097 51.6434 44.5304 49.2321 51.7527 43.7454C54.4177 43.3018 61.1542 41.975 62.639 39.6377C61.8691 42.1055 59.481 44.15 57.4351 45.5941L57.4365 45.5956Z" fill="url(#paint1_linear_345_22106)"/>
<path d="M10.6708 41.4198C11.8439 43.4628 14.1261 45.2724 16.1822 46.4178C22.8114 50.1123 33.8862 49.5961 39.9079 44.8432C40.237 44.833 40.5966 44.7881 40.9345 44.775C42.1234 44.7272 43.3095 44.659 44.4956 44.5691C44.12 45.0041 43.4531 45.3768 42.9543 45.6653C38.4173 48.2883 33.6629 49.7977 28.3705 49.9108C26.429 49.9528 24.4861 49.6701 22.5852 49.5686C21.6746 49.354 20.5929 49.093 19.7099 48.8161C19.243 48.6696 19.2242 48.8262 19.1966 48.8161C18.2469 48.4956 16.0662 47.2458 15.1222 46.6933C12.0396 44.8867 9.49928 42.5595 8.00146 39.2637C8.29581 39.1724 8.3944 39.761 8.54955 39.9481C9.08459 40.5977 9.91832 41.0631 10.6723 41.4198H10.6708Z" fill="#CCB193"/>
<path d="M26.9671 41.4877C27.3267 42.1127 28.2677 42.8522 28.9521 43.0624C29.5379 43.2422 29.9917 43.1755 30.5949 43.1987C31.0473 43.2161 33.2861 43.319 33.402 42.9594C33.1875 42.5984 32.3856 42.8898 32.0333 42.5825C32.4828 42.3171 32.854 41.798 33.1295 41.624C33.2484 41.5486 33.3614 41.5327 33.4716 41.4877C33.6601 41.5675 33.9429 41.5921 34.156 41.624C35.4088 41.8125 36.6688 41.9822 37.9216 42.1721C38.0622 42.1939 38.7655 42.5709 38.8467 42.5825C40.6374 42.8623 43.8911 42.7579 45.5904 42.4462C46.4416 42.2896 47.2492 42.104 48.1235 41.9662C48.3323 41.9329 48.6716 41.9807 48.9109 41.8981C49.1356 41.8198 49.0617 41.6008 49.1849 41.5559C49.2675 41.5254 50.3608 41.6965 50.5537 41.6922C52.9664 41.6545 55.8997 41.8865 58.1196 41.2122C58.3458 41.1441 58.7112 41.015 58.9417 41.0759C54.1641 42.8232 47.8103 43.5626 42.7137 43.8149C41.6697 43.8671 40.2589 44.031 39.2555 43.9512C38.1608 43.8657 36.7718 43.3451 35.6263 43.2668C33.6123 43.1276 31.4127 43.5003 29.3277 43.4031C28.3199 43.3567 25.217 43.0986 24.3296 42.8551C24.102 42.7927 24.1498 42.8565 24.1585 42.581C26.2798 42.494 26.1812 42.3055 24.2267 41.8285C24.3282 41.7299 24.7414 41.118 24.7748 41.0063L26.9657 41.4863L26.9671 41.4877Z" fill="#F4E8E5"/>
<path d="M62.9146 39.1592C62.7522 38.9924 62.6898 39.4782 62.6405 39.6391C61.1558 41.9764 54.4192 43.3046 51.7542 43.7468C49.3676 44.1441 46.9099 44.3863 44.4957 44.569C43.3096 44.6589 42.1235 44.7256 40.9346 44.7749L41.9959 44.3645L42.7151 43.8164C47.8117 43.5642 54.1655 42.8247 58.9431 41.0775C60.4453 40.5279 63.393 39.5681 62.8464 37.5164C63.0378 37.9774 63.0393 38.6618 62.9146 39.1592Z" fill="#CBC4B9"/>
<path d="M62.8451 37.5165C63.3931 39.5668 60.4454 40.5266 58.9418 41.0776C58.7112 41.0167 58.3473 41.1458 58.1196 41.2139L59.6943 40.1873C59.8277 40.1366 59.861 40.1032 59.9683 40.051C62.5696 38.7649 60.5237 37.1062 58.7359 36.5595C58.9824 36.3101 59.4318 35.8099 59.6261 35.533C60.5295 35.7708 62.471 36.619 62.8436 37.518L62.8451 37.5165Z" fill="#E4D1C8"/>
<path d="M11.9032 36.9001C12.0424 37.0814 13.3575 37.8151 13.4445 37.7904C13.6518 37.731 13.4604 37.5744 13.6156 37.5164C13.7316 38.8982 15.0525 40.2858 16.3545 40.6657C16.2429 41.0354 16.5503 41.1413 16.8345 41.2819C15.0583 41.0456 10.6895 39.9364 11.0825 37.5164C11.2855 37.2104 11.7219 37.0509 11.9046 36.9001H11.9032Z" fill="#E2BFC5"/>
<path d="M20.8047 41.2138C20.9917 41.3472 21.2208 41.7286 21.5572 41.9664L20.838 42.1722C20.8598 42.294 21.0497 42.3462 21.1469 42.3781C20.7206 42.6522 20.5712 42.1345 20.2914 42.036C19.3533 41.7068 17.8583 41.7387 16.9014 41.3516C16.9507 41.1877 17.0783 41.2066 17.2102 41.2153C17.6539 41.2414 20.4074 41.5618 19.2982 40.8049C19.839 40.8963 20.3552 40.8934 20.8047 41.2153V41.2138Z" fill="#F3DCE0"/>
<path d="M24.1598 42.5826C23.2637 42.6188 22.0124 42.6594 21.1467 42.3767C21.051 42.3448 20.8611 42.2941 20.8379 42.1708L21.5571 41.9649C21.7673 42.1128 21.9268 42.3289 22.1385 42.3752C22.7852 42.5173 23.4971 42.3477 24.022 41.9649C24.0742 41.9258 24.1873 41.8678 24.2279 41.8286C26.1825 42.3057 26.2811 42.4956 24.1598 42.5811V42.5826Z" fill="#B29FA0"/>
<path d="M12.6557 35.3255C12.7978 35.34 13.4488 36.1041 13.546 36.2839C13.4387 36.2448 13.1893 35.9359 13.1009 35.9417C13.0269 35.9475 12.0018 36.6595 11.8684 36.7639C11.7959 36.8204 11.9409 36.8697 11.9032 36.9002C11.7205 37.051 11.284 37.2105 11.0811 37.5164C11.184 36.8842 11.4624 36.9321 11.6291 36.5913C11.6407 36.5667 11.4885 36.3535 11.6291 36.0432C11.7074 35.8721 12.489 35.3081 12.6557 35.3241V35.3255Z" fill="#E4D1C8"/>
<path d="M19.298 40.8036C20.4072 41.5604 17.6537 41.24 17.21 41.2139C17.0795 41.2066 16.9505 41.1863 16.9012 41.3502C16.8084 41.3125 16.8374 41.2835 16.833 41.282C16.5488 41.1414 16.2429 41.0355 16.3531 40.6658C16.3894 40.676 16.4503 40.6571 16.4894 40.6658C17.255 40.8485 17.6015 40.9326 18.4063 40.5977C18.6426 40.7369 19.0196 40.7557 19.2965 40.8036H19.298Z" fill="#795F64"/>
<path d="M56.8884 45.9377C51.2668 49.6583 44.6115 51.0082 37.9214 51.2779L42.612 50.4558C47.3664 49.464 51.9034 47.8473 56.3751 46.0058C56.4577 45.9725 56.8289 45.8116 56.8884 45.9377Z" fill="#9C7457"/>
<path d="M51.7529 43.7468C44.5321 49.2335 34.5099 51.6462 25.4941 50.2513C24.5197 50.1005 23.5424 49.7917 22.584 49.567C24.4863 49.6685 26.4278 49.9512 28.3693 49.9092C33.6632 49.7961 38.4161 48.2866 42.9531 45.6637C43.4504 45.3766 44.1174 45.0039 44.4944 44.5675C46.9086 44.3848 49.3648 44.1427 51.7529 43.7454V43.7468Z" fill="url(#paint2_linear_345_22106)"/>
<path d="M59.6958 40.1872L58.1211 41.2138C55.9012 41.8866 52.9679 41.6561 50.5552 41.6938C50.3609 41.6967 49.2676 41.5256 49.1864 41.5575C49.0632 41.6039 49.1371 41.8214 48.9124 41.8996C48.6731 41.9837 48.3338 41.9359 48.125 41.9678C48.3498 41.3878 47.2464 41.5299 46.8926 41.4879C46.9999 41.2399 46.9999 40.8716 46.9607 40.5976C47.1826 40.3293 47.0071 40.8151 47.2696 41.0079C47.951 41.5125 51.5542 41.4763 52.5083 41.4183C53.9597 41.3313 55.3952 41.0732 56.8219 40.802C57.7194 40.6324 58.8577 40.5106 59.6972 40.1858L59.6958 40.1872Z" fill="#D5BAB7"/>
<path d="M44.1534 41.1456C44.2433 41.6372 44.671 41.8605 45.0437 42.104C45.2133 42.2157 45.3496 42.394 45.5918 42.4462C43.8924 42.7594 40.6387 42.8624 38.848 42.5825C38.7668 42.5695 38.0635 42.1925 37.9229 42.1722C37.875 41.846 38.2738 41.8155 38.471 41.6923C38.6276 41.7822 38.7871 41.8924 38.9509 41.9663C39.8122 42.3549 40.1225 42.5738 41.1418 42.4462C41.7305 42.5405 44.3245 42.5825 43.0587 41.6241C43.3617 41.4632 43.8155 41.1311 44.1548 41.1442L44.1534 41.1456Z" fill="#A38B89"/>
<path d="M37.2369 40.9397C37.5023 41.2703 38.1243 41.495 38.4694 41.6922C38.2737 41.8155 37.8735 41.8445 37.9213 42.1722C36.6685 41.9822 35.4085 41.8126 34.1558 41.6241L37.2369 40.9397Z" fill="#E2BFC5"/>
<path d="M37.1009 40.5977C37.172 40.7209 37.2256 40.9253 37.2372 40.9398L34.1561 41.6242C33.9429 41.5923 33.6602 41.5662 33.4717 41.4879C33.9995 41.2675 34.9057 41.1544 35.4915 41.008C35.5509 40.9935 35.519 40.8731 35.5263 40.8717C35.5524 40.8659 35.6756 40.979 35.8351 40.9398C36.2498 40.8384 36.6645 40.6397 37.1024 40.5977H37.1009Z" fill="#A38B89"/>
<path d="M30.5962 43.1988C31.1341 43.0016 31.53 42.8798 32.0346 42.5825C32.3869 42.8899 33.1887 42.5985 33.4033 42.9595C33.2873 43.3191 31.0471 43.2162 30.5962 43.1988Z" fill="#A4958E"/>
<path d="M26.6927 40.8717C26.729 40.9819 26.9102 41.3908 26.9668 41.4879L24.7759 41.008C24.7889 40.9645 24.8368 40.7223 24.844 40.6658L26.6927 40.8717Z" fill="#E2BFC5"/>
<path d="M48.1246 41.9663C47.2489 42.104 46.4427 42.2882 45.5915 42.4462C45.3494 42.394 45.2131 42.2157 45.0435 42.104C45.5567 42.22 46.1904 42.178 46.6181 41.83C46.8907 41.9503 47.6534 42.0533 47.6795 41.6937H46.7544C46.7704 41.6705 46.8864 41.4994 46.8907 41.4878C47.2445 41.5298 48.3479 41.3877 48.1232 41.9677L48.1246 41.9663Z" fill="#917C7F"/>
<path d="M59.9696 40.0496C59.8159 39.4058 59.0721 39.4435 58.6009 39.1593C59.1634 38.9317 59.9261 38.5692 59.7652 37.8239C59.7115 37.576 58.7821 36.7727 58.5327 36.7625C58.5429 36.6567 58.6879 36.6074 58.7386 36.5566C60.5264 37.1047 62.5723 38.7635 59.9711 40.0482L59.9696 40.0496Z" fill="#B29FA0"/>
<path d="M58.6009 39.1592C59.0721 39.4434 59.8174 39.4057 59.9696 40.0495C59.8623 40.1017 59.829 40.135 59.6956 40.1858C58.8561 40.5105 57.7178 40.6323 56.8203 40.802C56.9189 40.4931 57.2017 40.4728 57.3684 40.151C57.3843 40.1205 57.1857 40.135 57.2321 40.0147C57.2785 39.8943 57.6149 39.716 57.5061 39.4332C57.7845 39.3665 58.0542 39.3245 58.3283 39.2273C58.3979 39.2027 58.5371 39.1853 58.6023 39.1592H58.6009Z" fill="#A38B89"/>
<path d="M13.5463 36.2839C13.5622 36.3129 13.539 36.6348 13.7522 36.832C13.7348 36.8451 13.6275 37.1815 13.6159 37.2423C13.5724 37.4584 13.6043 37.3728 13.6159 37.5164C13.4607 37.5744 13.6507 37.731 13.4448 37.7904C13.3592 37.8151 12.0441 37.0814 11.9035 36.9002C11.9412 36.8697 11.7976 36.819 11.8687 36.7639C12.0021 36.6595 13.0272 35.9475 13.1012 35.9417C13.1896 35.9359 13.439 36.2448 13.5463 36.2839Z" fill="#D5BAB7"/>
<path d="M58.5311 36.7624C58.7805 36.7726 59.7099 37.5759 59.7635 37.8238C59.9245 38.5676 59.1618 38.9301 58.5992 39.1592C58.534 39.1853 58.3948 39.2027 58.3252 39.2274C58.3585 39.0722 57.8916 39.1201 57.7089 39.0911C57.6741 38.4981 57.7437 38.1544 57.229 37.7223C57.416 37.586 58.3846 36.7784 58.4615 36.7639C58.4818 36.7595 58.5093 36.7639 58.5296 36.7639L58.5311 36.7624Z" fill="#917C7F"/>
<path d="M20.5305 39.9813C20.5218 40.1074 20.5189 40.2669 20.5305 40.3916C20.5551 40.6511 20.6871 40.9774 20.8045 41.2137C20.355 40.8918 19.8388 40.8947 19.298 40.8034C19.021 40.757 18.6455 40.7381 18.4077 40.5975C18.7064 40.4728 19.2284 40.0871 19.4343 39.845L20.5305 39.9813Z" fill="#F4E8E5"/>
<path d="M57.5044 39.4333C57.6132 39.7161 57.2768 39.8915 57.2304 40.0148C57.184 40.138 57.3826 40.1221 57.3667 40.1511C57.1999 40.473 56.9172 40.4933 56.8186 40.8021C55.3918 41.0733 53.9564 41.3313 52.5049 41.4183L52.3687 41.1443C53.3938 40.9587 54.5595 40.4367 55.3135 39.7059C55.8312 39.7828 56.446 39.6624 56.9563 39.5696C57.1318 39.5377 57.3275 39.4754 57.5044 39.4333Z" fill="#795F64"/>
<path d="M52.3688 41.1456L52.5051 41.4197C51.5511 41.4777 47.9494 41.5139 47.2664 41.0093C47.0054 40.8165 47.1809 40.3307 46.9576 40.599C46.9489 40.5337 46.9721 40.4482 46.9576 40.3931C47.1026 40.3887 47.8029 40.1799 47.8479 40.1872C47.9059 40.1959 48.5873 40.7164 48.8411 40.8034C50.1258 41.2442 51.003 41.3921 52.3674 41.1456H52.3688Z" fill="#A38B89"/>
<path d="M41.1401 42.4464C41.8419 42.358 42.4408 41.952 43.057 41.6243C44.3228 42.5812 41.7288 42.5392 41.1401 42.4464Z" fill="#917C7F"/>
<path d="M46.6182 41.8301C46.6283 41.8229 46.7501 41.7011 46.7545 41.6938H47.6795C47.6534 42.0534 46.8908 41.9505 46.6182 41.8301Z" fill="#544442"/>
<path d="M57.2307 37.7224C57.744 38.1545 57.6759 38.4981 57.7107 39.0912C57.4555 39.0491 57.2235 38.9897 56.9581 38.9549C56.6653 38.9157 56.3492 38.9099 56.0679 38.8186C56.1926 38.6765 56.2042 38.3024 56.4782 38.0661C56.5493 38.0052 57.1191 37.8065 57.2307 37.7239V37.7224Z" fill="#795F64"/>
<path d="M56.9568 38.9549C56.8654 39.1753 56.7929 39.4102 56.9568 39.5711C56.4449 39.6654 55.8316 39.7843 55.314 39.7074C55.5576 39.4711 55.8316 39.0868 56.0665 38.8171C56.3478 38.9085 56.6639 38.9143 56.9568 38.9534V38.9549Z" fill="#544442"/>
<path d="M57.7104 39.0911C57.8931 39.1216 58.36 39.0723 58.3267 39.2274C58.0541 39.3246 57.7844 39.3666 57.5045 39.4333C57.3276 39.4754 57.1319 39.5377 56.9564 39.5696C56.7926 39.4087 56.8651 39.1738 56.9564 38.9534C57.2232 38.9896 57.4538 39.0476 57.709 39.0897L57.7104 39.0911Z" fill="#544442"/>
<path d="M19.5724 35.8039C19.5811 35.8068 19.6985 35.9359 19.7087 35.9402C20.1495 37.3873 19.4665 39.7942 17.8948 40.322C17.4192 40.4815 16.7739 40.3046 16.4912 40.6642C16.4521 40.6555 16.3912 40.6744 16.3549 40.6642C15.0528 40.2843 13.7319 38.8953 13.6159 37.5149C13.6043 37.3714 13.5724 37.4569 13.6159 37.2409C13.89 38.2834 14.3569 39.1766 15.2587 39.8087L15.4646 39.7406C14.6918 39.1925 14.1785 38.4371 13.9581 37.5149L14.6425 37.7208C14.6904 38.0209 14.8324 37.8484 14.8484 37.8571C14.9049 38.2645 16.6014 39.6521 16.8682 39.7058C19.0982 40.1582 20.206 37.3119 18.9561 35.8025C19.1055 35.7952 19.4549 35.7735 19.5724 35.8025V35.8039Z" fill="#F1564A"/>
<path d="M14.8469 36.626C14.77 37.016 14.5728 37.2886 14.641 37.7221L13.9566 37.5163C13.9015 37.2814 13.903 37.0552 13.8203 36.8319C13.8566 36.8101 14.0349 36.7826 14.0944 36.7637C14.2669 36.7086 14.6337 36.6709 14.8469 36.6274V36.626Z" fill="#F26C62"/>
<path d="M13.9564 37.5164C14.1754 38.4386 14.6901 39.194 15.463 39.7421L15.2571 39.8103C14.3537 39.1781 13.8883 38.2849 13.6143 37.2424C13.6273 37.1815 13.7346 36.8451 13.7506 36.832C13.7636 36.8219 13.8013 36.8422 13.8187 36.832C13.9014 37.0553 13.8999 37.283 13.955 37.5164H13.9564Z" fill="#F68F7D"/>
<path d="M20.119 36.352C20.6193 37.3553 20.1422 39.0127 19.4346 39.8435C19.2273 40.0856 18.7068 40.4713 18.4081 40.596C17.6033 40.9324 17.2568 40.8469 16.4912 40.6642C16.774 40.3046 17.4192 40.4815 17.8948 40.322C19.468 39.7942 20.1509 37.3872 19.7087 35.9402C19.9421 36.0605 20.0001 36.1098 20.119 36.3505V36.352Z" fill="#C22126"/>
<path d="M18.9564 35.804C20.2062 37.3134 19.097 40.1596 16.8684 39.7073C16.6016 39.6536 14.9052 38.266 14.8486 37.8586C15.4098 38.2123 16.0478 38.4153 16.561 38.8851C16.5741 38.9663 16.577 39.0243 16.6292 39.091C16.9815 39.5347 16.8829 38.788 17.0743 38.817C17.0671 39.5405 17.2469 38.8402 17.3832 39.0562C17.4136 39.7885 17.5659 39.294 17.8965 39.091C17.9849 39.0359 18.156 39.1621 18.2053 39.1258C18.2705 39.0765 18.4938 37.8658 18.1371 37.8252C18.5591 38.0688 18.6693 37.4352 18.9593 37.1408C18.7911 36.7711 18.8215 37.2264 18.4112 36.9697C18.3488 36.9306 18.2038 36.6797 18.069 36.6275C18.1009 36.5144 18.3053 36.1824 18.2401 36.1476C17.7993 36.2085 17.4267 36.2824 16.9728 36.2839C17.0946 36.1795 17.3614 36.1838 17.5209 36.1476C17.7703 36.091 18.0197 35.9881 18.2734 35.9417C18.4909 35.9026 18.7389 35.8156 18.9578 35.8054L18.9564 35.804Z" fill="#C22126"/>
<path d="M15.0529 36.626L15.4632 36.8653L14.9151 37.1393C14.8905 37.2988 15.3153 37.5656 15.3951 37.5496L15.2921 37.8585C16.1984 37.2248 16.8131 36.6521 17.9963 36.6942C17.9659 36.7783 18.0297 37.0074 17.9963 37.0711C17.8252 37.4046 16.6232 37.9658 16.558 38.2355C16.4927 38.5052 16.6971 38.4921 16.6942 38.5095C16.6884 38.5559 16.5536 38.8662 16.558 38.8865C16.0447 38.4167 15.4067 38.2123 14.8455 37.8599C14.831 37.8512 14.6875 38.0238 14.6397 37.7236C14.5715 37.2901 14.7672 37.0175 14.8455 36.6275C14.9093 36.6144 14.9862 36.6391 15.0514 36.6275L15.0529 36.626Z" fill="#F26C62"/>
<path d="M18.0659 36.6262C18.0659 36.6262 18.0325 36.6001 17.9977 36.6943C16.8146 36.6523 16.1998 37.225 15.2935 37.8587L15.3965 37.5498C15.3167 37.5643 14.8919 37.299 14.9166 37.1395L15.4646 36.8654L15.0543 36.6262C15.4458 36.558 15.817 36.4638 16.2186 36.4203C16.3071 36.4101 16.4738 36.4696 16.4927 36.3521C16.5159 36.3521 16.5376 36.3521 16.5608 36.3521C16.6609 36.3492 16.8682 36.4014 16.903 36.284C16.9262 36.284 16.948 36.284 16.9712 36.284C17.425 36.2811 17.7962 36.2086 18.2384 36.1477C18.3037 36.1825 18.0992 36.5131 18.0673 36.6276L18.0659 36.6262Z" fill="#F58E8C"/>
<path d="M16.9018 36.2838C16.867 36.4013 16.6596 36.3491 16.5596 36.352C16.5944 36.236 16.8032 36.2853 16.9018 36.2838Z" fill="#C56841"/>
<path d="M16.4913 36.352C16.4725 36.4709 16.3072 36.4114 16.2173 36.4201C16.2332 36.3085 16.4043 36.3534 16.4913 36.352Z" fill="#C56841"/>
<path d="M16.6274 39.091C16.7202 38.3051 17.0523 38.7198 17.4148 38.5429C18.1194 38.1993 18.0687 37.6019 18.408 36.9683C18.8183 37.2249 18.7879 36.7696 18.9561 37.1394C18.6661 37.4351 18.5573 38.0673 18.1339 37.8237C18.4906 37.8643 18.2673 39.0751 18.2021 39.1244C18.1542 39.1621 17.9831 39.0359 17.8932 39.0896C17.5627 39.294 17.4104 39.7884 17.38 39.0548C17.2437 38.8373 17.0639 39.539 17.0711 38.8155C16.8797 38.7851 16.9798 39.5332 16.626 39.0896L16.6274 39.091Z" fill="#F1564A"/>
<path d="M18.4081 36.9683C18.0702 37.602 18.1195 38.1993 17.4148 38.543C17.0523 38.7199 16.7203 38.3052 16.6275 39.0911C16.5753 39.0244 16.5724 38.9664 16.5594 38.8852C16.5565 38.8649 16.6913 38.5546 16.6957 38.5082C16.6971 38.4908 16.4956 38.498 16.5594 38.2341C16.6232 37.9702 17.8266 37.4048 17.9977 37.0698C18.0311 37.006 17.9673 36.7769 17.9977 36.6928C18.0325 36.5986 18.0644 36.629 18.0659 36.6247C18.2007 36.6769 18.3457 36.9277 18.4081 36.9669V36.9683Z" fill="#F1564A"/>
<path d="M44.0835 34.8455C44.1662 34.9267 44.2097 35.108 44.2198 35.1196C43.5746 35.2834 44.0531 35.5748 44.0139 35.8387C43.9748 36.1026 43.5427 37.3235 43.3629 37.4482C43.2512 37.5265 43.0019 37.5047 42.9859 37.5163C43.0135 37.2467 42.9482 36.1055 42.9859 35.975C43.0932 35.6082 44.4576 35.5429 42.8496 34.5033L43.1918 34.1611C43.3875 34.2713 43.9211 34.686 44.0821 34.8455H44.0835Z" fill="#599341"/>
<path d="M42.3047 33.7508C42.3047 33.7508 42.2801 33.7798 42.3729 33.8189C42.6585 33.9378 42.9064 33.9987 43.195 34.1611L42.8528 34.5033C42.6991 34.4047 42.4758 34.3018 42.3047 34.2293C42.1438 34.1611 41.9611 34.1684 41.8248 34.0234C41.8393 33.9378 41.8161 33.8378 41.8248 33.7493C41.9248 33.7885 42.2047 33.7102 42.3047 33.7493V33.7508Z" fill="#62AC45"/>
<path d="M44.2215 35.1196C44.526 35.4633 45.206 36.2448 45.3858 36.6261C45.4801 36.8277 45.6947 37.4454 45.728 37.6527C45.7643 37.8804 45.8208 38.2559 45.7962 38.4748C45.7657 38.7431 45.4801 39.1375 45.454 39.4333C44.8378 39.5087 44.2302 40.051 44.1534 40.6657C44.1389 40.7774 44.1345 41.0413 44.1534 41.1457C43.8155 41.1312 43.3617 41.4632 43.0572 41.6256C42.441 41.9533 41.8421 42.3593 41.1403 42.4477C40.121 42.5753 39.8107 42.3578 38.9495 41.9678L38.4014 41.4545C38.7813 41.3559 39.0205 41.556 39.3598 41.3182C39.006 40.8571 39.6759 40.3105 39.976 39.8465C40.0471 39.7363 40.1109 39.6073 40.1819 39.5043C40.5691 39.6595 41.2868 38.9345 41.3462 38.5459C41.5362 38.4342 41.8813 38.3429 42.0306 38.2037C42.4149 38.7126 42.7136 37.7383 42.9891 37.5193C43.0036 37.5077 43.2544 37.528 43.366 37.4512C43.5444 37.3265 43.9765 36.1187 44.0171 35.8417C44.0577 35.5648 43.5777 35.2864 44.223 35.1225L44.2215 35.1196Z" fill="#376C35"/>
<path d="M39.9761 39.845C39.676 40.309 39.0061 40.8556 39.3599 41.3167C39.0206 41.5559 38.7814 41.3558 38.4015 41.453L38.9496 41.9663C38.7872 41.8923 38.6277 41.7821 38.4696 41.6922C38.1245 41.495 37.5025 41.2688 37.2372 40.9397C37.2256 40.9252 37.1705 40.7207 37.1009 40.5975C37.0762 40.5555 37.0545 40.5047 37.0327 40.4612C37.2618 40.1277 37.9085 40.2713 37.9578 40.2553C38.0578 40.2234 38.1463 39.9856 38.1637 39.9813C38.7872 39.8334 39.357 39.8856 39.9776 39.845H39.9761Z" fill="#62AC45"/>
<path d="M42.8514 34.5033C44.4609 35.5444 43.095 35.6082 42.9877 35.975C42.95 36.1041 43.0153 37.2452 42.9877 37.5163C42.7122 37.7353 42.4135 38.7096 42.0293 38.2007C42.4556 37.802 42.4817 37.0683 42.5092 36.5231C42.5121 36.4709 42.6455 36.5071 42.6455 36.4549C42.6499 36.2084 42.3106 36.0374 42.3033 35.8387C42.2946 35.5951 42.5513 35.6009 42.5092 35.1543C42.4889 34.9354 42.1641 34.5772 42.3033 34.2292C42.4744 34.3017 42.6977 34.4032 42.8514 34.5033Z" fill="#599341"/>
<path d="M42.3047 34.2293C42.1655 34.5759 42.4889 34.934 42.5106 35.1544C42.5541 35.6024 42.2975 35.5952 42.3047 35.8388C42.312 36.0374 42.6527 36.2085 42.6469 36.455C42.6469 36.5072 42.5121 36.471 42.5106 36.5232C42.4845 37.0684 42.457 37.802 42.0307 38.2008C41.8813 38.34 41.5362 38.4328 41.3463 38.543C41.168 38.6474 40.5271 38.8576 40.4908 38.8852C40.2704 39.0476 40.3313 39.2839 40.182 39.5014C40.1109 39.6043 40.0471 39.7334 39.9761 39.8436C39.354 39.8842 38.7857 39.8334 38.1622 39.9799C38.1462 39.9842 38.0578 40.222 37.9563 40.2539C37.9084 40.2684 37.2603 40.1263 37.0312 40.4598C36.8587 40.1147 36.6238 39.4637 36.5513 39.0911C36.8485 39.0766 37.269 39.3985 37.5445 39.4333C38.0636 39.4985 40.1109 39.2839 40.3864 38.8518C40.4633 38.73 40.4604 38.514 40.5227 38.3385C40.7011 38.2544 40.9534 38.195 41.1042 38.0645C41.268 37.9238 41.1839 37.7832 41.2071 37.7556C41.2376 37.7208 41.5507 37.6614 41.6174 37.4816C41.687 37.2917 41.6827 36.4318 41.7537 36.1128C41.7668 36.0577 42.0974 35.8388 42.0959 35.5647C42.0945 35.2907 41.6276 34.8876 41.616 34.7426C41.6131 34.7049 41.7972 34.1728 41.8219 34.0234C41.9567 34.1684 42.1409 34.1612 42.3018 34.2293H42.3047Z" fill="#84AC47"/>
<path d="M41.8245 33.7508C41.8158 33.8393 41.839 33.9393 41.8245 34.0249C41.7998 34.1742 41.6157 34.7064 41.6186 34.7441C41.6302 34.8891 42.097 35.2965 42.0985 35.5662C42.0999 35.8359 41.7679 36.0592 41.7563 36.1143C41.6838 36.4347 41.6896 37.2946 41.62 37.483C41.5504 37.6715 41.2401 37.7208 41.2097 37.7571C41.1865 37.7832 41.2706 37.9253 41.1067 38.0659C40.9545 38.1964 40.7036 38.2559 40.5253 38.34C40.5325 38.3182 40.4064 38.1732 40.4571 38.0311C40.5137 37.8745 40.8573 37.5816 40.8675 37.5512C41.1473 36.8175 40.1164 35.7735 40.1831 34.9833C40.2672 34.7789 40.331 34.5237 40.3194 34.2989C40.3803 34.2699 40.6224 34.0771 40.5934 33.9901C39.6829 33.6334 40.3339 33.8291 40.6616 33.6131C40.7022 33.5855 40.9501 33.197 41.0719 33.1332C41.0777 33.1361 41.0966 33.0012 41.1749 33.065C41.4286 33.2724 41.5171 33.629 41.8259 33.7494L41.8245 33.7508Z" fill="#99CB48"/>
<path d="M40.4559 33.4768L40.6618 33.6131C40.3341 33.8291 39.6831 33.6334 40.5936 33.9901C40.6226 34.0756 40.3805 34.2685 40.3196 34.2989C40.1427 34.3845 39.5163 34.4439 39.2582 34.573C37.8199 35.2907 36.9644 36.4565 37.0325 38.0993C37.1021 38.3023 38.3389 38.5908 38.5738 38.6126C38.9218 38.6445 38.8972 38.4763 38.916 38.4763C38.9653 38.4763 38.9349 38.6169 38.9842 38.6126C39.2771 38.5865 40.1659 38.3168 40.2514 38.0311C40.2949 37.8876 39.7788 36.0186 39.9093 35.3603C39.9223 35.2922 40.1746 35.0051 40.1833 34.9833C40.1166 35.7735 41.1475 36.8175 40.8677 37.5512C40.8561 37.5802 40.5139 37.8731 40.4573 38.0311C40.4066 38.1732 40.5327 38.3182 40.5255 38.34C40.4631 38.5154 40.466 38.7315 40.3892 38.8533C40.1137 39.2854 38.0663 39.5014 37.5473 39.4347C37.2718 39.3999 36.8527 39.078 36.554 39.0925C36.2829 37.6889 36.4627 36.8915 37.3066 35.7373C37.3515 35.6764 37.395 35.5894 37.4429 35.5314C38.1171 34.731 39.1205 34.3047 39.976 33.7508C40.0861 33.6798 40.1514 33.5653 40.1818 33.545C40.205 33.529 40.4356 33.4913 40.4559 33.4768Z" fill="#99CB48"/>
<path d="M41.346 38.543C41.2865 38.9316 40.5688 39.6565 40.1816 39.5014C40.331 39.2839 40.2686 39.0476 40.4905 38.8852C40.5282 38.8576 41.1676 38.6474 41.346 38.543Z" fill="#62AC45"/>
<path d="M41.0723 33.1346C40.949 33.1984 40.7025 33.587 40.6619 33.6146L40.4561 33.4783C40.5518 33.4072 40.8838 32.9461 40.9693 32.9302C41.1796 32.9331 40.8983 33.0462 41.0723 33.1361V33.1346Z" fill="#F9FBEE"/>
<path d="M40.3182 34.2976C40.3298 34.5224 40.266 34.779 40.1819 34.982C40.1732 35.0037 39.9209 35.2908 39.9079 35.359C39.7774 36.0173 40.2935 37.8863 40.2501 38.0298C40.1645 38.3155 39.2757 38.5851 38.9828 38.6112C38.9335 38.6156 38.9639 38.4735 38.9146 38.475C38.8958 38.475 38.9204 38.6431 38.5724 38.6112C38.3375 38.5895 37.1022 38.2995 37.0311 38.098C36.963 36.4552 37.8185 35.2894 39.2568 34.5717C39.5149 34.4426 40.1413 34.3832 40.3182 34.2976Z" fill="#C9DE79"/>
<path d="M46.6863 39.9132C46.7138 39.948 46.9531 40.3655 46.9603 40.3931C46.9748 40.4482 46.9516 40.5337 46.9603 40.599C46.998 40.873 46.9995 41.2413 46.8922 41.4893C46.8878 41.5009 46.7718 41.672 46.7559 41.6952C46.7501 41.7024 46.6283 41.8242 46.6196 41.8315C46.1918 42.178 45.5582 42.2215 45.0449 42.1055C44.6737 41.8605 44.2445 41.6372 44.1546 41.1471C44.1358 41.0441 44.1401 40.7788 44.1546 40.6671C44.5055 40.5033 44.5331 41.163 44.8738 41.3515C45.8859 41.9127 47.1503 40.7904 46.4833 39.7769C46.521 39.8088 46.6689 39.8885 46.6892 39.9132H46.6863Z" fill="#253C55"/>
<path d="M45.4539 39.4332C45.5612 39.4201 45.7584 39.4187 45.8643 39.4332C46.2036 39.4781 46.2471 39.5767 46.4805 39.7754C47.1475 40.7889 45.8831 41.9112 44.871 41.35C44.5303 41.1615 44.5042 40.5018 44.1519 40.6657C44.2287 40.0509 44.8377 39.5086 45.4525 39.4332H45.4539Z" fill="#253C55"/>
<path d="M44.9406 39.845C45.7381 39.6623 45.77 40.6715 45.2147 40.8035C44.3911 41.0007 44.4056 39.9683 44.9406 39.845Z" fill="#8D9FAA"/>
<path d="M32.9914 41.0081C33.0364 41.2662 33.2379 41.3836 33.1277 41.6243C32.8522 41.7983 32.481 42.3174 32.0316 42.5827C31.5284 42.88 31.1326 43.0018 30.5932 43.199C29.9886 43.1758 29.5362 43.241 28.9504 43.0627C29.4042 42.9249 28.8199 42.8046 28.9156 42.7886C29.1128 42.7567 29.3056 42.8626 29.3259 42.8568C29.4115 42.8365 29.4318 42.6567 29.4622 42.6509C30.6381 42.4377 30.931 42.5726 31.962 41.7606C32.2418 41.5402 32.5521 41.2618 32.7145 40.9385C32.7667 40.9617 32.8972 40.9153 32.9885 41.0066L32.9914 41.0081Z" fill="#C22126"/>
<path d="M28.5413 38.543C28.2426 38.717 28.6979 38.8519 28.7472 38.92C28.84 39.052 28.7849 39.297 28.8501 39.3652C28.9386 39.4594 29.4199 39.4217 29.6026 39.5015C30.0985 39.7204 30.6133 40.3758 31.0062 39.9814C31.0946 40.0307 31.1947 40.0655 31.2802 40.1177C31.3658 40.1699 31.563 40.1887 31.4513 40.3236C30.9946 40.1133 30.6916 40.3656 30.9714 40.8035C30.3682 40.0031 30.2566 40.5918 29.8071 40.6672C29.3576 40.7426 29.1807 40.631 28.7457 40.8035C28.608 40.8586 28.5471 41.0486 28.4035 41.0428C28.9734 40.3714 28.2237 40.9123 28.3354 40.4947C28.3484 40.4483 29.2198 39.8886 28.2324 40.3236L28.5413 40.0147C28.2759 39.8176 28.1918 40.0452 28.0961 40.0495C27.9729 40.0539 28.1179 39.7349 27.8569 39.7407C28.5282 39.5218 27.7713 39.6682 27.7206 39.6044C27.9526 39.2825 27.7148 39.1172 27.7206 39.0563C27.7235 39.0259 27.8554 38.949 27.8569 38.92C27.8598 38.8852 27.6611 38.8925 27.7206 38.7837C27.7699 38.6924 28.2759 38.6286 28.2687 38.4067C28.36 38.4488 28.4514 38.4995 28.5427 38.543H28.5413Z" fill="#F26C62"/>
<path d="M28.7471 41.2821C28.9428 41.3778 28.9385 41.7373 29.4315 41.3502C29.3923 41.5228 29.7867 41.4053 29.8418 41.6243C29.8201 41.6388 29.4851 41.9606 29.533 42.0346C30.0999 42.0926 31.3889 41.5779 31.792 41.2125C31.9936 41.0298 32.1023 40.6107 32.1342 40.5962C32.2415 40.5455 32.617 40.8935 32.7156 40.9384C32.5532 41.2618 32.2415 41.5402 31.9631 41.7605C31.6195 41.7605 31.0757 42.2376 30.8336 42.3086C30.4044 42.4333 29.8085 42.2651 29.4648 42.5145L29.2937 42.4116C29.6316 41.7562 29.2531 42.0679 28.9167 41.8983C28.1773 41.5257 27.6132 40.8587 27.6843 39.9814C28.2469 40.2062 27.967 40.7456 28.1976 41.0428C28.3513 41.2415 28.6354 41.2284 28.7456 41.2821H28.7471Z" fill="#E63032"/>
<path d="M31.4165 40.0496C31.4266 40.0496 31.5397 40.1134 31.6224 40.0496C31.6282 40.4541 31.8428 40.341 31.8283 40.5629C31.8283 40.5817 31.6064 40.879 31.589 40.8717C31.5136 40.8384 31.6151 40.5339 31.4179 40.7688C31.5122 41.3531 30.2246 41.3806 29.8433 41.6242C29.7867 41.4067 29.3938 41.5227 29.4329 41.3502C29.4358 41.3342 29.6751 41.3908 29.5359 41.1443C29.4286 41.1835 29.4416 41.3429 29.4329 41.3502C28.9399 41.7373 28.9443 41.3763 28.7485 41.2821C28.7746 41.0762 29.053 40.9413 28.7485 40.8021C29.1835 40.6281 29.3822 40.7369 29.8099 40.6658C30.2594 40.5904 30.3696 40.0032 30.9742 40.8021C30.6944 40.3642 30.9974 40.1119 31.4542 40.3222C31.5658 40.1873 31.3657 40.1685 31.2831 40.1163C31.2816 40.0235 31.3527 40.0481 31.4194 40.0481L31.4165 40.0496Z" fill="#F1564A"/>
<path d="M27.3091 37.9963L26.8988 38.9214L26.6929 38.7503C26.8335 38.3777 26.8277 38.0224 27.3091 37.9978V37.9963Z" fill="#F68F7D"/>
<path d="M27.6511 38.0646C27.7555 38.0965 28.105 38.3328 28.2674 38.4067C28.2761 38.6271 27.7686 38.6909 27.7193 38.7837C27.6598 38.8939 27.8599 38.8852 27.8556 38.92C27.8527 38.949 27.7222 39.0273 27.7193 39.0563C27.7135 39.1172 27.9513 39.2825 27.7193 39.6044C27.77 39.6697 28.5269 39.5232 27.8556 39.7407C28.1166 39.7349 27.9716 40.0525 28.0948 40.0496C28.1905 40.0467 28.2746 39.819 28.5399 40.0148L28.2311 40.3236C29.2185 39.8886 28.3457 40.4483 28.3341 40.4947C28.2224 40.9123 28.972 40.3714 28.4022 41.0428C28.5458 41.0486 28.6066 40.8586 28.7444 40.8035C29.0489 40.9427 28.7705 41.0761 28.7444 41.2835C28.6342 41.2298 28.3515 41.2429 28.1963 41.0442C27.9658 40.747 28.2456 40.2076 27.683 39.9829C27.612 40.8601 28.176 41.5271 28.9155 41.8997C29.2519 42.0694 29.6303 41.7576 29.2925 42.413L29.4636 42.5159C29.8072 42.2665 30.4046 42.4362 30.8323 42.31C31.0745 42.239 31.6182 41.762 31.9619 41.762C30.9309 42.5739 30.638 42.4391 29.4621 42.6522C29.4317 42.658 29.4099 42.8364 29.3258 42.8581C29.3055 42.8625 29.1127 42.7566 28.9155 42.79C28.8198 42.8059 29.4041 42.9263 28.9503 43.064C28.2645 42.8538 27.3249 42.1143 26.9653 41.4894C26.9087 41.3908 26.7275 40.9833 26.6912 40.8731C26.5782 40.5251 26.4868 40.0771 26.4854 39.7088C26.4854 39.4261 26.5433 39.0868 26.6216 38.8185C26.6492 38.7243 26.6883 38.7547 26.6898 38.7504L26.8957 38.9215L27.306 37.9964C27.4249 37.9906 27.538 38.0312 27.6482 38.0646H27.6511Z" fill="#F1564A"/>
<path d="M26.7263 39.1592L26.8626 40.5975C26.6407 40.1582 26.661 39.642 26.7263 39.1592Z" fill="#F68F7D"/>
<path d="M28.8838 38.6807C28.9577 38.7199 29.2114 38.9446 29.3637 39.0229C29.3651 39.268 29.7378 39.2491 29.8436 39.297C29.8726 39.31 29.9553 39.2839 29.9799 39.297C30.0379 39.3289 30.2757 39.5666 30.528 39.7073C30.6875 39.7957 30.847 39.8929 31.008 39.9813C30.615 40.3757 30.0988 39.7203 29.6044 39.5014C29.4217 39.4202 28.9403 39.4579 28.8519 39.3651C28.7866 39.297 28.8417 39.0519 28.7489 38.92C28.7011 38.8518 28.2443 38.7184 28.543 38.543C28.6518 38.5966 28.8084 38.6401 28.8852 38.6793L28.8838 38.6807Z" fill="#F68F7D"/>
<path d="M29.4316 41.3502C29.4403 41.3429 29.4273 41.1834 29.5346 41.1443C29.6738 41.3908 29.436 41.3342 29.4316 41.3502Z" fill="#E63032"/>
<path d="M29.8422 39.297C29.7364 39.2491 29.3652 39.268 29.3623 39.0229C29.4986 39.0925 29.7712 39.1056 29.8422 39.297Z" fill="#F89F64"/>
<path d="M24.7759 39.5709C24.8542 39.858 24.8832 40.3756 24.844 40.6671C24.8368 40.7251 24.7889 40.9658 24.7759 41.0093C24.7425 41.1195 24.3293 41.7328 24.2278 41.8314C24.1872 41.8705 24.0755 41.93 24.0219 41.9677L23.6797 41.7966C24.4917 41.2775 24.7179 40.2872 24.6381 39.3665C24.6483 39.3882 24.7527 39.4883 24.7744 39.5723L24.7759 39.5709Z" fill="#141E30"/>
<path d="M24.2282 38.7487C24.4022 38.9082 24.5443 39.1489 24.6385 39.3649C24.7183 40.2871 24.4921 41.276 23.6801 41.7951L24.0223 41.9662C23.4988 42.3504 22.7855 42.5186 22.1388 42.3765C21.9271 42.3301 21.7661 42.1141 21.5573 41.9662C21.2209 41.7284 20.9918 41.347 20.8048 41.2136C20.6874 40.9773 20.5554 40.6525 20.5308 40.3915L20.6671 40.2886C21.9039 42.1184 24.7502 40.1856 23.4742 38.3369C23.7337 38.4268 24.0252 38.5617 24.2267 38.7473L24.2282 38.7487Z" fill="#253C55"/>
<path d="M23.474 38.3385C24.75 40.1872 21.9037 42.12 20.6669 40.2902L20.5306 40.3931C20.519 40.2684 20.5219 40.1089 20.5306 39.9828C20.5364 39.9045 20.5784 39.7261 20.5987 39.6406C20.6466 39.6319 20.8626 39.5826 20.8728 39.5724C20.8162 39.7145 20.938 39.7682 20.9409 39.7783C21.199 40.6106 22.1676 40.296 22.5156 39.7102C22.5997 39.5681 23.084 38.5111 23.0637 38.4429L22.5837 38.1341C22.8085 38.1312 23.2435 38.2588 23.474 38.34V38.3385Z" fill="#41608B"/>
<path d="M20.8727 39.5709C20.8625 39.581 20.6465 39.6303 20.5986 39.639C20.7045 39.2069 20.8074 39.1141 21.0786 38.8169C21.2946 38.9082 20.9713 39.4665 20.8727 39.5694V39.5709Z" fill="#8D9FAA"/>
<path d="M22.5156 39.7073C22.1676 40.2945 21.199 40.6077 20.9409 39.7754L22.5156 39.7073Z" fill="#8C98AE"/>
<path d="M22.5839 38.1326L23.0638 38.4414C23.0841 38.5096 22.6013 39.5651 22.5157 39.7087L20.9411 39.7768C20.9382 39.7667 20.8149 39.713 20.8729 39.5709C20.9715 39.468 21.2934 38.9083 21.0788 38.8184C21.4979 38.3602 21.9227 38.1427 22.5853 38.134L22.5839 38.1326Z" fill="#A9B0BA"/>
<path d="M22.1403 38.4066C22.3883 38.3718 22.9856 38.3631 22.8595 38.7836C22.8131 38.9373 21.8155 38.8677 21.6618 38.8184C21.3356 38.714 22.0939 38.4138 22.1418 38.408L22.1403 38.4066Z" fill="#141E30"/>
<path d="M14.8464 36.0782C14.5579 36.2972 14.4056 36.5596 13.9213 36.4204L14.0924 36.7626C14.033 36.7814 13.8546 36.8104 13.8184 36.8307C13.801 36.8409 13.7633 36.8206 13.7502 36.8307C13.5371 36.6335 13.5603 36.3117 13.5444 36.2827C13.4472 36.1029 12.7962 35.3387 12.6541 35.3242C12.6584 35.2807 12.6439 35.2227 12.6541 35.1879C12.6773 35.1053 12.802 34.9849 12.86 34.9139C13.7169 34.5688 15.6918 33.1319 16.5226 33.0652C17.0446 33.0231 17.6811 33.5988 18.235 33.5451L16.5226 34.6413C15.9136 35.0328 15.3989 35.6577 14.845 36.0797L14.8464 36.0782Z" fill="#62AC45"/>
<path d="M12.8615 34.9138C12.8035 34.9849 12.6788 35.1052 12.6556 35.1879C12.4787 35.0922 12.3685 34.9254 12.2452 34.7775C12.557 34.6238 11.9944 34.1961 11.903 33.9902C11.8378 33.8438 11.584 33.1869 11.6638 33.0651C12.0611 32.7708 12.4917 32.8491 12.8281 32.7911C13.9779 32.591 15.2466 32.2763 16.2863 32.894C16.0601 33.0042 15.5685 33.0927 15.3612 33.2029C14.6348 33.5842 13.4008 34.2497 12.8615 34.9153V34.9138Z" fill="#99CB48"/>
<path d="M18.8178 29.2994C18.8367 29.5416 18.6206 29.6474 18.6119 29.7446C18.5438 30.5812 19.3891 30.906 20.0503 31.1482C19.5645 31.8572 19.0106 32.7199 18.6119 33.4768L17.8594 29.0269C18.1827 29.1008 18.4916 29.2414 18.8178 29.3009V29.2994Z" fill="#62AC45"/>
<path d="M12.2452 29.5735C12.6773 29.5808 12.7875 30.1346 12.9978 30.429C13.0413 30.4899 12.9253 30.5595 12.9296 30.5653C12.9702 30.6247 14.033 31.4092 13.717 31.6948C13.208 31.5078 12.6585 31.4266 12.1423 31.2845C11.9248 31.2236 11.4144 30.9481 11.1839 30.8741C10.9533 30.8002 10.3965 30.9713 10.2588 30.4638C10.4748 30.2608 11.9625 29.5692 12.2438 29.5735H12.2452Z" fill="#99CB48"/>
<path d="M11.0128 32.997C10.7402 32.504 10.2096 31.4702 10.1226 30.9424C10.1907 30.6553 11.3246 31.1222 11.355 31.1817C11.3797 31.231 11.2811 32.069 11.2869 32.2778C11.2956 32.6302 11.7465 33.2 11.0128 32.997Z" fill="#99CB48"/>
<path d="M18.4757 33.751C18.0944 34.5006 17.7218 35.3271 17.5173 36.1478C17.3578 36.184 17.0925 36.1796 16.9692 36.284C16.946 36.284 16.9243 36.284 16.9011 36.284C16.8025 36.284 16.5937 36.2362 16.5589 36.3522C16.5357 36.3522 16.5139 36.3522 16.4907 36.3522C16.4037 36.3536 16.2341 36.3087 16.2167 36.4203C15.8151 36.4638 15.4439 36.5581 15.0524 36.6262C14.9871 36.6378 14.9103 36.6132 14.8465 36.6262C14.6333 36.6697 14.265 36.7074 14.0939 36.7625L13.9229 36.4203C14.4071 36.5595 14.5594 36.2971 14.8479 36.0782L18.4772 33.7495L18.4757 33.751Z" fill="#599341"/>
<path d="M17.8596 29.0255L18.6121 33.4754C18.5671 33.561 18.5207 33.661 18.4758 33.7495L14.8465 36.0781C15.399 35.6562 15.9152 35.0312 16.5241 34.6397L18.2365 33.5436C17.6827 33.5987 17.0461 33.023 16.5241 33.0636C15.6919 33.1303 13.7185 34.5672 12.8615 34.9123C13.4009 34.2482 14.6348 33.5827 15.3613 33.1999C15.5686 33.0912 16.0587 33.0027 16.2863 32.8911C15.2482 32.2734 13.978 32.588 12.8282 32.7881C12.4932 32.8461 12.0612 32.7678 11.6639 33.0622C11.5841 33.184 11.8379 33.8408 11.9031 33.9872C11.9959 34.1931 12.557 34.6209 12.2453 34.7746C11.7929 34.2308 11.355 33.6146 11.0128 32.994C11.7465 33.197 11.2956 32.6286 11.2869 32.2748C11.2811 32.0675 11.3811 31.228 11.355 31.1787C11.3246 31.1192 10.1907 30.6523 10.1226 30.9394C10.1023 30.8191 10.0443 30.7509 10.0544 30.6306C10.0704 30.5697 10.2168 30.5001 10.2603 30.4595C10.398 30.9684 10.9447 30.793 11.1854 30.8698C11.4261 30.9467 11.9263 31.2207 12.1438 31.2802C12.66 31.4237 13.2095 31.5035 13.7185 31.6905C14.0346 31.4034 12.9717 30.6204 12.9311 30.561C12.9268 30.5552 13.0428 30.4856 12.9993 30.4247C12.789 30.1303 12.6788 29.5765 12.2467 29.5692C13.9925 28.8051 15.9993 28.5963 17.861 29.0211L17.8596 29.0255Z" fill="#99CB48"/>
<path d="M17.5522 30.8742C17.6421 30.8785 17.8088 30.967 17.9292 30.9771L18.3061 33.271C18.0872 33.1303 16.9925 32.9636 16.9026 32.8258C16.8127 32.6881 16.659 31.4382 16.3545 31.183C16.7199 31.2425 17.2607 30.8597 17.5522 30.8742Z" fill="#62AC45"/>
<path d="M25.1864 21.2202C24.8718 21.4145 24.5861 22.1221 24.5702 22.4875C24.5644 22.6369 25.011 23.4155 24.7761 23.617C24.705 23.5025 24.6093 23.2473 24.5702 23.2067C24.2527 22.866 22.5736 22.1917 22.0371 22.1801C21.4368 21.8553 20.9612 21.9409 20.3247 21.7698C20.4393 21.1767 20.5466 20.562 20.735 19.9892C20.6364 20.2575 21.4716 20.4068 21.5224 20.3996C21.7413 20.3691 21.5021 20.1313 21.5224 20.1255C21.737 20.0617 23.0854 20.7316 23.3029 21.0839L22.1734 18.6538L23.1666 19.9892C23.1579 19.286 24.9617 18.8974 25.1864 19.3382C25.314 19.5876 24.6064 21.197 25.1864 21.2217V21.2202Z" fill="#99CB48"/>
<path d="M27.4451 20.5359L27.274 21.0158L27.1377 20.4677C26.6157 20.7505 25.6602 20.9288 25.186 21.2203C24.606 21.1956 25.3136 19.5876 25.186 19.3368C24.9613 18.896 23.1575 19.2846 23.1662 19.9878L22.173 18.6524L23.3025 21.0825C23.085 20.7302 21.738 20.0603 21.522 20.1241C21.5017 20.1299 21.7409 20.3662 21.522 20.3981C21.4712 20.4054 20.636 20.256 20.7346 19.9878C20.913 19.4513 21.39 18.026 22.0019 18.0013C23.6302 17.9361 26.2822 19.4223 27.4451 20.5344V20.5359Z" fill="#99CB48"/>
<path d="M27.4452 20.5359C27.6322 20.7143 27.8468 20.8607 27.9932 21.084C27.7511 21.2638 27.2436 21.6973 27.0348 21.9061L26.7608 21.8032C26.6941 22.0424 26.2054 22.3397 26.1445 22.4194C26.1315 22.4354 26.2156 22.6036 26.0764 22.8298C26.0068 22.9429 25.9096 22.7877 25.9053 22.795C25.7704 23.0241 25.8139 23.33 25.7342 23.4793C25.5892 23.7519 25.3239 24.0753 25.1861 24.3696C24.9454 24.1739 24.9063 23.8302 24.7758 23.6171C25.0121 23.4155 24.5641 22.6369 24.5699 22.4876C24.5858 22.1222 24.8715 21.4146 25.1861 21.2203C25.6603 20.9289 26.6158 20.7491 27.1378 20.4678L27.2741 21.0159L27.4452 20.5359Z" fill="#62AC45"/>
<path d="M22.037 22.1786C22.2196 22.2772 23.9234 23.4416 24.022 23.5474C24.4381 23.9954 24.0307 23.8577 24.296 24.2999C23.7305 24.1071 22.7721 23.7924 22.208 23.6837C22.0515 23.6532 21.8992 23.5648 21.8992 23.82C21.6136 23.6851 21.2351 23.517 20.9408 23.4097C20.6464 23.3024 20.2999 23.2995 20.1187 22.9993C20.1477 22.5817 20.2448 22.1757 20.3245 21.7668C20.9596 21.9379 21.4367 21.8524 22.037 22.1772V22.1786Z" fill="#599341"/>
<path d="M24.2962 24.3015C24.5253 24.3798 24.766 24.5973 25.0487 24.5755C25.0415 24.5915 25.1053 24.7901 25.0487 24.9177C25.011 25.0018 24.7732 25.5238 24.7399 25.534C24.2875 25.2469 23.8641 24.9192 23.4045 24.6437C22.8622 24.3189 22.4765 24.0956 21.8979 23.8216C21.8979 23.5649 22.0487 23.6548 22.2068 23.6853C22.7708 23.794 23.7307 24.1087 24.2947 24.3015H24.2962Z" fill="#376C35"/>
<path d="M24.5702 23.2053C24.4759 23.517 24.2382 23.3546 24.0221 23.5475C23.9221 23.4402 22.2184 22.2773 22.0371 22.1787C22.5736 22.1903 24.2527 22.8645 24.5702 23.2053Z" fill="#62AC45"/>
<path d="M24.776 23.6171C24.9065 23.8317 24.9456 24.1754 25.1863 24.3697C25.1501 24.4465 25.0645 24.5422 25.05 24.5756C24.7673 24.5973 24.5251 24.3798 24.2975 24.3015C24.0321 23.8578 24.4396 23.9956 24.0234 23.549C24.2395 23.3561 24.4773 23.5185 24.5715 23.2068C24.6092 23.2474 24.7064 23.5026 24.7774 23.6171H24.776Z" fill="#44873F"/>
<path d="M32.1013 21.9727C32.2333 22.7266 32.2666 23.3965 32.1695 24.1636C31.8403 24.1969 31.3546 24.3085 31.0051 24.3694C30.5571 24.4477 30.0946 24.4245 29.7045 24.7116C29.3739 24.7363 29.0636 24.861 28.7461 24.9175C29.0868 23.8692 29.9496 23.6343 30.8688 23.2399L29.6016 23.6169C29.5233 22.5599 30.9196 22.2626 31.7591 22.0423C31.8519 22.0176 31.9955 22.0133 32.1013 21.9741V21.9727Z" fill="#62AC45"/>
<path d="M32.1012 21.9727C31.9939 22.0133 31.8518 22.0162 31.759 22.0408C31.5328 21.7987 30.1742 22.4613 30.1162 22.3497C30.3076 21.8872 31.3255 20.2777 31.2805 19.8848C31.2704 19.7934 31.021 19.8079 31.0746 19.6455C31.63 19.805 31.9997 21.3869 32.1012 21.9741V21.9727Z" fill="#62AC45"/>
<path d="M28.1311 25.0539C27.4713 25.2163 26.7681 25.4048 26.1461 25.6701L25.0499 24.9176C25.1064 24.79 25.0426 24.5914 25.0499 24.5754C25.0658 24.5421 25.1499 24.4478 25.1862 24.3695C25.3239 24.0752 25.5878 23.7518 25.7343 23.4792C26.6115 23.7373 27.6279 24.2564 28.1311 25.0539Z" fill="#599341"/>
<path d="M27.035 21.9045C26.8262 22.1118 26.6479 22.3627 26.4188 22.5555C26.4333 22.6121 27.2235 22.9079 27.3438 22.9325C27.5947 22.9847 27.7919 22.7803 27.8571 22.8296C28.0137 22.947 28.6387 24.6203 28.5415 24.9175C28.3922 24.9479 28.2573 25.0233 28.1312 25.0538C27.628 24.2563 26.6116 23.7372 25.7344 23.4791C25.8141 23.3298 25.7721 23.0238 25.9055 22.7948C25.9098 22.7875 26.007 22.9412 26.0766 22.8296C26.2158 22.6019 26.1331 22.4352 26.1447 22.4192C26.2056 22.3395 26.6943 22.0422 26.7609 21.803L27.035 21.9059V21.9045Z" fill="#62AC45"/>
<path d="M31.0743 19.6456C31.0206 19.8094 31.2686 19.7934 31.2802 19.8848C31.3266 20.2777 30.3087 21.8872 30.1158 22.3497C30.1738 22.4614 31.5339 21.8002 31.7587 22.0409C30.9206 22.2613 29.5243 22.56 29.6011 23.6156L30.8684 23.2386C29.9491 23.633 29.0864 23.8678 28.7456 24.9162C28.6804 24.9278 28.6035 24.9031 28.5397 24.9162C28.6369 24.6175 28.012 22.9457 27.8554 22.8282C27.7901 22.7789 27.5929 22.9834 27.3421 22.9312C27.2232 22.9065 26.4315 22.6122 26.417 22.5542C26.6461 22.3628 26.8244 22.1119 27.0332 21.9031C27.242 21.6944 27.7495 21.2608 27.9917 21.081C28.3498 20.8142 29.9158 19.8369 30.2855 19.7123C30.5784 19.6122 30.7524 19.5528 31.0728 19.6441L31.0743 19.6456Z" fill="#99CB48"/>
<path d="M28.2673 22.863L29.2257 23.0689C29.2011 23.6474 29.101 23.9316 28.7124 24.4377L28.0962 22.863C28.1063 22.8456 28.2557 22.8775 28.2673 22.863Z" fill="#62AC45"/>
<path d="M29.2255 23.069L28.2671 22.8631C28.3889 22.7079 28.9094 21.996 29.1226 22.1106C29.3024 22.4382 29.2386 22.7485 29.2255 23.069Z" fill="#62AC45"/>
<path d="M25.0482 24.9176L26.1443 25.6701C23.836 26.6517 21.9279 28.6135 20.4619 30.6C20.3242 30.787 20.185 30.9523 20.0516 31.1481C19.3919 30.9059 18.5451 30.5811 18.6132 29.7445C18.6219 29.6474 18.838 29.5415 18.8191 29.2994C18.8133 29.2298 18.6698 29.1268 18.6132 29.0253C19.1454 29.3835 19.5543 28.5135 19.9487 28.4091C20.1285 28.3612 20.6026 28.3467 20.8041 28.3409C20.8592 28.3395 21.0216 28.5178 21.0782 28.3409C21.2928 28.4047 21.4697 28.4395 21.6944 28.4091C21.7524 28.4018 21.8771 28.4366 21.9003 28.3743C21.3899 27.9799 21.1695 27.484 21.2841 26.833C21.387 27.2129 21.7988 28.6933 22.0366 27.6551C22.0236 27.7827 21.967 28.4729 22.0714 28.4772L22.7906 25.122C22.9153 25.0278 23.3242 25.0466 23.4068 24.6421C23.8665 24.9176 24.2898 25.2453 24.7422 25.5324C24.7756 25.5222 25.0134 25.0002 25.0511 24.9161L25.0482 24.9176Z" fill="#44873F"/>
<path d="M16.901 23.137C16.8836 23.3124 16.8865 23.3516 17.0039 23.4792C17.1315 23.6184 18.6061 24.6638 18.5452 24.8146C18.0102 24.8972 17.4317 24.4854 16.7647 24.7464C18.132 24.8204 19.0542 25.2191 19.914 26.2529C19.8922 26.5067 19.3282 26.0978 19.263 26.0818C18.8845 25.989 18.4205 25.9702 18.0305 25.9455C17.9899 25.9426 17.6042 25.7106 17.3113 25.9107C17.9681 26.0209 18.5931 26.25 19.2282 26.424C19.1542 26.6067 19.0252 27.5144 19.0919 27.6217C19.1296 27.684 20.2779 27.9218 20.4954 27.9987C20.6491 28.0523 20.9638 28.3075 21.0769 28.3409C21.0203 28.5178 20.8579 28.3394 20.8028 28.3409L19.1934 27.7928C18.7569 27.9798 19.0571 28.6802 18.5423 28.889C17.6143 27.3651 16.2093 25.8368 16.4196 23.8561C16.4747 23.3429 16.479 23.2573 16.8995 23.137H16.901Z" fill="#99CB48"/>
<path d="M19.6399 23.0007C19.1875 23.3226 19.4123 23.92 19.7081 24.268C19.3253 23.9925 19.5964 25.5904 19.6399 25.7064C19.7298 25.9442 20.81 26.9678 21.0435 27.2477C21.0812 27.2172 21.0174 26.4096 21.0087 26.2893C20.984 25.9558 20.9014 25.5976 20.8724 25.2627C20.8332 24.8103 20.7375 24.2608 20.8724 23.8243C20.8912 24.6711 21.0623 26.0225 21.2827 26.8373C21.1682 27.4884 21.3886 27.9843 21.899 28.3787C21.8758 28.441 21.7525 28.4048 21.6931 28.4135C21.1595 27.8958 20.868 27.123 20.1184 26.8721C20.8738 26.5894 19.4543 26.4894 19.2281 26.427C18.5931 26.2516 17.9681 26.0225 17.3113 25.9137C17.6042 25.7136 17.9899 25.9456 18.0305 25.9485C18.4205 25.9746 18.8845 25.992 19.2629 26.0848C19.3282 26.1008 19.8908 26.5097 19.914 26.2559C19.0541 25.2235 18.1305 24.8233 16.7646 24.7494C17.4316 24.4884 18.0087 24.9016 18.5452 24.8175C18.6061 24.6667 17.1329 23.6213 17.0039 23.4821C16.8864 23.3545 16.8835 23.3154 16.9009 23.1399C17.5853 22.9427 18.9294 22.9094 19.6399 23.0036V23.0007Z" fill="#85C351"/>
<path d="M20.1185 23.0007C20.2998 23.3008 20.6434 23.3037 20.9407 23.411C20.8479 23.5415 20.8682 23.6735 20.8725 23.8214C20.7377 24.2578 20.8334 24.8059 20.8725 25.2597C20.51 25.5178 20.365 24.6189 19.9822 24.4724L19.7763 24.5406L21.0088 26.2863C21.0175 26.4067 21.0798 27.2143 21.0436 27.2447C20.8102 26.9664 19.7299 25.9427 19.64 25.7034C19.5965 25.5874 19.3254 23.9896 19.7082 24.2651C19.4124 23.9185 19.1876 23.3197 19.64 22.9978C19.83 23.0225 20.1533 23.253 20.12 22.9978L20.1185 23.0007Z" fill="#62AC45"/>
<path d="M20.8045 28.3411C20.6029 28.3469 20.1288 28.3628 19.949 28.4092C19.5546 28.5136 19.1471 29.3836 18.6136 29.0254C18.5904 28.9848 18.5686 28.9283 18.5454 28.8891C19.0587 28.6803 18.76 27.9815 19.1964 27.793L20.8059 28.3411H20.8045Z" fill="#62AC45"/>
<path d="M21.899 23.8215C22.4761 24.0955 22.8632 24.3188 23.4055 24.6436C23.3229 25.0482 22.914 25.0293 22.7893 25.1236C22.7733 25.1366 22.7081 25.0931 22.653 25.1584C22.5689 25.2555 22.0629 27.4145 22.0368 27.6581C21.7975 28.6963 21.3872 27.2173 21.2842 26.836C21.0624 26.0211 20.8927 24.6697 20.8739 23.8229C20.871 23.675 20.8492 23.5431 20.942 23.4126C21.2364 23.5199 21.6148 23.6881 21.9005 23.8229L21.899 23.8215Z" fill="#599341"/>
<path d="M21.6944 28.4091C21.4697 28.4395 21.2928 28.4047 21.0782 28.3409C20.9651 28.3076 20.6505 28.0524 20.4968 27.9987C20.2793 27.9233 19.1309 27.6841 19.0932 27.6217C19.0279 27.513 19.1555 26.6053 19.2295 26.4241C19.4557 26.4864 20.8752 26.5865 20.1198 26.8692C20.8694 27.1201 21.1608 27.8914 21.6944 28.4105V28.4091Z" fill="#62AC45"/>
<path d="M22.7893 25.1235L22.0701 28.4787C21.9657 28.4744 22.0223 27.7842 22.0353 27.6566C22.0614 27.413 22.5674 25.254 22.6515 25.1569C22.7066 25.0931 22.7719 25.1351 22.7878 25.1221L22.7893 25.1235Z" fill="#84AC47"/>
<path d="M20.8725 25.2597C20.9015 25.5947 20.9856 25.9528 21.0088 26.2863L19.7764 24.5406L19.9823 24.4724C20.3651 24.6189 20.51 25.5178 20.8725 25.2597Z" fill="#62AC45"/>
<path d="M42.3727 25.6703C42.4945 26.3011 43.1803 26.8187 43.537 27.4161C44.4012 28.8646 44.6506 30.3668 44.6332 32.0386C44.623 32.9927 44.5897 34.0004 44.0851 34.8457C43.9242 34.6862 43.3906 34.2715 43.1948 34.1613C42.9077 33.9989 42.6583 33.938 42.3727 33.8191C43.0832 31.6427 42.7569 29.0183 41.4824 27.1087C41.9435 26.5722 41.6405 25.8574 41.5506 25.26C41.8333 25.3746 42.1016 25.5355 42.3727 25.6703Z" fill="url(#paint3_linear_345_22106)"/>
<path d="M35.1144 24.0956C37.3618 25.3615 38.7988 26.2764 39.7702 28.7515C38.9742 29.1459 38.6538 30.0854 38.0578 30.6002C37.8447 26.6563 35.6233 25.8254 32.5117 24.1638C33.3759 24.0898 34.243 24.0739 35.113 24.0956H35.1144Z" fill="#F79229"/>
<path d="M45.5905 27.9309C45.605 29.2083 45.647 30.4857 45.6586 31.7646C45.3904 32.0444 45.0149 32.0328 44.6321 32.0386C44.6495 30.3683 44.4015 28.8661 43.5359 27.4162C43.1792 26.8188 42.4948 26.3011 42.3716 25.6704C43.7882 26.3736 44.3986 27.0638 45.589 27.9295L45.5905 27.9309Z" fill="#CE4727"/>
<path d="M47.0968 28.8893C46.7503 29.0648 46.7416 31.5718 46.5488 32.0387C46.4342 32.2199 46.3081 32.462 46.2066 32.6549L45.6585 33.3059C45.6599 32.7912 45.6628 32.2764 45.6585 31.7646C45.6469 30.4843 45.6048 29.2083 45.5903 27.9309C46.0529 28.2673 46.5952 28.6138 47.0968 28.8893Z" fill="#CE4727"/>
<path d="M41.5507 25.2599C41.6406 25.8573 41.9436 26.5721 41.4825 27.1086C41.3549 26.9186 41.207 26.7896 41.0722 26.6286C40.9823 26.5228 41.004 26.4285 40.9359 26.3546C41.0997 26.0951 40.8155 25.6992 40.627 25.5325C40.5763 25.4875 39.5787 24.9003 39.7716 25.3962C39.5164 25.1917 39.2409 25.0395 38.9842 24.8481C38.89 24.7785 38.5884 24.5914 38.745 24.4377C39.6599 24.6161 40.6894 24.9104 41.5521 25.2599H41.5507Z" fill="#F15F27"/>
<path d="M47.0969 28.8892C47.226 28.9602 46.9302 28.982 47.371 28.9573C47.4159 28.9544 47.4623 28.9573 47.5073 28.9573C47.6914 29.3067 47.7335 29.7678 47.7132 30.1898C47.7088 30.2782 47.7291 30.387 47.7132 30.4638C47.6436 30.8046 46.7968 31.6484 46.5488 32.0385C46.7417 31.5716 46.7489 29.0632 47.0969 28.8892Z" fill="#B63D26"/>
<path d="M32.513 24.1638C35.6247 25.824 37.846 26.6563 38.0591 30.6002C38.0707 30.8089 37.9953 31.1149 38.1273 31.2845C38.0881 31.3483 38.0432 31.4063 38.0591 31.4904C37.8286 30.5915 37.9069 29.6113 37.6488 28.7167C37.034 26.5896 34.8417 25.6094 33.0611 24.6423C32.8059 24.5045 32.5072 24.3842 32.3086 24.1623C32.3753 24.1565 32.4463 24.1681 32.5145 24.1623L32.513 24.1638Z" fill="#FED567"/>
<path d="M38.3333 24.4379C38.4943 24.6539 38.7379 24.8265 38.9496 24.986L36.4846 24.7119C36.1149 24.4944 35.6582 24.3755 35.3203 24.0957C36.4092 24.1363 37.272 24.2595 38.3333 24.4379Z" fill="#F15F27"/>
<path d="M35.3202 24.0956C35.6566 24.3755 36.1133 24.4944 36.4845 24.7119C38.1099 25.6674 39.1742 26.7708 39.8397 28.5456C39.9151 28.7471 39.9832 28.9907 40.1137 29.1618C40.1021 29.1806 40.1195 29.256 40.1137 29.2981C40.1036 29.2647 39.8876 29.0473 39.7716 28.75C38.8001 26.2735 37.3632 25.36 35.1157 24.0942C35.1795 24.0956 35.223 24.0898 35.3216 24.0942L35.3202 24.0956Z" fill="#FED386"/>
<path d="M32.1711 24.1639C32.2161 24.1595 32.2639 24.1682 32.3074 24.1639C32.5061 24.3857 32.8062 24.5046 33.06 24.6438L32.4437 24.8149L33.06 25.3282C32.6482 25.0947 32.0653 24.8555 31.6216 24.7801C31.7913 24.5379 31.0938 24.6249 31.0054 24.3697C31.3548 24.3088 31.8391 24.1972 32.1697 24.1639H32.1711Z" fill="#F79229"/>
<path d="M38.7433 24.4379C38.5868 24.5916 38.8898 24.7787 38.9826 24.8483C39.2392 25.0397 39.5147 25.1919 39.7699 25.3964C40.0773 25.6429 40.695 26.0982 40.9342 26.3548C41.0038 26.4287 40.9806 26.523 41.0705 26.6288L41.0024 26.697C40.9922 26.6854 40.9429 26.7086 40.9342 26.697C40.305 25.9706 39.7003 25.553 38.9492 24.9846C38.7375 24.8251 38.494 24.6525 38.333 24.4365C38.3649 24.4423 38.594 24.4075 38.7433 24.4365V24.4379Z" fill="#FCBE7A"/>
<path d="M47.3707 28.9574C46.9314 28.982 47.2257 28.9603 47.0967 28.8892C47.1257 28.8747 47.3722 28.8588 47.3707 28.9574Z" fill="#CE4727"/>
<path d="M35.3886 38.749C35.4466 39.4493 35.7525 40.2686 35.5249 40.8717C35.5176 40.8732 35.5495 40.9935 35.4901 41.008C34.9043 41.1545 33.9981 41.2661 33.4703 41.488C33.3601 41.5344 33.247 41.5503 33.1281 41.6243C33.2368 41.3836 33.0368 41.2661 32.9918 41.008C32.8918 40.4295 32.8541 39.6842 32.8555 39.0912C32.8555 38.4619 32.8918 37.85 33.0614 37.2425C33.1499 37.0409 33.3615 36.793 33.2673 36.5581C33.8777 35.8143 34.5853 35.14 35.39 34.6064C35.2494 35.9042 35.0653 37.2106 35.1841 38.5097C35.2015 38.6968 35.1175 38.7809 35.39 38.749H35.3886Z" fill="#B63D26"/>
<path d="M19.1604 33.545C18.7834 34.2859 18.3731 35.1095 18.2701 35.9418C18.0149 35.9867 17.767 36.0897 17.5176 36.1477C17.722 35.3284 18.0947 34.5019 18.476 33.7509C18.521 33.6624 18.5674 33.5624 18.6123 33.4768C19.0096 32.7199 19.5635 31.8572 20.0507 31.1482C20.1855 30.9524 20.3233 30.7871 20.461 30.6001L19.1604 33.545Z" fill="#F1D2B1"/>
<path d="M45.6601 31.7644C45.6645 32.2748 45.6616 32.791 45.6601 33.3057L46.2082 32.6547C45.7094 33.6015 45.4818 34.2525 45.3861 35.3255C45.3672 35.5358 45.2512 35.443 45.2498 35.4966C45.2483 35.5474 45.3875 35.514 45.3861 35.5648C45.3817 35.9185 45.3991 36.2767 45.3861 36.6261C45.2063 36.2448 44.5262 35.4633 44.2217 35.1196C44.2116 35.108 44.1666 34.9268 44.0854 34.8456C44.59 34.0002 44.6234 32.9925 44.6335 32.0384C45.0163 32.0326 45.3919 32.0442 45.6601 31.7644Z" fill="#B63D26"/>
<path d="M41.4824 27.1086C42.7569 29.0182 43.0831 31.6426 42.3727 33.819C42.2799 33.7799 42.3089 33.7523 42.3045 33.7509C42.8395 31.6049 42.6757 29.2807 41.4824 27.3827C41.3504 27.1739 41.159 26.8824 41.0024 26.6983L41.0706 26.6301C41.2054 26.7896 41.3548 26.9187 41.4809 27.1101L41.4824 27.1086Z" fill="#E37951"/>
<path d="M29.7057 24.712C30.3089 24.6685 31.0252 24.6801 31.6226 24.7801C32.0648 24.8541 32.6477 25.0933 33.061 25.3282C33.8396 25.7705 35.1214 26.9594 35.594 27.725C35.5099 27.7975 35.3127 28.0237 35.2518 28.0672C34.9691 28.2644 34.9488 28.2267 34.6356 28.5471C34.5327 28.6515 33.8468 29.3867 33.8135 29.4374C33.7453 25.6632 28.1601 26.0445 25.6647 26.9725C22.8155 28.0324 20.4999 30.9062 19.1602 33.5452L20.4608 30.6003C21.9267 28.6138 23.8363 26.652 26.1432 25.6704C26.7667 25.4051 27.4684 25.2166 28.1282 25.0542C28.2558 25.0223 28.3892 24.9469 28.5385 24.9179C28.6023 24.9048 28.6792 24.9295 28.7444 24.9179C29.062 24.8613 29.3722 24.7366 29.7028 24.712H29.7057Z" fill="#FFF3CB"/>
<path d="M39.7704 28.7515C39.8864 29.0487 40.1024 29.2662 40.1126 29.2996C40.4925 30.5842 40.2895 32.227 40.1807 33.545C40.1517 33.5653 40.0865 33.6784 39.9748 33.7509L40.043 29.6084L39.9067 29.5402C39.6747 30.0941 38.3407 30.9279 38.1261 31.286C37.9942 31.1164 38.0696 30.809 38.058 30.6016C38.6539 30.0869 38.9743 29.1473 39.7704 28.7529V28.7515Z" fill="#F15F27"/>
<path d="M31.0067 24.3696C31.0951 24.6263 31.7926 24.5378 31.6229 24.78C31.0255 24.6799 30.3092 24.6669 29.7061 24.7118C30.0961 24.4247 30.5586 24.4465 31.0067 24.3696Z" fill="#A94724"/>
<path d="M40.9343 26.3562C40.6965 26.0981 40.0774 25.6442 39.77 25.3977C39.5786 24.9019 40.5761 25.4905 40.6254 25.534C40.8125 25.6993 41.0967 26.0966 40.9343 26.3562Z" fill="#F47729"/>
<path d="M38.0591 31.4905L37.4428 35.5301C37.395 35.5867 37.35 35.6737 37.3065 35.736L37.888 31.6283L35.526 34.3673C35.5709 33.3972 35.5927 32.4315 35.526 31.4572C35.4042 31.4528 35.3186 31.6703 35.2519 31.766H35.046C35.555 31.1759 36.0161 30.2349 36.0726 29.4374C36.1292 28.6399 35.9871 28.363 35.5927 27.725C35.12 26.9608 33.8368 25.7704 33.0596 25.3282L32.4434 24.8149L33.0596 24.6438C34.8401 25.6109 37.0325 26.5896 37.6473 28.7182C37.9054 29.6128 37.8271 30.593 38.0576 31.492L38.0591 31.4905Z" fill="#E77C24"/>
<path d="M39.976 33.751C39.1205 34.3049 38.1157 34.7312 37.4429 35.5315L38.0591 31.4919C38.0432 31.4078 38.0896 31.3513 38.1273 31.286C38.3418 30.9279 39.6758 30.0942 39.9078 29.5403L40.0441 29.6084L39.976 33.751Z" fill="#CE4727"/>
<path d="M38.9493 24.986C39.7018 25.5544 40.305 25.9719 40.9343 26.6984C40.6429 27.3697 40.3616 28.028 39.8381 28.5471C39.1726 26.7709 38.1083 25.6675 36.4829 24.7134L38.9478 24.9874L38.9493 24.986Z" fill="#F79229"/>
<path d="M42.3048 33.751C42.2062 33.7119 41.9249 33.7902 41.8249 33.751C41.5175 33.6293 41.429 33.274 41.1739 33.0667C41.097 33.0029 41.0767 33.1377 41.0709 33.1348C40.8984 33.0449 41.1782 32.9333 40.968 32.9289C40.8824 32.9449 40.5504 33.406 40.4547 33.477C40.4344 33.4915 40.2038 33.5292 40.1806 33.5452C40.2894 32.2271 40.4924 30.5843 40.1125 29.2997C40.1183 29.2576 40.1009 29.1822 40.1125 29.1634C40.475 28.5326 41.0622 27.9802 41.4812 27.3828C42.6746 29.2808 42.837 31.6037 42.3034 33.751H42.3048Z" fill="#CE4727"/>
<path d="M41.0027 26.6984C41.1579 26.884 41.3507 27.174 41.4827 27.3828C41.0622 27.9802 40.4764 28.5326 40.1139 29.1634C39.9848 28.9923 39.9152 28.7487 39.8398 28.5471C40.3618 28.028 40.6446 27.3697 40.936 26.6984C40.9462 26.71 40.9955 26.6868 41.0042 26.6984H41.0027Z" fill="#F15F27"/>
<path d="M37.3054 35.7359C36.4616 36.8901 36.2818 37.6876 36.5529 39.0911C36.6254 39.4652 36.8589 40.1162 37.0329 40.4599C37.0546 40.5034 37.0778 40.5541 37.101 40.5962C36.6646 40.6382 36.2484 40.8369 35.8337 40.9384C35.6742 40.9775 35.551 40.863 35.5249 40.8702C35.7511 40.267 35.4451 39.4478 35.3886 38.7475C35.2537 37.1047 35.4524 35.9577 35.5249 34.3657L37.8869 31.6267L37.3054 35.7345V35.7359Z" fill="#CE4727"/>
<path d="M35.5261 34.3672C35.4522 35.9592 35.2535 37.1076 35.3898 38.7489C35.1172 38.7808 35.2013 38.6967 35.1839 38.5097C35.065 37.2105 35.2477 35.9056 35.3898 34.6064C34.5851 35.14 33.8775 35.8142 33.2671 36.558C32.587 37.386 31.6083 38.9664 31.6243 40.0496C31.5416 40.1134 31.43 40.0496 31.4184 40.0496L31.7272 37.7905C31.6475 37.7992 31.5576 37.7601 31.488 37.8253C31.3589 37.9442 30.8123 39.4638 30.5295 39.7088C30.2772 39.5682 30.0394 39.3289 29.9814 39.2985L30.8717 37.9297C31.5213 37.5078 33.4179 34.6165 33.9529 33.822C34.398 33.1608 34.8113 32.3981 35.2535 31.7674C35.3202 31.6717 35.4058 31.4556 35.5276 31.4585C35.5943 32.4329 35.5725 33.3986 35.5276 34.3686L35.5261 34.3672Z" fill="#F15F27"/>
<path d="M33.0613 37.2425C32.9554 37.4832 32.7916 37.6731 32.7191 38.098C32.7002 38.2125 32.5741 39.1666 32.8554 39.0912C32.8554 39.6857 32.8916 40.4295 32.9917 41.0081C32.9003 40.9167 32.7698 40.9631 32.7176 40.9399C32.619 40.895 32.242 40.547 32.1362 40.5977C32.1043 40.6122 31.9955 41.0313 31.794 41.214C31.3909 41.5793 30.1019 42.0941 29.5349 42.0361C29.4871 41.9621 29.822 41.6388 29.8438 41.6257C30.2251 41.3807 31.5141 41.3546 31.4184 40.7703C31.6156 40.5354 31.5141 40.8399 31.5895 40.8732C31.6069 40.8805 31.8273 40.5847 31.8288 40.5644C31.8433 40.3425 31.6287 40.4556 31.6229 40.0511C31.6069 38.968 32.5871 37.386 33.2657 36.5596C33.3614 36.7945 33.1483 37.0424 33.0598 37.244L33.0613 37.2425Z" fill="#B63D26"/>
<path d="M33.061 37.2424C32.8914 37.85 32.8566 38.4619 32.8551 39.0911C32.5738 39.1665 32.6985 38.2125 32.7188 38.0979C32.7913 37.6716 32.9552 37.4831 33.061 37.2424Z" fill="#CE4727"/>
<path d="M36.0729 29.4373L35.1826 31.0467C33.1904 33.2811 30.7138 35.0457 27.9241 36.1477C27.1948 36.3826 26.5031 36.6045 25.7332 36.6958C25.3229 36.7451 24.9705 36.7379 24.5689 36.764C23.4901 36.835 22.3316 36.5914 21.3166 37.038C21.6356 37.0061 21.9227 37.1148 22.2417 37.1061C22.7434 37.167 23.248 37.241 23.7482 37.312C24.4079 37.4048 25.2533 37.6006 25.9058 37.5861C27.5819 37.5469 29.9961 35.7606 31.3489 34.8471C32.8815 33.8133 33.7892 33.2246 35.0463 31.7659H35.2522C34.81 32.3967 34.3953 33.1593 33.9516 33.8205C33.4891 33.9467 33.1904 34.5905 32.8554 34.95C32.3885 35.4517 31.2431 36.5581 30.6979 36.9017C29.7641 37.4904 28.6157 37.5614 27.6515 38.066C27.5413 38.0327 27.4282 37.9906 27.3093 37.9979C26.8279 38.0225 26.8337 38.3778 26.6931 38.7504C26.6916 38.7548 26.6525 38.7243 26.6249 38.8186L24.2281 38.7504C24.0266 38.5648 23.7352 38.43 23.4756 38.3401C23.2451 38.2603 22.8101 38.1313 22.5853 38.1342C21.9227 38.1429 21.4979 38.3604 21.0788 38.8186C20.8077 39.1143 20.7062 39.2086 20.5989 39.6407C20.5771 39.7262 20.5351 39.9046 20.5307 39.9829L19.4346 39.8466C20.1436 39.0157 20.6192 37.357 20.119 36.3551C20.7294 36.2246 21.3079 35.9955 21.8995 35.807C22.9942 35.7664 24.2049 35.8737 25.2895 35.7388C27.6501 35.443 31.6781 32.9578 33.4035 31.2889C34.0705 30.6437 34.4025 30.4827 34.8419 29.5765C35.0855 29.0733 35.3465 28.6935 35.2522 28.07C35.3146 28.0265 35.5103 27.7988 35.5944 27.7278C35.9888 28.3658 36.1309 28.6398 36.0743 29.4402L36.0729 29.4373Z" fill="#F3A95A"/>
<path d="M33.95 33.8191C33.415 34.6137 31.5184 37.5049 30.8688 37.9268C30.4034 38.2299 29.3841 38.3314 28.8838 38.6794C28.807 38.6388 28.6489 38.5953 28.5416 38.5431C28.4503 38.4981 28.3604 38.4488 28.2676 38.4068C28.1052 38.3328 27.7558 38.0965 27.6514 38.0646C28.6156 37.56 29.7654 37.4904 30.6977 36.9003C31.2415 36.5566 32.3884 35.4503 32.8553 34.9486C33.1888 34.589 33.4875 33.9452 33.9515 33.8191H33.95Z" fill="#FCEA7C"/>
<path d="M26.4868 39.7073C26.4868 40.0756 26.5796 40.5222 26.6927 40.8716L24.844 40.6658C24.8817 40.3743 24.8527 39.8581 24.7759 39.5696L26.4883 39.7059L26.4868 39.7073Z" fill="#FCBE7A"/>
<path d="M26.6248 38.8172C26.5451 39.0854 26.4871 39.4247 26.4885 39.7074L24.7761 39.5712C24.7529 39.4871 24.6485 39.387 24.6398 39.3653C24.5441 39.1492 24.402 38.9085 24.2295 38.749L26.6263 38.8172H26.6248Z" fill="#FCEA7C"/>
<path d="M19.5721 35.8041C19.4547 35.7751 19.1038 35.7969 18.9559 35.8041C18.7369 35.8143 18.489 35.9027 18.2715 35.9404C18.3744 35.1081 18.7848 34.2846 19.1618 33.5436C20.5015 30.9047 22.8171 28.0309 25.6663 26.9709C25.949 27.4378 25.5401 27.2943 25.2893 27.4509C23.6885 28.4456 22.3227 29.8129 21.2831 31.3875C20.4711 32.6186 19.5214 34.3295 19.5707 35.8041H19.5721Z" fill="#FBBA57"/>
<path d="M34.8401 29.5737C34.4022 30.4799 34.0688 30.6394 33.4018 31.2861C33.3365 30.87 33.4061 30.4451 33.5381 30.0536C33.5932 29.8898 33.7222 29.578 33.8121 29.4374C33.8455 29.3866 34.5313 28.6515 34.6342 28.5471L34.8401 29.5737Z" fill="#FDEEB0"/>
<path d="M35.252 28.0671C35.3462 28.6906 35.0852 29.0705 34.8416 29.5737L34.6357 28.5471C34.9489 28.2281 34.9692 28.2643 35.252 28.0671Z" fill="#FED386"/>
<path d="M36.0726 29.4373C36.0161 30.2347 35.555 31.1743 35.046 31.7659C33.7889 33.2246 32.8813 33.8132 31.3486 34.8471C30.5222 34.834 29.6348 35.5778 28.8489 35.8736C28.5444 35.9882 28.2269 36.0505 27.9238 36.1477C30.7121 35.0457 33.1901 33.2797 35.1823 31.0467L36.0726 29.4373Z" fill="#FDEEB0"/>
<path d="M31.4171 40.0495C31.3504 40.0495 31.2779 40.0263 31.2808 40.1176C31.1953 40.064 31.0952 40.0292 31.0068 39.9813C30.8458 39.8929 30.6864 39.7957 30.5269 39.7073C30.8096 39.4623 31.3577 37.9427 31.4853 37.8238C31.5549 37.7585 31.6448 37.7977 31.7245 37.789L31.4157 40.048L31.4171 40.0495Z" fill="#CE4727"/>
<path d="M30.8688 37.9268L29.9785 39.2955C29.9538 39.2825 29.8712 39.3086 29.8422 39.2955C29.7712 39.1041 29.5 39.0911 29.3623 39.0215C29.21 38.9432 28.9563 38.7184 28.8823 38.6793C29.384 38.3313 30.4033 38.2284 30.8673 37.9268H30.8688Z" fill="#FED567"/>
<path d="M33.4034 31.2859C31.678 32.9563 27.65 35.4415 25.2894 35.7359C24.2063 35.8707 22.9941 35.7634 21.8994 35.804C24.3716 35.0138 27.766 34.5324 29.9453 33.2028C31.2343 32.4155 32.4885 31.1351 33.5397 30.0535C33.4078 30.445 33.3367 30.8698 33.4034 31.2859Z" fill="#FFF3CB"/>
<path d="M31.3488 34.8456C29.9945 35.7591 27.5817 37.5455 25.9056 37.5846C25.2546 37.5991 24.4078 37.4034 23.748 37.3106C23.909 36.9843 24.4861 37.1105 24.8094 37.0365L25.7345 36.6943C26.5044 36.603 27.1961 36.3811 27.9254 36.1462C28.2284 36.0491 28.5445 35.9882 28.8505 35.8722C29.6349 35.575 30.5223 34.8326 31.3502 34.8456H31.3488Z" fill="#FCEA7C"/>
<path d="M24.5701 36.7625C24.0119 36.9858 22.8882 37.0888 22.2415 37.1047C21.9239 37.112 21.6368 37.0047 21.3164 37.0366C22.3314 36.59 23.4899 36.835 24.5687 36.7625H24.5701Z" fill="#FDEEB0"/>
<path d="M25.7347 36.6943L24.8096 37.0365C24.4862 37.1105 23.9092 36.9843 23.7482 37.3106C23.248 37.241 22.7434 37.167 22.2417 37.1047C22.8884 37.0887 24.0121 36.9858 24.5703 36.7625C24.972 36.7364 25.3243 36.7422 25.7347 36.6943Z" fill="#FDEEB0"/>
<path d="M33.8138 29.4374C33.7239 29.578 33.5949 29.8898 33.5398 30.0536C32.4885 31.1353 31.2343 32.4171 29.9453 33.2029C27.766 34.5326 24.3731 35.0154 21.8995 35.8042C21.3093 35.9927 20.7293 36.2203 20.1189 36.3523C19.9986 36.1116 19.9406 36.0623 19.7086 35.9419C19.6984 35.9361 19.581 35.8071 19.5723 35.8056C19.5215 34.331 20.4712 32.6201 21.2847 31.389C22.3243 29.8144 23.6887 28.4471 25.2909 27.4524C25.5403 27.2972 25.9492 27.4393 25.6679 26.9725C28.1618 26.0445 33.7471 25.6631 33.8167 29.4374H33.8138Z" fill="#FCBE7A"/>
<path d="M31.1429 29.7115C30.75 30.0523 30.3643 30.3887 29.9786 30.7381C29.9554 30.4916 30.2352 29.2127 29.8075 29.2997L29.4987 29.5738C29.5393 29.4897 29.7771 29.22 29.6016 29.1634C27.8167 29.091 26.1043 29.9522 25.185 31.4921C25.0415 31.7328 24.8472 31.9343 24.9458 32.2446C25.4475 32.2504 25.955 32.2533 26.4523 32.1765C26.9496 32.0996 27.6616 31.8256 28.1647 31.7661C28.2937 31.7516 28.9216 31.6095 28.8157 31.9024C28.8114 31.9053 28.8346 31.9256 28.7476 31.9706C27.4658 31.9532 26.3203 32.5303 25.1531 32.929C25.027 32.9725 24.4586 32.8928 24.4339 33.2712C23.8351 33.4495 23.1203 33.4988 22.5171 33.8193C22.8303 33.0378 23.1783 32.2809 23.6133 31.5602C24.8849 29.4462 28.5127 26.5753 30.9733 28.3428C31.6417 28.8227 31.1705 29.0968 31.1444 29.7115H31.1429Z" fill="#FCBE7A"/>
<path d="M31.1431 29.7115C31.1692 29.0967 31.6405 28.8212 30.972 28.3427C28.51 26.5752 24.8836 29.4461 23.612 31.5602C23.048 31.8574 22.716 32.7274 22.4477 33.3059C22.3709 33.4727 22.4057 33.87 22.3796 33.9222C22.3375 34.0019 21.4211 34.4035 21.353 34.6413C21.2239 34.6689 20.9281 34.9139 20.873 34.8124C21.4095 31.3572 24.5038 27.8961 28.0968 27.5887C29.2959 27.4858 31.7362 27.5771 32.3075 28.7864C31.958 29.1445 31.5187 29.3852 31.1431 29.7115Z" fill="#FDEEB0"/>
<path d="M29.9805 30.738C29.5557 31.1237 29.4034 31.5631 28.8162 31.9023C28.9235 31.608 28.2942 31.7501 28.1651 31.7661C27.6635 31.8255 26.9588 32.0995 26.4527 32.1764C25.9467 32.2532 25.4479 32.2503 24.9462 32.2445C24.8491 31.9342 25.0419 31.7313 25.1855 31.492C26.9225 30.6887 28.5204 31.6182 29.4991 29.5752L29.8079 29.3011C30.2357 29.2141 29.9558 30.4915 29.979 30.7395L29.9805 30.738Z" fill="#FED386"/>
<path d="M23.6121 31.5601C23.1785 32.2821 22.8291 33.0376 22.5159 33.8191C22.4216 34.0554 22.5043 34.3135 22.3448 34.4353C22.2984 34.4701 21.5053 34.6079 21.3516 34.6412C21.4212 34.4034 22.3375 34.0018 22.3781 33.922C22.4057 33.8698 22.3694 33.4726 22.4463 33.3058C22.7145 32.7258 23.0451 31.8573 23.6106 31.5601H23.6121Z" fill="#FCEA7C"/>
<path d="M28.7477 31.9706C27.9299 32.3882 25.4853 32.9595 24.4341 33.2712C24.4587 32.8928 25.0271 32.9725 25.1533 32.929C26.3205 32.5303 27.4674 31.9532 28.7477 31.9706Z" fill="#FDEEB0"/>
<path d="M30.6982 31.4224C30.9157 31.4499 30.7562 31.5311 30.733 31.5935C30.604 31.9197 29.9356 32.491 29.6035 32.6548L30.6997 31.4224H30.6982Z" fill="#F3A95A"/>
<path d="M29.5002 29.5738C28.5214 31.6168 26.9236 30.6874 25.1865 31.4907C26.1058 29.9523 27.8182 29.091 29.6031 29.162C29.7786 29.2186 29.5408 29.4883 29.5002 29.5724V29.5738Z" fill="#FDEEB0"/>
</g>
</g>
<defs>
<filter id="filter0_i_345_22106" x="0" y="0" width="70" height="70" filterUnits="userSpaceOnUse" color-interpolation-filters="sRGB">
<feFlood flood-opacity="0" result="BackgroundImageFix"/>
<feBlend mode="normal" in="SourceGraphic" in2="BackgroundImageFix" result="shape"/>
<feColorMatrix in="SourceAlpha" type="matrix" values="0 0 0 0 0 0 0 0 0 0 0 0 0 0 0 0 0 0 127 0" result="hardAlpha"/>
<feMorphology radius="3" operator="erode" in="SourceAlpha" result="effect1_innerShadow_345_22106"/>
<feOffset/>
<feGaussianBlur stdDeviation="1"/>
<feComposite in2="hardAlpha" operator="arithmetic" k2="-1" k3="1"/>
<feColorMatrix type="matrix" values="0 0 0 0 0 0 0 0 0 0 0 0 0 0 0 0 0 0 0.08 0"/>
<feBlend mode="normal" in2="shape" result="effect1_innerShadow_345_22106"/>
</filter>
<linearGradient id="paint0_linear_345_22106" x1="13.2011" y1="41.9634" x2="36.763" y2="48.2099" gradientUnits="userSpaceOnUse">
<stop stop-color="#FBDFD1"/>
<stop offset="1" stop-color="#D1C1A5"/>
</linearGradient>
<linearGradient id="paint1_linear_345_22106" x1="60.061" y1="44.1181" x2="38.0824" y2="47.1311" gradientUnits="userSpaceOnUse">
<stop stop-color="#C4A67A"/>
<stop offset="0.85" stop-color="#A68063"/>
</linearGradient>
<linearGradient id="paint2_linear_345_22106" x1="35.3857" y1="47.1557" x2="48.737" y2="47.2427" gradientUnits="userSpaceOnUse">
<stop stop-color="#C19C81"/>
<stop offset="1" stop-color="#A88D6B"/>
</linearGradient>
<linearGradient id="paint3_linear_345_22106" x1="42.4089" y1="28.2658" x2="43.8604" y2="33.3334" gradientUnits="userSpaceOnUse">
<stop stop-color="#D84D27"/>
<stop offset="1" stop-color="#B63C26"/>
</linearGradient>
<clipPath id="clip0_345_22106">
<rect width="55" height="33.3346" fill="white" transform="translate(8 18)"/>
</clipPath>
</defs>
</svg>
