<svg xmlns="http://www.w3.org/2000/svg" width="70" height="70" fill="none"><g filter="url(#a)"><path fill="#fff" fill-opacity=".75" d="M0 35C0 15.67 15.67 0 35 0s35 15.67 35 35-15.67 35-35 35S0 54.33 0 35"/><path fill="#906B6D" d="M45.405 39.409c-.2.025-.651.045-.67.238a2 2 0 0 0-.366 0c.023-.258.277-.6.304-.834-.024.231.174.002.245-.118.076.117.434.65.488.715z"/><path fill="#BE9A99" d="M45.405 39.409c.073.087.46.464.549.536l-.489.118c-.018-.021-.15-.09-.183-.118-.208-.173-.247-.259-.55-.298.022-.193.472-.213.671-.238z"/><path fill="#906B6D" d="M46.503 40.303c-.04-.006-.664.176-.794.18a7 7 0 0 0-.244-.418l.489-.119c.157.126.37.258.549.357"/><path fill="#A9857C" d="M44.917 38.695c-.071.12-.269.35-.245.118.023-.19-.028-.516-.06-.715.148.17.18.408.305.596"/><path fill="#E77C24" d="M54.189 33.809c.288.48.565 1.235.61 1.787.015.18.009.413 0 .596-.025.478-.163 1.033-.305 1.49-.159.045-.093-.194-.244-.09-.062.043-.57 1.091-.733 1.31-1.684 2.269-4.518 2.807-7.015 1.4-.179-.1-.392-.23-.55-.356a9 9 0 0 1-.548-.536 21 21 0 0 1-.489-.716c-.124-.189-.157-.426-.305-.595-.03-.18-.22-.718-.304-.893.011-.304-.004-.616 0-.923 0-.045-.124-.017-.122-.06.001-.046.106.034.122-.149l.244.06c.053.26.18.22.183.238.42 2.012 1.239 3.44 3.447 3.991 5.953 1.485 8.472-6.37 3.233-8.756l-1.739-.418c1.736.025 3.633 1.154 4.514 2.621z"/><path fill="#FBBA57" d="M48.15 32.498c.25.546.692 1.747.854 2.324-.403-.042-.151.384-.305.595-.305-.014-1.683-.696-1.952-.893.057-.25.435-.429.488-.685.03-.142-.138-.272-.121-.357.043-.224.462-.48.06-1.013l.977.03z"/><path fill="#FED386" d="m48.15 32.498-.977-.03c.402.534-.018.788-.06 1.013-.017.085.15.215.121.357-.053.256-.43.434-.488.685-.392-.286-.574-.541-.489-1.042-.103-.145-.169-.055-.304-.03-.035-.306.014-.496.12-.775.454.03 1.396-.81 1.8-.654.136.051.225.368.276.476"/><path fill="#FBBA57" d="M48.15 35.358c-.176.127-.832-.083-.945-.06-.232.05-.03.369-.184.418-.349.111-1.072-.19-1.25.357-.259-.272-.28-.985-.122-1.31.328.1.74-.204 1.007-.18.084.008 1.244.669 1.494.775"/><path fill="#F9A021" d="M48.15 35.358c.241.102.469.2.732.238.005.06.1.096.06.15-.065.09-1.858.485-2.103.505-.382.033-.823.08-1.067-.18.178-.547.901-.245 1.25-.356.154-.05-.048-.369.183-.418.114-.024.77.187.946.06z"/><path fill="#FBBA57" d="M46.075 32.677c-.107.28-.158.47-.121.775-.048.009-.075.039-.122.06-.603.255-.849.931-1.037 1.489-.136.401-.353.603-.244 1.132l-.244-.06c.085-.933.286-1.498.732-2.323.09-.168.203-.379.305-.536.22-.34.975-1.075 1.037-1.37.039-.004.09.008.122 0 .165-.047.245-.193.365-.239-.14.493-.587.539-.793 1.072"/><path fill="#FED386" d="M46.747 34.524c.27.197 1.647.88 1.952.893.055.003.136.01.183 0 .058.078 0 .17 0 .18-.263-.04-.49-.137-.732-.24-.242-.101-1.41-.766-1.495-.774-.266-.025-.68.28-1.006.18.116-.241.422-.417.428-.447.007-.044-.385-.531-.245-.805.048-.02.075-.05.122-.06.135-.024.201-.115.305.031-.087.502.095.757.488 1.042M45.038 35.06l-.183 1.191c-.045.037-.111.072-.122.119-.003-.018-.13.021-.183-.239-.109-.528.108-.73.244-1.131a.32.32 0 0 1 .244.059z"/><path fill="#F9A021" d="M49.004 34.822c.096.347.26.512-.122.595-.046.01-.126.003-.183 0 .154-.21-.098-.638.305-.595"/><path fill="#FED567" d="M49.613 31.189h.061l1.739.418c5.24 2.386 2.72 10.24-3.234 8.756-2.209-.55-3.026-1.979-3.446-3.99.012-.047.077-.083.121-.12.3-.244.486-.95.184-1.19a.3.3 0 0 0-.244-.06c.188-.557.434-1.233 1.037-1.49-.14.275.252.761.244.806-.005.03-.31.206-.428.446-.157.324-.135 1.038.122 1.31.257.273.687.213 1.067.18.245-.022 2.04-.415 2.104-.506.038-.053-.057-.088-.06-.149 0-.009.058-.1 0-.179.382-.083.22-.25.121-.595a22 22 0 0 0-.854-2.324c-.049-.108-.14-.425-.275-.477-.404-.155-1.346.685-1.8.655.206-.534.651-.579.794-1.072.46-.174 2.182-.415 2.745-.418z"/><path fill="#F79229" d="M50.01 35.953c.145-.064 3.021.07 3.172.119.552.182-.086 2.852-1.219 2.383-.143-.06-2.042-2.14-2.044-2.293.007-.05.069-.198.092-.209z"/><path fill="#F9A021" d="M52.327 33.333c.931-.087 1.368 2.444.67 2.622-.572.146-2.165-.303-2.866-.12-.05-.063-.162-.106-.153-.207.015-.163 2.154-2.276 2.349-2.294M48.363 36.014c.282-.025.79-.11.64.269-.06.15-2.007 2.367-2.165 2.413-.828.236-1.598-1.73-1.19-2.175.203-.22.887-.095 1.19-.149.443-.078 1.117-.321 1.526-.357z"/><path fill="#F79229" d="M49.156 36.371c.282-.009.376 1.114.396 1.4.029.398.101 1.795-.335 1.937-.215.069-1.642-.28-1.83-.418-.264-.192-.262-.52-.153-.805.078-.205 1.773-2.11 1.922-2.114"/><path fill="#F9A021" d="M50.131 32.082c.489-.16 2.003.27 1.922.983-.028.247-1.95 2.437-2.164 2.352-.272-.439-.16-3.204.244-3.335z"/><path fill="#F79229" d="M49.644 36.312c.242-.092 2.228 2.224 2.41 2.59-2.358 2.149-2.583-.81-2.41-2.59"/><path fill="#FBBA57" d="M49.277 32.023c.765-.155.415 2.038.336 2.531-.039.237-.078.535-.213.745-.157.041-1.085-2.453-1.067-2.591.042-.337.38-.145.518-.209.201-.092.199-.43.427-.476"/><path fill="#FDEEB0" d="m44.856 36.251.183-1.19c.303.24.116.947-.184 1.19"/><path fill="#A94724" d="M54.494 37.682c-.083.264-.22.512-.305.774-.244.206-.256.531-.365.655-.21.235-.454.569-.671.775-.672.634-1.71 1.09-2.624 1.25-1.215.215-1.997.087-3.141-.297-.226-.075-.833-.528-.885-.536 2.496 1.407 5.331.868 7.016-1.4.162-.22.669-1.268.732-1.31.15-.104.085.133.244.089z"/><path fill="#F9FBF8" d="M46.503 31.844c-.031.008-.083-.004-.122 0 .015-.067-.004-.162 0-.239.277-.021.157.056.122.239"/><path fill="#44873F" d="M46.685 27.316c.47.651.555.761.732 1.55.068.3.01.465.092.715.03-.026.043-.064.092-.06.337.027.106-.127.121-.179.292-.275 1.425-.79 1.86-1.072.307-.198.596-.46.854-.715l.276.149c-.287.976-1.5 1.592-2.41 1.936-.152.058-.705.073-.793.119-.154.079-.524 1.065-.762 1.22.478.138 3.53-.672 3.69-.566.329.218-.683.677-.823.775-.564.002-2.284.243-2.746.417-.12.046-.201.192-.365.239.033-.183.155-.26-.122-.239.02-.367-.019-.768-.183-1.072-.13-.24-2.075-1.905-1.495-2.144.844.508 1.836 1.087 1.952 2.144.073-.151.64-.981.641-1.042.005-.31-1.57-2.085-1.768-2.65.227-.03.356.522.518.595.122.056.42-.293.64-.118z"/><path fill="#758F3A" d="M47.722 29.342a.4.4 0 0 0-.121.18c-.048-.004-.062.034-.092.059-.081-.25-.023-.414-.092-.715.265-.211.463-.856.55-1.191.024-.097.038-.203.06-.298.113-.47.301-2.223.61-2.532.29-.29.333.606.305.834-.05.392-.45.766-.489.893-.27.906-.431 1.852-.732 2.77z"/><path fill="#62AC45" d="M48.027 27.376c-.023.094-.036.2-.06.297-.355-.262-.152-.533-.306-.804-.153-.272-1.31-1.027-1.281-1.191.077-.44 1.14.434 1.281.654.237.374.167.7.366 1.043M46.685 27.317c-.22-.173-.518.175-.64.118-.162-.073-.293-.625-.519-.595-.084-.242-.27-.634.153-.655.089.017.898.98 1.006 1.132M49.705 26.662c1.236-.134-1.08.948-1.25 1.102-.075-.396.945-1.068 1.25-1.102"/><path fill="#75B563" d="M47.601 29.52a.45.45 0 0 1 .121-.179c-.016.05.216.204-.12.18"/><path fill="#44873F" d="M58.277 32.916c-.13 1.057-.66 2.464-1.282 3.335-.173.242-.573.676-.793.893-.044.044-.174.086-.183.18-.02 0-.043-.004-.061 0-.008-.302.186-.63-.06-.834.264-.45-.037-.958-.062-1.43.304-.005 1.419.43 1.495.418.576-.092-1.227-.645-1.25-.685zM57.788 32.737c.017.07.123.165.092.238-.126.294-1.636 1.386-1.983 1.668.075-.208-.176-1.41-.122-1.46.176-.162 1.064-.012 1.16-.328.277-.044.575-.083.853-.118"/><path fill="#62AC45" d="m58.276 32.916-2.196 1.877c.023.04 1.827.593 1.25.685-.076.013-1.19-.422-1.494-.418-.058 0-.134-.01-.183 0-.273-.213.091-.292.244-.417.347-.283 1.857-1.374 1.983-1.668.03-.073-.074-.169-.092-.238.152-.019.323-.037.457-.119.111.07.044.186.031.298"/><path fill="#376C35" d="M55.897 36.49c.248.204.053.532.06.833-.068.014-.931.716-1.098.834-.1.072-.607.245-.67.298.085-.262.222-.51.305-.775.143-.456.28-1.011.305-1.49.199.074.99.21 1.098.298z"/><path fill="#376C35" d="M55.836 35.06c.025.473.327.98.06 1.43-.106-.089-.9-.225-1.097-.298.009-.183.015-.417 0-.596.217.01.768-.516.854-.536.049-.011.125 0 .183 0"/><path fill="#44873F" d="M55.897 34.643c-.153.123-.517.204-.244.417-.086.02-.637.546-.854.536-.047-.552-.322-1.308-.61-1.787.858-.606 1.718-.791 2.745-.954-.096.316-.984.164-1.159.328-.054.05.197 1.252.122 1.46"/><path fill="#376C35" d="M55.012 34.942c.121-.034.235.038.335.09-.639.605-.658 0-.335-.09"/><path fill="url(#b)" d="M39.426 44.354c-5.365 4.134-15.23 4.583-21.138 1.37-1.831-.997-3.866-2.573-4.91-4.349 6.122 2.83 19.196 3.188 26.048 2.978"/><path fill="url(#c)" d="M55.042 45.008c-.16.111-.33.196-.488.298-.053-.109-.384.03-.458.06-3.983 1.602-8.024 3.008-12.261 3.87l-4.18.716c-5.403.213-11.18-.245-16.225-2.145.788.242 1.751.47 2.561.655.854.197 1.725.464 2.593.595 8.032 1.212 16.96-.885 23.394-5.659 2.374-.385 8.376-1.54 9.699-3.573-.686 2.147-2.814 3.925-4.636 5.182z"/><path fill="#CCB193" d="M13.378 41.375c1.045 1.778 3.078 3.352 4.91 4.348 5.906 3.215 15.773 2.765 21.138-1.37.293-.008.613-.047.914-.059q1.589-.061 3.173-.179c-.335.378-.929.703-1.373.954-4.042 2.282-8.278 3.595-12.993 3.693-1.73.037-3.46-.21-5.154-.298-.811-.186-1.775-.413-2.562-.654-.416-.128-.433.009-.457 0-.846-.279-2.79-1.366-3.63-1.847-2.746-1.572-5.01-3.596-6.344-6.464.262-.079.35.433.488.596.477.565 1.22.97 1.892 1.28z"/><path fill="#F4E8E5" d="M27.897 41.435c.32.543 1.159 1.187 1.768 1.37.522.156.927.098 1.464.118.403.015 2.397.105 2.5-.208-.19-.314-.905-.06-1.219-.328.4-.23.732-.682.977-.834.106-.065.207-.08.305-.118.168.069.42.09.61.118 1.116.164 2.238.312 3.354.477.126.019.752.347.825.357 1.595.243 4.494.153 6.008-.118.758-.137 1.477-.298 2.256-.418.186-.03.489.013.702-.06.2-.067.134-.258.244-.297.074-.026 1.048.122 1.22.118 2.149-.032 4.762.17 6.74-.417.201-.06.527-.172.732-.119-4.256 1.52-9.917 2.164-14.457 2.383-.93.046-2.187.188-3.081.119-.975-.075-2.213-.528-3.233-.596-1.795-.12-3.754.203-5.612.119-.898-.04-3.662-.265-4.453-.477-.203-.054-.16.001-.152-.238 1.89-.076 1.802-.24.06-.655.09-.086.459-.618.489-.715l1.952.417z"/><path fill="#CBC4B9" d="M59.923 39.409c-.145-.145-.2.277-.244.417-1.323 2.034-7.325 3.19-9.699 3.574-2.126.345-4.316.556-6.467.715a95 95 0 0 1-3.172.18l.945-.358.641-.477c4.54-.22 10.201-.863 14.458-2.383 1.338-.477 3.964-1.313 3.477-3.097.17.4.172.996.061 1.429"/><path fill="#E4D1C8" d="M59.861 37.98c.489 1.783-2.138 2.618-3.477 3.098-.206-.053-.53.059-.733.118l1.403-.893c.12-.044.149-.073.244-.118 2.318-1.12.495-2.562-1.098-3.038a9 9 0 0 0 .793-.893c.805.207 2.535.945 2.867 1.727z"/><path fill="#E2BFC5" d="M14.476 37.443c.124.158 1.296.796 1.373.775.185-.052.014-.188.153-.239.103 1.203 1.28 2.41 2.44 2.74-.1.322.174.414.427.536-1.582-.205-5.474-1.17-5.124-3.276.18-.266.57-.404.732-.536z"/><path fill="#F3DCE0" d="M22.407 41.196c.166.116.37.448.67.655l-.64.18c.019.105.188.15.274.178-.38.239-.512-.212-.762-.298-.835-.286-2.167-.258-3.02-.595.044-.142.158-.126.275-.118.396.022 2.849.301 1.86-.357.482.079.942.076 1.343.357z"/><path fill="#B29FA0" d="M25.396 42.387c-.798.032-1.913.067-2.684-.179-.086-.028-.255-.072-.276-.18l.641-.178c.188.128.33.316.518.357a2.18 2.18 0 0 0 1.678-.357c.047-.034.148-.085.184-.119 1.741.415 1.829.58-.061.655z"/><path fill="#E4D1C8" d="M15.147 36.074c.126.012.706.677.793.833-.096-.034-.318-.302-.397-.297-.066.005-.98.624-1.098.715-.065.05.065.092.031.118-.163.132-.552.27-.732.537.091-.55.34-.509.488-.805.01-.022-.125-.207 0-.477.07-.149.766-.64.915-.626z"/><path fill="#795F64" d="M21.065 40.84c.988.658-1.465.379-1.86.356-.117-.006-.232-.024-.276.119-.082-.033-.057-.058-.06-.06-.254-.122-.526-.214-.428-.536.032.01.087-.007.121 0 .682.16.991.233 1.708-.059.21.121.547.138.793.18z"/><path fill="#9C7457" d="M54.555 45.306c-5.009 3.237-10.938 4.411-16.898 4.646l4.179-.715c4.235-.863 8.277-2.27 12.261-3.872.074-.029.405-.169.458-.059"/><path fill="url(#d)" d="M49.979 43.4c-6.434 4.773-15.362 6.872-23.395 5.659-.868-.131-1.738-.4-2.592-.596 1.694.089 3.424.335 5.154.298 4.716-.098 8.95-1.412 12.993-3.693.443-.25 1.037-.574 1.373-.954 2.15-.159 4.339-.37 6.466-.715"/><path fill="#D5BAB7" d="m57.055 40.303-1.402.893c-1.978.586-4.591.385-6.741.418-.173.002-1.147-.146-1.22-.119-.11.04-.043.23-.244.298-.213.073-.515.032-.701.06.2-.505-.783-.382-1.098-.418.096-.216.096-.536.06-.775.198-.233.042.19.276.357.607.44 3.817.408 4.667.357 1.293-.076 2.572-.3 3.843-.536.8-.148 1.814-.253 2.562-.536z"/><path fill="#A38B89" d="M43.209 41.137c.08.428.46.622.793.834.15.097.272.252.488.298-1.514.272-4.413.362-6.008.118-.072-.011-.699-.34-.824-.357-.043-.284.312-.31.488-.417.14.078.282.174.428.238.767.338 1.044.529 1.952.418.524.082 2.835.118 1.707-.716.27-.14.675-.428.977-.417z"/><path fill="#E2BFC5" d="M37.047 40.958c.236.287.79.483 1.098.654-.175.108-.531.133-.489.418-1.116-.165-2.238-.313-3.354-.477z"/><path fill="#A38B89" d="M36.925 40.66c.064.107.111.285.122.298l-2.745.595c-.19-.027-.442-.05-.61-.118.47-.192 1.277-.29 1.8-.418.052-.013.024-.117.03-.118.024-.005.133.093.276.059.369-.088.738-.261 1.128-.298"/><path fill="#A4958E" d="M31.13 42.923c.48-.171.832-.277 1.282-.536.314.268 1.028.014 1.22.328-.104.313-2.1.223-2.502.208"/><path fill="#E2BFC5" d="M27.653 40.899c.032.096.193.451.244.536l-1.952-.418c.011-.038.054-.248.06-.298z"/><path fill="#917C7F" d="M46.747 41.851c-.78.12-1.498.28-2.257.418-.215-.046-.337-.201-.488-.298.457.1 1.022.064 1.403-.238.243.104.922.194.945-.12h-.824c.014-.02.118-.168.122-.178.315.036 1.298-.087 1.098.417z"/><path fill="#B29FA0" d="M57.3 40.183c-.137-.56-.8-.527-1.22-.774.502-.198 1.18-.514 1.038-1.162-.048-.216-.876-.914-1.099-.923.01-.092.139-.135.184-.18 1.593.477 3.415 1.92 1.098 3.038z"/><path fill="#A38B89" d="M56.08 39.409c.42.247 1.084.214 1.22.774-.096.046-.125.075-.244.119-.748.283-1.762.389-2.562.536.088-.269.34-.286.488-.566.015-.027-.162-.014-.121-.119s.341-.26.244-.506c.248-.058.488-.094.733-.179.062-.021.186-.036.244-.06z"/><path fill="#D5BAB7" d="M15.94 36.907c.014.026-.007.306.183.477a3 3 0 0 0-.121.357c-.039.188-.01.114 0 .239-.138.05.03.186-.153.238-.076.021-1.248-.617-1.373-.775.034-.026-.094-.07-.03-.118.118-.09 1.031-.71 1.097-.715.079-.005.301.263.397.297"/><path fill="#917C7F" d="M56.018 37.324c.223.009 1.05.707 1.098.923.144.647-.536.962-1.037 1.162-.058.023-.182.038-.244.06.03-.136-.386-.094-.549-.12-.031-.515.031-.814-.428-1.19.167-.119 1.03-.822 1.098-.834.018-.004.043 0 .061 0z"/><path fill="#F4E8E5" d="M22.162 40.124c-.008.11-.01.248 0 .357.022.226.14.51.244.715-.4-.28-.86-.277-1.342-.357-.247-.04-.581-.057-.793-.179.266-.108.731-.444.915-.655z"/><path fill="#795F64" d="M55.104 39.647c.097.246-.203.399-.244.506-.042.107.135.093.121.119-.148.28-.4.297-.488.566-1.271.236-2.55.46-3.843.536l-.122-.238c.914-.162 1.952-.616 2.624-1.252.461.067 1.009-.038 1.463-.118.157-.028.331-.082.489-.119"/><path fill="#A38B89" d="m50.528 41.137.121.238c-.85.05-4.059.082-4.667-.357-.233-.167-.076-.59-.275-.357-.008-.056.013-.13 0-.179.13-.004.753-.185.793-.179.052.008.659.46.885.536 1.144.384 1.926.512 3.142.298"/><path fill="#917C7F" d="M40.524 42.268c.626-.077 1.16-.43 1.708-.715 1.128.833-1.183.796-1.708.715"/><path fill="#544442" d="M45.405 41.732c.009-.006.117-.112.121-.118h.824c-.023.313-.702.223-.945.118"/><path fill="#795F64" d="M54.86 38.159c.457.376.396.675.427 1.19-.227-.036-.434-.088-.67-.118-.261-.034-.543-.04-.793-.119.11-.123.121-.449.365-.654.064-.053.571-.226.67-.298z"/><path fill="#544442" d="M54.616 39.23c-.082.193-.147.397 0 .537-.456.082-1.003.185-1.464.119.217-.206.461-.54.67-.775.25.08.532.085.793.119"/><path fill="#544442" d="M55.287 39.35c.163.026.579-.017.549.118-.243.085-.483.121-.733.18-.157.036-.331.09-.488.118-.146-.14-.081-.344 0-.536.238.031.443.082.67.118z"/><path fill="#F1564A" d="M21.308 36.49c.008.002.113.115.122.118.393 1.26-.216 3.353-1.616 3.812-.424.14-.999-.015-1.25.298-.036-.008-.09.009-.122 0-1.16-.33-2.337-1.539-2.44-2.74-.01-.125-.04-.05 0-.238.244.907.66 1.684 1.463 2.234l.184-.06a3.25 3.25 0 0 1-1.342-1.936l.61.18c.042.26.168.11.183.118.05.354 1.561 1.562 1.8 1.608 1.986.394 2.973-2.082 1.86-3.395.132-.007.444-.026.548 0"/><path fill="#F26C62" d="M17.098 37.205c-.068.34-.244.577-.183.954l-.61-.18c-.05-.204-.048-.4-.121-.595.032-.019.19-.043.244-.06.153-.047.48-.08.67-.118"/><path fill="#F68F7D" d="M16.305 37.98c.195.802.654 1.459 1.343 1.936l-.184.06c-.805-.55-1.22-1.328-1.463-2.235.011-.053.107-.346.12-.357.013-.009.046.009.062 0 .073.194.072.392.121.596z"/><path fill="#C22126" d="M21.796 36.967c.445.873.02 2.314-.61 3.037-.185.21-.649.546-.915.655-.717.293-1.026.218-1.707.06.251-.314.826-.16 1.25-.299 1.401-.459 2.01-2.553 1.616-3.812.208.105.26.148.366.357z"/><path fill="#C22126" d="M20.76 36.49c1.113 1.313.124 3.789-1.86 3.395-.239-.046-1.75-1.253-1.8-1.608.5.308 1.068.485 1.525.893.012.07.014.121.06.18.315.385.227-.264.398-.239-.007.63.153.02.275.208.027.637.162.207.457.03.079-.048.231.062.275.03.058-.042.257-1.096-.06-1.13.375.211.473-.34.732-.596-.15-.322-.123.074-.489-.15-.055-.033-.184-.251-.304-.297.028-.098.21-.387.152-.417-.393.053-.725.117-1.129.118.109-.09.346-.087.488-.118.223-.05.445-.14.67-.18.195-.034.416-.11.61-.118z"/><path fill="#F26C62" d="m17.282 37.205.365.208-.488.239c-.022.138.357.37.428.357l-.092.268c.807-.551 1.355-1.05 2.409-1.013-.027.073.03.273 0 .328-.152.29-1.223.779-1.282 1.013-.058.235.125.224.122.239-.005.04-.125.31-.122.328-.457-.41-1.025-.587-1.525-.893-.013-.008-.14.142-.184-.12-.06-.376.114-.613.184-.953.057-.011.125.01.183 0z"/><path fill="#F58E8C" d="M19.966 37.205s-.03-.023-.06.06c-1.054-.037-1.602.461-2.41 1.012l.092-.268c-.07.012-.45-.219-.427-.357l.488-.239-.366-.208c.35-.06.68-.141 1.038-.179.078-.009.227.043.244-.06h.06c.09-.002.274.044.305-.059h.061c.404-.002.735-.065 1.13-.118.057.03-.125.318-.153.417z"/><path fill="#C56841" d="M18.929 36.907c-.031.103-.216.057-.305.06.031-.101.217-.058.305-.06M18.564 36.967c-.017.103-.165.051-.245.059.015-.097.167-.058.245-.06"/><path fill="#F1564A" d="M18.685 39.35c.083-.684.378-.324.701-.477.628-.3.583-.82.885-1.37.366.223.339-.173.488.148-.258.258-.355.808-.732.596.318.035.119 1.089.06 1.131-.042.033-.194-.077-.274-.03-.295.178-.43.608-.458-.03-.121-.19-.281.421-.275-.208-.17-.027-.081.624-.396.238z"/><path fill="#F1564A" d="M20.27 37.503c-.3.551-.256 1.07-.884 1.37-.323.154-.619-.207-.701.477-.047-.059-.05-.109-.061-.18-.003-.017.117-.287.121-.328.002-.015-.178-.008-.121-.238s1.129-.721 1.281-1.013c.03-.055-.027-.255 0-.328.031-.082.06-.055.061-.06.12.046.25.264.305.298z"/><path fill="#599341" d="M43.147 35.656c.073.07.112.229.121.239-.575.142-.148.396-.183.625-.035.23-.42 1.292-.58 1.4-.1.069-.322.05-.336.06.024-.235-.034-1.228 0-1.341.095-.32 1.311-.376-.122-1.28l.305-.298c.175.096.65.456.793.595z"/><path fill="#62AC45" d="M41.562 34.704s-.022.025.06.059c.255.103.476.156.733.298l-.305.297a4 4 0 0 0-.488-.238c-.144-.06-.306-.053-.428-.18.013-.074-.008-.16 0-.237.09.033.339-.035.428 0"/><path fill="#376C35" d="M43.27 35.895c.27.298.876.978 1.036 1.31.085.175.276.713.305.893.033.198.083.525.061.715-.027.234-.281.577-.305.834-.549.066-1.09.538-1.158 1.072a2 2 0 0 0 0 .418c-.302-.013-.706.276-.977.417-.55.286-1.083.639-1.708.716-.908.11-1.184-.079-1.952-.418l-.488-.446c.338-.086.552.088.854-.119-.315-.401.281-.877.549-1.28.063-.096.12-.208.183-.298.345.135.985-.496 1.038-.834.169-.097.476-.176.61-.297.342.442.608-.405.853-.596.013-.01.237.008.336-.06.159-.108.544-1.158.58-1.4.036-.24-.391-.482.183-.625z"/><path fill="#62AC45" d="M39.487 40.005c-.267.404-.864.88-.549 1.28-.302.209-.515.035-.854.12l.488.446c-.144-.065-.286-.16-.427-.239-.308-.171-.862-.368-1.098-.654-.01-.013-.06-.19-.121-.298-.023-.036-.042-.08-.061-.118.204-.29.78-.166.824-.18.089-.027.168-.234.183-.238.556-.129 1.063-.083 1.616-.119"/><path fill="#599341" d="M42.048 35.358c1.434.906.217.962.122 1.28-.034.113.024 1.106 0 1.342-.246.19-.512 1.038-.854.595.38-.347.403-.985.427-1.46.003-.045.122-.013.122-.059.004-.214-.299-.363-.305-.536-.008-.212.221-.207.183-.595-.018-.19-.307-.502-.183-.805.152.063.351.151.488.238"/><path fill="#84AC47" d="M41.561 35.12c-.124.302.164.613.184.805.038.39-.19.383-.184.595.007.173.31.322.305.536 0 .046-.12.014-.121.06-.023.474-.048 1.112-.428 1.46-.133.12-.44.2-.61.297-.158.09-.73.274-.762.297-.196.142-.142.347-.275.537-.063.09-.12.201-.183.297-.554.036-1.06-.009-1.616.119-.015.004-.093.21-.184.238-.042.013-.62-.11-.824.18a5.8 5.8 0 0 1-.428-1.191c.265-.013.64.267.885.297.463.057 2.287-.13 2.532-.506.069-.105.066-.294.122-.446.159-.073.383-.125.518-.239.146-.122.07-.244.092-.268.027-.03.306-.082.365-.239.062-.165.058-.913.122-1.19.011-.048.306-.239.304-.477-.001-.239-.417-.59-.427-.715-.003-.033.161-.496.183-.626.12.126.284.12.428.179z"/><path fill="#99CB48" d="M41.134 34.704c-.008.077.013.164 0 .238-.022.13-.186.593-.183.626.01.126.426.48.427.715s-.294.429-.305.477c-.064.279-.06 1.026-.121 1.19-.062.164-.338.207-.366.239-.02.023.055.146-.091.269-.136.113-.36.165-.518.238.006-.019-.106-.145-.061-.269.05-.136.356-.39.366-.417.249-.639-.67-1.547-.61-2.234.075-.178.132-.4.121-.596.054-.025.27-.193.244-.268-.81-.31-.23-.14.061-.328.036-.024.257-.362.366-.418.005.003.022-.114.091-.059.226.18.305.49.58.595z"/><path fill="#99CB48" d="m39.914 34.465.184.119c-.292.188-.872.018-.06.328.025.074-.19.242-.245.269-.158.074-.716.126-.946.238-1.281.624-2.043 1.639-1.983 3.068.063.176 1.164.427 1.374.446.31.028.288-.118.305-.118.044 0 .016.122.06.118.261-.022 1.053-.257 1.13-.506.038-.124-.422-1.75-.306-2.323.012-.06.237-.31.245-.328-.06.687.859 1.596.61 2.234-.011.025-.316.28-.366.417-.045.124.067.25.06.27-.055.152-.053.34-.121.446-.245.376-2.07.563-2.532.505-.245-.03-.619-.31-.885-.297-.241-1.221-.081-1.915.67-2.92.04-.052.08-.128.122-.178.6-.697 1.495-1.067 2.257-1.55.098-.061.156-.16.183-.178.021-.014.226-.047.244-.06"/><path fill="#62AC45" d="M40.708 38.873c-.053.338-.693.969-1.038.834.133-.19.078-.395.276-.537.033-.023.603-.206.762-.297"/><path fill="#F9FBEE" d="M40.464 34.168c-.11.055-.33.393-.366.417l-.183-.118c.085-.062.38-.463.457-.477.187.002-.063.1.092.179z"/><path fill="#C9DE79" d="M39.792 35.18c.01.195-.047.418-.122.595-.008.019-.232.268-.244.328-.116.572.344 2.198.305 2.323-.076.249-.868.483-1.129.506-.044.004-.017-.12-.06-.119-.017 0 .004.147-.306.119-.209-.019-1.31-.271-1.373-.447-.06-1.429.702-2.443 1.983-3.067.23-.113.788-.164.946-.239"/><path fill="#253C55" d="M45.465 40.065c.025.03.238.393.244.417.013.048-.007.123 0 .18.034.238.035.558-.06.774-.004.01-.107.159-.122.179l-.121.118c-.381.302-.946.34-1.403.239-.33-.213-.713-.408-.793-.834a2 2 0 0 1 0-.417c.313-.143.337.431.64.595.902.488 2.029-.488 1.435-1.37.033.028.165.097.183.119z"/><path fill="#253C55" d="M44.368 39.647a2 2 0 0 1 .365 0c.302.04.341.125.55.298.593.882-.533 1.858-1.435 1.37-.303-.164-.327-.738-.64-.596.068-.535.61-1.006 1.158-1.072z"/><path fill="#8D9FAA" d="M43.91 40.006c.71-.16.74.718.244.833-.733.172-.72-.726-.244-.834"/><path fill="#C22126" d="M33.264 41.017c.04.225.22.327.121.536-.245.152-.576.603-.976.834-.448.259-.801.364-1.282.536-.538-.02-.941.037-1.463-.119.404-.12-.117-.224-.031-.238.175-.028.347.064.365.06.076-.018.095-.175.122-.18 1.047-.185 1.308-.068 2.227-.774.249-.192.526-.434.67-.715.047.02.163-.02.244.059z"/><path fill="#F26C62" d="M29.3 38.873c-.267.151.14.268.183.328.083.114.034.328.092.387.079.082.508.05.67.118.442.191.9.761 1.25.418.08.043.169.073.245.119.076.045.252.061.152.179-.407-.183-.677.036-.427.417-.538-.696-.637-.184-1.038-.118-.4.065-.558-.032-.945.118-.123.048-.177.214-.305.208.508-.584-.16-.113-.06-.476.01-.04.787-.528-.093-.15l.276-.268c-.237-.172-.312.027-.397.03-.11.004.02-.273-.213-.268.598-.19-.076-.063-.122-.119.207-.28-.005-.424 0-.477.003-.026.12-.093.122-.118.002-.03-.175-.024-.122-.119.044-.08.495-.135.489-.328.081.037.163.08.244.119z"/><path fill="#E63032" d="M29.483 41.256c.174.083.17.396.61.059-.035.15.316.048.365.238-.02.013-.317.293-.275.357.505.05 1.654-.397 2.013-.715.18-.159.276-.523.305-.536.095-.044.43.258.518.298-.145.28-.423.523-.67.715-.307 0-.791.415-1.007.477-.383.108-.913-.038-1.22.179l-.152-.09c.301-.57-.036-.299-.336-.446-.659-.325-1.161-.905-1.098-1.668.501.195.252.665.457.923.137.173.39.162.489.209z"/><path fill="#F1564A" d="M31.861 40.183c.01 0 .11.056.184 0 .005.352.196.254.183.447 0 .016-.197.275-.213.268-.067-.029.023-.293-.152-.09.084.51-1.064.533-1.403.745-.05-.189-.4-.088-.366-.238.003-.014.216.035.092-.18-.096.035-.084.174-.092.18-.44.337-.435.023-.61-.06.024-.179.272-.296 0-.417.388-.151.565-.057.946-.119.4-.065.499-.576 1.037.119-.25-.381.02-.6.428-.418.1-.117-.079-.133-.153-.179 0-.08.062-.059.122-.059z"/><path fill="#F68F7D" d="m28.201 38.397-.365.805-.184-.149c.126-.324.12-.633.55-.654z"/><path fill="#F1564A" d="M28.506 38.457c.093.027.405.233.55.297.007.192-.445.247-.489.328-.053.096.125.088.122.119-.003.025-.12.093-.122.118-.005.053.207.197 0 .477.045.057.72-.07.122.119.232-.005.103.27.213.268.085-.002.16-.2.396-.03l-.275.269c.88-.379.102.108.092.149-.1.363.568-.108.06.477.128.005.183-.16.305-.209.272.121.024.238 0 .418-.098-.047-.35-.035-.488-.208-.205-.259.044-.728-.457-.924-.064.764.439 1.344 1.098 1.668.3.148.637-.124.336.447l.152.09c.306-.218.838-.07 1.22-.18.215-.062.7-.477 1.006-.477-.919.706-1.18.59-2.227.775-.027.005-.047.16-.122.179-.018.003-.19-.089-.365-.06-.085.014.435.119.03.239-.61-.183-1.447-.826-1.768-1.37a6 6 0 0 1-.244-.536 3.5 3.5 0 0 1-.183-1.013c0-.246.051-.541.121-.775.025-.082.06-.055.06-.059l.184.149.366-.805c.106-.005.207.03.305.06z"/><path fill="#F68F7D" d="m27.682 39.409.122 1.251c-.198-.382-.18-.831-.122-1.251M29.604 38.993c.066.034.292.23.428.297.001.214.333.197.427.239.026.011.1-.012.122 0 .051.027.263.234.488.357.142.077.284.161.428.238-.35.343-.81-.227-1.25-.417-.164-.071-.593-.038-.671-.119-.058-.06-.01-.272-.092-.387-.043-.06-.45-.176-.183-.328.097.047.236.084.305.118z"/><path fill="#E63032" d="M30.093 41.315c.008-.006-.004-.145.091-.18.124.215-.087.166-.091.18"/><path fill="#F89F64" d="M30.458 39.529c-.094-.042-.425-.026-.427-.239.121.06.364.072.427.239"/><path fill="#141E30" d="M25.945 39.767c.07.25.095.7.06.954-.006.05-.049.26-.06.297-.03.096-.398.63-.488.715-.037.035-.136.086-.184.12l-.305-.15c.724-.451.925-1.313.854-2.114.01.019.102.106.122.18z"/><path fill="#253C55" d="M25.457 39.052c.155.139.281.348.365.536.071.802-.13 1.663-.854 2.114l.305.149a2.17 2.17 0 0 1-1.678.357c-.188-.04-.332-.228-.518-.357-.3-.207-.504-.539-.67-.655-.105-.205-.222-.488-.244-.715l.121-.09c1.102 1.592 3.638-.09 2.5-1.697.232.078.492.195.671.357z"/><path fill="#41608B" d="M24.785 38.695c1.137 1.608-1.4 3.29-2.501 1.698l-.121.09a2.3 2.3 0 0 1 0-.358c.005-.068.042-.223.06-.297a2 2 0 0 0 .244-.06c-.05.124.059.17.061.18.23.724 1.093.45 1.403-.06.075-.123.506-1.043.488-1.102l-.427-.269c.2-.002.587.109.793.18z"/><path fill="#8D9FAA" d="M22.467 39.767a2 2 0 0 1-.244.06c.094-.377.186-.457.428-.716.192.08-.096.565-.184.655z"/><path fill="#8C98AE" d="M23.931 39.886c-.31.51-1.173.783-1.403.059z"/><path fill="#A9B0BA" d="m23.992 38.516.427.268c.018.06-.412.978-.488 1.103l-1.403.06c-.002-.01-.112-.056-.06-.18.087-.09.374-.577.183-.655.373-.398.752-.587 1.342-.595z"/><path fill="#141E30" d="M23.596 38.754c.221-.03.753-.038.641.328-.041.134-.93.073-1.067.03-.29-.09.385-.352.428-.357z"/><path fill="#62AC45" d="M17.099 36.728c-.258.19-.393.419-.825.298l.153.297c-.053.017-.212.042-.244.06-.016.009-.05-.009-.061 0-.19-.172-.17-.452-.184-.477-.086-.156-.666-.821-.793-.834.004-.038-.009-.088 0-.118.021-.072.132-.177.184-.239.763-.3 2.523-1.55 3.263-1.608.465-.037 1.032.464 1.526.417l-1.526.954c-.543.34-1.001.884-1.495 1.251z"/><path fill="#99CB48" d="M15.33 35.715c-.052.062-.163.167-.183.239-.158-.084-.256-.229-.366-.357.278-.134-.223-.506-.305-.685-.058-.128-.284-.699-.213-.805.354-.256.738-.188 1.037-.238 1.025-.175 2.155-.448 3.081.09-.201.095-.639.172-.824.268-.647.332-1.746.91-2.227 1.49z"/><path fill="#62AC45" d="M20.637 30.83c.016.212-.176.304-.184.388-.06.728.692 1.01 1.282 1.221-.433.617-.927 1.368-1.282 2.026l-.67-3.871c.288.064.563.186.854.238z"/><path fill="#99CB48" d="M14.781 31.07c.385.006.483.488.67.744.04.053-.064.113-.06.118.036.052.983.734.701.983-.453-.163-.943-.234-1.403-.357-.194-.053-.648-.293-.854-.357-.205-.065-.701.084-.824-.357.193-.177 1.518-.778 1.769-.775z"/><path fill="#99CB48" d="M13.683 34.048c-.243-.43-.715-1.329-.793-1.788.06-.25 1.071.157 1.098.208.022.043-.066.772-.06.954.007.306.409.802-.245.626"/><path fill="#599341" d="M20.332 34.704c-.34.652-.672 1.37-.854 2.085-.142.031-.378.027-.488.118h-.06c-.089 0-.275-.041-.306.06h-.06c-.078 0-.229-.038-.244.059-.358.038-.689.12-1.038.179-.058.01-.126-.011-.183 0-.19.038-.518.07-.67.119l-.153-.298c.431.121.567-.107.824-.298l3.233-2.026z"/><path fill="#99CB48" d="m19.783 30.592.67 3.872c-.04.074-.081.161-.121.238l-3.233 2.026c.492-.367.952-.91 1.494-1.251l1.526-.954c-.494.048-1.06-.453-1.526-.418-.741.059-2.5 1.309-3.263 1.609.48-.578 1.58-1.157 2.227-1.49.185-.094.622-.171.824-.269-.925-.537-2.056-.263-3.08-.09-.299.051-.684-.017-1.038.24-.071.105.155.677.213.804.083.18.583.551.305.685a10 10 0 0 1-1.098-1.55c.654.178.252-.317.244-.625-.005-.18.084-.91.06-.953-.026-.052-1.036-.458-1.097-.209-.018-.104-.07-.163-.06-.268.013-.053.144-.114.183-.149.122.443.61.29.824.357s.66.305.854.357c.46.125.95.194 1.402.357.282-.25-.665-.931-.7-.983-.005-.005.098-.065.06-.118-.187-.256-.286-.738-.67-.744a8.3 8.3 0 0 1 5.001-.477z"/><path fill="#62AC45" d="M19.509 32.201c.08.004.229.08.336.09l.336 1.995c-.195-.122-1.17-.267-1.25-.387s-.218-1.207-.49-1.43c.326.052.808-.28 1.068-.268"/><path fill="#99CB48" d="M26.31 23.802c-.28.17-.534.785-.549 1.102-.005.13.393.808.184.983-.064-.1-.149-.322-.184-.357-.283-.296-1.778-.883-2.256-.893-.535-.282-.959-.208-1.526-.357.102-.516.198-1.05.366-1.549-.088.233.656.363.701.357.195-.026-.018-.233 0-.238.191-.056 1.393.527 1.586.833l-1.006-2.114.885 1.162c-.008-.612 1.6-.95 1.8-.566.113.217-.517 1.617 0 1.638z"/><path fill="#99CB48" d="m28.323 23.207-.152.417-.122-.476c-.465.245-1.316.4-1.739.654-.516-.021.114-1.42 0-1.638-.2-.384-1.807-.046-1.8.566l-.884-1.162 1.006 2.114c-.193-.306-1.394-.889-1.586-.833-.018.005.195.21 0 .238-.045.006-.79-.124-.701-.357.159-.467.584-1.707 1.129-1.728 1.45-.057 3.813 1.236 4.849 2.204"/><path fill="#62AC45" d="M28.323 23.207c.166.155.358.282.488.477-.215.156-.668.533-.854.715l-.244-.09c-.06.208-.495.467-.549.536-.012.014.063.16-.06.357-.063.099-.15-.036-.153-.03-.12.2-.081.465-.152.595-.13.238-.366.519-.489.775-.214-.17-.249-.47-.365-.655.21-.175-.189-.852-.184-.982.015-.318.269-.934.55-1.103.422-.253 1.273-.41 1.738-.654l.122.476z"/><path fill="#599341" d="M23.504 24.636c.163.086 1.681 1.099 1.769 1.19.37.39.008.27.244.655-.504-.168-1.358-.441-1.86-.536-.14-.026-.275-.103-.275.119a11 11 0 0 0-.854-.357c-.262-.094-.571-.096-.733-.357.026-.364.113-.717.184-1.072.566.148.99.074 1.525.357"/><path fill="#376C35" d="M25.518 26.483c.204.068.418.257.67.238-.006.014.05.187 0 .298-.034.073-.245.527-.275.536-.403-.25-.78-.535-1.19-.775a14 14 0 0 0-1.342-.715c0-.223.134-.145.275-.118.503.094 1.358.368 1.86.536z"/><path fill="#62AC45" d="M25.762 25.53c-.084.27-.296.129-.489.297-.089-.094-1.607-1.105-1.768-1.191.478.01 1.974.597 2.257.893"/><path fill="#44873F" d="M25.945 25.887c.116.187.151.486.365.655-.032.067-.108.15-.121.18-.252.018-.468-.171-.67-.24-.237-.385.126-.265-.245-.654.193-.168.405-.026.489-.298.033.036.12.258.183.357z"/><path fill="#62AC45" d="M32.471 24.457c.118.656.147 1.238.06 1.906-.292.029-.725.126-1.037.179-.399.068-.81.048-1.158.298-.295.021-.571.13-.854.179.303-.912 1.072-1.117 1.891-1.46l-1.129.328c-.07-.92 1.174-1.178 1.922-1.37.083-.021.21-.025.305-.059z"/><path fill="#62AC45" d="M32.471 24.457c-.095.035-.222.037-.305.059-.201-.21-1.412.366-1.463.269.17-.403 1.077-1.803 1.037-2.145-.01-.08-.231-.067-.183-.208.494.139.824 1.515.914 2.026z"/><path fill="#599341" d="M28.934 27.137c-.588.142-1.214.305-1.768.536l-.977-.654c.05-.111-.006-.284 0-.298.014-.029.09-.111.121-.18.123-.255.358-.537.489-.774.781.225 1.687.677 2.135 1.37"/><path fill="#62AC45" d="M27.958 24.397c-.186.18-.345.399-.55.567.014.049.717.306.825.328.223.045.399-.133.457-.09.14.102.696 1.558.61 1.817-.133.026-.253.092-.366.118-.448-.694-1.354-1.145-2.135-1.37.07-.13.033-.396.152-.595.004-.006.09.127.153.03.124-.198.05-.343.06-.357.055-.07.49-.328.55-.536l.244.09z"/><path fill="#99CB48" d="M31.556 22.432c-.047.143.174.129.184.208.041.342-.866 1.742-1.037 2.145.051.097 1.263-.478 1.463-.269-.746.192-1.99.452-1.922 1.37l1.129-.328c-.819.343-1.588.547-1.891 1.46-.058.01-.127-.012-.184 0 .087-.26-.47-1.715-.61-1.817-.057-.043-.233.135-.457.09-.106-.022-.81-.278-.824-.328.204-.167.363-.385.55-.567.185-.181.637-.559.853-.715.32-.232 1.714-1.082 2.044-1.19.26-.088.416-.14.701-.06z"/><path fill="#62AC45" d="m29.056 25.231.854.18c-.022.503-.111.75-.458 1.19l-.549-1.37c.01-.015.142.013.153 0M29.91 25.41l-.854-.179c.108-.135.572-.754.762-.654.16.285.103.555.091.833"/><path fill="#44873F" d="m26.188 27.019.976.654c-2.056.854-3.756 2.561-5.062 4.29-.123.162-.247.306-.366.476-.588-.21-1.342-.493-1.281-1.221.007-.084.2-.177.183-.387-.005-.06-.133-.15-.183-.239.474.312.838-.445 1.19-.536.16-.041.582-.054.762-.06.049 0 .193.155.244 0 .19.056.348.087.549.06.051-.006.162.024.183-.03-.455-.343-.651-.775-.549-1.34.092.33.459 1.617.67.714-.011.111-.062.712.031.716l.641-2.92c.111-.081.476-.065.55-.417.409.24.786.525 1.189.775.03-.01.242-.463.275-.537z"/><path fill="#99CB48" d="M18.93 25.47c-.016.152-.014.186.09.297.114.122 1.428 1.031 1.374 1.162-.477.072-.992-.286-1.586-.06 1.218.065 2.04.412 2.805 1.311-.019.221-.521-.134-.58-.148-.337-.081-.75-.098-1.098-.119-.036-.002-.38-.204-.64-.03.585.096 1.142.295 1.707.446-.065.16-.18.949-.121 1.042.034.055 1.057.261 1.25.328.137.047.418.269.518.298-.05.154-.195-.001-.244 0l-1.434-.477c-.388.163-.121.772-.58.954-.826-1.326-2.078-2.655-1.89-4.379.048-.446.052-.52.427-.625z"/><path fill="#85C351" d="M21.37 25.351c-.404.28-.204.8.06 1.103-.341-.24-.1 1.15-.06 1.251.08.207 1.042 1.098 1.25 1.34.033-.026-.024-.728-.031-.833-.022-.29-.096-.602-.122-.893-.035-.393-.12-.872 0-1.251.017.736.17 1.912.366 2.621-.102.566.094.998.549 1.34-.02.055-.13.023-.184.031-.475-.45-.735-1.123-1.402-1.34.672-.247-.592-.334-.794-.388-.565-.153-1.122-.352-1.707-.447.26-.174.604.028.64.03.348.023.761.038 1.098.12.058.013.56.369.58.148-.766-.898-1.588-1.246-2.805-1.31.594-.228 1.108.132 1.586.059.054-.131-1.258-1.04-1.373-1.162-.105-.111-.108-.145-.092-.298.61-.171 1.807-.2 2.44-.118z"/><path fill="#62AC45" d="M21.796 25.351c.161.261.467.264.732.357-.083.114-.064.229-.06.357-.12.38-.035.857 0 1.251-.324.225-.453-.557-.794-.684l-.183.059 1.098 1.518c.008.105.063.808.03.834-.207-.242-1.17-1.132-1.25-1.34-.038-.101-.28-1.492.061-1.252-.264-.301-.464-.822-.06-1.102.169.021.457.222.427 0zM22.407 29.997c-.18.005-.602.019-.762.06-.352.09-.715.847-1.19.536-.02-.036-.04-.085-.061-.12.457-.18.191-.789.58-.953z"/><path fill="#599341" d="M23.382 26.065c.514.239.859.433 1.342.715-.073.352-.438.336-.549.418-.014.011-.072-.026-.121.03-.075.085-.526 1.963-.55 2.175-.213.903-.578-.384-.67-.715-.197-.71-.349-1.885-.365-2.621-.003-.13-.022-.244.06-.358.263.094.6.24.854.358z"/><path fill="#62AC45" d="M23.2 30.056c-.2.027-.358-.004-.55-.06-.1-.028-.38-.25-.517-.297-.194-.065-1.217-.274-1.25-.328-.059-.094.055-.884.12-1.042.202.055 1.467.142.794.388.668.218.927.889 1.403 1.34"/><path fill="#84AC47" d="m24.175 27.198-.64 2.919c-.093-.004-.043-.604-.032-.715.024-.212.475-2.09.55-2.175.049-.055.107-.019.121-.03z"/><path fill="#62AC45" d="M22.467 27.317c.026.29.101.602.122.893l-1.098-1.52.183-.058c.341.127.47.91.793.684"/><path fill="url(#e)" d="M41.622 27.673c.109.55.72 1 1.038 1.52.77 1.26.992 2.566.976 4.02-.009.83-.039 1.707-.488 2.443a6 6 0 0 0-.793-.596c-.256-.141-.478-.194-.733-.297.633-1.894.343-4.177-.793-5.838.41-.467.14-1.089.06-1.609.253.1.492.24.733.357"/><path fill="#F79229" d="M35.156 26.304c2.002 1.1 3.282 1.897 4.148 4.05-.71.343-.995 1.16-1.526 1.608-.19-3.43-2.169-4.154-4.941-5.6.77-.064 1.542-.077 2.317-.058z"/><path fill="#CE4727" d="M44.489 29.64c.013 1.111.05 2.223.06 3.335-.238.244-.573.234-.914.239.016-1.453-.205-2.76-.977-4.022-.317-.52-.927-.97-1.037-1.518 1.262.611 1.806 1.212 2.867 1.965z"/><path fill="#CE4727" d="M45.83 30.474c-.308.153-.316 2.334-.487 2.74-.102.157-.215.368-.305.536l-.488.566c0-.448.003-.895 0-1.34-.01-1.114-.048-2.225-.061-3.336.412.293.895.594 1.342.834"/><path fill="#F15F27" d="M40.89 27.317c.08.52.35 1.141-.06 1.608-.114-.165-.246-.278-.366-.418-.08-.092-.06-.174-.122-.238.146-.226-.107-.57-.275-.715-.045-.04-.934-.55-.762-.119-.227-.178-.473-.31-.701-.477-.084-.06-.353-.223-.213-.357.815.155 1.732.412 2.5.716"/><path fill="#B63D26" d="M45.831 30.474c.115.062-.149.08.244.06.04-.003.082 0 .122 0 .164.303.201.704.183 1.071-.004.077.014.172 0 .239-.062.296-.816 1.03-1.037 1.37.172-.407.178-2.589.488-2.74"/><path fill="#FED567" d="M32.838 26.363c2.772 1.444 4.751 2.168 4.941 5.6.01.18-.057.447.06.595-.034.055-.074.106-.06.179-.205-.782-.136-1.635-.366-2.413-.547-1.85-2.5-2.704-4.087-3.545-.227-.12-.493-.224-.67-.417.06-.005.123.005.183 0z"/><path fill="#F15F27" d="M38.023 26.601c.144.188.36.338.55.477l-2.197-.238c-.33-.19-.736-.293-1.037-.537.97.036 1.739.143 2.684.298"/><path fill="#FED386" d="M35.339 26.304c.3.243.706.346 1.037.536 1.448.83 2.396 1.79 2.99 3.335.066.175.127.387.243.536-.01.016.006.082 0 .118-.009-.029-.201-.218-.304-.476-.866-2.155-2.146-2.95-4.148-4.05.057 0 .095-.005.183 0z"/><path fill="#F79229" d="M32.533 26.363c.04-.004.083.004.122 0 .177.193.444.296.67.417l-.549.15.55.446c-.368-.203-.887-.411-1.282-.477.15-.21-.47-.135-.55-.357.312-.053.743-.15 1.038-.18z"/><path fill="#FCBE7A" d="M38.389 26.601c-.14.134.13.297.213.357.229.167.474.3.702.477.273.215.824.61 1.037.834.062.064.041.146.121.238l-.06.06c-.01-.01-.053.01-.061 0-.56-.632-1.1-.996-1.769-1.49-.188-.139-.405-.289-.549-.477.029.005.233-.025.366 0z"/><path fill="#CE4727" d="M46.075 30.533c-.391.022-.129.003-.244-.059.026-.013.245-.026.244.06"/><path fill="#B63D26" d="M35.4 39.052c.052.609.324 1.322.121 1.846-.006.002.022.106-.03.119-.523.127-1.33.224-1.8.417-.098.04-.2.055-.305.119.097-.21-.081-.312-.122-.536-.089-.503-.122-1.152-.12-1.668 0-.547.031-1.08.183-1.608.078-.175.267-.391.183-.595a8.6 8.6 0 0 1 1.891-1.698c-.125 1.129-.29 2.265-.183 3.395.015.163-.06.236.183.209z"/><path fill="#F1D2B1" d="M20.942 34.524c-.336.645-.702 1.361-.794 2.085-.227.04-.448.13-.67.18.182-.713.514-1.432.854-2.086.04-.077.081-.164.121-.238.354-.658.848-1.409 1.282-2.026.12-.17.243-.314.365-.477z"/><path fill="#B63D26" d="M44.55 32.975c.005.444.002.893 0 1.341l.49-.566c-.445.824-.648 1.39-.733 2.323-.017.183-.12.103-.122.15-.001.043.123.014.122.059-.004.307.011.619 0 .923-.16-.332-.766-1.012-1.038-1.31-.009-.01-.049-.169-.121-.24.45-.735.48-1.611.488-2.441.341-.005.676.005.915-.239"/><path fill="#E37951" d="M40.83 28.925c1.135 1.661 1.426 3.944.793 5.838-.083-.034-.057-.058-.061-.06.477-1.867.33-3.889-.733-5.54a6 6 0 0 0-.427-.595l.06-.06c.12.14.254.252.366.418z"/><path fill="#FFF3CB" d="M30.337 26.84a7.8 7.8 0 0 1 1.707.059c.394.064.914.272 1.282.477.693.384 1.835 1.419 2.257 2.085-.075.063-.251.26-.305.297-.252.172-.27.14-.55.418-.091.09-.702.73-.732.774-.06-3.283-5.037-2.951-7.26-2.144-2.538.922-4.601 3.422-5.795 5.718l1.16-2.562c1.305-1.728 3.006-3.435 5.062-4.289.555-.23 1.18-.394 1.768-.536.114-.028.233-.093.366-.118.056-.012.125.01.183 0 .283-.05.56-.158.854-.18z"/><path fill="#F15F27" d="M39.304 30.354c.103.259.295.448.304.477.339 1.117.158 2.547.061 3.693-.026.018-.084.116-.183.18l.06-3.605-.121-.059c-.207.482-1.395 1.207-1.586 1.519-.118-.148-.05-.415-.061-.595.53-.448.816-1.266 1.526-1.609z"/><path fill="#A94724" d="M31.496 26.542c.078.223.7.146.549.357a7.7 7.7 0 0 0-1.708-.06c.347-.25.76-.23 1.159-.297"/><path fill="#F47729" d="M40.34 28.27c-.211-.224-.763-.62-1.037-.834-.17-.431.719.081.763.119.166.144.42.49.275.715"/><path fill="#E77C24" d="m37.779 32.737-.549 3.514c-.043.05-.083.125-.121.18l.517-3.575-2.104 2.383c.04-.843.06-1.684 0-2.531-.108-.004-.184.185-.244.268h-.183c.453-.513.864-1.332.914-2.025.05-.694-.076-.935-.427-1.49-.422-.665-1.565-1.7-2.257-2.085l-.55-.447.55-.149c1.586.842 3.54 1.693 4.087 3.545.23.778.16 1.63.366 2.413z"/><path fill="#CE4727" d="M39.487 34.703c-.762.482-1.657.853-2.257 1.55l.55-3.515c-.015-.073.027-.122.06-.179.191-.311 1.38-1.037 1.586-1.519l.122.06z"/><path fill="#F79229" d="M38.572 27.078c.67.494 1.208.858 1.769 1.49-.26.584-.51 1.156-.977 1.608-.593-1.545-1.54-2.505-2.989-3.335l2.196.238z"/><path fill="#CE4727" d="M41.562 34.704c-.088-.035-.339.033-.428 0-.274-.107-.352-.416-.58-.596-.068-.055-.086.062-.092.06-.153-.079.096-.176-.091-.18-.076.014-.372.415-.458.477-.018.013-.223.045-.244.06.097-1.147.278-2.576-.06-3.694.005-.037-.01-.102 0-.119.323-.548.846-1.029 1.22-1.549 1.062 1.651 1.207 3.672.731 5.54z"/><path fill="#F15F27" d="M40.402 28.568c.138.161.31.414.427.595-.374.52-.896 1-1.22 1.55-.114-.15-.176-.361-.243-.537.465-.451.717-1.024.976-1.608.01.01.053-.01.061 0z"/><path fill="#CE4727" d="M37.107 36.43c-.751 1.004-.912 1.698-.67 2.92.065.325.273.891.428 1.19.019.038.04.082.06.119-.389.036-.76.209-1.129.297-.142.034-.252-.065-.275-.059.202-.525-.07-1.237-.121-1.847-.12-1.429.056-2.427.121-3.812l2.105-2.383z"/><path fill="#F15F27" d="M35.522 35.24c-.066 1.385-.243 2.384-.121 3.812-.243.027-.168-.046-.184-.209-.105-1.13.057-2.265.184-3.395a8.6 8.6 0 0 0-1.891 1.698c-.606.72-1.478 2.095-1.464 3.037-.073.056-.173 0-.183 0l.275-1.965c-.071.007-.151-.027-.213.03-.115.104-.602 1.425-.854 1.639-.225-.123-.437-.33-.489-.357l.794-1.191c.578-.367 2.268-2.882 2.745-3.574.396-.575.764-1.238 1.158-1.787.06-.083.136-.271.245-.269.059.848.04 1.688 0 2.532z"/><path fill="#B63D26" d="M33.326 37.741c-.094.21-.24.375-.304.744-.017.1-.13.93.121.864 0 .518.032 1.165.121 1.668-.08-.08-.197-.04-.244-.06-.088-.038-.423-.341-.518-.297-.028.013-.125.377-.305.536-.359.318-1.507.766-2.012.715-.043-.064.256-.345.275-.357.34-.213 1.488-.236 1.403-.744.175-.204.085.06.152.09.016.006.212-.251.213-.269.013-.193-.178-.095-.183-.447-.014-.942.859-2.318 1.464-3.037.085.204-.105.42-.184.595z"/><path fill="#CE4727" d="M33.326 37.741c-.15.529-.182 1.06-.183 1.608-.25.066-.14-.764-.121-.864.064-.37.21-.535.304-.744"/><path fill="#F3A95A" d="m36.009 30.95-.793 1.4a17.1 17.1 0 0 1-6.467 4.438c-.65.205-1.266.398-1.952.477-.366.043-.68.037-1.037.06-.961.061-1.994-.15-2.898.238.285-.028.54.067.824.06.447.052.897.117 1.343.178.587.081 1.34.251 1.922.239 1.493-.034 3.644-1.588 4.85-2.383 1.365-.9 2.173-1.412 3.293-2.68h.184c-.394.548-.764 1.212-1.16 1.787-.411.11-.677.67-.976.982-.416.437-1.436 1.4-1.922 1.698-.832.512-1.855.574-2.714 1.013-.098-.029-.199-.065-.305-.059-.429.021-.424.33-.549.655-.001.004-.036-.023-.06.059l-2.136-.06c-.18-.16-.439-.278-.67-.356-.206-.07-.593-.182-.793-.18-.59.008-.97.197-1.343.596-.241.257-.332.34-.427.715-.02.075-.057.23-.06.298l-.977-.119c.631-.723 1.055-2.166.61-3.037.543-.114 1.059-.313 1.586-.477.975-.035 2.053.058 3.02-.06 2.103-.257 5.691-2.419 7.229-3.87.594-.562.89-.702 1.281-1.49.217-.438.45-.768.366-1.31.055-.039.23-.237.305-.299.35.555.477.794.427 1.49z"/><path fill="#FCEA7C" d="M34.118 34.763c-.476.691-2.166 3.206-2.745 3.573-.414.264-1.323.352-1.768.655-.069-.035-.21-.073-.305-.119-.081-.039-.162-.082-.244-.118-.145-.064-.456-.27-.55-.298.86-.439 1.884-.5 2.715-1.013.484-.299 1.506-1.261 1.922-1.698.297-.312.563-.873.977-.982z"/><path fill="#FCBE7A" d="M27.47 39.886c0 .32.082.708.183 1.012l-1.647-.179a3 3 0 0 0-.061-.953l1.525.118z"/><path fill="#FCEA7C" d="M27.592 39.111a2.8 2.8 0 0 0-.121.775l-1.526-.119c-.02-.073-.114-.16-.121-.18a1.7 1.7 0 0 0-.366-.535l2.135.059z"/><path fill="#FBBA57" d="M21.309 36.49c-.105-.026-.418-.007-.55 0-.194.008-.415.085-.61.118.093-.724.458-1.44.794-2.085 1.194-2.296 3.257-4.796 5.795-5.718.252.406-.112.281-.336.418a11.6 11.6 0 0 0-3.57 3.424c-.723 1.071-1.569 2.56-1.525 3.843z"/><path fill="#FDEEB0" d="M34.912 31.07c-.39.788-.688.927-1.282 1.49-.058-.363.004-.733.121-1.073.05-.143.165-.414.245-.536.03-.044.64-.684.732-.775z"/><path fill="#FED386" d="M35.279 29.759c.083.542-.15.872-.366 1.31l-.183-.893c.279-.277.297-.246.549-.417"/><path fill="#FDEEB0" d="M36.01 30.95c-.051.695-.462 1.512-.915 2.027-1.12 1.269-1.929 1.78-3.294 2.68-.737-.011-1.527.636-2.227.893-.272.1-.555.154-.825.239a17.14 17.14 0 0 0 6.467-4.438z"/><path fill="#CE4727" d="M31.862 40.183c-.06 0-.124-.02-.122.06-.076-.047-.165-.077-.244-.119-.143-.077-.285-.162-.428-.238.252-.214.74-1.536.854-1.639.062-.057.142-.023.213-.03l-.275 1.965z"/><path fill="#FED567" d="m31.373 38.336-.793 1.191c-.022-.011-.095.012-.121 0-.064-.166-.305-.178-.428-.238-.136-.068-.362-.264-.427-.298.447-.303 1.355-.392 1.768-.655z"/><path fill="#FFF3CB" d="M33.63 32.559c-1.536 1.453-5.125 3.615-7.228 3.871-.965.118-2.045.024-3.02.06 2.202-.688 5.226-1.107 7.168-2.263 1.148-.685 2.266-1.8 3.202-2.74-.117.34-.18.71-.121 1.072"/><path fill="#FCEA7C" d="M31.8 35.656c-1.206.795-3.355 2.349-4.849 2.383-.58.012-1.334-.158-1.922-.239.144-.283.658-.174.946-.238l.824-.298c.686-.08 1.302-.272 1.952-.477.27-.084.551-.137.824-.238.699-.259 1.49-.904 2.227-.893z"/><path fill="#FDEEB0" d="M25.762 37.324c-.498.194-1.499.283-2.075.297-.283.007-.539-.087-.824-.059.904-.389 1.936-.175 2.897-.238z"/><path fill="#FDEEB0" d="m26.799 37.264-.824.298c-.288.064-.802-.046-.946.238-.445-.06-.895-.125-1.342-.179.576-.014 1.577-.103 2.075-.298.357-.022.671-.017 1.037-.059"/><path fill="#FCBE7A" d="M33.996 30.95c-.08.123-.195.394-.244.537-.936.94-2.054 2.056-3.202 2.74-1.942 1.156-4.965 1.576-7.168 2.263-.526.163-1.043.362-1.587.476-.107-.21-.159-.252-.365-.357-.01-.005-.114-.117-.122-.118-.045-1.283.801-2.772 1.526-3.843a11.6 11.6 0 0 1 3.57-3.424c.221-.135.586-.012.335-.418 2.222-.807 7.198-1.139 7.26 2.145z"/><path fill="#FCBE7A" d="M31.617 31.19c-.35.296-.694.588-1.037.892-.021-.214.228-1.327-.153-1.251l-.275.238c.036-.073.248-.307.092-.357-1.59-.063-3.116.687-3.935 2.026-.128.21-.301.385-.213.655.447.005.899.008 1.342-.06.443-.066 1.077-.305 1.526-.356.115-.013.674-.136.58.118-.004.003.016.02-.061.06-1.142-.016-2.163.486-3.202.833-.113.038-.62-.031-.641.298-.534.155-1.17.198-1.708.477.28-.68.59-1.338.977-1.965 1.133-1.84 4.365-4.337 6.557-2.8.595.418.175.656.152 1.191z"/><path fill="#FDEEB0" d="M31.617 31.19c.023-.536.443-.775-.152-1.192-2.194-1.537-5.425.96-6.558 2.8-.502.258-.798 1.015-1.037 1.518-.068.145-.037.49-.06.536-.038.07-.854.42-.915.626-.115.024-.379.237-.428.149.478-3.006 3.235-6.017 6.436-6.285 1.068-.09 3.242-.01 3.751 1.042-.311.312-.702.521-1.037.805"/><path fill="#FED386" d="M30.58 32.082c-.378.336-.513.718-1.036 1.013.095-.256-.466-.132-.58-.118-.447.051-1.075.29-1.526.357-.451.066-.895.064-1.342.059-.087-.27.085-.447.213-.655 1.547-.699 2.97.11 3.843-1.667l.275-.239c.381-.075.132 1.036.152 1.252z"/><path fill="#FCEA7C" d="M24.907 32.797a13.5 13.5 0 0 0-.976 1.966c-.084.205-.01.43-.153.536-.04.03-.747.15-.884.179.062-.207.878-.556.914-.626.025-.045-.008-.39.06-.536.24-.505.534-1.26 1.038-1.519z"/><path fill="#FDEEB0" d="M29.483 33.154c-.728.364-2.906.86-3.843 1.132.022-.33.529-.26.64-.298 1.04-.347 2.063-.849 3.203-.834"/><path fill="#F3A95A" d="M31.22 32.678c.194.024.052.094.031.149-.115.283-.71.78-1.006.923l.977-1.072z"/><path fill="#FDEEB0" d="M30.154 31.07c-.872 1.777-2.296.968-3.843 1.667.819-1.339 2.344-2.088 3.934-2.026.157.05-.055.284-.091.357z"/></g><defs><linearGradient id="b" x1="15.633" x2="36.557" y1="41.848" y2="47.529" gradientUnits="userSpaceOnUse"><stop stop-color="#FBDFD1"/><stop offset="1" stop-color="#D1C1A5"/></linearGradient><linearGradient id="c" x1="57.38" x2="37.817" y1="43.723" y2="46.469" gradientUnits="userSpaceOnUse"><stop stop-color="#C4A67A"/><stop offset=".85" stop-color="#A68063"/></linearGradient><linearGradient id="d" x1="35.397" x2="47.292" y1="46.365" y2="46.445" gradientUnits="userSpaceOnUse"><stop stop-color="#C19C81"/><stop offset="1" stop-color="#A88D6B"/></linearGradient><linearGradient id="e" x1="41.655" x2="42.892" y1="29.931" y2="34.356" gradientUnits="userSpaceOnUse"><stop stop-color="#D84D27"/><stop offset="1" stop-color="#B63C26"/></linearGradient><filter id="a" width="70" height="70" x="0" y="0" color-interpolation-filters="sRGB" filterUnits="userSpaceOnUse"><feFlood flood-opacity="0" result="BackgroundImageFix"/><feBlend in="SourceGraphic" in2="BackgroundImageFix" result="shape"/><feColorMatrix in="SourceAlpha" result="hardAlpha" values="0 0 0 0 0 0 0 0 0 0 0 0 0 0 0 0 0 0 127 0"/><feMorphology in="SourceAlpha" radius="3" result="effect1_innerShadow_345_22106"/><feOffset/><feGaussianBlur stdDeviation="1"/><feComposite in2="hardAlpha" k2="-1" k3="1" operator="arithmetic"/><feColorMatrix values="0 0 0 0 0 0 0 0 0 0 0 0 0 0 0 0 0 0 0.08 0"/><feBlend in2="shape" result="effect1_innerShadow_345_22106"/></filter></defs></svg>