<svg width="70" height="70" viewBox="0 0 70 70" fill="none" xmlns="http://www.w3.org/2000/svg">
<g filter="url(#filter0_i_344_12246)">
<path d="M0 35C0 15.67 15.67 0 35 0C54.33 0 70 15.67 70 35C70 54.33 54.33 70 35 70C15.67 70 0 54.33 0 35Z" fill="white" fill-opacity="0.75"/>
<path d="M35.0668 43.0678C35.0917 44.2738 35.0064 45.5107 35.0668 46.7136C35.1219 47.8074 35.2007 49.758 35.4027 50.7755C35.4189 50.8589 35.5603 50.9352 35.6035 50.999C35.5592 51.0011 35.5139 50.999 35.4696 50.999C35.3541 51 35.3238 50.9403 35.2018 50.9352L29.3667 47.0967C29.3732 47.0772 29.3613 47.0524 29.3667 47.0329L34.6652 46.7445L29.5006 43.834C31.3222 43.6538 33.1265 43.2099 34.933 42.938H34.9999C35.0031 43.0987 35.0668 43.0585 35.0668 43.0657V43.0678Z" fill="#5A2B36"/>
<path d="M26.6823 42.1079L24.5357 44.0915C24.4223 44.1399 24.3132 44.2007 24.1999 44.2511C25.7429 45.3305 27.4824 46.1327 29.1625 47.002C26.9652 46.8197 24.7873 46.3707 22.5899 46.2028C22.4938 46.1956 22.2217 46.0596 22.0867 46.0751C21.9993 46.1111 21.7876 47.518 21.8524 47.6426C21.86 47.656 21.9712 47.6714 22.1202 47.8022C21.8816 47.8516 21.7239 47.727 21.5501 47.6106C20.7618 47.0782 17.8993 44.3428 17.2914 43.5807C17.2968 43.5395 17.2817 43.4849 17.2914 43.4529C18.138 43.4787 21.576 46.003 21.9863 45.9474C22.2951 45.9062 24.0746 44.3201 24.066 44.1883L19.6399 40.1264L19.573 39.9987C19.5611 39.9245 19.6378 39.9389 19.6399 39.9348C20.1053 40.1573 20.5146 40.4714 21.0145 40.6382C21.9323 40.9441 25.8908 42.0667 26.6823 42.11V42.1079Z" fill="#9B4F57"/>
<path d="M29.3658 43.8351C29.4587 44.4994 29.5343 46.4366 29.3658 47.034C29.3604 47.0536 29.3723 47.0783 29.3658 47.0978C29.1931 47.6138 28.068 48.8394 27.8228 49.4965C27.7289 49.7488 27.8822 49.5706 27.8898 49.7848C27.6792 49.7375 27.4827 49.6437 27.2862 49.5933L22.5913 46.2029C24.7897 46.3707 26.9677 46.8208 29.1639 47.0021C27.4838 46.1328 25.7432 45.3305 24.2013 44.2512C24.3146 44.2007 24.4237 44.14 24.5371 44.0916C25.104 43.8485 28.2407 43.9216 29.232 43.8362C29.2751 43.832 29.3227 43.8403 29.3658 43.8362V43.8351Z" fill="#803741"/>
<path d="M53.9794 30.402C53.9632 32.0612 53.7505 33.7306 53.9125 35.3919C53.8412 36.3332 53.9881 37.3621 53.9125 38.3024C53.7807 39.9523 53.2722 41.6773 53.2419 43.3561C53.1869 43.4797 52.9547 43.525 52.9061 43.5796C52.7712 43.6259 52.7161 43.2963 52.7053 43.2273C52.5584 42.319 52.6297 40.9585 52.3695 40.1253C52.35 40.0625 52.3619 40.0048 52.3025 39.9337L48.9487 39.2942C50.0037 38.6041 51.6017 38.4342 52.6373 37.5351C53.0227 35.5773 53.2139 33.5772 53.5767 31.6183C53.6242 31.3629 53.716 31.1075 53.7775 30.851C53.8283 30.6409 53.8779 30.4648 53.8445 30.2434L53.9783 30.403L53.9794 30.402Z" fill="#0D172A"/>
<path d="M35.2004 50.9363C33.3237 50.8519 29.7691 50.2072 27.8903 49.7849C27.8827 49.5707 27.7294 49.7499 27.8233 49.4965C28.0674 48.8395 29.1925 47.6128 29.3663 47.0979L35.2015 50.9363H35.2004Z" fill="#894B59"/>
<path d="M16.8239 33.5999C17.5581 35.7833 18.7448 37.8225 19.5071 39.9966C19.3214 40.0934 17.3627 43.2295 17.2936 43.4509C17.2839 43.4828 17.299 43.5374 17.2936 43.5786C17.1295 43.3726 17.1619 43.4231 17.0258 43.1944L17.2266 43.3541C17.692 40.0975 17.2623 36.807 16.623 33.5989H16.8239V33.5999Z" fill="#DCC3C7"/>
<path d="M16.6228 33.6001C17.262 36.8082 17.6918 40.0987 17.2264 43.3553L17.0256 43.1956C15.7547 41.0679 15.9393 37.5127 16.1531 35.1037C16.2114 34.4425 16.3248 33.563 16.5559 32.9924C16.5559 33.1922 16.5839 33.4054 16.6228 33.6001Z" fill="#C4A6A9"/>
<path d="M18.366 33.9202C19.2471 34.7328 19.4414 35.0675 20.5126 35.7751C21.1777 36.2149 21.9886 36.7133 22.7261 36.9904C22.7261 36.9986 22.8287 37.0213 22.7261 37.1181C21.9746 37.0501 20.83 37.2921 20.0429 37.3096C19.7686 37.1222 18.0161 34.8883 17.6954 34.463C17.3348 33.9841 17.0724 33.4238 16.6891 32.9593C16.6491 32.8244 16.5897 32.7111 16.5552 32.5752C16.648 32.4938 16.7906 32.5917 16.8575 32.639C17.2862 32.9449 17.9697 33.5515 18.367 33.9182L18.366 33.9202Z" fill="#A08079"/>
<path d="M20.0428 37.3105C20.0428 37.3105 20.0341 37.3301 20.1097 37.3744C19.9791 38.2065 19.7231 39.0304 19.64 39.8688C19.6378 39.8914 19.6465 39.9192 19.64 39.9326C19.6378 39.9367 19.5612 39.9223 19.5731 39.9965H19.5061C18.7438 37.8213 17.5571 35.7821 16.8229 33.5998C16.743 33.3608 16.743 33.1446 16.689 32.9602C17.0723 33.4247 17.3347 33.985 17.6953 34.4639C18.016 34.8902 19.7685 37.1231 20.0428 37.3105Z" fill="#C4A6A9"/>
<path d="M22.5919 46.2029L27.2868 49.5933C26.5115 49.3946 22.5293 48.1577 22.1222 47.8023C21.9732 47.6715 21.8609 47.6561 21.8544 47.6427C21.7896 47.5191 22.0013 46.1112 22.0887 46.0752C22.2237 46.0597 22.4958 46.1957 22.5919 46.2029Z" fill="#803741"/>
<path d="M52.907 43.5797C52.3401 44.2337 49.0004 47.3914 48.3795 47.7374C47.533 48.2101 43.9783 49.2452 42.8802 49.5284C41.2918 49.9383 37.0926 50.9188 35.6035 51.0001C35.5604 50.9363 35.4189 50.8601 35.4027 50.7766C35.2019 49.7591 35.122 47.8085 35.0669 46.7147C36.8852 46.964 38.7446 46.9392 40.5662 47.0989C40.5889 47.1009 40.6116 47.0968 40.6332 47.0989C44.0345 47.3975 45.0743 48.3595 48.1452 46.0113C49.3772 45.0689 51.2139 42.6744 51.9007 41.3098C52.0929 40.9288 52.0939 40.4509 52.3704 40.1265C52.6295 40.9607 52.5593 42.3201 52.7062 43.2285C52.717 43.2965 52.772 43.6261 52.907 43.5807V43.5797Z" fill="url(#paint0_linear_344_12246)"/>
<path d="M39.7615 42.1079L40.5659 47.0978C38.7443 46.9381 36.8849 46.9629 35.0666 46.7136C35.0061 45.5107 35.0914 44.2738 35.0666 43.0678C35.032 42.9349 35.2026 42.8968 35.3009 42.8762C36.4616 42.6342 38.6525 42.559 39.6265 42.1089C39.6492 42.0986 39.7183 42.1151 39.7604 42.1089L39.7615 42.1079Z" fill="#251823"/>
<path d="M29.4991 43.8352L34.6637 46.7457L29.3652 47.034C29.5337 46.4367 29.4581 44.4995 29.3652 43.8352C29.4084 43.8311 29.4559 43.8393 29.4991 43.8352Z" fill="#5A2B36"/>
<path d="M34.8648 40.5085C35.1218 41.2109 34.9814 42.1646 34.9987 42.9391H34.9318C33.0162 42.5148 31.0888 42.1121 29.1636 41.7238C30.9398 41.2768 33.0259 40.6867 34.8648 40.5085Z" fill="#5A2B36"/>
<path d="M29.1648 41.7247C31.089 42.1129 33.0164 42.5156 34.933 42.94C33.1266 43.2108 31.3222 43.6557 29.5007 43.836C29.4575 43.8401 29.41 43.8318 29.3668 43.836C29.2825 43.2294 28.761 42.1747 28.7632 41.7247C28.7632 41.7041 28.761 41.6814 28.7632 41.6608C28.9111 41.6361 29.0288 41.6969 29.1659 41.7247H29.1648Z" fill="#894B59"/>
<path d="M34.9986 40.3807L39.6265 42.1078C38.6526 42.5589 36.4617 42.633 35.3009 42.8751C35.2016 42.8957 35.0321 42.9348 35.0666 43.0666C35.0666 43.0594 35.0029 43.0996 34.9997 42.9389C34.9824 42.1644 35.1228 41.2097 34.8658 40.5084C34.8755 40.5084 34.8215 40.3343 34.9997 40.3807H34.9986Z" fill="#3D2431"/>
<path d="M23.3965 38.462L28.6949 41.7248C28.182 41.8731 27.4813 42.0976 26.9511 42.1089C26.8625 42.111 26.7708 42.1141 26.6833 42.1089C25.8918 42.0657 21.9334 40.9441 21.0155 40.6372C20.5156 40.4703 20.1053 40.1562 19.641 39.9338C19.6475 39.9204 19.6388 39.8926 19.641 39.8699L23.1287 38.3982C23.2248 38.4178 23.3284 38.4507 23.3965 38.462Z" fill="#9B4F57"/>
<path d="M19.6409 40.1255L21.9883 45.9465C21.578 46.0011 18.14 43.4768 17.2935 43.4521C17.3626 43.2296 19.3202 40.0946 19.507 39.9978H19.574L19.6409 40.1255Z" fill="#AD787E"/>
<path d="M21.9886 45.9462L19.6411 40.1252L24.0671 44.1872C24.0758 44.319 22.2963 45.905 21.9875 45.9462H21.9886Z" fill="#A96167"/>
<path d="M26.951 42.108L29.2315 43.8351C28.2403 43.9216 25.1035 43.8485 24.5366 44.0905L26.6832 42.1069C26.7707 42.1121 26.8635 42.109 26.951 42.1069V42.108Z" fill="#A96167"/>
<path d="M28.762 41.7249C28.7598 42.1739 29.2813 43.2295 29.3656 43.8361C29.3224 43.8403 29.2749 43.832 29.2317 43.8361L26.9512 42.109C27.4813 42.0987 28.1821 41.8732 28.695 41.7249H28.762Z" fill="#AD787E"/>
<path d="M48.9498 39.2931C48.9098 39.3199 48.8461 39.2776 48.682 39.4208L45.3951 38.3971C45.3735 38.2961 45.4588 38.1798 45.2612 38.2055C46.49 37.775 51.7896 34.6451 52.4375 33.7594C52.8478 33.1992 53.0929 32.1744 53.5777 31.6162C53.216 33.5761 53.0248 35.5751 52.6383 37.533C51.6017 38.4321 50.0047 38.602 48.9498 39.292V39.2931Z" fill="#1A2F50"/>
<path d="M53.7781 30.849C53.7166 31.1055 53.6237 31.3609 53.5773 31.6163C53.0925 32.1735 52.8474 33.1982 52.437 33.7595C51.7892 34.6452 46.4896 37.7751 45.2608 38.2056C44.1379 38.599 41.9945 38.8503 41.0356 39.357C41.3196 38.7793 41.9956 38.5228 42.4102 38.0779C42.5765 37.8997 42.4577 38.0182 42.3767 37.8863C43.8744 37.4764 44.6281 37.2993 46.0653 36.6711C46.3579 36.5433 46.9237 36.4785 47.172 36.3508C47.5629 36.151 48.038 35.5505 48.4127 35.2632C49.2096 34.6524 50.2472 34.0839 50.6262 33.1519C50.69 33.0932 50.7321 33.0386 50.7601 32.9603C51.3162 33.1395 51.7427 32.6761 51.9673 32.2569C52.1142 31.983 52.1055 31.8326 52.1682 31.5535C52.2362 31.2528 52.2999 30.9685 52.3021 30.6575L53.777 30.849H53.7781Z" fill="#3E5A7A"/>
<path d="M52.303 39.9329C52.3624 40.005 52.3505 40.0627 52.3699 40.1245C52.0935 40.4489 52.0924 40.9268 51.9002 41.3078C51.2135 42.6735 49.3768 45.067 48.1448 46.0093C47.9871 45.4264 46.3286 43.5458 45.8643 43.3223L52.303 39.9319V39.9329Z" fill="#322D44"/>
<path d="M48.9495 39.2932L52.3033 39.9328L45.8646 43.3232C45.8322 43.3078 45.7296 43.3181 45.6637 43.2594C45.6583 43.2192 45.6745 43.1584 45.6637 43.1316C45.7393 43.143 45.7274 43.0709 45.7307 43.0678C46.8256 42.1182 47.6743 40.2984 48.6817 39.422C48.8458 39.2788 48.9096 39.32 48.9495 39.2942V39.2932Z" fill="#322D44"/>
<path d="M22.7256 37.118C23.1673 37.1581 24.7265 37.7091 25.2404 37.8852C25.884 38.1067 26.5221 38.3981 27.1516 38.6525C25.9423 38.5145 24.599 38.6649 23.3962 38.461C23.3281 38.4496 23.2245 38.4167 23.1284 38.3971C22.7656 38.324 20.3793 37.531 20.1104 37.3734C20.0348 37.3291 20.0467 37.3116 20.0435 37.3095C20.8306 37.292 21.9752 37.05 22.7267 37.118H22.7256Z" fill="#392729"/>
<path d="M22.7258 36.9903C21.9883 36.7133 21.1774 36.2148 20.5122 35.7751C20.6504 35.8101 20.6385 35.7122 20.6461 35.7112C20.8394 35.6813 22.201 35.6741 22.3565 35.7112C22.7247 35.7988 22.7301 36.6608 22.7258 36.9903Z" fill="#A08079"/>
<path d="M23.1273 38.3982L19.6396 39.8699C19.7217 39.0305 19.9787 38.2076 20.1094 37.3755C20.3782 37.5331 22.7645 38.3251 23.1273 38.3992V38.3982Z" fill="#AD787E"/>
<path d="M45.6627 43.1316C45.6735 43.1584 45.6573 43.2192 45.6627 43.2593L40.6331 47.0978C40.6104 47.0957 40.5878 47.0998 40.5662 47.0978L39.7617 42.1079C40.2552 41.7814 40.4625 39.9698 40.835 39.4848C40.8728 39.4363 40.8793 39.4405 40.902 39.4209C41.6179 40.2613 45.3485 42.3674 45.6638 43.1316H45.6627Z" fill="#251823"/>
<path d="M45.8648 43.3234C46.3281 43.5469 47.9877 45.4275 48.1453 46.0104C45.0744 48.3586 44.0346 47.3966 40.6333 47.098L45.6629 43.2595C45.7288 43.3182 45.8324 43.3079 45.8638 43.3234H45.8648Z" fill="#322D44"/>
<path d="M40.8338 39.4859C40.4612 39.9709 40.2539 41.7815 39.7605 42.109C39.7184 42.1152 39.6493 42.0987 39.6266 42.109L34.9986 40.3819L34.8647 40.1903C36.1637 40.1666 38.2661 39.7001 39.6935 39.5507C40.0509 39.5137 40.4774 39.4055 40.8338 39.4869V39.4859Z" fill="#564C5C"/>
<path d="M34.8647 40.1892L34.9986 40.3808C34.8205 40.3355 34.8745 40.5075 34.8647 40.5085C33.0259 40.6867 30.9397 41.2778 29.1635 41.7238C29.0264 41.696 28.9087 41.6342 28.7607 41.6599C28.8158 41.1069 29.7023 39.9215 29.834 39.2932C31.0391 39.5219 33.8055 40.2088 34.8637 40.1892H34.8647Z" fill="#5A2B36"/>
<path d="M27.152 38.6538C27.3074 38.6713 27.4662 38.696 27.6217 38.7176C28.425 38.8309 29.1074 39.1553 29.8352 39.2933C29.7035 39.9216 28.817 41.107 28.7619 41.66C28.7598 41.6806 28.7619 41.7033 28.7619 41.7239H28.695L23.3965 38.4612C24.5994 38.6651 25.9426 38.5147 27.152 38.6527V38.6538Z" fill="#5A2B36"/>
<path d="M45.2609 38.2057C45.4585 38.18 45.3732 38.2974 45.3948 38.3973C45.6993 39.8247 45.465 41.6013 45.7306 43.0669C45.7274 43.07 45.7393 43.1421 45.6637 43.1307C45.3484 42.3665 41.6177 40.2604 40.9019 39.42C40.9936 39.3407 41.0055 39.3726 41.0357 39.3561C41.9957 38.8494 44.138 38.5981 45.2609 38.2047V38.2057Z" fill="#1B1928"/>
<path d="M48.6819 39.4219C47.6744 40.2994 46.8257 42.1182 45.7308 43.0678C45.4652 41.6012 45.6995 39.8246 45.395 38.3982L48.6819 39.4219Z" fill="#322D44"/>
<path d="M38.6212 38.7813L40.4655 39.2932L39.6945 39.5486C38.267 39.698 36.1647 40.1645 34.8657 40.1882C33.8075 40.2078 31.0401 39.5218 29.8361 39.2922C29.1094 39.1542 28.427 38.8297 27.6226 38.7165L27.9584 37.7566C31.7225 38.5774 34.7254 39.355 38.6223 38.7803L38.6212 38.7813Z" fill="#767081"/>
<path d="M53.0408 25.924C52.7935 25.9869 53.3636 26.3772 53.3766 26.404C53.4608 26.5811 53.4263 27.3566 53.7124 27.4916L52.3713 27.9076C52.3411 27.7758 52.2579 27.6635 52.2374 27.5873C52.1824 27.3906 52.2806 26.955 52.1705 26.7232C52.0474 26.4637 51.365 26.3051 51.1307 26.1156C50.8305 25.8736 49.9235 25.1599 49.7226 24.9642C49.5509 24.7973 49.3026 24.1114 49.186 24.0682C49.0694 24.0249 48.6914 24.1135 48.5824 24.0682C48.5046 24.0362 48.3643 23.8189 48.3481 23.8128C48.0889 23.6078 48.1407 23.2206 47.9118 23.0455C47.7542 22.925 44.6228 21.8786 44.1229 21.7025C43.0291 21.3163 42.081 20.8106 40.8706 20.6149C40.5672 20.5665 39.4323 20.4357 39.1937 20.4872C39.1656 20.4934 39.1019 20.7828 38.8913 20.7426C38.7283 20.6293 38.1344 20.1257 38.0869 20.1031L40.8036 19.7189L40.7032 19.5273C44.4889 20.3173 50.7193 22.9054 53.044 25.924H53.0408Z" fill="#564C5C"/>
<path d="M40.6998 19.5263L40.8003 19.7178L38.0835 20.102C38.0382 20.0804 37.1614 19.8486 37.1106 19.8466C36.7921 19.8322 36.4617 20.0999 36.3732 20.102C36.1442 20.1082 35.6864 19.9537 35.2664 19.9743C34.6736 19.7601 34.0084 19.8157 33.3886 19.8466C33.001 19.8662 33.136 19.7487 32.6512 19.9104C32.2376 20.0484 31.9147 20.3389 31.5109 20.4861C31.4515 20.5078 31.3727 20.5304 31.3101 20.55C31.0164 20.3121 30.3523 20.5655 29.9355 20.55C29.8848 20.5479 29.4161 20.3152 28.9961 20.3584C28.8795 20.3708 27.0892 20.9671 26.8495 21.0619C26.5472 21.1824 25.5624 21.8992 25.3745 21.9579C25.1748 22.0197 24.637 21.9208 24.1673 22.0856C24.1112 22.1052 24.0108 22.272 24 22.2771C23.8002 22.375 23.3294 22.5861 23.0605 22.789C23.5475 22.2895 23.1307 22.2638 23.1275 21.7014C28.5761 19.3306 34.7513 18.2853 40.6998 19.5263Z" fill="#81685A"/>
<path d="M23.0606 22.7892C22.8004 22.9859 22.4894 23.5091 22.3901 23.5565C22.1579 23.6688 21.7757 23.5853 21.5522 23.6842C20.2294 24.2682 18.6962 25.985 17.8302 27.0746C17.5041 27.4845 16.8465 28.6524 16.556 28.8976C16.3951 29.0335 16.4146 28.9089 16.2202 28.9295C16.298 28.3332 16.678 26.3475 16.9577 25.8913C17.1542 25.571 20.2489 23.0354 20.6797 22.7892C21.2142 22.4834 22.4905 21.9787 23.1276 21.7017C23.1308 22.264 23.5476 22.2887 23.0606 22.7892Z" fill="#9A805E"/>
<path d="M22.3903 23.5574V23.6851C21.073 23.9395 21.4606 24.0888 20.546 24.7727C19.6314 25.4565 19.6271 25.4369 18.8691 26.2444C18.7946 26.3237 18.353 26.4143 18.2321 26.6605C18.2105 26.7047 18.0345 27.541 18.0312 27.6203C18.0312 27.643 18.2385 27.9221 18.2321 27.9406C18.2094 28.0024 17.7969 28.0652 17.7623 28.1322C17.7127 28.228 17.8822 29.7656 17.8962 30.0509C17.8984 30.1024 17.7483 30.4206 17.7623 30.6905C17.8034 31.5257 19.4166 33.3589 20.2437 33.7287C20.3009 33.8141 20.3754 33.9099 20.4445 33.9841L18.3649 33.9202C17.9675 33.5536 17.2851 32.947 16.8553 32.6411C16.7884 32.5937 16.6469 32.4948 16.553 32.5772C16.5282 32.4804 16.4515 32.398 16.4191 32.2569C16.4796 31.9995 17.7321 31.5288 17.7602 31.4577C17.7796 31.4093 17.6533 30.5803 17.5593 30.4659C17.7537 30.0818 17.7462 29.8068 17.6598 29.3784L16.2183 29.7625C16.4569 29.1528 17.5259 28.5102 17.9621 27.8757L17.8282 27.0765C18.6942 25.9869 20.2286 24.2701 21.5502 23.6861C21.7737 23.5872 22.1571 23.6707 22.3881 23.5584L22.3903 23.5574Z" fill="#836746"/>
<path d="M53.041 25.9241C54.177 27.3989 53.9966 28.6595 53.9804 30.4021L53.8466 30.2425C53.88 30.4639 53.8304 30.64 53.7796 30.8501L52.3046 30.6586C52.3046 30.5257 52.3781 30.2631 52.3716 30.2425C52.35 30.1755 51.903 29.95 51.9019 29.9222C51.8976 29.7636 52.8078 30.0272 52.6394 28.7069C52.6242 28.5854 52.4472 28.3403 52.4385 28.2908C52.4158 28.1662 52.3997 28.0303 52.3716 27.9067L53.7127 27.4906C53.4265 27.3557 53.4622 26.5802 53.3769 26.403C53.3639 26.3773 52.7938 25.9859 53.041 25.9231V25.9241Z" fill="#3E4A67"/>
<path d="M17.5616 30.466C17.3608 30.8625 16.5769 31.5968 16.2875 32.0016C16.1849 31.4959 16.0726 30.4011 16.0866 29.8903C16.118 29.8841 16.2173 29.7708 16.2205 29.7626L17.662 29.3784C17.7484 29.8069 17.756 30.0808 17.5616 30.466Z" fill="#9A805E"/>
<path d="M16.2203 29.7624C16.2171 29.7707 16.1177 29.885 16.0864 29.8902C16.0929 29.645 16.1847 29.2042 16.2203 28.9303C16.4147 28.9087 16.3952 29.0343 16.5561 28.8984C16.8466 28.6532 17.5042 27.4853 17.8303 27.0754L17.9642 27.8746C17.5279 28.5101 16.4589 29.1517 16.2203 29.7614V29.7624Z" fill="#836746"/>
<path d="M16.421 32.2568C16.4178 32.2424 16.299 32.0632 16.2871 32.0014C16.5765 31.5977 17.3604 30.8634 17.5612 30.4658C17.6552 30.5801 17.7815 31.4092 17.7621 31.4576C17.734 31.5297 16.4815 31.9993 16.421 32.2568Z" fill="#81685A"/>
<path d="M44.1206 21.7014C43.8884 21.5902 43.0397 21.5994 42.9469 21.5737C42.0366 21.3193 41.4935 20.5829 40.3316 20.8064C39.2799 21.0083 39.944 21.4758 38.8901 20.7426C39.0996 20.7827 39.1644 20.4923 39.1925 20.4871C39.43 20.4356 40.566 20.5664 40.8694 20.6149C42.0798 20.8095 43.0279 21.3162 44.1217 21.7024L44.1206 21.7014Z" fill="#392729"/>
<path d="M20.4454 33.984C20.5296 34.0747 20.63 34.223 20.6462 34.2394V35.7112C20.6387 35.7122 20.6505 35.81 20.5123 35.775C19.4423 35.0675 19.2468 34.7328 18.3657 33.9202L20.4454 33.984Z" fill="#4C3627"/>
<path d="M24.3361 36.7348C25.3975 37.3826 26.7375 37.4918 27.9577 37.7586L27.6219 38.7184C27.4664 38.6968 27.3076 38.6721 27.1522 38.6546C26.5216 38.4002 25.8845 38.1087 25.2409 37.8873C24.727 37.7102 23.1678 37.1592 22.7261 37.12C22.8287 37.0222 22.7261 36.9995 22.7261 36.9923C22.7305 36.6627 22.7261 35.8007 22.3569 35.7132C22.2014 35.6761 20.8398 35.6833 20.6465 35.7132V34.2415C21.4941 35.0922 23.2066 36.2673 24.335 36.7359L24.3361 36.7348Z" fill="#7E696B"/>
<path d="M42.3771 37.8863C42.458 38.0191 42.5768 37.8997 42.4105 38.0778C41.9948 38.5228 41.32 38.7792 41.036 39.357C41.0047 39.3735 40.9939 39.3415 40.9021 39.4208C40.8794 39.4404 40.8718 39.4363 40.8351 39.4847C40.4788 39.4033 40.0523 39.5115 39.6949 39.5485L40.4658 39.2931L38.6216 38.7813C40.008 38.5763 41.0511 38.2488 42.3771 37.8853V37.8863Z" fill="#596E88"/>
<path d="M33.3901 19.8467C33.6805 20.0083 34.0412 19.996 34.3629 20.0382C34.3997 20.0434 34.5292 20.2267 34.5638 20.2298C34.6091 20.2339 35.1544 19.9795 35.2678 19.9744C35.6878 19.9538 36.1457 20.1093 36.3746 20.1021C36.4631 20.099 36.7946 19.8312 37.1121 19.8467C37.1628 19.8487 38.0396 20.0815 38.0849 20.1021C38.1335 20.1247 38.7263 20.6283 38.8894 20.7416C39.9432 21.4749 39.2792 21.0084 40.3309 20.8055C41.4938 20.582 42.0369 21.3194 42.9461 21.5728C43.039 21.5985 43.8877 21.5892 44.1198 21.7005C44.6208 21.8766 47.7511 22.923 47.9088 23.0435C48.1377 23.2185 48.0859 23.6058 48.345 23.8107C48.1399 23.7294 47.8947 23.6851 47.6745 23.6511L48.0772 23.5872C47.8278 23.4647 48.0016 23.2412 47.7749 23.1073C46.8225 22.5429 43.8769 21.9703 42.7453 21.6356C42.2864 21.5007 41.7227 21.0259 41.1353 20.9322C40.3611 20.8076 39.9303 21.0506 39.2911 21.4121C39.331 21.5717 41.3038 21.6552 41.4377 21.9559C41.1461 21.8745 40.8999 21.8797 40.7002 21.8282C40.4551 21.7643 40.1981 21.788 40.0966 21.7643C38.1109 21.306 37.1013 21.1165 34.9989 21.1886C34.5206 21.2051 33.998 21.1793 33.5239 21.2525C32.5694 21.3987 30.8483 22.099 29.9024 22.4677C28.5105 23.0105 27.4189 23.474 26.1469 24.2587C26.0745 24.303 26.0843 24.3205 26.0799 24.3226C24.1396 25.5389 23.7746 26.0178 22.4584 27.7769C22.4335 27.8098 22.2737 27.8346 22.3245 27.9684C22.305 27.9767 22.2737 27.9602 22.2575 27.9684C22.2079 27.9942 21.5352 28.7172 21.52 28.7676C21.3883 29.2023 21.8969 29.6029 21.52 29.8871C21.303 30.0509 20.3657 30.0869 20.3128 30.2394C20.532 30.4392 20.356 31.4577 20.3798 31.5185C20.396 31.5587 21.2069 31.7482 21.2512 31.742C21.3052 32.328 21.5978 33.7276 20.748 33.9171C20.5731 33.9563 20.396 33.7925 20.2448 33.7256C19.4177 33.3558 17.8045 31.5216 17.7635 30.6874C17.7505 30.4175 17.9006 30.0993 17.8974 30.0478C17.8833 29.7625 17.7138 28.2249 17.7635 28.1291C17.798 28.0622 18.2105 27.9993 18.2332 27.9375C18.2397 27.92 18.0313 27.6409 18.0323 27.6172C18.0356 27.5379 18.2116 26.7017 18.2332 26.6574C18.3541 26.4112 18.7957 26.3206 18.8703 26.2413C19.6272 25.4339 19.6661 25.4287 20.5472 24.7696C21.4283 24.1104 21.0741 23.9364 22.3914 23.682C23.4043 23.4863 23.8772 23.9055 23.8664 22.4986C24.1223 22.4492 24.0122 22.6861 24.3361 22.6583C24.3588 22.6562 24.3858 22.6634 24.403 22.6583C24.7324 23.0414 24.3869 24.2433 25.1071 24.1939C26.0044 24.1321 25.3306 22.5913 25.4094 22.4348C25.4224 22.408 25.7625 22.305 25.9461 22.1464C26.0951 22.0177 26.9783 21.1969 27.0528 21.1866C27.1608 21.1721 27.5798 21.4687 27.7903 21.3781C27.8324 21.3606 28.0603 20.8117 28.327 20.6747C29.234 20.2071 29.9056 20.8549 30.4736 20.8024C30.5178 20.7983 31.1959 20.583 31.3115 20.547C31.3741 20.5274 31.454 20.5048 31.5123 20.4831C31.6926 20.6335 32.807 20.755 32.8869 20.6747L32.9873 19.9393L32.6515 19.9074C33.1363 19.7457 33.0024 19.8631 33.389 19.8436L33.3901 19.8467Z" fill="#F7F3F9"/>
<path d="M48.3461 23.8128C48.3622 23.819 48.5026 24.0363 48.5804 24.0682C48.6894 24.1135 49.063 24.0239 49.184 24.0682C49.3049 24.1125 49.5489 24.7974 49.7206 24.9642C49.9225 25.1599 50.8295 25.8736 51.1286 26.1157C51.363 26.3052 52.0454 26.4638 52.1685 26.7233C52.2786 26.955 52.1803 27.3897 52.2354 27.5874L51.9676 28.195C52.1015 28.3608 52.2354 28.4196 52.4373 28.2908C52.446 28.3402 52.6231 28.5843 52.6382 28.7069C52.8055 30.0283 51.8964 29.7636 51.9007 29.9222C51.9007 29.95 52.3488 30.1745 52.3704 30.2425C52.3769 30.2631 52.3045 30.5257 52.3034 30.6586C52.3013 30.9696 52.2376 31.2528 52.1696 31.5546C51.8337 31.5175 51.4936 31.5391 51.1632 31.6184C51.1276 31.3857 51.4331 31.5525 51.499 31.4588C51.8067 31.018 50.795 30.1766 50.3588 30.0839C50.5542 29.8964 50.8133 29.4443 51.0963 29.1879C51.2658 29.0344 51.8445 28.7831 51.9342 28.676C52.2948 28.2496 51.3327 27.5163 50.8943 27.4607C50.8727 27.4576 50.849 27.4607 50.8274 27.4607C50.2627 26.781 49.2811 26.5863 48.413 26.5009C48.4594 25.85 48.7488 25.4287 48.1107 24.9653C47.8666 24.7881 46.6519 24.0548 46.3333 23.8777C45.814 23.5893 44.8918 23.1949 44.3217 22.9817C43.5885 22.7088 42.9493 22.6274 42.2421 22.406C41.9656 22.3195 41.6676 22.0218 41.4376 21.958C41.3037 21.6572 39.331 21.5738 39.291 21.4142C39.9302 21.0527 40.3611 20.8107 41.1353 20.9342C41.7227 21.028 42.2863 21.5028 42.7452 21.6377C43.8779 21.9714 46.8236 22.544 47.7748 23.1094C48.0005 23.2433 47.8278 23.4668 48.0772 23.5893L47.6744 23.6532C47.8958 23.6872 48.1398 23.7315 48.345 23.8128H48.3461Z" fill="#E1E2F1"/>
<path d="M52.3705 27.9067C52.3986 28.0292 52.4159 28.1662 52.4375 28.2908C52.2356 28.4185 52.1017 28.3609 51.9678 28.195L52.2356 27.5874C52.2572 27.6636 52.3392 27.7759 52.3695 27.9077L52.3705 27.9067Z" fill="#141B21"/>
<path d="M31.3102 20.5502C31.1936 20.5873 30.5155 20.8025 30.4723 20.8056C29.9054 20.8581 29.2327 20.2093 28.3257 20.6779C28.059 20.8159 27.8312 21.3638 27.7891 21.3813C27.5785 21.472 27.1595 21.1743 27.0516 21.1898C26.9771 21.2001 26.0938 22.0209 25.9448 22.1496C25.0853 21.7418 24.9039 22.5111 24.4018 22.6615C24.3845 22.6666 24.3575 22.6594 24.3348 22.6615L23.999 22.2773C24.0109 22.2712 24.1113 22.1053 24.1664 22.0858C24.6361 21.921 25.1738 22.0188 25.3736 21.9581C25.5625 21.9004 26.5473 21.1825 26.8486 21.0621C27.0883 20.9663 28.8775 20.37 28.9952 20.3586C29.4152 20.3154 29.8827 20.5481 29.9346 20.5502C30.3514 20.5656 31.0154 20.3123 31.3091 20.5502H31.3102Z" fill="#6F5638"/>
<path d="M24.0005 22.2771L24.3363 22.6613C24.0124 22.6891 24.1225 22.4512 23.8666 22.5016C23.8774 23.9085 23.4034 23.4893 22.3916 23.685V23.5573C22.4909 23.5089 22.8019 22.9857 23.0621 22.79C23.3224 22.5943 23.8018 22.377 24.0016 22.2781L24.0005 22.2771Z" fill="#D4C0B9"/>
<path d="M32.6524 19.9104L32.9882 19.9423L32.8877 20.6777C32.8078 20.758 31.6935 20.6354 31.5132 20.4861C31.917 20.3388 32.2399 20.0484 32.6534 19.9104H32.6524Z" fill="#E1E2F1"/>
<path d="M35.2674 19.9743C35.154 19.9795 34.6087 20.2349 34.5634 20.2297C34.5288 20.2266 34.3982 20.0423 34.3625 20.0382C34.0408 19.9959 33.6812 20.0083 33.3896 19.8466C34.0094 19.8157 34.6746 19.7601 35.2674 19.9743Z" fill="#5D463C"/>
<path d="M21.2499 31.7452C21.2056 31.7504 20.3936 31.5619 20.3785 31.5217C20.3547 31.461 20.5307 30.4414 20.3115 30.2426C20.3644 30.0912 21.3017 30.0541 21.5187 29.8904C21.6839 29.9934 22.132 31.0696 22.1223 31.1376C22.1094 31.2334 21.3038 31.739 21.2509 31.7452H21.2499Z" fill="#F7F3F9"/>
<path d="M25.9449 22.1494C25.7613 22.307 25.4212 22.411 25.4082 22.4377C25.3305 22.5943 26.0032 24.135 25.1059 24.1968C24.3846 24.2463 24.7312 23.0444 24.4019 22.6612C24.904 22.5109 25.0854 21.7415 25.9449 22.1494Z" fill="#F7F3F9"/>
<path d="M51.1635 31.6173C51.0933 31.6337 50.7089 31.5977 50.8611 31.8088C51.2369 31.8253 51.658 32.5009 51.9679 32.2568C51.7433 32.676 51.3168 33.1395 50.7607 32.9602C50.6182 32.9139 50.2402 32.2331 50.0567 32.2568C49.9833 32.2661 48.9812 33.1209 48.9499 33.1848C48.7502 33.5936 49.5913 33.7615 49.8558 33.7286C50.0373 33.7059 50.4843 33.2847 50.6268 33.1528C50.2478 34.0849 49.2101 34.6524 48.4133 35.2641L47.9101 34.433C47.0311 34.9253 46.7158 35.8841 45.9989 36.4804C45.5292 36.8708 43.1688 37.7297 42.6786 37.568C42.4961 37.5073 42.5047 36.9563 41.6722 36.8646C41.6182 36.8584 41.5804 36.7359 41.5718 36.7369L41.8741 35.9696L42.8805 36.4176C43.3199 35.6534 43.0392 34.3032 44.322 34.434C45.716 36.225 45.4374 34.8759 46.5021 33.986C47.0009 33.5689 47.6272 33.8583 47.34 32.8346C47.4987 32.8078 47.7978 32.5493 47.9436 32.4504C47.9727 32.5009 48.9715 33.0334 49.0169 32.9942C49.086 32.2167 48.8322 31.5019 49.0838 30.7233C49.6626 30.7346 49.993 30.4349 50.3579 30.0837C50.7942 30.1764 51.8059 31.0179 51.4982 31.4587C51.4323 31.5524 51.1278 31.3866 51.1624 31.6183L51.1635 31.6173Z" fill="#E1E2F1"/>
<path d="M49.5531 27.715C49.9645 28.1764 49.6751 28.3278 50.4925 28.8026C50.6782 28.9108 51.027 28.9705 51.0961 29.1868C50.8132 29.4432 50.5529 29.8943 50.3586 30.0828C49.9936 30.434 49.6621 30.7337 49.0844 30.7223C48.7659 30.7162 48.1353 30.3248 47.7434 30.4989C47.684 30.5792 47.8945 32.364 47.9442 32.4495C47.7984 32.5484 47.4993 32.8058 47.3406 32.8336C46.9011 32.9088 46.4638 32.6441 45.9995 32.7059L47.2067 29.7635C47.508 29.4988 47.5393 29.3855 47.6764 29.0601C47.684 29.0416 47.6689 29.0148 47.6764 28.9962C47.7023 28.9314 47.7207 28.8696 47.7434 28.8047C47.9906 28.1023 48.1299 27.2856 48.347 26.5657C48.6925 26.9529 49.2237 27.3474 49.5541 27.7171L49.5531 27.715Z" fill="#B1ABBE"/>
<path d="M51.0963 29.1859C51.0272 28.9696 50.6784 28.9099 50.4927 28.8017L50.8954 27.4587C51.3338 27.5144 52.2959 28.2476 51.9353 28.674C51.8446 28.7811 51.2669 29.0314 51.0974 29.1859H51.0963Z" fill="#B5BBC7"/>
<path d="M50.827 27.4586C50.5539 27.4473 49.8887 27.712 49.5529 27.7141C49.2225 27.3443 48.6912 26.9499 48.3457 26.5626L48.4126 26.4988C49.2808 26.5843 50.2623 26.7789 50.827 27.4586Z" fill="#C4C6D9"/>
<path d="M50.8275 27.4586C50.8491 27.4586 50.8728 27.4556 50.8944 27.4586L50.4917 28.8016C49.6743 28.3269 49.9636 28.1755 49.5522 27.7141C49.8881 27.711 50.5532 27.4463 50.8264 27.4586H50.8275Z" fill="#B1ABBE"/>
<path d="M52.1687 31.5535C52.106 31.8326 52.1147 31.983 51.9678 32.2569C51.6579 32.501 51.2368 31.8254 50.861 31.8089C50.7088 31.5967 51.0932 31.6338 51.1634 31.6173C51.4938 31.538 51.8339 31.5164 52.1697 31.5535H52.1687Z" fill="#B5BBC7"/>
<path d="M46.0654 36.6711C44.6282 37.2993 43.8746 37.4764 42.3769 37.8863C41.0499 38.2489 40.0068 38.5774 38.6214 38.7823C34.7245 39.357 31.7216 38.5795 27.9575 37.7586C26.7363 37.4929 25.3963 37.3827 24.3359 36.7349C25.5431 37.2365 26.3972 37.22 27.4878 37.4383C28.9563 37.7329 29.3332 38.0861 30.8751 37.8863C31.0273 37.8668 31.5726 37.5516 31.6795 37.566C31.7475 37.5753 32.4937 38.3488 32.6859 38.462C32.8241 38.5434 33.5821 38.7947 33.6922 38.7823C33.784 38.772 34.5593 37.9564 34.7655 37.8863C35.002 37.806 35.7287 37.8215 36.0397 37.7586C36.2923 37.7082 37.0773 37.3281 37.1464 37.4703C37.1983 37.5784 37.0881 37.8431 37.113 37.8863C37.1518 37.9543 38.3979 38.4507 38.588 38.5259L38.7553 37.6948C38.778 37.6948 38.7996 37.6948 38.8223 37.6948C39.0069 37.6886 39.7282 37.4826 39.7951 37.5032C39.9053 37.5362 40.294 38.5733 40.7346 38.2705C40.9786 38.1026 40.8814 37.2715 40.9019 36.9914C41.0542 36.9337 41.4418 36.7411 41.5725 36.7359C41.5811 36.7359 41.6189 36.8575 41.6729 36.8636C42.5043 36.9553 42.4957 37.5073 42.6792 37.5671C43.1684 37.7288 45.5299 36.8698 45.9996 36.4795L46.0665 36.6711H46.0654Z" fill="#E1E2F1"/>
<path d="M48.4129 35.263C48.0382 35.5504 47.5631 36.1498 47.1723 36.3506C46.9239 36.4783 46.3581 36.5421 46.0655 36.6709L45.9985 36.4793C46.7155 35.883 47.0308 34.9252 47.9097 34.4319L48.4129 35.263Z" fill="#B5BBC7"/>
<path d="M50.7603 32.9604C50.7323 33.0386 50.6901 33.0932 50.6264 33.1519C50.4839 33.2838 50.0369 33.705 49.8555 33.7276C49.5909 33.7606 48.7509 33.5927 48.9495 33.1839C48.9808 33.12 49.9829 32.2652 50.0563 32.2559C50.2399 32.2333 50.6178 32.914 50.7603 32.9593V32.9604Z" fill="#B5BBC7"/>
<path d="M29.8352 35.1992C30.3038 35.2796 30.9107 34.6863 31.3102 34.6874C31.3739 34.6874 31.8566 34.8954 31.9807 34.9428C32.1621 35.0128 32.3846 35.157 32.6513 35.2631C32.6653 35.2693 32.7787 35.3619 32.8521 35.3908C32.7344 35.5823 32.9871 36.6256 33.0864 36.6699C33.4989 36.8543 35.4846 36.707 36.0709 36.7976C36.0925 36.8007 36.1163 36.7935 36.1379 36.7976C36.8138 36.9109 37.7155 37.4815 38.4184 37.6288C38.4832 37.6421 38.5296 37.6864 38.6862 37.6926C38.7089 37.6926 38.7304 37.6926 38.7531 37.6926L38.5858 38.5237C38.3946 38.4486 37.1496 37.9521 37.1108 37.8842C37.0859 37.8419 37.1961 37.5762 37.1443 37.4681C37.0751 37.3249 36.2901 37.705 36.0375 37.7565C35.7265 37.8193 34.9998 37.8038 34.7633 37.8842C34.5571 37.9542 33.7818 38.7689 33.69 38.7802C33.5799 38.7925 32.8219 38.5412 32.6837 38.4599C32.4915 38.3466 31.7454 37.5731 31.6773 37.5639C31.5704 37.5495 31.0251 37.8636 30.8729 37.8842C29.332 38.084 28.9541 37.7307 27.4856 37.4362L26.1445 36.7008C26.7125 36.6411 28.9358 35.1673 28.3246 34.5576C28.2965 34.5298 27.6012 34.124 27.5536 34.3022L27.4198 34.2383V33.9829C28.0622 34.2239 29.2921 35.1055 29.8341 35.1982L29.8352 35.1992Z" fill="#F7F3F9"/>
<path d="M21.9888 30.4658C22.1648 31.0219 22.0903 31.3639 22.7262 31.6172C22.7457 31.6244 22.7738 31.61 22.7932 31.6172L27.3542 33.9839C27.3401 33.9788 27.203 34.0292 27.0518 33.9839C26.3532 33.7738 26.3986 33.3052 25.6773 34.1436C25.66 34.3403 26.4709 34.8717 26.6167 35.0077C26.7365 35.1199 27.4568 35.8975 27.5226 35.9037C27.5291 35.6565 27.8109 35.5278 27.825 35.4876C27.8703 35.3506 27.4697 34.5493 27.5572 34.3042C27.6047 34.1271 28.3001 34.5318 28.3281 34.5596C28.9404 35.1693 26.7171 36.6421 26.1481 36.7029L27.4892 37.4382C26.3986 37.2199 25.5445 37.2364 24.3373 36.7348C23.2089 36.2662 21.4964 35.09 20.6487 34.2404C20.6315 34.2239 20.5321 34.0746 20.4479 33.985C20.3788 33.9108 20.3032 33.814 20.2471 33.7295C20.3982 33.7975 20.5753 33.9602 20.7502 33.9211C21.6 33.7316 21.3074 32.332 21.2534 31.746C21.3074 31.7398 22.1129 31.2341 22.1248 31.1383C22.1345 31.0703 21.6864 29.9941 21.5212 29.8911C21.8981 29.6069 21.3895 29.2062 21.5212 28.7716C21.5363 28.7201 22.2101 27.9971 22.2587 27.9724C22.2317 28.5687 21.6659 29.441 21.722 29.9879C21.7274 30.0446 21.9704 30.4061 21.9898 30.4679L21.9888 30.4658Z" fill="#F7F3F9"/>
<path d="M24.2346 32.5123C24.3102 32.5123 25.5411 33.1755 25.5422 33.2476C25.0153 34.1529 24.2108 34.7708 23.2952 35.327C23.1138 35.259 23.2315 34.5937 23.1278 34.4629C23.0436 34.3589 22.2273 34.2291 22.1884 34.1426C22.1657 34.0921 22.3558 33.1003 22.3892 33.055C22.4907 32.9191 23.0047 33.1714 23.1602 33.1508C23.2725 33.1364 24.0737 32.5123 24.2335 32.5112L24.2346 32.5123Z" fill="#E9DBE8"/>
<path d="M27.3539 33.9842C27.3733 33.9914 27.4014 33.977 27.4208 33.9842V34.2397L26.6164 35.0069C26.4706 34.871 25.6608 34.3396 25.677 34.1428C26.3994 33.3045 26.3529 33.7731 27.0516 33.9832C27.2016 34.0285 27.3388 33.9781 27.3539 33.9832V33.9842Z" fill="#E9DBE8"/>
<path d="M27.5552 34.3043C27.4689 34.5494 27.8684 35.3507 27.823 35.4877C27.8101 35.5279 27.5272 35.6566 27.5207 35.9038C27.4548 35.8976 26.7346 35.12 26.6147 35.0078L27.4192 34.2405L27.5531 34.3043H27.5552Z" fill="#F7F3F9"/>
<path d="M44.3216 34.432C43.0388 34.3012 43.3195 35.6503 42.8801 36.4156L41.8737 35.9676L41.5714 36.7348C41.4407 36.74 41.0531 36.9336 40.9008 36.9902C40.7885 37.0325 40.0003 37.4681 39.9614 37.4063L40.4981 36.3507C41.3489 35.7266 45.207 32.8583 45.9304 32.7048L44.3205 34.432H44.3216Z" fill="#B1ABBE"/>
<path d="M47.3398 32.8327C47.627 33.8564 46.9996 33.567 46.5019 33.9841C45.4372 34.8739 45.7158 36.2231 44.3218 34.4321L45.9317 32.705C45.9522 32.7008 45.9771 32.7081 45.9987 32.705C46.463 32.6432 46.9003 32.9089 47.3398 32.8327Z" fill="#B5BBC7"/>
<path d="M49.0835 30.7214C48.8319 31.5 49.0856 32.2148 49.0165 32.9924C48.9712 33.0315 47.9735 32.499 47.9432 32.4486C47.8936 32.3631 47.683 30.5772 47.7424 30.4979C48.1344 30.3239 48.765 30.7153 49.0835 30.7214Z" fill="#B1ABBE"/>
<path d="M40.9009 36.9902C40.8804 37.2703 40.9776 38.1014 40.7336 38.2693C40.2941 38.5721 39.9054 37.535 39.7942 37.502C39.7272 37.4824 39.007 37.6884 38.8213 37.6936C39.3158 37.1797 39.9216 36.7728 40.4982 36.3506L39.9615 37.4062C39.9993 37.468 40.7886 37.0324 40.9009 36.9902Z" fill="#B5BBC7"/>
<path d="M33.457 35.6473C34.337 36.0149 35.2613 36.2889 36.0722 36.7987C35.4859 36.7081 33.5002 36.8553 33.0877 36.671C32.9873 36.6267 32.7346 35.5834 32.8534 35.3918C33.0574 35.4732 33.255 35.5638 33.457 35.6473Z" fill="#E1E2F1"/>
<path d="M26.0786 24.3247C26.1564 24.5214 26.1423 24.4751 26.3129 24.5163C27.6551 24.8386 29.0761 24.954 30.4042 25.3474C30.7627 25.4535 32.6955 26.3732 32.8855 26.3711C32.9147 26.3711 33.2041 26.1754 33.3218 26.1796C34.3713 26.5853 35.4533 26.9355 36.4067 27.5225C36.4197 27.5442 36.573 27.5864 36.6075 27.6183C36.6281 27.8727 34.8108 27.0653 34.6294 27.0107C34.0755 26.8438 33.4287 26.5998 32.8521 26.5627C30.5953 26.4185 28.4239 26.5493 26.0786 26.3073C26.0721 26.3073 26.1013 26.1847 26.0451 26.1796C25.7374 26.1476 25.5765 26.3145 25.5085 26.3073C25.4556 26.3011 25.4945 26.1847 25.4415 26.1796C25.0431 26.1373 24.6295 26.1291 24.2343 26.0518L26.883 26.851C25.8011 27.0529 24.9146 27.194 23.8316 27.4587C23.688 27.4937 23.0952 27.7502 22.9602 27.779C22.8727 27.7975 22.5898 27.7203 22.457 27.779C23.7733 26.0199 24.1382 25.541 26.0786 24.3247Z" fill="#FCB969"/>
<path d="M29.9022 22.4697C30.2077 22.7025 30.6213 22.6942 30.9755 22.79C30.9258 23.2154 31.8317 23.2298 32.0153 23.3019C32.7776 23.6006 34.4945 24.4904 35.2341 24.6449C35.2784 24.6541 35.2568 24.51 35.3011 24.5172C35.5008 24.547 35.7783 24.6758 35.9381 24.581C37.0039 25.1083 38.1301 25.8746 39.09 26.5646C39.3826 26.7747 39.6871 26.9694 39.8944 27.268C38.9205 26.7963 36.7685 25.2649 35.8701 25.0929C35.2136 24.9672 33.8747 25.1001 33.0864 25.029C31.5564 24.89 30.022 24.7293 28.492 24.581C28.4499 24.5769 27.924 24.4595 27.8549 24.4533C27.4608 24.4152 26.9727 24.4852 26.5808 24.4533C26.557 24.4513 26.3195 24.2494 26.1445 24.2618C27.4165 23.477 28.5092 23.0135 29.9 22.4708L29.9022 22.4697Z" fill="#FCB969"/>
<path d="M33.5238 21.2535C33.5649 21.4018 33.9287 21.5779 34.0605 21.6376L37.4143 24.612C37.8149 25.2145 38.642 25.7572 39.0577 26.3072C39.1452 26.4236 39.2143 26.3958 39.0912 26.5626C38.1312 25.8726 37.005 25.1074 35.9393 24.579C34.5691 23.9003 32.4937 23.1969 30.9766 22.788C30.6235 22.6922 30.2089 22.7005 29.9033 22.4677C30.8492 22.099 32.5704 21.3987 33.5249 21.2524L33.5238 21.2535Z" fill="#F89A57"/>
<path d="M40.0968 21.7654C40.2047 21.8684 40.2339 21.9786 40.2976 22.0857C41.2975 23.7562 42.4788 25.3546 43.5164 27.0117C41.345 25.0549 39.2405 23.4513 36.608 22.0857C36.0649 21.8045 35.4591 21.6037 34.998 21.1897C37.1004 21.1176 38.1089 21.3071 40.0957 21.7654H40.0968Z" fill="#F89A57"/>
<path d="M27.421 27.2031C26.5215 27.6768 25.4342 28.8684 24.5034 29.2505C24.3004 29.3339 23.7303 29.2649 23.5975 29.5059C23.1159 29.5615 22.4 29.5275 22.0879 29.8262L24.8381 29.5708L24.1341 29.955C23.4139 30.1053 22.7034 30.2989 21.9875 30.4668C21.9681 30.405 21.7251 30.0435 21.7197 29.9869C21.6636 29.44 22.2294 28.5677 22.2564 27.9714C22.2737 27.9631 22.3039 27.9796 22.3233 27.9714C22.9852 27.6984 24.5833 27.6634 25.3748 27.5234C25.959 27.4204 26.541 27.1989 27.1186 27.0754C27.2806 27.0403 27.4663 26.9229 27.421 27.2031Z" fill="#FCB969"/>
<path d="M26.0785 26.3072C25.9306 26.4122 26.4208 26.4946 26.4478 26.4987C28.1549 26.8077 31.0088 27.645 32.5842 28.3536C32.9837 28.5328 33.3076 28.8644 33.7244 29.0251C33.6532 29.1713 33.2396 28.9643 33.1208 28.9293C31.3306 28.3937 29.5716 27.3638 27.6885 27.0106C27.6183 27.0178 27.5211 27.1496 27.4207 27.2022C27.466 26.922 27.2803 27.0394 27.1183 27.0744C26.5407 27.198 25.9587 27.4184 25.3745 27.5225C24.583 27.6625 22.9839 27.6975 22.323 27.9705C22.2734 27.8366 22.4321 27.8119 22.4569 27.7789C22.5897 27.7202 22.8716 27.7974 22.9601 27.7789C23.0951 27.7511 23.6879 27.4946 23.8315 27.4586C24.9145 27.1939 25.801 27.0528 26.883 26.851L24.2343 26.0518C24.6295 26.129 25.043 26.1383 25.4414 26.1795C25.4944 26.1846 25.4555 26.302 25.5084 26.3072C25.5764 26.3144 25.7373 26.1465 26.045 26.1795C26.1012 26.1856 26.072 26.3072 26.0785 26.3072Z" fill="#FFCD74"/>
<path d="M41.4374 21.958C41.6674 22.0218 41.9654 22.3195 42.2418 22.406L43.5494 23.8128C44.1843 24.0919 44.6875 24.99 45.3267 25.0281C45.3894 25.1362 45.4617 25.2351 45.5276 25.3484C45.2414 25.6533 45.8116 26.1013 45.6615 26.4998C44.6098 25.2166 44.3463 24.99 43.0463 24.0054C42.9804 23.955 42.8983 23.853 42.8454 23.8139C42.5085 23.3741 42.0475 22.8066 41.6047 22.4709C41.5616 22.4379 40.6805 22.1186 40.5984 22.0229C40.4083 21.7994 40.6459 21.9745 40.6988 21.8313C40.8986 21.8838 41.1448 21.8787 41.4363 21.959L41.4374 21.958Z" fill="#FCB969"/>
<path d="M34.999 21.1897C35.459 21.6027 36.0658 21.8035 36.609 22.0857C36.5107 22.2299 36.5204 22.2258 36.6424 22.3411C36.989 22.6707 37.841 22.9199 38.0839 23.4287C36.7493 22.6831 35.4471 22.267 34.0596 21.6377C33.9279 21.578 33.564 21.4019 33.5229 21.2536C33.9981 21.1804 34.5207 21.2062 34.9979 21.1897H34.999Z" fill="#FFCD74"/>
<path d="M28.494 24.58C28.2068 24.5738 28.5663 24.7025 28.5944 24.7077C30.3426 25.0589 31.6826 25.544 33.3228 26.1794C33.2051 26.1753 32.9168 26.371 32.8865 26.371C32.6965 26.373 30.7626 25.4533 30.4052 25.3473C29.0771 24.9528 27.6561 24.8375 26.3139 24.5161C26.1433 24.4749 26.1563 24.5213 26.0796 24.3246C26.0839 24.3225 26.0742 24.305 26.1465 24.2607C26.3204 24.2494 26.559 24.4502 26.5828 24.4523C26.9747 24.4842 27.4628 24.4142 27.8569 24.4523C27.926 24.4595 28.4519 24.5759 28.494 24.58Z" fill="#FFCD74"/>
<path d="M40.7002 21.8293C40.6473 21.9735 40.4097 21.7984 40.5998 22.0208C40.6807 22.1166 41.5618 22.4359 41.6061 22.4689C42.0488 22.8056 42.5099 23.3721 42.8468 23.8118C42.0391 23.2052 41.1926 22.5749 40.2985 22.0847C40.2348 21.9786 40.2056 21.8684 40.0977 21.7644C40.1992 21.7881 40.4561 21.7644 40.7013 21.8283L40.7002 21.8293Z" fill="#FFCD74"/>
<path d="M46.3344 23.8765C46.8419 24.7715 48.0048 26.7664 47.9443 27.7469C47.94 27.8159 47.7435 28.5636 47.5416 28.5461C46.9023 27.4637 46.1627 26.4224 45.53 25.3472C45.4641 25.235 45.3917 25.1361 45.3291 25.0269C44.9609 24.3925 44.7277 23.6088 44.3228 22.9795C44.8929 23.1927 45.815 23.5861 46.3344 23.8755V23.8765Z" fill="#EC5E24"/>
<path d="M48.413 26.4998L48.3461 26.5637C48.1291 27.2836 47.9898 28.1003 47.7425 28.8027C47.6691 28.744 47.5892 28.6276 47.5417 28.5472C47.7436 28.5648 47.9401 27.817 47.9444 27.748C48.006 26.7676 46.843 24.7727 46.3345 23.8777C46.653 24.0548 47.8678 24.7881 48.1118 24.9653C48.7499 25.4287 48.4595 25.8489 48.4141 26.5008L48.413 26.4998Z" fill="#EF4525"/>
<path d="M42.2432 22.406C42.9493 22.6274 43.5896 22.7088 44.3228 22.9817C44.7277 23.611 44.961 24.3937 45.3292 25.0292C44.6899 24.99 44.1868 24.093 43.5519 23.8139L42.2442 22.407L42.2432 22.406Z" fill="#F47E3A"/>
<path d="M33.1208 28.9304C32.3963 29.2085 31.3996 29.2487 30.7064 29.57C30.62 29.6102 30.5088 29.6019 30.4386 29.7296C30.4386 29.8316 31.743 31.0335 31.5789 31.4248C31.2884 31.155 29.1645 29.7739 28.8622 29.6977C28.6419 29.6421 28.7056 29.8254 28.6948 29.8254C28.6235 29.8285 28.5415 29.6905 28.5274 29.6977C28.4346 29.7451 28.1808 30.1344 28.0577 30.2096C27.4541 30.5783 26.4197 30.914 25.9111 31.2333C25.4025 31.5525 26.4791 31.4907 26.4812 31.6813C25.4673 31.5361 24.4145 31.4207 23.3963 31.2971C22.9439 31.2425 22.2485 31.016 22.7258 31.6174C22.0898 31.3641 22.1643 31.0221 21.9883 30.466C22.7042 30.2981 23.4136 30.1045 24.1349 29.9541C24.3908 29.9006 24.9382 29.6544 25.1078 29.6338C26.0839 29.5195 27.3623 29.8089 28.3946 29.6338L28.495 29.5381C28.495 29.5092 28.3298 29.5154 28.2942 29.3784C28.088 28.5926 27.9454 27.7862 27.6906 27.0117C29.5737 27.365 31.3327 28.3949 33.123 28.9304H33.1208Z" fill="#F37444"/>
<path d="M25.3412 32.1931C25.7775 32.2394 26.339 32.0953 26.6823 32.1292C27.53 32.2116 29.2889 33.2879 30.1031 33.2807C30.5641 33.2765 31.1375 32.5052 31.2099 32.5134C31.7627 32.5772 30.5004 33.9213 30.4389 34.017C30.2057 34.3785 30.1366 34.8595 29.8353 35.2004C29.2922 35.1077 28.0634 34.2261 27.4209 33.9851C27.4015 33.9779 27.3734 33.9923 27.354 33.9851L22.793 31.6184C23.253 31.7853 24.8413 32.1406 25.3412 32.1941V32.1931Z" fill="#EC5E24"/>
<path d="M23.3966 31.2973L25.9114 31.9369C25.9923 32.2829 25.4924 32.0203 25.3412 32.1923C24.8402 32.1387 23.2519 31.7834 22.793 31.6166C22.7735 31.6094 22.7444 31.6238 22.726 31.6166C22.2487 31.0162 22.9441 31.2417 23.3966 31.2963V31.2973Z" fill="#F89A57"/>
<path d="M43.7848 27.5236C43.8907 27.5988 43.9965 27.6853 44.0872 27.779C44.3506 27.5875 43.0733 24.5194 43.0473 24.0045C44.3474 24.989 44.6119 25.2156 45.6626 26.4989C46.3385 27.3238 46.8611 28.2899 47.6742 28.9933C47.6666 29.0118 47.6818 29.0386 47.6742 29.0571C47.5414 29.1251 47.1008 28.9871 47.0706 28.9933C47.0825 28.9212 47.0069 28.9325 47.0037 28.9294C46.887 28.8079 46.6376 28.4825 46.5005 28.4176C44.7955 27.6122 37.277 27.3135 35.6692 28.226C34.9684 28.3692 34.4134 28.9696 33.7245 29.1859C32.9093 29.4413 31.5509 29.5639 30.7065 29.57C31.3998 29.2487 32.3964 29.2085 33.1209 28.9305C33.2397 28.9655 33.6533 29.1725 33.7245 29.0262C33.3077 28.8656 32.9838 28.534 32.5843 28.3548L32.8521 26.5638C33.4287 26.6008 34.0755 26.8439 34.6294 27.0118C34.8108 27.0664 36.6281 27.8738 36.6075 27.6194C36.573 27.5875 36.4197 27.5453 36.4067 27.5236C35.8668 26.605 35.7642 26.2054 35.8701 25.0931C36.7684 25.2651 38.9204 26.7965 39.8944 27.2682C39.9203 27.2806 40.0941 27.5391 40.2302 27.4278C39.7648 26.089 38.9032 24.9211 38.3525 23.6213C40.4246 24.8129 41.9082 26.1899 43.7848 27.5236Z" fill="#EC5E24"/>
<path d="M28.4943 24.5801C30.0244 24.7284 31.5587 24.889 33.0888 25.0281C33.8759 25.0991 35.2149 24.9663 35.8724 25.0919C35.7666 26.2042 35.8692 26.6038 36.4091 27.5225C35.4556 26.9344 34.3726 26.5853 33.3242 26.1795C31.684 25.5451 30.344 25.059 28.5958 24.7078C28.5677 24.7016 28.2082 24.5739 28.4954 24.5801H28.4943Z" fill="#F37444"/>
<path d="M32.8531 26.5638L32.5853 28.3548C31.0088 27.6462 28.155 26.8079 26.4489 26.4999C26.423 26.4948 25.9328 26.4124 26.0796 26.3083C28.426 26.5514 30.5974 26.4206 32.8531 26.5638Z" fill="#F37444"/>
<path d="M34.0602 21.6377C35.4477 22.267 36.7499 22.683 38.0845 23.4287C38.1612 23.4719 38.2756 23.576 38.3523 23.6203C38.903 24.919 39.7646 26.0869 40.23 27.4268C40.094 27.538 39.9212 27.2795 39.8942 27.2671C39.6858 26.9685 39.3824 26.7738 39.0898 26.5637C39.2129 26.3969 39.1438 26.4236 39.0563 26.3083C38.6406 25.7583 37.8135 25.2156 37.4129 24.6131L34.0591 21.6387L34.0602 21.6377Z" fill="#F47E3A"/>
<path d="M35.9383 24.5801C35.7785 24.6748 35.501 24.5461 35.3012 24.5162C35.2569 24.51 35.2785 24.6532 35.2343 24.6439C34.4935 24.4894 32.7767 23.5996 32.0154 23.3009C31.8319 23.2288 30.9259 23.2144 30.9756 22.7891C32.4927 23.1979 34.568 23.9024 35.9383 24.5801Z" fill="#FFCD74"/>
<path d="M42.8466 23.8128C42.8995 23.853 42.9816 23.955 43.0475 24.0044C43.0723 24.5193 44.3508 27.5864 44.0873 27.779C43.9966 27.6842 43.8918 27.5987 43.785 27.5236C43.9869 27.3722 43.623 27.1806 43.5172 27.0117C42.4795 25.3556 41.2971 23.7572 40.2983 22.0857C41.1935 22.5759 42.0389 23.2062 42.8466 23.8128Z" fill="#EC5E24"/>
<path d="M43.517 27.0116C43.6228 27.1806 43.9867 27.3711 43.7848 27.5235C41.9081 26.1898 40.4245 24.8128 38.3524 23.6212C38.2757 23.5769 38.1613 23.4719 38.0846 23.4297C37.8406 22.9209 36.9897 22.6717 36.6431 22.3421C36.5211 22.2257 36.5114 22.2298 36.6096 22.0867C39.2421 23.4523 41.3466 25.0559 43.5181 27.0127L43.517 27.0116Z" fill="#FCB969"/>
<path d="M28.2925 29.3784C26.6653 29.2775 25.2076 29.3218 23.5977 29.5061C23.7294 29.2641 24.2995 29.3341 24.5036 29.2507C25.4344 28.8686 26.5217 27.677 27.4212 27.2033C27.5216 27.1497 27.6188 27.0189 27.6889 27.0117C27.9438 27.7862 28.0863 28.5926 28.2925 29.3784Z" fill="#F89A57"/>
<path d="M28.2924 29.3783C28.328 29.5153 28.4943 29.5091 28.4932 29.538L28.3928 29.6337C27.3606 29.8088 26.0832 29.5194 25.106 29.6337C24.9365 29.6533 24.389 29.9005 24.1331 29.954L24.8371 29.5699L22.0869 29.8253C22.399 29.5266 23.1138 29.5606 23.5964 29.505C25.2064 29.3196 26.6641 29.2764 28.2913 29.3773L28.2924 29.3783Z" fill="#FFCD74"/>
<path d="M47.5415 28.5463C47.589 28.6266 47.6689 28.744 47.7424 28.8017C47.7197 28.8666 47.7002 28.9284 47.6754 28.9933C46.8623 28.2888 46.3386 27.3228 45.6638 26.4988C45.8128 26.1003 45.2427 25.6512 45.5299 25.3474C46.1626 26.4226 46.9034 27.4628 47.5415 28.5463Z" fill="#EE963B"/>
<path d="M31.5791 31.4247C31.6007 31.4453 31.632 31.5627 31.713 31.5524C31.6892 31.5915 31.6676 31.6389 31.646 31.6801C31.5273 31.9097 31.5931 31.9571 31.5791 32.0004C31.3102 32.8191 31.2249 33.1992 31.5122 34.0478L31.3113 34.6874C30.9107 34.6863 30.305 35.2785 29.8363 35.1992C30.1376 34.8583 30.2067 34.3774 30.4399 34.0159C30.5015 33.9201 31.7637 32.5761 31.2109 32.5122C31.1386 32.504 30.5663 33.2764 30.1041 33.2795L28.6961 29.8252C28.7069 29.8252 28.6432 29.6419 28.8635 29.6975C29.1658 29.7737 31.2886 31.1548 31.5802 31.4247H31.5791Z" fill="#EC5E24"/>
<path d="M28.6948 29.8265L30.1028 33.2808C29.2887 33.288 27.5308 32.2118 26.6821 32.1294C27.2252 31.7854 28.0135 32.2406 28.6268 32.0974C27.9087 31.978 27.2015 31.7854 26.4802 31.6814C26.478 31.4919 25.3842 31.5629 25.9101 31.2334C26.4359 30.9038 27.452 30.5783 28.0567 30.2096C28.1798 30.1345 28.4324 29.7452 28.5264 29.6978C28.5415 29.6906 28.6225 29.8296 28.6937 29.8255L28.6948 29.8265Z" fill="#F47E3A"/>
<path d="M33.7248 29.1858L32.7854 30.3372C32.5554 30.537 31.8568 31.3105 31.7121 31.5525C31.6311 31.5628 31.5998 31.4444 31.5782 31.4248C31.7424 31.0334 30.4369 29.8315 30.438 29.7296C30.5082 29.6008 30.6205 29.6091 30.7058 29.5699C31.5502 29.5638 32.9085 29.4412 33.7238 29.1858H33.7248Z" fill="#EC5E24"/>
<path d="M26.4813 31.6812C27.2015 31.7842 27.9088 31.9778 28.6279 32.0973C28.0146 32.2405 27.2264 31.7863 26.6832 32.1292C26.3388 32.0952 25.7784 32.2394 25.3421 32.1931C25.4933 32.0211 25.9933 32.2837 25.9123 31.9377L23.3975 31.2981C24.4157 31.4217 25.4685 31.536 26.4824 31.6822L26.4813 31.6812Z" fill="#FCB969"/>
<path d="M35.6707 28.2271C35.1967 28.4959 33.2229 29.9573 32.7866 30.3383L33.726 29.1869C34.416 28.9717 34.971 28.3702 35.6707 28.2271Z" fill="#D34427"/>
<path d="M45.9988 32.7047C45.9772 32.7078 45.9524 32.7006 45.9318 32.7047C45.2084 32.8581 41.3503 35.7274 40.4995 36.3505C39.924 36.7728 39.3171 37.1796 38.8226 37.6935C38.7999 37.6935 38.7783 37.6935 38.7556 37.6935C38.733 37.6935 38.7103 37.6935 38.6887 37.6935L38.4209 34.7192C40.683 33.7294 42.6752 32.1321 44.8262 30.9127C45.5485 30.5028 46.6132 30.2844 47.2071 29.7612L45.9999 32.7037L45.9988 32.7047Z" fill="#6A9940"/>
<path d="M47.6753 29.058C47.5381 29.3835 47.5068 29.4967 47.2056 29.7614C46.6117 30.2846 45.547 30.503 44.8247 30.9129C42.6737 32.1323 40.6815 33.7296 38.4194 34.7194L38.6872 37.6937C38.5306 37.6875 38.4831 37.6432 38.4194 37.6299C37.1723 35.9892 35.7167 34.4567 34.0938 33.1519L36.1389 36.7977C36.1173 36.7936 36.0936 36.8008 36.072 36.7977C35.26 36.2879 34.3367 36.0139 33.4567 35.6463C33.7753 34.4609 33.717 33.2518 32.7192 32.3835C33.9146 32.9109 36.4164 34.0345 37.6484 34.2384C37.8644 34.2744 37.9389 34.2786 38.1516 34.2384C38.8718 34.1025 41.1966 32.2785 42.0075 31.8078C43.2838 31.0663 44.6584 30.4525 45.9649 29.7604C46.1873 29.643 46.887 29.0302 47.0717 28.9931C47.1019 28.9869 47.5425 29.1249 47.6753 29.057V29.058Z" fill="#CAD66C"/>
<path d="M38.4193 37.6298C37.7164 37.4825 36.8148 36.912 36.1389 36.7987L34.0938 33.1528C35.7177 34.4577 37.1722 35.9902 38.4193 37.6308V37.6298Z" fill="#E1E78E"/>
<path d="M32.3168 32.1931C32.3276 32.1973 32.4464 32.291 32.5177 32.3208C32.5501 33.186 32.9723 34.1644 32.8535 35.0398C32.8351 35.1778 32.8459 35.2736 32.6527 35.2633C32.3859 35.1572 32.1624 35.013 31.9821 34.943C31.9713 34.667 31.5848 34.2612 31.5124 34.047C31.2252 33.1983 31.3105 32.8183 31.5794 31.9995C31.8223 32.0417 32.0901 32.1046 32.3168 32.1911V32.1931Z" fill="#AFBE41"/>
<path d="M32.7195 32.3846C33.7172 33.2518 33.7766 34.4609 33.457 35.6473C33.2551 35.5629 33.0575 35.4733 32.8534 35.3919C32.7789 35.362 32.6666 35.2693 32.6526 35.2642C32.8469 35.2745 32.835 35.1787 32.8534 35.0407C32.9722 34.1653 32.55 33.1869 32.5176 32.3218C32.5878 32.3506 32.6828 32.3692 32.7184 32.3856L32.7195 32.3846Z" fill="#CAD66C"/>
<path d="M31.9806 34.9438C31.8564 34.8954 31.3738 34.6884 31.3101 34.6884L31.5109 34.0488C31.5832 34.263 31.9698 34.6678 31.9806 34.9448V34.9438Z" fill="#919C39"/>
<path d="M45.4622 28.9305C45.9751 28.9099 46.4966 28.9747 47.0052 28.9305C47.0084 28.9336 47.084 28.9222 47.0721 28.9943C46.8886 29.0314 46.1878 29.6442 45.9653 29.7616C44.6588 30.4537 43.2842 31.0675 42.0079 31.809C41.196 32.2807 38.8712 34.1036 38.1521 34.2396C37.6176 34.1974 37.2461 33.6 36.8444 33.4085C36.2365 33.117 34.9429 32.9151 34.2292 32.705C33.5921 32.5166 32.995 32.1499 32.318 32.1932C32.0912 32.1056 31.8224 32.0428 31.5805 32.0016C31.5945 31.9584 31.5287 31.912 31.6475 31.6813C32.1247 31.774 31.9304 32.0171 32.4519 32.0016C34.4203 31.9398 36.554 29.811 37.9847 28.675C40.3807 28.8584 42.8178 29.1241 45.2278 29.0592C45.2516 29.0592 45.4492 28.9315 45.4622 28.9315V28.9305Z" fill="#E1E78E"/>
<path d="M47.0049 28.9303C46.4974 28.9746 45.9759 28.9097 45.4619 28.9303C44.2299 28.8551 42.7268 28.2866 41.538 28.2269C39.9604 28.1476 35.8616 28.7171 34.6295 29.6986C34.4071 29.8757 33.8748 30.6585 33.5897 30.9458C33.2409 31.298 32.7464 31.5843 32.4495 32.0015C31.9279 32.0179 32.1223 31.7749 31.645 31.6812C31.6666 31.64 31.6882 31.5926 31.712 31.5534C31.8556 31.3114 32.5553 30.538 32.7853 30.3382C33.2215 29.9581 35.1953 28.4957 35.6694 28.2269C37.2782 27.3154 44.7957 27.6131 46.5006 28.4184C46.6378 28.4833 46.8872 28.8077 47.0038 28.9303H47.0049Z" fill="#AFBE41"/>
<path d="M38.1519 34.2394C37.9392 34.2795 37.8658 34.2754 37.6487 34.2394C36.4167 34.0355 33.9149 32.9118 32.7195 32.3845C32.6828 32.3681 32.5889 32.3495 32.5187 32.3207C32.4485 32.2918 32.3287 32.1971 32.3179 32.193C32.9949 32.1497 33.5931 32.5164 34.2291 32.7048C34.9428 32.916 36.2364 33.1168 36.8443 33.4082C37.246 33.6008 37.6174 34.1982 38.1519 34.2394Z" fill="#E1E78E"/>
<path d="M45.4619 28.9303C45.4479 28.9303 45.2503 29.058 45.2276 29.058C42.8175 29.1229 40.3794 28.8572 37.9845 28.6738C36.5537 29.8098 34.4201 31.9386 32.4517 32.0004C32.7486 31.5833 33.2431 31.297 33.5919 30.9448C33.877 30.6574 34.4093 29.8747 34.6317 29.6976C35.8627 28.7161 39.9626 28.1465 41.5402 28.2258C42.729 28.2856 44.2321 28.8541 45.4641 28.9293L45.4619 28.9303Z" fill="#CAD66C"/>
</g>
<defs>
<filter id="filter0_i_344_12246" x="0" y="0" width="70" height="70" filterUnits="userSpaceOnUse" color-interpolation-filters="sRGB">
<feFlood flood-opacity="0" result="BackgroundImageFix"/>
<feBlend mode="normal" in="SourceGraphic" in2="BackgroundImageFix" result="shape"/>
<feColorMatrix in="SourceAlpha" type="matrix" values="0 0 0 0 0 0 0 0 0 0 0 0 0 0 0 0 0 0 127 0" result="hardAlpha"/>
<feMorphology radius="3" operator="erode" in="SourceAlpha" result="effect1_innerShadow_344_12246"/>
<feOffset/>
<feGaussianBlur stdDeviation="1"/>
<feComposite in2="hardAlpha" operator="arithmetic" k2="-1" k3="1"/>
<feColorMatrix type="matrix" values="0 0 0 0 0 0 0 0 0 0 0 0 0 0 0 0 0 0 0.08 0"/>
<feBlend mode="normal" in2="shape" result="effect1_innerShadow_344_12246"/>
</filter>
<linearGradient id="paint0_linear_344_12246" x1="52.0356" y1="45.3872" x2="35.6757" y2="45.7789" gradientUnits="userSpaceOnUse">
<stop stop-color="#292537"/>
<stop offset="1" stop-color="#39222D"/>
</linearGradient>
</defs>
</svg>
