<svg width="70" height="70" viewBox="0 0 70 70" fill="none" xmlns="http://www.w3.org/2000/svg">
<g filter="url(#filter0_i_345_21659)">
<path d="M0 35C0 15.67 15.67 0 35 0C54.33 0 70 15.67 70 35C70 54.33 54.33 70 35 70C15.67 70 0 54.33 0 35Z" fill="white" fill-opacity="0.75"/>
<path d="M22.5137 33.3827C22.596 34.1981 22.4426 34.5835 21.8009 35.0274L21.1858 34.0979C20.6989 34.1781 21.1509 34.4817 20.6348 34.3846C20.7952 33.597 21.8288 32.9573 22.5123 33.3827H22.5137Z" fill="#F26E86"/>
<path d="M20.7661 35.3142C21.1581 35.4961 21.4761 35.2541 21.8025 35.0275C22.4442 34.5836 22.5977 34.1967 22.5154 33.3828C23.7959 34.1813 21.6421 36.4317 20.7675 35.3142H20.7661Z" fill="#F0586E"/>
<path d="M21.8025 35.0274C21.4761 35.254 21.158 35.496 20.766 35.3141C20.5038 34.9796 20.5484 34.8162 20.6363 34.3846C21.1524 34.4833 20.7005 34.1781 21.1873 34.0979L21.8025 35.0274Z" fill="#F26E86"/>
<path d="M22.9032 30.0195C22.74 30.4357 22.4931 30.7563 22.0941 30.8781C21.4232 31.0831 19.4173 31.3713 18.7603 31.1648C19.0365 31.0353 19.3043 30.8072 19.6014 30.7363C20.4411 30.5344 21.3702 31.0014 22.0941 30.7363C22.4694 30.5991 22.2853 30.5374 22.03 30.522L22.9046 30.0211L22.9032 30.0195Z" fill="#F26E86"/>
<path d="M19.6003 30.7363C19.3031 30.8072 19.0339 31.0353 18.7591 31.1648C18.2025 30.9891 17.9738 30.24 17.918 29.6619C18.2653 29.6388 18.3281 30.1151 18.5973 30.3063C18.8986 30.519 19.3617 30.4619 19.6003 30.7348V30.7363Z" fill="#F69594"/>
<path d="M20.9601 25.5848C20.9489 25.5879 20.974 25.7621 20.8624 25.7991C20.3575 25.9656 20.2222 25.5941 20.1831 25.5848C20.3951 25.4846 20.8276 24.3872 21.0577 24.4396C21.3869 24.5151 20.6225 25.3166 20.9601 25.5848Z" fill="#A28252"/>
<path d="M20.1832 25.5849C20.2222 25.5942 20.3589 25.9672 20.8625 25.7992C20.9727 25.7622 20.949 25.5865 20.9601 25.5849C22.4416 25.2119 23.3943 28.7679 22.9019 30.0211L22.0273 30.522C22.2825 30.5375 22.4667 30.5991 22.0914 30.7363C21.3675 31.0014 20.4384 30.5344 19.5987 30.7363C19.3602 30.4635 18.897 30.5205 18.5957 30.3078C18.3265 30.1167 18.2623 29.6404 17.9164 29.6635C17.7839 28.2978 18.4967 25.1672 20.1818 25.5849H20.1832Z" fill="#F8A79C"/>
<path d="M19.8915 26.2292C20.8052 26.1552 19.4061 28.6214 19.1466 27.6241C19.0308 27.1771 19.5233 26.4357 19.8915 26.2292Z" fill="#F9CBBF"/>
<path d="M49.7707 33.0252C49.6508 32.7446 49.5183 32.6475 49.3174 32.4533C50.1418 31.2294 51.2661 30.488 52.6192 30.1643L52.5215 31.8814C52.1254 31.9415 50.7081 33.3689 50.5142 33.3843C50.199 33.409 49.7707 32.8356 49.9967 32.4548L49.7707 33.0267V33.0252Z" fill="#9ABF43"/>
<path d="M49.7709 33.0252C49.8099 33.1146 49.8155 33.1439 49.835 33.2395C49.7095 33.332 49.7848 33.5925 49.7709 33.7404C49.7095 34.3539 49.3663 34.5451 48.9297 34.8857C48.687 35.0738 48.3927 35.1986 48.1848 35.4576C47.7538 35.305 49.1167 32.7509 49.3175 32.4534C49.5184 32.6476 49.6509 32.7447 49.7709 33.0252Z" fill="#A7CE38"/>
<path d="M48.9282 34.8841C49.3662 34.545 49.708 34.3539 49.7693 33.7389C50.0246 33.7527 49.8684 33.3998 49.8335 33.2379C49.814 33.1408 49.807 33.1131 49.7693 33.0237L49.9953 32.4518C49.7693 32.8341 50.199 33.4075 50.5128 33.3813C50.7053 33.3659 52.124 31.9385 52.5202 31.8784L52.6178 30.1613C52.9986 30.0703 55.2891 29.7035 55.4021 30.0534C55.0617 34.4834 51.8339 36.0001 48.1833 35.8121L48.1191 35.6687L48.9282 34.8811V34.8841Z" fill="#A7CE38"/>
<path d="M53.622 30.5205C54.1478 30.5606 53.675 31.0985 53.2007 30.6993C53.29 30.6993 53.5996 30.519 53.622 30.5205Z" fill="#C1DB7A"/>
<path d="M49.7705 33.7405C49.7859 33.5925 49.7106 33.332 49.8347 33.2395C49.8682 33.4013 50.0258 33.7543 49.7705 33.7405Z" fill="#C1DB7A"/>
<path d="M29.1828 32.0233C28.7797 32.2699 28.6025 32.8202 28.244 33.1685C27.8353 33.5662 27.3178 33.8036 26.8198 34.0271C26.7528 34.0564 26.8198 34.2152 26.7556 34.2414C26.3874 34.3893 25.9298 33.9331 25.5574 34.098C24.606 33.1069 24.6842 31.5562 25.2017 30.3062C26.2869 31.3451 27.5926 32.1682 29.0866 31.809C29.1856 31.8815 29.1661 31.9262 29.1842 32.0233H29.1828Z" fill="#F4C97E"/>
<path d="M29.1831 32.0232C29.5681 34.1349 27.0376 35.6393 25.5576 34.0979C25.9287 33.933 26.3862 34.3893 26.7559 34.2413C26.8214 34.2151 26.7545 34.0563 26.82 34.027C27.318 33.8035 27.8355 33.5661 28.2443 33.1685C28.6028 32.8201 28.7799 32.2698 29.1831 32.0232Z" fill="#CE6E50"/>
<path d="M30.5416 25.2982C30.9615 25.9779 31.977 28.1729 31.9659 28.9467C30.8778 28.0002 29.7702 27.0769 28.6641 26.1567C28.8496 26.0134 29.1425 26.5405 29.2792 26.5143C29.3211 26.5066 29.9502 26.0226 29.9586 25.9779C30.0255 25.6203 29.3908 25.4168 29.3755 25.3336C29.3671 25.2889 29.7926 24.8989 29.6015 24.5105C29.7396 24.8866 29.9711 24.7063 29.9892 24.7248C30.3743 25.1101 30.5193 26.5328 30.7662 27.0862C30.822 26.613 30.5681 26.1228 30.4747 25.6912C30.4663 25.6527 30.3798 25.2442 30.5389 25.2982H30.5416Z" fill="#51A646"/>
<path d="M25.6857 23.8678C26.2618 24.5615 26.9872 25.0039 27.5633 25.6929L25.6536 26.1584C25.5867 26.1445 25.4039 25.2798 25.2979 25.121C25.2477 25.0455 25.1919 25.2012 25.1682 25.1565C24.9562 24.7526 24.8711 24.5353 24.7148 24.0112C24.8976 23.7615 25.2017 23.9095 25.4597 23.7969C25.5239 23.7692 25.2533 23.3468 25.6857 23.8678Z" fill="#51A646"/>
<path d="M27.6932 22.6515L27.7908 23.1525C27.7043 23.1849 27.41 23.0277 27.3054 23.0092C26.5647 22.8797 25.4041 22.6685 24.7805 22.9383C24.6871 22.9783 24.5587 23.0138 24.4569 23.0092C24.4388 22.8689 24.3216 22.6284 24.4248 22.5082C25.5366 22.2153 26.6177 22.2246 27.6946 22.6515H27.6932Z" fill="#83C565"/>
<path d="M28.6642 26.1568C29.7704 27.0786 30.8779 28.0003 31.966 28.9468C31.9646 29.0531 31.966 29.161 31.966 29.2689C31.853 29.3861 31.8432 29.2319 31.8362 29.2335L25.8799 23.9387C26.2719 24.0297 28.1955 25.7668 28.6642 26.1568Z" fill="#C5E2BB"/>
<path d="M25.8799 23.9387L31.8362 29.2334C28.879 29.719 26.0487 28.4565 25.1685 25.1549C25.1922 25.1996 25.2466 25.0439 25.2982 25.1194C25.4056 25.2782 25.5869 26.1429 25.6539 26.1568L27.5636 25.6913C26.9875 25.0023 26.2621 24.5614 25.686 23.8662C25.7794 23.8339 25.8087 23.9217 25.8799 23.9371V23.9387Z" fill="#3E9444"/>
<path d="M30.0561 27.6597C30.1788 27.706 30.1328 27.9094 30.1858 27.9464C30.6489 28.2655 31.2292 28.5938 31.5459 29.0917C30.7522 29.0516 29.8692 29.1688 29.0852 29.0208C28.9876 29.0023 27.6317 28.3611 27.6289 28.2701C27.9553 28.2624 29.9389 27.6181 30.0561 27.6613V27.6597Z" fill="#3E9444"/>
<path d="M27.7252 26.801C27.947 26.6839 28.9583 27.5779 28.438 27.8739C28.498 27.3051 28.3195 27.7552 28.1786 27.7305C27.728 27.6534 27.4016 26.9721 27.7252 26.801Z" fill="#51A646"/>
<path d="M27.3052 23.0092C26.8727 23.1633 26.4473 23.3714 25.9786 23.3668C25.9451 23.3668 25.5531 23.1679 25.4611 23.1525C25.2449 23.114 25.0328 23.4885 24.7817 22.9382C25.4053 22.6685 26.5659 22.8797 27.3066 23.0092H27.3052Z" fill="#83C565"/>
<path d="M30.5418 25.2982C30.3814 25.2458 30.4693 25.6527 30.4776 25.6913C30.5711 26.1229 30.825 26.613 30.7692 27.0862C30.5223 26.5344 30.3772 25.1102 29.9922 24.7248C29.9727 24.7063 29.7425 24.8867 29.6044 24.5105C29.7941 24.899 29.3701 25.2874 29.3784 25.3337C29.3938 25.4154 30.0285 25.6204 29.9615 25.978C29.9531 26.0227 29.3226 26.5067 29.2822 26.5144C29.1455 26.5406 28.8525 26.0134 28.667 26.1568C28.1983 25.7668 26.2747 24.0312 25.8827 23.9387C25.8116 23.9217 25.7823 23.8354 25.6888 23.8678C25.2564 23.3468 25.527 23.7676 25.4628 23.7969C25.2062 23.9094 24.9007 23.763 24.718 24.0111C24.637 23.7383 24.492 23.2759 24.4585 23.0092C24.5603 23.0138 24.6901 22.9784 24.7821 22.9383C25.0346 23.4901 25.2452 23.114 25.4615 23.1526C25.5535 23.1695 25.9469 23.3668 25.979 23.3668C26.4491 23.3714 26.8731 23.1618 27.3056 23.0092C27.4102 23.0277 27.7045 23.1849 27.791 23.1526L27.6933 22.6516C28.7939 23.0863 29.8904 24.247 30.5418 25.2982Z" fill="#75BA6D"/>
<path d="M26.4952 23.4392C26.664 23.3189 27.1606 23.749 27.402 23.5101C27.2973 23.7891 27.4368 24.0372 27.5638 24.3332C27.176 24.9251 26.0112 23.7844 26.4952 23.4392Z" fill="#75BA6D"/>
<path d="M28.5026 24.1545C28.5989 24.1221 29.3633 24.3533 29.3773 24.4042C29.2057 24.8943 28.0423 25.5309 28.4706 24.6184C28.3352 24.4134 28.2529 24.6616 28.2446 24.6539C28.0549 24.4889 28.4385 24.1745 28.504 24.1529L28.5026 24.1545Z" fill="#83C565"/>
<path d="M36.8875 19.003C37.0688 19.2234 37.4552 19.2419 37.6966 19.4315C38.5991 20.1405 38.4972 21.7636 37.6324 22.5081C36.5778 23.416 35.268 22.8519 34.0711 23.2958L33.0026 23.2249C32.3595 22.3124 32.7501 21.779 33.3583 21.0792C34.1632 20.1513 35.6906 18.9321 36.8875 19.003Z" fill="#F3DB6E"/>
<path d="M37.4052 20.2192C37.1666 20.9853 36.3088 21.2242 35.6573 21.0778C35.409 20.694 35.6015 20.3379 35.9168 20.0759C36.073 20.6755 37.0006 20.2886 36.4343 19.8616C36.7537 19.8462 37.2015 19.8955 37.4052 20.2192Z" fill="#BE6137"/>
<path d="M35.6572 21.0778C36.3087 21.2242 37.1665 20.9853 37.4051 20.2192C38.0398 21.2289 36.0855 21.7406 35.6572 21.0778Z" fill="#923D20"/>
<path d="M36.434 19.8615C37.0004 20.2884 36.0727 20.6753 35.9165 20.0757C35.9597 20.0403 36.0407 19.8892 36.1425 19.8615C36.215 19.8414 36.3447 19.8661 36.434 19.8615Z" fill="#E08859"/>
<path d="M33.0024 23.2234L34.071 23.2943C35.2664 22.8504 36.5763 23.4145 37.6322 22.5066C38.4971 21.7621 38.5989 20.139 37.6964 19.43C37.4537 19.2404 37.0687 19.2219 36.8873 19.0015C39.6967 19.1695 39.0244 24.5444 36.0127 24.2238C35.7281 24.1929 35.2357 23.9324 34.9121 23.8661C34.1826 23.7151 33.5381 23.9833 33.0024 23.2218V23.2234Z" fill="#3E9444"/>
<path d="M34.2646 23.5101C34.6217 23.3837 34.7877 23.9293 34.167 23.618C34.2019 23.5933 34.2367 23.5209 34.2646 23.5101Z" fill="#75BA6D"/>
<path d="M42.8101 20.7202C44.0335 20.566 44.9723 22.9013 43.781 23.4392C42.4377 24.0465 41.372 20.9021 42.8101 20.7202Z" fill="#CECB36"/>
<path d="M42.8757 20.9343L43.2635 21.0052C43.774 21.591 42.6288 21.5139 42.8757 20.9343Z" fill="#CECB36"/>
<path d="M55.8893 36.8169C56.5798 36.6566 58.4546 37.3456 58.1881 38.2828C58.0598 38.736 54.9812 38.4015 54.8863 38.0686C54.7761 37.6832 55.5754 36.8894 55.8893 36.8169Z" fill="#F5D53B"/>
<path d="M55.9534 37.318C56.4639 37.2224 57.287 37.4429 57.605 37.9269C56.7555 37.6633 55.9952 37.0113 55.242 37.9623C55.1946 37.671 55.779 37.3519 55.9548 37.318H55.9534Z" fill="#F3DB6E"/>
<path d="M46.6633 32.2375C47.1404 34.5851 47.1739 37.8421 47.4403 40.3222C47.4515 40.427 47.4836 40.6459 47.5045 40.8232C46.9256 41.0082 47.4431 41.8097 47.3748 42.2536C46.6536 42.3661 45.6604 42.622 44.9797 42.8979L44.8499 32.31C44.8527 32.2869 44.8471 32.2622 44.8499 32.2391H46.6633V32.2375Z" fill="url(#paint0_linear_345_21659)"/>
<path d="M43.2961 31.809C43.232 31.9678 43.3617 32.2329 43.3603 32.31C43.3408 36.1928 43.1441 40.0833 43.2306 43.9707C43.2055 43.9769 42.9474 44.2482 42.8428 44.3283L43.0367 31.7366C43.1943 31.7397 43.2822 31.8075 43.2961 31.8075V31.809Z" fill="#F4C97E"/>
<path d="M46.6635 32.2377H44.8501C44.8933 31.8709 44.7678 31.877 45.1737 31.7368C45.6368 31.7491 46.1027 31.7275 46.5659 31.7368C46.6049 31.763 46.644 32.1437 46.6635 32.2377Z" fill="#F58547"/>
<path d="M45.1734 31.7368C44.7675 31.877 44.8931 31.8709 44.8498 32.2377C44.847 32.2608 44.8526 32.2855 44.8498 32.3086H43.3614C43.3614 32.2315 43.2331 31.9664 43.2973 31.8077C43.911 31.8138 44.5485 31.7183 45.1748 31.7368H45.1734Z" fill="#F36F37"/>
<path d="M40.3834 31.0214C40.3834 31.1694 39.8115 31.7228 39.7683 31.7366C39.2256 31.9062 37.1877 31.6858 36.4986 31.6657C36.5306 31.0677 36.5823 30.4789 36.5627 29.8777C36.553 29.5648 36.3507 28.2114 36.3688 28.1251C36.3786 28.0758 37.0063 27.4639 37.0482 27.4454C37.1779 27.3883 39.6971 27.3344 39.8324 27.3745C39.8743 27.3868 40.4978 27.9371 40.5118 27.9833C40.5913 28.2438 40.3221 30.3864 40.3821 31.0245L40.3834 31.0214Z" fill="#FAFCFD"/>
<path d="M41.1601 49.0499C41.7181 49.167 42.2663 49.4537 42.8438 49.4784C42.8438 49.5477 42.9415 49.5786 42.908 49.6926L42.8438 49.7635C42.682 50.8548 43.6027 50.5851 44.3322 50.6221V50.9797C42.6067 50.9797 40.8784 50.9735 39.1528 50.9797C39.3091 50.5959 39.6745 50.3708 39.8656 50.0132C39.9187 49.9146 40.3064 48.8973 40.319 48.8325C40.4376 49.073 40.9202 48.9959 41.1601 49.0468V49.0499Z" fill="#BE6137"/>
<path d="M45.497 49.1223C45.49 49.1747 45.4412 49.3967 45.4328 49.409C45.4231 49.4244 45.1804 49.4321 45.2069 49.6957H42.908C42.9401 49.5816 42.8438 49.5508 42.8438 49.4814C42.8438 49.11 42.8327 48.7046 42.908 48.3362C43.7589 48.6106 44.6405 48.8587 45.497 49.1238V49.1223Z" fill="#EDAB51"/>
<path d="M42.9081 31.6657C42.7797 31.6595 42.2427 31.9138 42.2608 31.5948C42.3334 31.4807 42.318 30.6437 42.325 30.4495C42.5719 30.0749 42.4171 31.0584 42.4226 31.0938C42.4478 31.1092 42.6389 31.006 42.6486 30.9859C42.883 30.5389 42.4966 27.9524 42.6486 27.2665C42.5691 27.0353 40.6525 26.0704 40.5771 25.5139C40.7515 25.5494 42.8621 27.0507 42.9081 27.1956V31.6672V31.6657Z" fill="#F58547"/>
<path d="M38.3759 26.3001C38.9059 26.2908 40.0526 26.092 40.4153 26.1567C40.5213 26.1752 42.1673 27.3467 42.2287 27.4438C42.3933 27.7089 42.3444 29.981 42.3263 30.448C42.3193 30.6407 42.3333 31.4792 42.2621 31.5933C42.2538 31.6056 42.1743 31.6519 42.1645 31.7366C41.7642 31.8229 41.2787 31.6519 40.9021 31.6657C41.0318 30.8534 40.9467 30.018 40.9663 29.1979C40.9732 28.9421 41.202 27.954 41.1601 27.7675C41.142 27.6843 40.1837 26.9151 40.0595 26.8735C39.9005 26.8195 36.9474 26.7517 36.7898 26.8026C36.7284 26.8226 35.8692 27.6997 35.851 27.769C35.7269 28.2361 35.9752 28.8141 35.9808 29.2719C35.9849 29.6249 35.8789 31.006 35.9166 31.1679C35.4688 31.396 35.1605 31.6673 34.6863 31.7397C34.6807 30.9058 34.6932 30.0688 34.6863 29.2365C34.6835 28.8866 34.4617 27.8446 34.6542 27.5918C35.0629 27.5317 36.4006 26.2045 36.5959 26.1614C36.8916 26.0966 37.9574 26.3124 38.3759 26.3047V26.3001Z" fill="#FAFCFD"/>
<path d="M40.0596 26.8719C40.1823 27.3143 40.566 27.5455 40.9007 27.766C40.6803 28.7324 40.8882 29.8176 40.771 30.7702C40.6901 31.4283 40.5757 31.2249 40.4474 31.4499C40.5088 31.3066 40.3874 31.0769 40.3832 31.0214C40.3232 30.3848 40.5911 28.2407 40.5129 27.9802C40.499 27.934 39.8755 27.3837 39.8336 27.3714C39.6983 27.3328 37.1791 27.3868 37.0493 27.4423C37.0061 27.4608 36.3798 28.0727 36.37 28.122C36.3533 28.2083 36.5541 29.5617 36.5639 29.8746C36.2221 29.9779 36.3853 30.9305 36.3044 31.305C36.0701 31.3035 35.9961 31.5023 35.9166 31.1617C35.879 31.0014 35.985 29.6187 35.9808 29.2657C35.9752 28.8095 35.7283 28.2315 35.8511 27.7629C35.8692 27.695 36.7285 26.8164 36.7899 26.7964C36.9475 26.7471 39.9006 26.8149 40.0596 26.8673V26.8719Z" fill="#F4C97E"/>
<path d="M40.9007 31.6658C40.8714 31.6658 40.5032 31.9463 40.3497 31.88C40.2479 31.8122 40.4069 31.5209 40.4474 31.4515C40.5757 31.2265 40.6901 31.4299 40.771 30.7718C40.8882 29.8176 40.6803 28.734 40.9007 27.7676C40.5645 27.5471 40.1823 27.3159 40.0596 26.8735C40.1837 26.9152 41.142 27.6843 41.1602 27.7676C41.2006 27.9541 40.9719 28.9421 40.9663 29.198C40.9454 30.018 41.0318 30.8534 40.9021 31.6658H40.9007Z" fill="#F8984D"/>
<path d="M36.564 29.8777C36.5821 30.4788 36.5319 31.0692 36.4998 31.6657C36.3045 31.6596 35.9028 31.8445 35.6587 31.7012C36.0186 31.4391 36.2041 31.7767 36.3059 31.3081C36.3868 30.9335 36.2236 29.9794 36.5654 29.8777H36.564Z" fill="#F58547"/>
<path d="M41.1605 49.0497C40.9192 48.9989 40.4379 49.076 40.3193 48.8355C40.3403 48.723 40.3737 48.5149 40.3835 48.407C40.7657 48.6243 41.2846 48.3376 41.1605 49.0513V49.0497Z" fill="#D97E2A"/>
<path d="M40.5772 25.5124C40.6525 26.0689 42.5692 27.0338 42.6487 27.265C42.4966 27.9509 42.883 30.539 42.6487 30.9844C42.6389 31.0029 42.4478 31.1062 42.4227 31.0923C42.4171 31.0569 42.572 30.075 42.325 30.448C42.3432 29.9794 42.392 27.7074 42.2274 27.4438C42.166 27.3452 40.5214 26.1752 40.414 26.1567C40.0513 26.092 38.9047 26.2908 38.3746 26.3001C38.5294 26.1382 37.9157 26.0874 37.8892 26.0858C37.6911 26.0673 36.656 25.9225 36.5947 25.9425C36.4984 25.9749 35.561 26.7949 35.3643 26.9444C35.1676 27.0939 34.565 27.3359 34.4576 27.4454C34.2121 27.6951 34.5343 28.7879 34.5553 29.3058C34.5846 30.0534 34.5343 30.8103 34.5553 31.5594L34.1019 31.7736C34.2833 31.7736 34.5078 31.7659 34.685 31.7382C35.1593 31.6642 35.4676 31.3929 35.9153 31.1663C35.9948 31.507 36.0702 31.3066 36.3031 31.3097C36.2013 31.7798 36.0158 31.4407 35.6559 31.7027C35.9 31.8461 36.3031 31.6611 36.497 31.6673C37.1861 31.6873 39.2241 31.9093 39.7667 31.7382C39.81 31.7243 40.3819 31.1709 40.3819 31.023C40.3875 31.08 40.5088 31.3081 40.4461 31.4515C40.407 31.5208 40.248 31.8122 40.3484 31.88C40.5005 31.9463 40.8701 31.6657 40.8994 31.6657C41.2761 31.6519 41.7615 31.823 42.1618 31.7366C42.1716 31.6519 42.2511 31.6056 42.2595 31.5933C42.2414 31.9139 42.7784 31.6596 42.9067 31.6642C42.9137 31.6642 42.8733 31.732 43.0365 31.7351L42.8426 44.3269C42.1353 44.8648 41.0445 45.8405 41.0292 46.7592C41.011 47.9692 41.9582 48.0278 42.9067 48.333C42.8314 48.7014 42.8412 49.1068 42.8426 49.4782C42.2665 49.4536 41.7169 49.1669 41.1589 49.0497C41.283 48.3361 40.7641 48.6228 40.3819 48.4054C40.4628 47.5361 40.202 46.1442 39.5073 45.6155C38.8126 45.0868 38.2351 45.4166 37.4679 45.4721C37.2893 45.1238 37.5446 44.3238 37.274 44.0417C37.6939 43.6949 38.3272 43.3434 38.6341 42.861C39.6928 41.1963 38.0384 40.9543 37.2098 42.6822C37.0871 42.5481 36.4412 43.0968 36.4329 43.1477C36.398 43.3635 36.6923 44.7184 36.6923 45.187C36.052 45.1145 35.2918 45.1222 34.8147 45.6155C34.3753 45.8066 33.9708 46.4817 33.8439 46.975C33.4351 48.5534 33.9875 49.7927 34.8803 50.9811C34.3279 50.9888 33.7323 50.8933 33.1966 50.9102C33.1199 50.4694 32.9358 49.8436 32.9371 49.4073C32.9371 49.19 33.0515 48.8863 33.0669 48.6921C33.085 48.4455 33.2831 47.8706 33.2608 47.6548C33.2524 47.5746 32.9483 47.3295 33.0013 46.9395C33.0125 46.8579 33.2412 46.5126 33.2608 46.3677C33.3389 45.7835 33.3208 44.5658 32.8074 44.1851C32.1406 43.6903 31.8533 44.2405 31.5129 44.7569C31.5757 44.3793 31.4501 43.8105 31.5129 43.4328C31.7082 42.2691 32.2843 42.2059 31.9007 40.6074C31.7236 39.8722 31.3818 39.4421 30.8643 38.9628C30.5183 38.6406 30.1543 38.4186 29.7637 38.1751L30.2812 31.843C30.3886 31.5763 32.654 31.843 33.0334 31.7351C33.092 31.7181 34.014 31.0461 34.0364 30.9844C34.247 30.3925 33.7741 28.0419 33.9066 27.265C34.4172 27.0924 35.953 25.5278 36.2696 25.44C36.5863 25.3521 37.4972 25.5849 37.8878 25.5833C38.5783 25.5803 40.0122 25.3968 40.5744 25.5124H40.5772Z" fill="url(#paint1_linear_345_21659)"/>
<path d="M32.9707 33.0962C33.0461 34.1752 33.4673 34.2831 33.5217 33.2041C34.2722 34.3093 32.2803 34.4418 32.9707 33.0962Z" fill="#D18930"/>
<path d="M38.3762 26.3001C37.9564 26.3078 36.892 26.092 36.5963 26.1568C36.401 26.1999 35.0619 27.5271 34.6546 27.5872C34.4621 27.84 34.6838 28.8835 34.6866 29.2319L34.5569 29.3028C34.5374 28.7849 34.2138 27.6935 34.4593 27.4423C34.5667 27.3329 35.179 27.0831 35.366 26.9413C35.5627 26.7918 36.5001 25.9718 36.5963 25.9394C36.6591 25.9178 37.6927 26.0643 37.8908 26.0828C37.9173 26.0859 38.5311 26.1367 38.3762 26.297V26.3001Z" fill="#FBC15D"/>
<path d="M34.6866 29.2334C34.6936 30.0673 34.681 30.9043 34.6866 31.7366C34.5108 31.7644 34.2849 31.7736 34.1035 31.7721L34.5569 31.5578C34.5359 30.8087 34.5862 30.0519 34.5569 29.3043L34.6866 29.2334Z" fill="#F58547"/>
<path d="M40.3516 33.1687C40.7505 33.6666 40.4283 34.3047 39.834 34.0273C39.6666 33.7745 39.6053 33.5864 39.7364 33.2766L39.9303 33.9209C40.4311 34.1829 40.2679 33.2242 40.3516 33.1702V33.1687Z" fill="#BE7839"/>
<path d="M33.4883 32.0234C33.6529 32.0866 33.6027 33.0963 33.5524 33.0963C33.4715 32.7448 33.565 32.3733 33.4883 32.0234Z" fill="#ECBC2E"/>
<path d="M44.8501 32.3101L44.9798 42.898C44.6324 43.0383 44.3897 43.197 44.0731 43.3989C43.808 43.5685 43.5179 43.735 43.2961 43.9708C43.2752 43.9739 43.2515 43.9662 43.2319 43.9708C43.1454 40.0834 43.3407 36.1929 43.3617 32.3101H44.8501Z" fill="url(#paint2_linear_345_21659)"/>
<path d="M45.4332 49.4072C45.7847 49.8249 46.5393 49.4889 46.8895 49.6215C46.9397 49.64 47.3819 50.2396 47.6665 50.4091C47.9873 50.6003 48.7559 50.8484 49.1228 50.9101C47.5325 51.0411 45.9256 50.981 44.3312 50.981V50.6234C44.8877 50.6511 45.4973 50.6619 46.0469 50.5525C45.8558 50.5047 45.1904 50.6188 45.0761 50.5525C45.0537 50.5402 44.9449 50.0824 44.8822 50.0515C44.6102 49.9205 43.2278 49.9159 42.8428 49.7648L42.9069 49.6939H45.2058C45.1807 49.4303 45.422 49.4226 45.4318 49.4072H45.4332Z" fill="#E3974B"/>
<path d="M44.3321 50.6235C43.6012 50.5865 42.6805 50.8562 42.8437 49.7649C43.2287 49.916 44.6111 49.9206 44.8831 50.0516C44.9459 50.0824 45.0561 50.5402 45.077 50.5526C45.1914 50.6188 45.8568 50.5048 46.0479 50.5526C45.4983 50.662 44.8887 50.6512 44.3321 50.6235Z" fill="#E08859"/>
<path d="M40.3832 48.4054C40.3734 48.5149 40.3399 48.7214 40.319 48.8339C40.3065 48.8971 39.9187 49.9145 39.8657 50.0147C39.676 50.3707 39.3091 50.5973 39.1529 50.9811C39.0454 50.9811 38.9366 50.9811 38.8292 50.9811V50.8378C38.8753 50.8193 39.4556 50.064 39.4765 50.0147C39.5281 49.8975 39.3356 49.9037 39.3467 49.8713C39.5086 49.3965 39.9591 49.1098 39.2826 48.9048C39.5044 47.886 39.5448 47.0151 38.8292 46.2582C38.2936 45.691 38.1527 45.802 37.4371 45.7573C37.2264 45.859 37.1734 47.0783 37.5347 46.7592C37.4036 47.348 37.8081 48.2266 37.6645 48.7985C37.6505 48.8555 37.0953 49.6447 37.0172 49.728C37.0074 49.5522 37.087 49.1869 36.8554 49.1915C36.575 49.7511 35.6585 49.4859 35.5288 49.9792C35.3419 49.654 34.7393 49.1962 35.0113 48.6921C35.4409 49.0836 36.6308 49.0651 36.7591 48.2991C36.8261 47.8968 36.5931 46.2074 35.9822 46.3322C36.1105 46.2475 36.5095 45.7742 36.6294 45.617C36.7884 45.6047 36.9391 45.5615 37.0828 45.5461C37.2264 45.5307 37.3339 45.4845 37.4706 45.4752C38.2378 45.4197 38.8264 45.0976 39.51 45.6186C40.1935 46.1396 40.4641 47.5392 40.3846 48.4085L40.3832 48.4054Z" fill="#EB3F4A"/>
<path d="M34.2969 47.1183C33.9439 47.741 34.1992 49.2177 34.6847 47.9769C34.8018 48.2112 34.7976 48.5009 35.0083 48.6921C34.7377 49.1961 35.3389 49.6555 35.5258 49.9792C35.5593 50.0377 35.6444 50.3553 35.6555 50.3722C35.7797 50.5603 35.8425 50.3291 35.915 50.4431C35.9289 50.4647 36.0029 50.9117 35.9792 50.9795C35.6137 50.9826 35.244 50.9749 34.8786 50.9795C33.9858 49.7911 33.4334 48.5518 33.8421 46.9734C34.0667 46.9703 34.0765 47.3156 34.2955 47.1168L34.2969 47.1183Z" fill="#EC6757"/>
<path d="M37.2749 44.0416C37.2623 44.0293 36.9945 44.0123 36.9513 43.9707L38.5052 41.7881L36.8871 43.7549C36.8564 43.4559 37.0824 42.9503 37.2107 42.6821C38.0393 40.9542 39.6937 41.1962 38.635 42.8609C38.3281 43.3418 37.6948 43.6948 37.2749 44.0416Z" fill="#3E9444"/>
<path d="M37.211 42.6821C37.0827 42.9503 36.8567 43.4575 36.8874 43.7549C36.8999 43.8706 36.8539 43.8736 36.9515 43.9692C36.9948 44.0108 37.2626 44.0278 37.2752 44.0401C37.5458 44.3222 37.2905 45.1222 37.4691 45.4705C37.331 45.4798 37.218 45.5276 37.0813 45.5414C36.9278 45.6385 36.713 45.3996 36.6935 45.3981V45.1838C36.6935 44.7152 36.3992 43.3603 36.434 43.1446C36.4424 43.0952 37.0882 42.5465 37.211 42.679V42.6821Z" fill="#D18930"/>
<path d="M36.6921 45.4012C36.7131 45.4028 36.9265 45.6417 37.0799 45.5446C36.9362 45.56 36.7856 45.6032 36.6266 45.6155C36.4159 45.6325 35.9277 45.4537 35.7519 45.5446C35.5957 45.6247 35.6892 45.8128 35.6543 45.9022C35.4771 45.6371 34.7155 46.1565 34.6834 46.2953C34.6402 46.4802 34.802 46.5141 34.8132 46.6174C34.8173 46.6637 34.8104 46.713 34.8132 46.7608C34.682 46.7053 34.3347 47.049 34.2956 47.1184C34.0766 47.3188 34.0669 46.9719 33.8423 46.975C33.9692 46.4833 34.3752 45.8066 34.8132 45.6155C35.1187 45.4829 36.3322 45.3673 36.6907 45.4012H36.6921Z" fill="#F58547"/>
<path d="M36.692 45.1869V45.4012C36.3335 45.3673 35.1199 45.4829 34.8145 45.6154C35.2915 45.1206 36.0518 45.1129 36.692 45.1869Z" fill="#F3DB6E"/>
<path d="M38.8292 46.2598C39.5448 47.0181 39.5043 47.889 39.2825 48.9064C39.1221 49.6432 38.7538 50.2366 38.2461 50.7314C38.2628 50.8655 38.751 50.8686 38.8292 50.8393V50.9826C37.8806 50.9873 36.9293 50.9734 35.9807 50.9826C36.0044 50.9148 35.9305 50.4678 35.9165 50.4462C35.8454 50.3322 35.7812 50.5634 35.6571 50.3753C35.6459 50.3584 35.5608 50.0393 35.5273 49.9823C35.6571 49.4906 36.5735 49.7557 36.8539 49.1946C37.0855 49.1915 37.006 49.5553 37.0157 49.731C37.0939 49.6478 37.649 48.8586 37.663 48.8015C37.8067 48.2297 37.4021 47.3526 37.5333 46.7623C37.6895 46.0625 38.3618 46.343 38.8278 46.2613L38.8292 46.2598Z" fill="#DD242D"/>
<path d="M35.0097 48.692C34.799 48.5009 34.8032 48.2111 34.686 47.9768C34.8967 47.4404 34.8409 47.2862 34.8158 46.7606C34.813 46.7144 34.8199 46.6635 34.8158 46.6173C35.0027 46.7144 35.2691 46.5279 35.3988 46.403C35.516 46.5695 35.8634 46.4092 35.9819 46.3321C36.5915 46.2088 36.8259 47.8966 36.7589 48.2989C36.6306 49.0666 35.4407 49.0835 35.0111 48.692H35.0097Z" fill="#F26D6E"/>
<path d="M38.8292 50.8377C38.7525 50.867 38.2628 50.8639 38.2461 50.7298C38.7525 50.235 39.1221 49.6431 39.2825 48.9048C39.9605 49.1083 39.5099 49.395 39.3467 49.8712C39.3355 49.9036 39.528 49.8959 39.4764 50.0146C39.4555 50.0639 38.8752 50.8192 38.8292 50.8377Z" fill="#DD242D"/>
<path d="M38.8291 46.2597C38.3632 46.3414 37.6908 46.0609 37.5346 46.7607C37.1733 47.0813 37.2277 45.8605 37.4369 45.7588C38.1511 45.8035 38.2934 45.6925 38.8291 46.2597Z" fill="#EB3F4A"/>
<path d="M36.6278 45.6155C36.5078 45.7727 36.1075 46.2459 35.9805 46.3307C35.8634 46.4078 35.516 46.5696 35.3975 46.4016C35.7225 46.0871 35.5523 46.1704 35.6569 45.9006C35.6918 45.8112 35.5969 45.6232 35.7546 45.543C35.9289 45.4521 36.4186 45.6309 36.6292 45.6139L36.6278 45.6155Z" fill="#EC6757"/>
<path d="M34.8141 46.7607C34.8393 47.2863 34.8951 47.4404 34.6844 47.9768C34.1976 49.2177 33.9423 47.741 34.2966 47.1183C34.3357 47.0489 34.683 46.7052 34.8141 46.7607Z" fill="#F7B9AB"/>
<path d="M36.9512 43.9706C36.8536 43.8751 36.8982 43.8705 36.887 43.7564L38.5052 41.7896L36.9512 43.9722V43.9706Z" fill="#99C995"/>
<path d="M35.6568 45.9021C35.5522 46.1719 35.7224 46.0871 35.3974 46.4031C35.2677 46.5295 35.0012 46.716 34.8143 46.6173C34.8031 46.5141 34.6413 46.4802 34.6846 46.2952C34.7167 46.1565 35.4783 45.637 35.6554 45.9021H35.6568Z" fill="#F8A79C"/>
<path d="M45.4968 25.2982C44.2749 28.2237 47.9798 30.1012 49.3162 27.6596C49.3008 27.9494 49.6942 27.5008 49.704 27.4808C50.0387 26.7918 49.8937 25.8299 49.7681 25.0839C50.0583 25.719 50.1671 25.964 50.0918 26.7286C50.0164 27.4931 49.4668 28.3964 48.8935 28.8033C48.27 29.2457 47.5586 29.3274 46.8541 29.2318C45.0547 28.6476 44.2512 26.5945 45.3002 24.7957C45.3085 25.1317 45.0672 25.1718 45.4941 25.2966L45.4968 25.2982Z" fill="#EC6757"/>
<path d="M49.7708 25.0839C49.8963 25.83 50.0414 26.7918 49.7066 27.4808C49.6968 27.5009 49.3021 27.9494 49.3188 27.6596C50.9941 24.5999 46.7256 22.3633 45.4995 25.2982C45.0726 25.1733 45.314 25.1348 45.3056 24.7972C45.5985 24.2947 45.9152 23.971 46.4062 23.7244C47.8179 23.3329 49.0705 23.5456 49.7722 25.0839H49.7708Z" fill="#F58876"/>
<path d="M50.4182 26.8011C50.2648 28.8111 48.4988 29.7668 46.8569 29.2335C47.5614 29.3275 48.2728 29.2458 48.8963 28.805C49.4696 28.398 50.0192 27.4824 50.0946 26.7302L50.4182 26.8011Z" fill="#AA1F23"/>
<path d="M50.418 26.8011L50.0944 26.7302C50.1697 25.9641 50.0609 25.7205 49.7708 25.0855C49.0677 23.5471 47.8165 23.3344 46.4048 23.726C48.3423 22.7487 50.6035 24.3841 50.4194 26.8026L50.418 26.8011Z" fill="#DD242D"/>
<path d="M49.3178 27.6597C47.9801 30.1013 44.2751 28.2254 45.4985 25.2983C46.7246 22.3634 50.9945 24.6 49.3178 27.6597Z" fill="#EB3F4A"/>
<path d="M47.0191 25.7283C47.0303 25.7191 47.1837 25.9364 47.213 25.9426C47.6441 26.0274 47.6385 25.7314 47.6664 25.7283C47.9495 25.6929 47.983 26.8366 47.8603 26.8736C47.778 26.8983 47.2521 26.7164 46.9857 26.9815C46.9508 26.7873 46.9089 25.8224 47.0177 25.7299L47.0191 25.7283Z" fill="#F58876"/>
<path d="M47.4724 26.9446C47.5408 27.3931 47.6775 28.0035 47.5366 28.4475C47.4585 27.9835 47.3692 27.4085 47.4724 26.9446Z" fill="#EC6757"/>
<path d="M49.0263 26.5868C49.0835 26.5452 49.2718 26.593 49.3179 26.6947C49.2049 26.7995 48.8617 26.7101 49.0263 26.5868Z" fill="#F36F37"/>
<path d="M46.3075 27.5163C46.5363 27.4638 46.2768 27.8199 46.2434 27.803C46.1583 27.7598 46.2308 27.5348 46.3075 27.5163Z" fill="#F58547"/>
<path d="M46.1778 26.3712C46.3131 26.3866 46.4777 26.3326 46.5991 26.4066C46.5991 26.439 46.1708 26.5099 46.1778 26.3712Z" fill="#F29D6B"/>
<path d="M46.1123 25.2273C46.2281 25.3244 46.348 25.3182 46.242 25.514L46.1123 25.2273Z" fill="#F29D6B"/>
<path d="M49.0262 26.2293C49.2466 26.1013 49.3164 26.4034 49.0904 26.3726C49.0765 26.3711 48.9621 26.2663 49.0262 26.2293Z" fill="#F58876"/>
<path d="M48.5729 26.5145C48.6371 26.5222 48.8617 26.4883 48.8645 26.5499C48.8296 26.5977 48.5227 26.6378 48.5729 26.5145Z" fill="#F58547"/>
<path d="M46.8254 24.5831C46.9565 24.5538 46.9523 24.765 46.8895 24.7974C46.8644 24.8112 46.7263 24.6047 46.8254 24.5831Z" fill="#EFAA8F"/>
<path d="M47.1488 24.4397C47.2143 24.4628 47.2032 24.7064 47.0846 24.6539C46.987 24.6123 47.1265 24.432 47.1488 24.4397Z" fill="#F8A79C"/>
<path d="M47.0191 28.1606L47.0512 28.267L46.9549 28.304L46.9229 28.267L47.0191 28.1606Z" fill="#EFB274"/>
<path d="M49.0903 25.585L49.1559 25.6559V25.7283H49.0903V25.585Z" fill="#F29D6B"/>
<path d="M18.1118 35.3142C18.095 35.4129 18.0476 35.3805 18.0476 35.3851C17.6403 35.6302 17.0349 35.4992 16.6554 35.5994C16.5327 35.6318 16.4085 35.8445 16.2997 35.8861C16.1728 35.1555 15.9608 34.5497 15.6525 33.8468C15.5256 33.557 15.0903 32.6507 14.9397 32.4164C14.789 32.1821 14.842 32.1682 14.6161 32.3085C14.5756 32.0942 14.5979 31.8245 14.4863 31.6287C14.5965 31.4854 14.577 31.5177 14.6802 31.6287C15.0373 32.011 15.3861 33.1747 15.6832 33.668L15.4572 31.843L15.5869 31.7721L16.2663 33.4537L16.3304 31.7366C16.4616 31.9046 16.8326 33.6834 16.9456 33.5616L17.2051 32.774L17.431 34.169L17.8188 32.8094L17.9486 34.0256L18.5958 32.8803C18.4814 33.7081 18.2401 34.5528 18.1104 35.3127L18.1118 35.3142Z" fill="#3E9444"/>
<path d="M16.2981 35.8861C15.941 36.0187 15.6816 35.8353 15.3914 36.3517L15.7471 36.3871C15.7485 36.7524 15.5197 36.2684 15.1961 36.6014L13.0591 34.5621C13.1428 34.3586 14.1095 35.0785 14.1918 35.2418C14.4498 35.2896 13.4399 34.075 13.6742 33.9548L14.7428 34.8488L14.0634 32.7386L15.0343 34.0257C15.1543 33.9887 14.6395 32.4503 14.613 32.3085C14.839 32.1683 14.7874 32.1837 14.9367 32.4164C15.0859 32.6492 15.5211 33.5571 15.6495 33.8469C15.9578 34.5482 16.1698 35.1555 16.2967 35.8861H16.2981Z" fill="#83C565"/>
<path d="M16.7517 39.1771C16.6457 39.3359 16.6331 39.8276 16.8493 39.8923C16.887 39.9031 17.5747 39.5116 17.5287 39.8569C17.4938 40.1235 16.6889 39.8784 16.8814 40.7154C16.9609 40.8357 17.7463 40.6152 17.8523 40.4657C17.8858 40.6214 17.8955 40.6661 17.9164 40.8233C17.5231 40.8757 16.9665 40.8557 17.2371 41.3952C17.1269 41.4445 17.0293 41.0037 16.8814 40.9667C16.7614 40.7401 16.9009 40.5983 16.5578 40.6091C16.6917 39.9432 15.5604 40.3255 15.393 40.0727C15.1977 39.7783 16.0305 39.9678 15.9761 39.8584L15.9119 39.2495C16.1295 39.2634 16.4936 38.9074 16.7531 39.1786L16.7517 39.1771Z" fill="#F3DB6E"/>
<path d="M17.8519 40.4656C17.7459 40.6151 16.9606 40.837 16.881 40.7153C16.6885 39.8783 17.4934 40.1234 17.5283 39.8567C17.5743 39.5114 16.8866 39.9045 16.849 39.8922C16.6327 39.8274 16.6467 39.3357 16.7513 39.1769C16.9508 38.8764 17.1126 38.9827 17.3986 38.8193C17.6315 39.049 17.4864 39.345 17.8519 39.4282C17.5227 39.7719 17.7333 39.923 17.8519 40.4656Z" fill="#F5D53B"/>
<path d="M17.399 38.8193C17.113 38.9827 16.9512 38.8763 16.7517 39.1769C16.4909 38.9071 16.1268 39.2632 15.9106 39.2478C15.8673 39.2447 15.34 39.0027 15.1978 38.9981C15.2033 38.8501 15.7348 38.8254 15.845 38.8193C16.2077 38.7962 16.4309 38.9811 16.4602 38.9626C16.5355 38.9133 16.4504 38.7206 16.5243 38.6759C16.5592 38.6559 17.2637 38.5942 17.3013 38.605C17.4045 38.6328 17.3906 38.8116 17.399 38.8193Z" fill="#F6ED96"/>
<path d="M19.9889 42.2535C19.8118 42.2135 19.8829 42.3584 19.8592 42.3969C19.6946 42.6713 19.378 42.7899 19.0822 42.8254C19.0474 42.7283 19.0376 42.3676 19.0181 42.3244C19.0906 41.9576 19.3347 42.01 19.6011 41.8235C19.8592 42.0485 19.8467 42.0901 19.9889 42.252V42.2535Z" fill="#CFA62B"/>
<path d="M17.9179 40.8233C17.9318 40.9235 18.1187 41.0037 18.0476 41.2164C18.0169 41.3073 17.3222 41.6279 17.2385 41.6094C17.0446 41.5694 16.9651 41.1208 16.8828 40.9651C17.0307 41.0037 17.1283 41.4445 17.2385 41.3936C16.9679 40.8541 17.5259 40.8742 17.9179 40.8218V40.8233Z" fill="#F5D53B"/>
<path d="M19.4716 41.4659C19.4703 41.4782 19.3517 41.6678 19.3419 41.6802C19.3015 41.7372 19.0378 41.8204 18.9862 41.9669C18.657 41.8805 18.8383 41.6308 18.5649 41.4305C18.8132 41.2609 19.0448 41.0883 19.2778 40.894C19.4075 41.0312 19.5023 41.2686 19.4716 41.4659Z" fill="#F5D53B"/>
<path d="M18.3052 37.9608C18.2271 38.2383 17.7221 38.5312 17.6259 38.4618C17.6022 38.4448 17.4501 37.9593 17.3999 37.8899C17.6301 37.7697 17.8323 37.6063 18.0472 37.4614L18.3066 37.9624L18.3052 37.9608Z" fill="#F5D53B"/>
<path d="M19.8595 40.5366C20.0102 40.8511 19.9976 41.0669 19.7954 41.3243C19.7563 41.3736 19.7661 41.4306 19.6656 41.4676C19.6196 41.4846 19.5317 41.4568 19.4717 41.4676C19.5024 41.2688 19.4062 41.0314 19.2778 40.8958C19.4048 40.7894 19.7479 40.643 19.8609 40.5382L19.8595 40.5366Z" fill="#CFA62B"/>
<path d="M16.8169 37.1023C16.9313 37.7605 17.1015 37.4799 17.4 37.89C17.4516 37.9609 17.6023 38.4449 17.626 38.4618C17.7236 38.5312 18.2272 38.2383 18.3053 37.9609C18.3249 37.8915 18.2705 37.6063 18.3374 37.6033C18.4099 38.2537 18.6262 38.0256 18.9847 37.7466C19.1451 37.7235 19.0558 37.9038 19.0823 37.9609C18.3904 38.263 19.0697 38.7239 18.7587 39.1416C18.8926 39.2633 19.0516 38.9813 19.0823 38.9628C19.1674 38.9119 19.2943 38.7485 19.3083 38.7485C19.3473 38.747 19.4408 38.9289 19.4701 38.9628C19.3738 39.3265 18.7629 39.2988 18.7252 39.3204C18.6568 39.3589 18.7294 39.4976 18.661 39.5346C18.1686 39.7998 17.732 39.4684 18.2077 40.4641C18.5522 40.4703 18.8759 39.9077 18.9205 39.8922C18.9554 39.8799 19.1869 40.2591 19.5357 39.7489C19.7365 39.7042 19.5956 39.9385 19.5677 39.9631C19.2385 40.2699 18.9595 39.994 19.2441 40.6075C19.4059 40.7246 20.2917 39.6348 20.3126 39.9986C20.208 40.3177 20.0378 40.182 19.8593 40.3562C19.8411 40.3732 19.8746 40.5211 19.8593 40.535C19.7463 40.6398 19.4031 40.7863 19.2762 40.8926C19.0432 41.0884 18.8117 41.2595 18.5634 41.429C18.8354 41.6294 18.6555 41.8791 18.9847 41.9654C19.0363 41.8205 19.3013 41.7358 19.3404 41.6787C19.5901 41.4645 19.5775 41.8036 19.5998 41.8221C19.3348 42.0086 19.0893 41.9562 19.0167 42.323C19.0112 42.3107 18.8591 42.2398 18.8549 42.1088L18.7573 42.2167C18.7168 42.6221 18.8675 42.9226 18.887 43.325C18.7824 43.3142 18.6666 43.3404 18.5634 43.325C18.1812 43.2664 17.8366 42.9381 17.6567 42.8964L17.4307 42.5388C17.4307 42.8471 17.2326 42.844 17.1392 42.9674C17.0206 43.1261 17.1141 43.2571 17.0415 43.325C16.969 43.3928 16.6593 43.1508 16.6202 43.3604C16.577 43.5932 16.9146 43.493 17.2033 43.5392C17.0652 43.8043 16.6495 43.6101 16.4905 43.6826C16.2548 43.3943 16.0037 43.0429 15.7135 42.824C15.7498 42.1704 15.5182 41.3751 15.3899 40.6784C15.6033 40.6105 15.8656 40.7477 16.0372 40.7493C15.9577 41.2965 16.7486 40.9296 16.8783 40.9635C16.9606 41.1192 17.0401 41.5678 17.234 41.6078C17.3177 41.6248 18.0124 41.3057 18.0431 41.2148C18.1142 41.0021 17.9273 40.9204 17.9133 40.8217C17.8924 40.6645 17.8827 40.6198 17.8492 40.4641C17.7306 39.9215 17.52 39.7705 17.8492 39.4267C17.4837 39.345 17.6288 39.0476 17.3958 38.8179C17.3875 38.8102 17.4014 38.6298 17.2982 38.6036C17.2605 38.5928 16.5561 38.6545 16.5212 38.6745C16.4473 38.7177 16.531 38.9104 16.457 38.9612C16.4277 38.9797 16.2046 38.7963 15.8419 38.8179C15.814 38.2029 15.588 38.3524 15.2588 38.0672C15.2867 37.9701 16.125 37.9485 16.1976 37.8884C16.2631 37.8345 16.04 37.4491 16.4891 37.1732C16.5128 37.1578 16.743 37.1408 16.8127 37.1023H16.8169Z" fill="#F3DB6E"/>
<path d="M19.5354 39.7505C19.1866 40.2591 18.9551 39.8815 18.9202 39.8938C18.8756 39.9092 18.5519 40.4734 18.2074 40.4657C17.7317 39.4699 18.1683 39.7998 18.6607 39.5362C18.7291 39.4992 18.6566 39.3605 18.7249 39.322C18.7626 39.3004 19.3736 39.3281 19.4698 38.9644C19.6581 39.1848 19.7251 39.473 19.534 39.752L19.5354 39.7505Z" fill="#ECBC2E"/>
<path d="M18.9206 40.3223C19.1047 40.4178 19.1898 40.5627 19.1465 40.7878C18.8396 40.7831 18.6151 41.2826 18.4016 41.1099C18.0208 40.4394 18.5732 40.6907 18.9192 40.3223H18.9206Z" fill="#F5D53B"/>
<path d="M19.0823 38.9629C19.0516 38.9813 18.8926 39.2634 18.7586 39.1417C19.0697 38.7255 18.3904 38.2631 19.0823 37.9609C19.1423 38.0889 19.0892 38.3078 19.2762 38.354L19.0823 38.9629Z" fill="#CFA62B"/>
<path d="M16.8809 40.9666C16.7498 40.9327 15.9603 41.298 16.0398 40.7523C16.323 40.7554 16.5308 40.6105 16.5573 40.609C16.9005 40.5982 16.761 40.7415 16.8809 40.9666Z" fill="#F6ED96"/>
<path d="M17.6581 42.8981C17.633 42.892 17.2187 43.0122 17.1406 42.969C17.2341 42.8442 17.4322 42.8473 17.4322 42.5405L17.6581 42.8981Z" fill="#CFA62B"/>
<path d="M18.2731 42.8257C18.3554 42.8041 18.5465 42.8134 18.6288 42.8612C18.4782 43.0199 18.2704 43.077 18.1113 42.9321C18.1602 42.9259 18.2494 42.8303 18.2731 42.8242V42.8257Z" fill="#CFA62B"/>
<path d="M20.0533 42.5403C20.0157 42.5681 20.1565 42.6313 20.0854 42.6837C19.9403 42.79 19.3949 42.8856 19.3405 43.1122C18.9946 43.0582 19.162 43.0505 19.0811 42.8255C19.3768 42.7885 19.6934 42.6698 19.858 42.397L20.0519 42.5403H20.0533Z" fill="#F3DB6E"/>
<path d="M20.572 39.7505C20.7464 40.1219 21.0951 40.5381 21.2849 40.9666C21.3672 41.1516 21.4397 41.5416 21.5443 41.7543C21.5345 41.7682 21.5541 41.8067 21.5443 41.8252L21.1886 41.1809C21.1551 41.1963 21.1328 41.3489 21.091 41.3951C21.0073 41.4892 20.7101 41.7605 20.7032 41.7882C20.6669 41.9069 20.8301 41.9562 20.8329 41.967C20.8594 42.0626 21.07 42.6082 21.1244 42.6113L21.5457 41.8961C21.5401 42.0086 21.6447 41.95 21.6754 41.967C21.6308 42.5219 21.9628 42.9997 22.0632 43.5408C21.7619 43.3173 20.6976 42.9073 20.3475 42.8965C20.0406 42.8872 19.6556 43.1601 19.3445 43.1107C19.3989 42.8841 19.9443 42.7886 20.0894 42.6822C20.1605 42.6298 20.0196 42.5666 20.0573 42.5389C20.2066 42.4279 20.7311 42.4279 20.6404 42.0025C20.2805 41.9778 20.3 42.6005 19.9931 42.2522C19.8495 42.0903 19.8634 42.0472 19.6054 41.8237C19.5844 41.8052 19.5956 41.466 19.3459 41.6803C19.3557 41.6664 19.4728 41.4784 19.4756 41.466C19.5356 41.4553 19.6235 41.483 19.6695 41.466C19.7114 42.2213 20.971 40.4426 19.7992 41.3227C20.0029 41.0653 20.0155 40.8495 19.8634 40.535C19.8788 40.5212 19.8453 40.3732 19.8634 40.3562C20.042 40.1821 20.2121 40.3177 20.3168 39.9986C20.2958 39.6349 19.4115 40.7231 19.2482 40.6075C18.9651 39.9955 19.2427 40.2715 19.5719 39.9632C19.5998 39.937 19.7407 39.7042 19.5398 39.7489C19.7295 39.4715 19.6639 39.1817 19.4756 38.9613C19.4463 38.9273 19.3529 38.7439 19.3138 38.747C19.2985 38.747 19.1715 38.9119 19.0878 38.9613L19.2817 38.3524C19.0934 38.3062 19.1478 38.0857 19.0878 37.9593C19.0613 37.9023 19.152 37.722 18.9902 37.7451C18.6317 38.0241 18.4155 38.2538 18.3429 37.6017C18.276 37.6048 18.3304 37.89 18.3109 37.9593L18.0514 37.4584C18.0612 37.4507 18.0221 37.3597 18.0835 37.315C18.1142 37.2919 18.6219 37.4753 18.5689 36.922C18.3987 37.0669 18.17 37.09 17.9858 37.1717L17.7919 36.5998C17.944 36.4827 18.3708 36.3563 18.2453 36.1343C18.156 35.9771 17.5715 36.6923 17.598 36.0989C18.0207 36.1405 17.5227 35.9247 17.7599 35.6704C18.4406 36.0881 17.9189 35.6395 17.9217 35.5625C17.9217 35.5347 18.0388 35.4761 18.0514 35.3836C18.0514 35.379 18.0988 35.4099 18.1156 35.3127C19.2789 36.3547 20.0043 37.7805 20.5762 39.2834C20.586 39.3096 20.4158 39.4052 20.5762 39.7489L20.572 39.7505Z" fill="#CFA62B"/>
<path d="M21.5429 41.8252C21.5331 41.8437 21.5513 41.8776 21.5429 41.8961L21.1216 42.6113C21.0672 42.6083 20.8566 42.0626 20.8301 41.967C21.3071 42.0395 21.2681 41.7589 21.0895 41.3952C21.1314 41.3489 21.1537 41.1963 21.1872 41.1809L21.5429 41.8252Z" fill="#CFA62B"/>
<path d="M19.3417 37.4599C19.2999 37.5324 19.2315 37.6449 19.1478 37.6742C19.1297 37.6541 18.9985 37.7127 18.9539 37.6387C18.9358 37.6094 18.7698 36.996 18.7921 36.959C19.2176 36.905 19.6458 36.9451 19.3431 37.4599H19.3417Z" fill="#CFA62B"/>
<path d="M19.6655 41.466C19.766 41.429 19.7562 41.3719 19.7953 41.3226C20.9684 40.4425 19.7074 42.2213 19.6655 41.466Z" fill="#F5D53B"/>
<path d="M20.83 41.9669C20.8272 41.9561 20.6654 41.9068 20.7002 41.7881C20.7086 41.7603 21.0043 41.489 21.088 41.395C21.2666 41.7588 21.3056 42.0409 20.8286 41.9669H20.83Z" fill="#DBC026"/>
<path d="M20.2149 39.0337C20.4576 39.268 20.0713 39.3836 20.0531 39.4268C20.0364 39.4653 20.427 40.0711 19.7295 39.5701L20.2149 39.0337Z" fill="#F5D53B"/>
<path d="M20.0533 42.5403L19.8594 42.3969C19.8831 42.3584 19.8106 42.2135 19.9891 42.2536C20.296 42.602 20.2765 41.9792 20.6364 42.0039C20.727 42.4293 20.2025 42.4293 20.0533 42.5403Z" fill="#F5D53B"/>
<path d="M20.604 40.6798C20.8523 40.6706 20.809 41.1792 20.604 41.1808C20.2929 41.1808 20.3557 40.6891 20.604 40.6798Z" fill="#F5D53B"/>
<path d="M19.1479 37.6758C19.2316 37.6465 19.3 37.5324 19.3418 37.4615C19.6515 37.4538 19.4841 37.85 19.3739 37.9625C19.2037 37.9949 19.1591 37.6897 19.1479 37.6758Z" fill="#F5D53B"/>
<path d="M19.6976 38.4619C20.0268 38.431 19.8161 38.912 19.6334 38.8904C19.3921 38.8626 19.5692 38.4727 19.6976 38.4619Z" fill="#F5D53B"/>
<path d="M18.0472 35.3852C18.0346 35.4776 17.9188 35.5362 17.9174 35.564C17.9146 35.641 18.4363 36.088 17.7556 35.6719C17.5185 35.9277 18.0165 36.1435 17.5938 36.1004C17.5854 36.1004 17.538 35.9108 17.4641 35.9925L17.5938 36.1004C17.5673 36.6938 18.1532 35.9801 18.241 36.1358C18.3666 36.3562 17.9397 36.4842 17.7877 36.6013C17.3595 36.9312 16.8852 36.9836 17.5617 37.5308C17.6677 37.4614 17.9174 37.2025 17.983 37.1732C18.1671 37.09 18.3959 37.0668 18.5661 36.9235C18.6191 37.4769 18.1113 37.295 18.0806 37.3165C18.0193 37.3612 18.0583 37.4522 18.0485 37.4599C17.8337 37.6048 17.6315 37.7682 17.4013 37.8884C17.1042 37.4799 16.934 37.7589 16.8182 37.1008C16.814 37.0792 17.1279 36.9913 16.7861 36.814L16.3328 36.9574L16.4946 37.1717C16.0454 37.4476 16.2686 37.8329 16.2031 37.8869C16.1305 37.947 15.2922 37.9686 15.2643 38.0657C15.5935 38.3508 15.8194 38.2013 15.8473 38.8163C15.7371 38.8225 15.2057 38.8472 15.2001 38.9951C15.3424 38.9998 15.8683 39.2433 15.9129 39.2448L15.9771 39.8537C16.0329 39.9631 15.2001 39.7736 15.394 40.068C15.5614 40.3207 16.6927 39.9385 16.5588 40.6044C16.5323 40.6044 16.323 40.7508 16.0412 40.7477C15.8697 40.7462 15.6074 40.609 15.394 40.6768C15.274 40.0263 14.8597 38.3231 14.8765 37.779C14.889 37.3643 15.1415 37.0252 15.2001 36.5983C15.5223 36.2653 15.7525 36.7493 15.7511 36.384L15.3954 36.3485C15.6855 35.8322 15.945 36.0171 16.3021 35.883C16.4109 35.843 16.5364 35.6302 16.6578 35.5963C17.0372 35.4946 17.6426 35.6272 18.0499 35.3821L18.0472 35.3852Z" fill="#F3DB6E"/>
<path d="M16.817 37.1024C16.7472 37.1409 16.5171 37.1594 16.4934 37.1733L16.3315 36.959L16.7849 36.8157C17.1267 36.9929 16.8142 37.0808 16.817 37.1024Z" fill="#F3DB6E"/>
<path d="M17.9815 37.1746C17.916 37.2039 17.6677 37.4629 17.5603 37.5323C16.8851 36.9835 17.3594 36.9326 17.7863 36.6028L17.9802 37.1746H17.9815Z" fill="#F5D53B"/>
<path d="M15.6185 36.9589C15.638 36.9543 15.8835 37.0652 16.0063 36.9589C16.2127 37.8082 14.6002 37.2255 15.6185 36.9589Z" fill="#F6ED96"/>
<path d="M17.5936 36.1018L17.4639 35.9939C17.5378 35.9123 17.5852 36.1003 17.5936 36.1018Z" fill="#CFA62B"/>
<path d="M29.765 38.1751C30.1556 38.4171 30.5197 38.6406 30.8656 38.9628C30.8517 39.5208 31.4403 40.1065 31.4487 40.7508C31.4557 41.3319 30.9423 41.9223 31.1251 42.5034C30.655 42.0009 30.9995 43.4082 30.9953 43.7196L30.7694 43.0398L30.5434 43.755C30.5434 43.3219 30.5085 42.3462 30.4137 41.8945C30.3718 41.6941 30.2867 41.5107 30.2198 41.3227C30.0454 40.8294 29.7692 40.4641 29.507 40.0356C29.4595 39.957 29.4316 39.903 29.3772 39.8213C29.3605 39.7967 29.3284 39.7011 29.3131 39.678C29.7232 39.2048 29.1387 38.9581 28.7955 38.7115C28.6993 38.6422 28.6198 38.4634 28.6016 38.747C28.3157 38.4757 28.1162 38.4279 27.8247 38.246C27.7744 38.2152 27.7521 38.1289 27.5652 38.0318C25.8466 37.127 23.4027 36.7678 21.8027 38.1027C22.3942 36.1574 24.5828 35.1339 26.2372 36.1713C26.533 36.3562 27.1439 37.2194 27.2081 37.2441C27.3797 37.3088 27.9321 37.2287 28.2445 37.315C28.405 37.3597 29.5572 38.0441 29.7664 38.1736L29.765 38.1751Z" fill="#75BA6D"/>
<path d="M31.9019 40.6073C31.7652 40.8601 31.6662 40.6536 31.4486 40.7507C31.4402 40.1064 30.8515 39.5206 30.8655 38.9626C31.3816 39.4436 31.7248 39.8721 31.9019 40.6073Z" fill="#51A646"/>
<path d="M29.3114 39.678C29.052 39.3065 28.9404 39.0722 28.5986 38.7485C28.6168 38.4633 28.6977 38.6437 28.7925 38.713C29.1371 38.9597 29.7216 39.2063 29.31 39.6795L29.3114 39.678Z" fill="#51A646"/>
<path d="M31.5129 44.7569C31.5088 44.78 31.5185 44.8062 31.5129 44.8278C31.3944 45.338 30.3844 45.9962 29.959 46.1873C30.6565 45.7264 30.4486 45.0436 30.4765 44.3268C30.4779 44.2791 30.4765 44.2313 30.4765 44.1835C30.4765 44.1326 30.5421 43.9276 30.5407 43.755L30.7666 43.0398L30.9926 43.7195C30.9968 43.4082 30.6523 42.0009 31.1224 42.5034C30.941 41.9222 31.453 41.3319 31.446 40.7508C31.6636 40.6552 31.7626 40.8602 31.8993 40.6074C32.2829 42.2059 31.7054 42.2691 31.5115 43.4328C31.4488 43.8089 31.5743 44.3792 31.5115 44.7569H31.5129Z" fill="#3E9444"/>
<path d="M30.9633 43.8984C31.2144 43.7458 31.1279 44.5411 31.093 44.5427C31.1209 44.4132 30.8977 43.9384 30.9633 43.8984Z" fill="#71A65F"/>
<path d="M27.5637 38.0333C27.5958 38.3971 27.3684 38.6715 27.0462 38.6776C25.94 37.8607 24.5562 37.3936 23.3231 37.89C23.3091 37.8961 23.1362 38.0534 23.1933 38.1042C23.3956 38.0472 23.7304 38.132 23.9062 38.1042C23.9313 38.0996 23.9661 37.8961 24.0359 37.89C24.1628 37.8776 25.9079 37.9578 25.5243 38.1767L24.8449 38.2476C24.2619 38.2368 22.3131 38.5451 21.9644 38.9628C21.5655 39.4406 22.4973 39.1478 22.5154 39.3559C22.0551 39.7813 22.3257 40.3408 22.1276 41.0005C21.91 41.0052 21.7691 40.9605 21.5445 40.9651C21.4162 40.9682 21.4064 40.8618 21.2851 40.9651C21.0968 40.5366 20.7466 40.1204 20.5723 39.7489C20.9266 39.1586 21.2851 38.5358 21.8026 38.1042C23.4026 36.7678 25.8465 37.1285 27.5651 38.0333H27.5637Z" fill="#DEE9A3"/>
<path d="M27.8229 38.2476C28.1144 38.4279 28.3139 38.4757 28.5999 38.7485C28.9416 39.0738 29.0518 39.3065 29.3127 39.678C29.3294 39.7011 29.3601 39.7951 29.3769 39.8213C28.9165 39.7843 29.3852 40.9697 29.0211 40.8233C28.5901 40.0849 27.8912 39.4052 27.2412 38.8919C27.4602 38.5327 27.4267 38.8842 27.6946 38.784C27.3514 38.7131 27.5899 38.2969 27.8243 38.2476H27.8229Z" fill="#DEE9A3"/>
<path d="M29.507 40.0355C29.7678 40.4656 30.044 40.8294 30.2198 41.3226C30.1877 41.6864 30.2016 42.38 29.832 42.5742C29.5558 41.5954 29.1052 41.0991 29.3145 39.9985L29.5084 40.034L29.507 40.0355Z" fill="#DEE9A3"/>
<path d="M30.4121 41.8961C30.5055 42.3477 30.5404 43.3234 30.5418 43.7566C30.5418 43.9292 30.479 44.1357 30.4777 44.1851L30.0899 44.4348C30.1317 43.5392 29.7425 42.6128 30.4135 41.8945L30.4121 41.8961Z" fill="#C1DB7A"/>
<path d="M27.8234 38.2477C27.589 38.297 27.3519 38.7132 27.6936 38.7841C27.4258 38.8828 27.4607 38.5329 27.2403 38.892C27.1482 38.8196 27.0687 38.6947 27.0464 38.6778C27.3686 38.6716 27.596 38.3972 27.5639 38.0334C27.7508 38.1321 27.7718 38.2169 27.8234 38.2477Z" fill="#E5EEBE"/>
<path d="M21.9964 41.6819C22.472 41.722 23.037 41.6511 23.5182 41.611C23.4178 41.9902 23.9186 43.6611 24.1334 43.8646C24.3092 44.0326 25.2507 44.0819 25.46 44.401C26.0486 44.2222 26.0333 42.67 26.1072 42.613C26.1867 42.5513 27.8788 42.4388 28.049 42.4696C28.4298 42.539 28.9655 42.9752 29.2472 43.2573C29.2291 43.4422 29.2835 43.9848 29.0533 44.1513C28.713 44.3964 27.9388 43.1201 28.6 43.006C28.6139 42.7178 27.5119 43.3374 27.4994 43.4345C28.0392 43.5594 27.5691 43.8307 27.5635 43.863C27.5524 43.9262 27.6598 44.2715 27.4659 44.4719C27.452 44.4873 27.1046 44.4565 27.0781 44.4719C26.4643 44.8264 25.9538 45.3659 25.2326 45.5093C25.8185 45.6465 26.2649 45.127 26.7866 44.9004C26.8912 45.48 27.3571 46.021 26.6568 46.4033C26.5676 46.3802 26.4643 46.3 26.3332 46.2599C26.276 46.243 26.2607 46.206 26.2035 46.189C25.9175 46.1012 24.4277 45.4507 24.3259 45.5802C24.3106 45.6002 24.1348 46.0195 24.132 46.0457H24.0678V45.1517L24.4556 45.4384C24.3189 45.1871 24.3147 44.9497 24.2617 44.6877C24.1794 44.2777 24.3789 43.7382 23.5824 43.9C23.3718 43.9432 23.1556 44.3671 23.0314 44.5443L22.6436 43.4361C23.5071 43.413 22.546 43.0276 22.2879 42.7563C22.1177 42.5775 21.8736 42.0858 21.6727 41.9687C21.6421 41.9517 21.5388 42.0103 21.543 41.8977C21.5514 41.8793 21.5332 41.8438 21.543 41.8268C21.5528 41.8099 21.5332 41.7698 21.543 41.7559C21.6169 41.6542 21.61 41.5525 21.6407 41.5417C21.6909 41.5232 21.7746 41.6665 21.9964 41.685V41.6819Z" fill="#DEE9A3"/>
<path d="M23.0317 44.5427C23.0247 44.552 23.022 44.6845 22.9675 44.757C22.6621 44.2869 22.5156 43.8784 22.0608 43.5408C21.9604 42.9998 21.6284 42.5219 21.673 41.967C21.8739 42.0842 22.118 42.5759 22.2882 42.7547C22.5463 43.026 23.5088 43.4113 22.6439 43.4345L23.0317 44.5427Z" fill="#93A650"/>
<path d="M21.5431 40.9667C21.6854 41.0962 22.3243 41.443 21.9965 41.6819C21.7747 41.6634 21.691 41.5216 21.6408 41.5385C21.6115 41.5493 21.6185 41.6511 21.5431 41.7528C21.4399 41.5416 21.366 41.1517 21.2837 40.9651C21.4037 40.8619 21.4148 40.9682 21.5431 40.9651V40.9667Z" fill="#C1DB7A"/>
<path d="M24.8447 38.2477C25.0135 38.2507 26.0457 38.2985 26.1071 38.3186C26.188 38.3463 27.4518 39.4068 27.4337 39.4993L24.4876 39.6072C24.1835 40.0265 23.8906 39.581 23.613 40.0002C25.4041 39.8245 27.6192 38.855 28.6626 41.0731C28.9639 41.7127 28.5204 41.2642 28.5329 41.5016C28.5357 41.5463 29.0002 41.9054 29.116 42.1459C29.3043 42.5389 29.2834 42.8472 29.2457 43.2542C28.9653 42.9721 28.4283 42.5374 28.0475 42.4665C27.8773 42.4357 26.1852 42.5482 26.1057 42.6098C26.0318 42.6669 26.0471 44.2206 25.4585 44.3979C25.2492 44.0788 24.3077 44.0295 24.1319 43.8615C23.9171 43.658 23.4163 41.9871 23.5167 41.6079C23.0369 41.648 22.4705 41.7205 21.9949 41.6788C22.3227 41.4384 21.6838 41.0931 21.5415 40.9636C21.7647 40.959 21.907 41.0037 22.1246 40.9991C22.3241 40.3378 22.0534 39.7798 22.5124 39.3544C22.4956 39.1463 21.5624 39.4392 21.9614 38.9613C22.3101 38.5436 24.2602 38.2353 24.8419 38.2461L24.8447 38.2477Z" fill="#DEE9A3"/>
<path d="M29.9589 46.1888C29.7189 46.2967 29.493 46.3353 29.2461 46.4031C29.0731 45.9993 29.44 45.6386 29.44 45.2578C30.0551 45.4259 29.9073 44.595 30.4764 44.3284C30.4485 45.0451 30.6563 45.728 29.9589 46.1888Z" fill="#E5EEBE"/>
<path d="M29.4414 45.2579C29.4414 45.6371 29.0746 45.9994 29.2475 46.4032C28.5305 46.6005 27.9935 46.6699 27.2402 46.5466C27.2612 45.688 27.7605 45.9007 28.1469 45.688C28.4664 45.5123 28.6603 44.609 28.8918 44.5427C29.2001 44.4564 29.4414 44.962 29.4428 45.2579H29.4414Z" fill="#C1DB7A"/>
<path d="M28.1465 45.688C27.7615 45.9008 27.2607 45.688 27.2398 46.5466C27.0487 46.5142 26.8464 46.4526 26.6567 46.4033C27.357 46.0225 26.8897 45.4815 26.7865 44.9004C27.4114 44.6291 27.9791 44.2977 28.6961 44.3994L28.7603 44.5428L28.1451 45.688H28.1465Z" fill="#DEE9A3"/>
<path d="M27.0459 38.6761C27.0683 38.693 27.1478 38.8179 27.2398 38.8903C27.8899 39.4036 28.5887 40.0849 29.0198 40.8217C29.3838 40.9697 28.9151 39.7844 29.3755 39.8198C29.4299 39.9015 29.4578 39.957 29.5052 40.0341L29.3113 39.9986C29.1021 41.0992 29.554 41.5955 29.8288 42.5743C30.1985 42.3801 30.1845 41.6865 30.2166 41.3227C30.2836 41.5107 30.3687 41.6942 30.4105 41.8945C29.7396 42.6113 30.1287 43.5392 30.0869 44.4348L30.4747 44.1851C30.4747 44.2329 30.4761 44.2806 30.4747 44.3284C29.9055 44.5966 30.0548 45.4275 29.4382 45.2579C29.4382 44.962 29.1969 44.4564 28.8872 44.5427C28.6557 44.6074 28.4618 45.5107 28.1424 45.688L28.7575 44.5427L28.6933 44.3993C27.9764 44.2976 27.4072 44.629 26.7837 44.9003C26.2634 45.1269 25.8156 45.6463 25.2297 45.5091C25.9495 45.3658 26.4615 44.8263 27.0752 44.4718C27.1017 44.4564 27.4491 44.4872 27.463 44.4718C27.6569 44.2714 27.5495 43.9261 27.5607 43.8629C27.5662 43.8306 28.0363 43.5577 27.4965 43.4344C27.5091 43.3373 28.611 42.7177 28.5971 43.0059C27.9359 43.12 28.7101 44.3963 29.0505 44.1512C29.282 43.9847 29.2276 43.4421 29.2443 43.2572C29.2834 42.8487 29.3029 42.5419 29.1146 42.1489C29.0002 41.9084 28.5343 41.5508 28.5315 41.5046C28.519 41.2657 28.9612 41.7142 28.6613 41.0761C27.6179 38.8564 25.4027 39.8275 23.6116 40.0032C23.8878 39.584 24.1807 40.0294 24.4862 39.6102L27.4323 39.5023C27.4505 39.4098 26.1867 38.3493 26.1057 38.3216C26.0444 38.3 25.0121 38.2537 24.8433 38.2507L25.5227 38.1798C25.9049 37.9609 24.1612 37.8807 24.0343 37.8931C23.9659 37.8992 23.9297 38.1042 23.9045 38.1073C23.7288 38.1351 23.394 38.0503 23.1917 38.1073C23.1345 38.0564 23.3075 37.8977 23.3215 37.8931C24.5546 37.3967 25.9384 37.8622 27.0445 38.6807L27.0459 38.6761Z" fill="#E5EEBE"/>
<path d="M27.9849 43.3264L28.6322 44.2559L27.6934 44.2204C27.7254 44.0278 27.805 43.3387 27.9849 43.3264Z" fill="#DEE9A3"/>
<path d="M29.3448 43.8274C29.5108 43.8366 29.5721 44.9465 29.0532 44.2929L29.3448 43.8274Z" fill="#DEE9A3"/>
<path d="M12.3812 38.6761C13.8375 38.3647 13.3228 40.9435 11.9934 40.3208C11.1941 39.9478 11.8135 38.7963 12.3812 38.6761Z" fill="#9ABF43"/>
<path d="M12.8025 42.9689C12.9531 43.6055 12.716 43.3157 12.6727 43.4344C12.6448 43.5114 12.8652 43.5299 12.8666 43.5423C12.9378 43.8922 12.2682 45.3103 12.5751 45.5461C12.5974 45.563 12.8931 45.1777 12.9964 45.617C12.8122 45.9099 12.8457 46.2798 12.8025 46.3677C12.716 46.5418 12.5388 46.4016 12.4147 46.5819C12.3798 46.6328 12.3073 47.163 12.2849 47.2262C12.1385 47.6439 12.0157 47.9445 11.8971 48.3715C11.7674 48.8324 11.9041 49.2424 11.3796 49.6956C10 48.1249 9.4309 45.4459 10.731 43.6132C10.8398 43.8336 10.5873 43.9415 10.9904 43.8999C10.9179 44.0633 10.7924 44.8247 11.0225 44.8293C11.0825 44.8309 11.5554 44.0586 11.6377 43.9353C11.7116 43.8228 11.6921 43.5577 11.7019 43.5423C11.8971 43.2571 12.3184 43.254 12.4147 42.8979C12.5486 42.9488 12.6658 42.9103 12.8025 42.9689Z" fill="#CECB36"/>
<path d="M13.7094 45.1868C12.9212 45.9175 13.2965 46.8762 13.1918 47.6901C13.136 48.1263 12.7971 48.2188 12.7385 48.4408C12.6018 48.9587 13.0035 49.9745 12.4149 50.5509C11.9908 50.2935 11.7174 50.0777 11.3784 49.6924C11.9029 49.2392 11.7662 48.8292 11.8959 48.3683C12.0159 47.9429 12.1373 47.6423 12.2837 47.223C12.306 47.1598 12.3786 46.6296 12.4135 46.5787C12.5376 46.3984 12.7162 46.5387 12.8013 46.3645C12.8459 46.2751 12.811 45.9067 12.9951 45.6138C13.2797 45.1591 13.4541 45.3271 13.708 45.1853L13.7094 45.1868Z" fill="#9ABF43"/>
<path d="M15.0691 50.5525V50.8392C15.0621 50.8392 15.1012 50.9101 14.9394 50.9101C14.8752 50.9101 14.8097 50.9101 14.7455 50.9101C14.5349 50.5386 14.2391 50.7421 13.9685 50.9101C13.6309 50.9147 13.3366 50.9209 12.9976 50.9101C12.8093 50.7837 12.6084 50.6697 12.4146 50.5525C13.0032 49.9745 12.6015 48.9587 12.7382 48.4423C12.7968 48.2204 13.1357 48.1279 13.1915 47.6917C13.4105 48.8092 13.9741 50.2242 15.0691 50.5525Z" fill="#51A646"/>
<path d="M15.7163 42.8255C16.0065 43.0444 16.2576 43.3958 16.4933 43.6841C16.4291 43.7134 16.04 44.2405 16.0079 44.2559C15.7219 44.3931 15.3299 44.3423 14.8752 44.5426C14.7915 44.5796 14.7469 44.703 14.6813 44.6505C15.1402 44.1157 14.5292 43.459 14.4874 43.2201C14.4414 42.9581 14.7148 42.9858 14.6492 42.898C14.4721 42.6606 13.3031 42.824 12.9976 42.7546C12.8581 42.6221 12.8749 42.5511 12.8037 42.4679C13.8053 41.9053 14.8208 42.1488 15.7177 42.8255H15.7163Z" fill="#51A646"/>
<path d="M11.7018 42.6822C12.0644 42.639 12.1467 42.7947 12.4146 42.8964C12.3183 43.2525 11.8971 43.2556 11.7018 43.5408C11.4744 43.3157 11.0866 43.6764 10.9889 43.8984C10.5872 43.94 10.8383 43.8321 10.7295 43.6117C11.1298 43.046 11.1243 43.0244 11.7004 42.6822H11.7018Z" fill="#F3DB6E"/>
<path d="M12.8023 42.4678C12.8735 42.5511 12.8567 42.6204 12.9962 42.7545C13.2975 43.0412 13.4817 43.2247 13.9029 43.22C13.783 43.2586 13.7077 43.3665 13.6435 43.4697C13.5877 43.126 13.0618 43.5869 12.8665 43.5406C12.8637 43.5283 12.6447 43.5098 12.6726 43.4327C12.7159 43.3156 12.953 43.6038 12.8023 42.9672C12.7689 42.8285 12.561 42.4601 12.4146 42.3954C12.6238 42.306 12.3992 41.9962 12.8023 42.4663V42.4678Z" fill="#A88837"/>
<path d="M12.8023 42.9688C12.6642 42.9103 12.547 42.9473 12.4145 42.8979C12.1466 42.7962 12.0657 42.6405 11.7017 42.6837C11.8886 42.5727 12.1829 42.4956 12.4145 42.397C12.5623 42.4617 12.7702 42.8301 12.8023 42.9688Z" fill="#9ABF43"/>
<path d="M13.7092 45.187C13.4567 45.3304 13.2809 45.1623 12.9964 45.6155C12.8931 45.1762 12.5974 45.56 12.5751 45.5446C12.2682 45.3103 12.9378 43.8922 12.8666 43.5408C13.0619 43.587 13.5878 43.1246 13.6436 43.4699C13.6185 43.5115 13.44 43.6826 13.546 43.7566C13.7175 43.8599 14.2476 43.436 14.2253 43.3635C14.2155 43.3296 13.712 43.2325 14.2574 42.9705C14.574 43.1847 14.2825 43.3404 14.2895 43.3635C14.3202 43.4591 14.5308 43.6888 14.5489 43.8645C14.6577 44.9928 14.4889 44.7477 13.7078 45.1885L13.7092 45.187Z" fill="#A7CE38"/>
<path d="M11.7021 43.5407C11.6909 43.5561 11.7118 43.8212 11.6379 43.9337C11.557 44.0571 11.0827 44.8293 11.0227 44.8278C10.7926 44.8216 10.9181 44.0617 10.9906 43.8983C11.0883 43.6763 11.4747 43.3156 11.7034 43.5407H11.7021Z" fill="#F6ED96"/>
<path d="M17.6584 43.6841C17.4617 44.2051 17.597 44.6907 17.205 45.1145C16.9205 45.0853 16.654 44.9619 16.3639 44.9712L14.8755 44.5427C15.3302 44.3438 15.7222 44.3932 16.0082 44.256C16.0403 44.2406 16.4294 43.7134 16.4936 43.6841C16.6512 43.6117 17.0669 43.8059 17.2064 43.5408C17.3236 43.5593 17.4854 43.6518 17.6598 43.6841H17.6584Z" fill="#D0B679"/>
<path d="M17.6586 42.8979C17.8386 42.9411 18.1831 43.2679 18.5653 43.3265C18.603 43.5854 18.5347 43.6162 18.3714 43.755C18.1706 43.6332 17.8051 43.7103 17.6586 43.6841C17.4843 43.6517 17.3225 43.5592 17.2053 43.5407C16.9165 43.4945 16.5804 43.5947 16.6222 43.3619C16.6613 43.1523 16.9709 43.3943 17.0435 43.3265C17.116 43.2586 17.0225 43.1276 17.1411 42.9688C17.2192 43.0105 17.6335 42.8918 17.6586 42.8979Z" fill="#BAA258"/>
<path d="M14.8742 44.5427L16.3626 44.9712C16.2928 44.9727 16.1184 44.9465 16.1031 45.0066L17.5273 45.8297C17.4799 46.6914 17.0447 47.8166 16.6862 48.5842C16.583 48.8062 15.6735 50.5218 15.5856 50.5881C15.4531 50.6898 15.2117 50.5958 15.0681 50.5526C13.973 50.2228 13.4095 48.8077 13.1905 47.6918C13.2951 46.8764 12.9199 45.9176 13.708 45.1885C14.4892 44.7477 14.6593 44.9928 14.5491 43.8645C14.5324 43.6887 14.3204 43.4591 14.2897 43.3635C14.2827 43.3388 14.5743 43.1847 14.2576 42.9704C13.7122 43.2325 14.2158 43.3296 14.2255 43.3635C14.2464 43.4375 13.7164 43.8614 13.5462 43.7566C13.4402 43.6826 13.6173 43.5115 13.6438 43.4699C13.7066 43.365 13.7819 43.2571 13.9033 43.2201C13.482 43.2263 13.2993 43.0413 12.9966 42.7546C13.3021 42.824 14.4696 42.6606 14.6482 42.898C14.7137 42.9858 14.4403 42.9581 14.4864 43.2201C14.5282 43.4591 15.1392 44.1157 14.6803 44.6506C14.7458 44.703 14.7919 44.5797 14.8742 44.5427Z" fill="#ECBC2E"/>
<path d="M18.3712 45.2579C20.0493 45.7341 19.6294 47.8382 18.8246 49.0852C18.268 49.9484 17.4087 50.4647 16.5592 50.9102C16.064 50.9009 15.559 50.8362 15.0708 50.8393V50.5526C15.2145 50.5957 15.4558 50.6898 15.5883 50.588C15.6762 50.5218 16.5857 48.8062 16.6889 48.5842C17.0474 47.8166 17.484 46.6929 17.5301 45.8297C17.5468 45.5168 17.4296 45.3658 17.4659 45.1145C17.7979 45.1607 18.0281 45.1592 18.3726 45.2579H18.3712Z" fill="#F8984D"/>
<path d="M20.5723 45.973C20.5542 46.0701 20.4105 46.4493 20.4426 46.5819C20.497 46.8084 20.6448 46.867 20.702 47.0474L20.1845 48.5857C19.5707 49.6231 18.7798 50.4492 17.7239 50.9101C17.3361 50.9055 16.9455 50.9178 16.5591 50.9101C17.41 50.4662 18.2693 49.9483 18.8245 49.0851C19.6293 47.8381 20.0492 45.7341 18.3711 45.2578C18.4841 45.1838 18.6347 45.0605 18.7589 45.0435C19.0142 45.0081 18.9165 45.2717 19.1802 45.4011C19.388 45.5029 20.0911 45.7063 20.3449 45.7587C20.504 45.7911 20.6044 45.6709 20.5709 45.973H20.5723Z" fill="#D8532C"/>
<path d="M18.3712 43.7565C18.6767 43.718 18.3378 44.202 18.3712 44.2929C18.388 44.3361 18.8093 44.6274 18.759 45.0436C18.6335 45.0606 18.4842 45.1839 18.3712 45.2579C18.0267 45.1608 17.7965 45.1608 17.4645 45.1145C17.346 45.0976 17.2525 45.1191 17.2051 45.1145C17.5971 44.6906 17.4617 44.2035 17.6584 43.6841C17.8049 43.7103 18.169 43.6348 18.3712 43.755V43.7565Z" fill="#A28252"/>
<path d="M16.3639 44.9726C16.6555 44.9634 16.9219 45.0867 17.2051 45.116C17.2525 45.1206 17.346 45.099 17.4646 45.116C17.4297 45.3672 17.5469 45.5198 17.5287 45.8312L16.1045 45.0081C16.1198 44.948 16.2942 44.9742 16.3639 44.9726Z" fill="#ECBC2E"/>
<path d="M19.0185 42.3246C19.0381 42.3678 19.0492 42.7285 19.0827 42.8256C19.1622 43.0491 18.9948 43.0583 19.3422 43.1123C19.3282 43.1724 19.4872 43.7119 19.5361 43.8275C19.3157 43.9385 19.4384 44.0171 19.3742 44.0417C19.1566 44.1281 18.9418 43.8352 18.6614 44.0417C18.5903 43.6918 18.9209 44.0109 18.8874 43.3265C18.8679 42.9242 18.7172 42.6236 18.7577 42.2183L18.8553 42.1104C18.8595 42.2414 19.0116 42.3123 19.0171 42.3246H19.0185Z" fill="#AC5528"/>
<path d="M22.0609 43.5408C22.5156 43.8783 22.6621 44.2868 22.9676 44.757C22.9564 44.7708 22.9788 44.814 22.9676 44.8279C22.7472 45.1392 22.4501 45.3504 22.1906 45.6155C22.1669 45.5523 22.1418 45.5138 22.093 45.4722L20.7664 45.5431C20.8236 45.17 20.8752 44.5674 20.8961 44.1835C20.9045 44.0417 21.0844 43.5778 20.864 43.4683C20.4679 43.4082 20.1554 43.5454 19.7955 43.6826C19.6588 43.735 19.6379 43.7751 19.5361 43.8259C19.4872 43.7103 19.3282 43.1708 19.3422 43.1107C19.6532 43.1601 20.0382 42.8872 20.3451 42.8965C20.6953 42.9057 21.7596 43.3157 22.0609 43.5408Z" fill="#DE6C26"/>
<path d="M23.5507 50.8378C23.6051 50.8825 23.6121 50.9072 23.6149 50.9087C22.8505 51.0398 22.0554 50.9796 21.284 50.9796C21.263 50.9796 21.2407 50.9796 21.2198 50.9796C21.2142 50.6637 21.5072 50.8764 21.5755 50.8363C21.7276 50.7453 22.4976 49.782 22.5143 49.6201C22.8519 50.1488 23.0779 50.4417 23.5507 50.8363V50.8378Z" fill="#D12E27"/>
<path d="M22.1905 45.6155C22.1961 45.6309 22.1905 45.6679 22.1905 45.6864C22.1821 45.8514 21.8878 46.5034 21.8669 46.9735C21.8515 47.3064 21.8683 47.8305 21.931 48.1542C21.9938 48.4779 22.5099 49.4274 22.5141 49.5492C22.5141 49.5723 22.5169 49.5985 22.5141 49.6201C22.4974 49.7819 21.7274 50.7453 21.5753 50.8363C21.507 50.8763 21.214 50.6636 21.2196 50.9796C20.9616 50.9796 20.7007 50.9796 20.4426 50.9796C20.79 50.155 21.3466 49.7002 21.0899 48.7261C21.0704 48.6552 20.9155 48.7261 20.896 48.6552C20.8374 48.4486 21.0508 48.1326 21.0257 47.7966C21.009 47.5623 20.7649 47.2432 20.7021 47.0459C20.6449 46.8671 20.497 46.807 20.4426 46.5804C20.4106 46.4494 20.5542 46.0687 20.5724 45.9716C20.5766 45.9485 20.7509 45.6479 20.7663 45.5431L22.0928 45.4722C22.1403 45.5138 22.1668 45.5523 22.1905 45.6155Z" fill="#D8532C"/>
<path d="M20.896 44.1852C20.3785 44.4703 20.1414 44.0202 19.7954 43.6842C20.1553 43.5455 20.4678 43.4098 20.8639 43.47C21.0843 43.5794 20.9044 44.0434 20.896 44.1852Z" fill="#EFB274"/>
<path d="M18.8887 43.3266C18.9222 44.011 18.5916 43.6934 18.6627 44.0418C18.9431 43.8353 19.1565 44.1281 19.3755 44.0418C19.4397 44.0156 19.3169 43.9385 19.5373 43.8275C19.6378 43.7767 19.6587 43.7366 19.7968 43.6842C20.1427 44.0202 20.3799 44.4703 20.8974 44.1852C20.8765 44.569 20.8248 45.1717 20.7676 45.5447C20.7509 45.651 20.5779 45.9501 20.5738 45.9732C20.6072 45.6711 20.5068 45.7913 20.3478 45.7589C20.0939 45.7065 19.3908 45.5031 19.183 45.4013C18.9194 45.2718 19.017 45.0083 18.7617 45.0437C18.8106 44.6275 18.3893 44.3362 18.3739 44.293C18.3405 44.2021 18.6794 43.7181 18.3739 43.7566C18.5371 43.6179 18.6055 43.5855 18.5678 43.3281C18.6711 43.3435 18.7868 43.3173 18.8915 43.3281L18.8887 43.3266Z" fill="#D97E2A"/>
<path d="M18.7268 44.3994C18.7798 44.3593 19.0183 44.424 19.0183 44.5073C19.0183 44.7262 18.4868 44.5797 18.7268 44.3994Z" fill="#F4C97E"/>
<path d="M20.7008 47.0474C20.7635 47.2447 21.0077 47.5653 21.0244 47.798C21.0495 48.1341 20.8375 48.4485 20.8947 48.6566C20.9142 48.729 21.0704 48.6566 21.0886 48.7275C21.3452 49.7017 20.7887 50.1564 20.4413 50.981C19.6225 50.981 18.7995 50.981 17.9806 50.981C17.9653 50.8639 17.8035 50.9101 17.7212 50.9101C18.7772 50.4477 19.5681 49.6231 20.1819 48.5857L20.6994 47.0474H20.7008Z" fill="#AA1F23"/>
<path d="M33.0669 48.6921C33.0529 48.8864 32.9385 49.19 32.9371 49.4074C32.6275 50.01 31.8589 50.3908 31.7068 50.9811C31.2967 51.0428 31.0637 51.2416 30.7359 51.4821C30.4611 51.5114 30.1724 51.7287 29.8292 51.7688C28.4831 51.9245 27.2528 52.2004 25.8802 51.7688C25.7225 51.7195 25.5384 51.7025 25.3947 51.6254C25.3194 51.5854 25.4631 51.5052 25.4268 51.4821C25.8774 51.1306 26.1466 51.5669 26.6251 51.6254C28.0284 51.7981 30.4723 51.7904 31.545 50.7669C32.255 50.0902 31.6217 50.3754 31.6426 50.2305C31.6524 50.1596 32.3945 49.3765 32.5494 49.1931C32.6247 49.1022 32.9623 48.8602 33.0669 48.6921Z" fill="#D49E31"/>
<path d="M25.4284 51.482C25.4646 51.5036 25.321 51.5853 25.3963 51.6253C25.54 51.7009 25.7241 51.7194 25.8817 51.7687C25.3279 51.7656 24.71 51.5961 24.198 51.3402C24.1185 51.3001 23.7224 50.9934 23.6149 50.9117C23.6108 50.9086 23.6038 50.8855 23.5508 50.8408L23.8744 50.6974C23.9386 50.7421 24.2064 50.9625 24.2622 50.8053C24.1506 50.7282 24.1269 50.5911 24.0683 50.4832C24.5705 50.8207 24.8955 51.1598 25.4284 51.4851V51.482Z" fill="#D97E2A"/>
<path d="M32.8086 44.1849V44.3283C32.2938 44.188 32.6384 44.5225 32.5491 44.7213C31.9535 46.067 31.0621 47.371 29.603 47.5467C29.1608 47.6007 28.0086 47.5806 27.6934 47.1891C28.3071 47.1691 30.5014 46.1918 31.0273 45.7587C31.0691 45.7232 31.9242 44.8416 31.5127 44.8292C31.5183 44.8077 31.5085 44.7814 31.5127 44.7583C31.8544 44.242 32.1418 43.6917 32.8072 44.1865L32.8086 44.1849Z" fill="#F3DB6E"/>
<path d="M33.0667 48.692C32.9607 48.8601 32.6245 49.1021 32.5492 49.193C32.6622 48.8446 32.6845 48.4793 32.7431 48.1202C32.7528 48.0601 32.665 48.0477 32.6789 47.9414C32.7319 47.499 33.3038 47.1398 32.485 46.9749C32.4055 46.9595 32.3371 46.8578 32.1935 46.904C32.1014 46.9333 31.0608 47.9737 30.6716 48.1911C29.6589 48.3098 28.5164 48.8631 27.4995 48.7629L29.3129 48.262C29.3827 47.8658 29.6449 48.2635 29.6686 48.262C29.9114 48.2466 29.8081 48.1294 29.8625 48.1186C29.9393 48.1048 30.0397 48.2481 30.122 48.1895C30.1457 48.1726 30.2489 47.7965 30.4456 47.6886C30.9952 47.3896 31.3314 47.4219 31.9019 46.6867C33.2243 47.2647 33.0179 46.1379 32.8728 45.1129C32.8323 44.8308 32.8086 44.615 32.8086 44.3252V44.1819C33.3206 44.5626 33.3401 45.7788 33.262 46.3645C33.2425 46.5094 33.0137 46.8562 33.0025 46.9364C32.9481 47.3264 33.2536 47.5714 33.262 47.6516C33.2829 47.8674 33.0862 48.4423 33.0681 48.689L33.0667 48.692Z" fill="#CFA62B"/>
<path d="M27.434 50.195C28.8485 50.6667 30.302 50.1626 31.4807 49.2655C31.9103 48.9372 32.2563 48.3392 32.7431 48.1203C32.6845 48.4794 32.6622 48.8447 32.5492 49.1931C32.3958 49.3765 31.6523 50.1596 31.6425 50.2305C31.623 50.3754 32.2549 50.0902 31.5449 50.7669C30.4708 51.7904 28.0268 51.7981 26.6249 51.6254C26.1465 51.5669 25.8786 51.1322 25.4267 51.4821C24.8938 51.1584 24.5688 50.8177 24.0666 50.4802C23.3622 49.1854 22.9688 49.3411 22.9019 47.5469L23.4849 49.2286C24.2089 49.8744 24.6734 50.3507 25.4602 50.6944C26.3836 51.0983 27.2206 51.6856 27.4354 50.1935L27.434 50.195Z" fill="#F5D53B"/>
<path d="M23.2911 45.2578C23.0805 46.1149 22.8685 46.6359 22.9033 47.5468C22.9703 49.341 23.3637 49.1853 24.0681 50.4801C24.1267 50.588 24.1504 50.7252 24.262 50.8023C24.2048 50.9611 23.937 50.7406 23.8742 50.6944C23.6022 50.5002 22.7889 49.3981 22.7094 49.3703C22.5699 49.3225 22.6104 49.5383 22.5155 49.5491C22.5114 49.4274 21.9966 48.4763 21.9325 48.1541C21.8683 47.832 21.8529 47.3064 21.8683 46.9734C22.1012 46.7114 22.0817 48.3175 22.2561 47.7241C22.457 47.0413 22.1612 46.6204 22.7094 45.7573C22.7359 45.7156 23.2353 45.1823 23.2925 45.2563L23.2911 45.2578Z" fill="#ECBC2E"/>
<path d="M23.8742 50.6959L23.5506 50.8392C23.0777 50.4446 22.8517 50.1518 22.5142 49.6231C22.517 49.5999 22.5142 49.5753 22.5142 49.5522C22.6104 49.5414 22.5686 49.3256 22.7081 49.3734C22.7876 49.4011 23.6008 50.5032 23.8728 50.6974L23.8742 50.6959Z" fill="#EDAB51"/>
<path d="M32.8086 44.3282C32.8086 44.618 32.8337 44.8323 32.8728 45.1159L31.9019 46.6897C31.3314 47.4249 30.9938 47.3926 30.4456 47.6916C30.2489 47.798 30.1457 48.1756 30.122 48.1926C30.0396 48.2496 29.9392 48.1078 29.8625 48.1216C29.8081 48.1324 29.9113 48.248 29.6686 48.265C29.6449 48.2665 29.3812 47.8689 29.3129 48.265C29.0492 48.1787 28.0435 48.117 27.8566 47.9783C27.7771 47.9182 27.8719 47.6716 27.7924 47.6207C27.5622 47.4758 26.7671 47.2369 26.5621 47.0488C26.357 46.8608 26.6151 46.8916 26.5942 46.87C26.4868 46.7513 25.933 46.3259 26.2064 46.1903C26.2636 46.2072 26.2789 46.2442 26.3361 46.2612C26.3989 46.7467 27.3474 47.203 27.6962 47.1906C28.0114 47.5822 29.1636 47.6022 29.6058 47.5482C31.0649 47.3725 31.9549 46.0685 32.5519 44.7228C32.6398 44.524 32.2967 44.1895 32.8114 44.3298L32.8086 44.3282Z" fill="#CFA62B"/>
<path d="M27.6936 47.1892C27.3448 47.2 26.3963 46.7453 26.3335 46.2598C26.4646 46.2998 26.5678 46.38 26.6571 46.4031C26.8468 46.4524 27.0491 46.5141 27.2402 46.5465C27.9935 46.6713 28.5305 46.6004 29.2475 46.4031C29.4944 46.3353 29.7204 46.2952 29.9603 46.1889C30.3858 45.9977 31.3957 45.3396 31.5143 44.8293C31.9258 44.8432 31.0707 45.7249 31.0288 45.7588C30.503 46.1935 28.3073 47.1692 27.695 47.1892H27.6936Z" fill="#F3DB6E"/>
<path d="M26.2053 46.1887C25.9319 46.3244 26.4857 46.7498 26.5931 46.8685C26.6126 46.8901 26.3643 46.8669 26.561 47.0473C26.7577 47.2276 27.5612 47.4743 27.7914 47.6191C27.8709 47.67 27.776 47.9166 27.8555 47.9768C28.0425 48.1155 29.0482 48.1756 29.3118 48.2635L27.4984 48.7644C27.4691 48.7613 27.0311 48.6349 26.9809 48.6211C26.5987 48.5147 26.0477 48.1139 25.6208 48.0492C25.5511 47.9798 25.4353 47.9151 25.4269 47.9058C24.9457 47.3771 24.0446 46.8962 24.1325 46.0454C24.1352 46.0192 24.311 45.5999 24.3263 45.5799C24.4282 45.4488 25.9166 46.0993 26.2039 46.1887H26.2053Z" fill="#F5D53B"/>
<path d="M32.485 46.975L32.1614 47.1538C33.004 47.3665 31.7388 48.5009 31.4165 48.763C30.4777 49.5306 29.5417 49.8528 28.3742 49.6925C28.1245 49.6585 27.6865 49.3117 27.4354 49.4782C27.1676 49.3487 26.8649 49.2901 26.5942 49.1206C26.6542 49.0142 26.7686 49.0127 26.8537 48.9063C27.7534 49.1206 28.6392 48.763 29.4762 48.5487C30.0676 48.3961 30.0411 48.5472 30.6744 48.1911C31.0636 47.9722 32.1042 46.9333 32.1963 46.904C32.34 46.8578 32.4083 46.9595 32.4878 46.975H32.485Z" fill="#F5D53B"/>
<path d="M32.743 48.1203C32.2562 48.3392 31.9102 48.9372 31.4806 49.2656C30.3033 50.1642 28.8483 50.6667 27.4339 50.195C27.2051 50.1195 26.5007 49.7095 26.3012 49.5507C26.1784 49.4536 25.9873 49.3627 26.2035 49.1931C26.636 49.5677 27.618 50.0501 28.1453 49.802C27.8872 49.7542 27.6654 49.5923 27.4325 49.4798C27.6836 49.3133 28.1216 49.6602 28.3713 49.6941C29.5402 49.8544 30.4748 49.5307 31.4136 48.7646C31.7345 48.5026 33.0011 47.3665 32.1585 47.1554L32.4821 46.9766C33.301 47.1415 32.729 47.4991 32.676 47.943C32.6635 48.0494 32.75 48.0617 32.7402 48.1218L32.743 48.1203Z" fill="#F5D53B"/>
<path d="M32.8727 45.1145C33.0178 46.1395 33.2243 47.2678 31.9019 46.6883L32.8727 45.1145Z" fill="#CFA62B"/>
<path d="M30.6718 48.1912C30.0385 48.5472 30.0664 48.3962 29.4736 48.5488C28.6366 48.763 27.7522 49.1206 26.8511 48.9064C26.8608 48.894 26.9027 48.6813 26.9808 48.6197C27.0324 48.6335 27.469 48.7599 27.4983 48.763C28.5152 48.8617 29.6591 48.3099 30.6704 48.1912H30.6718Z" fill="#F9F070"/>
<path d="M24.0683 46.0454H24.1325C24.0446 46.8963 24.9457 47.3772 25.427 47.9059C25.6069 48.4022 25.7897 48.8338 26.204 49.193C25.9877 49.3625 26.1775 49.4534 26.3016 49.5506C26.5011 49.7078 27.2069 50.1178 27.4343 50.1949C27.2195 51.6854 26.3825 51.0997 25.4591 50.6958C24.6737 50.3521 24.2092 49.8758 23.4838 49.2299L22.9008 47.5483C22.8659 46.6373 23.0779 46.1163 23.2886 45.2593C23.4908 45.6415 23.375 46.0439 23.1909 46.4045L24.0655 46.0469L24.0683 46.0454Z" fill="#F5D53B"/>
<path d="M24.2619 44.6859C24.3149 44.9479 24.3191 45.1853 24.4558 45.4365L24.068 45.1498V46.0438L23.1934 46.4015C23.3761 46.0423 23.4933 45.6385 23.291 45.2562C23.2338 45.1822 22.7345 45.7155 22.7079 45.7571C22.5127 45.5953 22.4025 45.6246 22.1904 45.6862C22.1904 45.6662 22.196 45.6292 22.1904 45.6153C22.4499 45.3518 22.747 45.139 22.9674 44.8277C23.6091 45.1868 23.6984 44.7074 24.2619 44.6843V44.6859Z" fill="#EBE02C"/>
<path d="M24.2621 44.6859C23.6985 44.7091 23.6092 45.1884 22.9676 44.8293C22.9787 44.8139 22.9564 44.7723 22.9676 44.7584C23.022 44.6844 23.0262 44.5534 23.0317 44.5441C23.1559 44.3684 23.3707 43.943 23.5827 43.8998C24.3806 43.7364 24.1798 44.2759 24.2621 44.6875V44.6859Z" fill="#3E9444"/>
<path d="M22.7078 45.7587C22.1596 46.6219 22.4554 47.0427 22.2545 47.7255C22.0801 48.319 22.0983 46.7128 21.8667 46.9749C21.8876 46.5047 22.182 45.8512 22.1903 45.6878C22.4024 45.6261 22.5139 45.5968 22.7078 45.7587Z" fill="#F5D53B"/>
<path d="M25.6221 48.0476C25.9388 48.3621 25.9513 48.7166 26.593 49.1205C26.8636 49.29 27.1677 49.3486 27.4341 49.4781C27.6657 49.5906 27.8889 49.7524 28.1469 49.8002C27.6183 50.0499 26.6362 49.5675 26.2052 49.1914C25.7742 48.8153 25.6082 48.4006 25.4282 47.9043C25.4366 47.9135 25.5524 47.9783 25.6221 48.0476Z" fill="#ECBC2E"/>
<path d="M26.9807 48.6212C26.9039 48.6813 26.8607 48.8955 26.8509 48.9079C26.7658 49.0142 26.6515 49.0158 26.5915 49.1221C25.9498 48.7183 25.9373 48.3622 25.6206 48.0493C26.0461 48.1141 26.5985 48.5164 26.9807 48.6212Z" fill="#F5D53B"/>
<path d="M46.2097 49.3362C47.5419 49.5628 49.2911 49.3886 50.6763 49.4071C52.3795 49.4303 54.0869 49.4025 55.7915 49.4071C55.8069 49.8279 56.1793 49.475 56.1152 49.8356C55.7804 49.9112 54.935 50.7605 54.4315 50.8021C55.1819 51.1535 57.1614 50.5909 57.5394 49.8356C57.6412 49.6337 57.6594 49.6908 57.6036 49.4071C58.2634 49.4071 58.912 49.5119 59.5788 49.478L59.6764 49.1204C60.4994 49.7092 58.4363 49.5952 58.3498 49.6214C58.149 49.6815 57.0609 50.7975 56.5699 50.7667C54.1804 50.7651 51.5607 51.3139 49.1251 50.91C48.7583 50.8499 47.9883 50.6002 47.6688 50.409C47.3843 50.2395 46.9421 49.6414 46.8919 49.6214C46.5403 49.4888 45.7871 49.8249 45.4355 49.4071C45.4439 49.3948 45.4927 49.1728 45.4997 49.1204C45.5192 49.1266 45.5444 49.1143 45.5639 49.1204C45.8233 49.199 45.8596 49.2746 46.2111 49.3347L46.2097 49.3362Z" fill="#302761"/>
<path d="M57.6048 49.122C57.7122 49.1205 57.821 49.1236 57.9285 49.122C58.3135 49.1143 59.4071 48.9294 59.6763 49.122L59.5787 49.4796C58.9119 49.5136 58.2646 49.4087 57.6034 49.4087C56.9953 49.4087 56.3954 49.4103 55.79 49.4087C54.0868 49.4041 52.378 49.4319 50.6748 49.4087V49.122C51.0626 49.119 51.4532 49.1236 51.8396 49.122C52.0753 49.122 52.3376 49.0527 52.5524 49.0511C54.2347 49.0388 55.9072 49.1575 57.602 49.122H57.6048Z" fill="#4C3B81"/>
<path d="M56.1153 49.8371C56.5003 49.7493 57.1239 49.9019 57.5396 49.8371C57.1615 50.5909 55.1821 51.1535 54.4316 50.8036C54.9352 50.7635 55.7805 49.9142 56.1153 49.8371Z" fill="#211746"/>
<path d="M50.2242 49.122C50.3093 49.122 50.3971 49.122 50.4836 49.122C50.5478 49.122 50.6133 49.122 50.6775 49.122V49.4087C49.2923 49.3902 47.5431 49.5644 46.2109 49.3378C46.3797 49.3517 46.6085 49.1251 46.6322 49.1236C47.5891 49.0326 49.1654 49.1405 50.2256 49.1236L50.2242 49.122Z" fill="#7A52A1"/>
<path d="M49.9649 49.0496C50.0472 49.0496 50.209 49.0049 50.2244 49.1205C49.1642 49.1374 47.5879 49.0295 46.631 49.1205C46.6073 49.122 46.3785 49.3486 46.2097 49.3347C45.8582 49.2746 45.822 49.1991 45.5625 49.1205C45.5709 49.085 45.6825 48.9802 45.6922 48.9771C46.3506 48.8215 49.0735 49.0373 49.9649 49.048V49.0496Z" fill="#4C3B81"/>
<path d="M57.605 49.4072C57.6594 49.6908 57.6413 49.6338 57.5408 49.8357C57.1251 49.9005 56.5016 49.7479 56.1166 49.8357C56.1808 49.475 55.8083 49.828 55.793 49.4072C56.397 49.4088 56.9982 49.4072 57.6064 49.4072H57.605Z" fill="#302761"/>
<path d="M53.2673 38.0331L53.2031 39.9645C53.0762 39.8782 52.8111 39.815 52.7498 39.7503C52.4931 39.4805 52.8753 38.5495 52.4903 37.9977C52.2574 37.6632 51.8514 37.674 51.5194 37.6755C51.3632 37.6755 51.2181 37.6786 51.0661 37.6401C51.2586 37.99 51.3339 38.2274 51.4539 38.6065C51.4901 38.7206 51.5013 39.257 51.518 39.2863C51.5334 39.3125 51.9477 39.4836 52.0356 39.536C51.85 39.7379 51.4957 39.4189 51.6478 39.8227C51.4051 39.5869 51.034 39.6932 50.7411 39.7518C50.967 39.3803 51.0954 39.593 50.935 38.9287C50.3979 36.6983 47.774 38.4046 47.6973 40.074L48.5385 39.7518C48.498 39.852 48.4018 40.3638 48.4087 40.467H48.3446C48.1646 40.2867 47.9484 40.7383 48.0209 40.968C47.7866 40.8138 47.9414 40.7429 47.8591 40.6813L47.5676 40.7892C47.5983 41.4582 47.8619 41.9159 48.4743 42.0408C48.346 42.0593 48.1395 42.1133 48.0209 42.1842C47.9359 42.1903 47.8466 42.1749 47.7615 42.1842C47.8271 41.825 47.4811 41.6986 47.4379 41.2901C47.4309 41.2208 47.5271 41.0281 47.502 40.8246C47.4811 40.6474 47.449 40.4285 47.4379 40.3237C47.6108 40.0555 47.5704 39.5977 47.6973 39.2863C47.9121 38.7607 48.77 37.8173 49.2834 37.6771C49.7186 37.5584 50.0673 37.7726 50.1901 37.748C50.2166 37.7434 50.2459 37.5461 50.3198 37.5337C51.758 37.2979 51.9909 37.1869 53.2659 38.0347L53.2673 38.0331Z" fill="#D49E31"/>
<path d="M54.3679 39.9646C53.9648 40.689 53.6955 40.2991 53.2031 39.9646L53.2673 38.0332C53.3622 38.0964 53.6565 38.1658 53.7527 38.2475C54.3916 38.79 54.2228 39.2478 54.3679 39.9646Z" fill="#ECBC2E"/>
<path d="M50.7425 39.7502C50.6923 39.8319 50.4691 39.9614 50.4189 40.1078C50.3031 40.1017 50.3757 39.9522 50.3548 39.8936C51.0201 39.0104 49.5499 37.6246 48.8008 38.7853L48.8329 38.9641C48.9835 38.8578 49.6308 38.7915 49.5122 39.1784C49.0407 39.1275 48.738 39.2693 48.5413 39.7502L47.7002 40.0724C47.7755 38.403 50.4008 36.6982 50.9378 38.9271C51.0983 39.5915 50.9699 39.3788 50.7439 39.7502H50.7425Z" fill="#ECBC2E"/>
<path d="M52.7496 39.7503C52.7608 39.832 52.6883 39.8182 52.6855 39.8212C52.3911 39.8536 52.2363 39.6563 52.0382 39.5345C51.9503 39.4806 51.5361 39.311 51.5207 39.2848C51.504 39.2555 51.4928 38.7191 51.4565 38.6051L51.9741 38.5696L51.5207 37.6756C51.8541 37.6756 52.2586 37.6633 52.4916 37.9977C52.8766 38.5496 52.4944 39.4806 52.751 39.7503H52.7496Z" fill="#ECBC2E"/>
<path d="M51.5193 37.6754L51.9727 38.5694L51.4552 38.6049C51.3338 38.2257 51.2585 37.9883 51.0674 37.6384C51.2194 37.677 51.3645 37.6754 51.5207 37.6739L51.5193 37.6754Z" fill="#F3DB6E"/>
<path d="M50.3533 39.8922C50.2166 39.5269 49.8693 39.2155 49.5122 39.177C49.6308 38.7901 48.9821 38.8564 48.8329 38.9627L48.8008 38.7839C49.5499 37.6248 51.0201 39.0105 50.3547 39.8922H50.3533Z" fill="#F3DB6E"/>
<path d="M54.6272 40.4653C54.6927 41.0973 54.4193 42.2888 53.9799 42.7543C53.9897 42.7281 53.9897 42.3274 54.1096 42.2179C54.0469 42.1208 52.1232 42.4769 52.1679 42.9686C51.695 42.8191 51.2165 42.6233 50.7437 42.4676C51.3435 42.4738 52.3688 42.6973 52.3618 41.7524C53.5307 41.6276 53.6047 40.7474 54.6272 40.4653Z" fill="#923D20"/>
<path d="M53.2027 39.9645C53.6951 40.299 53.9643 40.689 54.3675 39.9645C54.3731 39.9922 54.5921 40.1279 54.6269 40.4655C53.6044 40.7491 53.5305 41.6277 52.3616 41.7525C52.3072 41.7587 52.077 41.6123 51.9082 41.7525C51.9152 41.7356 51.9012 41.418 51.9403 41.3949C52.3155 41.1776 53.4161 41.4489 53.2669 40.5009C53.2348 40.2959 53.0813 40.3036 53.0074 40.2512C52.8247 40.1202 52.7577 40.1279 52.5541 40.1079C52.5429 40.0015 52.6266 39.8905 52.6838 39.8211C52.6866 39.8181 52.7605 39.8304 52.748 39.7502C52.8093 39.815 53.073 39.8782 53.2013 39.9645H53.2027Z" fill="#B4802C"/>
<path d="M53.9787 42.7543C53.8838 42.9979 53.722 43.1813 53.5253 43.3262C53.0803 43.1936 52.6116 43.1089 52.1653 42.9686C52.122 42.4769 54.0456 42.1208 54.107 42.2179C53.9871 42.3274 53.9871 42.7297 53.9773 42.7543H53.9787Z" fill="#AC5528"/>
<path d="M47.5046 40.823C47.5283 41.0249 47.4321 41.2191 47.4405 41.2885C47.4837 41.697 47.8296 41.8234 47.7641 42.1825C47.6204 42.1979 47.5088 42.2334 47.3763 42.2534C47.4446 41.8095 46.9271 41.008 47.506 40.823H47.5046Z" fill="#BE7839"/>
<path d="M49.6416 41.7526C49.484 42.0624 50.6418 42.2443 50.7743 42.2535C51.522 42.309 51.6266 42.437 51.907 41.7526C52.0758 41.6123 52.306 41.7588 52.3604 41.7526C52.3673 42.6975 51.3407 42.474 50.7422 42.4678C50.7213 42.4678 50.699 42.4678 50.6781 42.4678C50.6599 42.3429 50.5037 42.4077 50.4186 42.3969C50.3977 42.3938 50.374 42.4015 50.3544 42.3969C49.364 42.1796 49.1325 42.1148 48.0891 42.1826C48.0681 42.1826 48.0458 42.1811 48.0249 42.1826C48.1435 42.1117 48.3499 42.0578 48.4783 42.0393C48.5982 42.0223 48.9358 42.0824 48.9958 42.0038C48.9804 41.8281 48.873 41.6956 48.8019 41.5383C49.1199 41.6108 49.2762 41.8019 49.643 41.7526H49.6416Z" fill="#9D5F28"/>
<path d="M50.6769 42.4678C50.5946 42.4663 50.4342 42.514 50.4175 42.3969C50.5012 42.4092 50.6588 42.3429 50.6769 42.4678Z" fill="#544C66"/>
<path d="M52.6841 39.8212C52.6283 39.889 52.5432 40.0015 52.5544 40.1079C51.8206 40.037 52.3507 40.225 52.3605 40.3576C52.3898 40.8 52.1024 40.8293 52.2628 41.1083C52.8138 40.8046 53.0691 41.1052 53.0077 40.2497C53.0817 40.3021 53.2337 40.2944 53.2672 40.4994C53.4164 41.4474 52.3158 41.1761 51.9406 41.3934C51.9015 41.4166 51.9155 41.7341 51.9085 41.751C51.6281 42.4354 51.5235 42.3075 50.7758 42.252C50.6419 42.2428 49.4855 42.0609 49.6431 41.751C49.911 41.7156 50.3532 41.3349 50.4201 41.0358C50.8777 40.9788 52.0885 41.4135 51.9741 40.4994C51.9699 40.4609 51.677 39.8459 51.6505 39.8197C51.4984 39.4158 51.8527 39.7364 52.0382 39.533C52.2363 39.6547 52.3912 39.852 52.6855 39.8197L52.6841 39.8212Z" fill="#BD9431"/>
<path d="M51.6492 39.8211C51.6757 39.8457 51.9686 40.4623 51.9728 40.5008C52.0872 41.4149 50.8764 40.9802 50.4188 41.0372C50.4314 40.9848 50.324 40.9478 50.3547 40.823C50.3909 40.6688 50.3616 40.2742 50.4188 40.1078C50.469 39.9613 50.6922 39.8318 50.7425 39.7501C51.0354 39.6916 51.4064 39.5852 51.6492 39.8211Z" fill="#C8B02E"/>
<path d="M48.0236 40.9664C48.2524 41.1174 48.2175 40.9309 48.4114 40.823C48.509 41.1067 48.7029 41.3271 48.7992 41.5383C48.8703 41.6939 48.9791 41.828 48.9931 42.0038C48.9331 42.0839 48.5941 42.0223 48.4756 42.0392C47.8632 41.9144 47.5995 41.4566 47.5688 40.7876L47.8604 40.6797C47.9427 40.7413 47.7879 40.8107 48.0222 40.9664H48.0236Z" fill="#CFA62B"/>
<path d="M50.353 40.8229C50.3237 40.9478 50.4297 40.9848 50.4171 41.0372C50.3502 41.3362 49.908 41.717 49.6402 41.7524C49.2733 41.8017 49.1157 41.6091 48.799 41.5382C48.7028 41.327 48.5089 41.1066 48.4112 40.8229C48.3749 40.7181 48.3429 40.5809 48.347 40.4653H48.4112C48.4559 41.0649 48.6121 40.6333 48.7028 40.6796C49.3905 41.0326 49.3221 41.6923 50.3544 40.8229H50.353Z" fill="#D8532C"/>
<path d="M48.3473 40.4653C48.3431 40.5809 48.3752 40.7181 48.4115 40.8229C48.2176 40.9308 48.251 41.1158 48.0237 40.9663C47.9511 40.7366 48.1673 40.2865 48.3473 40.4653Z" fill="#D0B679"/>
<path d="M52.5541 40.1079C52.7578 40.128 52.8247 40.1203 53.0075 40.2513C53.0688 41.1068 52.8136 40.8062 52.2626 41.1099C52.1022 40.8293 52.3895 40.8 52.3602 40.3592C52.3518 40.2266 51.8218 40.0386 52.5541 40.1095V40.1079Z" fill="#CFA62B"/>
<path d="M49.5117 39.1768C49.8702 39.2153 50.2161 39.5267 50.3528 39.892C50.3752 39.9506 50.3012 40.1017 50.417 40.1063C50.3598 40.2728 50.3891 40.6674 50.3528 40.8215C49.3206 41.6909 49.3889 41.0311 48.7012 40.6781C48.6106 40.6319 48.4543 41.062 48.4097 40.4639C48.4013 40.3606 48.4976 39.8489 48.5394 39.7487C48.7375 39.2662 49.0388 39.1259 49.5103 39.1768H49.5117Z" fill="#F36F37"/>
<path d="M49.1559 39.4636C49.2187 39.4559 49.3428 39.442 49.3819 39.499C48.8727 40.3406 48.3162 39.5607 49.1559 39.4636Z" fill="#F58876"/>
<path d="M57.3459 47.189C57.1896 47.0503 56.7447 46.2827 56.5689 46.1871C56.5689 46.1393 56.5717 46.0915 56.5689 46.0438C57.5467 45.9019 58.4786 46.9301 59.3532 47.4033C59.3643 47.4094 59.3685 47.5821 59.515 47.6175C59.6601 47.3293 59.3616 47.4202 59.3532 47.4033C59.3323 47.3632 59.4215 47.3015 59.4174 47.2954C58.7617 46.3181 57.5886 45.7185 56.5033 45.6862C56.4754 45.5551 56.4001 45.384 56.3736 45.2576C56.3318 45.0573 56.2564 44.9725 56.2439 44.9C56.4838 44.8322 56.2104 44.7536 56.3415 44.6858C56.5089 44.5979 56.9302 44.5147 56.9888 44.4715C57.2957 44.2465 56.9232 44.0892 56.7293 44.4006C56.474 44.2449 57.3626 43.8303 57.4421 43.7563C57.8467 43.3802 58.6808 42.3382 58.5748 41.7525C58.5637 41.6924 58.5999 41.5398 58.5427 41.5382C58.3767 41.8126 58.134 42.0608 57.8955 42.2534C57.8857 42.2611 57.7351 42.1687 57.636 42.2534C57.205 42.6203 56.8772 43.4033 56.5675 43.9706C56.4392 44.1031 56.3206 44.2465 56.1797 44.3636C56.5033 44.6072 56.1658 44.4546 56.2439 44.9C56.2285 44.9047 56.1964 44.9031 56.1797 44.9L55.6622 44.1848C53.8195 43.855 51.9851 42.9378 50.1592 42.611L50.3531 42.3968C50.374 42.4014 50.3963 42.3937 50.4172 42.3968C50.4326 42.5139 50.5944 42.4661 50.6767 42.4677C50.6976 42.4677 50.7199 42.4677 50.7409 42.4677C51.2137 42.6218 51.6922 42.8191 52.1651 42.9686C52.6101 43.1089 53.0802 43.1937 53.5252 43.3263C54.1222 43.5051 55.3107 44.1971 55.9523 43.9706C56.2732 43.8565 57.8787 40.5671 58.9947 40.8939C59.1049 40.9833 58.8454 43.058 58.7687 43.3617C58.6711 43.7501 58.0475 44.7798 58.0559 44.8646C58.0671 44.9679 59.0798 46.0715 59.2862 46.4384C59.5861 46.9717 59.7996 47.5682 59.999 48.1555C59.1342 48.2911 58.021 47.7933 57.3445 47.189H57.3459Z" fill="#225C98"/>
<path d="M49.7056 44.6857V44.7566L49.8995 45.5443C48.1321 44.9169 47.9313 45.8048 46.4359 45.9728C46.0453 46.0175 45.5111 46.0082 45.1414 45.8294C45.0521 45.8849 45.073 46.4491 45.0438 46.5447C44.8317 47.2352 44.4216 47.7315 44.137 48.3697C44.6141 48.3851 45.4608 48.473 45.691 48.9785C45.6826 48.9801 45.571 49.0864 45.5613 49.1219C45.5417 49.1157 45.5166 49.1281 45.4971 49.1219C44.6406 48.8583 43.759 48.6086 42.9081 48.3342C41.9596 48.029 41.0124 47.9705 41.0305 46.7605C41.4044 46.8961 43.72 47.8487 43.9111 47.7624C44.1859 47.6391 44.6657 46.0714 44.656 45.6876C44.7648 46.3027 44.7215 46.9377 44.3323 47.4402C44.3561 47.7084 44.582 47.3154 44.5918 47.2969C44.8359 46.8113 45.0982 45.4672 44.9154 44.9724C46.0648 44.6981 47.0734 44.6025 48.2493 44.6148C48.8003 44.621 49.0165 44.9478 49.7056 44.6857Z" fill="#9BC0DE"/>
<path d="M47.7637 42.1825C47.8474 42.1732 47.9381 42.1886 48.0232 42.1825C48.0441 42.1809 48.0665 42.1825 48.0874 42.1825L44.0728 43.3987C44.3894 43.1967 44.6321 43.0395 44.9795 42.8977C45.6602 42.6218 46.6548 42.3659 47.3746 42.2534C47.5085 42.2333 47.6201 42.1979 47.7624 42.1825H47.7637Z" fill="#225C98"/>
<path d="M50.159 42.6111C51.9849 42.9379 53.8193 43.855 55.662 44.1849C54.9296 44.47 53.8737 44.5702 53.1051 44.4716C52.6433 44.4115 51.4507 43.798 51.1633 43.8273C51.0545 43.8381 50.3905 44.2666 50.0948 44.3282C48.5269 44.6519 47.1571 43.6947 45.6924 43.5406C45.7035 43.4558 45.8626 43.3479 45.9184 43.3263C47.3035 42.8038 48.7082 42.3522 50.159 42.6111Z" fill="#5697C9"/>
<path d="M55.662 44.1849L56.1795 44.9001C55.9452 44.8569 55.7513 44.4747 55.6941 44.4716C55.6062 44.467 54.4219 45.1883 54.076 45.2592C52.748 45.5305 52.3407 44.2358 51.2596 45.6169C51.1536 45.6014 51.0992 45.5444 51.0657 45.5459L51.0336 44.9741L50.8718 45.475C50.7742 44.7768 50.5844 44.7413 50.0307 44.7598C50.0139 44.7598 49.8298 44.618 49.707 44.6889C49.9539 44.5949 50.0348 44.6427 50.0948 44.3313C50.3905 44.2697 51.0531 43.8412 51.1633 43.8304C51.4507 43.8011 52.6434 44.4146 53.1051 44.4747C53.8737 44.5733 54.9297 44.4747 55.662 44.188V44.1849Z" fill="#9BC0DE"/>
<path d="M56.1811 44.9C56.1978 44.9031 56.2299 44.9046 56.2453 44.9C56.2578 44.9724 56.3331 45.0572 56.375 45.2576C56.0946 45.3886 55.3176 45.9651 55.0805 45.5443C55.0763 45.4487 55.1154 45.0557 54.9187 45.1158C54.708 45.179 55.0386 45.7123 54.4974 46.0452C53.4819 46.6726 53.1625 45.8757 52.7175 45.831C52.4706 45.8063 52.2864 46.1778 51.9726 45.9743C51.8415 45.8541 51.748 45.6861 51.5513 45.6167C51.4843 45.5936 51.349 45.6291 51.2598 45.6167C52.3408 44.2356 52.7482 45.5304 54.0761 45.2591C54.4221 45.1882 55.6064 44.4668 55.6943 44.4715C55.7515 44.4745 55.9453 44.8568 56.1797 44.9H56.1811Z" fill="#CDE0F0"/>
<path d="M50.3529 42.3968L50.159 42.611C48.7083 42.3521 47.3036 42.8037 45.9184 43.3262C45.8626 43.3478 45.7022 43.4557 45.6925 43.5405C44.8151 43.448 44.4719 43.7871 43.6852 44.1124C43.6461 44.0908 43.3169 43.9675 43.2974 43.969C43.5192 43.7316 43.8093 43.5652 44.0743 43.3971L48.089 42.181C49.1338 42.1132 49.3653 42.1779 50.3543 42.3952L50.3529 42.3968Z" fill="#367FBB"/>
<path d="M56.2448 44.9C56.1667 44.4545 56.5043 44.6071 56.1807 44.3636C56.3229 44.2449 56.4415 44.1031 56.5685 43.9705C57.2576 43.2522 58.022 42.6218 58.5758 41.7524C58.6818 42.3366 57.8462 43.3786 57.4431 43.7563C57.365 43.8287 56.4764 44.2449 56.7303 44.4006C56.9228 44.0892 57.2966 44.248 56.9897 44.4715C56.9311 44.5146 56.5099 44.5979 56.3425 44.6857C56.2114 44.7536 56.4848 44.8322 56.2448 44.9Z" fill="#225C98"/>
<path d="M56.5047 45.6878C56.5312 45.8126 56.5633 45.9113 56.5689 46.0454C56.5717 46.0932 56.5689 46.141 56.5689 46.1887C56.541 46.1733 55.9844 46.1101 55.9537 46.1178C55.7263 46.1718 55.485 46.6404 55.2088 46.6188C55.0386 46.0284 55.1042 46.0762 55.0791 45.546C55.3162 45.9683 56.0946 45.3903 56.3736 45.2593C56.4001 45.3872 56.4754 45.5568 56.5033 45.6878H56.5047Z" fill="#CDE0F0"/>
<path d="M59.3528 47.4049C58.4782 46.9317 57.5464 45.9035 56.5686 46.0454C56.5616 45.9112 56.5309 45.8126 56.5044 45.6877C57.5897 45.7201 58.7614 46.3213 59.4184 47.297C59.4212 47.3016 59.3319 47.3633 59.3542 47.4049H59.3528Z" fill="#225C98"/>
<path d="M58.5762 41.7526C58.0224 42.6219 57.2593 43.2524 56.5688 43.9707C56.8785 43.4034 57.2049 42.6204 57.6374 42.2535C57.7364 42.1688 57.8857 42.2613 57.8968 42.2535C58.1354 42.0609 58.3781 41.8127 58.5441 41.5383C58.6013 41.5399 58.565 41.6925 58.5762 41.7526Z" fill="#225C98"/>
<path d="M59.353 47.4048C59.3628 47.4217 59.6599 47.3308 59.5148 47.619C59.3684 47.5836 59.3642 47.411 59.353 47.4048Z" fill="#225C98"/>
<path d="M54.4973 46.0454L54.5615 46.4739C54.3341 46.2935 53.8905 46.4569 53.6227 46.403C53.6102 46.7837 53.5781 46.9162 53.3967 47.2615C53.0829 47.8565 52.4886 48.2696 52.5556 49.0496C52.3408 49.0496 52.0799 49.1205 51.8428 49.1205C52.557 48.4962 52.7857 48.339 52.6198 47.26C52.5486 46.8006 52.4649 46.6912 52.232 46.3305C52.1748 46.2426 52.0353 46.0299 51.9725 45.9729C52.285 46.1764 52.4705 45.8049 52.7174 45.8296C53.1624 45.8743 53.4832 46.6712 54.4973 46.0438V46.0454Z" fill="#CDE0F0"/>
<path d="M49.7714 46.2596C49.0154 47.223 49.293 48.1509 49.9653 49.0496C49.0739 49.0388 46.3496 48.823 45.6926 48.9787C45.4625 48.4746 44.6157 48.3868 44.1387 48.3698C44.4232 47.7317 44.8333 47.2354 45.0454 46.5448L45.6285 46.6527C45.3634 46.8007 45.4443 46.8392 45.369 47.0458C45.1305 47.6993 45.7428 47.5375 46.1139 47.761C46.3524 47.9043 47.0806 48.5039 47.2787 48.4053C47.5897 47.5174 48.403 46.7498 48.4114 45.8296C48.8647 45.9806 49.272 46.346 49.7714 46.2581V46.2596Z" fill="#CDE0F0"/>
<path d="M45.6924 43.5405C47.1571 43.6947 48.5269 44.6519 50.0948 44.3282C50.0335 44.6396 49.954 44.5918 49.7071 44.6858C49.018 44.9478 48.8017 44.6195 48.2507 44.6149C47.0748 44.6026 46.0663 44.6981 44.9169 44.9725C44.8178 44.7043 44.2794 44.0107 43.946 44.3282C43.9195 44.302 43.7019 44.1216 43.6865 44.1139C44.4733 43.7887 44.8164 43.4496 45.6938 43.5421L45.6924 43.5405Z" fill="#76ABD4"/>
<path d="M49.8997 45.5443C50.0253 45.589 50.1606 45.7061 50.2875 45.7585C50.2554 45.7724 49.8076 46.2117 49.77 46.2595C49.272 46.3473 48.8647 45.9805 48.4099 45.831C48.3974 45.8263 48.4922 45.6506 48.1839 45.6876L45.3676 47.0471C45.4429 46.8406 45.362 46.802 45.627 46.6541L45.0439 46.5462C45.0732 46.4506 45.0523 45.8849 45.1416 45.831C45.5112 46.0098 46.0455 46.0175 46.4361 45.9743C47.9315 45.8063 48.1323 44.9169 49.8997 45.5458V45.5443Z" fill="#CDE0F0"/>
<path d="M44.9156 44.9726C45.0984 45.4674 44.8361 46.813 44.592 47.297C44.5822 47.3155 44.3563 47.7086 44.3325 47.4404C44.7217 46.9379 44.765 46.3013 44.6562 45.6878C44.5794 45.2562 44.2447 44.615 43.9434 44.3283C44.2767 44.0107 44.8152 44.7028 44.9142 44.9726H44.9156Z" fill="#225C98"/>
<path d="M43.6854 44.1139C43.6993 44.1216 43.9169 44.3035 43.9448 44.3281C44.2462 44.6148 44.5809 45.256 44.6577 45.6876C44.6688 46.0715 44.1876 47.6391 43.9128 47.7624C43.7203 47.8487 41.4061 46.8961 41.0322 46.7605C41.0462 45.8418 42.137 44.8661 42.8456 44.3281C42.9503 44.248 43.2097 43.9767 43.2334 43.9705C43.253 43.9659 43.2767 43.9736 43.2976 43.9705C43.3185 43.9674 43.6463 44.0923 43.6854 44.1139Z" fill="#CDE0F0"/>
<path d="M42.357 45.5442C43.0475 45.2606 43.0587 46.3134 42.4212 46.1161C42.2413 46.0606 42.0822 45.6567 42.357 45.5442Z" fill="#1C447C"/>
<path d="M56.5684 46.1887C56.7442 46.2843 57.1892 47.0519 57.3454 47.1906C57.2296 47.1968 57.3022 47.3463 57.2812 47.4049C57.0901 47.912 56.7581 47.5637 56.4401 47.5483C56.4331 47.5483 56.4736 47.4866 56.3104 47.4773V47.334C56.3717 47.3278 56.7609 47.1829 56.7637 47.0843C56.2587 47.2353 55.8542 46.4646 55.5334 47.1197C55.4595 47.0858 55.2642 47.1706 55.2098 47.0843C55.1777 47.035 55.2391 46.7205 55.2098 46.6188C55.486 46.6404 55.7259 46.1733 55.9547 46.1178C55.9853 46.1101 56.5419 46.1749 56.5698 46.1887H56.5684Z" fill="#EB3F4A"/>
<path d="M57.9287 49.1219C57.8213 49.1235 57.7125 49.1204 57.6051 49.1219C57.1099 48.9678 57.3777 48.1693 57.0541 47.7624C56.8295 47.6637 55.8865 48.6132 55.7917 48.4422C55.5782 48.0599 56.3469 47.8271 56.4389 47.5481C56.757 47.5651 57.089 47.9134 57.2801 47.4048C57.806 47.8965 58.1352 48.2896 57.9273 49.1219H57.9287Z" fill="#ECBC2E"/>
<path d="M54.691 47.0471C54.6979 47.1427 54.8514 47.192 54.8207 47.2968C54.7746 47.4525 54.2362 47.5296 54.2055 47.7623C54.7412 47.3122 55.2503 47.9304 55.3061 47.9057C55.334 47.8934 55.3466 47.6174 55.5 47.5481C55.5809 47.5111 56.1877 47.4695 56.3091 47.4772C56.4723 47.4864 56.4318 47.5481 56.4388 47.5481C56.3467 47.8271 55.5781 48.0598 55.7916 48.4421C55.8864 48.6132 56.8294 47.6637 57.054 47.7623C57.3762 48.1693 57.1084 48.9677 57.605 49.1219C55.9101 49.1573 54.2376 49.0386 52.5553 49.051C52.4897 48.2695 53.0826 47.8579 53.3965 47.2629H53.4606C53.7131 47.6945 53.0226 47.8718 53.2346 48.2648L54.0437 47.7284C53.7284 47.7207 53.9363 47.3338 53.6559 47.192C54.0256 47.0749 54.3032 46.9685 54.6924 47.0487L54.691 47.0471Z" fill="#F5D53B"/>
<path d="M55.0788 45.5443C55.1039 46.0746 55.0383 46.0268 55.2085 46.6171C55.2378 46.7189 55.1764 47.0333 55.2085 47.0826C55.2643 47.169 55.4582 47.0857 55.5321 47.1181C55.7191 47.2013 56.0385 47.3586 56.3091 47.3323V47.4757C56.1864 47.468 55.581 47.5112 55.5001 47.5466C55.3466 47.616 55.3327 47.8919 55.3062 47.9042C55.2504 47.9289 54.7412 47.3108 54.2056 47.7609C54.2363 47.5281 54.7747 47.4526 54.8207 47.2954C54.8514 47.189 54.698 47.1412 54.691 47.0456C54.6812 46.9023 54.8654 46.7142 54.5613 46.4738L54.4971 46.0453C55.0369 45.7108 54.7077 45.1775 54.9184 45.1158C55.1151 45.0572 55.076 45.4488 55.0802 45.5443H55.0788Z" fill="#3A7F3D"/>
<path d="M56.3092 47.3322C56.04 47.3569 55.7191 47.2012 55.5322 47.118C55.8517 46.4629 56.2576 47.2336 56.7626 47.0825C56.7598 47.1812 56.3706 47.3276 56.3092 47.3322Z" fill="#F5D53B"/>
<path d="M54.5613 46.4738C54.864 46.7142 54.6812 46.9038 54.691 47.0456C54.3032 46.9655 54.0242 47.0718 53.6545 47.189C53.5904 47.209 53.5332 47.1982 53.4607 47.2599H53.3965C53.5778 46.9146 53.6113 46.7821 53.6225 46.4013C53.8903 46.4553 54.3339 46.2919 54.5613 46.4722V46.4738Z" fill="#EB3F4A"/>
<path d="M53.6547 47.189C53.9351 47.3308 53.7273 47.7177 54.0425 47.7254L53.2335 48.2618C53.0214 47.8687 53.7119 47.6915 53.4594 47.2599C53.532 47.1967 53.5892 47.209 53.6533 47.189H53.6547Z" fill="#F9F070"/>
<path d="M48.4113 45.8311C48.403 46.7498 47.5897 47.5189 47.2787 48.4068C47.0792 48.5054 46.3524 47.9074 46.1139 47.7625C45.7442 47.539 45.1305 47.7008 45.369 47.0473L48.1854 45.6877C48.495 45.6507 48.3988 45.8265 48.4113 45.8311Z" fill="#225C98"/>
<path d="M52.6199 47.2615C52.7859 48.339 52.5571 48.4962 51.8429 49.122C51.4551 49.1235 51.0645 49.1189 50.6781 49.122C50.6139 49.122 50.5484 49.122 50.4842 49.122C50.4354 48.9971 50.3615 49.0048 50.3545 48.8353C50.3545 48.8245 50.4075 48.6596 50.4187 48.621C51.1761 48.2619 51.6518 47.5868 52.0703 46.833C52.3186 46.9918 52.2697 47.4203 52.6213 47.2615H52.6199Z" fill="#DD242D"/>
<path d="M50.7421 45.6878C50.6654 45.6971 50.3096 45.7495 50.2887 45.7588C50.1604 45.7063 50.0251 45.5892 49.9009 45.5445L49.707 44.7568C50.1088 44.9387 50.4924 45.2948 50.7435 45.6863L50.7421 45.6878Z" fill="#3E9444"/>
<path d="M50.0291 44.7568L50.8703 45.472L51.0321 44.971L51.0642 45.5429C51.0502 45.5429 50.8214 45.64 50.8047 45.6862C50.7838 45.6862 50.7615 45.6832 50.7405 45.6862C50.4894 45.2932 50.1058 44.9371 49.7041 44.7568V44.6859C49.8269 44.6165 50.011 44.7583 50.0277 44.7568H50.0291Z" fill="#93A650"/>
<path d="M50.8719 45.4734L50.0308 44.7582C50.5846 44.7397 50.7743 44.7752 50.8719 45.4734Z" fill="#499157"/>
<path d="M51.2596 45.6154C51.3475 45.6277 51.4842 45.5923 51.5511 45.6154C51.7464 45.6848 51.8413 45.8528 51.9724 45.973C52.0352 46.0301 52.1733 46.2428 52.2318 46.3306C51.759 46.0748 51.8915 45.8636 51.3251 45.8297C51.367 45.6139 50.9764 45.6771 50.8076 45.6863C50.8244 45.6401 51.0517 45.543 51.0671 45.543C51.1019 45.543 51.155 45.6 51.261 45.6139L51.2596 45.6154Z" fill="#EFAA8F"/>
<path d="M51.1955 45.8311C50.9332 46.201 51.5679 46.1193 51.6488 46.3675C51.9446 47.2707 50.5971 48.063 50.4185 48.621C50.406 48.6595 50.353 48.8245 50.3543 48.8353C49.8815 48.658 50.1702 47.579 50.1605 47.0472C50.2386 46.9994 50.3627 46.7112 50.4199 46.6187C50.604 46.3181 50.625 46.0021 50.6459 45.9744C50.6752 45.9374 51.1034 45.8403 51.1969 45.8311H51.1955Z" fill="#F36F37"/>
<path d="M51.3251 45.831C51.8914 45.865 51.7589 46.0761 52.2318 46.332C52.4662 46.6927 52.5498 46.8021 52.6196 47.2615C52.2681 47.4202 52.3169 46.9917 52.0686 46.833C51.6515 47.5867 51.1758 48.2634 50.417 48.621C50.5955 48.063 51.9431 47.2707 51.6473 46.3675C51.5664 46.1193 50.9317 46.1994 51.194 45.831C51.2358 45.8264 51.2819 45.828 51.3237 45.831H51.3251Z" fill="#D8532C"/>
<path d="M50.8062 45.6878C50.975 45.6786 51.367 45.6154 51.3237 45.8312C51.2819 45.8281 51.2359 45.8265 51.194 45.8312C51.1019 45.8404 50.6723 45.9375 50.643 45.9745C50.6207 46.0023 50.5998 46.3182 50.417 46.6188C50.0334 45.7078 49.4127 47.5098 50.1576 47.0473C50.1673 47.5807 49.8786 48.6596 50.3515 48.8354C50.357 49.0049 50.4324 48.9972 50.4812 49.1221C50.3961 49.1221 50.3082 49.1221 50.2217 49.1221C50.2064 49.0049 50.0446 49.0512 49.9623 49.0512C49.2899 48.1525 49.0123 47.2246 49.7684 46.2612C49.806 46.2134 50.2538 45.7741 50.2859 45.7603C50.3068 45.751 50.6625 45.6986 50.7393 45.6894C50.7602 45.6863 50.7825 45.6894 50.8034 45.6894L50.8062 45.6878Z" fill="#F8984D"/>
<path d="M50.4182 46.6174C50.361 46.7114 50.2369 46.9981 50.1588 47.0459C49.4139 47.5067 50.0346 45.7048 50.4182 46.6174Z" fill="#EFB274"/>
<path d="M49.6733 47.0474C49.9049 47.2262 49.9244 47.6978 49.6733 47.9059V47.0474Z" fill="#FDC890"/>
<path d="M50.4504 46.1164C50.5955 46.1226 50.5745 46.2998 50.5146 46.3306C50.4769 46.3507 50.2453 46.1087 50.4504 46.1164Z" fill="#FDC890"/>
</g>
<defs>
<filter id="filter0_i_345_21659" x="0" y="0" width="70" height="70" filterUnits="userSpaceOnUse" color-interpolation-filters="sRGB">
<feFlood flood-opacity="0" result="BackgroundImageFix"/>
<feBlend mode="normal" in="SourceGraphic" in2="BackgroundImageFix" result="shape"/>
<feColorMatrix in="SourceAlpha" type="matrix" values="0 0 0 0 0 0 0 0 0 0 0 0 0 0 0 0 0 0 127 0" result="hardAlpha"/>
<feMorphology radius="3" operator="erode" in="SourceAlpha" result="effect1_innerShadow_345_21659"/>
<feOffset/>
<feGaussianBlur stdDeviation="1"/>
<feComposite in2="hardAlpha" operator="arithmetic" k2="-1" k3="1"/>
<feColorMatrix type="matrix" values="0 0 0 0 0 0 0 0 0 0 0 0 0 0 0 0 0 0 0.08 0"/>
<feBlend mode="normal" in2="shape" result="effect1_innerShadow_345_21659"/>
</filter>
<linearGradient id="paint0_linear_345_21659" x1="46.5559" y1="32.9373" x2="45.4434" y2="41.7971" gradientUnits="userSpaceOnUse">
<stop stop-color="#F9A553"/>
<stop offset="1" stop-color="#F38945"/>
</linearGradient>
<linearGradient id="paint1_linear_345_21659" x1="41.6597" y1="32.6276" x2="32.6927" y2="44.2036" gradientUnits="userSpaceOnUse">
<stop stop-color="#FDD86B"/>
<stop offset="1" stop-color="#D6AC4B"/>
</linearGradient>
<linearGradient id="paint2_linear_345_21659" x1="44.2991" y1="32.8465" x2="43.984" y2="42.4275" gradientUnits="userSpaceOnUse">
<stop stop-color="#F68E46"/>
<stop offset="1" stop-color="#ED7236"/>
</linearGradient>
</defs>
</svg>
