<svg width="70" height="70" viewBox="0 0 70 70" fill="none" xmlns="http://www.w3.org/2000/svg">
<g filter="url(#filter0_i_366_118814)">
<path d="M0 35C0 15.67 15.67 0 35 0C54.33 0 70 15.67 70 35C70 54.33 54.33 70 35 70C15.67 70 0 54.33 0 35Z" fill="white" fill-opacity="0.75"/>
<path d="M21.2441 55.2798C21.4726 55.3267 21.6794 55.6322 21.8943 55.6954C22.6319 55.9114 22.4466 55.5373 22.8842 55.2798C23.0252 55.1969 23.4764 55.1773 23.5025 55.1609C23.5855 55.1118 24.1015 53.637 24.2754 53.4385C26.3189 55.1816 22.4785 57.4986 21.2441 55.2787V55.2798Z" fill="#283A6C"/>
<path d="M24.277 53.4385C24.1019 53.637 23.5871 55.1108 23.5041 55.1609C23.4768 55.1773 23.0267 55.1969 22.8858 55.2798C22.4482 55.5373 22.6335 55.9114 21.8959 55.6955C21.681 55.6322 21.4742 55.3267 21.2457 55.2798C20.1887 53.3785 22.7937 52.1731 24.277 53.4396V53.4385Z" fill="#6D89C0"/>
<path d="M21.4618 53.5573C21.5936 53.518 22.5404 54.1016 22.7915 54.1813C22.4608 54.5969 20.5298 53.8344 21.4618 53.5573Z" fill="#ABBEE2"/>
<path d="M22.7607 52.9641C22.8959 52.9455 23.4915 53.2008 23.5335 53.3503C23.7779 54.2175 21.8014 53.9295 22.1106 53.3503C22.1321 53.3099 22.722 52.9695 22.7607 52.9641Z" fill="#334D91"/>
<path d="M23.1326 53.2608C23.1712 53.2674 23.3883 53.3961 23.3497 53.4692C23.236 53.5499 22.2756 53.7157 22.2358 53.5881L22.329 53.3208C22.5313 53.7408 22.6143 53.1725 23.1337 53.2619L23.1326 53.2608Z" fill="#6D89C0"/>
<path d="M46.3013 52.964C46.2547 53.2182 45.8797 53.4527 45.683 53.6174C45.5933 53.6927 45.4182 53.6392 45.4353 53.7658L46.0536 54.0625C45.9808 54.0963 45.6637 54.1814 45.6205 54.2108C45.6012 54.2239 45.5001 54.2643 45.4967 54.2697C45.1477 54.0788 44.9556 53.7658 44.692 53.4974C44.5487 53.3512 44.4135 53.2171 44.2589 53.0818C44.1043 52.9465 44.0043 52.7753 43.8259 52.6662L43.6406 52.34C44.2089 52.6673 43.9543 51.4532 44.3214 52.1317C44.4499 52.3684 44.2942 52.7829 44.7852 52.6662C44.9488 52.6269 45.1693 52.1448 45.2489 52.0728C45.2796 52.0455 45.5489 51.9604 45.5887 51.835C45.9115 52.0466 45.5739 52.1404 45.558 52.3989L45.8979 52.3095C46.2582 52.556 45.7126 52.6138 45.6808 52.9334C45.7342 52.9978 46.1741 52.952 46.2991 52.9629L46.3013 52.964Z" fill="#68A443"/>
<path d="M45.2502 52.0727C45.1695 52.1447 44.9501 52.6279 44.7865 52.6661C44.2955 52.7828 44.4501 52.3683 44.3228 52.1316C44.5933 52.0345 44.974 51.9298 45.2513 52.0727H45.2502Z" fill="#6F7BB8"/>
<path d="M48.2812 53.4986C48.2096 53.7975 48.0232 54.0473 47.9096 54.3298C47.3049 54.8524 46.6877 55.3345 45.8058 55.2211C45.8012 54.9669 45.475 54.5436 45.4966 54.3298C46.8219 54.7935 47.4618 54.5382 45.6205 54.2109C45.6637 54.1815 45.9808 54.0964 46.0535 54.0626L45.4352 53.7659C45.4182 53.6393 45.5932 53.6928 45.683 53.6175C46.149 53.9088 46.5389 54.2535 47.1367 54.0331C47.7345 53.8128 47.3708 53.4713 47.3538 53.083C47.7823 53.1801 47.9323 53.2445 48.2824 53.4986H48.2812Z" fill="#6D89C0"/>
<path d="M48.7145 55.6355C48.7077 55.6442 48.5656 55.7391 48.5292 55.7544C48.1746 55.365 48.0473 56.0162 47.8177 56.1111C47.7961 56.1198 47.3915 56.05 47.354 56.0522C47.5438 55.4828 47.6859 54.8883 47.9109 54.3298C48.0246 54.0472 48.2098 53.7974 48.2826 53.4985C48.9748 54.0014 49.2589 54.9014 48.7156 55.6366L48.7145 55.6355Z" fill="#2C296A"/>
<path d="M47.3537 56.0511C46.7275 56.0838 46.1842 56.0805 45.5591 55.9322C45.625 55.8318 45.7262 55.5209 45.7443 55.3976C45.7534 55.3387 45.808 55.3333 45.8057 55.2198C46.6877 55.3344 47.3049 54.8511 47.9095 54.3286C47.6845 54.8871 47.5424 55.4805 47.3526 56.0511H47.3537Z" fill="#283A6C"/>
<path d="M48.5292 55.7544C48.5382 55.7642 48.5246 55.8362 48.5292 55.8733C48.4223 55.8896 48.2098 56.1274 48.0961 56.17C47.6131 56.351 47.4392 56.5212 46.8584 56.5267C46.3674 56.531 45.7718 56.3849 45.374 56.1111C45.4263 56.0511 45.5525 55.9431 45.5593 55.9333C46.1833 56.0816 46.7265 56.0838 47.3539 56.0522C47.3926 56.05 47.7961 56.1209 47.8177 56.1111C48.0472 56.0162 48.1745 55.3649 48.5292 55.7544Z" fill="#283A6C"/>
<path d="M45.4977 54.3297C45.5 54.3079 45.4909 54.2806 45.4977 54.2708C45.5011 54.2654 45.6023 54.2239 45.6216 54.2119C47.4628 54.5392 46.8229 54.7944 45.4977 54.3308V54.3297Z" fill="#6D89C0"/>
<path d="M47.3539 53.0818C47.3721 53.4701 47.7233 53.8159 47.1368 54.0319C46.5503 54.2479 46.1491 53.9076 45.6831 53.6163C45.8797 53.4516 46.2548 53.2171 46.3014 52.9629C46.6753 52.9978 46.9754 52.9967 47.3527 53.0818H47.3539Z" fill="#334D91"/>
<path d="M46.8902 53.3796C47.6858 53.4843 46.5776 53.9784 46.1787 53.7657C46.2685 53.4625 46.5936 53.5137 46.8288 53.4985C46.8754 53.4952 46.847 53.3741 46.8902 53.3796Z" fill="#889EC9"/>
<path d="M45.7455 55.3977C45.7273 55.521 45.6262 55.8319 45.5603 55.9322C45.5534 55.9431 45.4273 56.05 45.375 56.11C45.3125 56.1809 44.876 56.5573 44.8181 56.5846C44.0782 56.9358 42.6756 56.9391 41.8482 56.9413L41.5391 56.7929L41.8482 56.3478C41.9505 56.4144 41.7971 56.4547 41.8789 56.4667C42.0801 56.4962 42.5995 56.0784 42.3733 56.7045C42.6052 56.3871 42.9007 56.5529 43.2394 56.5267L43.1155 56.7645C43.428 56.6969 43.4667 56.4253 43.8577 56.5267C43.8111 56.2137 42.3995 56.4646 42.5893 56.0817C42.6722 55.9137 43.6451 56.0697 43.8577 55.9922C43.6417 55.6432 43.4292 55.2297 44.0122 55.161C44.1145 55.149 44.6544 55.1446 44.6931 55.1905C44.6453 55.8111 44.2112 55.4293 43.827 55.665C44.2168 55.7675 44.5328 55.5123 44.3532 56.0511C44.476 55.6148 45.2613 55.6072 45.2818 55.9922L45.4671 55.6955L44.6317 55.6061C44.8238 55.4424 44.7749 55.1479 44.8169 54.9821C44.8215 54.9636 44.8135 54.9417 44.8169 54.9232C44.884 54.5523 45.5273 54.6996 45.4978 54.8937C45.4625 55.1228 44.643 55.0683 44.9101 55.5177C45.0965 55.2265 45.3318 55.1392 45.683 55.1915L45.4046 55.4588L45.7444 55.3999L45.7455 55.3977Z" fill="#A31E22"/>
<path d="M41.5379 56.2888C41.9368 56.4994 41.2299 56.7186 41.4765 57.0011C41.0685 56.987 40.6786 56.8321 40.4252 56.8233C40.424 56.7055 40.3285 56.5713 40.3013 56.4666C40.3933 56.4688 40.3513 56.3946 40.3626 56.3477C40.8923 56.4175 41.0537 56.4404 41.5379 56.2888Z" fill="#C12629"/>
<path d="M41.8472 56.3477L41.538 56.7928L41.8472 56.9411C41.6869 56.9411 41.5721 57.0033 41.4755 57C41.2289 56.7164 41.9358 56.4982 41.5369 56.2877C41.5482 56.2844 41.4948 56.0946 41.754 56.1688C41.8574 56.1982 41.8381 56.3411 41.8472 56.3466V56.3477Z" fill="#DE2132"/>
<path d="M44.0124 55.161V55.1021L44.8171 54.9832C44.7739 55.149 44.8239 55.4435 44.6318 55.6071L45.4672 55.6966L45.282 55.9933C45.2626 55.6082 44.4773 55.6169 44.3534 56.0522C44.533 55.5133 44.2181 55.7686 43.8271 55.666C44.2113 55.4304 44.6455 55.8122 44.6932 55.1915C44.6546 55.1446 44.1147 55.1501 44.0124 55.1621V55.161Z" fill="#DE2132"/>
<path d="M43.3939 52.9641L42.9608 53.1725C43.0665 53.5063 43.2495 52.9423 43.2086 53.4692C43.112 53.6132 42.9665 53.5379 42.8369 53.5587C42.7426 53.5739 42.5994 53.6885 42.4653 53.5881C42.438 52.7962 42.7039 52.8834 43.3939 52.9641Z" fill="#FCF7FB"/>
<path d="M41.9707 53.7953C42.3901 53.672 42.0332 54.3603 41.9707 54.4192C41.8059 54.5741 41.79 54.4007 41.5377 54.5087C41.5252 54.5141 41.4695 54.6188 41.3524 54.5676C41.341 54.5349 41.3479 54.4378 41.3524 54.3898C41.3524 54.3854 41.3865 54.4138 41.4138 54.3309C41.4286 54.2851 41.4615 54.1127 41.4752 54.0931C41.6354 53.8727 41.7911 53.8738 41.9696 53.7964L41.9707 53.7953Z" fill="#DE2132"/>
<path d="M40.9199 54.5663C40.8722 54.7005 40.7801 54.8445 40.7346 54.982C40.6119 55.2056 40.6051 54.538 40.6107 54.5074C40.6255 54.4311 40.6471 54.3427 40.6721 54.2696C40.6846 54.2325 41.0472 53.6958 41.1052 53.6162C41.4734 53.7395 41.029 54.2565 40.9199 54.5663Z" fill="#EA9367"/>
<path d="M43.8271 52.6662C44.0056 52.7753 44.1079 52.9488 44.2602 53.0818C44.1067 53.2367 43.6134 52.9891 43.3941 52.9629C42.7042 52.8811 42.4394 52.795 42.4655 53.5869C42.5985 53.6873 42.7417 53.5727 42.8372 53.5575L42.7758 53.7953C42.5792 53.7876 42.5314 53.7353 42.3428 53.7364C42.2064 53.7364 42.0813 53.6556 42.0029 53.6774C41.9484 53.6927 41.9791 53.7931 41.9722 53.7963C41.7927 53.8749 41.6369 53.8727 41.4778 54.0931L41.6631 53.7069C41.5199 53.4473 41.2573 54.2763 41.4153 54.3309C41.388 54.4138 41.3539 54.3865 41.3539 54.3898C41.205 54.3538 41.1471 54.4421 41.0448 54.5087C41.0118 54.5305 40.9618 54.5588 40.9209 54.5676C41.03 54.2578 41.4755 53.7407 41.1062 53.6174C41.1732 53.5258 41.5687 52.9902 41.6006 52.964C41.6199 52.9488 41.9506 52.7382 41.9722 52.7262C42.6724 52.3193 43.1497 52.2528 43.8283 52.6673L43.8271 52.6662Z" fill="#EF4247"/>
<path d="M42.3108 53.1418C42.6052 53.5356 42.0074 53.7211 41.8471 53.528C41.755 53.4178 42.2881 53.2215 42.3108 53.1418Z" fill="#FCF7FB"/>
<path d="M41.4766 54.092C41.463 54.1116 41.43 54.284 41.4153 54.3298C41.2561 54.2763 41.5187 53.4473 41.663 53.7058L41.4778 54.092H41.4766Z" fill="#F0967C"/>
<path d="M44.6935 53.4986C44.956 53.7669 45.1492 54.08 45.4982 54.2709C45.4913 54.2807 45.5004 54.3091 45.4982 54.3298C45.4766 54.5436 45.8028 54.9669 45.8073 55.221C45.8096 55.3345 45.7539 55.3399 45.7459 55.3988L45.4061 55.4578L45.6846 55.1905C45.3334 55.1381 45.0981 55.2254 44.9117 55.5167C44.6446 55.0672 45.4641 55.1218 45.4993 54.8927C45.53 54.6985 44.8856 54.5513 44.8185 54.9221L43.9831 54.9811L44.0138 55.1V55.1589C43.4307 55.2276 43.6433 55.641 43.8592 55.9901C43.6478 56.0664 42.6738 55.9115 42.5908 56.0795C42.401 56.4624 43.8126 56.2115 43.8592 56.5246C43.4682 56.4231 43.4296 56.6948 43.117 56.7624L43.2409 56.5246C42.9022 56.5508 42.6067 56.385 42.3749 56.7024C42.601 56.0763 42.0816 56.4941 41.8804 56.4646C41.7986 56.4526 41.9509 56.4122 41.8498 56.3457C41.8407 56.3402 41.86 56.1973 41.7566 56.1679C41.4974 56.0937 41.552 56.2824 41.5395 56.2868C41.0553 56.4384 40.8939 56.4166 40.3643 56.3457C40.4575 55.9606 40.6132 55.3443 40.7359 54.98C40.7814 54.8425 40.8734 54.6985 40.9212 54.5644C40.9621 54.5545 41.0121 54.5262 41.0451 54.5054C41.477 54.5 41.036 55.1632 40.9837 55.3072C41.2837 55.3639 41.2133 54.8414 41.386 54.7433C41.918 54.4422 42.0293 55.2996 41.4792 55.3672L41.7577 55.3967C42.0498 54.8142 42.0725 54.3669 42.3453 53.7342C42.534 53.7342 42.5817 53.7855 42.7783 53.7931C43.5069 53.8226 43.8263 54.0658 43.9229 53.1997L43.9842 53.6742C44.1536 53.3328 44.1991 53.287 44.5105 53.5848C44.6332 53.9982 44.0774 53.888 44.0774 53.9415L44.5719 54.0604L44.0774 54.1793C44.5173 54.2284 44.581 54.1466 44.6037 54.6243L44.6969 53.4964L44.6935 53.4986Z" fill="#DE2132"/>
<path d="M44.8173 54.9231C44.8139 54.9427 44.8219 54.9645 44.8173 54.982L44.0126 55.1009L43.9819 54.982L44.8173 54.9231Z" fill="#F37252"/>
<path d="M44.2604 53.0819C44.415 53.2172 44.5502 53.3513 44.6934 53.4975L44.6002 54.6255C44.5775 54.1466 44.5139 54.2295 44.074 54.1804L44.5684 54.0615L44.074 53.9426C44.074 53.8891 44.6298 54.0004 44.507 53.5859C44.1956 53.2881 44.1502 53.3339 43.9808 53.6753L43.9194 53.2008C43.8228 54.068 43.5034 53.8237 42.7749 53.7942L42.8363 53.5564C42.9658 53.5357 43.1113 53.6121 43.2079 53.467C43.2489 52.9401 43.0659 53.503 42.9602 53.1703L43.3932 52.9619C43.6126 52.9881 44.1058 53.2357 44.2593 53.0808L44.2604 53.0819Z" fill="#F37252"/>
<path d="M42.3426 53.7352C42.0698 54.3679 42.0471 54.8151 41.755 55.3976L41.4765 55.3682C42.0266 55.3006 41.9152 54.4432 41.3833 54.7442C41.2105 54.8424 41.281 55.366 40.981 55.3082C41.0344 55.1642 41.4742 54.501 41.0423 54.5064C41.1446 54.4399 41.2026 54.3515 41.3515 54.3875C41.3469 54.4355 41.3401 54.5337 41.3515 54.5653C41.4015 54.7039 41.6606 54.6711 41.8152 54.6842L41.5367 54.5064C41.7891 54.3984 41.805 54.5719 41.9698 54.417C42.0323 54.3581 42.3892 53.6708 41.9698 53.793C41.9766 53.7897 41.9459 53.6894 42.0005 53.6741C42.08 53.6523 42.2039 53.7341 42.3403 53.733L42.3426 53.7352Z" fill="#F15C52"/>
<path d="M43.6725 53.9141C44.151 53.9097 43.9759 54.3821 43.7964 54.6864L43.8896 54.1814L43.3326 54.1224C43.2838 54.0068 43.6475 53.9152 43.6725 53.9141Z" fill="#F37252"/>
<path d="M41.8777 55.4578C42.0584 55.8734 41.5708 56.2944 41.2275 56.0217C41.8799 56.0141 42.0606 55.5832 41.2889 55.5472L41.8765 55.4578H41.8777Z" fill="#EF4247"/>
<path d="M42.497 53.9141C42.5641 53.8934 43.1164 53.9065 43.1471 53.9436L42.8687 54.6854C42.7311 54.5523 43.0858 54.213 43.0232 54.0614C42.9346 53.8476 42.4947 54.0614 42.4356 54.0319C42.3754 54.0025 42.4788 53.9185 42.497 53.913V53.9141Z" fill="#F0967C"/>
<path d="M42.8371 54.9822C42.8382 54.9047 42.8541 54.8491 42.7439 54.8633L42.0938 54.8927C42.3381 54.6669 42.878 54.6156 42.8359 54.9822H42.8371Z" fill="#F15C52"/>
<path d="M43.1773 54.8642C43.266 54.8446 43.7786 54.8129 43.8274 54.9537L42.9921 55.102C42.8852 55.0017 43.1364 54.874 43.1773 54.8642Z" fill="#F37252"/>
<path d="M40.9507 55.4576C41.0609 55.4532 41.0996 55.4587 41.1678 55.547C41.0382 56.1394 41.1257 55.3758 40.6108 55.7249C40.6711 55.6627 40.8836 55.4598 40.9507 55.4576Z" fill="#F15C52"/>
<path d="M42.8373 54.9819C42.8157 55.1685 42.6679 55.7793 42.3735 55.5754C42.4463 55.4968 42.8373 55.019 42.8373 54.9819Z" fill="#F15C52"/>
<path d="M41.353 54.5662C41.4701 54.6175 41.5258 54.5128 41.5383 54.5073L41.8168 54.6851C41.661 54.672 41.403 54.7059 41.353 54.5662Z" fill="#EE252E"/>
<path d="M46.4251 13.4755C46.5376 13.7144 46.0159 14.5827 45.8682 14.9002C45.3772 15.1445 44.6407 16.0957 44.6304 16.5921C44.6236 16.8997 44.7555 16.7568 44.8782 16.5921C44.7145 17.288 44.6623 16.7404 44.5384 16.7404C44.3804 16.7404 43.8576 17.5389 44.2906 17.6905C44.3815 17.6469 44.5168 16.9531 44.693 17.216C43.5052 19.6355 42.3152 22.1477 41.0116 24.4603L40.4854 23.9258L45.8068 13.3272C45.9546 13.1297 46.2273 13.4221 46.4251 13.4755Z" fill="#DE2132"/>
<path d="M46.4255 13.4756C46.2278 13.4222 45.955 13.1298 45.8072 13.3273L40.4869 23.927H40.4256C40.1869 23.807 40.08 23.5856 39.9312 23.3925L40.4256 22.4718C40.5972 22.5034 40.3108 22.7609 40.5494 22.6496L40.9211 21.61C42.0395 19.6629 44.1933 15.7249 44.8809 13.7123L45.4072 13C45.6879 13.2073 46.2573 13.1124 46.4278 13.4745L46.4255 13.4756Z" fill="#E1E2E8"/>
<path d="M45.8685 14.9014C45.5071 15.6813 45.0729 16.4438 44.6933 17.2172C44.5183 16.9543 44.3819 17.6481 44.291 17.6917C43.8579 17.5401 44.3808 16.7416 44.5387 16.7416C44.6626 16.7416 44.7149 17.2892 44.8786 16.5933C44.7558 16.758 44.6251 16.9009 44.6308 16.5933C44.641 16.0958 45.3775 15.1457 45.8685 14.9014Z" fill="#B62F3B"/>
<path d="M35.8462 16.3259C35.5132 16.9313 35.171 17.1735 35.3518 17.9295C35.1983 18.0658 35.3336 18.3484 35.4131 18.4934C36.1371 19.8014 37.5192 20.4537 37.6408 22.2045L36.8986 23.4808C35.5177 25.0887 33.5378 25.9374 31.5783 26.7173C31.5363 26.5613 31.3942 26.8057 31.3931 26.6279C31.3919 26.3846 32.9377 25.8043 33.2184 25.6483C34.5812 24.8901 37.5419 23.1023 37.1475 21.3427C37.1271 21.2522 36.6986 20.4253 36.6531 20.3926C36.5327 20.3053 36.4099 20.4526 36.2201 20.3337L36.4054 21.4616C36.6884 21.4398 36.4008 20.7373 36.5599 20.7788C37.4385 21.8041 36.6168 22.9474 35.57 23.5102C35.0096 23.8113 35.2802 23.6291 34.9824 23.3913C35.5848 22.7215 35.8291 21.8467 35.4154 21.0166C35.5484 19.9475 34.8073 19.0781 34.6732 18.0473C34.8085 17.5259 34.8312 17.0535 35.2915 16.6521C34.9642 16.7284 34.6573 17.0197 34.4868 17.2761H34.3629C34.7073 16.8321 35.2506 16.3816 35.8473 16.3259H35.8462Z" fill="#F6B4C3"/>
<path d="M41.2289 25.0548C41.3483 25.2675 41.5029 25.645 41.5381 25.886C41.587 26.2231 41.5722 26.4173 41.4142 26.7467C40.9755 27.6663 38.2966 29.4553 37.1452 29.2698C37.0838 29.2415 37.0213 29.2109 36.96 29.1804L37.0532 29.0909C38.7614 28.1954 41.7427 26.1958 40.3015 24.0436C40.3106 24.0534 40.3549 24.0338 40.3629 24.0436C40.6231 24.3338 41.0448 24.7254 41.2289 25.0526V25.0548Z" fill="#EF4C7A"/>
<path d="M43.642 26.4208C43.642 26.4284 43.4919 26.3815 43.5181 26.5102C43.567 26.7426 44.0477 26.904 43.9511 27.5792C43.892 27.9905 42.8134 29.1184 42.4349 29.2711C42.3542 29.3039 41.7928 29.1631 41.9087 29.39C41.4359 29.414 40.9585 29.4326 40.4857 29.4489C39.9538 29.4686 39.4059 29.4358 38.8774 29.4489C39.4298 29.1555 40.0367 28.9264 40.5789 28.6177C40.7983 28.4934 41.8121 27.8694 41.9712 27.7265C42.4383 28.0341 42.2144 28.057 41.9098 28.3505L42.1269 28.6177C43.2453 27.6905 43.9738 26.8309 42.6531 25.6484C42.9134 25.8197 43.6136 26.148 43.6431 26.4208H43.642Z" fill="#C273AF"/>
<path d="M34.7319 23.6304C34.4853 23.8333 34.1841 23.9631 33.8966 24.1049C32.4258 24.8336 30.655 25.3255 29.1639 26.064C29.0206 25.8251 28.2057 25.6168 27.9261 25.5895C27.6681 25.5633 27.4783 25.6539 27.1839 25.6484C26.76 25.6408 26.6623 25.7444 26.4418 25.4706C26.3986 25.4183 26.3486 25.3539 26.3179 25.2928C26.6077 25.3081 27.517 25.2917 27.7716 25.2339C27.9852 25.1859 27.9295 25.2241 27.9261 24.9961C27.942 25.0114 28.0591 24.9787 28.0807 24.9961C28.1398 25.043 28.1739 25.2645 28.266 25.2928C28.316 25.3081 29.0763 25.1488 29.132 25.115L29.0081 24.6405C29.6401 25.2983 29.7651 24.4267 28.9775 24.551C29.1661 24.1376 29.6696 24.7419 29.7503 24.7594C29.7822 24.7659 30.2879 24.6514 30.4004 24.6405C31.3825 24.5434 32.3622 24.2423 33.3396 24.106C33.4328 24.0525 33.4737 23.8518 33.4942 23.7493L34.7319 23.6304Z" fill="#FCF7FB"/>
<path d="M42.6512 25.6494C43.9719 26.8318 43.2445 27.6903 42.125 28.6186L41.9079 28.3514C42.2125 28.0579 42.4364 28.0361 41.9693 27.7274C42.6342 27.134 42.7126 26.7358 42.341 26.005C42.2068 25.741 41.9409 25.3712 41.7227 25.1738C41.8966 24.9545 42.4614 25.5239 42.6512 25.6483V25.6494Z" fill="#D78ABB"/>
<path d="M34.4841 17.2761C33.7397 18.4008 34.125 20.3534 32.9373 21.3733C32.8782 21.2795 32.76 21.0821 32.6895 21.0166C31.9837 20.6359 33.0055 19.8603 33.3078 19.3247C33.6829 18.6604 33.8874 17.8837 34.3591 17.2761H34.483H34.4841Z" fill="#FCDFE7"/>
<path d="M41.723 25.1738C41.9413 25.3713 42.2072 25.7411 42.3413 26.005C42.1595 26.1021 42.3766 26.3923 42.3413 26.629C42.2754 27.0752 41.2139 27.9217 40.8251 28.2031C40.6922 28.2991 39.3101 29.09 39.2169 29.0943C39.2055 29.0943 38.9839 29.0136 39.0316 28.9754C39.9613 28.4245 42.247 27.1308 41.723 25.8578C41.6514 25.6843 41.5957 25.8589 41.5378 25.8872C41.5025 25.6462 41.348 25.2687 41.2286 25.056C41.29 24.6971 41.5685 25.0342 41.723 25.1749V25.1738Z" fill="#ECBAD6"/>
<path d="M43.6418 26.4206C43.876 26.4293 43.9498 26.5569 44.0749 26.7173C44.2544 26.9485 44.5227 27.4427 44.5079 27.7263C44.4761 28.3481 43.7771 28.7408 43.5793 29.1215C43.4861 29.3026 43.6691 29.1357 43.7032 29.2699C43.1076 29.3179 42.5064 29.3571 41.9085 29.3888C41.7915 29.163 42.3541 29.3026 42.4348 29.2699C42.8133 29.116 43.8919 27.9881 43.951 27.578C44.0476 26.9027 43.5668 26.7413 43.5179 26.5089C43.4907 26.3813 43.643 26.4271 43.6418 26.4195V26.4206Z" fill="#C273AF"/>
<path d="M39.9297 23.3925C40.0798 23.5856 40.1855 23.807 40.4242 23.927L40.3628 24.0459C40.3537 24.0361 40.3094 24.0557 40.3014 24.0459C40.123 23.8506 40.1855 23.9946 40.1775 23.987C40.1718 23.9804 40.0593 23.9335 40.0536 23.9281C39.9945 23.867 39.3717 22.6671 39.3114 23.1558C39.2705 22.918 38.7227 22.0235 38.5693 21.7311C38.1635 20.9599 37.993 20.6272 37.394 19.9498L37.5179 19.772C38.0328 20.2694 38.6318 20.6446 39.0023 21.2861C39.4899 22.1304 39.3058 22.5896 39.9309 23.3936L39.9297 23.3925Z" fill="#F6B4C3"/>
<path d="M44.9408 29.0933C44.7987 29.0987 44.6487 29.0791 44.5077 29.0933C44.5612 28.7126 44.951 27.9795 44.5077 27.7275C44.5225 27.4428 44.2543 26.9498 44.0747 26.7185C44.4646 26.9749 44.9658 27.0501 45.126 27.5792C45.2511 27.9893 45.2761 28.778 44.9408 29.0933Z" fill="#F9D5E5"/>
<path d="M37.5165 19.7709L37.3927 19.9487C37.0164 19.5222 36.3129 18.8677 35.8765 18.4641C35.814 18.4063 35.7139 18.2557 35.7219 18.4641C35.6389 18.3375 35.4412 18.307 35.3502 17.9296C35.1695 17.1747 35.5128 16.9314 35.8446 16.326C35.9037 16.3206 36.0333 16.1733 36.0299 16.3555C34.982 18.0386 36.4584 18.7488 37.5143 19.7698L37.5165 19.7709Z" fill="#F16771"/>
<path d="M29.04 29.3898C27.617 29.3364 26.1372 29.464 24.771 29.0037C24.8926 28.8881 25.2677 28.8771 25.4518 28.8553L26.2247 29.0331L27.1839 28.7364C27.7806 28.6284 28.9138 28.2641 29.473 28.0241C29.5696 27.9827 29.8492 27.9488 29.906 27.8758C30.0447 27.6958 29.9299 27.4918 29.906 27.3118C30.1584 27.2747 30.4005 27.1907 30.6482 27.134C32.2485 26.7675 33.5908 26.4358 35.165 25.946C35.6742 25.7879 36.2084 25.6373 36.7119 25.4715C37.5347 25.1999 38.694 24.9894 39.1248 24.1058C39.3714 24.0785 39.3214 24.1658 39.2487 24.3141C38.1871 26.4784 31.2495 28.3012 29.04 29.3909V29.3898Z" fill="#FCDFE7"/>
<path d="M40.0533 23.927C39.9249 24.2685 39.9794 24.6012 39.8055 24.9666C39.0883 26.4785 34.9773 28.1999 33.3714 28.7966C32.7042 29.0442 32.012 29.2492 31.3301 29.45C30.564 29.4347 29.8059 29.4194 29.041 29.3911C31.2505 28.3002 38.1882 26.4785 39.2497 24.3143C39.3225 24.167 39.3725 24.0797 39.1258 24.1059C39.2634 23.8234 39.3645 23.4678 39.3111 23.1558C39.3713 22.6671 39.9942 23.867 40.0533 23.9281V23.927Z" fill="#ECBAD6"/>
<path d="M40.3002 24.0458C41.7425 26.1981 38.7601 28.1976 37.0518 29.0932L36.9586 29.1826C37.02 29.2121 37.0825 29.2437 37.1439 29.2721C37.3326 29.3593 37.4951 29.2721 37.5769 29.4499C36.3801 29.4651 35.1879 29.5175 33.9888 29.5088L34.5457 29.0932C35.4925 29.0059 38.4805 27.2125 39.217 26.5395C40.0217 25.8032 40.5729 25.1083 40.1763 23.9858C40.1842 23.9946 40.1217 23.8495 40.3002 24.0447V24.0458Z" fill="#F0609A"/>
<path d="M42.3426 26.0049C42.7142 26.7358 42.6358 27.134 41.9709 27.7274C41.8118 27.8692 40.798 28.4932 40.5786 28.6186C40.0365 28.9273 39.4295 29.1575 38.8772 29.4498C38.435 29.4607 38.0156 29.4444 37.5781 29.4498C37.4962 29.272 37.3337 29.3582 37.145 29.272C38.2964 29.4575 40.9753 27.6674 41.414 26.7489C41.5708 26.4195 41.5868 26.2242 41.5379 25.8882C41.5958 25.8599 41.6527 25.6853 41.7231 25.8588C42.2471 27.1318 39.9615 28.4255 39.0317 28.9764C38.984 29.0146 39.2068 29.0953 39.217 29.0953C39.3102 29.0909 40.6923 28.3012 40.8253 28.2041C41.214 27.9226 42.2755 27.0761 42.3414 26.63C42.3767 26.3933 42.1596 26.1031 42.3414 26.006L42.3426 26.0049Z" fill="#ECBAD6"/>
<path d="M33.3715 28.7964C33.1783 29.0942 34.4422 29.1029 34.5467 29.0931L33.9898 29.5087C33.1044 29.5022 32.2156 29.4673 31.3291 29.4498C32.011 29.2491 32.7032 29.044 33.3704 28.7964H33.3715Z" fill="#C273AF"/>
<path d="M27.0604 28.7365C27.099 28.73 27.1456 28.7431 27.1843 28.7365L26.225 29.0332L25.4521 28.8554C25.9602 28.7954 26.5671 28.8216 27.0604 28.7365Z" fill="#ECBAD6"/>
<path d="M35.4126 21.0177C35.3138 21.8162 34.2158 22.7773 33.4952 23.1558C33.4907 23.0434 33.4407 23.0325 33.4339 22.978C33.7351 22.9496 33.4157 22.4631 33.4339 22.354C33.443 22.3017 34.0226 21.6875 34.1147 21.5228C34.7705 20.3425 34.3363 19.3368 34.6716 18.0496C34.8068 19.0804 35.5468 19.9487 35.4138 21.0188L35.4126 21.0177Z" fill="#FCDFE7"/>
<path d="M34.6711 18.0484C34.3358 19.3367 34.77 20.3413 34.1142 21.5216C34.0221 21.6863 33.4425 22.3005 33.4334 22.3529C33.4152 22.4619 33.7346 22.9474 33.4334 22.9768C33.3709 22.4816 33.2174 21.8162 32.939 21.3733C34.1267 20.3533 33.7414 18.4007 34.4858 17.2761C34.6552 17.0197 34.9621 16.7295 35.2905 16.6521C34.8302 17.0535 34.8075 17.5259 34.6722 18.0473L34.6711 18.0484Z" fill="#FCF7FB"/>
<path d="M34.9801 23.3923C34.9688 23.4054 34.746 23.6192 34.7324 23.6302L33.4946 23.7491C33.5219 23.6149 33.5014 23.3116 33.4946 23.1556C34.2164 22.7782 35.3131 21.8172 35.412 21.0176C35.8257 21.8477 35.5814 22.7226 34.979 23.3923H34.9801Z" fill="#F9D5E5"/>
<path d="M31.5774 26.7172C31.2671 26.8405 30.8988 26.9071 30.6488 27.1329C30.401 27.1896 30.1589 27.2747 29.9066 27.3107C29.8759 27.0849 29.8168 26.9725 29.7213 26.7762C29.5861 26.4991 29.4338 26.2918 29.1644 26.1227C29.1565 26.1053 29.1724 26.0769 29.1644 26.0638C30.6556 25.3242 32.4264 24.8334 33.8971 24.1047C34.1847 23.9618 34.4859 23.832 34.7325 23.6302C34.7461 23.6192 34.9689 23.4054 34.9803 23.3924C35.278 23.6302 35.0075 23.8123 35.5679 23.5113C36.6147 22.9484 37.4364 21.8052 36.5578 20.7798C36.3987 20.7383 36.6851 21.4408 36.4033 21.4626L36.218 20.3347C36.4078 20.4547 36.5306 20.3074 36.651 20.3936C36.6965 20.4263 37.1261 21.2532 37.1454 21.3437C37.5398 23.1033 34.5791 24.8901 33.2163 25.6493C32.9356 25.8053 31.3898 26.3856 31.391 26.6289C31.3921 26.8056 31.5342 26.5623 31.5762 26.7183L31.5774 26.7172Z" fill="#F6B4C3"/>
<path d="M37.6402 22.2043C37.6549 22.416 37.4435 23.1087 37.7015 22.9767C37.1514 24.2082 36.1626 25.0591 35.1647 25.9459C33.5917 26.4357 32.2482 26.7673 30.6479 27.1339C30.8969 26.9081 31.2651 26.8415 31.5765 26.7183C33.5371 25.9394 35.5159 25.0896 36.8968 23.4817L37.639 22.2054L37.6402 22.2043Z" fill="#EC7C94"/>
<path d="M35.7215 18.464C36.7228 19.9933 38.6073 20.95 37.7014 22.9768C37.4423 23.1088 37.6537 22.4161 37.64 22.2045C37.5184 20.4537 36.1364 19.8013 35.4124 18.4934C35.3317 18.3483 35.1975 18.0658 35.351 17.9294C35.4408 18.3058 35.6385 18.3374 35.7226 18.464H35.7215Z" fill="#F5919E"/>
<path d="M44.5075 29.0933C44.3506 29.1085 43.9778 29.2493 43.7028 29.2711C43.6687 29.1369 43.4857 29.3038 43.5789 29.1227C43.7755 28.742 44.4757 28.3482 44.5075 27.7275C44.9508 27.9795 44.5609 28.7126 44.5075 29.0933Z" fill="#D78ABB"/>
<path d="M40.176 23.9859C40.5726 25.1084 40.0214 25.8033 39.2167 26.5396C38.4813 27.2126 35.4922 29.0049 34.5454 29.0932C34.4397 29.1031 33.177 29.0932 33.3702 28.7965C34.9762 28.1998 39.0871 26.4785 39.8043 24.9666C39.9771 24.6011 39.9237 24.2684 40.0521 23.927C40.0578 23.9335 40.1703 23.9805 40.176 23.9859Z" fill="#EB91BD"/>
<path d="M37.3927 19.9488C37.9917 20.6262 38.1622 20.9589 38.5679 21.7301C38.427 21.6494 38.3815 21.6145 38.3827 21.8196C38.3884 23.0991 38.4975 23.2464 37.6405 24.3132C37.3188 24.7136 36.6983 24.9416 36.7119 25.4706C36.2084 25.6364 35.6742 25.787 35.165 25.9451C36.163 25.0583 37.1506 24.2074 37.7019 22.9759C38.6077 20.9491 36.7233 19.9924 35.722 18.463C35.714 18.2547 35.8152 18.4052 35.8765 18.463C36.313 18.8666 37.0154 19.5212 37.3927 19.9477V19.9488Z" fill="#E06374"/>
<path d="M38.5677 21.73C38.7222 22.0223 39.2701 22.9168 39.3099 23.1546C39.3633 23.4666 39.2621 23.8222 39.1246 24.1048C38.6938 24.9883 37.5345 25.1989 36.7116 25.4705C36.698 24.9404 37.3186 24.7124 37.6402 24.3131C38.4972 23.2463 38.3881 23.0979 38.3824 21.8194C38.3824 21.6144 38.4279 21.6504 38.5677 21.73Z" fill="#E06374"/>
<path d="M23.0388 21.1367C23.032 21.1433 22.8274 21.1324 22.8842 21.2556C23.3446 21.2774 23.7401 21.4149 24.0901 21.7007L23.5025 22.0269C24.1981 21.897 24.6027 21.9723 25.0801 22.4719C25.0619 22.6574 23.8901 22.761 23.8742 22.917C24.2913 23.0315 24.8858 22.6203 25.2358 22.6792C25.2756 22.6857 25.87 22.9944 25.9473 23.0653C25.9871 23.3479 24.846 23.4929 24.8028 23.8071C25.8041 23.3828 26.3622 23.0762 27.2464 23.8966C26.7088 23.998 26.3201 24.1409 25.8848 24.49C26.1474 24.5227 26.9793 23.9991 27.1532 24.0449C27.201 24.0569 27.6795 24.7987 27.6795 24.8467C27.6783 25.2121 26.1985 25.1761 25.9166 25.1139C25.6177 25.0474 25.3643 24.6569 25.0506 24.6394L25.1744 24.5205C24.9926 24.5543 24.863 24.4638 24.7107 24.4016C23.9151 24.0798 24.3538 24.13 24.2777 24.0155C24.247 23.9696 23.9128 23.8747 23.7833 23.7188C23.7583 23.6893 23.9424 23.7122 23.8765 23.6293C23.7855 23.5169 23.5707 23.4057 23.5366 23.362C23.2945 23.0599 22.0716 21.392 21.9898 21.1651C21.9625 21.0909 22.0614 21.068 22.0511 21.0167C22.0216 20.864 22.0466 20.8487 21.9272 20.6906C22.0102 20.5924 22.9229 20.9786 23.0411 21.1356L23.0388 21.1367Z" fill="#68A443"/>
<path d="M24.8948 20.423C24.9153 20.4252 24.9369 20.4208 24.9562 20.423C25.2449 20.699 25.812 22.3734 25.2346 22.3233C25.1403 22.1378 24.5084 21.8891 24.4618 21.7593C24.3709 21.504 24.5334 20.7448 24.3379 20.3936C24.3754 20.2703 24.7891 20.4121 24.8948 20.423Z" fill="#68A443"/>
<path d="M22.9774 20.1265C22.8876 20.312 23.2752 20.4538 23.2866 20.6316C23.3059 20.9436 23.2343 20.9468 23.0388 21.1367C22.9206 20.9796 22.0079 20.5934 21.9249 20.6916C22.0443 20.8498 22.0193 20.865 22.0488 21.0178C21.917 21.0068 21.3453 20.1211 21.4612 20.0676C21.9329 20.2465 22.5125 20.0894 22.9774 20.1265Z" fill="#73B643"/>
<path d="M24.2771 20.3643C24.1532 20.805 24.5396 21.2621 24.1839 21.6112C23.5497 21.2915 23.128 20.9119 23.411 20.1865C23.7008 20.228 24.0157 20.2214 24.2771 20.3643Z" fill="#68A443"/>
<path d="M25.6374 21.4333C25.8249 21.5239 26.3603 21.4933 26.5035 21.7006C26.5728 21.7999 26.6512 22.5602 26.6274 22.7096C26.624 22.7325 26.4955 22.9322 26.4728 23.0958C25.5113 22.6802 25.5624 22.378 25.6374 21.4333Z" fill="#68A443"/>
<path d="M29.9062 20.3044C29.7471 20.3731 29.2413 20.6796 29.2879 20.8978C28.6299 21.0003 28.556 21.273 28.1127 21.6701C28.0889 21.6919 28.0718 21.7094 28.0513 21.729C27.291 22.461 26.8727 22.5962 27.3705 23.7482C27.2785 24.0885 27.6751 24.7605 27.9275 24.995C27.9309 25.2219 27.9866 25.1837 27.7729 25.2328C27.5172 25.2906 26.609 25.307 26.3192 25.2917C26.184 25.2852 25.5293 25.2459 25.4838 25.2328C25.2417 25.1586 25.3167 24.8892 25.2986 24.8761C25.2065 24.8139 24.4041 24.6328 24.7109 24.4016C24.8644 24.4637 24.994 24.5543 25.1747 24.5205L25.0508 24.6394C25.3645 24.6568 25.6179 25.0484 25.9169 25.1139C26.1987 25.1761 27.6785 25.2121 27.6797 24.8466C27.6797 24.7997 27.2012 24.058 27.1534 24.0449C26.9796 24.0001 26.1476 24.5237 25.885 24.4899C26.3203 24.1409 26.709 23.998 27.2466 23.8965C26.3624 23.0773 25.8043 23.3827 24.803 23.8071C24.8462 23.4929 25.9873 23.3467 25.9475 23.0653C25.8703 22.9944 25.2758 22.6857 25.236 22.6791C24.886 22.6202 24.2916 23.0315 23.8744 22.9169C23.8903 22.7598 25.0622 22.6573 25.0803 22.4719C24.603 21.9723 24.1984 21.897 23.5028 22.0268L24.0904 21.7006C23.7403 21.4148 23.3448 21.2774 22.8845 21.2556C22.8276 21.1323 23.0322 21.1432 23.039 21.1367C23.2345 20.9469 23.3061 20.9436 23.2868 20.6316C23.2755 20.4538 22.8879 20.312 22.9777 20.1265C23.0606 20.1331 23.3005 20.1702 23.4107 20.1855C23.1288 20.9109 23.5494 21.2905 24.1836 21.6101C24.5393 21.261 24.1529 20.8029 24.2768 20.3633C24.3472 20.1047 24.7462 20.2465 24.8951 20.4222C24.7894 20.4102 24.3757 20.2694 24.3382 20.3927C24.5336 20.744 24.37 21.5032 24.462 21.7585C24.5086 21.8883 25.1417 22.137 25.2349 22.3224C25.8123 22.3726 25.2451 20.6982 24.9564 20.4222C25.2031 20.4527 25.1883 20.4691 25.4509 20.5411C25.3724 20.8138 25.3679 21.3014 25.6361 21.4323C25.5611 22.377 25.51 22.6791 26.4715 23.0947C26.4942 22.9311 26.6227 22.7315 26.6261 22.7086C26.6511 22.5591 26.5715 21.7988 26.5022 21.6995C26.359 21.4934 25.8237 21.5239 25.6361 21.4323C25.6975 21.3712 26.7216 21.5337 26.75 21.5806C26.7784 21.6275 26.6102 22.437 26.7807 22.6202L27.5535 21.8184L26.842 21.729C26.933 21.4356 27.4103 21.7955 27.4921 21.4028C27.4615 21.3123 26.3988 21.0887 26.2237 21.0167C26.1942 21.0047 25.6384 20.7101 25.76 20.6011C25.9203 20.6502 26.9386 21.1792 26.9977 21.0461L26.3476 20.5411L27.7706 20.9567C27.6945 20.5989 26.7079 20.3556 27.1523 20.0066C27.2455 20.2716 28.2366 20.5291 28.2968 20.3327L28.0798 18.9964L28.8219 20.2433C28.8754 19.6455 29.122 19.0968 29.4721 18.6103C29.7767 18.4946 29.4721 19.8353 29.5653 20.0055L30.5552 18.343L30.3381 19.3226L29.9051 20.3022L29.9062 20.3044Z" fill="#68A443"/>
<path d="M25.7611 20.6022C25.6395 20.7113 26.1964 21.0058 26.2248 21.0178C26.3999 21.0898 27.4626 21.3135 27.4933 21.404C27.4114 21.7967 26.9341 21.4367 26.8431 21.7302L27.5546 21.8196L26.7818 22.6214C26.6113 22.4392 26.7784 21.6276 26.7511 21.5818C26.7238 21.536 25.6986 21.3724 25.6372 21.4335C25.369 21.3026 25.3735 20.8149 25.452 20.5422C25.5383 20.5662 25.6281 20.5608 25.7611 20.6011V20.6022Z" fill="#68A443"/>
<path d="M27.8957 21.0177C27.9333 21.0079 28.497 21.0842 28.422 21.226C28.1958 21.7518 27.3297 21.1693 27.8957 21.0177Z" fill="#68A443"/>
<path d="M28.6698 23.0359C28.7914 23.1024 29.1131 23.3784 28.7937 23.4515C28.4902 22.6115 27.3286 23.5737 28.5766 23.8671C27.4855 23.1755 28.7653 22.8493 28.7937 23.926C29.0687 23.9413 29.0494 23.6882 29.3813 23.7482C29.4427 23.7591 29.3813 23.9031 29.4427 23.926C29.4631 23.9336 29.7166 23.6915 29.8143 23.6882C29.9507 23.6838 29.9916 23.8431 30.0314 23.866H29.9075C29.3745 23.866 29.4938 24.2085 29.8143 24.4594L29.8757 24.2216C29.9973 24.4485 30.0189 24.4791 30.2155 24.4594C30.2758 24.454 30.3406 24.4627 30.4008 24.4594C30.4019 24.5249 30.3008 24.5205 30.4008 24.6372C30.2883 24.6481 29.7836 24.7627 29.7507 24.7561C29.67 24.7398 29.1665 24.1354 28.9778 24.5478C29.7666 24.4234 29.6404 25.295 29.0085 24.6372L29.1324 25.1118C29.0755 25.1456 28.3163 25.3048 28.2663 25.2896C28.1731 25.2612 28.139 25.0398 28.081 24.9929C28.0594 24.9754 27.9424 25.0081 27.9265 24.9929C27.6742 24.7572 27.2775 24.0864 27.3695 23.746C27.4241 23.8726 27.6503 24.1267 27.7094 24.2805C27.8765 24.2227 27.5491 23.8616 27.5548 23.8355C27.6116 23.5857 27.7503 23.8486 27.8026 23.9249C27.823 23.9544 27.7662 24.1082 27.8958 24.1627C27.9799 24.0765 27.8458 24.0373 27.8651 23.9249C27.8901 23.7787 27.989 23.7286 27.989 23.7166C27.989 23.6958 27.7764 23.4919 27.8037 23.3304C27.8253 23.2006 28.0242 23.0501 28.0515 22.9148C28.172 22.9246 28.5925 22.9912 28.6698 23.0337V23.0359Z" fill="#EF4247"/>
<path d="M29.1026 21.1957C28.8344 21.3517 29.0094 21.5764 29.2265 21.6702C29.3527 21.7247 29.4004 21.7607 29.2879 21.6113C29.1833 21.4728 29.031 21.4978 29.1026 21.1957C29.2118 21.2219 29.4845 21.2284 29.5357 21.344C29.6425 21.5851 29.3538 21.7935 29.3504 21.8186C29.3231 22.0018 29.5232 21.8393 29.5357 21.848C29.6437 21.9255 29.5686 21.9953 29.6289 22.0258C29.6357 22.0291 29.6857 21.9462 29.7221 21.9669L29.9073 22.3236C29.5129 22.4032 29.7062 22.4752 29.6289 22.5014C29.6005 22.5112 29.2118 22.2614 29.2572 22.2047C28.9526 22.3858 28.8878 22.1927 28.7935 22.1458C28.6196 22.0585 28.4684 21.776 28.1434 21.908C28.0422 21.9495 28.0309 22.2789 27.8956 22.2047C27.749 22.124 28.0979 21.8447 28.0502 21.7302C28.0718 21.7095 28.0877 21.692 28.1116 21.6713C28.3559 21.6964 28.8356 21.0975 28.9469 21.0779C29.1595 21.0386 29.0924 21.1946 29.1015 21.1968L29.1026 21.1957Z" fill="#EF4247"/>
<path d="M28.7927 22.146L28.6688 22.7394C28.4597 22.7066 28.5688 22.6357 28.545 22.6205C28.9575 22.0129 27.8994 21.6485 28.2358 22.5016C28.2188 22.507 28.4324 22.6957 28.0506 22.5605C28.0108 22.3641 27.896 22.2779 27.7721 22.1449C27.7516 22.1449 27.6914 22.3412 27.6789 22.3827C27.2561 22.3227 27.1447 23.3568 27.4936 23.4517C27.6527 23.4942 27.713 23.4419 27.8028 23.3328C27.7755 23.4942 27.988 23.6971 27.988 23.7189C27.988 23.7309 27.8892 23.78 27.8642 23.9273H27.8028C27.7516 23.852 27.6118 23.588 27.555 23.8378C27.5493 23.864 27.8767 24.2251 27.7096 24.2829C27.6493 24.1302 27.4243 23.8749 27.3697 23.7484C26.8708 22.5965 27.289 22.4612 28.0506 21.7292C28.0983 21.8438 27.7482 22.123 27.896 22.2038C28.0312 22.2779 28.0426 21.9474 28.1437 21.9071C28.4688 21.7751 28.62 22.0576 28.7939 22.1449L28.7927 22.146Z" fill="#F0967C"/>
<path d="M29.5358 21.8492C29.5233 21.8404 29.3232 22.003 29.3505 21.8197C29.3539 21.7946 29.6438 21.5863 29.5358 21.3452C29.4846 21.2296 29.2119 21.223 29.1028 21.1968C29.0937 21.1947 29.1607 21.0387 28.9482 21.0779C28.8368 21.0987 28.3583 21.6964 28.1128 21.6714C28.5561 21.2743 28.6299 21.0016 29.288 20.899C29.529 20.8619 29.6085 20.8805 29.7824 21.1074H29.3494C29.8097 21.2077 29.6983 21.4979 29.5346 21.8492H29.5358Z" fill="#F0967C"/>
<path d="M28.4218 22.5025C28.4979 22.5505 28.4695 22.5734 28.5457 22.6214C28.5695 22.6367 28.4604 22.7076 28.6696 22.7403C28.8287 22.7654 28.7639 22.7119 28.8241 22.6214C28.9776 22.8745 28.6707 22.821 28.6696 23.037C28.5923 22.9945 28.1717 22.9279 28.0513 22.9181C28.0751 22.7959 28.0763 22.6847 28.0513 22.5614C28.4332 22.6967 28.2206 22.5079 28.2365 22.5025C28.2956 22.4818 28.3195 22.4381 28.3604 22.4436C28.365 22.4436 28.3547 22.461 28.4218 22.5025Z" fill="#F15C52"/>
<path d="M28.7925 23.4526C28.8231 23.5387 28.8686 23.8344 28.7925 23.9271C28.7652 22.8493 27.4854 23.1766 28.5754 23.8682C27.3263 23.5747 28.4878 22.6126 28.7925 23.4526Z" fill="#F8A67F"/>
<path d="M32.691 21.0178C32.7603 21.0822 32.8796 21.2807 32.9387 21.3745C33.2183 21.8174 33.3706 22.4828 33.4331 22.9781C33.44 23.0326 33.49 23.0435 33.4945 23.1559C33.5013 23.3119 33.5218 23.6151 33.4945 23.7493C33.4729 23.8518 33.4331 24.0526 33.3399 24.106C32.3625 24.2424 31.3839 24.5434 30.4008 24.6405C30.3007 24.5238 30.4019 24.5282 30.4008 24.4627C30.3917 24.0569 30.3553 24.0624 30.0291 23.8693C29.9893 23.8464 29.9484 23.686 29.812 23.6915C29.7143 23.6948 29.4619 23.9369 29.4404 23.9293C29.3778 23.9053 29.4404 23.7624 29.379 23.7515C29.0471 23.6915 29.0664 23.9446 28.7914 23.9293C28.8675 23.8355 28.8221 23.5399 28.7914 23.4548C29.1107 23.3817 28.7902 23.1057 28.6675 23.0392C28.6675 22.8232 28.9755 22.8766 28.8221 22.6235C28.7618 22.7141 28.8266 22.7675 28.6675 22.7425L28.7914 22.149C28.8868 22.197 28.9516 22.3901 29.2551 22.2079C29.2096 22.2647 29.5983 22.5145 29.6268 22.5046C29.704 22.4785 29.5108 22.4065 29.9052 22.3268C30.0075 22.3061 29.9245 22.4817 30.2144 22.2679C30.2678 22.2287 30.2814 22.3432 30.3382 22.149C30.5258 21.8425 30.336 21.3985 29.9666 21.5556C29.7586 21.644 29.8109 21.6832 29.8427 21.7934C29.9018 21.9974 30.0075 22.0607 30.2144 22.0901C30.2235 22.1469 30.2087 22.2101 30.2144 22.2679C30.0041 22.2221 29.9063 22.0749 29.7199 21.9712C29.6836 21.9516 29.6336 22.0345 29.6268 22.0301C29.5676 21.9985 29.6427 21.9298 29.5336 21.8523C29.6972 21.5011 29.8086 21.2098 29.3483 21.1105H29.7813C29.6063 20.8847 29.5267 20.8651 29.2869 20.9022C29.2403 20.684 29.7472 20.3764 29.9052 20.3088C30.7304 19.9532 32.0704 20.4462 32.6898 21.0211L32.691 21.0178Z" fill="#DE2132"/>
<path d="M31.0815 23.5114C30.9758 23.4133 30.7621 23.4503 30.7723 23.2736C30.7939 23.266 30.7018 23.1045 30.8655 23.0958C31.1042 23.0838 31.7213 24.0307 31.1747 24.0459C30.9985 23.795 31.3883 23.794 31.0815 23.5114Z" fill="#F15C52"/>
<path d="M32.7215 22.2644C33.042 22.2022 33.2716 22.4924 33.0932 22.7389C32.9875 22.8087 32.0851 22.3876 32.7215 22.2644Z" fill="#A31E22"/>
<path d="M30.7721 21.6113C31.5109 22.0476 30.9347 20.8095 30.6482 21.4335C30.638 21.416 30.3868 21.4073 30.6789 21.1368C31.362 20.9644 31.487 21.9767 30.8642 21.8491C30.8471 21.8458 30.6096 21.6549 30.771 21.6113H30.7721Z" fill="#F7B17D"/>
<path d="M30.7721 23.2737C30.7619 23.4493 30.9756 23.4133 31.0813 23.5115C30.9813 23.8813 30.6448 23.47 30.3698 23.5704C30.1311 23.3468 30.6982 23.2999 30.7721 23.2737Z" fill="#B62F3B"/>
<path d="M30.7718 21.6112C30.7627 21.6058 30.6684 21.4694 30.6479 21.4334C30.9332 20.8094 31.5106 22.0476 30.7718 21.6112Z" fill="#B62F3B"/>
<path d="M30.8657 22.2045C31.3078 22.1074 31.5238 22.7139 31.3601 23.0357C31.2112 22.6899 31.3942 22.4717 30.8657 22.3823C30.7691 22.3408 30.7645 22.2263 30.8657 22.2045Z" fill="#F37252"/>
<path d="M29.1943 22.5612C29.8445 22.5307 29.8786 22.9277 29.6274 23.3924C29.4933 22.943 29.774 22.7979 29.1943 22.5612Z" fill="#F7B17D"/>
<path d="M30.3392 22.1457C30.2823 22.3398 30.2687 22.2253 30.2153 22.2646C30.2096 22.2068 30.2244 22.1435 30.2153 22.0868C30.1868 21.9111 30.0027 21.8271 29.8436 21.7901C29.8118 21.6799 29.7595 21.6406 29.9675 21.5522C30.2323 21.6068 30.4005 21.9319 30.3392 22.1457Z" fill="#EF4247"/>
<path d="M30.03 23.8682C30.3562 24.0623 30.3925 24.0558 30.4016 24.4616C30.3403 24.4649 30.2766 24.4561 30.2164 24.4616C30.3232 24.0896 29.9868 24.1387 29.9072 23.8682H30.0311H30.03Z" fill="#F9A15A"/>
<path d="M31.5154 20.6611C31.5257 20.6448 31.5097 20.5793 31.5154 20.5422C31.7427 20.5193 32.1394 21.0506 32.1337 21.284C31.653 21.2742 32.0223 20.7473 31.5154 20.66V20.6611Z" fill="#F37252"/>
<path d="M29.6902 20.5421C30.1062 20.4843 30.4722 20.9959 30.1233 21.3144C29.9937 21.1802 30.2631 21.0701 30.1233 20.8399C29.946 20.5476 29.4788 20.7341 29.4731 20.6916C29.5061 20.6534 29.6686 20.5465 29.6902 20.5432V20.5421Z" fill="#F0D4AD"/>
<path d="M32.3191 23.1547C32.2804 23.0696 32.1463 23.0882 32.1338 22.9769C32.8555 22.9006 32.3907 23.9445 32.3191 23.6009C32.4452 23.4569 32.3861 23.3053 32.3191 23.1558V23.1547Z" fill="#F9A15A"/>
<path d="M31.5156 20.5422C31.5099 20.5793 31.5258 20.6448 31.5156 20.6611C31.3269 20.9731 31.5974 20.8706 31.7327 21.1957C31.3849 21.1815 31.0632 20.5881 31.5156 20.5422Z" fill="#F8D196"/>
<path d="M30.3394 22.1459C30.4019 21.9321 30.2337 21.607 29.9678 21.5525C30.3372 21.3954 30.527 21.8393 30.3394 22.1459Z" fill="#F1C599"/>
<path d="M32.134 22.9768C32.1465 23.0881 32.2817 23.0696 32.3193 23.1546L32.134 23.363C32.1931 23.0717 32.0669 23.1666 31.9487 23.0063C31.9783 22.9517 32.0772 22.9823 32.134 22.9768Z" fill="#A31E22"/>
<path d="M30.2156 22.2646C29.9258 22.4784 30.0087 22.3028 29.9065 22.3235L29.7212 21.9668C29.9076 22.0715 30.0065 22.2177 30.2156 22.2635V22.2646Z" fill="#EF4247"/>
<path d="M30.7416 20.4233C30.9064 20.5771 30.9552 20.8869 30.6802 20.9579L30.7416 20.4233Z" fill="#F37252"/>
<path d="M29.0092 22.8579L29.3809 23.3324C29.1751 23.4055 28.9615 22.8819 29.0092 22.8579Z" fill="#F0967C"/>
<path d="M29.9995 20.4232C30.2393 20.396 30.4337 20.4451 30.5871 20.6316C30.5428 20.72 30.0541 20.4723 29.9995 20.4232Z" fill="#F0D4AD"/>
<path d="M30.804 22.6202C30.8233 22.606 31.0131 22.6944 31.0211 22.7096C31.2086 23.0533 30.4891 22.8525 30.804 22.6202Z" fill="#EF4247"/>
<path d="M30.2154 22.0867C30.0086 22.0573 29.904 21.994 29.8438 21.79C30.0017 21.8271 30.187 21.9111 30.2154 22.0867Z" fill="#F0D4AD"/>
<path d="M32.2885 21.8491C32.4386 21.9637 32.3942 22.2255 32.3499 22.3836C32.2419 22.2298 32.2204 22.0269 32.2885 21.8491Z" fill="#F8D196"/>
<path d="M30.37 22.3235L30.4632 22.3529L30.37 22.4424L30.3394 22.4129L30.37 22.3235Z" fill="#EF4247"/>
<path d="M28.0501 22.5614C28.0751 22.6846 28.074 22.7959 28.0501 22.9181C28.0228 23.0533 27.8239 23.2039 27.8023 23.3337C27.7114 23.4417 27.6523 23.4951 27.4932 23.4526C27.5239 23.133 27.5909 22.6868 27.6784 22.3836C27.6909 22.3421 27.7512 22.1458 27.7716 22.1458C27.8955 22.2788 28.0103 22.365 28.0501 22.5614Z" fill="#FAD0CB"/>
<path d="M29.9057 23.8682C29.9852 24.1398 30.3217 24.0896 30.2148 24.4616C30.0182 24.4812 29.9966 24.4518 29.875 24.2238L29.8136 24.4616C29.4931 24.2107 29.3737 23.8682 29.9068 23.8682H29.9057Z" fill="#DE2132"/>
<path d="M27.8024 23.927H27.8638C27.8445 24.0394 27.9786 24.0786 27.8945 24.1648C27.766 24.1103 27.8217 23.9565 27.8013 23.927H27.8024Z" fill="#F4EACB"/>
<path d="M29.2876 21.6114L29.2263 21.6703C29.0092 21.5765 28.8341 21.3507 29.1024 21.1958C29.0308 21.498 29.1831 21.4729 29.2876 21.6114Z" fill="#F0967C"/>
<path d="M29.2256 21.6702L29.287 21.6113C29.3995 21.7608 29.3506 21.7248 29.2256 21.6702Z" fill="#F0D4AD"/>
<path d="M27.6797 22.3836C27.5922 22.6869 27.5251 23.133 27.4944 23.4526C27.1455 23.3588 27.2569 22.3236 27.6797 22.3836Z" fill="#F9EBE5"/>
<path d="M28.5457 22.6202C28.4696 22.5722 28.498 22.5493 28.4219 22.5013C28.523 22.3879 28.4241 22.3071 28.3605 22.4424C28.3196 22.438 28.2957 22.4817 28.2366 22.5013C27.9002 21.6483 28.9583 22.0126 28.5457 22.6202Z" fill="#EF4247"/>
<path d="M28.4217 22.5024C28.3547 22.4598 28.3638 22.4435 28.3604 22.4435C28.4251 22.3082 28.524 22.39 28.4217 22.5024Z" fill="#F0D4AD"/>
<path d="M26.4419 25.4704C26.6635 25.7442 26.7613 25.6405 27.1841 25.6482C27.1784 25.6809 27.0852 25.7518 27.0602 25.7671C26.9954 25.8085 26.8874 25.73 26.8749 25.9449C26.1145 25.7954 26.6351 26.1227 26.6271 26.2121C26.6237 26.2536 26.3498 26.6899 26.318 26.9539C26.2555 27.4666 26.3885 27.8222 26.8442 28.1418C28.2183 29.1062 28.1388 27.5648 29.5049 27.7851L29.4743 28.0229C28.9151 28.2629 27.7819 28.6273 27.1852 28.7353C27.1466 28.7418 27.1 28.7287 27.0613 28.7353C26.876 28.3535 26.593 28.6131 26.5351 28.6164C25.9645 28.6502 25.4565 28.6818 24.895 28.7942C24.6029 28.6622 25.2178 28.0764 24.8018 27.963C24.4824 27.8757 24.6597 28.3207 24.5233 28.4375C24.4904 28.2837 24.3688 27.3052 24.3995 27.2201C24.4335 27.123 24.7006 26.9997 24.7086 26.9823C24.7893 26.8197 24.9223 26.3223 25.0803 26.1511C25.328 25.8816 25.4803 25.9438 25.6679 25.8249C25.8281 25.7234 25.8497 25.298 26.4407 25.4682L26.4419 25.4704Z" fill="#2C296A"/>
<path d="M24.8949 28.7966C24.7335 28.8293 24.6006 28.7933 24.5858 28.7966C24.6688 28.6711 24.5551 28.5817 24.5244 28.4399C24.6608 28.3232 24.4835 27.8781 24.8029 27.9654C25.2189 28.0788 24.604 28.6646 24.8961 28.7966H24.8949Z" fill="#433B93"/>
<path d="M25.4518 27.6087C25.5734 27.3077 25.7132 27.2782 25.4825 27.0742C26.2713 26.8386 26.1417 27.1429 26.1008 27.7865C25.8769 27.9142 25.6587 27.6873 25.4507 27.6087H25.4518Z" fill="#53569F"/>
<path d="M25.0497 26.5998C25.6839 26.5616 25.3315 26.9957 25.1735 27.3121C24.7814 27.1506 24.7996 26.8528 25.0497 26.5998Z" fill="#433B93"/>
<path d="M25.4518 27.6086C25.4223 27.6806 25.4257 27.6718 25.3904 27.7275C25.1643 27.5758 25.3279 27.7755 25.3291 27.7864C25.3473 28.058 25.42 28.4682 25.0199 28.1125C24.9176 27.9456 24.962 27.6587 25.0813 27.5191C25.212 27.3675 25.3882 27.5835 25.453 27.6086H25.4518Z" fill="#53569F"/>
<path d="M25.421 26.0051C25.9916 25.8186 25.7461 26.5767 25.4824 26.5985C25.2187 26.6203 25.1732 26.0858 25.421 26.0051Z" fill="#53569F"/>
<path d="M25.5454 28.1431L25.9171 28.3809L25.8557 28.5587C25.7238 28.5936 25.392 28.238 25.5465 28.1431H25.5454Z" fill="#433B93"/>
<path d="M25.3894 27.7275C25.3803 27.7417 25.3984 27.7963 25.328 27.7864C25.328 27.7755 25.1632 27.5759 25.3894 27.7275Z" fill="#9698C2"/>
<path d="M27.926 25.5894C27.0974 26.6715 29.732 27.4471 29.1637 26.1239C29.4319 26.293 29.5854 26.5002 29.7206 26.7773C29.8365 27.2344 29.2967 27.2911 28.8545 27.3707C28.6079 27.4154 28.334 27.5125 28.0817 27.4896C27.5304 27.4394 27.0849 26.7653 26.628 27.2518C26.495 27.158 26.445 27.0456 26.3188 26.9551C26.3507 26.69 26.6246 26.2537 26.628 26.2133C26.636 26.1239 26.1154 25.7966 26.8758 25.9461C26.8542 26.2951 27.9998 27.3085 27.8657 26.57C27.7987 26.2013 27.2952 26.0006 27.061 25.7683C27.086 25.753 27.1792 25.6821 27.1849 25.6494C27.4793 25.6548 27.6691 25.5643 27.9271 25.5905L27.926 25.5894Z" fill="#6D89C0"/>
<path d="M29.9061 27.3116C29.9299 27.4916 30.0447 27.6967 29.9061 27.8756C29.8492 27.9487 29.5696 27.9825 29.473 28.0239L29.5037 27.7861C28.1375 27.5647 28.2171 29.1071 26.843 28.1428C26.3872 27.8232 26.2542 27.4676 26.3168 26.9549C26.4429 27.0465 26.4929 27.1578 26.6259 27.2516C27.0533 27.5527 28.2217 27.8101 28.699 27.6672C28.8661 27.617 28.8729 27.52 28.8536 27.3705C29.2957 27.2909 29.8356 27.2342 29.7197 26.7771C29.8151 26.9735 29.8754 27.0858 29.9049 27.3116H29.9061Z" fill="#334D91"/>
<path d="M27.0606 25.7671C27.2947 25.9994 27.7982 26.2002 27.8653 26.5689C27.9994 27.3085 26.8537 26.294 26.8753 25.9449C26.8889 25.73 26.9958 25.8075 27.0606 25.7671Z" fill="#ABBEE2"/>
<path d="M28.8551 27.3706C28.8745 27.52 28.8676 27.6171 28.7006 27.6673C28.2243 27.8102 27.0548 27.5527 26.6274 27.2517C27.0843 26.7651 27.5299 27.4393 28.0811 27.4895C28.3346 27.5124 28.6074 27.4153 28.854 27.3706H28.8551Z" fill="#4C63A0"/>
<path d="M29.1641 26.0647C29.172 26.0789 29.1561 26.1062 29.1641 26.1236C29.7324 27.4468 27.0978 26.6712 27.9264 25.5891C28.206 25.6175 29.0209 25.8258 29.1641 26.0636V26.0647Z" fill="#334D91"/>
<path d="M28.8547 26.4803C28.7684 26.4726 28.6911 26.441 28.607 26.4214C28.6024 26.2294 28.1705 26.2588 28.0807 26.3025C27.7079 25.7734 29.1537 26.0843 28.9775 26.5108C28.9366 26.5806 28.8945 26.4563 28.8536 26.4814L28.8547 26.4803Z" fill="#889EC9"/>
<path d="M28.6072 26.4203C28.6913 26.4399 28.7686 26.4726 28.855 26.4792C28.5151 26.6799 28.4151 26.6046 28.1128 26.3897C28.2878 26.3025 28.4435 26.3799 28.6072 26.4192V26.4203Z" fill="#334D91"/>
<path d="M26.9992 32.5958C27.0412 33.055 27.5152 33.655 28.0505 33.487C28.4176 37.7064 28.679 41.9934 28.9791 46.2237C28.9825 46.2651 29.0666 46.9556 28.8552 46.8476C28.6574 46.5989 28.5801 46.4582 28.4222 46.1942C28.2005 45.8222 28.2858 45.4143 27.8039 45.1252C27.5152 44.9517 27.181 44.8732 26.8753 45.0663L26.5661 45.0957C25.8796 40.9178 25.6955 36.4922 24.834 32.359C25.5023 32.287 26.3127 32.4823 26.9992 32.5968V32.5958Z" fill="#F9D5E5"/>
<path d="M27.0601 28.7366C26.5657 28.8206 25.9587 28.7955 25.4518 28.8555C25.2677 28.8773 24.8938 28.8882 24.771 29.0038C26.1372 29.4642 27.617 29.3365 29.04 29.39C29.8049 29.4184 30.563 29.4336 31.329 29.4489C32.2156 29.4664 33.1044 29.5024 33.9898 29.5078C35.1889 29.5165 36.3811 29.4631 37.5779 29.4489C38.0167 29.4434 38.4349 29.4598 38.877 29.4489C39.4055 29.4358 39.9534 29.4685 40.4853 29.4489L40.5785 29.7456C40.0636 29.81 39.0157 29.5558 38.877 30.1612C34.0057 30.3663 29.0491 30.3008 24.2448 29.5078C23.7935 29.8307 25.2109 30.0183 25.3586 30.0423C27.4067 30.3728 29.9186 30.4525 32.0098 30.5168C31.8735 30.9739 32.5611 30.8005 32.8759 30.8135V31.2881C30.0174 31.2161 27.1453 31.1223 24.338 30.5757C24.2482 30.0696 23.8515 29.222 24.3073 28.8533C24.3266 28.838 24.5232 28.8097 24.5857 28.7944C24.6005 28.7911 24.7346 28.8271 24.8949 28.7944C25.4564 28.682 25.9644 28.6493 26.535 28.6166C26.5929 28.6133 26.8759 28.3537 27.0612 28.7355L27.0601 28.7366Z" fill="#EFF9FE"/>
<path d="M33.8049 31.9436C34.072 31.9468 34.3425 31.9436 34.6096 31.9436L36.9293 32.2403C37.2408 32.5544 37.3715 32.1683 37.7954 32.1814C38.1637 32.1923 38.3182 32.4683 38.3523 32.4781C38.5353 32.5348 38.8808 32.405 39.0945 32.537L38.9399 32.8937C38.7842 32.9144 38.5956 33.0955 38.3216 33.1315C38.3637 32.6439 38.0864 32.9799 37.7954 32.9537C37.1737 32.8959 36.6429 33.0093 36.2485 33.0126C34.5482 33.0311 32.9638 32.801 31.2374 32.6559C31.0032 32.6363 30.8441 32.8381 30.8043 32.8337C30.4543 32.8021 29.761 32.5195 29.3813 32.477C28.2618 32.3537 27.1446 32.225 26.1023 32.0614C25.6318 31.9872 25.1215 32.045 24.6486 31.9425C24.6009 31.7221 24.5157 31.5127 24.4634 31.2891C27.5583 31.6992 30.677 31.9032 33.806 31.9425L33.8049 31.9436Z" fill="#B597B4"/>
<path d="M44.9407 31.349C44.8338 31.7417 44.6554 32.1268 44.569 32.477L44.0121 32.5359C44.0223 32.3766 43.9882 32.2457 44.0735 32.0908C43.7268 31.9643 43.4199 32.1159 42.9903 32.0614C42.8778 32.1159 42.8607 32.417 42.8357 32.5359C42.4573 32.5184 42.0856 32.669 41.7219 32.7137C40.8138 32.825 39.8306 32.7737 38.9373 32.8915L39.0919 32.5348C38.8782 32.4028 38.5327 32.5315 38.3497 32.4759C38.3156 32.4661 38.161 32.1901 37.7928 32.1792C37.3688 32.1661 37.2381 32.5522 36.9267 32.2381L34.6069 31.9414C35.2446 31.9436 35.8879 31.9534 36.5243 31.9414C39.1703 31.8923 41.831 31.7385 44.444 31.3479C44.5508 31.3316 44.8566 31.2738 44.9384 31.3479L44.9407 31.349Z" fill="#806B8B"/>
<path d="M32.876 31.2901C33.0294 31.2944 33.1351 31.3468 33.309 31.349C33.1897 32.0984 33.567 31.637 33.8034 31.9424C30.6756 31.9031 27.5557 31.6991 24.4608 31.289C24.3915 30.9923 24.3835 30.8406 24.3369 30.5767C27.1443 31.1232 30.0152 31.2181 32.8749 31.289L32.876 31.2901Z" fill="#CDDCE9"/>
<path d="M38.3198 33.1303C38.3198 33.1303 38.3425 33.1783 38.2584 33.1892C36.8695 33.3758 35.7648 33.4041 34.3611 33.367C33.2564 33.3376 32.1232 33.2699 31.0207 33.1892C30.7389 33.1685 29.2659 32.8609 29.1647 33.0409C29.2283 33.0845 29.2352 33.1172 29.2261 33.1892C28.9317 32.8052 28.4589 32.8696 27.9883 32.7736C27.6633 32.7071 27.3269 32.6503 26.9984 32.5958C26.3119 32.4824 25.5015 32.286 24.8332 32.358C24.798 32.1878 24.6741 32.0624 24.6479 31.9424C25.1219 32.0438 25.6311 31.9871 26.1016 32.0613C27.1439 32.2249 28.2611 32.3536 29.3806 32.4769C29.7603 32.5194 30.4536 32.802 30.8036 32.8336C30.8434 32.8369 31.0025 32.6362 31.2367 32.6558C32.9631 32.7998 34.5475 33.03 36.2478 33.0125C36.6422 33.0081 37.173 32.8958 37.7947 32.9536C38.0857 32.9809 38.363 32.6438 38.321 33.1314L38.3198 33.1303Z" fill="#ECBAD6"/>
<path d="M44.5692 32.478C43.7645 35.7811 43.519 40.2405 43.0849 43.7006C42.9837 43.6494 42.9667 43.5305 42.961 43.4334C42.9451 43.1301 43.2485 41.9869 42.8371 42.0971C42.8394 42.0775 42.8348 42.0567 42.8371 42.0382C43.1519 39.3296 43.5281 36.6156 43.827 33.9027C43.8759 33.4576 43.9839 32.9678 44.0123 32.5369L44.5692 32.478Z" fill="#BCB5C5"/>
<path d="M45.2502 29.271C45.0968 29.3583 44.7103 29.3441 44.6001 29.3899C44.4751 29.4412 44.5274 29.6103 44.4762 29.6277C43.2919 30.0292 40.4141 30.159 39.0627 30.2211C39.0525 30.2211 38.9059 30.1601 38.8774 30.1622C39.0161 29.5568 40.064 29.811 40.5789 29.7466L40.4857 29.4499C40.9585 29.4325 41.4359 29.415 41.9087 29.391C42.5054 29.3605 43.1066 29.3201 43.7033 29.2721C43.9784 29.2503 44.3512 29.1096 44.508 29.0943C44.649 29.0801 44.799 29.0998 44.9411 29.0943C45.0104 29.091 45.1195 29.1827 45.2195 29.0354C45.3389 29.1205 45.2457 29.2361 45.2502 29.2732V29.271Z" fill="#CDDCE9"/>
<path d="M45.2496 29.271C45.2883 29.6037 45.2439 30.2408 45.1883 30.5778C44.9859 30.5756 44.7666 30.5996 44.57 30.6367V30.2211C44.57 30.1611 44.6291 30.0575 44.57 29.9539C42.7423 30.2157 40.8454 30.4927 38.9712 30.4589L39.0644 30.2211C40.4158 30.1579 43.2936 30.0291 44.4779 29.6277C44.529 29.6102 44.4779 29.4423 44.6018 29.3899C44.712 29.3441 45.0973 29.3594 45.2519 29.271H45.2496Z" fill="#709EBC"/>
<path d="M45.189 30.5779C45.1071 31.0666 45.0173 31.0731 44.9412 31.3502C44.8582 31.276 44.5536 31.3338 44.4468 31.3502L44.5082 30.6968C44.5934 30.6804 44.5661 30.6379 44.5695 30.6379C44.7662 30.5997 44.9855 30.5768 45.1878 30.579L45.189 30.5779Z" fill="#709EBC"/>
<path d="M29.225 33.1904C29.2228 33.21 29.2262 33.2297 29.225 33.2493L30.0911 47.9157C29.8786 47.7728 29.1819 47.2895 29.0398 47.1434C28.9329 47.0343 28.9 46.9034 28.8545 46.8467C29.0659 46.9547 28.9807 46.2652 28.9784 46.2227C28.6795 41.9913 28.4181 37.7054 28.0498 33.486C28.0305 33.2657 27.8862 33.0257 27.9885 32.7737C28.459 32.8697 28.9318 32.8053 29.2262 33.1893L29.225 33.1904Z" fill="#F9D5E5"/>
<path d="M27.9885 32.7748C27.8862 33.0268 28.0317 33.2668 28.0499 33.4872C27.5134 33.6562 27.0395 33.0563 26.9985 32.5959C27.3259 32.6505 27.6634 32.7072 27.9885 32.7738V32.7748Z" fill="#ECBAD6"/>
<path d="M38.877 30.1623C38.9065 30.1612 39.0532 30.2223 39.0623 30.2212L38.9691 30.459C40.8433 30.4928 42.7402 30.2158 44.5678 29.954C44.6269 30.0576 44.5678 30.1612 44.5678 30.2212L41.6286 30.5779L41.7218 31.0524C40.7126 31.1506 39.7033 31.1779 38.6906 31.2303L38.3189 31.1408C38.5247 31.0775 38.6224 30.9695 38.752 30.8146C38.7792 30.7808 38.9304 30.7536 38.9372 30.7252L38.9065 30.5168C36.605 30.543 34.3091 30.5888 32.0087 30.5168C29.9174 30.4514 27.4055 30.3729 25.3574 30.0423C25.2097 30.0183 23.7924 29.8307 24.2436 29.5078C29.0479 30.2998 34.0034 30.3663 38.8759 30.1612L38.877 30.1623Z" fill="#A8D0E6"/>
<path d="M38.7532 30.8147C38.6236 30.9707 38.5259 31.0776 38.3202 31.1408L38.6918 31.2303C37.9349 31.2695 37.1631 31.335 36.4028 31.3492C35.3776 31.3677 34.3353 31.3677 33.309 31.3492C33.1351 31.3459 33.0294 31.2935 32.876 31.2903V30.8158C34.8275 30.9008 36.8028 30.7339 38.7532 30.8158V30.8147Z" fill="#CDDCE9"/>
<path d="M38.7532 30.8145C36.8028 30.7327 34.8274 30.8996 32.8759 30.8145C32.5611 30.8004 31.8735 30.9749 32.0099 30.5178C34.3103 30.5898 36.6062 30.544 38.9077 30.5178L38.9384 30.7262C38.9305 30.7534 38.7804 30.7818 38.7532 30.8156V30.8145Z" fill="#EFF9FE"/>
<path d="M41.7235 32.7148C41.3552 37.3106 40.8961 41.8998 40.4858 46.4911C40.4699 46.5151 40.2857 46.6253 40.238 46.6995C40.0721 46.9613 39.4572 48.4481 39.2174 48.5103C38.6979 48.3183 38.4206 47.6114 37.7637 47.9168L38.2581 33.1905C38.3422 33.1795 38.316 33.1315 38.3195 33.1315C38.5934 33.0955 38.7832 32.9145 38.9378 32.8937C39.8311 32.7759 40.8142 32.8272 41.7224 32.7159L41.7235 32.7148Z" fill="#D761A0"/>
<path d="M36.403 31.3491L36.5269 31.9425C35.8893 31.9545 35.2459 31.9447 34.6095 31.9425C34.3424 31.9425 34.0719 31.9458 33.8048 31.9425C33.5684 31.6371 33.191 32.0974 33.3104 31.3491C34.3356 31.3677 35.3778 31.3677 36.4041 31.3491H36.403Z" fill="#A8BBD0"/>
<path d="M42.8368 32.537C42.7515 32.9483 42.7697 33.4741 42.7129 33.9028C42.3219 36.8862 41.8752 40.0879 41.6615 43.0768C41.6547 43.1793 41.5865 43.5906 41.7854 43.5818C41.6638 43.9353 41.532 44.2778 41.4763 44.6509C41.2717 45.0556 41.158 45.6708 40.9194 46.0461C40.8171 46.2075 40.5352 46.4137 40.4863 46.4911C40.8966 41.8998 41.3558 37.3106 41.7241 32.7149C42.0878 32.6701 42.4594 32.5196 42.8379 32.537H42.8368Z" fill="#BD4D90"/>
<path d="M44.5078 30.6968L44.4464 31.3502C41.8345 31.7407 39.1727 31.8945 36.5267 31.9436L36.4028 31.3502C37.1632 31.3371 37.9349 31.2706 38.6919 31.2313C39.7046 31.1789 40.7139 31.1517 41.7231 31.0535C42.6381 30.964 43.6053 30.8648 44.5078 30.6968Z" fill="#87B2D1"/>
<path d="M44.012 32.537C43.9836 32.9679 43.8756 33.4577 43.8267 33.9028H42.7129C42.7686 33.4741 42.7515 32.9483 42.8368 32.537C42.8618 32.4181 42.8788 32.116 42.9914 32.0625C43.421 32.117 43.7279 31.9654 44.0745 32.092C43.9881 32.2469 44.0234 32.3778 44.0131 32.537H44.012Z" fill="#A1819D"/>
<path d="M38.259 33.1904L37.7646 47.9168C37.7555 47.9594 37.7248 47.9986 37.7032 48.0357C37.6191 48.1754 36.5655 48.8997 36.3734 48.9269C35.8938 48.9924 35.0811 48.5877 34.6719 48.3335C34.6594 48.3259 34.5412 48.1906 34.4867 48.1557L34.3628 33.3704C35.7665 33.4075 36.8712 33.3791 38.2601 33.1926L38.259 33.1904Z" fill="url(#paint0_linear_366_118814)"/>
<path d="M34.3616 33.3684L34.4855 48.1537C34.2582 48.0075 33.4921 47.2842 33.4023 47.2624C32.7124 47.0944 32.1407 48.0577 31.6395 48.3904C31.4577 43.703 31.3792 38.996 31.0826 34.3174C31.0587 33.941 31.0099 33.5669 31.0212 33.1895C32.1237 33.2702 33.2569 33.3389 34.3616 33.3673V33.3684Z" fill="#EB91BD"/>
<path d="M31.0201 33.1905C31.0087 33.5679 31.0576 33.9431 31.0815 34.3184C30.8076 34.2584 31.0519 33.7162 30.9269 33.6061C30.8632 33.5493 29.4403 33.2974 29.2254 33.2494C29.2266 33.2297 29.2232 33.209 29.2254 33.1905C29.2334 33.1185 29.2277 33.0857 29.1641 33.0421C29.2652 32.8621 30.7394 33.1697 31.0201 33.1905Z" fill="#ECBAD6"/>
<path d="M43.8269 33.9028C43.528 36.6158 43.1518 39.3298 42.837 42.0383C42.2562 42.3023 42.0607 42.875 41.847 43.4041C41.822 43.4652 41.8061 43.5208 41.7856 43.5819C41.5867 43.5906 41.6549 43.1805 41.6618 43.0768C41.8754 40.0879 42.3221 36.8863 42.7131 33.9028H43.8269Z" fill="#BC88AB"/>
<path d="M44.5691 30.2212V30.6368C44.5691 30.6368 44.5918 30.6804 44.5077 30.6957C43.6052 30.8637 42.638 30.963 41.7231 31.0524L41.6299 30.5779L44.5691 30.2212Z" fill="#A8D0E6"/>
<path d="M31.0816 34.3183C31.3783 38.9969 31.4567 43.7039 31.6385 48.3913C31.6385 48.4109 31.6385 48.4305 31.6385 48.4502C30.9293 48.7109 30.5804 48.2451 30.0917 47.9157L29.2256 33.2493C29.4404 33.2973 30.8634 33.5493 30.927 33.606C31.0521 33.7161 30.8077 34.2583 31.0816 34.3183Z" fill="#F9D5E5"/>
<path d="M27.7414 45.9567L27.8653 46.1345C27.9903 47.3999 28.0949 48.6696 28.237 49.935C28.1597 49.9656 27.6925 50.1161 27.68 50.1434C27.6266 50.2623 28.2529 52.3851 27.7414 52.6371C27.638 52.3109 27.6664 51.9564 27.6175 51.628C27.613 51.5964 27.5573 51.0902 27.4323 51.3608C27.2152 49.6449 26.9049 47.9159 26.7515 46.1945C26.9992 46.1367 27.5596 45.8705 27.7414 45.9567Z" fill="#BD4D90"/>
<path d="M28.2354 49.9348C28.2842 50.3679 28.3115 50.8075 28.3592 51.2416C28.4627 52.1776 28.6468 53.1255 28.7309 54.0626C28.7389 54.1575 28.7911 54.4193 28.607 54.3887C28.3377 54.3113 28.0615 54.2633 27.8023 54.1509C27.7171 53.2183 27.5489 52.2889 27.4307 51.3605C27.5568 51.09 27.6114 51.5962 27.6159 51.6278C27.6648 51.9572 27.6364 52.3118 27.7398 52.6368C28.2513 52.3849 27.6239 50.2621 27.6784 50.1432C27.6898 50.117 28.1569 49.9654 28.2354 49.9348Z" fill="#763077"/>
<path d="M28.6073 54.3889C29.0028 54.5024 29.3267 54.5471 29.7211 54.6267C29.862 54.6551 29.8382 54.6845 29.845 54.6856V55.7547C29.1847 55.6445 28.5311 55.4776 27.8651 55.398C27.8276 54.9867 27.8401 54.5591 27.8037 54.1511C28.0617 54.2624 28.339 54.3115 28.6084 54.3889H28.6073Z" fill="#A8D0E6"/>
<path d="M27.8028 45.1254L27.7414 45.9566C27.5596 45.8704 26.9992 46.1366 26.7515 46.1944C26.7174 45.8126 26.4946 45.3054 26.8753 45.0665C27.1811 44.8745 27.5141 44.953 27.8039 45.1254H27.8028Z" fill="#D761A0"/>
<path d="M28.4213 46.1944C28.5793 46.4583 28.6566 46.5991 28.8544 46.8478C28.8998 46.9045 28.9339 47.0354 29.0396 47.1445C29.1203 48.4469 29.2215 49.7625 29.3488 51.0639C28.9101 51.0726 28.6793 50.8523 28.3588 51.2417C28.3111 50.8075 28.2838 50.369 28.2349 49.9349C28.0929 48.6695 27.9883 47.3997 27.8633 46.1344C28.1554 46.1005 28.2054 46.4223 28.4202 46.1933L28.4213 46.1944Z" fill="#9B4B8E"/>
<path d="M28.4215 46.1944C28.2079 46.4235 28.1567 46.1017 27.8646 46.1355L27.7407 45.9577L27.8021 45.1265C28.284 45.4155 28.1988 45.8235 28.4204 46.1955L28.4215 46.1944Z" fill="#D761A0"/>
<path d="M42.8371 42.0972C42.8121 42.3121 42.8008 42.5325 42.7758 42.7507C42.3404 42.8401 42.3348 43.5121 41.8472 43.4041C42.0608 42.875 42.2563 42.3023 42.8371 42.0383C42.8349 42.058 42.8394 42.0787 42.8371 42.0972Z" fill="#89477A"/>
<path d="M42.5279 44.9476C42.2165 47.618 41.8607 50.2873 41.5993 52.9643C41.5675 52.9904 41.172 53.526 41.1049 53.6177C41.0469 53.6973 40.6844 54.234 40.6719 54.2711C40.8264 51.6389 41.1208 48.9543 41.4141 46.3145C41.6766 46.3985 41.9255 46.6352 42.2188 46.5228C42.2824 46.465 42.3165 45.4549 42.3426 45.276C42.3506 45.2193 42.4029 44.6662 42.5279 44.9498V44.9476Z" fill="#412D50"/>
<path d="M42.7757 42.7506C42.6893 43.4815 42.6131 44.2167 42.5279 44.9476C42.4029 44.6639 42.3506 45.2181 42.3426 45.2737C42.3165 45.4526 42.2824 46.4627 42.2188 46.5206C41.9267 46.634 41.6766 46.3973 41.4141 46.3122C41.4709 45.7984 41.4061 45.1177 41.4754 44.6498C41.5311 44.2767 41.663 43.9342 41.7846 43.5807C41.8062 43.5196 41.8221 43.464 41.846 43.4029C42.3324 43.5109 42.3381 42.8401 42.7745 42.7495L42.7757 42.7506Z" fill="#5B375C"/>
<path d="M29.3493 51.0638C29.4653 52.2496 29.6539 53.4353 29.721 54.6265C29.3266 54.548 29.0027 54.5022 28.6071 54.3887C28.7913 54.4182 28.739 54.1574 28.731 54.0625C28.6481 53.1266 28.4628 52.1787 28.3594 51.2416C28.6799 50.8522 28.9106 51.0725 29.3493 51.0638Z" fill="#6C3D84"/>
<path d="M30.0927 47.9167C30.5814 48.2462 30.9303 48.712 31.6395 48.4512C31.6441 48.5582 31.6952 48.6563 31.7009 48.808C31.7271 49.4799 31.7362 50.1551 31.7623 50.8271C31.7771 51.2045 31.8089 51.582 31.8237 51.955C31.8657 52.963 31.843 53.9786 31.9476 54.9832C31.2236 54.9189 30.5553 54.8207 29.8438 54.6865C29.8369 54.6854 29.8608 54.6549 29.7199 54.6276C29.6528 53.4364 29.4641 52.2507 29.3482 51.0649C29.2209 49.7635 29.1198 48.4491 29.0391 47.1455C29.1811 47.2917 29.8779 47.7738 30.0904 47.9178L30.0927 47.9167Z" fill="#C6B1C9"/>
<path d="M31.949 54.9823C31.9695 54.9844 31.9899 54.9801 32.0104 54.9823C31.8888 55.3379 31.9922 55.6869 31.8865 56.0513C31.2091 55.988 30.5158 55.8658 29.8452 55.7546V54.6855C30.5567 54.8197 31.225 54.9179 31.949 54.9823Z" fill="#EFF9FE"/>
<path d="M39.9294 54.6856C39.8919 54.6933 39.843 54.678 39.8055 54.6856C39.0315 54.834 38.178 54.9802 37.3926 55.0423C37.2914 55.05 37.1846 55.0358 37.0834 55.0423L36.9902 54.9234C37.2039 54.9234 37.3005 54.9769 37.3926 54.7751C37.5074 53.0875 37.4471 51.3804 37.5165 49.6983C37.5392 49.1507 37.5881 48.5725 37.7017 48.0358C37.7233 47.9988 37.754 47.9595 37.7631 47.9169C38.42 47.6115 38.6974 48.3184 39.2168 48.5104C39.4566 48.4482 40.0715 46.9614 40.2374 46.6996C40.284 46.6254 40.4693 46.5163 40.4852 46.4912C40.267 48.9303 39.9749 51.3836 39.8044 53.825C39.7873 54.0617 39.7317 54.5056 39.9283 54.6856H39.9294Z" fill="#2C183F"/>
<path d="M41.4137 46.3133C41.1193 48.9532 40.826 51.6388 40.6715 54.2699C40.6465 54.343 40.6237 54.4303 40.6101 54.5077H40.5487C40.3555 54.5906 40.135 54.6441 39.9304 54.6856C39.7338 54.5056 39.7906 54.0616 39.8065 53.8249C39.977 51.3847 40.2691 48.9303 40.4873 46.4911C40.5362 46.4126 40.8181 46.2075 40.9204 46.0461C41.1591 45.6708 41.2727 45.0556 41.4773 44.6509C41.4068 45.1189 41.4728 45.7995 41.4159 46.3133H41.4137Z" fill="#2C183F"/>
<path d="M37.5168 49.6981C36.4541 50.0297 35.4391 49.6675 34.5469 49.1047C34.5469 49.0458 34.5469 48.9858 34.5469 48.9269C34.5447 48.7403 34.3333 48.4643 34.6708 48.3334C35.08 48.5876 35.8926 48.9934 36.3723 48.9269C36.5644 48.9007 37.6191 48.1764 37.7021 48.0356C37.5884 48.5723 37.5384 49.1505 37.5168 49.6981Z" fill="#5C1D58"/>
<path d="M34.4842 48.1536C34.5399 48.1896 34.6569 48.3238 34.6694 48.3315C34.3319 48.4624 34.5433 48.7394 34.5455 48.9249C33.3999 48.182 32.7964 47.51 31.6996 48.806C31.6939 48.6543 31.6416 48.5562 31.6382 48.4493C31.6382 48.4296 31.6382 48.41 31.6382 48.3904C32.1394 48.0577 32.7111 47.0944 33.401 47.2624C33.4897 47.2842 34.2569 48.0064 34.4842 48.1536Z" fill="#7A2061"/>
<path d="M32.5045 55.0422C33.1467 55.0836 33.7786 55.0956 34.4219 55.1011C35.3119 55.1098 36.1938 55.1011 37.0827 55.0422C37.1838 55.0356 37.2906 55.0498 37.3918 55.0422L37.3304 56.0512C35.5324 56.1963 33.6843 56.2203 31.8862 56.0512C31.9919 55.6869 31.8885 55.3378 32.0101 54.9822C32.1783 54.9964 32.3318 55.0302 32.5045 55.0411V55.0422Z" fill="#A8D0E6"/>
<path d="M39.806 54.6855L39.6821 55.7546C38.8968 55.8429 38.125 55.988 37.3306 56.0513L37.3919 55.0423C38.1773 54.9801 39.0309 54.8339 39.8049 54.6855H39.806Z" fill="#709EBC"/>
<path d="M40.2386 55.6955C40.0669 55.8057 39.8658 55.7337 39.6816 55.7544L39.8055 54.6854C39.843 54.6777 39.8919 54.693 39.9294 54.6854C40.1351 54.6428 40.3545 54.5905 40.5477 54.5076C40.5511 54.8937 40.2954 55.3486 40.2386 55.6955Z" fill="#427BA5"/>
<path d="M34.547 48.9257C34.547 48.9846 34.547 49.0446 34.547 49.1035C34.4367 49.1635 34.4868 50.1594 34.4856 50.3503C34.4572 50.8532 34.331 51.3615 34.4856 51.8644C34.3242 51.8688 34.1412 51.9353 33.9912 51.9539C33.7764 51.9801 32.0033 51.9517 31.9181 51.895C31.784 51.8044 32.0408 50.9678 31.7635 50.8259C31.7374 50.154 31.7283 49.4787 31.7021 48.8068C32.7989 47.5109 33.4025 48.1828 34.5481 48.9257H34.547Z" fill="#5C1D58"/>
<path d="M33.9902 51.954C34.0766 51.9562 34.3812 51.9267 34.4232 51.9834C34.3664 52.5867 34.4721 53.1975 34.4846 53.7942C34.4789 54.0298 34.5005 54.272 34.4846 54.5065C34.4608 54.6756 34.3755 54.8534 34.4232 55.0411C33.7811 54.9582 33.1469 54.8153 32.5058 55.0411C32.3331 55.0302 32.1785 54.9963 32.0114 54.9822C31.991 54.98 31.9705 54.9843 31.9501 54.9822C31.8466 53.9775 31.8694 52.9619 31.8262 51.954C32.5422 52.0969 33.2844 51.9354 33.9913 51.954H33.9902Z" fill="#47215C"/>
<path d="M33.9897 51.9541C33.2816 51.9356 32.5406 52.097 31.8246 51.9541C31.8086 51.5799 31.778 51.2036 31.7632 50.8262C32.0405 50.9669 31.7836 51.8047 31.9178 51.8952C32.003 51.953 33.7761 51.9803 33.9909 51.9541H33.9897Z" fill="#5C1D58"/>
<path d="M37.5166 49.6982C37.4473 51.3802 37.5075 53.0874 37.3927 54.7749C37.3007 54.9768 37.2041 54.9244 36.9904 54.9233L37.0836 55.0422C36.1959 55.1022 35.3139 55.1098 34.4229 55.1011V55.0422C34.5365 54.9811 34.4763 54.6299 34.4842 54.5077C34.5274 54.2066 34.4899 54.0768 34.4842 53.7954C34.491 53.5096 34.4308 52.1024 34.4842 51.9846C34.5524 51.8351 34.8582 51.93 34.8559 51.8657C34.291 51.9311 34.4797 50.7912 34.4842 50.3516C34.5081 49.9305 34.5513 49.5313 34.5456 49.1047C35.4378 49.6676 36.4528 50.0309 37.5155 49.6982H37.5166Z" fill="url(#paint1_linear_366_118814)"/>
<path d="M34.4233 55.0423V55.1012C33.78 55.0947 33.1469 55.0827 32.5059 55.0423C33.148 54.8165 33.7822 54.9594 34.4233 55.0423Z" fill="#47215C"/>
<path d="M34.4846 53.7954C34.4721 53.1987 34.3664 52.5878 34.4233 51.9846C34.3812 51.9278 34.0766 51.9573 33.9902 51.9551C34.1403 51.9366 34.3244 51.8711 34.4846 51.8657C34.3301 51.3628 34.4562 50.8534 34.4846 50.3516C34.4801 50.7912 34.2914 51.9311 34.8563 51.8657C34.8597 51.93 34.5528 51.8351 34.4846 51.9846C34.4312 52.1035 34.4915 53.5106 34.4846 53.7954Z" fill="#5C1D58"/>
<path d="M34.484 50.3506C34.4863 50.1597 34.4351 49.1638 34.5454 49.1038C34.5499 49.5303 34.5079 49.9295 34.484 50.3506Z" fill="#5C1D58"/>
<path d="M34.4844 54.5077C34.5009 54.2732 34.4785 54.031 34.4844 53.7954C34.4903 54.0768 34.5291 54.2067 34.4844 54.5077Z" fill="#5C1D58"/>
<path d="M34.423 55.0421C34.3752 54.8555 34.4605 54.6766 34.4843 54.5076C34.4764 54.6297 34.5366 54.981 34.423 55.0421Z" fill="#5C1D58"/>
</g>
<defs>
<filter id="filter0_i_366_118814" x="0" y="0" width="70" height="70" filterUnits="userSpaceOnUse" color-interpolation-filters="sRGB">
<feFlood flood-opacity="0" result="BackgroundImageFix"/>
<feBlend mode="normal" in="SourceGraphic" in2="BackgroundImageFix" result="shape"/>
<feColorMatrix in="SourceAlpha" type="matrix" values="0 0 0 0 0 0 0 0 0 0 0 0 0 0 0 0 0 0 127 0" result="hardAlpha"/>
<feMorphology radius="3" operator="erode" in="SourceAlpha" result="effect1_innerShadow_366_118814"/>
<feOffset/>
<feGaussianBlur stdDeviation="1"/>
<feComposite in2="hardAlpha" operator="arithmetic" k2="-1" k3="1"/>
<feColorMatrix type="matrix" values="0 0 0 0 0 0 0 0 0 0 0 0 0 0 0 0 0 0 0.08 0"/>
<feBlend mode="normal" in2="shape" result="effect1_innerShadow_366_118814"/>
</filter>
<linearGradient id="paint0_linear_366_118814" x1="32.7773" y1="35.2161" x2="39.4458" y2="46.2041" gradientUnits="userSpaceOnUse">
<stop stop-color="#BF6299"/>
<stop offset="1" stop-color="#D387B4"/>
</linearGradient>
<linearGradient id="paint1_linear_366_118814" x1="34.5558" y1="50.3505" x2="36.9738" y2="54.1552" gradientUnits="userSpaceOnUse">
<stop stop-color="#52184F"/>
<stop offset="1" stop-color="#3B1F57"/>
</linearGradient>
</defs>
</svg>
