<svg xmlns="http://www.w3.org/2000/svg" width="70" height="70" fill="none"><g filter="url(#a)"><path fill="#fff" fill-opacity=".75" d="M0 35C0 15.67 15.67 0 35 0s35 15.67 35 35-15.67 35-35 35S0 54.33 0 35"/><path fill="#283A6C" d="M21.244 55.28c.229.047.435.352.65.415.738.216.553-.158.99-.415.141-.083.592-.103.619-.12.082-.048.599-1.523.772-1.721 2.044 1.743-1.796 4.06-3.03 1.84"/><path fill="#6D89C0" d="M24.277 53.439c-.175.198-.69 1.672-.773 1.722-.027.016-.477.036-.618.119-.438.257-.252.631-.99.416-.215-.064-.422-.37-.65-.416-1.057-1.901 1.548-3.107 3.031-1.84z"/><path fill="#ABBEE2" d="M21.462 53.557c.132-.039 1.078.545 1.33.624-.331.416-2.262-.347-1.33-.624"/><path fill="#334D91" d="M22.76 52.964c.136-.018.731.237.773.386.245.867-1.732.58-1.422 0 .021-.04.611-.38.65-.386"/><path fill="#6D89C0" d="M23.133 53.26c.038.007.255.136.217.21-.114.08-1.074.246-1.114.118l.093-.267c.202.42.285-.148.805-.06z"/><path fill="#68A443" d="M46.301 52.964c-.046.254-.421.489-.618.653-.09.076-.265.022-.248.149l.619.297c-.073.033-.39.118-.434.148-.019.013-.12.053-.123.059-.35-.191-.541-.504-.805-.773a8 8 0 0 0-.433-.415c-.155-.136-.255-.307-.433-.416l-.185-.326c.568.327.313-.887.68-.208.129.236-.027.65.464.534.164-.04.384-.521.464-.593.03-.028.3-.113.34-.238.322.212-.015.305-.031.564l.34-.09c.36.247-.185.305-.217.624.053.065.493.019.618.03z"/><path fill="#6F7BB8" d="M45.25 52.073c-.08.072-.3.555-.464.593-.49.117-.336-.298-.463-.534.27-.097.651-.202.928-.06"/><path fill="#6D89C0" d="M48.281 53.499c-.071.298-.258.548-.371.83-.605.523-1.222 1.005-2.104.892-.005-.254-.331-.677-.31-.891 1.326.464 1.966.208.124-.12.044-.029.36-.114.434-.147l-.619-.297c-.017-.127.158-.073.248-.148.466.29.856.636 1.454.415.597-.22.234-.562.217-.95.428.097.578.162.928.416"/><path fill="#2C296A" d="M48.715 55.636a2 2 0 0 1-.186.118c-.354-.389-.482.262-.711.357-.022.009-.426-.061-.464-.059.19-.57.332-1.164.557-1.722.114-.283.299-.533.372-.831.692.502.976 1.402.433 2.138z"/><path fill="#283A6C" d="M47.354 56.051c-.626.033-1.17.03-1.795-.119.066-.1.167-.411.185-.534.01-.06.064-.065.062-.178.882.114 1.499-.369 2.104-.891-.225.558-.368 1.151-.557 1.722"/><path fill="#283A6C" d="M48.53 55.754c.008.01-.005.082 0 .12-.108.016-.32.253-.434.296-.483.181-.657.351-1.238.357-.49.004-1.086-.142-1.484-.416.052-.06.178-.168.185-.178.624.149 1.168.15 1.795.12.039-.003.442.068.464.058.23-.095.357-.746.711-.357"/><path fill="#6D89C0" d="M45.498 54.33c.002-.022-.007-.05 0-.06.003-.005.104-.046.124-.058 1.84.327 1.2.582-.124.119z"/><path fill="#334D91" d="M47.354 53.082c.018.388.37.734-.217.95s-.988-.124-1.454-.416c.197-.164.572-.399.618-.653.374.035.674.034 1.052.119"/><path fill="#889EC9" d="M46.89 53.38c.796.104-.312.598-.711.386.09-.303.415-.252.65-.267.046-.004.018-.125.061-.12"/><path fill="#A31E22" d="M45.746 55.398c-.019.123-.12.434-.186.534-.007.011-.133.118-.185.178-.062.07-.499.447-.557.475-.74.35-2.142.354-2.97.356l-.309-.148.31-.445c.102.066-.052.107.03.119.201.03.72-.389.494.238.232-.318.528-.152.866-.178l-.123.237c.312-.067.35-.339.742-.237-.047-.313-1.458-.062-1.269-.445.083-.168 1.056-.012 1.269-.09-.216-.349-.429-.762.154-.831.102-.012.642-.016.681.03-.048.62-.482.238-.866.474.39.102.706-.153.526.386.123-.436.908-.444.929-.059l.185-.296-.835-.09c.192-.164.143-.458.185-.624.005-.018-.004-.04 0-.059.067-.37.71-.223.68-.03-.035.23-.854.175-.587.625.187-.291.422-.379.773-.327l-.278.268.34-.06z"/><path fill="#C12629" d="M41.538 56.289c.399.21-.308.43-.061.712-.408-.014-.798-.169-1.052-.178-.001-.117-.096-.252-.124-.356.092.002.05-.072.062-.12.53.07.69.093 1.175-.058"/><path fill="#DE2132" d="m41.847 56.348-.309.445.31.148c-.161 0-.276.062-.373.059-.246-.284.46-.502.062-.712.011-.004-.042-.193.217-.12.103.03.084.173.093.179M44.012 55.161v-.059l.805-.119c-.043.166.007.46-.185.624l.835.09-.185.296c-.02-.385-.805-.376-.929.06.18-.54-.135-.284-.526-.387.384-.236.819.146.866-.474-.038-.047-.578-.042-.68-.03z"/><path fill="#FCF7FB" d="m43.394 52.964-.433.209c.105.333.288-.23.248.296-.097.144-.242.069-.372.09-.094.015-.238.13-.372.03-.027-.793.239-.706.929-.625"/><path fill="#DE2132" d="M41.97 53.795c.42-.123.063.565 0 .624-.164.155-.18-.018-.432.09-.013.005-.069.11-.186.059a.7.7 0 0 1 0-.178c0-.005.035.024.062-.06.015-.045.047-.217.061-.237.16-.22.316-.22.495-.297"/><path fill="#EA9367" d="M40.92 54.566c-.048.134-.14.278-.185.416-.123.224-.13-.444-.124-.475.015-.076.036-.164.061-.237.013-.038.375-.574.433-.654.368.123-.076.64-.185.95"/><path fill="#EF4247" d="M43.827 52.666c.179.11.28.283.433.416-.153.155-.647-.093-.866-.12-.69-.08-.955-.167-.928.625.133.1.276-.014.371-.03l-.061.238c-.197-.007-.245-.06-.433-.059-.137 0-.262-.08-.34-.059-.055.016-.024.116-.03.12-.18.078-.336.076-.495.296l.185-.386c-.143-.26-.406.57-.248.624-.027.083-.061.055-.061.059-.149-.036-.207.052-.31.119a.4.4 0 0 1-.123.059c.109-.31.554-.827.185-.95.067-.092.463-.628.495-.654.019-.015.35-.226.371-.238.7-.407 1.178-.473 1.856-.059"/><path fill="#FCF7FB" d="M42.31 53.142c.295.394-.303.58-.463.386-.092-.11.441-.306.464-.386"/><path fill="#F0967C" d="M41.477 54.092c-.014.02-.047.192-.062.238-.159-.054.104-.883.248-.624z"/><path fill="#DE2132" d="M44.694 53.499c.262.268.455.581.804.772-.007.01.002.038 0 .059-.021.214.305.637.31.891.002.114-.054.119-.062.178l-.34.059.279-.267c-.352-.053-.587.034-.773.326-.267-.45.552-.395.587-.624.031-.194-.613-.342-.68.03l-.836.058.03.119v.059c-.582.069-.37.482-.154.831-.211.076-1.185-.079-1.268.09-.19.382 1.222.132 1.268.445-.39-.102-.43.17-.742.237l.124-.237c-.339.026-.634-.14-.866.177.226-.626-.293-.208-.495-.237-.081-.012.07-.053-.03-.12-.01-.005.01-.148-.093-.177-.26-.074-.205.114-.218.119-.484.151-.645.13-1.175.059.094-.385.25-1.002.372-1.366.045-.137.137-.281.185-.416.041-.01.091-.038.124-.059.432-.005-.009.658-.061.802.3.057.23-.466.402-.564.532-.3.643.557.093.624l.279.03c.292-.583.314-1.03.587-1.663.189 0 .237.051.433.06.729.029 1.048.272 1.145-.594l.061.474c.17-.341.215-.387.526-.09.123.414-.433.304-.433.357l.495.12-.495.118c.44.05.504-.032.527.445l.093-1.128z"/><path fill="#F37252" d="M44.817 54.923c-.003.02.005.041 0 .059l-.804.119-.031-.119zM44.26 53.082c.155.135.29.27.433.416l-.093 1.128c-.023-.48-.086-.396-.526-.446l.494-.118-.494-.12c0-.053.556.058.433-.356-.311-.298-.357-.252-.526.09l-.062-.475c-.096.867-.416.623-1.144.593l.061-.238c.13-.02.275.056.372-.089.04-.527-.142.036-.248-.297l.433-.208c.22.026.713.274.866.119z"/><path fill="#F15C52" d="M42.343 53.735c-.273.633-.296 1.08-.588 1.663l-.279-.03c.55-.067.44-.925-.093-.624-.172.098-.102.622-.402.564.053-.144.493-.807.061-.802.103-.066.16-.154.31-.118a.7.7 0 0 0 0 .177c.05.139.309.106.463.12l-.278-.179c.252-.108.268.066.433-.089.062-.059.42-.746 0-.624.007-.003-.024-.104.03-.119.08-.022.204.06.34.059z"/><path fill="#F37252" d="M43.673 53.914c.478-.004.303.468.123.772l.094-.505-.557-.059c-.05-.115.315-.207.34-.208"/><path fill="#EF4247" d="M41.878 55.458c.18.415-.307.836-.65.564.652-.008.833-.439.06-.475l.589-.09"/><path fill="#F0967C" d="M42.497 53.914c.067-.02.62-.008.65.03l-.278.741c-.138-.133.217-.472.154-.624-.088-.213-.528 0-.587-.03-.06-.029.043-.112.061-.118z"/><path fill="#F15C52" d="M42.837 54.982c.001-.077.017-.133-.093-.119l-.65.03c.244-.226.784-.277.742.09z"/><path fill="#F37252" d="M43.177 54.864c.089-.02.602-.051.65.09l-.835.148c-.107-.1.144-.228.185-.238"/><path fill="#F15C52" d="M40.95 55.458c.11-.005.15 0 .218.089-.13.592-.042-.171-.557.178.06-.062.273-.265.34-.267M42.837 54.982c-.021.187-.17.797-.464.593.073-.078.464-.556.464-.593"/><path fill="#EE252E" d="M41.353 54.566c.117.051.173-.053.185-.059l.279.178c-.156-.013-.414.02-.464-.119"/><path fill="#DE2132" d="M46.425 13.476c.113.238-.41 1.107-.557 1.424-.49.245-1.227 1.196-1.238 1.692-.006.308.125.165.248 0-.163.696-.216.148-.34.148-.158 0-.68.799-.247.95.09-.043.226-.737.402-.474-1.188 2.42-2.378 4.932-3.681 7.244l-.527-.534 5.322-10.599c.148-.197.42.095.618.149"/><path fill="#E1E2E8" d="M46.426 13.476c-.198-.054-.471-.346-.619-.149l-5.32 10.6h-.061c-.24-.12-.346-.341-.495-.535l.495-.92c.171.031-.115.289.123.178l.372-1.04c1.118-1.947 3.272-5.885 3.96-7.898l.526-.712c.28.207.85.112 1.02.475z"/><path fill="#B62F3B" d="M45.869 14.901c-.362.78-.796 1.543-1.176 2.316-.175-.263-.311.431-.402.475-.433-.152.09-.95.248-.95.124 0 .176.547.34-.149-.123.165-.254.308-.248 0 .01-.497.746-1.447 1.237-1.692"/><path fill="#F6B4C3" d="M35.846 16.326c-.333.605-.675.848-.494 1.604-.154.136-.018.418.061.563.724 1.308 2.106 1.96 2.228 3.712l-.742 1.276c-1.381 1.608-3.361 2.456-5.32 3.236-.043-.156-.185.089-.186-.09-.001-.242 1.545-.823 1.825-.979 1.363-.758 4.324-2.546 3.93-4.305-.02-.09-.45-.918-.495-.95-.12-.088-.243.06-.433-.06l.185 1.129c.283-.022-.004-.725.155-.683.878 1.025.057 2.168-.99 2.731-.56.301-.29.12-.588-.119.603-.67.847-1.544.433-2.374.133-1.07-.608-1.939-.742-2.97.136-.521.158-.994.618-1.395-.327.076-.634.368-.804.624h-.124c.344-.444.888-.894 1.484-.95"/><path fill="#EF4C7A" d="M41.229 25.055c.12.212.274.59.31.831.048.337.033.531-.125.86-.439.92-3.117 2.71-4.269 2.524l-.185-.09.093-.09c1.708-.895 4.69-2.894 3.249-5.046.009.01.053-.01.06 0 .261.29.683.681.867 1.009z"/><path fill="#C273AF" d="M43.642 26.42c0 .008-.15-.039-.124.09.049.233.53.394.433 1.07-.059.41-1.138 1.538-1.516 1.691-.08.033-.642-.108-.526.119-.473.024-.95.043-1.423.059-.532.02-1.08-.013-1.609 0 .553-.294 1.16-.523 1.702-.831.22-.125 1.233-.749 1.392-.891.467.307.243.33-.061.624l.217.267c1.118-.927 1.847-1.787.526-2.97.26.172.96.5.99.773z"/><path fill="#FCF7FB" d="M34.732 23.63c-.247.203-.548.333-.835.475-1.471.729-3.242 1.22-4.733 1.959-.143-.239-.958-.447-1.238-.474-.258-.027-.448.064-.742.058-.424-.007-.522.096-.742-.177a1 1 0 0 1-.124-.178c.29.015 1.199-.001 1.454-.06.213-.047.158-.009.154-.237.016.015.133-.017.155 0 .059.047.093.269.185.297.05.015.81-.144.866-.178l-.124-.474c.632.657.757-.214-.03-.09.188-.413.692.19.772.208.032.007.538-.108.65-.119.983-.097 1.962-.398 2.94-.534.093-.054.134-.254.154-.357z"/><path fill="#D78ABB" d="M42.651 25.65c1.32 1.182.593 2.04-.526 2.969l-.217-.268c.304-.293.528-.315.061-.624.665-.593.744-.991.372-1.722a3.4 3.4 0 0 0-.618-.831c.174-.22.738.35.928.474z"/><path fill="#FCDFE7" d="M34.484 17.276c-.744 1.125-.359 3.077-1.547 4.097-.059-.094-.177-.29-.247-.356-.706-.381.316-1.157.618-1.692.375-.665.58-1.441 1.051-2.049h.125"/><path fill="#ECBAD6" d="M41.723 25.174c.218.197.484.567.618.831-.181.097.036.387 0 .624-.066.446-1.127 1.293-1.516 1.574-.133.096-1.515.887-1.608.891-.011 0-.233-.08-.185-.119.93-.55 3.215-1.844 2.691-3.117-.072-.174-.127 0-.185.03-.035-.242-.19-.62-.31-.832.062-.359.34-.022.495.119z"/><path fill="#C273AF" d="M43.642 26.42c.234.01.308.137.433.297.18.232.448.726.433 1.01-.032.621-.73 1.014-.929 1.395-.093.18.09.014.124.148-.595.048-1.197.087-1.795.119-.117-.226.446-.086.527-.12.378-.153 1.457-1.28 1.516-1.691.097-.675-.384-.837-.433-1.07-.027-.127.125-.08.124-.088"/><path fill="#F6B4C3" d="M39.93 23.393c.15.193.255.414.494.534l-.061.119c-.01-.01-.054.01-.062 0-.178-.195-.116-.051-.123-.059-.006-.007-.119-.053-.124-.059-.06-.061-.682-1.26-.743-.772-.04-.238-.588-1.133-.742-1.425-.406-.771-.576-1.104-1.175-1.781l.124-.178c.515.497 1.114.873 1.484 1.514.488.844.304 1.304.929 2.108z"/><path fill="#F9D5E5" d="M44.94 29.093c-.141.006-.291-.014-.432 0 .053-.38.443-1.113 0-1.366.014-.284-.254-.777-.433-1.009.39.257.89.332 1.051.861.125.41.15 1.199-.185 1.514"/><path fill="#F16771" d="m37.517 19.77-.124.179c-.377-.427-1.08-1.081-1.517-1.485-.062-.058-.162-.208-.154 0-.083-.127-.28-.157-.372-.534-.18-.755.163-.999.495-1.604.059-.005.188-.153.185.03-1.048 1.683.428 2.393 1.484 3.414z"/><path fill="#FCDFE7" d="M29.04 29.39c-1.423-.054-2.903.074-4.269-.386.122-.116.497-.127.68-.149l.774.178.959-.297c.597-.108 1.73-.472 2.289-.712.097-.041.376-.075.433-.148.139-.18.024-.384 0-.564.252-.037.495-.121.742-.178 1.6-.367 2.943-.698 4.517-1.188.51-.158 1.043-.309 1.547-.475.823-.271 1.982-.482 2.413-1.365.246-.028.196.06.124.208-1.062 2.164-8 3.987-10.209 5.077z"/><path fill="#ECBAD6" d="M40.053 23.927c-.128.341-.074.674-.247 1.04-.718 1.512-4.829 3.233-6.435 3.83-.667.247-1.359.452-2.04.653-.767-.015-1.525-.03-2.29-.059 2.21-1.09 9.147-2.912 10.209-5.077.072-.147.123-.234-.124-.208.137-.283.239-.638.185-.95.06-.489.683.711.742.772z"/><path fill="#F0609A" d="M40.3 24.046c1.443 2.152-1.54 4.152-3.248 5.047l-.093.09.185.09c.189.086.351 0 .433.177-1.197.015-2.39.067-3.588.059l.557-.416c.947-.087 3.935-1.88 4.671-2.553.805-.737 1.356-1.432.96-2.554.007.009-.055-.137.123.059"/><path fill="#ECBAD6" d="M42.343 26.005c.371.73.293 1.129-.372 1.722-.16.142-1.173.766-1.392.892-.543.308-1.15.538-1.702.83-.442.012-.861-.005-1.299 0-.082-.177-.244-.09-.433-.177 1.151.186 3.83-1.605 4.269-2.523.157-.33.173-.525.124-.86.058-.03.115-.204.185-.03.524 1.273-1.761 2.566-2.691 3.117-.048.039.175.12.185.12.093-.005 1.475-.795 1.608-.892.389-.281 1.45-1.128 1.516-1.574.036-.237-.181-.527 0-.624z"/><path fill="#C273AF" d="M33.372 28.796c-.194.298 1.07.307 1.175.297l-.557.416c-.886-.007-1.774-.042-2.66-.06.681-.2 1.373-.405 2.04-.653z"/><path fill="#ECBAD6" d="M27.06 28.737c.039-.007.086.006.124 0l-.959.296-.773-.178c.508-.06 1.115-.033 1.608-.119"/><path fill="#FCDFE7" d="M35.413 21.018c-.1.798-1.197 1.76-1.918 2.138-.004-.113-.054-.123-.061-.178.301-.028-.018-.515 0-.624.009-.052.589-.666.68-.831.657-1.18.222-2.186.558-3.473.135 1.03.875 1.899.742 2.969z"/><path fill="#FCF7FB" d="M34.671 18.048c-.335 1.289.099 2.293-.557 3.474-.092.164-.671.779-.68.83-.019.11.3.595 0 .625-.063-.495-.217-1.16-.495-1.604 1.188-1.02.802-2.972 1.547-4.097.17-.256.476-.546.805-.624-.46.401-.483.874-.619 1.395z"/><path fill="#F9D5E5" d="M34.98 23.392c-.011.013-.234.227-.248.238l-1.237.12c.027-.135.006-.438 0-.594.721-.378 1.818-1.339 1.917-2.138.414.83.17 1.705-.433 2.374z"/><path fill="#F6B4C3" d="M31.577 26.717c-.31.123-.678.19-.928.416-.248.057-.49.142-.742.178-.031-.226-.09-.338-.186-.535-.135-.277-.287-.484-.557-.653-.008-.018.008-.046 0-.06 1.492-.739 3.262-1.23 4.733-1.958.288-.143.589-.273.836-.475.013-.01.236-.225.247-.238.298.238.028.42.588.12 1.047-.564 1.868-1.707.99-2.732-.16-.042.127.66-.155.683l-.185-1.128c.19.12.313-.028.433.059.045.032.475.86.494.95.395 1.76-2.566 3.546-3.929 4.305-.28.156-1.826.737-1.825.98.001.177.143-.067.185.09z"/><path fill="#EC7C94" d="M37.64 22.204c.015.212-.197.905.062.773-.55 1.231-1.54 2.082-2.537 2.969-1.573.49-2.917.821-4.517 1.188.249-.226.617-.293.928-.416 1.961-.779 3.94-1.628 5.32-3.236l.743-1.277z"/><path fill="#F5919E" d="M35.722 18.464c1 1.53 2.885 2.486 1.98 4.513-.26.132-.048-.56-.062-.773-.122-1.75-1.504-2.403-2.228-3.71-.08-.146-.215-.428-.061-.565.09.377.288.408.372.535z"/><path fill="#D78ABB" d="M44.508 29.093c-.157.015-.53.156-.805.178-.034-.134-.217.033-.124-.148.197-.381.897-.775.928-1.396.444.253.054.986 0 1.366"/><path fill="#EB91BD" d="M40.176 23.986c.397 1.122-.155 1.817-.96 2.554-.735.673-3.724 2.465-4.67 2.553-.106.01-1.369 0-1.176-.296 1.606-.597 5.717-2.318 6.434-3.83.173-.366.12-.699.248-1.04.006.006.118.053.124.059"/><path fill="#E06374" d="M37.393 19.949c.599.677.77 1.01 1.175 1.781-.141-.08-.186-.116-.185.09.005 1.28.114 1.426-.742 2.493-.322.4-.943.629-.93 1.158-.503.165-1.037.316-1.546.474.998-.887 1.986-1.738 2.537-2.97.906-2.026-.979-2.983-1.98-4.512-.008-.208.093-.058.154 0 .437.404 1.14 1.058 1.517 1.485"/><path fill="#E06374" d="M38.568 21.73c.154.292.702 1.187.742 1.425.053.312-.048.667-.185.95-.431.883-1.59 1.094-2.413 1.366-.014-.53.607-.759.928-1.158.857-1.067.748-1.215.742-2.494 0-.205.046-.169.186-.089"/><path fill="#68A443" d="M23.039 21.137c-.007.006-.212-.005-.155.119.46.021.856.159 1.206.445l-.587.326c.695-.13 1.1-.055 1.577.445-.018.185-1.19.289-1.206.445.417.114 1.012-.297 1.362-.238.04.007.634.315.711.386.04.283-1.101.428-1.144.742 1.001-.424 1.56-.73 2.443.09-.537.101-.926.244-1.361.593.262.033 1.094-.49 1.268-.445.048.012.527.754.527.802-.002.365-1.482.33-1.763.267-.3-.067-.553-.457-.866-.475l.123-.119c-.181.034-.311-.056-.463-.118-.796-.322-.357-.272-.433-.387-.031-.045-.365-.14-.495-.296-.025-.03.16-.007.093-.09-.09-.112-.305-.223-.34-.267-.242-.302-1.464-1.97-1.546-2.197-.027-.074.071-.097.061-.148-.03-.153-.004-.168-.124-.326.083-.099.996.288 1.114.445zM24.895 20.423c.02.002.042-.002.061 0 .289.276.856 1.95.279 1.9-.095-.185-.727-.434-.773-.564-.091-.255.071-1.014-.124-1.365.037-.124.451.018.557.029"/><path fill="#73B643" d="M22.977 20.127c-.09.185.298.327.31.505.019.312-.053.315-.248.505-.118-.157-1.031-.544-1.114-.445.12.158.094.173.124.326-.132-.011-.704-.897-.588-.95.472.178 1.052.021 1.516.058"/><path fill="#68A443" d="M24.277 20.364c-.124.441.263.898-.093 1.247-.634-.32-1.056-.7-.773-1.425.29.042.605.035.866.178M25.637 21.433c.188.09.723.06.866.268.07.099.148.86.124 1.009-.003.023-.131.222-.154.386-.962-.416-.91-.718-.836-1.663"/><path fill="#68A443" d="M29.906 20.304c-.159.07-.665.376-.618.594-.658.102-.732.375-1.175.772l-.062.059c-.76.732-1.178.867-.68 2.02-.092.34.304 1.012.556 1.246.004.227.06.189-.154.238-.256.058-1.164.074-1.454.059-.135-.007-.79-.046-.835-.06-.242-.073-.167-.343-.185-.356-.093-.062-.895-.243-.588-.474.153.062.283.152.464.118l-.124.12c.314.017.567.408.866.474.282.062 1.761.098 1.763-.267 0-.047-.479-.789-.527-.802-.173-.045-1.005.479-1.268.445.435-.35.824-.492 1.362-.593-.885-.82-1.443-.514-2.444-.09.043-.314 1.184-.46 1.145-.742-.078-.07-.672-.38-.712-.386-.35-.059-.944.353-1.362.238.016-.157 1.188-.26 1.206-.445-.477-.5-.882-.575-1.577-.445l.587-.326a1.98 1.98 0 0 0-1.206-.445c-.056-.124.148-.113.155-.12.195-.19.267-.192.248-.504-.011-.178-.4-.32-.31-.506.084.007.323.044.434.06-.282.725.138 1.105.773 1.424.355-.349-.031-.807.093-1.247.07-.258.47-.116.618.06-.106-.013-.52-.154-.557-.03.196.351.032 1.11.124 1.366.047.13.68.378.773.563.577.05.01-1.624-.279-1.9.247.03.232.047.495.12-.079.272-.083.76.185.89-.075.945-.126 1.247.835 1.663.023-.164.152-.363.155-.386.025-.15-.055-.91-.124-1.01-.143-.206-.678-.175-.866-.267.062-.06 1.086.102 1.114.149s-.14.856.03 1.04l.773-.803-.711-.089c.091-.293.568.067.65-.326-.03-.09-1.093-.314-1.268-.386-.03-.012-.586-.307-.464-.416.16.05 1.179.578 1.238.445l-.65-.505 1.423.416c-.076-.358-1.063-.601-.619-.95.093.265 1.085.522 1.145.326l-.217-1.337.742 1.247c.053-.598.3-1.146.65-1.633.305-.115 0 1.225.093 1.396l.99-1.663-.217.98-.433.98z"/><path fill="#68A443" d="M25.761 20.602c-.121.11.435.404.464.416.175.072 1.238.296 1.268.386-.082.393-.559.033-.65.326l.712.09-.773.801c-.17-.182-.004-.993-.03-1.04-.028-.045-1.053-.209-1.115-.148-.268-.13-.264-.618-.185-.89.086.023.176.018.31.058zM27.896 21.018c.037-.01.601.066.526.208-.226.526-1.092-.057-.526-.208"/><path fill="#EF4247" d="M28.67 23.036c.121.066.443.342.124.415-.304-.84-1.465.123-.217.416-1.092-.692.188-1.018.217.059.275.015.255-.238.587-.178.062.011 0 .155.062.178.02.008.274-.234.371-.238.137-.004.178.155.217.178h-.123c-.534 0-.414.343-.094.593l.062-.237c.121.226.143.257.34.237.06-.005.125.004.185 0 0 .066-.1.061 0 .178-.113.011-.617.126-.65.12-.081-.017-.585-.622-.773-.21.789-.124.662.748.03.09l.124.475c-.056.034-.816.193-.866.178-.093-.029-.127-.25-.185-.297-.022-.018-.139.015-.154 0-.253-.236-.65-.907-.558-1.247.055.127.281.38.34.535.168-.058-.16-.42-.154-.445.057-.25.195.013.248.089.02.03-.037.183.093.238.084-.087-.05-.126-.03-.238.024-.146.123-.196.123-.208 0-.021-.213-.225-.185-.387.021-.13.22-.28.248-.415.12.01.54.076.618.119zM29.103 21.196c-.269.156-.094.38.123.474.127.055.174.09.062-.059-.105-.138-.257-.113-.185-.415.109.026.381.032.433.148.106.241-.182.45-.186.475-.027.183.173.02.186.029.108.078.033.147.093.178.007.003.057-.08.093-.06l.185.358c-.394.08-.2.151-.278.177-.029.01-.417-.24-.372-.296-.304.18-.37-.012-.463-.06-.174-.087-.326-.369-.65-.237-.102.041-.113.37-.248.297-.147-.081.202-.36.154-.475.022-.02.038-.038.062-.059.244.025.724-.573.835-.593.213-.04.145.117.155.119z"/><path fill="#F0967C" d="m28.793 22.146-.124.593c-.21-.032-.1-.103-.124-.119.412-.607-.646-.972-.31-.118-.016.005.197.194-.184.059-.04-.197-.155-.283-.279-.416-.02 0-.08.196-.093.238-.423-.06-.534.974-.185 1.069.159.042.219-.01.309-.12-.027.162.185.365.185.387 0 .012-.099.061-.124.208h-.061c-.051-.075-.191-.339-.248-.09-.006.027.322.388.155.446-.06-.153-.286-.408-.34-.535-.5-1.152-.081-1.287.68-2.019.048.115-.302.394-.154.475.135.074.147-.257.248-.297.325-.132.476.15.65.238zM29.536 21.85c-.013-.01-.213.153-.186-.03.004-.025.294-.234.186-.475-.051-.115-.324-.122-.433-.148-.01-.002.058-.158-.155-.12-.111.022-.59.62-.835.594.443-.397.517-.67 1.175-.772.241-.037.32-.018.494.208h-.433c.46.1.35.39.186.742"/><path fill="#F15C52" d="M28.422 22.503c.076.047.047.07.124.118.024.016-.086.087.124.12.159.024.094-.03.154-.12.154.254-.153.2-.154.416-.078-.043-.498-.11-.619-.119a.9.9 0 0 0 0-.357c.382.136.17-.053.186-.058.059-.021.083-.065.123-.06.005 0-.005.018.062.06"/><path fill="#F8A67F" d="M28.793 23.453c.03.086.076.381 0 .474-.028-1.078-1.308-.75-.218-.059-1.249-.293-.087-1.255.218-.415"/><path fill="#DE2132" d="M32.691 21.018c.07.064.189.263.248.357.28.442.432 1.108.494 1.603.007.055.057.066.062.178.006.156.027.46 0 .593-.022.103-.062.304-.155.357-.978.136-1.956.437-2.94.534-.1-.116.002-.112 0-.177-.008-.406-.045-.4-.37-.594-.04-.023-.082-.183-.218-.177-.098.003-.35.245-.372.237-.062-.024 0-.167-.061-.177-.332-.06-.313.193-.588.177.076-.093.031-.39 0-.474.32-.073 0-.35-.123-.416 0-.216.308-.162.154-.416-.06.091.005.144-.154.12l.123-.594c.096.048.16.241.464.059-.045.057.343.307.372.297.077-.026-.116-.098.278-.178.102-.02.02.155.31-.06.053-.038.066.076.123-.118.188-.306-.002-.75-.371-.593-.208.088-.156.127-.124.237.059.204.165.268.371.297.01.057-.005.12 0 .178-.21-.046-.308-.193-.494-.297-.036-.02-.086.064-.093.06-.06-.032.016-.101-.093-.179.163-.35.275-.642-.186-.742h.433c-.175-.225-.254-.245-.494-.208-.047-.218.46-.526.618-.593.825-.356 2.165.137 2.785.712z"/><path fill="#F15C52" d="M31.082 23.511c-.106-.098-.32-.06-.31-.237.022-.008-.07-.17.094-.178.238-.012.855.935.309.95-.177-.251.213-.252-.094-.535"/><path fill="#A31E22" d="M32.722 22.264c.32-.062.55.228.371.475-.106.07-1.008-.351-.372-.475"/><path fill="#F7B17D" d="M30.772 21.611c.739.437.163-.802-.124-.178-.01-.017-.261-.026.03-.296.684-.173.809.84.186.712-.017-.003-.254-.194-.093-.238z"/><path fill="#B62F3B" d="M30.772 23.274c-.01.175.204.14.31.238-.1.37-.437-.042-.712.058-.239-.223.328-.27.402-.296M30.772 21.611a2 2 0 0 1-.124-.178c.285-.624.863.615.124.178"/><path fill="#F37252" d="M30.866 22.205c.442-.098.658.509.494.83-.149-.345.034-.563-.494-.653-.097-.041-.101-.156 0-.178"/><path fill="#F7B17D" d="M29.194 22.561c.65-.03.685.367.433.831-.134-.449.147-.594-.433-.83"/><path fill="#EF4247" d="M30.34 22.146c-.058.194-.071.08-.125.119-.005-.058.01-.122 0-.178-.028-.176-.212-.26-.371-.297-.032-.11-.085-.15.123-.238.265.055.434.38.372.594"/><path fill="#F9A15A" d="M30.03 23.868c.326.194.362.188.372.594-.062.003-.125-.006-.186 0 .107-.372-.23-.323-.309-.594h.124z"/><path fill="#F37252" d="M31.515 20.661c.01-.016-.005-.082 0-.119.228-.023.624.509.619.742-.481-.01-.112-.537-.619-.624z"/><path fill="#F0D4AD" d="M29.69 20.542c.416-.058.782.454.433.772-.13-.134.14-.244 0-.474-.177-.292-.644-.106-.65-.148.033-.039.196-.145.217-.149"/><path fill="#F9A15A" d="M32.32 23.155c-.04-.085-.174-.067-.186-.178.721-.076.257.968.185.624.126-.144.067-.296 0-.445z"/><path fill="#F8D196" d="M31.516 20.542c-.006.037.01.103 0 .12-.19.311.081.209.217.534-.348-.015-.67-.608-.217-.654"/><path fill="#F1C599" d="M30.34 22.146c.062-.214-.106-.539-.372-.594.37-.157.559.287.371.594"/><path fill="#A31E22" d="M32.134 22.977c.013.111.148.093.185.178l-.185.208c.06-.291-.067-.196-.185-.357.03-.054.128-.024.185-.03"/><path fill="#EF4247" d="M30.216 22.265c-.29.213-.207.038-.31.058l-.185-.356c.187.105.285.25.495.297"/><path fill="#F37252" d="M30.742 20.423c.164.154.213.464-.062.535z"/><path fill="#F0967C" d="m29.01 22.858.37.474c-.205.073-.418-.45-.37-.474"/><path fill="#F0D4AD" d="M30 20.423c.24-.027.434.022.587.209-.044.088-.533-.16-.587-.209"/><path fill="#EF4247" d="M30.804 22.62c.02-.014.21.074.217.09.188.343-.532.142-.217-.09"/><path fill="#F0D4AD" d="M30.215 22.087c-.206-.03-.311-.093-.371-.297.158.037.343.121.371.297"/><path fill="#F8D196" d="M32.289 21.85c.15.114.105.375.06.534a.58.58 0 0 1-.06-.535"/><path fill="#EF4247" d="m30.37 22.324.093.029-.093.09-.03-.03z"/><path fill="#FAD0CB" d="M28.05 22.561a.9.9 0 0 1 0 .357c-.027.135-.226.286-.248.416-.09.108-.15.161-.309.119.03-.32.098-.766.185-1.07.013-.04.073-.237.094-.237.123.133.238.219.278.415"/><path fill="#DE2132" d="M29.906 23.868c.08.272.416.222.309.594-.197.02-.218-.01-.34-.238l-.061.238c-.32-.251-.44-.594.093-.594z"/><path fill="#F4EACB" d="M27.802 23.927h.062c-.02.112.115.152.03.238-.128-.055-.072-.209-.093-.238z"/><path fill="#F0967C" d="m29.288 21.611-.062.06c-.217-.095-.392-.32-.124-.475-.071.302.081.277.186.415"/><path fill="#F0D4AD" d="m29.226 21.67.061-.059c.113.15.064.114-.061.06"/><path fill="#F9EBE5" d="M27.68 22.384a7 7 0 0 0-.186 1.069c-.349-.094-.237-1.13.186-1.07"/><path fill="#EF4247" d="M28.546 22.62c-.076-.048-.048-.07-.124-.119.101-.113.002-.194-.062-.059-.04-.004-.064.04-.123.06-.337-.854.721-.49.309.118"/><path fill="#F0D4AD" d="M28.422 22.502c-.067-.042-.058-.058-.062-.058.065-.136.164-.054.062.058"/><path fill="#2C296A" d="M26.442 25.47c.221.274.32.17.742.178-.006.033-.099.104-.124.12-.065.04-.173-.038-.185.177-.76-.15-.24.178-.248.267-.003.042-.277.478-.309.742-.062.513.07.868.526 1.188 1.374.964 1.295-.577 2.66-.357l-.03.238c-.559.24-1.692.604-2.289.712-.038.007-.085-.006-.124 0-.185-.381-.468-.122-.526-.119-.57.034-1.079.066-1.64.178-.292-.132.323-.718-.093-.831-.32-.087-.142.358-.279.474-.033-.153-.154-1.132-.123-1.217.034-.097.3-.22.309-.238.08-.162.213-.66.371-.83.248-.27.4-.208.588-.327.16-.102.182-.527.773-.357z"/><path fill="#433B93" d="M24.895 28.797c-.162.032-.294-.004-.31 0 .084-.126-.03-.215-.06-.357.136-.117-.041-.562.278-.475.416.114-.199.7.093.832z"/><path fill="#53569F" d="M25.452 27.609c.121-.301.261-.33.03-.535.79-.235.66.069.619.712-.224.128-.442-.099-.65-.177"/><path fill="#433B93" d="M25.05 26.6c.634-.038.281.396.123.712-.392-.161-.373-.46-.123-.712"/><path fill="#53569F" d="M25.452 27.609c-.03.072-.026.063-.062.118-.226-.151-.062.049-.06.06.017.271.09.681-.31.326-.102-.167-.058-.454.061-.594.131-.151.307.065.372.09zM25.421 26.005c.57-.186.325.572.061.594-.263.021-.309-.513-.061-.594"/><path fill="#433B93" d="m25.545 28.143.372.238-.061.178c-.132.035-.464-.321-.31-.416"/><path fill="#9698C2" d="M25.39 27.728c-.01.014.008.068-.062.058 0-.01-.165-.21.061-.059"/><path fill="#6D89C0" d="M27.926 25.59c-.829 1.082 1.806 1.857 1.238.534.268.169.421.376.557.653.116.457-.424.514-.866.594-.247.044-.521.142-.773.119-.552-.05-.997-.725-1.454-.238-.133-.094-.183-.206-.31-.297.033-.265.307-.701.31-.742.008-.09-.513-.416.248-.267-.022.35 1.124 1.362.99.624-.067-.369-.57-.57-.805-.802.025-.015.118-.086.124-.119.294.006.484-.085.742-.059z"/><path fill="#334D91" d="M29.906 27.312c.024.18.139.385 0 .564-.057.073-.336.107-.433.148l.03-.238c-1.366-.221-1.286 1.321-2.66.357-.456-.32-.589-.675-.526-1.188.126.092.176.203.309.297.427.3 1.596.558 2.073.415.167-.05.174-.147.155-.297.442-.08.982-.136.866-.593.095.197.155.309.185.535z"/><path fill="#ABBEE2" d="M27.06 25.767c.235.232.738.433.805.802.134.74-1.011-.275-.99-.624.014-.215.12-.137.186-.178"/><path fill="#4C63A0" d="M28.855 27.37c.02.15.013.247-.154.297-.477.143-1.646-.114-2.074-.415.457-.487.903.187 1.454.238.254.022.526-.075.773-.12z"/><path fill="#334D91" d="M29.164 26.065c.008.014-.008.041 0 .059.568 1.323-2.066.547-1.238-.535.28.029 1.095.237 1.238.475"/><path fill="#889EC9" d="M28.855 26.48c-.087-.007-.164-.039-.248-.059-.005-.192-.436-.162-.526-.119-.373-.529 1.073-.218.896.209-.04.07-.082-.055-.123-.03"/><path fill="#334D91" d="M28.607 26.42c.084.02.162.053.248.06-.34.2-.44.125-.742-.09.175-.088.33-.01.494.03"/><path fill="#F9D5E5" d="M27 32.596c.041.459.515 1.059 1.05.891.368 4.22.629 8.506.93 12.737.003.041.087.732-.125.624-.198-.25-.275-.39-.433-.654-.221-.372-.136-.78-.618-1.069-.289-.173-.623-.252-.929-.059l-.309.03c-.686-4.178-.87-8.604-1.732-12.737.668-.072 1.479.123 2.165.238z"/><path fill="#EFF9FE" d="M27.06 28.737c-.494.084-1.101.059-1.608.119-.184.021-.558.032-.681.148 1.366.46 2.846.332 4.269.386.765.028 1.523.044 2.289.059.887.017 1.775.053 2.66.059 1.2.009 2.392-.045 3.589-.06.439-.005.857.012 1.299 0 .529-.012 1.076.02 1.608 0l.093.298c-.514.064-1.562-.19-1.701.415-4.871.205-9.828.14-14.632-.653-.451.323.966.51 1.114.534 2.048.33 4.56.41 6.65.475-.136.457.552.284.867.297v.474c-2.859-.072-5.73-.166-8.538-.712-.09-.506-.486-1.354-.03-1.723.019-.015.215-.043.278-.059.015-.003.149.033.309 0 .561-.112 1.07-.145 1.64-.177.058-.004.34-.263.526.118z"/><path fill="#B597B4" d="M33.805 31.944c.267.003.538 0 .805 0l2.32.296c.31.314.441-.072.865-.059.369.011.523.287.557.297.183.057.529-.073.742.059l-.154.357c-.156.02-.344.202-.618.238.042-.488-.236-.152-.527-.178-.621-.058-1.152.055-1.547.059-1.7.018-3.284-.212-5.01-.357-.235-.02-.394.182-.434.178-.35-.032-1.043-.315-1.423-.357a73 73 0 0 1-3.279-.416c-.47-.074-.98-.016-1.453-.119-.048-.22-.133-.43-.186-.653 3.095.41 6.214.614 9.343.653z"/><path fill="#806B8B" d="M44.94 31.349c-.106.393-.285.778-.371 1.128l-.557.059c.01-.16-.024-.29.062-.445-.347-.127-.654.025-1.084-.03-.112.055-.13.356-.154.475-.379-.018-.75.133-1.114.178-.908.111-1.891.06-2.785.178l.155-.357c-.214-.132-.56-.003-.742-.06-.034-.009-.189-.285-.557-.296-.424-.013-.555.373-.866.06l-2.32-.298c.638.003 1.28.012 1.917 0 2.646-.049 5.307-.203 7.92-.593.107-.016.413-.074.494 0z"/><path fill="#CDDCE9" d="M32.876 31.29c.153.004.26.057.433.059-.12.75.258.288.494.593a79 79 0 0 1-9.342-.653c-.07-.297-.077-.448-.124-.712 2.807.546 5.678.641 8.538.712z"/><path fill="#ECBAD6" d="M38.32 33.13s.023.048-.062.06c-1.389.186-2.493.214-3.897.177a73 73 0 0 1-3.34-.178c-.282-.02-1.755-.328-1.856-.148.063.044.07.076.061.148-.294-.384-.767-.32-1.238-.415a27 27 0 0 0-.99-.178c-.686-.114-1.497-.31-2.165-.238-.035-.17-.159-.296-.185-.416.474.102.983.045 1.454.12 1.042.163 2.16.292 3.279.415.38.042 1.073.325 1.423.357.04.003.199-.198.433-.178 1.726.144 3.31.374 5.01.357.395-.005.926-.117 1.548-.06.29.028.568-.31.526.178z"/><path fill="#BCB5C5" d="M44.57 32.478c-.806 3.303-1.051 7.762-1.485 11.223-.101-.052-.118-.17-.124-.268-.016-.303.288-1.446-.124-1.336.002-.02-.002-.04 0-.059.315-2.708.691-5.422.99-8.135.049-.445.157-.935.185-1.366z"/><path fill="#CDDCE9" d="M45.25 29.271c-.153.087-.54.073-.65.119-.125.051-.073.22-.124.238-1.184.401-4.062.531-5.413.593-.01 0-.157-.06-.186-.059.14-.605 1.187-.351 1.702-.415l-.093-.297a61.752 61.752 0 0 0 3.218-.178c.274-.022.647-.162.804-.178.141-.014.291.006.433 0 .07-.003.178.089.278-.059.12.085.027.201.031.238z"/><path fill="#709EBC" d="M45.25 29.271c.038.333-.006.97-.062 1.307a3.3 3.3 0 0 0-.618.059v-.416c0-.06.06-.163 0-.267-1.828.262-3.725.539-5.599.505l.093-.238c1.352-.063 4.23-.192 5.414-.593.051-.018 0-.186.124-.238.11-.046.495-.03.65-.119z"/><path fill="#709EBC" d="M45.189 30.578c-.082.489-.172.495-.248.772-.083-.074-.387-.016-.494 0l.061-.653c.085-.017.058-.06.061-.06.197-.037.416-.06.619-.058z"/><path fill="#F9D5E5" d="M29.225 33.19c-.002.02.001.04 0 .06l.866 14.666c-.212-.143-.91-.626-1.051-.773-.107-.109-.14-.24-.185-.296.21.108.126-.582.123-.624-.299-4.232-.56-8.518-.928-12.737-.02-.22-.164-.46-.062-.712.471.096.944.031 1.238.415z"/><path fill="#ECBAD6" d="M27.989 32.775c-.103.252.043.492.06.712-.536.17-1.01-.43-1.05-.891.327.055.664.111.99.178"/><path fill="#A8D0E6" d="M38.877 30.162c.03 0 .176.06.185.06l-.093.237c1.874.034 3.771-.243 5.599-.505.059.104 0 .207 0 .267l-2.94.357.094.474c-1.01.099-2.019.126-3.031.178l-.372-.09c.206-.062.303-.17.433-.325.027-.034.178-.061.185-.09l-.03-.208c-2.302.026-4.598.072-6.898 0-2.092-.066-4.603-.144-6.652-.475-.147-.024-1.565-.211-1.113-.534 4.804.792 9.76.858 14.632.653z"/><path fill="#CDDCE9" d="M38.753 30.815c-.13.156-.227.263-.433.326l.372.09c-.757.038-1.529.104-2.29.118a86 86 0 0 1-3.093 0c-.174-.003-.28-.055-.433-.059v-.474c1.952.085 3.927-.082 5.877 0z"/><path fill="#EFF9FE" d="M38.753 30.815c-1.95-.082-3.926.085-5.877 0-.315-.015-1.002.16-.866-.297 2.3.072 4.596.026 6.898 0l.03.208c-.008.027-.158.056-.185.09z"/><path fill="#D761A0" d="M41.724 32.715c-.369 4.596-.828 9.185-1.238 13.776-.016.024-.2.134-.248.209-.166.261-.78 1.748-1.02 1.81-.52-.192-.797-.899-1.454-.593l.494-14.727c.084-.01.058-.058.061-.058.274-.036.464-.218.619-.238.893-.118 1.876-.067 2.784-.178z"/><path fill="#A8BBD0" d="m36.403 31.35.124.592c-.638.012-1.281.003-1.918 0-.267 0-.537.004-.804 0-.237-.305-.614.155-.495-.593 1.026.019 2.068.019 3.094 0z"/><path fill="#BD4D90" d="M42.837 32.537c-.086.411-.067.937-.124 1.366-.391 2.983-.838 6.185-1.052 9.174-.006.102-.075.514.124.505-.121.353-.253.696-.309 1.069-.204.405-.318 1.02-.557 1.395-.102.162-.384.368-.433.445.41-4.591.87-9.18 1.238-13.776.364-.045.735-.195 1.114-.178z"/><path fill="#87B2D1" d="m44.508 30.697-.062.653c-2.611.39-5.273.544-7.92.594l-.123-.594c.76-.013 1.532-.08 2.289-.119 1.013-.052 2.022-.08 3.031-.178.915-.089 1.882-.188 2.785-.356"/><path fill="#A1819D" d="M44.012 32.537c-.028.43-.136.92-.185 1.366h-1.114c.056-.429.038-.955.124-1.366.025-.119.042-.421.154-.474.43.054.737-.098 1.084.029-.087.155-.052.286-.062.445z"/><path fill="url(#b)" d="m38.259 33.19-.494 14.727c-.01.042-.04.082-.062.119-.084.14-1.138.864-1.33.89-.48.066-1.292-.338-1.701-.593-.013-.007-.13-.142-.185-.177l-.124-14.786c1.404.038 2.508.01 3.897-.177z"/><path fill="#EB91BD" d="m34.362 33.368.123 14.786c-.227-.147-.993-.87-1.083-.892-.69-.168-1.261.796-1.762 1.128-.182-4.687-.26-9.394-.557-14.073-.024-.376-.073-.75-.062-1.127 1.103.08 2.236.149 3.34.177z"/><path fill="#ECBAD6" d="M31.02 33.19c-.011.378.038.753.061 1.128-.273-.06-.03-.602-.154-.712-.064-.057-1.487-.309-1.702-.357.002-.02-.002-.04 0-.059.008-.072.003-.104-.06-.148.1-.18 1.574.128 1.855.148"/><path fill="#BC88AB" d="M43.827 33.903c-.299 2.713-.675 5.427-.99 8.135-.58.264-.776.837-.99 1.366-.025.061-.04.117-.061.178-.2.009-.131-.401-.124-.505.213-2.99.66-6.19 1.051-9.174z"/><path fill="#A8D0E6" d="M44.57 30.221v.416s.022.043-.062.059c-.903.168-1.87.267-2.785.356l-.093-.474z"/><path fill="#F9D5E5" d="M31.082 34.318c.296 4.679.375 9.386.556 14.073v.06c-.709.26-1.058-.206-1.546-.535l-.866-14.667c.214.048 1.637.3 1.701.357.125.11-.12.652.155.712"/><path fill="#BD4D90" d="m27.741 45.957.124.178c.125 1.265.23 2.535.372 3.8-.077.03-.544.181-.557.208-.053.12.573 2.242.061 2.494-.103-.326-.075-.68-.123-1.009-.005-.032-.06-.538-.186-.267-.217-1.716-.527-3.445-.68-5.166.247-.058.808-.325.99-.238"/><path fill="#763077" d="M28.235 49.935c.05.433.076.872.124 1.307.104.936.288 1.884.372 2.82.008.096.06.357-.124.327-.27-.078-.546-.126-.805-.238-.085-.933-.253-1.862-.371-2.79.126-.271.18.235.185.267.049.33.02.684.124 1.009.511-.252-.116-2.375-.062-2.494.012-.026.479-.178.557-.208"/><path fill="#A8D0E6" d="M28.607 54.389c.396.113.72.158 1.114.238.141.028.117.057.124.059v1.069c-.66-.11-1.314-.277-1.98-.357-.037-.411-.025-.839-.061-1.247.258.111.535.16.804.238"/><path fill="#D761A0" d="m27.803 45.125-.062.832c-.181-.087-.742.18-.99.237-.034-.381-.256-.889.124-1.128.306-.192.64-.113.929.06z"/><path fill="#9B4B8E" d="M28.421 46.194c.158.264.236.405.433.654.046.056.08.187.186.297.08 1.302.181 2.617.309 3.919-.439.009-.67-.212-.99.178-.048-.434-.075-.873-.124-1.307-.142-1.266-.247-2.535-.372-3.8.292-.035.342.287.557.058z"/><path fill="#D761A0" d="M28.422 46.194c-.214.23-.265-.092-.557-.059l-.124-.177.061-.831c.482.288.397.697.618 1.069z"/><path fill="#89477A" d="M42.837 42.097c-.025.215-.036.435-.061.654-.436.09-.441.761-.929.653.214-.529.41-1.102.99-1.366-.002.02.002.04 0 .06"/><path fill="#412D50" d="M42.528 44.948c-.311 2.67-.667 5.34-.929 8.016-.031.026-.427.562-.494.654-.058.08-.42.616-.433.653.154-2.632.449-5.317.742-7.956.263.084.511.32.805.208.063-.058.097-1.068.124-1.247.008-.057.06-.61.185-.326z"/><path fill="#5B375C" d="M42.776 42.75c-.087.731-.163 1.467-.248 2.198-.125-.284-.177.27-.185.326-.027.179-.06 1.189-.124 1.247-.292.113-.542-.124-.805-.209.057-.514-.008-1.194.061-1.662.056-.373.188-.716.31-1.07.021-.06.037-.116.061-.177.486.108.492-.563.929-.654z"/><path fill="#6C3D84" d="M29.35 51.064c.115 1.186.304 2.371.371 3.563-.394-.079-.718-.125-1.114-.238.184.03.132-.232.124-.327-.083-.935-.268-1.883-.372-2.82.32-.39.552-.17.99-.178"/><path fill="#C6B1C9" d="M30.093 47.917c.488.33.837.795 1.547.534.004.107.055.205.06.357.027.672.036 1.347.062 2.02.015.377.047.754.062 1.127.042 1.008.019 2.024.124 3.028a21 21 0 0 1-2.104-.296c-.007-.002.017-.032-.124-.06-.067-1.19-.256-2.376-.372-3.562a111 111 0 0 1-.309-3.92c.142.147.839.629 1.051.773z"/><path fill="#EFF9FE" d="M31.949 54.982c.02.002.04-.002.061 0-.121.356-.018.705-.123 1.07-.678-.064-1.371-.186-2.042-.297v-1.07c.712.135 1.38.233 2.104.297"/><path fill="#2C183F" d="M39.93 54.686c-.038.007-.087-.008-.124 0-.774.148-1.628.294-2.413.356-.102.008-.208-.006-.31 0l-.093-.119c.214 0 .31.054.403-.148.114-1.687.054-3.395.123-5.077.023-.547.072-1.126.186-1.662.021-.037.052-.077.061-.12.657-.304.934.402 1.454.594.24-.062.855-1.549 1.02-1.81.047-.075.232-.184.248-.209-.218 2.44-.51 4.893-.68 7.334-.018.237-.073.68.123.86z"/><path fill="#2C183F" d="M41.414 46.313c-.295 2.64-.588 5.326-.742 7.957-.025.073-.048.16-.062.238h-.061a3.2 3.2 0 0 1-.619.178c-.196-.18-.14-.624-.123-.861.17-2.44.462-4.895.68-7.334.05-.078.331-.283.433-.445.24-.375.353-.99.557-1.395-.07.468-.004 1.148-.061 1.662z"/><path fill="#5C1D58" d="M37.517 49.698c-1.063.332-2.078-.03-2.97-.593v-.178c-.002-.187-.214-.463.124-.594.409.255 1.222.66 1.701.594.192-.026 1.247-.75 1.33-.891a10 10 0 0 0-.185 1.662"/><path fill="#7A2061" d="M34.484 48.154c.056.036.173.17.185.177-.337.131-.126.408-.123.594-1.146-.743-1.75-1.415-2.846-.119-.006-.152-.058-.25-.062-.357v-.059c.501-.332 1.073-1.296 1.763-1.128.089.022.856.744 1.083.892"/><path fill="#A8D0E6" d="M32.505 55.042c.642.042 1.274.054 1.917.06.89.008 1.772 0 2.66-.06.102-.006.209.008.31 0l-.062 1.01c-1.798.144-3.646.168-5.444 0 .106-.365.003-.714.124-1.07.168.014.322.048.495.06"/><path fill="#709EBC" d="m39.806 54.686-.124 1.069c-.785.088-1.557.233-2.351.296l.06-1.009c.786-.062 1.64-.208 2.414-.357z"/><path fill="#427BA5" d="M40.239 55.696c-.172.11-.373.038-.557.058l.123-1.069c.038-.007.087.008.124 0 .206-.042.425-.095.619-.177.003.386-.253.84-.31 1.188"/><path fill="#5C1D58" d="M34.547 48.926v.177c-.11.06-.06 1.056-.061 1.247-.029.503-.155 1.011 0 1.514-.162.005-.345.071-.495.09-.215.026-1.988-.002-2.073-.059-.134-.09.123-.927-.154-1.07-.027-.671-.036-1.346-.062-2.018 1.097-1.296 1.7-.624 2.846.119z"/><path fill="#47215C" d="M33.99 51.954c.087.002.391-.027.433.03-.057.603.05 1.213.062 1.81-.006.236.016.478 0 .713-.024.169-.11.346-.062.534-.642-.083-1.276-.226-1.917 0-.173-.01-.328-.045-.495-.059-.02-.002-.04.002-.06 0-.104-1.005-.082-2.02-.125-3.028.716.143 1.458-.019 2.165 0"/><path fill="#5C1D58" d="M33.99 51.954c-.708-.018-1.45.143-2.165 0-.016-.374-.047-.75-.062-1.128.277.14.02.979.155 1.07.085.057 1.858.084 2.073.058z"/><path fill="url(#c)" d="M37.517 49.698c-.07 1.682-.01 3.39-.124 5.077-.092.202-.189.15-.403.148l.094.12c-.888.06-1.77.067-2.661.058v-.059c.113-.06.053-.412.061-.534.043-.301.006-.431 0-.713.007-.285-.053-1.693 0-1.81.068-.15.374-.055.372-.12-.565.066-.376-1.074-.372-1.513.024-.421.067-.82.062-1.247.892.563 1.907.926 2.97.593"/><path fill="#47215C" d="M34.423 55.042v.06a36 36 0 0 1-1.917-.06c.642-.226 1.276-.083 1.917 0"/><path fill="#5C1D58" d="M34.485 53.795c-.013-.596-.119-1.207-.062-1.81-.042-.057-.346-.028-.433-.03.15-.018.334-.084.495-.09-.155-.502-.029-1.012 0-1.513-.005.44-.194 1.58.371 1.514.004.064-.303-.03-.371.119-.054.118.007 1.526 0 1.81M34.484 50.35c.002-.19-.049-1.186.061-1.246.005.426-.037.825-.061 1.247M34.484 54.508c.017-.235-.006-.477 0-.713.006.282.045.412 0 .713M34.423 55.042c-.048-.187.038-.365.061-.534-.008.122.053.473-.061.534"/></g><defs><linearGradient id="b" x1="32.777" x2="39.446" y1="35.216" y2="46.204" gradientUnits="userSpaceOnUse"><stop stop-color="#BF6299"/><stop offset="1" stop-color="#D387B4"/></linearGradient><linearGradient id="c" x1="34.556" x2="36.974" y1="50.35" y2="54.155" gradientUnits="userSpaceOnUse"><stop stop-color="#52184F"/><stop offset="1" stop-color="#3B1F57"/></linearGradient><filter id="a" width="70" height="70" x="0" y="0" color-interpolation-filters="sRGB" filterUnits="userSpaceOnUse"><feFlood flood-opacity="0" result="BackgroundImageFix"/><feBlend in="SourceGraphic" in2="BackgroundImageFix" result="shape"/><feColorMatrix in="SourceAlpha" result="hardAlpha" values="0 0 0 0 0 0 0 0 0 0 0 0 0 0 0 0 0 0 127 0"/><feMorphology in="SourceAlpha" radius="3" result="effect1_innerShadow_366_118814"/><feOffset/><feGaussianBlur stdDeviation="1"/><feComposite in2="hardAlpha" k2="-1" k3="1" operator="arithmetic"/><feColorMatrix values="0 0 0 0 0 0 0 0 0 0 0 0 0 0 0 0 0 0 0.08 0"/><feBlend in2="shape" result="effect1_innerShadow_366_118814"/></filter></defs></svg>