<svg width="70" height="70" viewBox="0 0 70 70" fill="none" xmlns="http://www.w3.org/2000/svg">
<g filter="url(#filter0_i_345_21659)">
<path d="M0 35C0 15.67 15.67 0 35 0C54.33 0 70 15.67 70 35C70 54.33 54.33 70 35 70C15.67 70 0 54.33 0 35Z" fill="white" fill-opacity="0.75"/>
<g clip-path="url(#clip0_345_21659)">
<path d="M21.7656 32.3179C21.8561 33.1296 21.6873 33.5132 20.9815 33.9551L20.3048 33.0299C19.7693 33.1097 20.2665 33.4119 19.6987 33.3153C19.8752 32.5312 21.0122 31.8944 21.7641 32.3179H21.7656Z" fill="#F26E86"/>
<path d="M19.8428 34.2405C20.2739 34.4216 20.6238 34.1807 20.9829 33.9551C21.6887 33.5132 21.8575 33.128 21.7669 32.3179C23.1755 33.1127 20.8064 35.353 19.8443 34.2405H19.8428Z" fill="#F0586E"/>
<path d="M20.9831 33.955C20.624 34.1806 20.2742 34.4215 19.843 34.2404C19.5545 33.9075 19.6036 33.7448 19.7003 33.3152C20.268 33.4134 19.7709 33.1096 20.3064 33.0298L20.9831 33.955Z" fill="#F26E86"/>
<path d="M22.1935 28.9697C22.014 29.384 21.7424 29.7032 21.3035 29.8244C20.5655 30.0285 18.3589 30.3154 17.6362 30.1098C17.94 29.9809 18.2347 29.7538 18.5615 29.6832C19.4852 29.4822 20.5071 29.9472 21.3035 29.6832C21.7163 29.5467 21.5137 29.4853 21.2329 29.47L22.195 28.9713L22.1935 28.9697Z" fill="#F26E86"/>
<path d="M18.56 29.6833C18.2332 29.7539 17.937 29.981 17.6347 30.1099C17.0225 29.935 16.7708 29.1893 16.7095 28.6138C17.0915 28.5908 17.1606 29.065 17.4567 29.2552C17.7882 29.467 18.2976 29.4102 18.56 29.6818V29.6833Z" fill="#F69594"/>
<path d="M20.0563 24.5552C20.0441 24.5583 20.0717 24.7317 19.9489 24.7685C19.3935 24.9342 19.2446 24.5644 19.2017 24.5552C19.4349 24.4555 19.9106 23.363 20.1637 23.4151C20.5259 23.4903 19.685 24.2882 20.0563 24.5552Z" fill="#A28252"/>
<path d="M19.2014 24.5552C19.2444 24.5644 19.3948 24.9357 19.9487 24.7685C20.0699 24.7317 20.0438 24.5567 20.0561 24.5552C21.6857 24.1839 22.7337 27.7238 22.192 28.9713L21.2299 29.47C21.5107 29.4853 21.7133 29.5467 21.3005 29.6833C20.5042 29.9472 19.4822 29.4823 18.5585 29.6833C18.2961 29.4117 17.7867 29.4684 17.4553 29.2567C17.1591 29.0664 17.0885 28.5923 16.708 28.6153C16.5622 27.2558 17.3463 24.1394 19.1999 24.5552H19.2014Z" fill="#F8A79C"/>
<path d="M18.8808 25.1967C19.8859 25.123 18.3468 27.5781 18.0614 26.5854C17.9341 26.1404 18.4757 25.4023 18.8808 25.1967Z" fill="#F9CBBF"/>
<path d="M51.7477 31.9617C51.6158 31.6824 51.47 31.5857 51.249 31.3924C52.1559 30.1741 53.3926 29.436 54.881 29.1138L54.7736 30.8231C54.3378 30.883 52.7788 32.3038 52.5656 32.3192C52.2188 32.3437 51.7477 31.7729 51.9963 31.3939L51.7477 31.9632V31.9617Z" fill="#9ABF43"/>
<path d="M51.7479 31.9619C51.7909 32.0508 51.797 32.08 51.8185 32.1751C51.6804 32.2672 51.7633 32.5265 51.7479 32.6738C51.6804 33.2845 51.3029 33.4748 50.8227 33.8139C50.5557 34.0011 50.2319 34.1254 50.0033 34.3832C49.5291 34.2313 51.0283 31.6887 51.2492 31.3926C51.4702 31.5859 51.616 31.6826 51.7479 31.9619Z" fill="#A7CE38"/>
<path d="M50.8211 33.8123C51.3029 33.4747 51.6789 33.2844 51.7464 32.6722C52.0272 32.686 51.8553 32.3346 51.817 32.1735C51.7955 32.0768 51.7878 32.0492 51.7464 31.9602L51.995 31.3909C51.7464 31.7715 52.219 32.3423 52.5642 32.3162C52.776 32.3009 54.3365 30.88 54.7723 30.8201L54.8797 29.1108C55.2986 29.0203 57.8181 28.6551 57.9424 29.0034C57.568 33.4133 54.0173 34.9232 50.0017 34.736L49.9312 34.5933L50.8211 33.8092V33.8123Z" fill="#A7CE38"/>
<path d="M55.9844 29.4683C56.5629 29.5082 56.0427 30.0437 55.521 29.6463C55.6192 29.6463 55.9598 29.4667 55.9844 29.4683Z" fill="#C1DB7A"/>
<path d="M51.748 32.6737C51.7649 32.5264 51.682 32.2671 51.8186 32.175C51.8554 32.3362 52.0288 32.6875 51.748 32.6737Z" fill="#C1DB7A"/>
<path d="M29.1016 30.9645C28.6582 31.21 28.4633 31.7578 28.069 32.1046C27.6194 32.5004 27.0501 32.7367 26.5023 32.9592C26.4287 32.9884 26.5023 33.1464 26.4317 33.1725C26.0267 33.3198 25.5234 32.8656 25.1137 33.0298C24.0672 32.0432 24.1531 30.4995 24.7224 29.2551C25.9162 30.2893 27.3524 31.1087 28.9958 30.7512C29.1047 30.8233 29.0832 30.8678 29.1032 30.9645H29.1016Z" fill="#F4C97E"/>
<path d="M29.1017 30.9646C29.5252 33.0668 26.7418 34.5644 25.1138 33.0299C25.5219 32.8658 26.0252 33.3199 26.4318 33.1726C26.504 33.1466 26.4303 32.9885 26.5024 32.9594C27.0502 32.7369 27.6195 32.5006 28.0691 32.1047C28.4634 31.7579 28.6583 31.2101 29.1017 30.9646Z" fill="#CE6E50"/>
<path d="M30.5961 24.2697C31.058 24.9464 32.175 27.1314 32.1628 27.9017C30.9659 26.9595 29.7476 26.0404 28.5308 25.1244C28.7348 24.9817 29.0571 25.5064 29.2074 25.4804C29.2535 25.4727 29.9455 24.9909 29.9547 24.9464C30.0284 24.5904 29.3302 24.3878 29.3133 24.305C29.3041 24.2605 29.7721 23.8723 29.5619 23.4856C29.7138 23.86 29.9685 23.6805 29.9885 23.6989C30.412 24.0825 30.5715 25.4988 30.8431 26.0496C30.9045 25.5786 30.6253 25.0906 30.5224 24.661C30.5132 24.6226 30.4181 24.216 30.593 24.2697H30.5961Z" fill="#51A646"/>
<path d="M25.2545 22.8457C25.8882 23.5362 26.6861 23.9765 27.3198 24.6624L25.2192 25.1258C25.1455 25.112 24.9445 24.2512 24.8279 24.0932C24.7727 24.018 24.7113 24.173 24.6852 24.1285C24.452 23.7264 24.3584 23.5101 24.1865 22.9884C24.3875 22.7398 24.722 22.8871 25.0059 22.7751C25.0765 22.7475 24.7788 22.327 25.2545 22.8457Z" fill="#51A646"/>
<path d="M27.4627 21.6351L27.5701 22.1338C27.4749 22.166 27.1512 22.0095 27.0361 21.9911C26.2213 21.8622 24.9447 21.652 24.2588 21.9205C24.156 21.9604 24.0148 21.9957 23.9028 21.9911C23.8829 21.8515 23.754 21.6121 23.8675 21.4924C25.0904 21.2009 26.2796 21.2101 27.4642 21.6351H27.4627Z" fill="#83C565"/>
<path d="M28.5305 25.1243C29.7473 26.0419 30.9656 26.9595 32.1625 27.9016C32.1609 28.0075 32.1625 28.1149 32.1625 28.2223C32.0382 28.3389 32.0274 28.1855 32.0198 28.187L25.4678 22.9163C25.8989 23.0068 28.0149 24.7361 28.5305 25.1243Z" fill="#C5E2BB"/>
<path d="M25.4681 22.9163L32.0201 28.1871C28.7671 28.6704 25.6538 27.4138 24.6855 24.127C24.7116 24.1715 24.7715 24.0165 24.8282 24.0917C24.9464 24.2498 25.1459 25.1106 25.2195 25.1244L27.3202 24.661C26.6864 23.9751 25.8885 23.5363 25.2548 22.8442C25.3576 22.812 25.3898 22.8995 25.4681 22.9148V22.9163Z" fill="#3E9444"/>
<path d="M30.062 26.6204C30.197 26.6664 30.1464 26.869 30.2047 26.9058C30.7141 27.2234 31.3524 27.5503 31.7008 28.0459C30.8277 28.006 29.8564 28.1226 28.994 27.9753C28.8866 27.9569 27.3952 27.3186 27.3921 27.228C27.7511 27.2204 29.9331 26.579 30.062 26.6219V26.6204Z" fill="#3E9444"/>
<path d="M27.498 25.7658C27.742 25.6492 28.8545 26.5392 28.2821 26.8338C28.3481 26.2676 28.1517 26.7156 27.9967 26.6911C27.5011 26.6144 27.1421 25.9362 27.498 25.7658Z" fill="#51A646"/>
<path d="M27.036 21.9911C26.5604 22.1446 26.0924 22.3517 25.5768 22.3471C25.54 22.3471 25.1088 22.1492 25.0075 22.1339C24.7697 22.0955 24.5365 22.4684 24.2603 21.9206C24.9461 21.652 26.2228 21.8623 27.0376 21.9911H27.036Z" fill="#83C565"/>
<path d="M30.5959 24.2696C30.4195 24.2175 30.5161 24.6225 30.5253 24.6609C30.6282 25.0905 30.9074 25.5785 30.846 26.0496C30.5745 25.5002 30.4149 24.0824 29.9914 23.6988C29.9699 23.6804 29.7167 23.8599 29.5648 23.4855C29.7735 23.8722 29.307 24.2589 29.3162 24.3049C29.3331 24.3862 30.0313 24.5903 29.9576 24.9463C29.9484 24.9908 29.2548 25.4726 29.2103 25.4803C29.06 25.5064 28.7377 24.9816 28.5337 25.1243C28.0181 24.7361 25.9021 23.0083 25.4709 22.9163C25.3927 22.8994 25.3605 22.8134 25.2577 22.8457C24.782 22.327 25.0797 22.7459 25.0091 22.7751C24.7267 22.8871 24.3907 22.7413 24.1897 22.9884C24.1007 22.7168 23.9411 22.2565 23.9043 21.991C24.0163 21.9956 24.159 21.9603 24.2603 21.9204C24.538 22.4697 24.7697 22.0953 25.0075 22.1337C25.1088 22.1506 25.5415 22.347 25.5768 22.347C26.0939 22.3516 26.5604 22.1429 27.0361 21.991C27.1511 22.0094 27.4749 22.1659 27.57 22.1337L27.4626 21.635C28.6733 22.0677 29.8794 23.2231 30.5959 24.2696Z" fill="#75BA6D"/>
<path d="M26.1445 22.419C26.3302 22.2994 26.8764 22.7275 27.1419 22.4896C27.0268 22.7674 27.1803 23.0144 27.3199 23.309C26.8933 23.8982 25.6121 22.7628 26.1445 22.419Z" fill="#75BA6D"/>
<path d="M28.3525 23.131C28.4584 23.0988 29.2993 23.329 29.3146 23.3796C29.1259 23.8675 27.8461 24.5013 28.3172 23.5929C28.1684 23.3888 28.0778 23.6358 28.0686 23.6282C27.86 23.464 28.2819 23.151 28.354 23.1295L28.3525 23.131Z" fill="#83C565"/>
<path d="M37.5761 18.0032C37.7756 18.2226 38.2007 18.241 38.4661 18.4298C39.4589 19.1356 39.3469 20.7513 38.3955 21.4925C37.2355 22.3963 35.7947 21.8347 34.4781 22.2766L33.3028 22.206C32.5954 21.2976 33.025 20.7667 33.694 20.0701C34.5794 19.1463 36.2596 17.9326 37.5761 18.0032Z" fill="#F3DB6E"/>
<path d="M38.1455 19.2139C37.8831 19.9765 36.9394 20.2144 36.2229 20.0686C35.9497 19.6865 36.1615 19.3321 36.5083 19.0712C36.6801 19.6681 37.7005 19.283 37.0775 18.8579C37.4289 18.8426 37.9215 18.8917 38.1455 19.2139Z" fill="#BE6137"/>
<path d="M36.2227 20.0685C36.9392 20.2143 37.8829 19.9765 38.1453 19.2139C38.8435 20.2189 36.6937 20.7283 36.2227 20.0685Z" fill="#923D20"/>
<path d="M37.0776 18.8578C37.7006 19.2828 36.6802 19.668 36.5083 19.0711C36.5559 19.0358 36.6449 18.8854 36.7569 18.8578C36.8367 18.8378 36.9794 18.8624 37.0776 18.8578Z" fill="#E08859"/>
<path d="M33.3027 22.2045L34.4781 22.2751C35.7931 21.8332 37.2339 22.3948 38.3955 21.491C39.3468 20.7499 39.4589 19.1341 38.4661 18.4283C38.1991 18.2395 37.7756 18.2211 37.5761 18.0017C40.6665 18.169 39.9269 23.5195 36.614 23.2003C36.301 23.1697 35.7594 22.9103 35.4034 22.8444C34.6009 22.694 33.892 22.961 33.3027 22.203V22.2045Z" fill="#3E9444"/>
<path d="M34.6914 22.49C35.0842 22.3642 35.2668 22.9073 34.584 22.5974C34.6223 22.5728 34.6607 22.5007 34.6914 22.49Z" fill="#75BA6D"/>
<path d="M44.0911 19.7126C45.4368 19.5591 46.4695 21.8838 45.1591 22.4193C43.6815 23.0239 42.5092 19.8936 44.0911 19.7126Z" fill="#CECB36"/>
<path d="M44.1634 19.9258L44.59 19.9964C45.1516 20.5794 43.8918 20.5027 44.1634 19.9258Z" fill="#CECB36"/>
<path d="M58.4779 35.7365C59.2375 35.5769 61.2997 36.2628 61.0067 37.1957C60.8655 37.6469 57.479 37.3139 57.3747 36.9825C57.2534 36.5988 58.1327 35.8086 58.4779 35.7365Z" fill="#F5D53B"/>
<path d="M58.5483 36.2351C59.1099 36.14 60.0152 36.3594 60.365 36.8412C59.4305 36.5789 58.5943 35.9298 57.7657 36.8765C57.7135 36.5865 58.3565 36.2689 58.5498 36.2351H58.5483Z" fill="#F3DB6E"/>
<path d="M48.3291 31.1777C48.8539 33.5147 48.8907 36.7569 49.1838 39.2258C49.1961 39.3301 49.2314 39.548 49.2544 39.7245C48.6176 39.9086 49.1869 40.7065 49.1117 41.1484C48.3184 41.2605 47.2259 41.5152 46.4771 41.7898L46.3344 31.2499C46.3375 31.2268 46.3313 31.2023 46.3344 31.1793H48.3291V31.1777Z" fill="url(#paint0_linear_345_21659)"/>
<path d="M44.6252 30.7511C44.5546 30.9091 44.6973 31.173 44.6957 31.2498C44.6743 35.115 44.4579 38.9879 44.553 42.8577C44.5254 42.8638 44.2415 43.1339 44.1265 43.2137L44.3398 30.679C44.5131 30.682 44.6098 30.7495 44.6252 30.7495V30.7511Z" fill="#F4C97E"/>
<path d="M48.3292 31.1776H46.3345C46.382 30.8124 46.2439 30.8185 46.6905 30.6789C47.1999 30.6912 47.7124 30.6697 48.2218 30.6789C48.2648 30.705 48.3077 31.084 48.3292 31.1776Z" fill="#F58547"/>
<path d="M46.6905 30.6789C46.244 30.8185 46.3821 30.8124 46.3345 31.1776C46.3314 31.2006 46.3376 31.2251 46.3345 31.2482H44.6973C44.6973 31.1714 44.5561 30.9075 44.6267 30.7495C45.3018 30.7556 46.0031 30.6605 46.692 30.6789H46.6905Z" fill="#F36F37"/>
<path d="M41.4213 29.967C41.4213 30.1143 40.7921 30.6652 40.7446 30.679C40.1477 30.8478 37.9059 30.6283 37.1479 30.6084C37.1832 30.013 37.2399 29.4269 37.2185 28.8285C37.2077 28.517 36.9852 27.1697 37.0052 27.0838C37.0159 27.0347 37.7064 26.4256 37.7524 26.4071C37.8951 26.3504 40.6663 26.2967 40.8152 26.3366C40.8612 26.3488 41.5471 26.8966 41.5624 26.9427C41.6499 27.202 41.3537 29.3348 41.4197 29.9701L41.4213 29.967Z" fill="#FAFCFD"/>
<path d="M42.2759 47.9136C42.8897 48.0302 43.4927 48.3156 44.128 48.3402C44.128 48.4092 44.2354 48.4399 44.1985 48.5535L44.128 48.6241C43.95 49.7104 44.9627 49.4419 45.7652 49.4787V49.8347C43.8671 49.8347 41.966 49.8286 40.0679 49.8347C40.2397 49.4527 40.6417 49.2286 40.852 48.8726C40.9103 48.7744 41.3368 47.7617 41.3507 47.6973C41.4811 47.9366 42.012 47.8599 42.2759 47.9106V47.9136Z" fill="#BE6137"/>
<path d="M47.0466 47.9857C47.0389 48.0379 46.9852 48.2588 46.976 48.2711C46.9652 48.2864 46.6982 48.2941 46.7274 48.5565H44.1987C44.234 48.4429 44.1281 48.4123 44.1281 48.3432C44.1281 47.9734 44.1158 47.5699 44.1987 47.2031C45.1347 47.4763 46.1044 47.7233 47.0466 47.9872V47.9857Z" fill="#EDAB51"/>
<path d="M44.1988 30.6085C44.0576 30.6024 43.4669 30.8556 43.4868 30.5379C43.5666 30.4244 43.5497 29.5912 43.5574 29.3979C43.829 29.025 43.6587 30.004 43.6648 30.0392C43.6924 30.0546 43.9026 29.9518 43.9134 29.9318C44.1712 29.4869 43.7461 26.9121 43.9134 26.2293C43.8259 25.9991 41.7176 25.0385 41.6348 24.4846C41.8266 24.5199 44.1482 26.0144 44.1988 26.1587V30.6101V30.6085Z" fill="#F58547"/>
<path d="M39.2134 25.2672C39.7965 25.2579 41.0578 25.06 41.4567 25.1244C41.5733 25.1429 43.384 26.309 43.4515 26.4057C43.6325 26.6696 43.5788 28.9314 43.5589 29.3963C43.5512 29.5881 43.5666 30.4228 43.4883 30.5364C43.4791 30.5486 43.3916 30.5947 43.3809 30.6791C42.9405 30.765 42.4065 30.5947 41.9922 30.6085C42.1349 29.7998 42.0413 28.9682 42.0628 28.1519C42.0705 27.8972 42.3221 26.9136 42.2761 26.7279C42.2562 26.6451 41.202 25.8794 41.0655 25.838C40.8905 25.7843 37.6421 25.7167 37.4688 25.7674C37.4012 25.7873 36.456 26.6604 36.4361 26.7295C36.2995 27.1944 36.5726 27.7698 36.5788 28.2255C36.5834 28.5769 36.4668 29.9518 36.5082 30.1129C36.0156 30.34 35.6765 30.61 35.1548 30.6821C35.1487 29.852 35.1625 29.0188 35.1548 28.1902C35.1518 27.8419 34.9078 26.8046 35.1195 26.553C35.5691 26.4932 37.0406 25.172 37.2555 25.1291C37.5808 25.0646 38.7531 25.2794 39.2134 25.2718V25.2672Z" fill="#FAFCFD"/>
<path d="M41.0654 25.8364C41.2004 26.2767 41.6224 26.5069 41.9907 26.7263C41.7482 27.6884 41.9769 28.7686 41.848 29.7169C41.759 30.3721 41.6331 30.1696 41.492 30.3936C41.5595 30.2509 41.426 30.0223 41.4214 29.967C41.3554 29.3333 41.65 27.1989 41.5641 26.9396C41.5487 26.8936 40.8629 26.3458 40.8168 26.3335C40.668 26.2952 37.8968 26.3489 37.7541 26.4041C37.7065 26.4225 37.0176 27.0317 37.0068 27.0808C36.9884 27.1667 37.2094 28.5139 37.2201 28.8254C36.8442 28.9282 37.0237 29.8765 36.9347 30.2494C36.6769 30.2478 36.5956 30.4458 36.5082 30.1067C36.4667 29.9471 36.5833 28.5707 36.5787 28.2193C36.5726 27.7651 36.301 27.1897 36.436 26.7233C36.456 26.6557 37.4012 25.7811 37.4687 25.7612C37.6421 25.7121 40.8905 25.7796 41.0654 25.8318V25.8364Z" fill="#F4C97E"/>
<path d="M41.9907 30.6084C41.9585 30.6084 41.5534 30.8877 41.3846 30.8217C41.2726 30.7542 41.4475 30.4642 41.492 30.3951C41.6332 30.1711 41.759 30.3737 41.848 29.7185C41.9769 28.7686 41.7482 27.6899 41.9907 26.7279C41.6209 26.5084 41.2005 26.2783 41.0654 25.8379C41.202 25.8793 42.2561 26.645 42.2761 26.7279C42.3206 26.9135 42.0689 27.8971 42.0628 28.1518C42.0398 28.9681 42.1349 29.7998 41.9922 30.6084H41.9907Z" fill="#F8984D"/>
<path d="M37.22 28.8286C37.2399 29.427 37.1847 30.0147 37.1494 30.6085C36.9346 30.6024 36.4926 30.7865 36.2241 30.6438C36.62 30.383 36.8241 30.719 36.9361 30.2526C37.0251 29.8797 36.8456 28.9299 37.2215 28.8286H37.22Z" fill="#F58547"/>
<path d="M42.2758 47.9138C42.0104 47.8631 41.481 47.9399 41.3506 47.7005C41.3736 47.5885 41.4104 47.3813 41.4212 47.2739C41.8416 47.4903 42.4124 47.2049 42.2758 47.9153V47.9138Z" fill="#D97E2A"/>
<path d="M41.6346 24.483C41.7175 25.0369 43.8258 25.9974 43.9132 26.2276C43.746 26.9104 44.171 29.4867 43.9132 29.9302C43.9025 29.9486 43.6923 30.0514 43.6647 30.0376C43.6585 30.0023 43.8289 29.0249 43.5573 29.3962C43.5772 28.9297 43.6309 26.668 43.4499 26.4056C43.3823 26.3074 41.5732 25.1428 41.4551 25.1244C41.0561 25.0599 39.7948 25.2579 39.2118 25.2671C39.3821 25.1059 38.7069 25.0553 38.6778 25.0538C38.4599 25.0354 37.3214 24.8911 37.2538 24.9111C37.148 24.9433 36.1168 25.7596 35.9005 25.9084C35.6841 26.0573 35.0212 26.2982 34.9031 26.4071C34.633 26.6557 34.9875 27.7436 35.0105 28.2592C35.0427 29.0034 34.9875 29.7568 35.0105 30.5025L34.5118 30.7158C34.7113 30.7158 34.9583 30.7081 35.1532 30.6805C35.6749 30.6069 36.014 30.3368 36.5066 30.1112C36.594 30.4504 36.6769 30.2509 36.9331 30.2539C36.8211 30.7219 36.617 30.3844 36.2212 30.6452C36.4897 30.7879 36.9331 30.6038 37.1464 30.6099C37.9044 30.6299 40.1462 30.8508 40.7431 30.6805C40.7907 30.6667 41.4198 30.1158 41.4198 29.9685C41.4259 30.0253 41.5594 30.2524 41.4904 30.3951C41.4474 30.4642 41.2725 30.7542 41.383 30.8217C41.5502 30.8877 41.9569 30.6084 41.9891 30.6084C42.4034 30.5946 42.9374 30.7649 43.3777 30.679C43.3885 30.5946 43.4759 30.5486 43.4851 30.5363C43.4652 30.8554 44.056 30.6023 44.1971 30.6069C44.2048 30.6069 44.1603 30.6744 44.3398 30.6774L44.1265 43.2122C43.3486 43.7477 42.1487 44.719 42.1318 45.6335C42.1118 46.838 43.1537 46.8963 44.1971 47.2002C44.1143 47.5669 44.125 47.9704 44.1265 48.3402C43.4928 48.3157 42.8883 48.0303 42.2745 47.9137C42.411 47.2032 41.8402 47.4886 41.4198 47.2723C41.5088 46.4069 41.2219 45.0213 40.4577 44.495C39.6936 43.9687 39.0583 44.297 38.2144 44.3523C38.018 44.0055 38.2988 43.2091 38.0011 42.9283C38.463 42.5831 39.1596 42.2332 39.4972 41.7529C40.6618 40.0958 38.842 39.8549 37.9305 41.5749C37.7955 41.4415 37.0851 41.9877 37.0758 42.0383C37.0375 42.2532 37.3612 43.6019 37.3612 44.0684C36.6569 43.9963 35.8207 44.0039 35.2959 44.495C34.8126 44.6852 34.3676 45.3573 34.2279 45.8483C33.7784 47.4196 34.386 48.6533 35.368 49.8363C34.7604 49.844 34.1052 49.7488 33.516 49.7657C33.4316 49.3269 33.229 48.7039 33.2306 48.2697C33.2306 48.0533 33.3564 47.751 33.3733 47.5577C33.3932 47.3122 33.6111 46.7398 33.5866 46.525C33.5773 46.4452 33.2428 46.2012 33.3012 45.813C33.3134 45.7317 33.5651 45.388 33.5866 45.2438C33.6725 44.6622 33.6525 43.45 33.0879 43.071C32.3544 42.5785 32.0383 43.1263 31.6639 43.6403C31.733 43.2644 31.5949 42.6981 31.6639 42.3222C31.8787 41.1637 32.5125 41.1008 32.0905 39.5096C31.8956 38.7777 31.5197 38.3496 30.9504 37.8724C30.5699 37.5517 30.1694 37.3307 29.7397 37.0883L30.309 30.7849C30.4272 30.5194 32.9191 30.7849 33.3364 30.6774C33.4009 30.6606 34.4151 29.9916 34.4397 29.9302C34.6714 29.341 34.1512 27.001 34.297 26.2276C34.8586 26.0558 36.548 24.4983 36.8963 24.4108C37.2446 24.3234 38.2466 24.5551 38.6762 24.5535C39.4358 24.5505 41.0132 24.3679 41.6316 24.483H41.6346Z" fill="url(#paint1_linear_345_21659)"/>
<path d="M33.2673 32.0322C33.3501 33.1063 33.8135 33.2137 33.8734 32.1396C34.6989 33.2398 32.5077 33.3718 33.2673 32.0322Z" fill="#D18930"/>
<path d="M39.2131 25.267C38.7513 25.2746 37.5805 25.0598 37.2552 25.1243C37.0404 25.1672 35.5673 26.4884 35.1193 26.5482C34.9075 26.7999 35.1515 27.8387 35.1546 28.1855L35.0119 28.256C34.9904 27.7405 34.6344 26.6541 34.9045 26.404C35.0226 26.295 35.6962 26.0465 35.9018 25.9053C36.1182 25.7565 37.1493 24.9401 37.2552 24.9079C37.3242 24.8864 38.4613 25.0322 38.6791 25.0506C38.7083 25.0537 39.3835 25.1043 39.2131 25.2639V25.267Z" fill="#FBC15D"/>
<path d="M35.1546 28.187C35.1622 29.0171 35.1484 29.8503 35.1546 30.6789C34.9612 30.7065 34.7127 30.7157 34.5132 30.7142L35.0119 30.5009C34.9889 29.7552 35.0441 29.0018 35.0119 28.2576L35.1546 28.187Z" fill="#F58547"/>
<path d="M41.386 32.1045C41.8248 32.6001 41.4704 33.2354 40.8167 32.9592C40.6326 32.7075 40.5651 32.5203 40.7093 32.2119L40.9226 32.8533C41.4734 33.1141 41.2939 32.1597 41.386 32.106V32.1045Z" fill="#BE7839"/>
<path d="M33.8364 30.9644C34.0175 31.0273 33.9622 32.0323 33.907 32.0323C33.818 31.6825 33.9208 31.3127 33.8364 30.9644Z" fill="#ECBC2E"/>
<path d="M46.3344 31.2498L46.4771 41.7897C46.095 41.9294 45.828 42.0874 45.4797 42.2884C45.1882 42.4572 44.869 42.6229 44.625 42.8577C44.602 42.8608 44.5759 42.8531 44.5544 42.8577C44.4593 38.9879 44.6741 35.115 44.6971 31.2498H46.3344Z" fill="url(#paint2_linear_345_21659)"/>
<path d="M46.9759 48.2698C47.3626 48.6856 48.1927 48.3511 48.5778 48.4831C48.6331 48.5015 49.1195 49.0984 49.4325 49.2672C49.7854 49.4574 50.6309 49.7045 51.0345 49.7658C49.2852 49.8963 47.5175 49.8364 45.7637 49.8364V49.4804C46.3759 49.5081 47.0465 49.5188 47.651 49.4099C47.4408 49.3623 46.7089 49.4758 46.5831 49.4099C46.5585 49.3976 46.4388 48.9419 46.3698 48.9112C46.0706 48.7807 44.55 48.7761 44.1265 48.6258L44.197 48.5552H46.7258C46.6982 48.2928 46.9636 48.2851 46.9744 48.2698H46.9759Z" fill="#E3974B"/>
<path d="M45.7651 49.4804C44.961 49.4436 43.9483 49.7121 44.1278 48.6257C44.5514 48.7761 46.072 48.7807 46.3712 48.9111C46.4402 48.9418 46.5615 49.3975 46.5845 49.4098C46.7103 49.4758 47.4422 49.3623 47.6524 49.4098C47.0479 49.5188 46.3773 49.508 45.7651 49.4804Z" fill="#E08859"/>
<path d="M41.4215 47.2726C41.4107 47.3815 41.3739 47.5871 41.3509 47.6992C41.3371 47.7621 40.9105 48.7748 40.8522 48.8745C40.6435 49.229 40.2399 49.4545 40.0681 49.8366C39.9499 49.8366 39.8303 49.8366 39.7121 49.8366V49.6939C39.7627 49.6755 40.4011 48.9236 40.4241 48.8745C40.4808 48.7579 40.2691 48.764 40.2814 48.7318C40.4594 48.2592 40.955 47.9738 40.2108 47.7697C40.4548 46.7555 40.4993 45.8885 39.7121 45.1351C39.1229 44.5705 38.9679 44.6809 38.1807 44.6364C37.949 44.7377 37.8907 45.9514 38.2882 45.6338C38.1439 46.22 38.5889 47.0946 38.4309 47.6639C38.4155 47.7206 37.8048 48.5063 37.7189 48.5891C37.7081 48.4142 37.7956 48.0505 37.5409 48.0551C37.2325 48.6121 36.2243 48.3482 36.0816 48.8392C35.876 48.5155 35.2132 48.0597 35.5124 47.558C35.985 47.9477 37.2938 47.9293 37.435 47.1667C37.5087 46.7662 37.2524 45.0845 36.5803 45.2088C36.7215 45.1244 37.1603 44.6533 37.2923 44.4968C37.4672 44.4845 37.633 44.4416 37.791 44.4262C37.949 44.4109 38.0672 44.3648 38.2176 44.3556C39.0615 44.3004 39.709 43.9797 40.4609 44.4983C41.2128 45.017 41.5105 46.4102 41.423 47.2756L41.4215 47.2726Z" fill="#EB3F4A"/>
<path d="M34.7266 45.9912C34.3384 46.6111 34.6192 48.0811 35.1532 46.8459C35.2821 47.0791 35.2775 47.3676 35.5092 47.5578C35.2115 48.0596 35.8729 48.5168 36.0785 48.8391C36.1153 48.8974 36.2089 49.2135 36.2212 49.2304C36.3577 49.4176 36.4268 49.1874 36.5066 49.3009C36.5219 49.3224 36.6033 49.7674 36.5772 49.8349C36.1751 49.838 35.7685 49.8303 35.3665 49.8349C34.3845 48.6519 33.7768 47.4182 34.2264 45.8469C34.4735 45.8439 34.4842 46.1876 34.7251 45.9896L34.7266 45.9912Z" fill="#EC6757"/>
<path d="M38.0024 42.9285C37.9886 42.9162 37.694 42.8994 37.6465 42.8579L39.3558 40.6852L37.5759 42.6431C37.5421 42.3454 37.7907 41.8421 37.9319 41.5752C38.8433 39.8551 40.6631 40.096 39.4985 41.7532C39.1609 42.2319 38.4643 42.5833 38.0024 42.9285Z" fill="#3E9444"/>
<path d="M37.9321 41.5751C37.7909 41.8421 37.5423 42.3469 37.5761 42.6431C37.5899 42.7581 37.5392 42.7612 37.6467 42.8563C37.6942 42.8978 37.9888 42.9146 38.0026 42.9269C38.3003 43.2077 38.0195 44.0041 38.2159 44.3509C38.064 44.3601 37.9397 44.4076 37.7894 44.4215C37.6206 44.5181 37.3843 44.2803 37.3628 44.2787V44.0655C37.3628 43.599 37.039 42.2502 37.0774 42.0354C37.0866 41.9863 37.797 41.4401 37.9321 41.572V41.5751Z" fill="#D18930"/>
<path d="M37.3614 44.2818C37.3844 44.2834 37.6192 44.5212 37.788 44.4245C37.6299 44.4399 37.4642 44.4828 37.2893 44.4951C37.0576 44.512 36.5205 44.334 36.3272 44.4245C36.1553 44.5043 36.2581 44.6915 36.2198 44.7805C36.0249 44.5166 35.1871 45.0337 35.1518 45.1718C35.1043 45.3559 35.2822 45.3897 35.2945 45.4925C35.2991 45.5385 35.2915 45.5876 35.2945 45.6352C35.1503 45.58 34.7682 45.9221 34.7253 45.9912C34.4843 46.1907 34.4736 45.8454 34.2266 45.8485C34.3662 45.359 34.8127 44.6854 35.2945 44.4951C35.6306 44.3632 36.9655 44.2481 37.3599 44.2818H37.3614Z" fill="#F58547"/>
<path d="M37.3612 44.0686V44.2819C36.9669 44.2481 35.6319 44.3632 35.2959 44.4952C35.8207 44.0026 36.6569 43.9949 37.3612 44.0686Z" fill="#F3DB6E"/>
<path d="M39.7121 45.1365C40.4992 45.8914 40.4547 46.7584 40.2108 47.7711C40.0343 48.5045 39.6292 49.0953 39.0707 49.5878C39.0891 49.7213 39.6261 49.7244 39.7121 49.6953V49.838C38.6687 49.8426 37.6222 49.8288 36.5788 49.838C36.6049 49.7704 36.5235 49.3255 36.5082 49.304C36.4299 49.1904 36.3593 49.4206 36.2228 49.2334C36.2105 49.2165 36.1169 48.8989 36.0801 48.8421C36.2228 48.3526 37.2309 48.6166 37.5393 48.058C37.794 48.055 37.7066 48.4171 37.7173 48.592C37.8032 48.5091 38.4139 47.7235 38.4293 47.6667C38.5873 47.0975 38.1423 46.2244 38.2866 45.6367C38.4584 44.9401 39.198 45.2193 39.7105 45.138L39.7121 45.1365Z" fill="#DD242D"/>
<path d="M35.5108 47.558C35.2791 47.3677 35.2837 47.0793 35.1548 46.846C35.3865 46.312 35.3251 46.1586 35.2975 45.6354C35.2944 45.5893 35.3021 45.5387 35.2975 45.4927C35.5031 45.5893 35.7962 45.4037 35.9389 45.2794C36.0678 45.4451 36.4498 45.2855 36.5803 45.2088C37.2508 45.086 37.5086 46.7662 37.4349 47.1667C37.2938 47.9309 35.9849 47.9477 35.5123 47.558H35.5108Z" fill="#F26D6E"/>
<path d="M39.7122 49.6937C39.6278 49.7229 39.0892 49.7198 39.0708 49.5863C39.6278 49.0937 40.0344 48.5045 40.2109 47.7695C40.9566 47.9721 40.461 48.2575 40.2815 48.7316C40.2692 48.7638 40.4809 48.7562 40.4242 48.8743C40.4011 48.9234 39.7628 49.6753 39.7122 49.6937Z" fill="#DD242D"/>
<path d="M39.7119 45.1366C39.1994 45.218 38.4598 44.9387 38.2879 45.6353C37.8905 45.9545 37.9503 44.7392 38.1805 44.6379C38.9661 44.6824 39.1227 44.572 39.7119 45.1366Z" fill="#EB3F4A"/>
<path d="M37.2909 44.4951C37.1589 44.6517 36.7185 45.1227 36.5789 45.2071C36.45 45.2838 36.0679 45.445 35.9375 45.2777C36.295 44.9647 36.1078 45.0475 36.2229 44.779C36.2613 44.69 36.1569 44.5028 36.3303 44.423C36.5221 44.3325 37.0607 44.5105 37.2924 44.4936L37.2909 44.4951Z" fill="#EC6757"/>
<path d="M35.296 45.6352C35.3236 46.1584 35.385 46.3118 35.1533 46.8458C34.6178 48.081 34.337 46.6111 34.7267 45.9911C34.7697 45.9221 35.1518 45.5799 35.296 45.6352Z" fill="#F7B9AB"/>
<path d="M37.6467 42.858C37.5393 42.7628 37.5884 42.7582 37.5761 42.6447L39.356 40.6868L37.6467 42.8595V42.858Z" fill="#99C995"/>
<path d="M36.2226 44.7805C36.1075 45.049 36.2947 44.9646 35.9372 45.2791C35.7945 45.405 35.5014 45.5906 35.2958 45.4924C35.2835 45.3896 35.1055 45.3559 35.1531 45.1717C35.1884 45.0336 36.0262 44.5165 36.221 44.7805H36.2226Z" fill="#F8A79C"/>
<path d="M47.0466 24.2698C45.7025 27.1821 49.7779 29.051 51.2479 26.6205C51.231 26.909 51.6637 26.4625 51.6745 26.4425C52.0427 25.7566 51.8831 24.7991 51.745 24.0565C52.0642 24.6887 52.1839 24.9326 52.101 25.6937C52.0182 26.4548 51.4136 27.354 50.783 27.759C50.0971 28.1994 49.3145 28.2807 48.5396 28.1856C46.5602 27.6041 45.6764 25.5602 46.8303 23.7695C46.8395 24.104 46.574 24.1439 47.0436 24.2682L47.0466 24.2698Z" fill="#EC6757"/>
<path d="M51.7482 24.0565C51.8863 24.7991 52.0459 25.7566 51.6776 26.4425C51.6669 26.4625 51.2327 26.909 51.2511 26.6205C53.0939 23.5747 48.3986 21.3482 47.0498 24.2698C46.5803 24.1455 46.8457 24.1071 46.8365 23.7711C47.1588 23.2709 47.5071 22.9486 48.0472 22.7031C49.6 22.3134 50.9779 22.5251 51.7498 24.0565H51.7482Z" fill="#F58876"/>
<path d="M52.4599 25.7659C52.2911 27.7668 50.3485 28.7181 48.5425 28.1872C49.3174 28.2808 50.0999 28.1995 50.7858 27.7607C51.4165 27.3556 52.021 26.4441 52.1039 25.6953L52.4599 25.7659Z" fill="#AA1F23"/>
<path d="M52.46 25.7658L52.104 25.6952C52.1868 24.9326 52.0671 24.6902 51.748 24.058C50.9746 22.5266 49.5983 22.3149 48.0454 22.7046C50.1767 21.7318 52.664 23.3598 52.4615 25.7673L52.46 25.7658Z" fill="#DD242D"/>
<path d="M51.2495 26.6206C49.778 29.0511 45.7026 27.1837 47.0483 24.2699C48.397 21.3483 53.0939 23.5748 51.2495 26.6206Z" fill="#EB3F4A"/>
<path d="M48.7211 24.6981C48.7334 24.6889 48.9022 24.9052 48.9344 24.9114C49.4085 24.9957 49.4024 24.7011 49.4331 24.6981C49.7446 24.6628 49.7814 25.8013 49.6464 25.8381C49.5558 25.8627 48.9773 25.6816 48.6843 25.9456C48.6459 25.7522 48.5999 24.7917 48.7196 24.6996L48.7211 24.6981Z" fill="#F58876"/>
<path d="M49.2198 25.9087C49.2949 26.3552 49.4453 26.9628 49.2903 27.4048C49.2044 26.9429 49.1062 26.3706 49.2198 25.9087Z" fill="#EC6757"/>
<path d="M50.9292 25.5528C50.9921 25.5114 51.1992 25.5589 51.2498 25.6602C51.1256 25.7645 50.7481 25.6755 50.9292 25.5528Z" fill="#F36F37"/>
<path d="M47.9384 26.4779C48.19 26.4257 47.9046 26.7802 47.8678 26.7633C47.7742 26.7203 47.854 26.4963 47.9384 26.4779Z" fill="#F58547"/>
<path d="M47.796 25.3379C47.9448 25.3533 48.1259 25.2996 48.2594 25.3732C48.2594 25.4055 47.7883 25.476 47.796 25.3379Z" fill="#F29D6B"/>
<path d="M47.7236 24.1995C47.851 24.2961 47.9829 24.29 47.8663 24.4849L47.7236 24.1995Z" fill="#F29D6B"/>
<path d="M50.9291 25.1966C51.1715 25.0693 51.2482 25.37 50.9996 25.3393C50.9843 25.3378 50.8585 25.2335 50.9291 25.1966Z" fill="#F58876"/>
<path d="M50.4304 25.4805C50.501 25.4882 50.748 25.4544 50.7511 25.5158C50.7127 25.5634 50.3752 25.6033 50.4304 25.4805Z" fill="#F58547"/>
<path d="M48.5076 23.5579C48.6518 23.5288 48.6472 23.739 48.5782 23.7712C48.5506 23.785 48.3987 23.5794 48.5076 23.5579Z" fill="#EFAA8F"/>
<path d="M48.8637 23.4153C48.9358 23.4383 48.9235 23.6807 48.7931 23.6286C48.6857 23.5871 48.8391 23.4076 48.8637 23.4153Z" fill="#F8A79C"/>
<path d="M48.7211 27.1194L48.7564 27.2253L48.6505 27.2621L48.6152 27.2253L48.7211 27.1194Z" fill="#EFB274"/>
<path d="M50.9995 24.5554L51.0716 24.626V24.6981H50.9995V24.5554Z" fill="#F29D6B"/>
<path d="M16.923 34.2405C16.9046 34.3387 16.8525 34.3064 16.8525 34.311C16.4044 34.555 15.7385 34.4246 15.3211 34.5243C15.1861 34.5565 15.0495 34.7683 14.9298 34.8097C14.7902 34.0824 14.5569 33.4794 14.2178 32.7797C14.0782 32.4912 13.5995 31.589 13.4337 31.3557C13.268 31.1225 13.3263 31.1087 13.0778 31.2483C13.0333 31.035 13.0578 30.7665 12.9351 30.5716C13.0563 30.4289 13.0348 30.4612 13.1483 30.5716C13.5412 30.9522 13.9248 32.1107 14.2516 32.6017L14.003 30.7849L14.1457 30.7143L14.893 32.3884L14.9636 30.6791C15.1078 30.8463 15.516 32.617 15.6403 32.4958L15.9257 31.7117L16.1742 33.1004L16.6008 31.747L16.7435 32.9577L17.4555 31.8176C17.3297 32.6416 17.0642 33.4825 16.9215 34.2389L16.923 34.2405Z" fill="#3E9444"/>
<path d="M14.9282 34.8097C14.5354 34.9417 14.25 34.7591 13.9308 35.2731L14.3221 35.3084C14.3236 35.6721 14.072 35.1903 13.716 35.5217L11.3652 33.4917C11.4573 33.2891 12.5207 34.0057 12.6112 34.1683C12.8951 34.2159 11.7841 33.0068 12.0419 32.8871L13.2173 33.7771L12.47 31.6764L13.538 32.9577C13.6699 32.9208 13.1037 31.3895 13.0746 31.2483C13.3232 31.1087 13.2664 31.124 13.4306 31.3557C13.5948 31.5874 14.0735 32.4912 14.2147 32.7797C14.5538 33.4778 14.787 34.0824 14.9266 34.8097H14.9282Z" fill="#83C565"/>
<path d="M15.4266 38.0858C15.31 38.2439 15.2962 38.7334 15.5341 38.7978C15.5755 38.8085 16.332 38.4188 16.2813 38.7625C16.243 39.028 15.3576 38.784 15.5694 39.6172C15.6568 39.7369 16.5207 39.5174 16.6373 39.3686C16.6741 39.5236 16.6849 39.5681 16.7079 39.7246C16.2752 39.7768 15.663 39.7568 15.9606 40.2939C15.8394 40.343 15.732 39.9041 15.5694 39.8673C15.4374 39.6417 15.5908 39.5006 15.2134 39.5113C15.3607 38.8484 14.1162 39.229 13.9321 38.9773C13.7173 38.6843 14.6334 38.873 14.5735 38.764L14.5029 38.1579C14.7423 38.1718 15.1428 37.8173 15.4282 38.0874L15.4266 38.0858Z" fill="#F3DB6E"/>
<path d="M16.6373 39.3685C16.5207 39.5173 15.6568 39.7383 15.5693 39.6171C15.3576 38.7839 16.243 39.0279 16.2813 38.7624C16.332 38.4187 15.5755 38.81 15.534 38.7977C15.2962 38.7333 15.3116 38.2438 15.4266 38.0857C15.6461 37.7865 15.8241 37.8924 16.1386 37.7297C16.3949 37.9584 16.2353 38.253 16.6373 38.3358C16.2752 38.678 16.5069 38.8284 16.6373 39.3685Z" fill="#F5D53B"/>
<path d="M16.1386 37.7297C15.8241 37.8923 15.6461 37.7864 15.4266 38.0857C15.1397 37.8171 14.7392 38.1716 14.5014 38.1562C14.4538 38.1532 13.8738 37.9123 13.7173 37.9077C13.7234 37.7604 14.308 37.7358 14.4293 37.7297C14.8282 37.7067 15.0737 37.8908 15.1059 37.8724C15.1888 37.8233 15.0952 37.6315 15.1765 37.587C15.2149 37.567 15.9898 37.5056 16.0312 37.5164C16.1447 37.544 16.1294 37.722 16.1386 37.7297Z" fill="#F6ED96"/>
<path d="M18.9884 41.1486C18.7935 41.1087 18.8718 41.2529 18.8457 41.2913C18.6646 41.5644 18.3163 41.6825 17.991 41.7178C17.9526 41.6212 17.9419 41.2621 17.9204 41.2191C18.0002 40.854 18.2687 40.9061 18.5618 40.7205C18.8457 40.9445 18.8319 40.9859 18.9884 41.147V41.1486Z" fill="#CFA62B"/>
<path d="M16.7098 39.7244C16.7252 39.8242 16.9308 39.904 16.8525 40.1157C16.8188 40.2062 16.0546 40.5254 15.9626 40.507C15.7493 40.4671 15.6618 40.0206 15.5713 39.8656C15.7339 39.904 15.8413 40.3428 15.9626 40.2922C15.6649 39.7551 16.2787 39.7751 16.7098 39.7229V39.7244Z" fill="#F5D53B"/>
<path d="M18.4188 40.3644C18.4172 40.3767 18.2868 40.5654 18.2761 40.5777C18.2316 40.6345 17.9416 40.7174 17.8848 40.8631C17.5227 40.7772 17.7221 40.5286 17.4214 40.3291C17.6945 40.1604 17.9492 39.9885 18.2055 39.7952C18.3482 39.9317 18.4525 40.168 18.4188 40.3644Z" fill="#F5D53B"/>
<path d="M17.136 36.8751C17.0501 37.1513 16.4946 37.4428 16.3887 37.3738C16.3626 37.3569 16.1954 36.8736 16.1401 36.8045C16.3933 36.6848 16.6158 36.5222 16.8521 36.3779L17.1375 36.8766L17.136 36.8751Z" fill="#F5D53B"/>
<path d="M18.8454 39.4392C19.0111 39.7522 18.9973 39.9671 18.7748 40.2233C18.7319 40.2724 18.7426 40.3292 18.6321 40.366C18.5815 40.3829 18.4848 40.3553 18.4189 40.366C18.4526 40.1681 18.3467 39.9318 18.2056 39.7967C18.3452 39.6909 18.7227 39.5451 18.847 39.4407L18.8454 39.4392Z" fill="#CFA62B"/>
<path d="M15.4991 36.0205C15.6249 36.6757 15.8121 36.3964 16.1405 36.8046C16.1973 36.8752 16.363 37.357 16.3891 37.3739C16.4965 37.4429 17.0504 37.1514 17.1363 36.8752C17.1578 36.8061 17.098 36.5223 17.1716 36.5192C17.2514 37.1667 17.4893 36.9396 17.8836 36.6619C18.0601 36.6389 17.9619 36.8184 17.991 36.8752C17.2299 37.1759 17.9772 37.6347 17.635 38.0506C17.7823 38.1718 17.9573 37.891 17.991 37.8726C18.0846 37.8219 18.2243 37.6593 18.2396 37.6593C18.2826 37.6577 18.3854 37.8388 18.4176 37.8726C18.3117 38.2347 17.6396 38.2071 17.5982 38.2285C17.523 38.2669 17.6028 38.405 17.5276 38.4418C16.986 38.7058 16.5057 38.3759 17.0289 39.3671C17.4079 39.3732 17.7639 38.8132 17.813 38.7978C17.8514 38.7855 18.1061 39.163 18.4897 38.6551C18.7107 38.6106 18.5557 38.8439 18.525 38.8684C18.1629 39.1738 17.856 38.8991 18.169 39.5098C18.347 39.6264 19.3214 38.5416 19.3444 38.9037C19.2293 39.2213 19.0421 39.0863 18.8457 39.2597C18.8257 39.2766 18.8626 39.4239 18.8457 39.4377C18.7214 39.542 18.3439 39.6878 18.2043 39.7937C17.9481 39.9885 17.6933 40.1589 17.4202 40.3276C17.7194 40.5271 17.5215 40.7757 17.8836 40.8616C17.9404 40.7174 18.2319 40.633 18.2749 40.5762C18.5496 40.3629 18.5357 40.7005 18.5603 40.7189C18.2688 40.9046 17.9987 40.8524 17.9189 41.2176C17.9128 41.2053 17.7455 41.1348 17.7409 41.0043L17.6335 41.1117C17.589 41.5153 17.7547 41.8145 17.7762 42.215C17.6611 42.2042 17.5338 42.2303 17.4202 42.215C16.9998 42.1567 16.6208 41.8298 16.4228 41.7884L16.1743 41.4324C16.1743 41.7393 15.9564 41.7362 15.8536 41.859C15.7231 42.017 15.8259 42.1475 15.7462 42.215C15.6664 42.2825 15.3257 42.0416 15.2828 42.2503C15.2352 42.482 15.6065 42.3822 15.9241 42.4283C15.7722 42.6922 15.315 42.4989 15.1401 42.571C14.8807 42.284 14.6045 41.9342 14.2854 41.7163C14.3253 41.0657 14.0706 40.2739 13.9294 39.5804C14.1642 39.5129 14.4526 39.6494 14.6414 39.651C14.5539 40.1957 15.4239 39.8305 15.5666 39.8642C15.6572 40.0192 15.7446 40.4657 15.9579 40.5056C16.05 40.5225 16.8141 40.2049 16.8479 40.1144C16.9261 39.9026 16.7205 39.8213 16.7052 39.7231C16.6822 39.5666 16.6714 39.5221 16.6346 39.3671C16.5042 38.827 16.2725 38.6766 16.6346 38.3344C16.2326 38.2531 16.3921 37.957 16.1359 37.7283C16.1267 37.7207 16.142 37.5411 16.0285 37.515C15.9871 37.5043 15.2122 37.5657 15.1738 37.5856C15.0925 37.6286 15.1846 37.8204 15.1032 37.871C15.071 37.8894 14.8255 37.7068 14.4265 37.7283C14.3959 37.1161 14.1473 37.2649 13.7852 36.9811C13.8158 36.8844 14.738 36.8629 14.8178 36.8031C14.8899 36.7494 14.6444 36.3658 15.1385 36.0911C15.1646 36.0757 15.4178 36.0589 15.4945 36.0205H15.4991Z" fill="#F3DB6E"/>
<path d="M18.4894 38.6568C18.1058 39.1632 17.8511 38.7873 17.8128 38.7995C17.7637 38.8149 17.4077 39.3765 17.0287 39.3688C16.5054 38.3776 16.9857 38.7059 17.5274 38.4435C17.6025 38.4067 17.5227 38.2686 17.5979 38.2303C17.6394 38.2088 18.3114 38.2364 18.4173 37.8743C18.6245 38.0937 18.6981 38.3806 18.4879 38.6584L18.4894 38.6568Z" fill="#ECBC2E"/>
<path d="M17.8129 39.2261C18.0155 39.3212 18.1091 39.4654 18.0615 39.6895C17.724 39.6849 17.4769 40.182 17.2421 40.0102C16.8232 39.3427 17.4309 39.5928 17.8114 39.2261H17.8129Z" fill="#F5D53B"/>
<path d="M17.9912 37.8726C17.9574 37.891 17.7825 38.1718 17.6352 38.0506C17.9774 37.6363 17.2301 37.176 17.9912 36.8752C18.0572 37.0026 17.9989 37.2205 18.2045 37.2665L17.9912 37.8726Z" fill="#CFA62B"/>
<path d="M15.5696 39.8673C15.4254 39.8335 14.5569 40.1972 14.6444 39.654C14.9558 39.6571 15.1845 39.5128 15.2136 39.5113C15.5911 39.5006 15.4377 39.6433 15.5696 39.8673Z" fill="#F6ED96"/>
<path d="M16.4243 41.7901C16.3966 41.7839 15.9409 41.9036 15.855 41.8607C15.9578 41.7364 16.1757 41.7394 16.1757 41.4341L16.4243 41.7901Z" fill="#CFA62B"/>
<path d="M17.1008 41.718C17.1914 41.6965 17.4016 41.7057 17.4921 41.7533C17.3264 41.9113 17.0978 41.9681 16.9229 41.8239C16.9766 41.8177 17.0748 41.7226 17.1008 41.7165V41.718Z" fill="#CFA62B"/>
<path d="M19.0588 41.434C19.0173 41.4616 19.1723 41.5245 19.094 41.5767C18.9345 41.6825 18.3345 41.7777 18.2747 42.0032C17.8941 41.9495 18.0783 41.9419 17.9893 41.7178C18.3146 41.681 18.6629 41.5629 18.8439 41.2913L19.0572 41.434H19.0588Z" fill="#F3DB6E"/>
<path d="M19.6298 38.6566C19.8216 39.0264 20.2052 39.4407 20.4139 39.8673C20.5044 40.0514 20.5842 40.4396 20.6993 40.6514C20.6885 40.6652 20.71 40.7036 20.6993 40.722L20.308 40.0806C20.2712 40.0959 20.2466 40.2478 20.2006 40.2939C20.1085 40.3875 19.7817 40.6575 19.774 40.6851C19.7341 40.8033 19.9137 40.8524 19.9167 40.8631C19.9459 40.9583 20.1776 41.5015 20.2374 41.5045L20.7008 40.7926C20.6947 40.9046 20.8098 40.8463 20.8435 40.8631C20.7944 41.4155 21.1596 41.8912 21.2701 42.4298C20.9386 42.2073 19.7679 41.7991 19.3827 41.7884C19.0452 41.7792 18.6217 42.0508 18.2795 42.0017C18.3393 41.7761 18.9393 41.681 19.0989 41.5751C19.1771 41.5229 19.0221 41.46 19.0636 41.4324C19.2278 41.3219 19.8047 41.3219 19.705 40.8984C19.3091 40.8739 19.3306 41.4938 18.993 41.147C18.8349 40.9859 18.8503 40.9429 18.5664 40.7204C18.5434 40.702 18.5557 40.3644 18.281 40.5777C18.2918 40.5639 18.4207 40.3767 18.4237 40.3644C18.4897 40.3537 18.5864 40.3813 18.637 40.3644C18.683 41.1163 20.0686 39.3456 18.7797 40.2217C19.0037 39.9655 19.0175 39.7507 18.8503 39.4377C18.8672 39.4238 18.8303 39.2765 18.8503 39.2597C19.0467 39.0863 19.2339 39.2213 19.349 38.9037C19.326 38.5415 18.3531 39.6249 18.1736 39.5098C17.8621 38.9006 18.1675 39.1753 18.5296 38.8684C18.5603 38.8423 18.7153 38.6106 18.4943 38.6551C18.703 38.3789 18.6309 38.0904 18.4237 37.871C18.3915 37.8372 18.2887 37.6546 18.2457 37.6577C18.2288 37.6577 18.0892 37.8219 17.9972 37.871L18.2104 37.2649C18.0033 37.2189 18.0631 36.9994 17.9972 36.8736C17.968 36.8169 18.0677 36.6373 17.8897 36.6603C17.4954 36.9381 17.2576 37.1667 17.1778 36.5176C17.1041 36.5207 17.164 36.8046 17.1425 36.8736L16.8571 36.3749C16.8678 36.3673 16.8248 36.2767 16.8924 36.2322C16.9261 36.2092 17.4847 36.3918 17.4263 35.841C17.2391 35.9852 16.9875 36.0082 16.785 36.0895L16.5717 35.5203C16.7389 35.4036 17.2085 35.2778 17.0704 35.0569C16.9722 34.9004 16.3292 35.6123 16.3584 35.0216C16.8233 35.063 16.2755 34.8482 16.5364 34.595C17.2852 35.0108 16.7113 34.5643 16.7144 34.4876C16.7144 34.46 16.8433 34.4017 16.8571 34.3096C16.8571 34.305 16.9092 34.3357 16.9277 34.239C18.2074 35.2763 19.0053 36.6956 19.6344 38.1917C19.6451 38.2178 19.4579 38.3129 19.6344 38.6551L19.6298 38.6566Z" fill="#CFA62B"/>
<path d="M20.6977 40.722C20.6869 40.7404 20.7069 40.7741 20.6977 40.7925L20.2343 41.5045C20.1744 41.5014 19.9427 40.9583 19.9136 40.8631C20.4383 40.9352 20.3954 40.656 20.199 40.2939C20.245 40.2478 20.2696 40.0959 20.3064 40.0806L20.6977 40.722Z" fill="#CFA62B"/>
<path d="M18.2763 36.3765C18.2302 36.4486 18.155 36.5606 18.063 36.5898C18.043 36.5699 17.8988 36.6282 17.8497 36.5545C17.8297 36.5254 17.6471 35.9147 17.6717 35.8778C18.1397 35.8241 18.6108 35.864 18.2778 36.3765H18.2763Z" fill="#CFA62B"/>
<path d="M18.6323 40.3646C18.7428 40.3277 18.7321 40.271 18.775 40.2219C20.0655 39.3457 18.6784 41.1164 18.6323 40.3646Z" fill="#F5D53B"/>
<path d="M19.9137 40.8632C19.9107 40.8525 19.7327 40.8034 19.771 40.6852C19.7802 40.6576 20.1055 40.3875 20.1976 40.2939C20.394 40.6561 20.437 40.9369 19.9122 40.8632H19.9137Z" fill="#DBC026"/>
<path d="M19.2366 37.9431C19.5036 38.1763 19.0786 38.2914 19.0586 38.3344C19.0402 38.3728 19.4699 38.9758 18.7026 38.4771L19.2366 37.9431Z" fill="#F5D53B"/>
<path d="M19.059 41.4341L18.8457 41.2914C18.8718 41.253 18.792 41.1088 18.9884 41.1487C19.326 41.4955 19.3045 40.8756 19.7004 40.9001C19.8001 41.3236 19.2232 41.3236 19.059 41.4341Z" fill="#F5D53B"/>
<path d="M19.6651 39.5819C19.9382 39.5727 19.8906 40.0791 19.6651 40.0806C19.3229 40.0806 19.3919 39.5911 19.6651 39.5819Z" fill="#F5D53B"/>
<path d="M18.063 36.5913C18.1551 36.5622 18.2302 36.4486 18.2763 36.378C18.6169 36.3704 18.4328 36.7647 18.3116 36.8767C18.1244 36.909 18.0753 36.6051 18.063 36.5913Z" fill="#F5D53B"/>
<path d="M18.6676 37.374C19.0297 37.3433 18.798 37.822 18.597 37.8005C18.3316 37.7729 18.5264 37.3847 18.6676 37.374Z" fill="#F5D53B"/>
<path d="M16.8526 34.3109C16.8387 34.403 16.7114 34.4613 16.7099 34.4889C16.7068 34.5656 17.2807 35.0106 16.5319 34.5963C16.271 34.851 16.8188 35.0659 16.3539 35.0229C16.3447 35.0229 16.2925 34.8342 16.2112 34.9155L16.3539 35.0229C16.3247 35.6137 16.9692 34.9032 17.0658 35.0582C17.2039 35.2776 16.7344 35.405 16.5671 35.5216C16.0961 35.85 15.5744 35.9021 16.3186 36.4469C16.4352 36.3778 16.7099 36.12 16.782 36.0909C16.9845 36.008 17.2362 35.985 17.4234 35.8423C17.4817 36.3931 16.9231 36.2121 16.8894 36.2336C16.8219 36.2781 16.8648 36.3686 16.8541 36.3763C16.6178 36.5205 16.3953 36.6832 16.1421 36.8028C15.8153 36.3962 15.6281 36.6739 15.5007 36.0187C15.4961 35.9973 15.8414 35.9098 15.4654 35.7333L14.9667 35.876L15.1447 36.0893C14.6507 36.364 14.8962 36.7476 14.824 36.8013C14.7443 36.8611 13.8221 36.8826 13.7914 36.9793C14.1535 37.2632 14.4021 37.1143 14.4328 37.7266C14.3115 37.7327 13.7269 37.7573 13.7208 37.9046C13.8773 37.9092 14.4558 38.1516 14.5049 38.1531L14.5755 38.7592C14.6368 38.8682 13.7208 38.6794 13.9341 38.9725C14.1182 39.2242 15.3626 38.8436 15.2153 39.5065C15.1862 39.5065 14.956 39.6523 14.646 39.6492C14.4573 39.6477 14.1688 39.5111 13.9341 39.5786C13.8021 38.9311 13.3464 37.2355 13.3648 36.6939C13.3786 36.2811 13.6563 35.9436 13.7208 35.5185C14.0752 35.1871 14.3284 35.6689 14.3269 35.3052L13.9356 35.2699C14.2548 34.7559 14.5402 34.94 14.933 34.8066C15.0527 34.7667 15.1908 34.5549 15.3243 34.5211C15.7416 34.4199 16.4076 34.5518 16.8556 34.3079L16.8526 34.3109Z" fill="#F3DB6E"/>
<path d="M15.4993 36.0203C15.4226 36.0586 15.1694 36.077 15.1433 36.0909L14.9653 35.8776L15.464 35.7349C15.84 35.9113 15.4962 35.9988 15.4993 36.0203Z" fill="#F3DB6E"/>
<path d="M16.7806 36.0925C16.7085 36.1216 16.4354 36.3794 16.3172 36.4485C15.5746 35.9022 16.0963 35.8516 16.5658 35.5232L16.7791 36.0925H16.7806Z" fill="#F5D53B"/>
<path d="M14.1813 35.8776C14.2028 35.873 14.4728 35.9835 14.6079 35.8776C14.835 36.7231 13.0612 36.143 14.1813 35.8776Z" fill="#F6ED96"/>
<path d="M16.3536 35.0244L16.2109 34.9169C16.2923 34.8356 16.3444 35.0228 16.3536 35.0244Z" fill="#CFA62B"/>
<path d="M29.7419 37.0882C30.1715 37.3291 30.572 37.5516 30.9526 37.8723C30.9372 38.4278 31.5848 39.0109 31.594 39.6523C31.6016 40.2307 31.037 40.8184 31.238 41.3969C30.7209 40.8967 31.0999 42.2976 31.0953 42.6076L30.8467 41.9309L30.5981 42.6429C30.5981 42.2117 30.5598 41.2404 30.4554 40.7908C30.4094 40.5913 30.3158 40.4087 30.2421 40.2215C30.0503 39.7305 29.7465 39.3669 29.458 38.9403C29.4059 38.862 29.3752 38.8083 29.3153 38.727C29.2969 38.7025 29.2616 38.6073 29.2448 38.5843C29.6959 38.1132 29.053 37.8677 28.6755 37.6222C28.5696 37.5532 28.4821 37.3752 28.4622 37.6575C28.1476 37.3875 27.9282 37.3399 27.6075 37.1588C27.5523 37.1281 27.5277 37.0422 27.3221 36.9455C25.4317 36.0448 22.7434 35.6873 20.9834 37.0161C21.634 35.0797 24.0415 34.0608 25.8613 35.0935C26.1866 35.2776 26.8587 36.1369 26.9293 36.1614C27.118 36.2259 27.7257 36.1461 28.0694 36.232C28.2458 36.2765 29.5133 36.9578 29.7434 37.0867L29.7419 37.0882Z" fill="#75BA6D"/>
<path d="M32.0925 39.5095C31.9421 39.7612 31.8332 39.5556 31.5938 39.6523C31.5846 39.0109 30.9371 38.4278 30.9524 37.8723C31.5202 38.3511 31.8976 38.7776 32.0925 39.5095Z" fill="#51A646"/>
<path d="M29.2431 38.5842C28.9577 38.2144 28.8349 37.9812 28.459 37.6589C28.4789 37.3751 28.5679 37.5546 28.6723 37.6236C29.0513 37.8691 29.6942 38.1147 29.2415 38.5857L29.2431 38.5842Z" fill="#51A646"/>
<path d="M31.6644 43.6402C31.6598 43.6632 31.6706 43.6893 31.6644 43.7108C31.534 44.2187 30.4231 44.8739 29.9551 45.0641C30.7223 44.6054 30.4937 43.9256 30.5243 43.2121C30.5259 43.1645 30.5243 43.117 30.5243 43.0694C30.5243 43.0188 30.5965 42.8147 30.5949 42.6428L30.8435 41.9308L31.0921 42.6075C31.0967 42.2976 30.7177 40.8966 31.2348 41.3969C31.0353 40.8184 31.5984 40.2307 31.5908 39.6522C31.8301 39.5571 31.9391 39.7612 32.0895 39.5095C32.5114 41.1007 31.8762 41.1636 31.6629 42.3221C31.5938 42.6965 31.7319 43.2643 31.6629 43.6402H31.6644Z" fill="#3E9444"/>
<path d="M31.0597 42.7855C31.3359 42.6336 31.2408 43.4253 31.2024 43.4269C31.2331 43.298 30.9876 42.8254 31.0597 42.7855Z" fill="#71A65F"/>
<path d="M27.3204 36.9471C27.3557 37.3093 27.1056 37.5824 26.7512 37.5885C25.5344 36.7753 24.0122 36.3104 22.6558 36.8044C22.6404 36.8106 22.4502 36.9671 22.5131 37.0177C22.7356 36.961 23.1038 37.0454 23.2972 37.0177C23.3248 37.0131 23.3631 36.8106 23.4399 36.8044C23.5795 36.7922 25.4991 36.872 25.0771 37.0898L24.3298 37.1604C23.6884 37.1497 21.5448 37.4566 21.1612 37.8724C20.7224 38.3481 21.7474 38.0565 21.7673 38.2637C21.261 38.6872 21.5587 39.2442 21.3408 39.9009C21.1014 39.9055 20.9464 39.861 20.6994 39.8656C20.5582 39.8687 20.5475 39.7628 20.414 39.8656C20.2068 39.4391 19.8217 39.0248 19.6299 38.655C20.0196 38.0673 20.414 37.4474 20.9832 37.0177C22.7432 35.6874 25.4316 36.0464 27.322 36.9471H27.3204Z" fill="#DEE9A3"/>
<path d="M27.6057 37.1604C27.9264 37.3399 28.1458 37.3875 28.4604 37.6591C28.8363 37.9829 28.9575 38.2146 29.2444 38.5843C29.2629 38.6074 29.2966 38.701 29.315 38.7271C28.8087 38.6902 29.3242 39.8702 28.9237 39.7244C28.4496 38.9894 27.6809 38.3128 26.9658 37.8018C27.2067 37.4443 27.1699 37.7941 27.4645 37.6944C27.087 37.6238 27.3494 37.2095 27.6072 37.1604H27.6057Z" fill="#DEE9A3"/>
<path d="M29.4579 38.9404C29.7448 39.3685 30.0486 39.7306 30.2419 40.2216C30.2067 40.5838 30.222 41.2743 29.8154 41.4676C29.5116 40.4932 29.0159 39.9991 29.2461 38.9036L29.4594 38.9389L29.4579 38.9404Z" fill="#DEE9A3"/>
<path d="M30.4537 40.7923C30.5565 41.2419 30.5949 42.2132 30.5964 42.6444C30.5964 42.8162 30.5274 43.0218 30.5259 43.0709L30.0993 43.3195C30.1453 42.428 29.7172 41.5058 30.4553 40.7908L30.4537 40.7923Z" fill="#C1DB7A"/>
<path d="M27.6057 37.1606C27.3479 37.2097 27.087 37.6239 27.463 37.6945C27.1683 37.7927 27.2067 37.4444 26.9643 37.8019C26.863 37.7298 26.7755 37.6055 26.751 37.5887C27.1054 37.5825 27.3555 37.3094 27.3202 36.9473C27.5259 37.0455 27.5489 37.1299 27.6057 37.1606Z" fill="#E5EEBE"/>
<path d="M21.1963 40.5793C21.7195 40.6192 22.341 40.5486 22.8704 40.5087C22.7599 40.8861 23.3107 42.5495 23.547 42.752C23.7404 42.9193 24.7761 42.9684 25.0063 43.286C25.6538 43.108 25.6369 41.5628 25.7183 41.5061C25.8057 41.4447 27.667 41.3327 27.8542 41.3633C28.2731 41.4324 28.8623 41.8666 29.1722 42.1474C29.1523 42.3316 29.2121 42.8717 28.959 43.0374C28.5846 43.2814 27.733 42.0109 28.4603 41.8973C28.4756 41.6104 27.2634 42.2272 27.2496 42.3239C27.8434 42.4482 27.3263 42.7182 27.3202 42.7505C27.3079 42.8134 27.4261 43.1571 27.2128 43.3566C27.1974 43.3719 26.8154 43.3412 26.7862 43.3566C26.1111 43.7095 25.5495 44.2465 24.7562 44.3892C25.4006 44.5258 25.8916 44.0087 26.4655 43.7831C26.5806 44.3601 27.0931 44.8987 26.3228 45.2792C26.2246 45.2562 26.1111 45.1764 25.9668 45.1365C25.9039 45.1196 25.887 45.0828 25.8241 45.0659C25.5096 44.9785 23.8708 44.3309 23.7588 44.4598C23.7419 44.4798 23.5486 44.8971 23.5455 44.9232H23.4749V44.0333L23.9015 44.3187C23.7511 44.0685 23.7465 43.8322 23.6882 43.5714C23.5977 43.1632 23.8171 42.6262 22.9409 42.7873C22.7092 42.8303 22.4714 43.2522 22.3348 43.4287L21.9083 42.3254C22.8581 42.3024 21.8009 41.9188 21.517 41.6488C21.3298 41.4708 21.0613 40.9813 20.8403 40.8647C20.8066 40.8478 20.693 40.9061 20.6976 40.7941C20.7068 40.7757 20.6869 40.7404 20.6976 40.7235C20.7083 40.7066 20.6869 40.6667 20.6976 40.6529C20.7789 40.5516 20.7713 40.4504 20.805 40.4396C20.8603 40.4212 20.9523 40.5639 21.1963 40.5823V40.5793Z" fill="#DEE9A3"/>
<path d="M22.335 43.4271C22.3273 43.4363 22.3242 43.5682 22.2644 43.6404C21.9284 43.1724 21.7672 42.7657 21.267 42.4297C21.1565 41.8911 20.7914 41.4154 20.8405 40.863C21.0614 40.9797 21.3299 41.4691 21.5171 41.6471C21.801 41.9172 22.8598 42.3008 21.9084 42.3238L22.335 43.4271Z" fill="#93A650"/>
<path d="M20.698 39.8671C20.8545 39.996 21.5573 40.3412 21.1967 40.5791C20.9527 40.5607 20.8606 40.4195 20.8054 40.4364C20.7732 40.4471 20.7809 40.5484 20.698 40.6497C20.5845 40.4394 20.5031 40.0512 20.4126 39.8656C20.5446 39.7628 20.5568 39.8686 20.698 39.8656V39.8671Z" fill="#C1DB7A"/>
<path d="M24.3298 37.1605C24.5155 37.1636 25.651 37.2111 25.7185 37.2311C25.8075 37.2587 27.1977 38.3144 27.1777 38.4065L23.937 38.5139C23.6025 38.9312 23.2803 38.4878 22.9749 38.9051C24.9451 38.7302 27.3818 37.7651 28.5295 39.9731C28.861 40.6099 28.373 40.1634 28.3868 40.3997C28.3899 40.4442 28.9009 40.8017 29.0282 41.0411C29.2354 41.4323 29.2124 41.7392 29.1709 42.1443C28.8625 41.8635 28.2718 41.4308 27.8529 41.3602C27.6657 41.3295 25.8044 41.4416 25.7169 41.5029C25.6356 41.5597 25.6525 43.1064 25.005 43.2829C24.7748 42.9652 23.7391 42.9161 23.5457 42.7489C23.3094 42.5463 22.7586 40.883 22.869 40.5055C22.3412 40.5454 21.7182 40.6176 21.195 40.5761C21.5556 40.3368 20.8528 39.9931 20.6963 39.8642C20.9418 39.8596 21.0983 39.9041 21.3377 39.8995C21.5571 39.2412 21.2594 38.6857 21.7643 38.2622C21.7458 38.0551 20.7193 38.3466 21.1582 37.8709C21.5418 37.4551 23.6869 37.1482 24.3267 37.159L24.3298 37.1605Z" fill="#DEE9A3"/>
<path d="M29.9552 45.0659C29.6913 45.1733 29.4427 45.2117 29.1711 45.2792C28.9808 44.8772 29.3844 44.5181 29.3844 44.1391C30.0611 44.3064 29.8984 43.4793 30.5245 43.2139C30.4938 43.9274 30.7224 44.6071 29.9552 45.0659Z" fill="#E5EEBE"/>
<path d="M29.3857 44.1389C29.3857 44.5164 28.9821 44.877 29.1724 45.279C28.3837 45.4754 27.7929 45.5445 26.9644 45.4217C26.9874 44.567 27.5367 44.7788 27.9617 44.567C28.3131 44.3921 28.5264 43.4929 28.7811 43.427C29.1202 43.341 29.3857 43.8443 29.3872 44.1389H29.3857Z" fill="#C1DB7A"/>
<path d="M27.962 44.5671C27.5385 44.7789 26.9876 44.5671 26.9646 45.4218C26.7544 45.3896 26.5319 45.3282 26.3232 45.2791C27.0935 44.9001 26.5795 44.3615 26.4659 43.783C27.1534 43.513 27.7779 43.1831 28.5666 43.2844L28.6372 43.4271L27.9605 44.5671H27.962Z" fill="#DEE9A3"/>
<path d="M26.7514 37.5869C26.7759 37.6038 26.8634 37.7281 26.9646 37.8002C27.6797 38.3112 28.4484 38.9894 28.9226 39.7228C29.3231 39.8701 28.8075 38.6902 29.3138 38.7254C29.3737 38.8068 29.4044 38.862 29.4566 38.9387L29.2433 38.9034C29.0131 39.999 29.5103 40.4931 29.8125 41.4675C30.2192 41.2741 30.2038 40.5836 30.2391 40.2215C30.3128 40.4087 30.4064 40.5913 30.4524 40.7908C29.7143 41.5043 30.1424 42.428 30.0964 43.3195L30.523 43.0709C30.523 43.1185 30.5245 43.1661 30.523 43.2136C29.8969 43.4806 30.0611 44.3077 29.3829 44.1389C29.3829 43.8443 29.1174 43.341 28.7768 43.4269C28.5221 43.4914 28.3088 44.3906 27.9574 44.567L28.6341 43.4269L28.5635 43.2842C27.7748 43.183 27.1488 43.5129 26.4629 43.7829C25.8905 44.0085 25.398 44.5256 24.7535 44.389C25.5453 44.2463 26.1084 43.7093 26.7836 43.3563C26.8127 43.341 27.1948 43.3717 27.2102 43.3563C27.4234 43.1569 27.3053 42.8132 27.3176 42.7502C27.3237 42.718 27.8408 42.4464 27.247 42.3237C27.2608 42.227 28.473 41.6102 28.4576 41.8971C27.7303 42.0107 28.5819 43.2812 28.9563 43.0372C29.211 42.8715 29.1512 42.3313 29.1696 42.1472C29.2126 41.7406 29.2341 41.4352 29.0269 41.044C28.9011 40.8046 28.3886 40.4486 28.3855 40.4026C28.3717 40.1647 28.8581 40.6113 28.5282 39.976C27.3805 37.7664 24.9438 38.7331 22.9736 38.908C23.2774 38.4907 23.5996 38.9341 23.9357 38.5168L27.1764 38.4094C27.1963 38.3173 25.8061 37.2616 25.7172 37.234C25.6496 37.2125 24.5142 37.1665 24.3285 37.1634L25.0758 37.0928C25.4962 36.8749 23.5782 36.7951 23.4385 36.8074C23.3633 36.8136 23.3234 37.0176 23.2958 37.0207C23.1025 37.0483 22.7342 36.9639 22.5117 37.0207C22.4488 36.9701 22.6391 36.812 22.6544 36.8074C24.0109 36.3133 25.533 36.7767 26.7498 37.5915L26.7514 37.5869Z" fill="#E5EEBE"/>
<path d="M27.7841 42.2163L28.496 43.1416L27.4634 43.1063C27.4987 42.9145 27.5861 42.2286 27.7841 42.2163Z" fill="#DEE9A3"/>
<path d="M29.2802 42.7148C29.4628 42.7241 29.5303 43.8288 28.9595 43.1782L29.2802 42.7148Z" fill="#DEE9A3"/>
<path d="M10.6192 37.5871C12.2212 37.2772 11.655 39.8443 10.1926 39.2244C9.31342 38.853 9.99471 37.7068 10.6192 37.5871Z" fill="#9ABF43"/>
<path d="M11.0827 41.8604C11.2484 42.4941 10.9876 42.2056 10.94 42.3238C10.9093 42.4005 11.1518 42.4189 11.1533 42.4312C11.2315 42.7795 10.495 44.1912 10.8326 44.4259C10.8571 44.4428 11.1824 44.0592 11.296 44.4965C11.0934 44.7881 11.1303 45.1563 11.0827 45.2438C10.9876 45.4172 10.7927 45.2775 10.6561 45.4571C10.6178 45.5077 10.538 46.0356 10.5134 46.0985C10.3523 46.5143 10.2173 46.8135 10.0869 47.2385C9.94416 47.6973 10.0945 48.1055 9.51759 48.5566C8.00004 46.993 7.37399 44.3262 8.80408 42.5018C8.92376 42.7212 8.64603 42.8286 9.08948 42.7872C9.00969 42.9498 8.87159 43.7078 9.12477 43.7124C9.19075 43.714 9.71092 42.9452 9.80146 42.8225C9.88278 42.7105 9.8613 42.4465 9.87204 42.4312C10.0869 42.1473 10.5503 42.1442 10.6561 41.7898C10.8034 41.8404 10.9323 41.8021 11.0827 41.8604Z" fill="#CECB36"/>
<path d="M12.0801 44.0684C11.2132 44.7957 11.626 45.7502 11.5109 46.5603C11.4495 46.9946 11.0766 47.0866 11.0122 47.3076C10.8618 47.8232 11.3037 48.8344 10.6562 49.4082C10.1897 49.152 9.88898 48.9372 9.51611 48.5536C10.0931 48.1024 9.94268 47.6943 10.0854 47.2355C10.2173 46.812 10.3508 46.5128 10.512 46.0954C10.5365 46.0325 10.6163 45.5047 10.6547 45.454C10.7912 45.2745 10.9876 45.4141 11.0812 45.2407C11.1303 45.1517 11.092 44.785 11.2945 44.4935C11.6075 44.0408 11.7993 44.2081 12.0786 44.0669L12.0801 44.0684Z" fill="#9ABF43"/>
<path d="M13.5763 49.4099V49.6953C13.5686 49.6953 13.6116 49.7659 13.4336 49.7659C13.363 49.7659 13.2909 49.7659 13.2203 49.7659C12.9886 49.3961 12.6633 49.5986 12.3656 49.7659C11.9943 49.7705 11.6705 49.7766 11.2976 49.7659C11.0905 49.6401 10.8695 49.5265 10.6562 49.4099C11.3038 48.8345 10.8619 47.8233 11.0122 47.3093C11.0767 47.0883 11.4495 46.9963 11.5109 46.562C11.7518 47.6745 12.3717 49.0831 13.5763 49.4099Z" fill="#51A646"/>
<path d="M14.2884 41.7177C14.6075 41.9356 14.8837 42.2855 15.143 42.5724C15.0724 42.6016 14.6443 43.1264 14.6091 43.1417C14.2945 43.2783 13.8633 43.2276 13.3631 43.4271C13.271 43.4639 13.2219 43.5867 13.1498 43.5345C13.6546 43.0021 12.9826 42.3484 12.9365 42.1106C12.8859 41.8497 13.1866 41.8773 13.1145 41.7899C12.9196 41.5536 11.6338 41.7162 11.2978 41.6472C11.1443 41.5152 11.1627 41.4446 11.0845 41.3618C12.1862 40.8017 13.3033 41.0441 14.2899 41.7177H14.2884Z" fill="#51A646"/>
<path d="M9.87223 41.575C10.2712 41.532 10.3617 41.687 10.6563 41.7883C10.5504 42.1427 10.087 42.1458 9.87223 42.4297C9.62212 42.2056 9.19555 42.5647 9.08814 42.7856C8.64622 42.8271 8.92242 42.7197 8.80273 42.5002C9.24311 41.9371 9.23698 41.9156 9.8707 41.575H9.87223Z" fill="#F3DB6E"/>
<path d="M11.0828 41.3617C11.1611 41.4445 11.1427 41.5136 11.2961 41.6471C11.6275 41.9325 11.8301 42.1151 12.2935 42.1105C12.1615 42.1488 12.0787 42.2563 12.0081 42.3591C11.9467 42.0169 11.3682 42.4757 11.1534 42.4296C11.1503 42.4174 10.9094 42.399 10.9401 42.3222C10.9877 42.2056 11.2485 42.4926 11.0828 41.8588C11.046 41.7207 10.8174 41.354 10.6562 41.2896C10.8864 41.2006 10.6394 40.8922 11.0828 41.3602V41.3617Z" fill="#A88837"/>
<path d="M11.0827 41.8605C10.9308 41.8022 10.8019 41.8391 10.6562 41.7899C10.3616 41.6887 10.2726 41.5337 9.87207 41.5767C10.0777 41.4662 10.4014 41.3895 10.6562 41.2913C10.8188 41.3557 11.0474 41.7224 11.0827 41.8605Z" fill="#9ABF43"/>
<path d="M12.0802 44.0686C11.8025 44.2113 11.6091 44.044 11.2961 44.4951C11.1826 44.0578 10.8573 44.4399 10.8327 44.4246C10.4951 44.1913 11.2317 42.7796 11.1534 42.4298C11.3682 42.4758 11.9467 42.0155 12.0081 42.3592C11.9805 42.4006 11.7841 42.571 11.9007 42.6446C12.0894 42.7474 12.6725 42.3255 12.6479 42.2533C12.6372 42.2196 12.0833 42.1229 12.6832 41.8621C13.0315 42.0753 12.7108 42.2303 12.7185 42.2533C12.7523 42.3485 12.984 42.5771 13.0039 42.752C13.1236 43.8752 12.9379 43.6313 12.0787 44.0701L12.0802 44.0686Z" fill="#A7CE38"/>
<path d="M9.87206 42.4298C9.85979 42.4451 9.8828 42.709 9.80148 42.821C9.71248 42.9438 9.19078 43.7125 9.1248 43.711C8.87162 43.7049 9.00972 42.9484 9.08951 42.7858C9.19692 42.5648 9.62195 42.2057 9.8736 42.4298H9.87206Z" fill="#F6ED96"/>
<path d="M16.424 42.5724C16.2076 43.091 16.3565 43.5744 15.9253 43.9963C15.6123 43.9672 15.3192 43.8444 15 43.8536L13.3628 43.4271C13.863 43.2291 14.2942 43.2782 14.6087 43.1417C14.644 43.1263 15.0721 42.6015 15.1427 42.5724C15.3161 42.5003 15.7734 42.6936 15.9268 42.4297C16.0557 42.4481 16.2337 42.5402 16.4255 42.5724H16.424Z" fill="#D0B679"/>
<path d="M16.4238 41.79C16.6217 41.833 17.0007 42.1583 17.4211 42.2166C17.4626 42.4744 17.3874 42.5051 17.2079 42.6432C16.9869 42.522 16.5849 42.5987 16.4238 42.5726C16.232 42.5404 16.054 42.4483 15.9251 42.4299C15.6075 42.3839 15.2377 42.4836 15.2837 42.2519C15.3267 42.0432 15.6673 42.2841 15.7471 42.2166C15.8269 42.1491 15.7241 42.0187 15.8545 41.8606C15.9404 41.902 16.3961 41.7839 16.4238 41.79Z" fill="#BAA258"/>
<path d="M13.3612 43.4272L14.9985 43.8537C14.9217 43.8553 14.7299 43.8292 14.7131 43.889L16.2797 44.7084C16.2275 45.5661 15.7488 46.6863 15.3545 47.4504C15.2409 47.6714 14.2405 49.3792 14.1438 49.4452C13.998 49.5464 13.7326 49.4528 13.5745 49.4099C12.37 49.0815 11.7501 47.6729 11.5092 46.562C11.6243 45.7503 11.2115 44.7959 12.0785 44.0701C12.9377 43.6312 13.1249 43.8752 13.0037 42.752C12.9853 42.5771 12.7521 42.3484 12.7183 42.2533C12.7106 42.2288 13.0313 42.0753 12.683 41.862C12.0831 42.1229 12.637 42.2196 12.6477 42.2533C12.6707 42.327 12.0877 42.7489 11.9005 42.6446C11.7838 42.5709 11.9787 42.4006 12.0079 42.3592C12.0769 42.2548 12.1598 42.1474 12.2933 42.1106C11.8299 42.1168 11.6289 41.9326 11.2959 41.6472C11.6319 41.7163 12.9163 41.5536 13.1127 41.7899C13.1848 41.8774 12.884 41.8498 12.9347 42.1106C12.9807 42.3485 13.6528 43.0021 13.148 43.5346C13.2201 43.5867 13.2707 43.464 13.3612 43.4272Z" fill="#ECBC2E"/>
<path d="M17.2081 44.139C19.054 44.6132 18.5921 46.7077 17.7068 47.949C17.0945 48.8083 16.1493 49.3223 15.2149 49.7658C14.6701 49.7566 14.1147 49.6921 13.5776 49.6952V49.4098C13.7357 49.4528 14.0011 49.5464 14.1469 49.4451C14.2436 49.3791 15.244 47.6713 15.3576 47.4503C15.7519 46.6862 16.2322 45.5676 16.2828 44.7083C16.3012 44.3968 16.1724 44.2464 16.2122 43.9963C16.5774 44.0424 16.8306 44.0408 17.2096 44.139H17.2081Z" fill="#F8984D"/>
<path d="M19.6294 44.8511C19.6094 44.9478 19.4514 45.3252 19.4867 45.4572C19.5465 45.6828 19.7092 45.7411 19.7721 45.9206L19.2028 47.452C18.5277 48.4846 17.6577 49.3071 16.4961 49.7659C16.0695 49.7613 15.6399 49.7735 15.2148 49.7659C16.1508 49.324 17.0961 48.8084 17.7068 47.9491C18.5921 46.7078 19.054 44.6133 17.2081 44.1391C17.3324 44.0655 17.4981 43.9427 17.6346 43.9258C17.9154 43.8905 17.808 44.1529 18.098 44.2818C18.3267 44.3831 19.1 44.5856 19.3793 44.6378C19.5542 44.67 19.6647 44.5504 19.6279 44.8511H19.6294Z" fill="#D8532C"/>
<path d="M17.2081 42.6446C17.5441 42.6063 17.1712 43.0881 17.2081 43.1786C17.2265 43.2216 17.6899 43.5116 17.6346 43.9259C17.4965 43.9428 17.3324 44.0655 17.2081 44.1392C16.8291 44.0425 16.5759 44.0425 16.2107 43.9965C16.0803 43.9796 15.9775 44.0011 15.9253 43.9965C16.3565 43.5745 16.2076 43.0896 16.424 42.5725C16.5851 42.5986 16.9856 42.5234 17.2081 42.6431V42.6446Z" fill="#A28252"/>
<path d="M15.0002 43.8552C15.3209 43.846 15.614 43.9687 15.9255 43.9979C15.9777 44.0025 16.0805 43.981 16.2109 43.9979C16.1725 44.248 16.3014 44.3999 16.2815 44.7099L14.7148 43.8905C14.7317 43.8306 14.9235 43.8567 15.0002 43.8552Z" fill="#ECBC2E"/>
<path d="M17.92 41.2191C17.9415 41.2621 17.9538 41.6212 17.9906 41.7178C18.078 41.9403 17.8939 41.9495 18.276 42.0032C18.2606 42.0631 18.4356 42.6001 18.4893 42.7152C18.2468 42.8257 18.3819 42.9039 18.3113 42.9285C18.0719 43.0144 17.8356 42.7229 17.5272 42.9285C17.4489 42.5802 17.8126 42.8978 17.7758 42.2165C17.7543 41.816 17.5886 41.5168 17.6331 41.1133L17.7405 41.0059C17.7451 41.1363 17.9123 41.2069 17.9185 41.2191H17.92Z" fill="#AC5528"/>
<path d="M21.2669 42.4297C21.7672 42.7657 21.9283 43.1724 22.2643 43.6404C22.252 43.6542 22.2766 43.6971 22.2643 43.711C22.0219 44.0209 21.695 44.2311 21.4096 44.495C21.3836 44.4321 21.3559 44.3938 21.3022 44.3523L19.843 44.4229C19.9059 44.0516 19.9627 43.4516 19.9857 43.0696C19.9949 42.9284 20.1928 42.4665 19.9504 42.3576C19.5146 42.2977 19.1709 42.4343 18.775 42.5709C18.6247 42.623 18.6016 42.6629 18.4896 42.7136C18.4359 42.5985 18.261 42.0614 18.2763 42.0016C18.6185 42.0507 19.042 41.7791 19.3796 41.7883C19.7647 41.7975 20.9355 42.2057 21.2669 42.4297Z" fill="#DE6C26"/>
<path d="M22.9054 49.6939C22.9653 49.7384 22.9729 49.7629 22.976 49.7645C22.1351 49.8949 21.2605 49.8351 20.412 49.8351C20.389 49.8351 20.3644 49.8351 20.3414 49.8351C20.3353 49.5205 20.6575 49.7322 20.7327 49.6924C20.8999 49.6018 21.7469 48.6428 21.7653 48.4817C22.1367 49.008 22.3853 49.2995 22.9054 49.6924V49.6939Z" fill="#D12E27"/>
<path d="M21.4097 44.4952C21.4158 44.5106 21.4097 44.5474 21.4097 44.5658C21.4005 44.73 21.0767 45.3791 21.0537 45.8471C21.0368 46.1785 21.0552 46.7002 21.1243 47.0224C21.1933 47.3447 21.7611 48.2899 21.7657 48.4111C21.7657 48.4341 21.7687 48.4602 21.7657 48.4817C21.7473 48.6428 20.9003 49.6018 20.733 49.6923C20.6578 49.7322 20.3356 49.5205 20.3417 49.835C20.0579 49.835 19.7709 49.835 19.4871 49.835C19.8691 49.0141 20.4814 48.5615 20.199 47.5917C20.1775 47.5211 20.0072 47.5917 19.9857 47.5211C19.9213 47.3155 20.1561 47.001 20.1284 46.6665C20.11 46.4332 19.8415 46.1156 19.7725 45.9192C19.7095 45.7412 19.5469 45.6814 19.4871 45.4558C19.4518 45.3254 19.6098 44.9464 19.6298 44.8497C19.6344 44.8267 19.8262 44.5275 19.843 44.4231L21.3023 44.3525C21.3545 44.394 21.3836 44.4323 21.4097 44.4952Z" fill="#D8532C"/>
<path d="M19.9856 43.0713C19.4163 43.3551 19.1554 42.9071 18.7749 42.5726C19.1708 42.4345 19.5145 42.2995 19.9503 42.3593C20.1927 42.4682 19.9948 42.9301 19.9856 43.0713Z" fill="#EFB274"/>
<path d="M17.7773 42.2165C17.8141 42.8978 17.4505 42.5817 17.5287 42.9284C17.8371 42.7228 18.0719 43.0144 18.3128 42.9284C18.3834 42.9024 18.2484 42.8256 18.4908 42.7152C18.6013 42.6645 18.6243 42.6246 18.7762 42.5725C19.1567 42.907 19.4176 43.355 19.9869 43.0712C19.9639 43.4532 19.9071 44.0532 19.8442 44.4245C19.8258 44.5304 19.6355 44.8281 19.6309 44.8511C19.6677 44.5503 19.5572 44.67 19.3823 44.6378C19.103 44.5856 18.3297 44.3831 18.1011 44.2818C17.8111 44.1529 17.9185 43.8905 17.6377 43.9258C17.6914 43.5115 17.228 43.2215 17.2111 43.1786C17.1743 43.088 17.5471 42.6062 17.2111 42.6446C17.3906 42.5065 17.4658 42.4743 17.4244 42.218C17.5379 42.2334 17.6653 42.2073 17.7804 42.218L17.7773 42.2165Z" fill="#D97E2A"/>
<path d="M17.5992 43.2843C17.6575 43.2444 17.9199 43.3089 17.9199 43.3918C17.9199 43.6096 17.3353 43.4639 17.5992 43.2843Z" fill="#F4C97E"/>
<path d="M19.7707 45.9207C19.8397 46.1171 20.1083 46.4362 20.1267 46.6679C20.1543 47.0024 19.9211 47.3154 19.984 47.5226C20.0055 47.5947 20.1773 47.5226 20.1973 47.5932C20.4796 48.5629 19.8674 49.0156 19.4853 49.8365C18.5846 49.8365 17.6793 49.8365 16.7786 49.8365C16.7617 49.7199 16.5837 49.7659 16.4932 49.7659C17.6547 49.3056 18.5247 48.4847 19.1999 47.452L19.7692 45.9207H19.7707Z" fill="#AA1F23"/>
<path d="M33.3734 47.5576C33.3581 47.751 33.2322 48.0532 33.2307 48.2696C32.8901 48.8696 32.0446 49.2486 31.8773 49.8362C31.4262 49.8976 31.17 50.0956 30.8094 50.3349C30.5071 50.3641 30.1895 50.5804 29.812 50.6203C28.3313 50.7753 26.9779 51.05 25.468 50.6203C25.2947 50.5712 25.0921 50.5544 24.9341 50.4776C24.8512 50.4377 25.0093 50.3579 24.9694 50.3349C25.465 49.9851 25.7611 50.4193 26.2874 50.4776C27.8311 50.6495 30.5194 50.6418 31.6994 49.623C32.4804 48.9493 31.7837 49.2332 31.8068 49.089C31.8175 49.0184 32.6338 48.2389 32.8041 48.0563C32.887 47.9658 33.2583 47.7249 33.3734 47.5576Z" fill="#D49E31"/>
<path d="M24.9706 50.3349C25.0105 50.3564 24.8525 50.4377 24.9353 50.4776C25.0934 50.5528 25.2959 50.5712 25.4693 50.6203C24.8601 50.6172 24.1804 50.4484 23.6172 50.1937C23.5298 50.1538 23.094 49.8485 22.9759 49.7671C22.9713 49.7641 22.9636 49.7411 22.9053 49.6966L23.2613 49.5539C23.3318 49.5984 23.6265 49.8178 23.6878 49.6613C23.5651 49.5845 23.539 49.448 23.4745 49.3406C24.0269 49.6766 24.3845 50.0142 24.9706 50.338V50.3349Z" fill="#D97E2A"/>
<path d="M33.0891 43.071V43.2137C32.5229 43.0741 32.9019 43.4071 32.8037 43.605C32.1485 44.9446 31.168 46.2427 29.563 46.4176C29.0766 46.4713 27.8092 46.4514 27.4624 46.0616C28.1376 46.0417 30.5512 45.0688 31.1297 44.6377C31.1757 44.6024 32.1163 43.7247 31.6637 43.7124C31.6698 43.6909 31.6591 43.6648 31.6637 43.6418C32.0396 43.1278 32.3557 42.58 33.0876 43.0726L33.0891 43.071Z" fill="#F3DB6E"/>
<path d="M33.3734 47.5576C33.2568 47.7249 32.887 47.9658 32.8041 48.0563C32.9284 47.7095 32.953 47.3459 33.0174 46.9883C33.0282 46.9285 32.9315 46.9162 32.9468 46.8103C33.0051 46.37 33.6343 46.0124 32.7336 45.8483C32.6461 45.8329 32.5709 45.7316 32.4129 45.7777C32.3116 45.8068 31.1669 46.8426 30.7388 47.0589C29.6248 47.1771 28.3681 47.7279 27.2495 47.6282L29.2443 47.1295C29.321 46.7352 29.6095 47.131 29.6355 47.1295C29.9025 47.1142 29.789 46.9975 29.8488 46.9868C29.9332 46.973 30.0437 47.1157 30.1342 47.0574C30.1603 47.0405 30.2739 46.6661 30.4902 46.5587C31.0948 46.261 31.4646 46.2932 32.0922 45.5613C33.5468 46.1367 33.3197 45.0151 33.1601 43.9947C33.1156 43.7139 33.0895 43.499 33.0895 43.2106V43.0679C33.6527 43.4469 33.6742 44.6575 33.5882 45.2406C33.5667 45.3849 33.3151 45.7301 33.3028 45.8099C33.243 46.1981 33.579 46.4421 33.5882 46.5219C33.6112 46.7367 33.3949 47.309 33.3749 47.5545L33.3734 47.5576Z" fill="#CFA62B"/>
<path d="M27.1772 49.0536C28.7332 49.5232 30.332 49.0214 31.6286 48.1284C32.1012 47.8015 32.4818 47.2062 33.0173 46.9883C32.9528 47.3458 32.9283 47.7095 32.804 48.0562C32.6352 48.2388 31.8174 49.0183 31.8066 49.0889C31.7851 49.2332 32.4802 48.9493 31.6992 49.6229C30.5177 50.6418 27.8294 50.6494 26.2873 50.4776C25.761 50.4193 25.4664 49.9866 24.9692 50.3349C24.3831 50.0126 24.0255 49.6735 23.4731 49.3375C22.6983 48.0486 22.2655 48.2036 22.1919 46.4175L22.8333 48.0915C23.6297 48.7345 24.1406 49.2086 25.006 49.5508C26.0218 49.9528 26.9425 50.5374 27.1788 49.0521L27.1772 49.0536Z" fill="#F5D53B"/>
<path d="M22.62 44.1389C22.3883 44.992 22.1551 45.5107 22.1934 46.4175C22.2671 48.2036 22.6998 48.0486 23.4747 49.3375C23.5391 49.445 23.5652 49.5815 23.688 49.6582C23.625 49.8163 23.3304 49.5969 23.2614 49.5508C22.9622 49.3575 22.0676 48.2604 21.9801 48.2328C21.8267 48.1852 21.8712 48.4 21.7669 48.4108C21.7622 48.2895 21.196 47.3428 21.1255 47.0221C21.0549 46.7014 21.038 46.1782 21.0549 45.8467C21.3111 45.5859 21.2896 47.1847 21.4814 46.594C21.7024 45.9142 21.3771 45.4953 21.9801 44.6361C22.0093 44.5946 22.5586 44.0637 22.6215 44.1374L22.62 44.1389Z" fill="#ECBC2E"/>
<path d="M23.2612 49.5524L22.9052 49.6951C22.385 49.3023 22.1365 49.0108 21.7651 48.4844C21.7682 48.4614 21.7651 48.4369 21.7651 48.4139C21.871 48.4031 21.825 48.1883 21.9784 48.2359C22.0659 48.2635 22.9605 49.3606 23.2597 49.5539L23.2612 49.5524Z" fill="#EDAB51"/>
<path d="M33.0896 43.2136C33.0896 43.5021 33.1172 43.7154 33.1602 43.9977L32.0922 45.5643C31.4646 46.2963 31.0933 46.264 30.4903 46.5617C30.2739 46.6676 30.1604 47.0435 30.1343 47.0604C30.0438 47.1172 29.9333 46.976 29.8489 46.9898C29.789 47.0006 29.9026 47.1156 29.6356 47.1325C29.6095 47.1341 29.3195 46.7382 29.2443 47.1325C28.9543 47.0466 27.848 46.9852 27.6424 46.8471C27.5549 46.7873 27.6593 46.5418 27.5718 46.4911C27.3186 46.3469 26.444 46.1091 26.2184 45.9219C25.9929 45.7347 26.2767 45.7654 26.2537 45.7439C26.1356 45.6257 25.5264 45.2022 25.8272 45.0672C25.8901 45.0841 25.9069 45.1209 25.9699 45.1378C26.0389 45.6211 27.0823 46.0753 27.4659 46.063C27.8127 46.4528 29.0801 46.4727 29.5666 46.419C31.1716 46.2441 32.1505 44.946 32.8073 43.6064C32.9039 43.4085 32.5265 43.0755 33.0927 43.2151L33.0896 43.2136Z" fill="#CFA62B"/>
<path d="M27.4629 46.0616C27.0793 46.0724 26.0358 45.6197 25.9668 45.1364C26.111 45.1762 26.2246 45.256 26.3228 45.2791C26.5315 45.3282 26.754 45.3895 26.9642 45.4218C27.7928 45.546 28.3835 45.4755 29.1722 45.2791C29.4438 45.2115 29.6924 45.1716 29.9563 45.0658C30.4243 44.8755 31.5352 44.2203 31.6657 43.7124C32.1183 43.7262 31.1777 44.6039 31.1317 44.6377C30.5532 45.0704 28.138 46.0417 27.4644 46.0616H27.4629Z" fill="#F3DB6E"/>
<path d="M25.8253 45.0658C25.5246 45.2008 26.1337 45.6243 26.2519 45.7425C26.2734 45.7639 26.0002 45.7409 26.2166 45.9204C26.433 46.1 27.3168 46.3455 27.57 46.4897C27.6574 46.5404 27.5531 46.7859 27.6405 46.8457C27.8462 46.9838 28.9525 47.0436 29.2425 47.1311L27.2477 47.6298C27.2155 47.6267 26.7337 47.5009 26.6785 47.4871C26.258 47.3812 25.6519 46.9823 25.1824 46.9178C25.1057 46.8488 24.9783 46.7843 24.9691 46.7751C24.4397 46.2488 23.4485 45.7701 23.5452 44.9231C23.5482 44.897 23.7416 44.4796 23.7584 44.4597C23.8705 44.3292 25.5077 44.9768 25.8238 45.0658H25.8253Z" fill="#F5D53B"/>
<path d="M32.7333 45.8484L32.3773 46.0263C33.3041 46.2381 31.9124 47.3674 31.5579 47.6283C30.5253 48.3924 29.4957 48.7131 28.2113 48.5535C27.9367 48.5198 27.4549 48.1745 27.1787 48.3403C26.8841 48.2114 26.5511 48.1531 26.2534 47.9843C26.3194 47.8784 26.4452 47.8769 26.5388 47.771C27.5285 47.9843 28.5029 47.6283 29.4235 47.415C30.0741 47.2631 30.045 47.4135 30.7416 47.059C31.1697 46.8411 32.3144 45.8069 32.4157 45.7778C32.5737 45.7317 32.6489 45.833 32.7364 45.8484H32.7333Z" fill="#F5D53B"/>
<path d="M33.0171 46.9884C32.4816 47.2063 32.101 47.8016 31.6284 48.1285C30.3334 49.023 28.733 49.5233 27.1771 49.0537C26.9254 48.9786 26.1505 48.5704 25.9311 48.4123C25.7961 48.3157 25.5859 48.2251 25.8237 48.0564C26.2994 48.4292 27.3796 48.9095 27.9596 48.6625C27.6758 48.6149 27.4318 48.4538 27.1755 48.3418C27.4517 48.176 27.9335 48.5213 28.2082 48.555C29.4941 48.7146 30.5221 48.3924 31.5548 47.6298C31.9077 47.3689 33.301 46.2381 32.3742 46.0278L32.7302 45.8499C33.6309 46.014 33.0018 46.37 32.9434 46.8119C32.9296 46.9178 33.0248 46.9301 33.014 46.9899L33.0171 46.9884Z" fill="#F5D53B"/>
<path d="M33.1598 43.9963C33.3193 45.0167 33.5464 46.1399 32.0918 45.563L33.1598 43.9963Z" fill="#CFA62B"/>
<path d="M30.7384 47.0591C30.0418 47.4135 30.0725 47.2632 29.4204 47.4151C28.4997 47.6284 27.5269 47.9843 26.5356 47.7711C26.5464 47.7588 26.5924 47.547 26.6783 47.4857C26.7351 47.4995 27.2154 47.6253 27.2476 47.6284C28.3662 47.7266 29.6244 47.1772 30.7369 47.0591H30.7384Z" fill="#F9F070"/>
<path d="M23.4745 44.9229H23.5451C23.4484 45.7699 24.4397 46.2487 24.969 46.775C25.167 47.2691 25.368 47.6987 25.8237 48.0562C25.5859 48.225 25.7946 48.3156 25.9311 48.4122C26.1506 48.5687 26.927 48.9769 27.1771 49.0536C26.9408 50.5374 26.0201 49.9543 25.0043 49.5523C24.1405 49.2101 23.6295 48.736 22.8316 48.0931L22.1902 46.419C22.1518 45.5122 22.3851 44.9935 22.6168 44.1404C22.8393 44.5209 22.7119 44.9214 22.5094 45.2805L23.4714 44.9245L23.4745 44.9229Z" fill="#F5D53B"/>
<path d="M23.6878 43.5696C23.7461 43.8305 23.7507 44.0668 23.9011 44.3169L23.4745 44.0315V44.9215L22.5124 45.2775C22.7134 44.9199 22.8423 44.5179 22.6198 44.1374C22.5569 44.0637 22.0076 44.5946 21.9785 44.6361C21.7636 44.475 21.6424 44.5041 21.4092 44.5655C21.4092 44.5455 21.4153 44.5087 21.4092 44.4949C21.6946 44.2325 22.0214 44.0208 22.2639 43.7108C22.9697 44.0683 23.0679 43.5911 23.6878 43.5681V43.5696Z" fill="#EBE02C"/>
<path d="M23.6877 43.5697C23.0678 43.5927 22.9696 44.0699 22.2638 43.7124C22.2761 43.6971 22.2515 43.6556 22.2638 43.6418C22.3236 43.5682 22.3282 43.4377 22.3344 43.4285C22.4709 43.2536 22.7072 42.8301 22.9405 42.7871C23.8182 42.6245 23.5972 43.1615 23.6877 43.5712V43.5697Z" fill="#3E9444"/>
<path d="M21.9785 44.6375C21.3755 45.4968 21.7008 45.9157 21.4798 46.5955C21.288 47.1862 21.3079 45.5873 21.0532 45.8482C21.0762 45.3802 21.4 44.7296 21.4092 44.5669C21.6424 44.5056 21.7652 44.4764 21.9785 44.6375Z" fill="#F5D53B"/>
<path d="M25.184 46.9164C25.5323 47.2294 25.5461 47.5823 26.2519 47.9843C26.5496 48.1531 26.8841 48.2114 27.1772 48.3403C27.4319 48.4523 27.6774 48.6135 27.9613 48.661C27.3798 48.9096 26.2995 48.4293 25.8254 48.0549C25.3512 47.6805 25.1686 47.2678 24.9707 46.7737C24.9799 46.7829 25.1073 46.8473 25.184 46.9164Z" fill="#ECBC2E"/>
<path d="M26.6787 47.487C26.5943 47.5468 26.5467 47.7601 26.536 47.7724C26.4424 47.8783 26.3166 47.8798 26.2506 47.9857C25.5447 47.5837 25.5309 47.2292 25.1826 46.9177C25.6506 46.9822 26.2583 47.3827 26.6787 47.487Z" fill="#F5D53B"/>
<path d="M47.8311 48.1993C49.2965 48.4248 51.2206 48.2514 52.7443 48.2698C54.6179 48.2929 56.496 48.2652 58.3711 48.2698C58.388 48.6887 58.7976 48.3374 58.7271 48.6964C58.3588 48.7716 57.4289 49.6171 56.875 49.6585C57.7005 50.0083 59.8779 49.4483 60.2937 48.6964C60.4057 48.4954 60.4257 48.5522 60.3643 48.2698C61.0901 48.2698 61.8036 48.3742 62.537 48.3404L62.6445 47.9844C63.5498 48.5706 61.2803 48.457 61.1852 48.4831C60.9643 48.543 59.7674 49.6539 59.2273 49.6232C56.5988 49.6217 53.7172 50.1679 51.0381 49.7659C50.6345 49.7061 49.7875 49.4575 49.4361 49.2672C49.1231 49.0984 48.6367 48.5031 48.5814 48.4831C48.1948 48.3512 47.3662 48.6857 46.9795 48.2698C46.9887 48.2576 47.0424 48.0366 47.0501 47.9844C47.0716 47.9906 47.0992 47.9783 47.1207 47.9844C47.4061 48.0627 47.446 48.1379 47.8326 48.1977L47.8311 48.1993Z" fill="#302761"/>
<path d="M60.3657 47.9859C60.4839 47.9844 60.6035 47.9874 60.7217 47.9859C61.1452 47.9782 62.3482 47.7941 62.6443 47.9859L62.5369 48.3419C61.8035 48.3756 61.0915 48.2713 60.3642 48.2713C59.6952 48.2713 59.0354 48.2728 58.3694 48.2713C56.4959 48.2667 54.6162 48.2943 52.7427 48.2713V47.9859C53.1692 47.9828 53.5989 47.9874 54.0239 47.9859C54.2832 47.9859 54.5717 47.9169 54.808 47.9153C56.6585 47.903 58.4983 48.0212 60.3626 47.9859H60.3657Z" fill="#4C3B81"/>
<path d="M58.7271 48.6978C59.1506 48.6104 59.8364 48.7623 60.2937 48.6978C59.8779 49.4482 57.7005 50.0082 56.875 49.6599C57.4289 49.62 58.3588 48.7746 58.7271 48.6978Z" fill="#211746"/>
<path d="M52.2471 47.9859C52.3407 47.9859 52.4373 47.9859 52.5325 47.9859C52.6031 47.9859 52.6752 47.9859 52.7458 47.9859V48.2713C51.2221 48.2529 49.2979 48.4263 47.8325 48.2007C48.0182 48.2145 48.2698 47.989 48.2959 47.9874C49.3485 47.8969 51.0824 48.0043 52.2486 47.9874L52.2471 47.9859Z" fill="#7A52A1"/>
<path d="M51.9618 47.9137C52.0523 47.9137 52.2303 47.8692 52.2472 47.9843C51.081 48.0012 49.3471 47.8938 48.2945 47.9843C48.2684 47.9859 48.0168 48.2114 47.8311 48.1976C47.4444 48.1378 47.4045 48.0626 47.1191 47.9843C47.1283 47.949 47.2511 47.8447 47.2618 47.8416C47.9861 47.6866 50.9813 47.9015 51.9618 47.9122V47.9137Z" fill="#4C3B81"/>
<path d="M60.3658 48.2698C60.4256 48.5521 60.4057 48.4953 60.2952 48.6963C59.8379 48.7608 59.152 48.6089 58.7285 48.6963C58.7991 48.3373 58.3894 48.6887 58.3726 48.2698C59.037 48.2713 59.6983 48.2698 60.3673 48.2698H60.3658Z" fill="#302761"/>
<path d="M55.5934 36.9471L55.5228 38.8697C55.3832 38.7838 55.0917 38.7209 55.0242 38.6565C54.7418 38.3879 55.1623 37.4611 54.7388 36.9118C54.4825 36.5788 54.036 36.5896 53.6708 36.5911C53.4989 36.5911 53.3394 36.5942 53.1721 36.5558C53.3839 36.9041 53.4667 37.1404 53.5987 37.5179C53.6386 37.6315 53.6508 38.1654 53.6693 38.1946C53.6861 38.2207 54.1419 38.391 54.2385 38.4432C54.0345 38.6442 53.6447 38.3266 53.812 38.7286C53.545 38.4938 53.1368 38.5997 52.8146 38.658C53.0632 38.2882 53.2043 38.4999 53.0279 37.8386C52.4371 35.6183 49.5509 37.3169 49.4665 38.9787L50.3917 38.658C50.3472 38.7577 50.2414 39.2672 50.249 39.37H50.1784C49.9805 39.1904 49.7427 39.64 49.8225 39.8687C49.5647 39.7152 49.735 39.6446 49.6445 39.5833L49.3238 39.6907C49.3575 40.3566 49.6475 40.8123 50.3211 40.9366C50.18 40.955 49.9529 41.0087 49.8225 41.0793C49.7289 41.0855 49.6307 41.0701 49.5371 41.0793C49.6092 40.7218 49.2286 40.596 49.1811 40.1893C49.1734 40.1203 49.2793 39.9285 49.2516 39.726C49.2286 39.5495 49.1933 39.3316 49.1811 39.2273C49.3713 38.9603 49.3268 38.5045 49.4665 38.1946C49.7028 37.6714 50.6464 36.7323 51.2111 36.5927C51.6898 36.4745 52.0735 36.6878 52.2085 36.6632C52.2376 36.6586 52.2699 36.4622 52.3512 36.45C53.9332 36.2152 54.1894 36.1047 55.5919 36.9486L55.5934 36.9471Z" fill="#D49E31"/>
<path d="M56.8042 38.8697C56.3607 39.5908 56.0646 39.2026 55.5229 38.8697L55.5935 36.947C55.6979 37.0099 56.0216 37.079 56.1275 37.1603C56.8303 37.7004 56.6446 38.1561 56.8042 38.8697Z" fill="#ECBC2E"/>
<path d="M52.8163 38.6565C52.7611 38.7378 52.5156 38.8667 52.4603 39.0125C52.333 39.0063 52.4128 38.8575 52.3897 38.7992C53.1217 37.92 51.5044 36.5405 50.6804 37.6959L50.7157 37.8739C50.8814 37.768 51.5934 37.7021 51.4629 38.0872C50.9443 38.0366 50.6113 38.1777 50.395 38.6565L49.4697 38.9772C49.5526 37.3154 52.4404 35.6183 53.0311 37.8371C53.2076 38.4984 53.0664 38.2867 52.8178 38.6565H52.8163Z" fill="#ECBC2E"/>
<path d="M55.024 38.6565C55.0362 38.7378 54.9565 38.724 54.9534 38.727C54.6296 38.7593 54.4593 38.5629 54.2414 38.4416C54.1447 38.3879 53.689 38.2191 53.6721 38.1931C53.6537 38.1639 53.6415 37.6299 53.6016 37.5164L54.1708 37.4811L53.6721 36.5911C54.0389 36.5911 54.4839 36.5788 54.7401 36.9118C55.1636 37.4611 54.7432 38.3879 55.0255 38.6565H55.024Z" fill="#ECBC2E"/>
<path d="M53.671 36.591L54.1697 37.481L53.6004 37.5163C53.4669 37.1388 53.384 36.9025 53.1738 36.5542C53.3411 36.5926 53.5007 36.591 53.6725 36.5895L53.671 36.591Z" fill="#F3DB6E"/>
<path d="M52.388 38.7975C52.2376 38.4339 51.8555 38.1239 51.4627 38.0856C51.5932 37.7004 50.8797 37.7664 50.7155 37.8723L50.6802 37.6943C51.5042 36.5404 53.1215 37.9198 52.3895 38.7975H52.388Z" fill="#F3DB6E"/>
<path d="M57.0897 39.3684C57.1618 39.9975 56.8611 41.1836 56.3777 41.647C56.3885 41.6209 56.3885 41.222 56.5204 41.1131C56.4514 41.0164 54.3354 41.3708 54.3845 41.8603C53.8644 41.7115 53.338 41.5166 52.8179 41.3616C53.4777 41.3678 54.6055 41.5903 54.5978 40.6497C55.8837 40.5254 55.965 39.6492 57.0897 39.3684Z" fill="#923D20"/>
<path d="M55.5231 38.8698C56.0647 39.2028 56.3609 39.591 56.8043 38.8698C56.8105 38.8974 57.0514 39.0324 57.0897 39.3685C55.965 39.6508 55.8837 40.5254 54.5978 40.6497C54.538 40.6559 54.2848 40.5101 54.0991 40.6497C54.1068 40.6328 54.0915 40.3167 54.1344 40.2937C54.5472 40.0774 55.7578 40.3474 55.5937 39.4038C55.5584 39.1997 55.3896 39.2074 55.3083 39.1552C55.1072 39.0248 55.0336 39.0324 54.8096 39.0125C54.7973 38.9066 54.8894 38.7961 54.9523 38.7271C54.9553 38.724 55.0367 38.7363 55.0228 38.6565C55.0904 38.7209 55.3804 38.7839 55.5215 38.8698H55.5231Z" fill="#B4802C"/>
<path d="M56.3759 41.6471C56.2716 41.8895 56.0936 42.0721 55.8772 42.2164C55.3877 42.0844 54.8722 42 54.3812 41.8604C54.3336 41.3709 56.4496 41.0164 56.5171 41.1131C56.3851 41.2221 56.3851 41.6225 56.3744 41.6471H56.3759Z" fill="#AC5528"/>
<path d="M49.2549 39.7244C49.281 39.9254 49.1751 40.1187 49.1843 40.1878C49.2319 40.5944 49.6124 40.7202 49.5403 41.0777C49.3822 41.0931 49.2595 41.1284 49.1137 41.1483C49.1889 40.7064 48.6196 39.9085 49.2564 39.7244H49.2549Z" fill="#BE7839"/>
<path d="M51.6055 40.6498C51.4322 40.9582 52.7057 41.1393 52.8515 41.1485C53.674 41.2037 53.789 41.3311 54.0975 40.6498C54.2831 40.5102 54.5363 40.6559 54.5961 40.6498C54.6038 41.5904 53.4745 41.3679 52.8162 41.3618C52.7932 41.3618 52.7686 41.3618 52.7456 41.3618C52.7257 41.2375 52.5538 41.3019 52.4602 41.2912C52.4372 41.2881 52.4111 41.2958 52.3896 41.2912C51.3002 41.0748 51.0455 41.0104 49.8977 41.0779C49.8747 41.0779 49.8502 41.0764 49.8271 41.0779C49.9576 41.0073 50.1847 40.9536 50.3258 40.9352C50.4578 40.9183 50.8291 40.9782 50.8951 40.8999C50.8782 40.725 50.7601 40.593 50.6818 40.4365C51.0317 40.5086 51.2035 40.6989 51.6071 40.6498H51.6055Z" fill="#9D5F28"/>
<path d="M52.7444 41.3617C52.6539 41.3602 52.4774 41.4078 52.459 41.2912C52.551 41.3034 52.7244 41.2375 52.7444 41.3617Z" fill="#544C66"/>
<path d="M54.9521 38.7271C54.8907 38.7946 54.7971 38.9067 54.8094 39.0125C54.0023 38.9419 54.5853 39.1291 54.5961 39.2611C54.6283 39.7015 54.3122 39.7306 54.4887 40.0084C55.0948 39.7061 55.3756 40.0053 55.3081 39.1537C55.3894 39.2059 55.5566 39.1982 55.5935 39.4023C55.7577 40.3459 54.547 40.0759 54.1342 40.2922C54.0913 40.3153 54.1066 40.6313 54.0989 40.6482C53.7905 41.3295 53.6754 41.2022 52.853 41.1469C52.7057 41.1377 51.4336 40.9566 51.607 40.6482C51.9016 40.6129 52.388 40.2339 52.4617 39.9363C52.965 39.8795 54.2969 40.3122 54.1711 39.4023C54.1664 39.3639 53.8442 38.7517 53.8151 38.7256C53.6478 38.3236 54.0376 38.6427 54.2416 38.4402C54.4595 38.5614 54.6298 38.7578 54.9536 38.7256L54.9521 38.7271Z" fill="#BD9431"/>
<path d="M53.8138 38.7271C53.843 38.7517 54.1652 39.3654 54.1698 39.4038C54.2956 40.3137 52.9638 39.881 52.4605 39.9378C52.4743 39.8856 52.3561 39.8488 52.3899 39.7245C52.4298 39.5711 52.3976 39.1782 52.4605 39.0125C52.5157 38.8668 52.7612 38.7379 52.8165 38.6565C53.1387 38.5982 53.5468 38.4924 53.8138 38.7271Z" fill="#C8B02E"/>
<path d="M49.8259 39.8672C50.0775 40.0176 50.0392 39.8319 50.2525 39.7245C50.3599 40.0068 50.5732 40.2262 50.679 40.4365C50.7573 40.5914 50.877 40.7249 50.8923 40.8999C50.8264 40.9797 50.4535 40.9183 50.3231 40.9352C49.6494 40.8109 49.3594 40.3551 49.3257 39.6892L49.6464 39.5818C49.7369 39.6432 49.5666 39.7122 49.8244 39.8672H49.8259Z" fill="#CFA62B"/>
<path d="M52.3881 39.7244C52.3558 39.8487 52.4725 39.8855 52.4586 39.9377C52.385 40.2354 51.8986 40.6144 51.604 40.6497C51.2004 40.6988 51.027 40.507 50.6787 40.4364C50.5728 40.2262 50.3595 40.0067 50.2521 39.7244C50.2122 39.6201 50.177 39.4835 50.1816 39.3684H50.2521C50.3012 39.9653 50.4731 39.5357 50.5728 39.5817C51.3293 39.9331 51.2541 40.5898 52.3896 39.7244H52.3881Z" fill="#D8532C"/>
<path d="M50.1819 39.3685C50.1773 39.4835 50.2126 39.6201 50.2525 39.7244C50.0392 39.8319 50.076 40.016 49.8259 39.8671C49.7461 39.6385 49.9839 39.1905 50.1819 39.3685Z" fill="#D0B679"/>
<path d="M54.8096 39.0124C55.0336 39.0324 55.1073 39.0247 55.3083 39.1551C55.3758 40.0067 55.095 39.7075 54.4889 40.0098C54.3125 39.7305 54.6286 39.7014 54.5963 39.2625C54.5871 39.1306 54.004 38.9434 54.8096 39.014V39.0124Z" fill="#CFA62B"/>
<path d="M51.4628 38.0857C51.8571 38.1241 52.2376 38.434 52.388 38.7977C52.4126 38.856 52.3312 39.0064 52.4586 39.011C52.3957 39.1767 52.4279 39.5695 52.388 39.7229C51.2525 40.5884 51.3277 39.9316 50.5713 39.5802C50.4715 39.5342 50.2997 39.9623 50.2506 39.367C50.2414 39.2641 50.3472 38.7547 50.3933 38.655C50.6112 38.1747 50.9426 38.0351 51.4612 38.0857H51.4628Z" fill="#F36F37"/>
<path d="M51.0717 38.371C51.1407 38.3633 51.2773 38.3495 51.3202 38.4063C50.7602 39.2441 50.1479 38.4677 51.0717 38.371Z" fill="#F58876"/>
<path d="M60.0802 46.0615C59.9083 45.9234 59.4188 45.1593 59.2255 45.0642C59.2255 45.0166 59.2286 44.969 59.2255 44.9215C60.3011 44.7803 61.3261 45.8037 62.2882 46.2748C62.3005 46.281 62.3051 46.4528 62.4662 46.4881C62.6258 46.2012 62.2974 46.2917 62.2882 46.2748C62.2652 46.2349 62.3634 46.1735 62.3588 46.1674C61.6376 45.1946 60.3472 44.5977 59.1534 44.5655C59.1227 44.435 59.0398 44.2647 59.0107 44.1389C58.9646 43.9394 58.8818 43.855 58.868 43.7829C59.1319 43.7154 58.8311 43.6371 58.9754 43.5696C59.1595 43.4822 59.6229 43.3993 59.6874 43.3563C60.0249 43.1323 59.6152 42.9758 59.402 43.2858C59.1212 43.1308 60.0986 42.718 60.186 42.6444C60.631 42.27 61.5486 41.2327 61.432 40.6496C61.4197 40.5898 61.4596 40.4379 61.3967 40.4363C61.2141 40.7095 60.9471 40.9565 60.6847 41.1483C60.674 41.156 60.5083 41.0639 60.3993 41.1483C59.9252 41.5135 59.5646 42.293 59.224 42.8576C59.0828 42.9896 58.9524 43.1323 58.7974 43.2489C59.1534 43.4914 58.782 43.3395 58.868 43.7829C58.8511 43.7875 58.8158 43.786 58.7974 43.7829L58.2281 43.0709C56.2011 42.7426 54.1834 41.8296 52.1748 41.5043L52.3881 41.291C52.4111 41.2956 52.4357 41.2879 52.4587 41.291C52.4755 41.4076 52.6535 41.36 52.7441 41.3616C52.7671 41.3616 52.7916 41.3616 52.8147 41.3616C53.3348 41.515 53.8611 41.7114 54.3813 41.8603C54.8708 41.9999 55.3879 42.0843 55.8774 42.2163C56.5341 42.3943 57.8414 43.0832 58.5473 42.8576C58.9002 42.7441 60.6663 39.4696 61.8939 39.7949C62.0151 39.8839 61.7297 41.9493 61.6453 42.2516C61.5379 42.6382 60.852 43.6632 60.8612 43.7476C60.8735 43.8504 61.9875 44.9491 62.2146 45.3143C62.5445 45.8452 62.7792 46.439 62.9986 47.0236C62.0473 47.1586 60.8228 46.663 60.0786 46.0615H60.0802Z" fill="#225C98"/>
<path d="M51.6762 43.5697V43.6403L51.8895 44.4243C49.9454 43.7998 49.7244 44.6837 48.0795 44.8509C47.6499 44.8954 47.0622 44.8862 46.6555 44.7082C46.5573 44.7635 46.5804 45.3251 46.5481 45.4202C46.3149 46.1076 45.8638 46.6017 45.5508 47.237C46.0755 47.2523 47.0069 47.3398 47.2601 47.8431C47.2509 47.8446 47.1281 47.9505 47.1174 47.9858C47.0959 47.9796 47.0683 47.9919 47.0468 47.9858C46.1047 47.7234 45.1349 47.4748 44.1989 47.2017C43.1555 46.8978 42.1136 46.8395 42.1336 45.635C42.5448 45.77 45.092 46.7183 45.3022 46.6324C45.6045 46.5096 46.1323 44.9491 46.1216 44.567C46.2412 45.1793 46.1937 45.8115 45.7656 46.3117C45.7917 46.5787 46.0402 46.1874 46.051 46.169C46.3195 45.6856 46.608 44.3476 46.407 43.8551C47.6713 43.5819 48.7807 43.4868 50.0742 43.4991C50.6803 43.5052 50.9182 43.8305 51.6762 43.5697Z" fill="#9BC0DE"/>
<path d="M49.5401 41.0777C49.6321 41.0685 49.7319 41.0839 49.8255 41.0777C49.8485 41.0762 49.873 41.0777 49.8961 41.0777L45.48 42.2884C45.8283 42.0874 46.0953 41.9309 46.4774 41.7897C47.2262 41.515 48.3202 41.2603 49.112 41.1483C49.2593 41.1284 49.382 41.0931 49.5385 41.0777H49.5401Z" fill="#225C98"/>
<path d="M52.175 41.5043C54.1835 41.8296 56.2013 42.7426 58.2283 43.071C57.4227 43.3548 56.2611 43.4546 55.4157 43.3564C54.9078 43.2965 53.5958 42.6858 53.2797 42.715C53.1601 42.7257 52.4297 43.1523 52.1044 43.2137C50.3797 43.5359 48.8729 42.583 47.2617 42.4296C47.274 42.3452 47.4489 42.2378 47.5103 42.2163C49.034 41.6961 50.5792 41.2465 52.175 41.5043Z" fill="#5697C9"/>
<path d="M58.2282 43.071L58.7975 43.7829C58.5397 43.74 58.3264 43.3594 58.2635 43.3564C58.1668 43.3518 56.8641 44.0699 56.4836 44.1405C55.0228 44.4105 54.5747 43.1216 53.3856 44.4965C53.2689 44.4811 53.2091 44.4243 53.1723 44.4259L53.137 43.8566L52.959 44.3553C52.8516 43.6602 52.6429 43.6249 52.0337 43.6433C52.0153 43.6433 51.8128 43.5021 51.6777 43.5727C51.9493 43.4791 52.0383 43.5267 52.1043 43.2167C52.4296 43.1554 53.1585 42.7288 53.2797 42.7181C53.5958 42.6889 54.9077 43.2996 55.4156 43.3594C56.2611 43.4576 57.4226 43.3594 58.2282 43.074V43.071Z" fill="#9BC0DE"/>
<path d="M58.7992 43.7828C58.8176 43.7859 58.8529 43.7874 58.8698 43.7828C58.8836 43.8549 58.9665 43.9393 59.0125 44.1388C58.7041 44.2692 57.8494 44.8431 57.5885 44.4242C57.5839 44.3291 57.6269 43.9378 57.4105 43.9976C57.1788 44.0605 57.5425 44.5914 56.9471 44.9229C55.8301 45.5474 55.4787 44.7541 54.9892 44.7096C54.7176 44.685 54.5151 45.0548 54.1698 44.8523C54.0256 44.7326 53.9228 44.5654 53.7064 44.4963C53.6328 44.4733 53.4839 44.5086 53.3857 44.4963C54.5749 43.1215 55.023 44.4104 56.4838 44.1403C56.8643 44.0697 58.167 43.3516 58.2637 43.3562C58.3266 43.3593 58.5399 43.7398 58.7977 43.7828H58.7992Z" fill="#CDE0F0"/>
<path d="M52.3881 41.2909L52.1748 41.5042C50.579 41.2464 49.0338 41.696 47.5101 42.2162C47.4488 42.2377 47.2723 42.3451 47.2616 42.4295C46.2964 42.3374 45.9189 42.675 45.0535 42.9988C45.0106 42.9773 44.6484 42.8545 44.627 42.8561C44.8709 42.6198 45.1901 42.454 45.4816 42.2868L49.8977 41.0761C51.047 41.0086 51.3017 41.0731 52.3896 41.2894L52.3881 41.2909Z" fill="#367FBB"/>
<path d="M58.8694 43.783C58.7835 43.3395 59.1548 43.4914 58.7988 43.249C58.9553 43.1308 59.0858 42.9897 59.2254 42.8577C59.9834 42.1427 60.8243 41.5151 61.4334 40.6497C61.5501 41.2312 60.6309 42.2685 60.1875 42.6444C60.1016 42.7165 59.1241 43.1308 59.4034 43.2858C59.6151 42.9758 60.0264 43.1339 59.6888 43.3564C59.6243 43.3994 59.161 43.4822 58.9768 43.5697C58.8326 43.6372 59.1333 43.7154 58.8694 43.783Z" fill="#225C98"/>
<path d="M59.1551 44.567C59.1843 44.6912 59.2195 44.7894 59.2257 44.9229C59.2287 44.9705 59.2257 45.0181 59.2257 45.0656C59.195 45.0503 58.5828 44.9874 58.549 44.9951C58.2989 45.0488 58.0334 45.5152 57.7296 45.4937C57.5424 44.9061 57.6145 44.9536 57.5869 44.4258C57.8478 44.8462 58.704 44.2708 59.0109 44.1404C59.04 44.2677 59.1229 44.4365 59.1536 44.567H59.1551Z" fill="#CDE0F0"/>
<path d="M62.2881 46.2762C61.326 45.8052 60.301 44.7817 59.2254 44.9229C59.2177 44.7894 59.1839 44.6912 59.1548 44.5669C60.3486 44.5991 61.6375 45.1975 62.3602 46.1688C62.3633 46.1734 62.2651 46.2348 62.2896 46.2762H62.2881Z" fill="#225C98"/>
<path d="M61.4336 40.6496C60.8245 41.515 59.9851 42.1426 59.2256 42.8576C59.5662 42.2929 59.9253 41.5134 60.401 41.1483C60.5099 41.0639 60.6741 41.1559 60.6864 41.1483C60.9487 40.9564 61.2157 40.7094 61.3983 40.4363C61.4612 40.4378 61.4214 40.5897 61.4336 40.6496Z" fill="#225C98"/>
<path d="M62.2881 46.2764C62.2988 46.2932 62.6257 46.2027 62.4661 46.4897C62.305 46.4544 62.3004 46.2825 62.2881 46.2764Z" fill="#225C98"/>
<path d="M56.9469 44.923L57.0175 45.3496C56.7673 45.1701 56.2794 45.3327 55.9848 45.279C55.971 45.658 55.9357 45.79 55.7362 46.1337C55.391 46.726 54.7373 47.1372 54.811 47.9136C54.5746 47.9136 54.2877 47.9842 54.0269 47.9842C54.8125 47.3628 55.0641 47.2063 54.8815 46.1322C54.8033 45.6749 54.7112 45.566 54.455 45.2069C54.3921 45.1194 54.2386 44.9077 54.1696 44.8509C54.5133 45.0535 54.7174 44.6837 54.9889 44.7082C55.4784 44.7527 55.8313 45.546 56.9469 44.9215V44.923Z" fill="#CDE0F0"/>
<path d="M51.7483 45.1364C50.9166 46.0954 51.222 47.0191 51.9615 47.9137C50.981 47.9029 47.9843 47.6881 47.2616 47.8431C47.0084 47.3413 46.077 47.2539 45.5522 47.237C45.8653 46.6017 46.3164 46.1076 46.5496 45.4202L47.191 45.5276C46.8995 45.6749 46.9885 45.7133 46.9056 45.9189C46.6432 46.5695 47.3168 46.4084 47.725 46.6309C47.9874 46.7736 48.7884 47.3705 49.0062 47.2723C49.3484 46.3885 50.243 45.6243 50.2522 44.7083C50.7509 44.8586 51.1989 45.2223 51.7483 45.1348V45.1364Z" fill="#CDE0F0"/>
<path d="M47.2617 42.4296C48.8728 42.5831 50.3796 43.536 52.1043 43.2137C52.0368 43.5237 51.9494 43.4761 51.6778 43.5697C50.9198 43.8306 50.6819 43.5037 50.0758 43.4991C48.7823 43.4868 47.6729 43.582 46.4085 43.8551C46.2996 43.5881 45.7073 42.8976 45.3406 43.2137C45.3114 43.1876 45.0721 43.0081 45.0552 43.0004C45.9206 42.6767 46.2981 42.3391 47.2632 42.4312L47.2617 42.4296Z" fill="#76ABD4"/>
<path d="M51.8897 44.4244C52.0278 44.4689 52.1766 44.5855 52.3163 44.6376C52.281 44.6515 51.7884 45.0888 51.747 45.1363C51.1992 45.2238 50.7511 44.8586 50.2509 44.7098C50.2371 44.7052 50.3414 44.5302 50.0023 44.5671L46.9043 45.9204C46.9872 45.7148 46.8982 45.6764 47.1897 45.5291L46.5483 45.4217C46.5806 45.3266 46.5575 44.7635 46.6557 44.7098C47.0624 44.8878 47.6501 44.8954 48.0797 44.8525C49.7246 44.6852 49.9456 43.7998 51.8897 44.4259V44.4244Z" fill="#CDE0F0"/>
<path d="M46.4069 43.855C46.6079 44.3476 46.3194 45.6871 46.0509 46.1689C46.0402 46.1874 45.7916 46.5786 45.7655 46.3116C46.1936 45.8114 46.2412 45.1777 46.1215 44.567C46.0371 44.1374 45.6688 43.499 45.3374 43.2136C45.7041 42.8975 46.2964 43.5865 46.4054 43.855H46.4069Z" fill="#225C98"/>
<path d="M45.0537 43.0004C45.0691 43.0081 45.3084 43.1892 45.3391 43.2137C45.6706 43.4991 46.0388 44.1374 46.1232 44.5671C46.1355 44.9491 45.6061 46.5097 45.3038 46.6324C45.0921 46.7183 42.5465 45.7701 42.1353 45.635C42.1506 44.7205 43.3505 43.7492 44.13 43.2137C44.2451 43.1339 44.5305 42.8639 44.5566 42.8577C44.5781 42.8531 44.6041 42.8608 44.6272 42.8577C44.6502 42.8546 45.0108 42.9789 45.0537 43.0004Z" fill="#CDE0F0"/>
<path d="M43.593 44.4244C44.3526 44.142 44.3649 45.19 43.6636 44.9936C43.4657 44.9384 43.2908 44.5364 43.593 44.4244Z" fill="#1C447C"/>
<path d="M59.2258 45.0656C59.4191 45.1607 59.9086 45.9249 60.0804 46.063C59.9531 46.0691 60.0329 46.218 60.0099 46.2763C59.7996 46.7811 59.4344 46.4343 59.0846 46.419C59.0769 46.419 59.1214 46.3576 58.9419 46.3484V46.2057C59.0094 46.1995 59.4375 46.0553 59.4406 45.9571C58.8851 46.1075 58.4401 45.3403 58.0872 45.9924C58.0059 45.9586 57.7911 46.043 57.7312 45.9571C57.6959 45.908 57.7634 45.595 57.7312 45.4937C58.035 45.5152 58.299 45.0503 58.5506 44.995C58.5844 44.9873 59.1966 45.0518 59.2273 45.0656H59.2258Z" fill="#EB3F4A"/>
<path d="M60.7218 47.9855C60.6037 47.987 60.484 47.9839 60.3658 47.9855C59.8211 47.832 60.1157 47.0372 59.7597 46.6321C59.5127 46.5339 58.4754 47.4791 58.3711 47.3088C58.1363 46.9283 58.9818 46.6966 59.0831 46.4188C59.4329 46.4357 59.7981 46.7825 60.0083 46.2761C60.5868 46.7656 60.9489 47.1569 60.7203 47.9855H60.7218Z" fill="#ECBC2E"/>
<path d="M57.1604 45.9203C57.1681 46.0154 57.3368 46.0645 57.3031 46.1689C57.2525 46.3239 56.6602 46.4006 56.6264 46.6323C57.2156 46.1842 57.7757 46.7995 57.8371 46.775C57.8678 46.7627 57.8816 46.488 58.0504 46.419C58.1394 46.3822 58.8068 46.3407 58.9403 46.3484C59.1199 46.3576 59.0754 46.419 59.083 46.419C58.9818 46.6967 58.1363 46.9284 58.3711 47.309C58.4754 47.4793 59.5127 46.5341 59.7597 46.6323C60.1142 47.0374 59.8196 47.8322 60.3658 47.9856C58.5015 48.0209 56.6617 47.9028 54.8112 47.9151C54.7391 47.1371 55.3912 46.7274 55.7364 46.1351H55.807C56.0848 46.5648 55.3252 46.7412 55.5584 47.1325L56.4484 46.5985C56.1016 46.5908 56.3303 46.2057 56.0218 46.0645C56.4285 45.9479 56.7338 45.842 57.1619 45.9218L57.1604 45.9203Z" fill="#F5D53B"/>
<path d="M57.587 44.4242C57.6146 44.952 57.5425 44.9045 57.7297 45.4921C57.7619 45.5934 57.6944 45.9064 57.7297 45.9555C57.7911 46.0415 58.0044 45.9586 58.0857 45.9908C58.2913 46.0737 58.6427 46.2302 58.9404 46.2041V46.3468C58.8054 46.3392 58.1394 46.3821 58.0504 46.4174C57.8816 46.4865 57.8663 46.7611 57.8371 46.7734C57.7758 46.7979 57.2157 46.1826 56.6265 46.6307C56.6602 46.399 57.2525 46.3238 57.3031 46.1673C57.3369 46.0614 57.1681 46.0139 57.1604 45.9187C57.1497 45.776 57.3523 45.5888 57.0177 45.3494L56.9472 44.9229C57.541 44.5899 57.1789 44.059 57.4106 43.9976C57.6269 43.9393 57.584 44.3291 57.5886 44.4242H57.587Z" fill="#3A7F3D"/>
<path d="M58.9401 46.2041C58.644 46.2286 58.2911 46.0737 58.0854 45.9908C58.4368 45.3387 58.8834 46.1059 59.4388 45.9555C59.4357 46.0537 59.0076 46.1995 58.9401 46.2041Z" fill="#F5D53B"/>
<path d="M57.0176 45.3494C57.3505 45.5887 57.1495 45.7775 57.1603 45.9186C56.7337 45.8388 56.4268 45.9447 56.0202 46.0613C55.9496 46.0813 55.8867 46.0705 55.8069 46.1319H55.7363C55.9358 45.7882 55.9726 45.6562 55.9849 45.2772C56.2795 45.3309 56.7675 45.1683 57.0176 45.3478V45.3494Z" fill="#EB3F4A"/>
<path d="M56.0203 46.0615C56.3287 46.2027 56.1001 46.5878 56.4469 46.5955L55.5569 47.1295C55.3237 46.7382 56.0832 46.5617 55.8055 46.1321C55.8853 46.0692 55.9482 46.0815 56.0188 46.0615H56.0203Z" fill="#F9F070"/>
<path d="M50.2522 44.7098C50.243 45.6243 49.3484 46.39 49.0062 47.2738C48.7868 47.372 47.9874 46.7767 47.725 46.6324C47.3184 46.4099 46.6432 46.5711 46.9056 45.9205L50.0036 44.5671C50.3443 44.5303 50.2384 44.7052 50.2522 44.7098Z" fill="#225C98"/>
<path d="M54.8816 46.1336C55.0642 47.2062 54.8125 47.3627 54.0269 47.9857C53.6003 47.9872 53.1707 47.9826 52.7456 47.9857C52.675 47.9857 52.6029 47.9857 52.5323 47.9857C52.4786 47.8614 52.3973 47.869 52.3896 47.7003C52.3896 47.6895 52.448 47.5253 52.4602 47.487C53.2934 47.1294 53.8167 46.4574 54.277 45.707C54.5501 45.8651 54.4964 46.2916 54.8831 46.1336H54.8816Z" fill="#DD242D"/>
<path d="M52.8163 44.5669C52.7319 44.5761 52.3406 44.6283 52.3176 44.6375C52.1764 44.5853 52.0276 44.4687 51.891 44.4242L51.6777 43.6401C52.1196 43.8212 52.5416 44.1757 52.8178 44.5654L52.8163 44.5669Z" fill="#3E9444"/>
<path d="M52.0323 43.6402L52.9576 44.3521L53.1356 43.8534L53.1709 44.4227C53.1555 44.4227 52.9039 44.5194 52.8855 44.5654C52.8624 44.5654 52.8379 44.5623 52.8149 44.5654C52.5387 44.1741 52.1167 43.8197 51.6748 43.6402V43.5696C51.8098 43.5005 52.0124 43.6417 52.0308 43.6402H52.0323Z" fill="#93A650"/>
<path d="M52.959 44.3537L52.0337 43.6418C52.6429 43.6233 52.8515 43.6586 52.959 44.3537Z" fill="#499157"/>
<path d="M53.3858 44.4947C53.4825 44.507 53.6329 44.4717 53.7065 44.4947C53.9213 44.5638 54.0257 44.731 54.1699 44.8507C54.239 44.9075 54.3909 45.1192 54.4553 45.2067C53.9351 44.952 54.0809 44.7418 53.4579 44.708C53.504 44.4932 53.0743 44.5561 52.8887 44.5653C52.9071 44.5193 53.1572 44.4226 53.1741 44.4226C53.2124 44.4226 53.2707 44.4794 53.3874 44.4932L53.3858 44.4947Z" fill="#EFAA8F"/>
<path d="M53.3151 44.7097C53.0267 45.078 53.7248 44.9967 53.8138 45.2437C54.1391 46.1429 52.6569 46.9316 52.4605 47.487C52.4467 47.5254 52.3883 47.6896 52.3899 47.7003C51.8697 47.5239 52.1873 46.4498 52.1766 45.9204C52.2625 45.8728 52.3991 45.5859 52.462 45.4938C52.6645 45.1946 52.6876 44.88 52.7106 44.8524C52.7428 44.8156 53.2139 44.7189 53.3167 44.7097H53.3151Z" fill="#F36F37"/>
<path d="M53.4579 44.7097C54.0809 44.7434 53.9351 44.9537 54.4553 45.2084C54.7131 45.5674 54.8051 45.6764 54.8818 46.1336C54.4952 46.2917 54.5489 45.8651 54.2757 45.7071C53.817 46.4574 53.2937 47.131 52.459 47.487C52.6554 46.9315 54.1376 46.1428 53.8124 45.2437C53.7234 44.9966 53.0252 45.0764 53.3137 44.7097C53.3597 44.7051 53.4103 44.7066 53.4564 44.7097H53.4579Z" fill="#D8532C"/>
<path d="M52.8869 44.5669C53.0726 44.5577 53.5038 44.4948 53.4562 44.7096C53.4102 44.7065 53.3595 44.705 53.3135 44.7096C53.2122 44.7188 52.7396 44.8155 52.7074 44.8523C52.6829 44.8799 52.6598 45.1945 52.4588 45.4937C52.0369 44.5868 51.354 46.3806 52.1734 45.9203C52.1842 46.4512 51.8665 47.5253 52.3867 47.7002C52.3928 47.869 52.4757 47.8613 52.5294 47.9856C52.4358 47.9856 52.3391 47.9856 52.244 47.9856C52.2271 47.869 52.0491 47.915 51.9586 47.915C51.219 47.0204 50.9137 46.0967 51.7453 45.1377C51.7868 45.0901 52.2793 44.6528 52.3146 44.639C52.3376 44.6298 52.7289 44.5776 52.8133 44.5684C52.8363 44.5654 52.8609 44.5684 52.8839 44.5684L52.8869 44.5669Z" fill="#F8984D"/>
<path d="M52.4605 45.4921C52.3976 45.5857 52.261 45.8712 52.1751 45.9187C51.3557 46.3775 52.0386 44.5838 52.4605 45.4921Z" fill="#EFB274"/>
<path d="M51.6411 45.9202C51.8958 46.0982 51.9173 46.5677 51.6411 46.7748V45.9202Z" fill="#FDC890"/>
<path d="M52.4959 44.9933C52.6554 44.9995 52.6324 45.1759 52.5664 45.2066C52.525 45.2266 52.2703 44.9857 52.4959 44.9933Z" fill="#FDC890"/>
</g>
</g>
<defs>
<filter id="filter0_i_345_21659" x="0" y="0" width="70" height="70" filterUnits="userSpaceOnUse" color-interpolation-filters="sRGB">
<feFlood flood-opacity="0" result="BackgroundImageFix"/>
<feBlend mode="normal" in="SourceGraphic" in2="BackgroundImageFix" result="shape"/>
<feColorMatrix in="SourceAlpha" type="matrix" values="0 0 0 0 0 0 0 0 0 0 0 0 0 0 0 0 0 0 127 0" result="hardAlpha"/>
<feMorphology radius="3" operator="erode" in="SourceAlpha" result="effect1_innerShadow_345_21659"/>
<feOffset/>
<feGaussianBlur stdDeviation="1"/>
<feComposite in2="hardAlpha" operator="arithmetic" k2="-1" k3="1"/>
<feColorMatrix type="matrix" values="0 0 0 0 0 0 0 0 0 0 0 0 0 0 0 0 0 0 0.08 0"/>
<feBlend mode="normal" in2="shape" result="effect1_innerShadow_345_21659"/>
</filter>
<linearGradient id="paint0_linear_345_21659" x1="48.211" y1="31.8744" x2="47.2059" y2="40.7188" gradientUnits="userSpaceOnUse">
<stop stop-color="#F9A553"/>
<stop offset="1" stop-color="#F38945"/>
</linearGradient>
<linearGradient id="paint1_linear_345_21659" x1="42.8253" y1="31.5659" x2="34.1589" y2="43.9288" gradientUnits="userSpaceOnUse">
<stop stop-color="#FDD86B"/>
<stop offset="1" stop-color="#D6AC4B"/>
</linearGradient>
<linearGradient id="paint2_linear_345_21659" x1="45.7283" y1="31.7837" x2="45.4444" y2="41.3233" gradientUnits="userSpaceOnUse">
<stop stop-color="#F68E46"/>
<stop offset="1" stop-color="#ED7236"/>
</linearGradient>
<clipPath id="clip0_345_21659">
<rect width="55" height="32.8505" fill="white" transform="translate(8 18)"/>
</clipPath>
</defs>
</svg>
