<svg width="70" height="70" viewBox="0 0 70 70" fill="none" xmlns="http://www.w3.org/2000/svg">
<g filter="url(#filter0_i_289_3600)">
<path d="M0 35C0 15.67 15.67 0 35 0C54.33 0 70 15.67 70 35C70 54.33 54.33 70 35 70C15.67 70 0 54.33 0 35Z" fill="white" fill-opacity="0.75"/>
<path d="M13.9002 19.79C12.1651 20.6539 10.5182 21.7101 8.76214 22.5409C8.74954 22.5141 8.77055 22.4541 8.68652 22.4665C8.81256 21.832 9.09824 21.2368 9.06463 20.5713L9.25368 20.3852C9.3146 20.346 9.92586 20.2716 10.0477 20.2364C11.0959 19.9409 12.7511 19.5771 13.8245 19.418L13.9002 19.79Z" fill="#CEB5B7"/>
<path d="M16.0153 20.1622C17.0488 21.0158 17.2231 21.334 17.3743 22.6155L14.4272 21.797C14.423 21.3113 14.5638 20.9 14.4272 20.4598C14.4776 20.156 14.5533 19.8232 14.6541 19.5297C14.5974 19.321 14.0323 19.724 13.8979 19.7901L13.8223 19.4181C14.0239 19.3892 14.6478 19.2466 14.7675 19.2693C14.8431 19.2838 15.8808 20.0526 16.0132 20.1622H16.0153Z" fill="#F6956F"/>
<path d="M9.97196 31.3869L14.2781 36.2191C13.7362 36.0352 12.9863 35.4296 12.4275 35.2518C12.2448 35.194 12.1083 35.101 12.0872 35.4006C11.6503 35.1051 10.7639 34.6731 10.4257 34.359C10.0224 33.9849 7.75375 29.9794 7.5542 29.3779L9.66948 31.05L9.14013 24.9177C9.66108 26.8585 9.30398 29.4523 9.97196 31.3848V31.3869Z" fill="#F0A271"/>
<path d="M14.1268 21.7224C14.0491 21.9808 14.1457 21.7617 14.2024 21.9828C14.1541 22.0593 14.1604 21.9022 13.9756 22.02C13.6353 22.2371 13.2572 22.4851 12.9169 22.6897C12.2594 23.0844 11.5578 23.4461 10.8772 23.8058C10.2828 24.1179 9.56226 24.3948 9.06442 24.8474H8.9888C9.02031 24.4051 8.86487 23.5598 8.76194 23.101C8.90688 23.4358 8.6107 23.7314 8.6107 23.7706C8.6107 23.8264 8.75984 23.7892 8.76194 23.845C8.78085 24.2439 8.80605 24.6883 8.91318 25.0707C8.84176 25.5977 8.48467 26.7262 8.2326 27.1892C8.22209 27.2098 7.92591 27.5012 7.85449 27.4496C8.15698 25.8023 8.35863 24.1055 8.68632 22.4685C8.77034 22.4561 8.74934 22.5161 8.76194 22.5429C8.78505 22.5905 8.71153 22.7166 8.87537 22.6918L14.1268 21.7245V21.7224Z" fill="#DC784F"/>
<path d="M9.14018 24.9199L9.66953 31.0521L7.55425 29.3801C7.361 28.7972 7.737 28.0945 7.85673 27.4476C7.92815 27.4992 8.22433 27.2078 8.23484 27.1872C8.48691 26.7242 8.844 25.5957 8.91542 25.0687C8.93223 24.9426 8.98684 24.8971 8.99104 24.8454H9.06666C9.14018 24.8372 9.12968 24.8723 9.14229 24.9199H9.14018Z" fill="#DC784F"/>
<path d="M17.3765 22.6153C17.4689 23.3883 17.3618 24.151 17.6033 24.8454C17.6033 24.8702 17.6033 24.895 17.6033 24.9198C17.2735 24.6346 16.929 24.3329 16.6203 24.027C15.9586 23.3718 15.215 22.4211 14.3537 22.0945C14.3264 21.8878 14.4294 21.8134 14.4294 21.7969L17.3765 22.6153Z" fill="#CF3F2D"/>
<path d="M14.4296 20.4595C14.3539 20.9121 14.2594 21.2841 14.1271 21.7223L8.87564 22.6896C8.71179 22.7164 8.78531 22.5883 8.76221 22.5408C10.5183 21.7099 12.1651 20.6538 13.9002 19.7898C14.0347 19.7237 14.5976 19.3207 14.6564 19.5294C14.5556 19.8229 14.48 20.1536 14.4296 20.4595Z" fill="#D6D8D9"/>
<path d="M14.429 21.7968C14.429 21.8113 14.3261 21.8878 14.3534 22.0944C14.3618 22.1606 14.4878 22.7331 14.5046 22.7641C14.4311 22.8323 14.3135 22.8199 14.2778 22.8385C14.1307 22.8922 13.6098 22.7476 13.5594 22.7641C13.1729 22.8881 11.4084 23.7231 10.9526 23.9525L10.877 23.8037C11.5575 23.4461 12.2591 23.0844 12.9166 22.6876L13.9753 22.018C14.1602 21.9002 14.1539 22.0572 14.2022 21.9808C14.1455 21.7596 14.0488 21.9808 14.1265 21.7203C14.2589 21.2801 14.3534 20.9102 14.429 20.4575C14.5656 20.8998 14.4248 21.3111 14.429 21.7948V21.7968Z" fill="#CF5A47"/>
<path d="M19.4916 35.0288C19.8004 35.3202 20.1974 36.7856 20.399 37.2589L19.4916 38.8938C18.7732 38.621 18.0254 38.4473 17.3007 38.1497C17.3742 37.5545 14.6225 36.6368 14.6561 36.4033C14.9354 36.2544 15.2085 36.0664 15.4879 35.9196C15.8303 35.7419 17.4897 34.942 17.7544 34.8779C18.2586 34.7581 19.1282 34.6837 19.4916 35.0268V35.0288Z" fill="#CF5A47"/>
<path d="M14.2783 36.2192C14.3644 36.2481 14.4064 36.3081 14.4674 36.368L15.4882 35.9216C15.2089 36.0663 14.9379 36.2564 14.6564 36.4052C14.6228 36.6388 17.3746 37.5564 17.301 38.1517C15.2929 37.3312 13.8792 36.6119 12.0874 35.4007C12.1084 35.1011 12.2449 35.1941 12.4277 35.2519C12.9864 35.4297 13.7364 36.0353 14.2783 36.2192Z" fill="#DC784F"/>
<path d="M21.607 39.7864C21.7162 40.0758 21.7897 40.4788 21.9095 40.7537C21.0881 39.6479 20.7752 39.3834 19.4917 38.8956L20.3991 37.2607C20.7646 38.1226 21.0272 39.0465 21.607 39.7885V39.7864Z" fill="#CF3F2D"/>
<path d="M14.4296 33.4681C14.6018 33.5487 14.7153 33.7471 14.9211 33.8401C15.8223 34.2494 16.8264 34.5284 17.7548 34.8818C17.4901 34.9438 15.8307 35.7437 15.4883 35.9235L14.4674 36.3699C14.4065 36.31 14.3645 36.25 14.2784 36.2211L9.97217 31.3889C10.0667 31.3227 10.22 31.3579 10.3125 31.3889C11.3964 31.763 13.2449 32.9142 14.4296 33.4702V33.4681Z" fill="#DC784F"/>
<path d="M8.98894 24.8453C8.98474 24.897 8.93013 24.9425 8.91332 25.0686C8.80619 24.6862 8.78099 24.2398 8.76208 23.8429C8.75998 23.7871 8.61294 23.8243 8.61084 23.7685C8.61084 23.7313 8.90702 23.4358 8.76208 23.0989C8.86501 23.5598 9.01835 24.403 8.98894 24.8453Z" fill="#FADCC2"/>
<path d="M13.9757 22.02L12.917 22.6897C13.2573 22.4851 13.6333 22.2391 13.9757 22.02Z" fill="#F6956F"/>
<path d="M17.6013 24.9199C17.6118 25.2175 17.5194 25.5606 17.5257 25.8127C17.0825 25.3787 16.7317 24.6822 16.3179 24.2523L16.6204 24.0291C16.9291 24.3349 17.2715 24.6367 17.6034 24.9219L17.6013 24.9199Z" fill="#F6956F"/>
<path d="M16.6205 24.027L16.318 24.2502C15.9883 23.9092 14.6145 22.9625 14.5052 22.7641C14.4884 22.7331 14.3624 22.1627 14.354 22.0945C15.2152 22.421 15.9588 23.3718 16.6205 24.027Z" fill="#CF5A47"/>
<path d="M14.2783 22.8365C13.8015 23.0742 11.9677 24.0042 11.7093 24.3225C11.4677 24.2357 10.2683 24.6429 10.4258 24.2109C10.5813 24.0848 10.7787 24.0394 10.9552 23.9505C11.411 23.7211 13.1755 22.8861 13.562 22.7621C13.6103 22.7455 14.1333 22.8902 14.2804 22.8365H14.2783Z" fill="#E5613D"/>
<path d="M12.9927 31.7588C12.7889 32.0295 12.1882 31.2834 12.0853 31.1263C11.7155 30.5683 10.9993 28.9686 10.7262 28.301C10.6359 28.0819 10.4468 27.6747 10.5749 27.4453C10.785 28.0385 12.5663 31.1015 12.9927 31.7567V31.7588Z" fill="#E5613D"/>
<path d="M10.953 23.9524C10.7766 24.0413 10.5791 24.0868 10.4237 24.2128C10.2661 24.6448 11.4656 24.2376 11.7071 24.3244C11.6168 24.434 10.5266 26.7509 10.4993 26.8894C10.4447 27.1601 10.4867 27.1994 10.5749 27.4474C10.4468 27.6768 10.6358 28.0819 10.7262 28.3031C11.0013 28.9707 11.7176 30.5704 12.0852 31.1284C12.1882 31.2834 12.7868 32.0316 12.9927 31.7609C13.4044 32.3933 13.94 32.9017 14.4274 33.4701C13.2426 32.9141 11.392 31.7629 10.3102 31.3888C10.2178 31.3578 10.0645 31.3227 9.96995 31.3888C9.30197 29.4564 9.65906 26.8625 9.13812 24.9217C9.12552 24.8742 9.13812 24.8391 9.0625 24.8473C9.56034 24.3968 10.2808 24.1198 10.8753 23.8057L10.9509 23.9545L10.953 23.9524Z" fill="#CF3F2D"/>
<path d="M10.3881 27.8918C10.6297 28.1254 10.4385 28.8178 10.3125 29.0803L10.3881 27.8918Z" fill="#CF5A47"/>
<path d="M39.8903 16.816C40.01 16.8842 39.9848 16.8822 40.0415 16.7416C41.9468 16.692 43.3857 17.6469 44.8014 19.1205L44.9527 19.9762L45.4064 20.4598C45.1522 21.3444 44.1461 21.7723 43.518 22.3923L38.0775 24.4736C37.7477 24.3868 37.8695 24.4137 37.5481 24.3992C35.8047 24.3186 32.971 24.4695 31.2023 24.6224C30.8011 24.6575 30.2108 24.6389 29.8432 24.7712L26.4802 24.3248C26.35 24.3827 26.4004 26.6376 26.4424 26.8153C26.5033 27.0716 26.455 27.0055 26.7449 27.0013C26.6693 27.0551 26.5978 27.2555 26.4424 27.2989C26.4025 27.3093 26.3395 27.2927 26.2912 27.2989C26.1504 26.9434 21.2141 23.5001 20.4726 22.9875C20.4558 22.9751 20.4137 23 20.3969 22.9875C19.3845 22.2869 18.3594 21.64 17.412 20.8319C17.1095 20.9641 17.5822 22.5453 17.6011 22.8015C17.6494 23.4733 17.5759 24.1739 17.6011 24.8456C17.3595 24.1512 17.4666 23.3885 17.3742 22.6155C17.223 21.3341 17.0465 21.0158 16.0151 20.1622C16.3176 20.3482 16.5718 20.4867 16.9604 20.311C17.5591 20.0403 18.7081 18.2091 19.4916 17.7833L19.2647 18.4529C19.0253 18.6576 19.1051 18.7382 19.0379 18.825C18.9706 18.9118 18.6051 19.228 18.5841 19.3086C18.5022 19.6331 18.8362 20.9827 19.0379 21.2783C19.353 21.7392 20.3885 22.0368 20.8507 22.2456C22.361 22.9255 24.22 23.5621 25.9131 23.7316C26.0853 23.7833 26.3983 23.9362 26.5558 23.9548C30.1436 24.3971 37.0923 23.9445 40.4953 22.8387C40.573 22.8139 40.6759 22.8057 40.7977 22.7643C41.6296 22.4791 41.9089 22.4068 42.6862 21.9459C43.0727 21.7165 43.4424 21.5573 43.7449 21.2018C43.9444 21.1191 43.7049 21.0241 43.6314 20.9786C43.2281 20.7368 40.6612 19.6703 40.3062 19.567C39.1719 19.2321 36.876 19.2631 35.9244 18.8973C35.477 18.7258 33.723 16.4068 33.1663 15.9976C35.1493 16.134 37.128 16.4068 39.0963 16.6672C39.5983 16.7333 39.4114 16.5473 39.8903 16.816Z" fill="url(#paint0_linear_289_3600)"/>
<path d="M33.1659 15.9975C33.7226 16.4067 35.4744 18.7236 35.924 18.8973C36.8755 19.2631 39.1714 19.2321 40.3058 19.5669C40.6608 19.6723 43.2277 20.7388 43.631 20.9785C43.7045 21.024 43.944 21.1191 43.7444 21.2018C41.0389 19.817 38.306 19.2631 35.2833 18.9717C33.6322 18.8125 31.8803 18.703 30.2209 18.7484C29.7987 18.4467 29.3197 18.1718 28.8618 17.93C29.1538 17.746 30.1474 18.5459 30.3343 18.5252L32.4874 15.9231C32.8508 15.9148 32.8907 15.9789 33.168 15.9975H33.1659Z" fill="#B8D2EB"/>
<path d="M32.4854 15.9232L30.3323 18.5253C30.1432 18.546 29.1518 17.7461 28.8598 17.9301C28.3977 17.6883 27.7759 17.31 27.3495 17.1116L26.5933 16.628C28.2338 16.3035 29.9689 16.1113 31.6557 15.9955C31.9371 15.9769 32.1955 15.9273 32.4875 15.9211L32.4854 15.9232Z" fill="#C3C6CF"/>
<path d="M45.3307 22.4668C45.4693 23.4072 45.1774 25.503 45.1038 26.555C44.7887 26.6397 45.0219 27.2101 44.9526 27.4106C44.8959 27.576 44.4316 27.392 44.272 27.7083C44.2048 27.8426 44.2594 28.413 43.8939 28.6383C43.6082 28.5288 43.4402 28.535 43.1377 28.3407L43.2889 27.2246L44.9505 22.0576L45.253 21.9832C45.1879 22.1568 45.3139 22.3634 45.3286 22.4668H45.3307Z" fill="#CB7769"/>
<path d="M31.6558 15.9975C29.969 16.1133 28.2339 16.3034 26.5934 16.63L27.3496 17.1136C27.1164 17.0061 26.4946 16.7085 26.2909 16.6672C25.5284 16.5101 24.3374 16.7933 23.5328 16.8904C23.2135 16.9276 22.7325 16.7829 22.5498 16.816C22.4825 16.8284 22.3754 17.033 22.3607 17.0392C22.0645 17.1549 19.569 18.4136 19.4514 18.5253C19.3842 18.5914 19.2729 18.6555 19.3758 18.7485C19.4388 18.8125 20.3526 18.8394 20.2454 19.1205C19.8736 19.013 19.4388 18.7691 19.0376 18.8229C19.1048 18.7361 19.025 18.6575 19.2645 18.4508C19.7623 18.023 20.8189 17.9403 21.1907 17.3348L21.2663 17.4836L21.2285 17.1115C23.4803 16.2083 29.4607 15.2638 31.8427 15.5532C31.8679 15.5573 32.1368 15.795 32.3342 15.7392L31.6537 15.9996L31.6558 15.9975Z" fill="#DFF3FD"/>
<path d="M45.3307 22.4666C45.316 22.3633 45.1899 22.1566 45.2551 21.983L44.9526 22.0574L43.291 27.2244L43.3666 22.6154C43.4065 22.5761 43.478 22.4315 43.5179 22.3922C44.146 21.7721 45.1542 21.3443 45.4063 20.4597H45.4819C45.4693 21.1232 45.4273 21.8114 45.3307 22.4666Z" fill="#A84C56"/>
<path d="M44.9523 29.3057C44.7884 30.3494 44.2633 31.5027 44.1204 32.5774C43.8284 32.594 43.2445 32.6849 42.9126 32.7263L44.9523 29.3057Z" fill="#90463D"/>
<path d="M45.1035 26.5548C45.0468 27.3712 45.0636 28.2 44.9522 29.0081C44.5804 28.9337 44.2423 28.7704 43.8936 28.6361C44.2591 28.4108 44.2044 27.8404 44.2717 27.706C44.4313 27.3898 44.8955 27.5737 44.9522 27.4084C45.0216 27.2079 44.7884 26.6375 45.1035 26.5527V26.5548Z" fill="#DC784F"/>
<path d="M26.291 27.2989C26.2952 27.3237 26.2847 27.3506 26.291 27.3733C26.1523 27.4519 26.041 27.5759 25.9129 27.671C24.4761 28.725 20.7791 31.9906 19.7183 33.3217L20.4745 22.9875C21.216 23.5022 26.1523 26.9434 26.2931 27.2989H26.291Z" fill="#FBC2A1"/>
<path d="M37.548 24.3992C36.3738 26.7657 34.9097 28.9751 33.6199 31.2755L33.8468 31.3871C33.7522 31.4718 33.6346 31.5297 33.5443 31.6103C33.5296 31.6227 33.4834 31.5979 33.4687 31.6103C33.3699 31.6041 33.3405 31.4656 33.2418 31.4615L31.2021 24.6224C32.9708 24.4694 35.8045 24.3186 37.548 24.3992Z" fill="#CB7769"/>
<path d="M33.2415 31.4614C33.2415 31.4614 33.2688 31.5834 33.2037 31.6102C31.0674 30.3557 29.055 28.8696 26.9334 27.5965C26.7822 27.5055 26.6351 27.4084 26.4419 27.4477V27.2988C26.5973 27.2554 26.6688 27.055 26.7444 27.0012C27.1498 26.7077 29.6621 24.8352 29.8427 24.7711C30.2103 24.6388 30.8006 24.6575 31.2018 24.6223L33.2415 31.4614Z" fill="url(#paint1_linear_289_3600)"/>
<path d="M38.0771 24.4735C38.8606 24.6801 39.6945 25.356 40.4948 25.5895C40.4822 25.6019 40.5074 25.6516 40.4948 25.664C40.4843 25.6743 40.4801 25.7549 40.3436 25.8872C38.348 27.8176 35.9345 29.531 33.8465 31.389L33.6196 31.2774C34.9094 28.9771 36.3735 26.7676 37.5477 24.4011C37.8691 24.4156 37.7452 24.3887 38.0771 24.4755V24.4735Z" fill="#CB7769"/>
<path d="M20.472 22.9855L19.7158 33.3196C19.636 33.4209 19.5772 33.4788 19.5646 33.6172C19.5604 33.6668 19.5646 33.7165 19.5646 33.7661C19.0625 32.7988 18.7874 31.5856 18.4303 30.4571C18.3798 30.2979 18.3735 30.0065 18.1278 30.1967C17.9912 29.4319 17.6026 28.4585 17.9009 27.7433L20.3943 22.9855C20.4111 22.9979 20.4531 22.9731 20.4699 22.9855H20.472Z" fill="#F0A271"/>
<path d="M20.3964 22.9855L17.903 27.7434C17.6005 27.7785 17.6993 27.6834 17.6762 27.4829C17.6236 26.9952 17.5375 26.2759 17.5249 25.8109C17.5186 25.5587 17.611 25.2156 17.6005 24.918C17.6005 24.8932 17.6005 24.8684 17.6005 24.8436C17.5753 24.1719 17.6489 23.4712 17.6005 22.7995C17.5816 22.5432 17.1111 20.9621 17.4115 20.8298C18.3588 21.638 19.3839 22.2849 20.3964 22.9855Z" fill="#FABAA6"/>
<path d="M43.5176 22.3921C43.4777 22.4314 43.4063 22.576 43.3664 22.6153C42.3896 23.5867 41.4822 24.6222 40.4949 25.5895C39.6946 25.358 38.8607 24.6801 38.0771 24.4734L43.5176 22.3921Z" fill="#ABBBCD"/>
<path d="M29.8407 24.7711C29.66 24.8352 27.1477 26.7078 26.7423 27.0012C26.4524 27.0054 26.5007 27.0715 26.4398 26.8152C26.3978 26.6375 26.3474 24.3826 26.4776 24.3247L29.8407 24.7711Z" fill="#B8D2EB"/>
<path d="M20.2455 19.1204C21.0248 19.3457 21.8126 19.5483 22.5877 19.7901C21.3399 20.1601 20.256 20.8462 19.0377 21.2761C18.836 20.9806 18.5021 19.6309 18.584 19.3065C18.605 19.2258 18.9705 18.9076 19.0377 18.8228C19.441 18.7691 19.8737 19.013 20.2455 19.1204Z" fill="#6C7E88"/>
<path d="M26.4421 27.2988V27.4476C26.4421 30.8641 26.5114 34.9419 26.2152 38.3005C26.1984 38.4824 26.2257 38.6746 26.2152 38.8585C26.1921 38.9247 26.0703 38.8854 26.064 38.8957V38.7469C26.064 35.2065 26.5849 31.0397 26.2908 27.5964C26.2824 27.4951 26.3202 27.4972 26.2908 27.3732C26.2845 27.3505 26.295 27.3236 26.2908 27.2988C26.3391 27.2926 26.4022 27.3091 26.4421 27.2988Z" fill="#FADCC2"/>
<path d="M39.0584 33.4684C38.5585 33.6069 38.0019 33.9603 37.5481 34.2125C37.3297 34.2042 37.2814 34.2311 37.0944 34.2869L33.5444 31.6104C33.6348 31.5297 33.7524 31.4719 33.8469 31.3871C35.9349 29.5311 38.3485 27.8157 40.344 25.8853L39.0605 33.4684H39.0584Z" fill="#AF3A25"/>
<path d="M43.2907 27.2245L43.1395 28.3406C42.2404 27.7598 41.4023 26.3192 40.4948 25.664C40.5075 25.6516 40.4822 25.602 40.4948 25.5896C41.4821 24.6224 42.3875 23.5869 43.3663 22.6155L43.2907 27.2245Z" fill="#9F6A80"/>
<path d="M43.1397 28.3385C43.4401 28.5328 43.6103 28.5266 43.8959 28.6362C44.2446 28.7705 44.5828 28.9338 44.9546 29.0082C44.942 29.1033 44.9693 29.2107 44.9546 29.3058L42.915 32.7264C42.0054 32.838 41.8437 32.9103 41.0265 33.0984C40.4468 33.2307 39.4763 33.3547 39.0625 33.4704L40.346 25.8873C40.4825 25.755 40.4867 25.6744 40.4972 25.6641C41.4046 26.3192 42.2428 27.7598 43.1418 28.3406L43.1397 28.3385Z" fill="#962920"/>
<path d="M41.1758 30.8661C41.4573 30.4238 41.6001 30.2296 41.932 29.8245C41.6589 30.2316 41.4888 30.4776 41.1758 30.8661Z" fill="#AF3A25"/>
<path d="M41.9297 29.8243C42.1145 29.5515 42.2511 29.2435 42.4968 29.0059C42.5242 29.3428 42.1103 29.6032 41.9297 29.8243Z" fill="#AF3A25"/>
<path d="M41.1757 30.8662C41.0665 31.0378 40.9887 31.3622 40.7598 31.4615C40.7598 31.199 41.0475 31.0254 41.1757 30.8662Z" fill="#AF3A25"/>
<path d="M26.2909 16.6672C26.4947 16.7086 27.1165 17.0062 27.3496 17.1137C27.7761 17.3121 28.3978 17.6882 28.86 17.9321C29.3221 18.176 29.7968 18.4488 30.219 18.7506C29.8115 18.7609 29.4145 18.7981 29.0112 18.825C27.2362 18.9387 24.747 19.2156 23.0435 19.6435L26.293 16.6693L26.2909 16.6672Z" fill="#867C7E"/>
<path d="M26.291 16.6672L23.0414 19.6413C23.0183 19.6475 22.9889 19.6351 22.9658 19.6413L22.3608 17.0392C22.3755 17.033 22.4827 16.8284 22.5499 16.816C22.7326 16.7829 23.2116 16.9276 23.533 16.8904C24.3375 16.7953 25.5264 16.5101 26.291 16.6672Z" fill="#7B8A93"/>
<path d="M22.9657 19.6414C22.9426 19.6476 22.8312 19.7179 22.5876 19.7902C21.8124 19.5484 21.0247 19.3459 20.2454 19.1206C20.3546 18.8395 19.4409 18.8147 19.3758 18.7486C19.2728 18.6556 19.3842 18.5915 19.4514 18.5254C19.569 18.4117 22.0624 17.153 22.3607 17.0393L22.9657 19.6414Z" fill="#ABBBCD"/>
<path d="M27.1204 37.7053V37.7797C27.1057 38.2344 26.4125 38.6478 26.2886 38.933C26.2697 38.9785 26.4461 38.9392 26.4398 39.0446C26.4398 39.0632 26.2424 38.933 26.3642 39.305C26.7129 40.3736 27.9207 41.7522 28.3282 42.8724C28.3913 42.9054 28.7736 42.5376 28.8576 42.4631C28.7967 42.5975 28.5614 42.9654 28.4795 43.0584C28.0047 43.5896 27.3809 43.9926 26.8935 44.5444C26.8809 44.5589 26.7402 44.5754 26.5911 44.7677C26.5869 44.7718 26.5638 44.7759 26.5154 44.8421C25.6941 44.4308 24.4947 42.953 23.7574 42.612C23.4318 42.4611 23.5158 42.6016 23.2658 42.6864C22.9571 42.2647 22.6462 41.8596 22.3584 41.4235C23.0327 40.6464 25.5891 39.6171 26.0596 38.8958C26.0659 38.8855 26.1878 38.9268 26.2109 38.8586C26.2214 38.6747 26.1941 38.4845 26.2109 38.3006C26.6835 38.5796 26.8767 37.9699 27.1183 37.7053H27.1204Z" fill="#F58C4A"/>
<path d="M25.2324 38.2263C25.4571 38.3792 25.7092 38.7616 26.0642 38.7471V38.8959C25.5937 39.6172 23.0352 40.6445 22.363 41.4236C22.3525 41.4071 22.1844 41.4629 22.1361 41.3864C22.0185 41.2046 21.9933 40.9462 21.9093 40.754C21.7895 40.4791 21.716 40.0761 21.6068 39.7867C21.172 38.6314 20.0797 36.1057 19.8696 35.0661C19.8381 34.909 19.8549 34.6548 19.9452 34.5081C20.9787 35.5456 23.8901 37.3148 25.2345 38.2242L25.2324 38.2263Z" fill="#F9AD8B"/>
<path d="M26.5177 44.8422C26.4294 44.96 26.066 45.948 25.9505 45.9583C25.753 45.6462 25.4821 45.4065 25.2321 45.1398C24.5179 44.3813 23.8814 43.5236 23.2681 42.6865C23.518 42.6018 23.434 42.4612 23.7596 42.6121C24.4969 42.9531 25.6942 44.4309 26.5177 44.8422Z" fill="#CF5A47"/>
<path d="M27.9527 46.7002C27.8876 46.6754 27.7384 46.7167 27.6502 46.7002C27.2301 46.541 26.56 46.4294 26.2155 46.2537C25.7933 46.0367 25.4551 45.551 25.2324 45.1377C25.4824 45.4022 25.7513 45.644 25.9508 45.9561C26.0664 45.9458 26.4298 44.9599 26.518 44.84C26.5663 44.7739 26.5894 44.7698 26.5936 44.7656L27.9527 46.6981V46.7002Z" fill="#962920"/>
<path d="M28.7846 20.1621C28.4926 20.5176 27.602 20.3295 27.1608 20.3853C26.4571 20.4742 24.199 20.993 23.4596 21.6482C23.3672 21.7308 23.1697 21.9086 23.2706 22.0574C23.6277 21.6771 23.3546 22.3963 23.9134 22.6154C23.4323 21.9106 24.0352 21.4849 24.6696 21.2038C25.0939 21.0157 28.0956 20.406 28.3708 20.5341C28.4317 20.5631 28.4317 20.7264 28.3708 20.7574C27.6209 20.7202 25.4027 21.2038 25.0834 21.7618C24.7011 22.4294 26.5916 22.9999 27.0852 23.1363C28.2048 23.4463 29.3559 23.4835 30.4861 23.7315C30.4251 23.469 31.7905 23.5186 31.5826 23.7687C31.5384 23.8225 30.3348 23.9506 30.1857 23.9547C29.2719 23.9775 26.9445 23.8349 25.9173 23.7315C24.2263 23.562 22.3652 22.9255 20.8549 22.2455C20.7247 22.0884 21.107 21.7846 21.1952 21.7246C22.4177 20.8772 25.8207 20.406 27.4276 20.2386C27.8876 20.191 28.3267 20.1848 28.7867 20.1642L28.7846 20.1621Z" fill="#432919"/>
<path d="M29.0111 18.8228L29.0489 19.4924L23.7597 19.7156C24.2218 19.9946 27.2382 19.6123 27.3853 19.7156C27.4714 19.7756 27.4021 20.1145 27.4231 20.2365C25.8162 20.4039 22.4132 20.8751 21.1907 21.7225C21.1046 21.7824 20.7202 22.0863 20.8504 22.2433C20.3883 22.0346 19.3527 21.737 19.0376 21.2761C20.2559 20.8462 21.3419 20.16 22.5876 19.79C22.8291 19.7177 22.9405 19.6474 22.9657 19.6412C22.9909 19.635 23.0182 19.6474 23.0413 19.6412C24.7449 19.2134 27.2361 18.9385 29.009 18.8228H29.0111Z" fill="#2B1A10"/>
<path d="M43.7424 21.2016C43.442 21.5551 43.0702 21.7163 42.6837 21.9457C42.5934 21.9395 42.5871 21.7907 42.5324 21.7225C43.0345 21.7638 43.6289 21.3856 42.9484 20.9784C42.1942 20.5279 39.871 20.1042 38.9825 20.16C38.9594 20.1538 38.93 20.1662 38.9068 20.16C38.8984 20.16 38.9342 20.0277 38.869 20.0112C38.8165 19.9988 37.9805 20.038 37.8103 20.0112L38.1128 19.7135C37.5205 19.7094 36.9281 19.7177 36.3378 19.7135L36.905 19.2671L35.2812 18.9695C38.3061 19.2609 41.0389 19.8148 43.7424 21.1996V21.2016Z" fill="#673213"/>
<path d="M30.219 18.7484C31.8785 18.7029 33.6304 18.8125 35.2814 18.9716L36.9052 19.2692L36.338 19.7157C34.9432 19.7053 33.0422 19.633 31.6915 19.7901C31.6201 19.7983 31.6873 20.0009 31.6159 20.0133C31.2378 20.0732 30.5509 19.7735 29.9544 19.7901C29.7506 19.7963 29.3851 19.9368 29.1225 19.8645C30.1413 20.2344 29.1856 20.1435 28.7822 20.1621C28.3222 20.1828 27.8811 20.189 27.4232 20.2365C27.4022 20.1166 27.4715 19.7756 27.3854 19.7157C27.2383 19.6123 24.2219 19.9947 23.7598 19.7157L29.049 19.4925L29.0112 18.8228C29.4166 18.7959 29.8136 18.7587 30.219 18.7484Z" fill="#512B14"/>
<path d="M42.535 21.7226C42.4468 21.611 40.2895 20.6644 39.966 20.5342C39.6425 20.404 39.3379 20.2655 38.9829 20.1622C39.8715 20.1064 42.1947 20.5301 42.9488 20.9807C43.6294 21.3878 43.0349 21.764 42.5329 21.7247L42.535 21.7226Z" fill="#7F5331"/>
<path d="M36.3399 19.7158C36.9302 19.7199 37.5247 19.7116 38.1149 19.7158L37.8124 20.0134C37.9805 20.0403 38.8165 20.001 38.8711 20.0134C38.9362 20.0299 38.9005 20.1601 38.9089 20.1622C38.4741 20.1436 38.8669 20.2883 38.9467 20.311C39.2765 20.404 39.6252 20.4929 39.9676 20.5342C40.2911 20.6644 42.4484 21.611 42.5366 21.7226C42.5912 21.7909 42.5975 21.9376 42.6879 21.9459C41.9107 22.4068 41.6313 22.4791 40.7994 22.7643C41.8707 22.1174 39.9487 21.6007 39.516 21.1667C39.8773 21.3134 39.5139 20.6252 39.4782 20.6086C38.6443 20.2387 36.2454 20.526 35.2476 20.311L35.0964 20.5342C36.7663 20.8525 40.0495 20.8484 40.4991 22.8387C37.0961 23.9445 30.1453 24.3971 26.5596 23.9548C26.4021 23.9362 26.0891 23.7833 25.9169 23.7316C26.944 23.8349 29.2736 23.9776 30.1852 23.9548C30.3365 23.9507 31.538 23.8225 31.5821 23.7688C31.7901 23.5187 30.4247 23.4691 30.4856 23.7316C29.3555 23.4856 28.2065 23.4484 27.0848 23.1364C26.589 22.9999 24.6985 22.4295 25.0829 21.7619C25.4022 21.2039 27.6204 20.7202 28.3703 20.7574C28.4313 20.7264 28.4313 20.5632 28.3703 20.5342C28.0931 20.4061 25.0913 21.0158 24.6691 21.2039C24.0347 21.485 23.4319 21.9128 23.9129 22.6155C23.3542 22.3985 23.6272 21.6792 23.2701 22.0575C23.1693 21.9087 23.3668 21.7309 23.4592 21.6482C24.1986 20.991 26.4567 20.4743 27.1604 20.3854C27.6015 20.3296 28.4943 20.5177 28.7842 20.1622C29.1875 20.1436 30.1432 20.2345 29.1244 19.8646C29.3849 19.9369 29.7504 19.7964 29.9563 19.7902C30.5528 19.7716 31.2397 20.0713 31.6178 20.0134C31.6892 20.0031 31.622 19.7984 31.6934 19.7902C33.0441 19.6331 34.9451 19.7054 36.3399 19.7158Z" fill="#7F5331"/>
<path d="M40.7975 22.7644C40.6756 22.8057 40.5727 22.814 40.495 22.8388C40.0454 20.8484 36.7622 20.8525 35.0923 20.5343L35.2435 20.311C36.2413 20.526 38.6423 20.2387 39.4741 20.6087C39.5098 20.6231 39.8732 21.3134 39.5119 21.1667C39.9467 21.6028 41.8687 22.1174 40.7954 22.7644H40.7975Z" fill="#966844"/>
<path d="M28.5575 21.1274V21.3507C28.3453 21.4395 28.1268 21.4747 27.9525 21.6483C27.4295 22.1671 27.7992 22.4254 28.3306 22.7272C28.2424 22.8739 27.5261 22.6838 27.3475 22.6156C25.4171 21.8798 27.9945 21.3631 28.5554 21.1295L28.5575 21.1274Z" fill="#62402B"/>
<path d="M28.5578 21.1275C27.9948 21.361 25.4195 21.8798 27.3499 22.6135C27.2953 22.8429 26.4614 22.5143 26.4047 22.4647C25.1338 21.3507 28.228 20.9394 28.8981 20.8298C29.0535 20.9952 28.7153 21.0613 28.5578 21.1275Z" fill="#432919"/>
<path d="M28.0282 21.7227C28.3097 21.4643 29.4945 21.2349 29.9167 21.1274C29.7465 21.5346 29.2067 21.4912 28.8958 21.7227C28.6983 21.8715 28.4022 22.5246 28.2908 22.5411C28.0997 22.5701 27.6102 22.105 28.0261 21.7227H28.0282Z" fill="#62402B"/>
<path d="M26.1021 21.3507C26.1651 21.3445 26.2597 21.3301 26.2912 21.3879C25.5686 21.9315 25.9404 22.4668 26.6693 22.7252C26.6693 22.9629 25.3438 22.3573 25.3102 22.1299C25.2787 21.9191 25.9215 21.3673 26.1042 21.3487L26.1021 21.3507Z" fill="#62402B"/>
<path d="M29.9167 21.1275C29.4945 21.235 28.3097 21.4644 28.0283 21.7228L27.9526 21.6484C28.127 21.4748 28.3433 21.4396 28.5576 21.3507C28.9756 21.1771 31.2799 20.5716 31.6181 20.6067C31.7463 20.6212 31.7925 20.6666 31.6938 20.7555C31.6223 20.8196 30.1771 21.0614 29.9188 21.1275H29.9167Z" fill="#966844"/>
<path d="M38.9074 20.1622C38.9305 20.1684 38.9599 20.156 38.983 20.1622C39.3359 20.2655 39.63 20.3978 39.9661 20.5342C39.6258 20.4929 39.275 20.404 38.9452 20.311C38.8654 20.2883 38.4726 20.1436 38.9074 20.1622Z" fill="#966844"/>
<path d="M30.4838 21.8716C30.633 22.2395 31.1308 22.225 31.4291 22.4296C31.2169 22.5309 30.2486 22.2147 30.4838 21.8716Z" fill="#966844"/>
<path d="M25.9127 27.6688L19.5669 33.6151C19.5795 33.4766 19.6383 33.4187 19.7181 33.3174C20.7789 31.9885 24.4759 28.7208 25.9127 27.6667V27.6688Z" fill="#FDF0EA"/>
<path d="M26.2907 27.5946L25.9126 27.669C26.0407 27.576 26.15 27.4499 26.2907 27.3713C26.3201 27.4953 26.2823 27.4933 26.2907 27.5946Z" fill="#F6956F"/>
<path d="M33.2418 31.4615C33.3405 31.4656 33.3699 31.6041 33.4686 31.6103C33.3909 31.6785 33.3195 31.8397 33.2418 31.9079C31.8953 33.1046 30.6223 34.3901 29.3137 35.624C28.5113 36.3805 27.9 36.8538 27.1228 37.7053C26.8812 37.9699 26.688 38.5796 26.2153 38.3006C26.5115 34.9399 26.4422 30.8621 26.4422 27.4477C26.6354 27.4084 26.7825 27.5056 26.9337 27.5965C29.0553 28.8697 31.0677 30.3557 33.204 31.6103C33.2691 31.5834 33.2334 31.4615 33.2418 31.4615Z" fill="#F6956F"/>
<path d="M37.0938 34.2869C36.5477 34.4523 34.6005 35.2666 34.1467 35.5497C33.5796 35.9052 33.2582 36.5087 32.8633 37.0358L33.2414 31.9059C33.3191 31.8377 33.3905 31.6765 33.4682 31.6083C33.483 31.5959 33.5292 31.6207 33.5439 31.6083L37.0938 34.2848V34.2869Z" fill="#DC784F"/>
<path d="M26.2909 27.5945C26.585 31.0399 26.064 35.2066 26.064 38.745C25.709 38.7615 25.457 38.3771 25.2322 38.2241L19.7161 34.2104C19.5943 34.045 19.6069 33.8466 19.5649 33.7639C19.5649 33.7143 19.5607 33.6647 19.5649 33.6151L25.9107 27.6689L26.2888 27.5945H26.2909Z" fill="url(#paint2_linear_289_3600)"/>
<path d="M19.567 33.7659C19.609 33.8486 19.5964 34.047 19.7183 34.2124C19.7876 34.3054 19.8653 34.4294 19.9451 34.51C19.8548 34.6567 19.838 34.9109 19.8695 35.068C20.0796 36.1076 21.1719 38.6333 21.6067 39.7886C21.0248 39.0467 20.7622 38.1228 20.3988 37.2609C20.1972 36.7876 19.8023 35.3222 19.4914 35.0308C18.71 33.553 18.4243 31.85 18.1323 30.1986C18.3781 30.0064 18.3844 30.2999 18.4348 30.459C18.7919 31.5875 19.0671 32.8007 19.5691 33.768L19.567 33.7659Z" fill="#FBB06E"/>
<path d="M32.8638 37.0356C32.6328 37.3456 32.0551 38.1455 31.8808 38.4473C31.1939 39.0301 30.2906 38.5651 29.463 38.8193C28.461 38.84 27.4401 38.9557 26.4403 39.0425C26.4466 38.9371 26.2701 38.9764 26.289 38.9309C26.4129 38.6477 27.1061 38.2323 27.1208 37.7776L29.3117 35.6219C30.6225 34.388 31.8934 33.1025 33.2398 31.9058L32.8617 37.0356H32.8638Z" fill="url(#paint3_linear_289_3600)"/>
<path d="M29.4625 38.8214C30.1956 38.8049 30.9245 38.8379 31.6534 38.8958C31.624 38.9599 31.6051 39.1232 31.5778 39.1934C30.58 40.1648 29.9079 41.5517 28.8576 42.4652C28.7736 42.5375 28.3912 42.9075 28.3282 42.8744C27.9207 41.7521 26.7108 40.3756 26.3642 39.3071C26.2424 38.9351 26.4377 39.0653 26.4398 39.0467C27.4397 38.9599 28.4585 38.8462 29.4625 38.8235V38.8214Z" fill="#CF5A47"/>
<path d="M31.5799 39.1914C31.5253 39.3361 31.4728 39.489 31.4287 39.6378C31.3342 39.9561 31.2586 40.2786 31.2018 40.6051C30.7712 41.1487 31.1073 41.9775 30.8237 42.6492C30.8153 42.6678 30.578 42.7546 30.5213 42.8724C30.2104 43.5297 29.8659 44.1621 29.4626 44.7677C29.0466 44.4287 28.8576 43.478 28.4795 43.0584C28.5614 42.9675 28.7967 42.5975 28.8576 42.4632C29.9079 41.5517 30.5801 40.1628 31.5778 39.1914H31.5799Z" fill="#BB3834"/>
<path d="M28.482 43.0583C28.8601 43.4779 29.0492 44.4287 29.4651 44.7676C29.7823 45.028 30.654 44.7449 31.2023 44.842C31.2065 44.8668 31.1981 44.8916 31.2023 44.9164C30.6078 44.9598 29.902 45.0818 29.3139 45.0652C28.9946 45.057 28.4421 45.0322 28.1417 44.9908C27.8414 44.9495 27.5956 44.6457 27.3477 44.9164C27.0894 44.8317 26.8037 44.9164 26.894 44.5444C27.3813 43.9926 28.0052 43.5875 28.4799 43.0583H28.482Z" fill="#DD6626"/>
<path d="M26.8957 44.5444C26.8054 44.9165 27.089 44.8317 27.3495 44.9165C27.9103 45.1004 28.5216 45.1872 29.0866 45.3629C28.9081 45.7701 28.8052 46.357 28.5573 46.7745C28.1603 46.7725 28.3809 46.8613 27.9523 46.7001L26.5933 44.7677C26.7424 44.5754 26.8831 44.5589 26.8957 44.5444Z" fill="#CF3F2D"/>
<path d="M29.3135 35.624L27.1226 37.7797V37.7053C27.9019 36.8538 28.511 36.3805 29.3135 35.624Z" fill="#FADCC2"/>
<path d="M25.2319 38.2262C23.8876 37.3147 20.9762 35.5476 19.9427 34.51C19.8629 34.4294 19.7851 34.3054 19.7158 34.2124L25.2319 38.2262Z" fill="#FDF0EA"/>
<path d="M31.5047 45.7351C31.5803 45.9893 31.6371 46.227 31.7316 46.4792C30.675 46.63 29.6331 46.783 28.5576 46.7768C28.8055 46.3593 28.9084 45.7723 29.087 45.3651C29.0954 45.3486 29.3243 45.1915 29.3138 45.0675C29.902 45.084 30.6078 44.9621 31.2022 44.9187C31.2506 45.1481 31.4249 45.4705 31.5047 45.7372V45.7351Z" fill="#962920"/>
<path d="M31.8807 38.4495C31.7693 38.6458 31.7483 38.6871 31.6538 38.8959C30.9249 38.838 30.196 38.805 29.4629 38.8215C30.2905 38.5673 31.1938 39.0323 31.8807 38.4495Z" fill="#FBB06E"/>
<path d="M31.202 40.605C31.1747 40.7621 31.0697 41.0473 31.0508 41.2002C30.9142 42.3411 30.9773 43.7155 31.202 44.842C30.6538 44.7448 29.782 45.028 29.4648 44.7676C29.8682 44.162 30.2105 43.5295 30.5235 42.8723C30.5803 42.7545 30.8176 42.6677 30.826 42.6491C31.1096 41.9774 30.7735 41.1486 31.2041 40.605H31.202Z" fill="#CF3F2D"/>
<path d="M29.3136 45.0654C29.3242 45.1894 29.0952 45.3465 29.0868 45.363C28.5217 45.1873 27.9105 45.1005 27.3496 44.9166C27.5954 44.6458 27.8411 44.9496 28.1436 44.991C28.4461 45.0323 28.9965 45.0571 29.3157 45.0654H29.3136Z" fill="#E78C24"/>
<path d="M62.3312 45.3631C62.2009 46.0224 62.1547 46.2849 61.9531 46.9235C61.0225 47.8433 60.5856 48.6245 59.4597 49.3768C58.8757 49.7654 56.479 51.1626 55.9097 51.3837C55.6198 51.4953 55.4686 51.361 55.3804 51.3837C55.6955 51.1605 55.9874 50.96 56.2878 50.7141C56.4832 50.5529 56.7268 50.3813 56.8928 50.1932C57.7582 50.1519 58.3569 49.3603 58.9324 48.856C59.1971 48.6245 59.4156 48.238 59.7265 47.9631C60.5247 47.2542 61.6023 46.9587 62.1064 45.8074C62.1505 45.7062 62.2198 45.3589 62.2577 45.2122C62.3522 45.2101 62.3459 45.2928 62.3333 45.361L62.3312 45.3631Z" fill="#BE783A"/>
<path d="M61.8775 45.7351C61.8901 45.7351 61.9343 45.8695 62.1044 45.8095C61.6003 46.9608 60.5227 47.2563 59.7244 47.9652C59.4157 48.2401 59.1951 48.6245 58.9304 48.8581L57.7583 49.3789C57.8129 49.0751 58.0923 48.8436 58.2498 48.5605C58.651 47.835 58.6973 47.6159 59.3085 47C59.4136 46.8946 60.4786 45.917 60.5542 45.8839C60.6151 45.8591 61.7704 45.7331 61.8754 45.7351H61.8775Z" fill="#791915"/>
<path d="M33.4689 47.7421C33.3534 47.8393 33.6517 48.1824 33.6958 48.2258C34.6557 49.1662 36.5358 50.1603 36.3404 51.6836H36.2648C35.6535 51.2619 35.1074 50.7886 34.452 50.4207C34.0487 50.0032 33.5298 49.5175 33.1685 49.0835C32.9018 48.7631 32.6266 48.482 32.4123 48.1162C32.1981 47.7504 31.8935 46.9175 31.7317 46.4814C31.6372 46.2292 31.5826 45.9915 31.5049 45.7373C31.9544 45.8758 32.0489 46.502 32.3367 46.8162C32.5972 47.1014 33.137 47.4631 33.471 47.7463L33.4689 47.7421Z" fill="#F1C751"/>
<path d="M61.9528 46.9236C61.8835 47.1406 61.8058 47.3804 61.7259 47.5932C61.4319 48.3848 61.3772 48.7321 60.8185 49.3769C60.0686 50.245 59.0246 51.0138 58.0982 51.6814C57.7727 51.917 57.3798 52.225 57.0396 52.4255C57.4828 51.1316 58.6843 50.4372 59.4573 49.3769C60.5832 48.6246 61.0201 47.8433 61.9507 46.9236H61.9528Z" fill="#9F4D23"/>
<path d="M54.6243 51.6068C54.3722 52.0532 53.7231 52.5885 53.303 52.8696C52.8262 53.1879 51.36 54.0126 50.8474 54.2069C49.7173 54.6368 47.5411 54.4818 46.2388 54.4301C47.4823 53.9919 48.8204 52.7312 50.0156 52.3488C50.9336 52.0553 52.28 52.016 53.2652 51.828C53.7147 51.7411 54.181 51.6977 54.6243 51.6047V51.6068Z" fill="#9F4D23"/>
<path d="M44.2723 52.1278C46.1755 52.1464 48.1038 52.4399 50.0153 52.351C48.8201 52.7334 47.482 53.9941 46.2385 54.4323C46.1376 54.4281 46.0368 54.4364 45.936 54.4323C45.9591 54.3165 45.831 54.1863 45.7469 54.1347C44.8227 53.5828 43.5329 53.0682 42.5352 52.5742C42.6633 52.4337 43.0477 52.1732 43.2157 52.1278C43.7157 51.9934 43.8627 52.1236 44.2744 52.1278H44.2723Z" fill="#CF892B"/>
<path d="M55.3803 51.3838C55.4685 51.361 55.6197 51.4954 55.9096 51.3838C56.0693 51.9149 55.9831 52.475 56.2877 52.8698C55.7122 53.1323 55.0778 53.2811 54.4749 53.465C53.4709 53.7689 52.4017 54.0624 51.3766 54.2835C51.198 54.3228 50.8304 54.5005 50.8472 54.2091C51.3598 54.0148 52.826 53.1902 53.3028 52.8719C53.7229 52.5908 54.372 52.0534 54.6241 51.609C54.9434 51.5429 55.0967 51.4623 55.3803 51.3858V51.3838Z" fill="#9F4D23"/>
<path d="M45.9361 54.4323C45.4803 54.4137 44.7871 54.2525 44.2746 54.2091C43.0625 54.1058 42.2685 54.2732 41.1006 53.9115L42.4597 52.5743C42.4807 52.5846 42.5143 52.5639 42.5353 52.5743C43.531 53.0703 44.8228 53.5829 45.7471 54.1347C45.8311 54.1843 45.9571 54.3166 45.9361 54.4323Z" fill="#BA6428"/>
<path d="M42.7621 49.9721C42.7936 49.9866 42.8797 49.9576 42.9133 49.9721C43.1864 50.0858 43.3481 49.9659 43.8208 50.2697C44.2934 50.5736 43.7598 50.772 44.7282 50.6418C44.682 50.7968 44.6064 50.6273 44.6526 50.7906C44.7429 51.1047 45.0139 51.1481 45.2954 51.1626C46.8687 51.2453 48.7907 50.588 50.3956 50.6418C50.3809 50.6707 50.3536 50.7885 50.32 50.865C50.2842 50.9456 49.9671 51.3569 50.0175 51.423C52.5067 51.268 55.0126 50.741 57.2329 49.6022L57.3086 49.751C57.1489 49.8832 57.0271 50.0445 56.8927 50.1974C56.7267 50.3855 56.483 50.557 56.2877 50.7182L52.6621 51.6855C51.8072 51.7372 50.7443 52.3056 49.7528 52.0575L49.904 51.3879C49.8452 51.3693 48.8622 51.5326 48.6962 51.5367C47.4548 51.5636 44.8332 51.7537 43.7472 51.5367C43.4826 51.483 43.1045 51.2659 42.7642 51.1647C42.5016 50.5694 41.7496 50.3214 41.2539 49.9763C41.0501 49.8357 40.7602 49.5215 40.5355 49.381C39.6574 48.8312 38.6029 48.4571 37.853 47.8206C38.2227 47.9673 38.6744 47.9838 39.0987 48.1926C39.6133 48.4447 42.3693 50.3627 42.5751 50.3483C42.6696 50.3421 42.886 50.1044 42.7642 49.9763L42.7621 49.9721Z" fill="#CF892B"/>
<path d="M58.0987 48.5583C58.1449 48.5501 58.2016 48.5625 58.2499 48.5583C58.0945 48.8415 57.813 49.0709 57.7584 49.3768L58.9305 48.856C58.355 49.3603 57.7563 50.1519 56.8909 50.1932C57.0253 50.0402 57.1471 49.879 57.3068 49.7468L57.2312 49.5979C55.0108 50.7388 52.5049 51.2638 50.0157 51.4188C49.9653 51.3547 50.2824 50.9414 50.3182 50.8608C51.0681 50.6582 51.8684 50.6272 52.6225 50.4887C52.9502 50.4288 54.9016 50.1188 55.0781 50.0423C55.6809 50.3627 57.1345 49.2528 57.4958 48.7051C57.7017 48.6596 57.9012 48.5955 58.1008 48.5563L58.0987 48.5583Z" fill="#9F4D23"/>
<path d="M57.042 52.4254C56.9538 52.4771 56.9706 52.4977 56.9664 52.4998C56.7164 52.6424 56.5568 52.7478 56.2858 52.8718C55.9812 52.4771 56.0674 51.917 55.9077 51.3858C56.477 51.1646 58.8758 49.7675 59.4577 49.3789C58.6847 50.4392 57.4831 51.1336 57.0399 52.4275L57.042 52.4254Z" fill="#903B1F"/>
<path d="M56.2854 50.7161C55.985 50.962 55.693 51.1625 55.378 51.3857C55.0965 51.4622 54.9431 51.5428 54.6218 51.6089C54.1764 51.7019 53.7101 51.7453 53.2627 51.8321C53.1913 51.7805 52.6892 51.6813 52.6577 51.6833L56.2833 50.7161H56.2854Z" fill="#D6A35E"/>
<path d="M42.762 51.1604C43.1023 51.2617 43.4804 51.4787 43.7451 51.5324C43.5791 52.1008 44.4215 51.8445 44.2744 52.1277C43.8627 52.1235 43.7157 51.9933 43.2157 52.1277L40.5711 51.5324C37.6996 50.1787 36.0276 49.912 33.4691 47.7419C33.1351 47.4587 32.5973 47.097 32.3348 46.8118C32.0491 46.4997 31.9524 45.8735 31.5029 45.7329C31.4231 45.4663 31.2488 45.1439 31.2004 44.9145C31.1962 44.8897 31.2046 44.8649 31.2004 44.8401C30.9757 43.7116 30.9127 42.3392 31.0492 41.1983C31.2698 41.095 31.274 41.5414 31.2761 41.6075C31.2971 42.24 31.0912 43.7095 31.2761 44.2841C31.3328 44.4577 31.8999 44.9165 32.0323 45.1025C32.1793 45.3072 32.2486 45.9231 32.4482 46.0326C32.5028 46.0636 32.8872 46.0326 33.1288 46.1814C33.8556 46.6299 34.5782 47.3471 35.2062 47.9279C35.2398 47.9589 35.3365 48.2999 35.3953 48.3371C35.4478 48.3681 36.2502 48.4673 36.454 48.5603C38.6974 49.5896 40.3085 50.4329 42.762 51.1625V51.1604Z" fill="#F7E7AF"/>
<path d="M40.5713 51.5324C41.2141 51.8362 41.8296 52.262 42.4597 52.574L41.1007 53.9113C39.4958 53.4152 37.9351 52.2578 36.3408 51.6812C36.5361 50.1579 34.6561 49.1659 33.6961 48.2234C33.652 48.18 33.3537 47.8369 33.4693 47.7397C36.0278 49.9099 37.6998 50.1765 40.5713 51.5303V51.5324Z" fill="url(#paint4_linear_289_3600)"/>
<path d="M52.6603 51.6812C52.6919 51.6812 53.1939 51.7783 53.2653 51.83C52.2801 52.0181 50.9358 52.0573 50.0157 52.3508C48.1042 52.4397 46.178 52.1462 44.2727 52.1276C44.4219 51.8465 43.5774 52.1028 43.7434 51.5324C44.8294 51.7494 47.4509 51.5592 48.6924 51.5324C48.8583 51.5282 49.8435 51.365 49.9002 51.3836L49.7489 52.0532C50.7404 52.3012 51.8033 51.7328 52.6582 51.6812H52.6603Z" fill="#EDCA83"/>
<path d="M43.2159 52.1277C43.05 52.1732 42.6635 52.4336 42.5353 52.5742C42.5143 52.5638 42.4807 52.5845 42.4597 52.5742C41.8295 52.2621 41.2141 51.8363 40.5713 51.5325L43.2159 52.1277Z" fill="#F1C751"/>
<path d="M31.5051 39.7122C31.6606 41.0164 31.2741 42.5355 31.8076 43.9492C31.837 44.0257 31.7992 44.1476 31.9589 44.1724C31.9862 44.3253 32.0975 44.2943 32.1857 44.3212C32.1311 44.6147 32.2046 44.6002 32.337 44.7676C32.6794 45.2058 33.5784 45.5634 33.9985 45.9561C34.3493 46.2847 34.5825 46.8076 34.906 47.1445C35.595 47.8637 35.6496 47.3408 36.4541 47.5165C36.5276 47.5331 36.4541 47.7191 36.5297 47.7397C38.3677 48.2296 39.5356 49.294 41.2518 49.9698C41.7497 50.315 42.4996 50.5651 42.7621 51.1583C40.3087 50.4307 38.6975 49.5854 36.4541 48.5561C36.2503 48.4631 35.4479 48.3639 35.3954 48.3329C35.3366 48.2978 35.24 47.9568 35.2064 47.9237C34.5783 47.3408 33.8557 46.6257 33.1289 46.1772C32.8894 46.0284 32.505 46.0594 32.4483 46.0284C32.2487 45.9189 32.1794 45.305 32.0324 45.0983C31.9001 44.9144 31.3329 44.4556 31.2762 44.2799C31.0913 43.7053 31.2972 42.2358 31.2762 41.6033C31.2741 41.5372 31.2699 41.0908 31.0493 41.1941C31.0682 41.0432 31.1733 40.758 31.2006 40.5989C31.2573 40.2723 31.3329 39.9499 31.4274 39.6316C31.4925 39.6233 31.4967 39.6502 31.503 39.706L31.5051 39.7122Z" fill="#E4AE44"/>
<path d="M33.8474 44.619C34.0973 45.1688 34.4628 46.227 34.9061 46.6259C35.2611 46.9463 35.2842 46.8326 35.8135 46.9235C37.3784 47.1943 38.872 47.5105 40.3088 48.2608C40.9746 48.608 41.5691 49.2983 42.3106 49.6724C42.4093 49.722 42.5753 49.8853 42.7643 49.97C42.8862 50.0961 42.6698 50.3359 42.5753 50.3421C42.3694 50.3565 39.6156 48.4385 39.0988 48.1864C38.6724 47.9776 38.2229 47.9611 37.8532 47.8143C36.8932 47.4361 36.0509 46.6879 34.9061 47.1447C34.5826 46.8057 34.3494 46.2828 33.9986 45.9563C34.3368 45.8529 33.5365 45.0613 33.4315 44.989C33.3012 44.9001 32.4526 44.4867 32.335 44.7658C32.2026 44.5984 32.1291 44.6128 32.1837 44.3193C32.5345 44.4247 33.3853 44.5219 33.8453 44.617L33.8474 44.619Z" fill="#BE783A"/>
<path d="M56.8151 48.856C56.8025 49.2466 56.2416 49.1825 56.0211 49.3024C55.7249 49.4636 55.2901 49.9534 55.0758 50.0464C54.8994 50.1229 52.9479 50.4329 52.6203 50.4929C51.8661 50.6314 51.0658 50.6624 50.3159 50.8649C50.3495 50.7905 50.3768 50.6706 50.3915 50.6417C50.4924 50.4453 50.6121 50.2531 50.694 50.0464C51.4481 50.0506 52.3829 50.0671 53.1118 49.8976C53.8008 49.7364 54.2797 49.2115 54.7355 49.0792C55.1914 48.9469 56.2353 48.9469 56.813 48.856H56.8151Z" fill="#791915"/>
<path d="M50.6959 50.0465C50.6139 50.2532 50.4942 50.4454 50.3934 50.6418C48.7885 50.588 46.8665 51.2453 45.2932 51.1626C45.0117 51.1481 44.7407 51.1047 44.6504 50.7906C46.1691 50.7306 47.6857 50.7534 49.1456 50.2697L48.9566 49.8977C49.5195 49.9266 50.1518 50.0444 50.6938 50.0465H50.6959Z" fill="#BA6428"/>
<path d="M37.8508 47.8164C38.6007 48.4551 39.6552 48.8271 40.5332 49.3769C40.758 49.5174 41.0478 49.8295 41.2516 49.9721C39.5354 49.2963 38.3675 48.2319 36.5295 47.742C36.4539 47.7214 36.5295 47.5354 36.4539 47.5188C35.6494 47.3452 35.5927 47.8681 34.9058 47.1468C36.0506 46.688 36.8908 47.4362 37.8529 47.8164H37.8508Z" fill="#D6A35E"/>
<path d="M48.9568 49.8975L49.1459 50.2696C47.686 50.7511 46.1694 50.7284 44.6507 50.7904C44.6044 50.6271 44.6801 50.7966 44.7263 50.6416C44.8922 50.6188 45.0351 50.532 45.18 50.4928C45.3754 50.8813 45.848 50.3956 46.1253 50.5672L48.1271 49.8975C48.4023 49.9141 48.6838 49.8831 48.9589 49.8975H48.9568Z" fill="#9F4D23"/>
<path d="M55.0776 50.0466C55.2898 49.9536 55.7267 49.4637 56.0229 49.3025C56.2435 49.1826 56.8043 49.2467 56.8169 48.8561C57.0501 48.8189 57.2685 48.7569 57.4975 48.7073C57.1362 49.255 55.6826 50.3649 55.0797 50.0445L55.0776 50.0466Z" fill="#9F4D23"/>
<path d="M33.9985 45.9583C33.5763 45.5636 32.6793 45.206 32.3369 44.7699C32.4524 44.4909 33.3011 44.9043 33.4334 44.9931C33.5384 45.0634 34.3367 45.855 34.0006 45.9604L33.9985 45.9583Z" fill="#CF892B"/>
<path d="M47.2955 49.6746C47.5244 49.9102 47.8332 49.8792 48.1273 49.8978L46.1254 50.5674C45.8503 50.3959 45.3755 50.8816 45.1802 50.493C45.844 50.3173 46.6548 49.9494 47.2955 49.6746Z" fill="#903B1F"/>
<path d="M62.4826 42.9841C62.5351 43.4554 62.4595 43.9307 62.407 44.3958C62.3755 44.6748 62.3272 44.9435 62.2557 45.2142C62.2179 45.3589 62.1486 45.7061 62.1045 45.8095C61.9343 45.8694 61.8902 45.7351 61.8776 45.7351C61.6319 45.4602 60.9051 45.02 60.5186 44.8422C60.9849 44.28 62.512 43.5236 62.3314 42.7237C62.3166 42.6617 62.2494 42.8271 62.1045 42.6121C62.1948 41.9466 61.5878 41.2811 61.802 40.6052C61.989 41.1653 62.4238 42.455 62.4826 42.9841Z" fill="#481024"/>
<path d="M55.3047 34.5823C54.9035 34.6113 54.2544 34.9523 53.87 35.1032C52.7924 35.5228 51.5867 36.1325 50.5448 36.738H50.4692C50.2507 36.5148 48.6102 36.3639 48.5429 36.2916C48.4442 36.1862 48.5513 35.9258 48.5051 35.8452C48.7467 35.7852 48.8391 34.5534 48.8076 34.4335C49.1962 34.2599 49.8327 34.8138 50.1289 34.8056C50.2318 34.8035 50.7485 34.5617 50.9229 34.5079C51.4249 35.0495 51.9627 33.8321 52.282 33.6895C52.7693 33.4725 54.7039 34.3736 55.3047 34.5823Z" fill="#E1B5C2"/>
<path d="M49.335 32.7988C49.0577 33.2618 48.8035 33.764 48.5031 34.2104C48.3435 34.136 45.9509 34.2911 45.7829 34.3593C45.4447 34.1154 45.7241 33.5098 45.7073 33.2432C45.8816 33.516 47.373 33.5201 47.4444 33.4292C46.9235 32.5446 46.5958 32.7843 45.7073 33.02C45.701 32.9497 45.5035 32.5694 45.4048 32.4991C46.4278 32.495 48.3372 32.6293 49.3329 32.7967L49.335 32.7988Z" fill="#D996A5"/>
<path d="M51.9799 33.5428C51.7446 33.8652 51.3497 33.9933 51.0346 34.2124C50.9674 34.26 50.6397 34.4336 50.9212 34.51C50.7468 34.5638 50.2301 34.8035 50.1272 34.8077C49.8289 34.8159 49.1945 34.2641 48.8059 34.4356C48.7723 34.3054 48.6147 34.2641 48.5034 34.2124C48.8038 33.766 49.058 33.2617 49.3352 32.8008C49.9801 32.9103 51.3497 33.3134 51.9799 33.5448V33.5428Z" fill="#E1B5C2"/>
<path d="M57.8716 35.8473L58.0229 37.0358C57.6574 36.9366 55.3741 36.147 55.3026 35.9569C55.2627 35.8473 55.3257 35.2273 55.3783 35.1012C55.3909 35.0702 55.687 34.7974 55.6807 34.6548C56.4433 34.7726 57.2226 35.4071 57.8716 35.8432V35.8473Z" fill="#DAC1CE"/>
<path d="M45.1044 32.5012C45.1527 32.6728 45.3606 32.4558 45.2556 32.6872C45.2178 32.7699 43.947 33.8261 43.8587 33.8405C43.6277 33.8757 43.5037 33.5491 43.4806 33.5429C43.4239 33.5284 43.4512 33.6938 43.4428 33.6917C43.3861 33.6793 43.0605 33.4726 42.8757 33.4685C42.6425 33.4623 42.2665 33.4561 42.0816 33.6173L41.0229 33.0965C41.8422 32.9084 42.0018 32.836 42.9114 32.7244C43.2454 32.6831 43.8293 32.5922 44.1192 32.5756C44.4427 32.557 44.783 32.5074 45.1023 32.5012H45.1044Z" fill="#B76477"/>
<path d="M45.407 32.5012C45.5058 32.5715 45.7011 32.9518 45.7095 33.0221C45.7179 33.0923 45.7053 33.1709 45.7095 33.2453C45.7263 33.5119 45.4469 34.1154 45.7851 34.3614C45.7746 34.3655 45.7074 34.4523 45.6339 34.5102C44.9617 34.2704 44.1026 34.5784 43.443 34.4358C43.3401 34.413 43.1426 34.1981 42.9893 34.1753C43.0838 34.1257 43.1594 33.9645 43.2161 33.9149C43.2602 33.8757 43.5123 34.0203 43.443 33.6917C43.4514 33.6917 43.4241 33.5284 43.4808 33.5429C43.5039 33.5491 43.6278 33.8757 43.8589 33.8405C43.9492 33.8261 45.2201 32.7699 45.2558 32.6872C45.3608 32.4558 45.1529 32.6728 45.1045 32.5012C45.2054 32.5012 45.3062 32.5012 45.407 32.5012Z" fill="#C27593"/>
<path d="M59.1576 36.8126C59.3572 36.9594 59.5861 37.0792 59.7626 37.2591C59.6513 37.2322 59.1387 37.2487 58.8551 37.1846C58.6766 37.1454 58.3615 37.1598 58.1746 37.1102C58.0254 37.071 58.0317 37.0379 58.0233 37.0358L57.8721 35.8474C58.3174 36.1471 58.727 36.4943 59.1555 36.8147L59.1576 36.8126Z" fill="#9F6A80"/>
<path d="M55.3049 34.5825C55.5129 34.568 55.5675 34.6383 55.683 34.6569C55.6894 34.7975 55.3932 35.0724 55.3806 35.1034C54.9899 35.1592 53.8282 35.866 53.8703 35.1034C54.2547 34.9545 54.9058 34.6114 55.3049 34.5825Z" fill="#240E0E"/>
<path d="M52.2825 33.6918C51.9632 33.8344 51.4255 35.0517 50.9234 34.5102C50.642 34.4338 50.9697 34.2602 51.0369 34.2126C51.3499 33.9956 51.7469 33.8654 51.9821 33.543C52.0998 33.5864 52.1355 33.7207 52.2846 33.6918H52.2825Z" fill="#240E0E"/>
<path d="M59.7625 37.2592C59.9053 37.2944 60.088 37.3171 60.1406 37.4824C60.1469 38.2761 60.2771 39.3322 60.5187 40.0846C60.4325 40.0722 60.4535 40.1404 60.443 40.159C60.0838 40.0474 59.6091 39.9275 59.2709 39.7869C59.1197 39.7249 59.1827 39.5141 59.1197 39.4893C59.1092 39.4852 59.0588 39.5844 59.0062 39.5637C58.9558 39.3777 58.9747 39.0078 58.9306 38.8569C58.9117 38.7928 58.7836 38.8279 58.7794 38.8197C58.7437 38.7391 58.8928 38.7577 58.9306 38.7081C57.8509 38.4952 59.1953 37.9557 58.855 37.1848C59.1386 37.2489 59.649 37.2324 59.7625 37.2592Z" fill="#E2ABC5"/>
<path d="M61.8018 40.605C61.5876 41.2809 62.1947 41.9464 62.1043 42.6119C61.8523 42.2378 61.3271 41.7583 61.1213 41.4235C61.0267 41.2685 60.6129 40.3818 60.5163 40.0863C60.2747 39.3339 60.1445 38.2799 60.1382 37.4841C60.886 38.6105 61.3775 39.3381 61.7997 40.6071L61.8018 40.605Z" fill="#732A4F"/>
<path d="M62.1043 42.6121C62.2492 42.8271 62.3165 42.6597 62.3312 42.7237C62.5118 43.5236 60.9826 44.2821 60.5184 44.8422C60.2033 44.6975 58.9849 44.216 58.7056 44.1726C58.8799 43.8811 59.279 43.6001 59.3862 43.2797L61.1233 41.4216C61.3292 41.7585 61.8543 42.236 62.1064 42.6101L62.1043 42.6121Z" fill="#732A4F"/>
<path d="M60.5166 44.8424C60.9052 45.0201 61.6299 45.4583 61.8757 45.7352C61.7707 45.7332 60.6153 45.8593 60.5544 45.8841C60.4767 45.9171 59.4117 46.8947 59.3088 47.0001C59.1848 46.6984 60.2645 45.4108 60.2162 45.3281L60.0272 45.2909C59.376 45.8985 58.7941 46.9092 57.9497 47.0745C58.2438 46.1403 58.4286 45.1359 58.6303 44.1748C58.6555 44.1769 58.6807 44.1707 58.7059 44.1748C58.9874 44.2161 60.2036 44.6998 60.5187 44.8444L60.5166 44.8424Z" fill="#90463D"/>
<path d="M41.0248 33.0964L42.0835 33.6173C41.989 33.6979 41.8503 33.7516 41.9701 33.9149H43.2157C43.159 33.9624 43.0834 34.1236 42.9888 34.1753C43.1422 34.1981 43.3396 34.413 43.4426 34.4357L42.4217 35.5518C43.2136 35.5312 44.0013 35.124 44.7638 35.031C45.0474 34.9958 45.0264 35.248 45.0663 35.2542C45.2049 35.2749 45.5599 34.5701 45.6335 34.5101C45.707 34.4502 45.7742 34.3655 45.7847 34.3613C45.9506 34.2931 48.3453 34.1381 48.5049 34.2125C48.3327 34.4688 48.1415 34.69 47.9756 34.9566C47.7235 35.3575 47.3118 35.6841 47.1438 36.145C46.459 36.0272 44.7806 36.7919 43.9698 36.6658C43.6841 36.6204 42.3419 35.6366 42.2326 35.6986L40.2686 38.0775C40.2938 37.381 40.1236 37.3665 39.588 36.9614C39.8086 36.7402 42.0352 35.9135 42.0058 35.6614C40.8357 35.1529 38.983 34.2084 37.6996 34.2869C37.7017 34.1857 37.6219 34.2146 37.5483 34.2125C38.0042 33.9604 38.5608 33.6069 39.0587 33.4685C39.4725 33.3548 40.4429 33.2308 41.0227 33.0964H41.0248Z" fill="#C27593"/>
<path d="M50.5447 36.7402C50.6077 36.7568 50.635 36.8229 50.6959 36.889C51.2568 37.5029 51.8492 39.2101 52.4331 39.9376L49.1079 37.7075V37.6331L50.467 36.7402H50.5426H50.5447Z" fill="#DDA097"/>
<path d="M48.5031 35.8475C48.5493 35.9281 48.4422 36.1885 48.5409 36.2939C48.6081 36.3662 50.2508 36.5171 50.4672 36.7403L49.1081 37.6332C48.606 37.4989 47.5116 36.2092 47.144 36.1472C47.31 35.6863 47.7238 35.3597 47.9759 34.9587C48.2279 35.1179 48.1964 35.5705 48.2784 35.74C48.3435 35.8764 48.4989 35.8413 48.5052 35.8516L48.5031 35.8475Z" fill="#E1B5C2"/>
<path d="M48.8055 34.4357C48.837 34.5577 48.7445 35.7874 48.503 35.8474C48.4967 35.837 48.3412 35.8722 48.2761 35.7358C48.1963 35.5663 48.2257 35.1137 47.9736 34.9545C48.1396 34.6879 48.3307 34.4667 48.503 34.2104C48.6143 34.2621 48.7719 34.3035 48.8055 34.4337V34.4357Z" fill="#240E0E"/>
<path d="M45.7094 33.2454C45.7052 33.173 45.7178 33.0945 45.7094 33.0221C46.5979 32.7865 46.9256 32.5468 47.4466 33.4314C47.3751 33.5223 45.8837 33.5182 45.7094 33.2454Z" fill="#240E0E"/>
<path d="M43.4428 33.6917C43.5121 34.0203 43.26 33.8756 43.2159 33.9149H41.9703C41.8505 33.7537 41.9892 33.6999 42.0837 33.6173C42.2686 33.4561 42.6425 33.4623 42.8777 33.4685C43.0626 33.4726 43.3882 33.6793 43.4449 33.6917H43.4428Z" fill="#240E0E"/>
<path d="M45.6341 34.5079C45.5606 34.5658 45.2056 35.2706 45.067 35.252C45.0271 35.2458 45.0481 34.9957 44.7645 35.0288C44.002 35.1218 43.2143 35.5289 42.4224 35.5496L43.4432 34.4335C44.1028 34.5761 44.962 34.2682 45.6341 34.5079Z" fill="#CD88A7"/>
<path d="M58.855 37.1846C59.1953 37.9556 57.851 38.4971 58.9307 38.7079C58.8928 38.7575 58.7458 38.7389 58.7794 38.8195C58.5652 38.7368 58.3236 38.6459 58.0988 38.5963C58.1744 38.1602 57.5716 38.4619 57.4939 38.2614C57.4224 37.753 57.7879 37.4016 58.1744 37.1082C58.3614 37.1578 58.6765 37.1433 58.855 37.1826V37.1846Z" fill="#DAC1CE"/>
<path d="M61.1214 41.4236L59.3842 43.2816C59.4619 43.0522 59.1174 42.6905 58.9305 42.612C58.8821 42.0333 58.5019 41.9134 58.0986 41.5703C58.1995 41.531 58.1869 41.5166 58.1743 41.4215C58.5587 41.2727 60.2727 40.4336 60.4408 40.1587C60.4513 40.1401 60.4303 40.0719 60.5164 40.0843C60.6109 40.3798 61.0268 41.2685 61.1214 41.4215V41.4236Z" fill="#CA8FB9"/>
<path d="M58.0987 38.5984C58.3235 38.648 58.563 38.7369 58.7793 38.8216C58.7835 38.8299 58.9117 38.7927 58.9306 38.8588C58.9747 39.0077 58.9558 39.3797 59.0062 39.5657C58.9558 39.545 58.8276 39.5864 58.7793 39.5657C58.6638 38.9725 58.0315 38.865 57.645 38.524C57.7521 38.5158 57.9748 38.5716 58.0987 38.5984Z" fill="#673213"/>
<path d="M58.9305 42.612C59.1175 42.6906 59.4599 43.0523 59.3843 43.2817C59.2771 43.602 58.8801 43.8811 58.7037 44.1746C58.6785 44.1704 58.6533 44.1766 58.6281 44.1746C58.6028 44.1725 58.5776 44.1766 58.5524 44.1746C58.3844 43.7199 57.5778 43.6413 57.9475 43.0213C57.9643 42.9923 58.6617 42.7939 58.4012 42.612C58.6281 42.6389 58.6155 42.5356 58.6281 42.5376C58.7079 42.548 58.8654 42.5852 58.9305 42.612Z" fill="#E2ABC5"/>
<path d="M58.5523 44.1727C58.5775 44.1748 58.6027 44.1706 58.6279 44.1727C58.4263 45.1317 58.2414 46.1362 57.9474 47.0725C57.8234 47.4652 57.6071 47.8599 57.4936 48.2609C56.9181 48.1121 54.0823 47.3846 53.7168 47.368L55.1515 46.6984C55.3426 46.7914 55.5422 46.874 55.7186 46.996C55.8111 46.9485 55.643 46.5475 55.6052 46.4751C56.3152 45.7538 57.3004 45.3405 58.0608 44.6915C58.2309 44.5468 58.4641 44.4352 58.4011 44.1706C58.4515 44.1727 58.5019 44.1665 58.5523 44.1706V44.1727Z" fill="#A84C56"/>
<path d="M59.3086 46.9978C58.6973 47.6137 58.6511 47.8349 58.2499 48.5583C58.2015 48.5624 58.1448 48.55 58.0986 48.5583C57.9936 48.4839 57.584 48.2834 57.4937 48.2607C57.605 47.8597 57.8234 47.4649 57.9474 47.0722C58.7918 46.9069 59.3737 45.8962 60.0248 45.2886L60.2139 45.3258C60.2643 45.4084 59.1846 46.6961 59.3065 46.9978H59.3086Z" fill="#8B3C46"/>
<path d="M37.5488 34.2125C37.6223 34.2146 37.7021 34.1856 37.7 34.2869C37.5971 34.2931 37.4354 34.2642 37.3597 34.2869C37.0446 34.382 34.8853 36.3579 34.7151 36.3682L34.1479 35.5498C34.6017 35.2666 36.5489 34.4523 37.0951 34.2869C37.282 34.2311 37.3303 34.2042 37.5488 34.2125Z" fill="#DFF3FD"/>
<path d="M43.9702 36.666V36.7404C43.9471 36.8624 43.7622 37.0194 43.6677 37.1124C42.6468 38.1169 41.5251 39.0119 40.5693 40.0866L42.2309 35.7008C42.3401 35.6388 43.6824 36.6226 43.9681 36.6681L43.9702 36.666Z" fill="#A84C56"/>
<path d="M47.1442 36.1449C46.8753 36.8869 46.9089 38.0588 46.5392 38.8215C45.6255 38.3792 44.8714 37.3271 43.9702 36.7402V36.6658C44.781 36.7939 46.4594 36.0271 47.1442 36.1449Z" fill="#CF5A47"/>
<path d="M40.5715 40.0843C40.4392 40.2331 40.227 40.4108 40.1934 40.6051C40.1115 40.5617 40.0464 40.5059 39.9666 40.4563C39.9393 39.6192 40.2439 38.7656 40.2691 38.0774L42.2331 35.6985L40.5715 40.0843Z" fill="#95486A"/>
<path d="M40.2691 38.0774C40.2439 38.7656 39.9393 39.6192 39.9666 40.4563C39.9456 40.4439 39.9057 40.4398 39.8154 40.3819C40.0569 39.1666 39.8238 39.2886 38.8323 38.8587C38.8176 38.7698 39.4268 37.3251 39.5129 37.1866C39.5339 37.1535 39.4625 37.0895 39.5885 36.9634C40.122 37.3664 40.2943 37.3809 40.2691 38.0795V38.0774Z" fill="#E0BAD8"/>
<path d="M46.539 40.2332C47.2238 40.3965 51.2527 42.5109 51.5636 42.4633C51.7274 42.4385 52.2946 41.5953 52.4332 41.4217C52.5214 41.3121 52.7168 41.2398 52.7357 41.0496C52.7546 41.06 52.8239 41.0393 52.8113 41.124C52.6454 41.6531 52.618 42.2525 52.3576 42.7589C52.0929 42.7816 51.448 42.9263 51.2233 42.9077C50.7233 42.8664 49.8453 42.3517 49.3348 42.2381L47.4086 41.5684L43.8944 42.3869C43.2432 42.176 43.1045 42.0458 42.5353 41.7916C42.5038 41.7772 42.4155 41.8061 42.384 41.7916C41.9513 41.5932 41.4619 41.4485 41.1006 41.122C42.4239 41.3803 45.014 40.0328 46.5411 40.2291L46.539 40.2332Z" fill="#791915"/>
<path d="M58.1745 41.4238C58.1871 41.5189 58.1997 41.5334 58.0988 41.5726C58.0337 41.5974 58.0148 41.552 57.872 41.647C56.3827 42.6495 57.5779 42.5172 58.4013 42.6143C58.6639 42.7941 57.9644 42.9946 57.9476 43.0235C57.5779 43.6436 58.3845 43.7221 58.5526 44.1768C58.5042 44.1727 58.4517 44.1789 58.4013 44.1768C57.1053 44.1024 55.2063 44.3546 53.8683 44.4745C53.696 44.491 53.5322 44.5385 53.4145 44.5489L53.8683 44.2884C53.257 43.3046 52.6541 43.8007 51.8286 43.3584C51.9736 43.441 53.1961 43.4617 53.4145 43.4328C53.5217 43.4183 53.7191 43.3253 53.8683 43.3212C53.7885 43.1682 53.6561 43.0566 53.5658 42.9119C53.5343 42.8623 53.5133 42.6949 53.4145 42.6143C54.7988 42.3808 56.9351 41.9033 58.1745 41.4259V41.4238Z" fill="url(#paint5_linear_289_3600)"/>
<path d="M53.339 39.6379C52.8621 39.3878 52.9945 40.5349 52.5071 40.0099C52.4945 39.9665 52.5071 39.9252 52.4315 39.9355C51.8454 39.208 51.2531 37.5008 50.6943 36.887L53.7927 37.8914C53.6057 38.4598 53.4965 39.0551 53.339 39.6379Z" fill="#D6E3F4"/>
<path d="M53.5657 42.9098C53.1876 42.8333 52.4923 42.8953 52.131 42.9842C52.0218 43.0111 51.7109 43.0834 51.6773 43.1702C51.7424 43.195 51.818 43.35 51.8285 43.3562C52.6541 43.7985 53.2569 43.3004 53.8682 44.2863L53.4145 44.5467C52.7549 44.6087 52.0617 44.8754 51.4504 44.9188C50.9967 44.5405 51.2089 43.5402 51.1479 42.9863C51.1942 42.9739 51.232 42.9863 51.2236 42.9119C51.4462 42.9305 52.0911 42.7879 52.3579 42.7631C52.7906 42.7238 53.0028 42.6845 53.4166 42.6143C53.5153 42.6928 53.5363 42.8623 53.5678 42.9119L53.5657 42.9098Z" fill="#E1DAEC"/>
<path d="M52.5092 40.2332C52.7319 40.3324 52.9146 40.4667 53.0385 40.6796C53.007 40.785 52.8453 41.0206 52.8117 41.126C52.8243 41.0413 52.755 41.064 52.7361 41.0516C51.253 40.1815 51.1942 40.1402 49.4108 39.8632C49.1147 39.8177 48.7996 39.8198 48.5034 39.7888C48.3669 39.5139 47.9341 39.7433 48.0497 39.1191C49.5642 39.3692 51.0934 39.5986 52.5071 40.2352L52.5092 40.2332Z" fill="#9F4D23"/>
<path d="M53.8677 35.1033C53.8257 35.8659 54.9894 35.1591 55.378 35.1033C55.3255 35.2293 55.2625 35.8494 55.3024 35.9589C55.3717 36.147 57.6571 36.9386 58.0226 37.0378C58.031 37.0399 58.0226 37.073 58.1739 37.1122C57.7874 37.4036 57.4219 37.755 57.4933 38.2655C57.571 38.466 58.1739 38.1622 58.0983 38.6003C57.9764 38.5735 57.7517 38.5177 57.6445 38.5259C57.4324 38.5445 57.4051 38.6665 57.2664 38.7863C57.2685 38.929 58.5541 39.4705 58.7767 39.5676C58.8251 39.5883 58.9532 39.5469 59.0036 39.5676C59.054 39.5883 59.1044 39.4891 59.117 39.4932C59.1801 39.518 59.117 39.7288 59.2683 39.7908C59.6065 39.9293 60.0812 40.0512 60.4404 40.1629C60.2724 40.4398 58.5583 41.2789 58.1739 41.4257C56.9345 41.9031 54.7982 42.3826 53.414 42.6141C53.0002 42.6844 52.788 42.7236 52.3553 42.7629C52.6157 42.2565 52.6431 41.6551 52.809 41.1281C52.8426 41.0226 53.0044 40.787 53.0359 40.6816C53.1409 40.3365 53.2438 39.9892 53.3383 39.6399C53.4959 39.0571 53.603 38.4619 53.7921 37.8935L50.6937 36.889C50.6328 36.8229 50.6055 36.7567 50.5425 36.7402C51.5823 36.1325 52.7901 35.5228 53.8677 35.1053V35.1033Z" fill="url(#paint6_linear_289_3600)"/>
<path d="M54.7755 40.1587C55.2292 40.5493 56.0674 40.3261 56.2858 40.9772C55.8195 41.1177 53.1139 40.6506 54.7755 40.1587Z" fill="#240E0E"/>
<path d="M56.2862 40.9771C56.0677 40.3261 55.2296 40.5514 54.7759 40.1587C54.9061 40.1194 56.2547 39.9747 56.324 40.0098C56.4521 40.0739 56.7609 40.8345 56.2862 40.9771Z" fill="#6A4A1D"/>
<path d="M54.1705 38.0774C54.4835 38.4453 55.3006 38.5548 55.7564 38.747C55.0191 39.2741 52.8303 38.1745 54.1705 38.0774Z" fill="#240E0E"/>
<path d="M57.647 38.5237C58.0335 38.8647 58.6637 38.9722 58.7813 39.5654C58.5587 39.4682 57.2731 38.9267 57.271 38.7841C57.4096 38.6663 57.4369 38.5423 57.6491 38.5237H57.647Z" fill="#170B0C"/>
<path d="M55.7563 38.747C55.3005 38.5548 54.4834 38.4473 54.1704 38.0774C54.5443 38.0505 55.4224 38.4039 55.8698 38.375L55.9454 38.5238C55.8488 38.59 55.853 38.6788 55.7563 38.747Z" fill="#6A4A1D"/>
<path d="M53.3387 39.638C53.2442 39.9852 53.1413 40.3345 53.0362 40.6797C52.9123 40.4689 52.7295 40.3324 52.5069 40.2332C52.4964 40.163 52.5237 40.0679 52.5069 40.01C52.9942 40.535 52.8619 39.3879 53.3387 39.638Z" fill="#DAC1CE"/>
<path d="M52.4333 39.9357C52.5089 39.9253 52.4963 39.9667 52.5089 40.0101C52.5257 40.0679 52.4984 40.163 52.5089 40.2333C51.0952 39.5967 49.566 39.3694 48.0515 39.1172C47.6124 39.0449 47.123 39.1048 46.6924 38.9684C47.5116 38.5943 48.2888 38.0797 49.1101 37.7056L52.4354 39.9357H52.4333Z" fill="#D77B36"/>
<path d="M49.1082 37.6309V37.7053C48.2869 38.0794 47.5097 38.5941 46.6904 38.9682C46.4489 38.8917 46.5623 38.8297 46.5392 38.8194C46.9089 38.0567 46.8753 36.8869 47.1442 36.1428C47.5118 36.2069 48.6083 37.4945 49.1082 37.6289V37.6309Z" fill="#F6956F"/>
<path d="M58.0987 41.5706C58.502 41.9136 58.8822 42.0315 58.9305 42.6122C58.8654 42.5854 58.7079 42.5482 58.628 42.5378C58.4957 42.0873 57.6135 42.2133 57.8718 41.645C58.0147 41.5499 58.0315 41.5974 58.0987 41.5706Z" fill="#6A4A1D"/>
<path d="M46.237 47.4443C46.1971 47.6924 46.447 47.496 46.4638 47.7048C46.4785 47.8742 44.8926 50.0733 44.7267 50.6417C43.7604 50.7719 44.2876 50.5714 43.8192 50.2697C43.8318 50.1932 43.7898 50.1002 43.7436 50.0465C42.9265 49.0089 43.481 48.825 43.5924 47.8164C43.9179 47.8494 45.8148 47.5353 46.237 47.4443Z" fill="#E0BAD8"/>
<path d="M43.5938 47.8165C43.4825 48.8251 42.9279 49.009 43.7451 50.0466C43.556 49.8316 43.3082 49.6415 43.1779 49.3769L42.9132 49.9722C42.8796 49.9577 42.7935 49.9866 42.762 49.9722C42.5729 49.8874 42.407 49.7241 42.3083 49.6745C42.5561 49.751 42.6423 49.6828 42.5351 49.4141C42.4679 49.2446 40.4892 46.5908 40.3442 46.4772C41.2895 46.349 42.7431 47.7255 43.5938 47.8144V47.8165Z" fill="#E8EAF6"/>
<path d="M43.7434 50.0466C43.7897 50.1003 43.8317 50.1933 43.8191 50.2698C43.3464 49.966 43.1847 50.0879 42.9116 49.9722L43.1763 49.377C43.3065 49.6415 43.5544 49.8317 43.7434 50.0466Z" fill="#6E1815"/>
<path d="M53.7171 47.37C54.0826 47.3866 56.9183 48.112 57.4939 48.2629C57.5821 48.2856 57.9938 48.4861 58.0989 48.5605C57.8993 48.5977 57.7019 48.6638 57.4939 48.7093C57.267 48.7589 57.0465 48.8209 56.8133 48.8581C56.2357 48.9491 55.2085 48.9449 54.7358 49.0813C54.2632 49.2178 53.8011 49.7386 53.1121 49.8998C53.152 49.7469 53.0386 49.7593 53.0365 49.751C52.9252 49.3934 52.2824 47.9012 52.2803 47.7441C52.2803 47.7234 52.4084 47.4176 52.4315 47.3721C52.463 47.3101 52.5954 47.1344 52.6584 47.0745C52.6374 47.1551 52.5071 47.649 52.5449 47.6697C52.9062 47.6697 53.3852 47.3576 53.7171 47.3721V47.37Z" fill="#90463D"/>
<path d="M58.6281 42.5376C58.6155 42.5376 58.6281 42.6389 58.4013 42.612C57.5779 42.517 56.3826 42.6472 57.8719 41.6448C57.6136 42.2132 58.4937 42.0871 58.6281 42.5376Z" fill="#240E0E"/>
<path d="M58.401 44.1726C58.4641 44.4371 58.2309 44.5467 58.0608 44.6934C57.3003 45.3424 56.3152 45.7578 55.6052 46.4771C55.4098 46.0968 54.8553 45.5263 54.4709 45.2887C54.2797 45.1708 54.0697 45.0716 53.9037 44.9166C53.4626 45.3982 54.1537 46.01 54.5465 46.3283C54.557 46.5887 54.4331 46.4006 54.3574 46.3283C53.9457 45.9356 53.6096 45.6979 53.4878 45.1398C53.6033 44.9084 53.7399 44.6955 53.8659 44.4702C55.204 44.3503 57.1029 44.1002 58.3989 44.1726H58.401Z" fill="#C27593"/>
<path d="M54.5487 46.3281C54.5697 46.3446 54.6727 46.3839 54.7 46.4025C54.8302 46.4955 55.0172 46.6319 55.1537 46.7001L53.719 47.3697C53.3871 47.3553 52.9103 47.6674 52.5469 47.6674C52.5091 47.6467 52.6393 47.1548 52.6603 47.0721C52.8011 46.5368 53.2338 45.6564 53.4921 45.1396C53.6119 45.6977 53.9501 45.9374 54.3618 46.3281C54.4374 46.4004 54.5592 46.5885 54.5508 46.3281H54.5487Z" fill="#C27593"/>
<path d="M55.605 46.4771C55.6428 46.5495 55.8109 46.9504 55.7185 46.9979C55.542 46.876 55.3425 46.7933 55.1513 46.7003C55.0148 46.6342 54.8278 46.4957 54.6976 46.4027C54.7312 45.8798 53.8531 45.4375 54.4707 45.2866C54.853 45.5243 55.4097 46.0947 55.605 46.475V46.4771Z" fill="#240E0E"/>
<path d="M40.3446 46.477C40.4895 46.5907 42.4683 49.2445 42.5355 49.414C42.6426 49.6826 42.5565 49.7488 42.3086 49.6744C41.5671 49.2982 40.9727 48.61 40.3068 48.2627C38.8679 47.5125 37.3765 47.1963 35.8116 46.9255C35.5448 46.4501 36.7379 46.5142 37.0194 46.4791C38.055 46.3489 39.1095 46.2807 40.1556 46.2559C40.2501 46.3241 40.2522 46.4067 40.3446 46.4791V46.477Z" fill="#E3C1BD"/>
<path d="M37.0194 46.477C36.7379 46.5121 35.5427 46.4481 35.8116 46.9234C35.2822 46.8325 35.2591 46.9462 34.9041 46.6258C35.1814 46.6155 36.2485 45.1108 36.1876 45.0282C35.4356 44.7781 34.608 44.776 33.8454 44.6189C33.3854 44.5239 32.5347 44.4267 32.1839 44.3213C32.0957 44.2944 31.9843 44.3254 31.957 44.1725L34.7151 42.9097C35.486 44.1601 36.5531 45.2266 37.4353 46.3303L37.0194 46.4791V46.477Z" fill="#DAC1CE"/>
<path d="M53.8683 44.4701C53.7444 44.6954 53.6057 44.9083 53.4902 45.1397C53.2339 45.6585 52.7991 46.5369 52.6584 47.0722C52.5953 47.1321 52.463 47.3058 52.4315 47.3698C52.2929 47.4298 52.2172 47.6427 52.0534 47.407C51.8896 47.1714 51.3875 45.2203 51.1838 45.1397C49.6944 45.8817 50.4191 45.7866 50.7678 46.5142C50.833 46.6506 50.6187 46.6175 50.6166 46.6258C50.5074 46.4625 50.3813 46.3178 50.2385 46.1793C50.0053 45.9541 49.7701 45.7412 49.4823 45.5841C49.497 45.1149 48.8353 45.2451 49.0286 44.84C49.7911 44.8607 50.7174 44.9661 51.4463 44.9145C52.0576 44.871 52.7529 44.6044 53.4104 44.5424C53.528 44.5321 53.6897 44.4846 53.8641 44.468L53.8683 44.4701Z" fill="#E2ABC5"/>
<path d="M38.9838 39.4146C38.3536 39.7991 39.4774 40.1608 39.8156 40.3819C39.9059 40.4398 39.9458 40.4439 39.9668 40.4563C39.9731 40.6692 40.1937 40.7477 40.1937 40.7912C40.1937 40.8883 39.6791 41.2066 39.6644 41.2376C39.5698 41.4422 40.4773 43.4884 40.1559 43.5049C39.8975 43.0853 37.7991 40.6299 37.7759 40.4191C37.7423 40.1298 38.2696 39.4994 38.5322 39.4146C38.6393 39.3795 38.8598 39.4436 38.9859 39.4146H38.9838Z" fill="#D6E3F4"/>
<path d="M50.8453 43.0584C50.3874 43.2424 48.8687 43.8996 48.4654 43.8769C48.2637 43.8645 45.993 42.922 45.4805 42.7608C47.2597 42.4839 49.0998 42.6616 50.8453 43.0584Z" fill="#734139"/>
<path d="M46.2365 39.5635C46.4319 39.7743 46.9465 39.8177 46.6902 40.1587C46.6818 40.1587 46.6944 40.2745 46.539 40.2331C45.0119 40.0347 42.424 41.3823 41.0985 41.126C40.9263 41.0929 40.9557 41.0537 40.9473 41.0516C41.275 40.8986 41.6005 40.4935 41.9303 40.3819C42.382 40.229 45.7534 39.5862 46.2365 39.5635Z" fill="#903B1F"/>
<path d="M39.513 37.1845C39.4268 37.3251 38.8177 38.7677 38.8324 38.8566C39.8217 39.2865 40.057 39.1666 39.8154 40.3798C39.4772 40.1587 38.3555 39.797 38.9836 39.4126C39.0508 39.3981 39.3554 39.3278 39.3617 39.301C39.1075 39.1253 38.7799 39.0819 38.5299 38.8917C38.3892 38.7863 37.9144 38.1477 37.7737 38.1477C37.4712 38.1477 37.2674 38.4804 37.5468 38.8173C37.1645 38.8731 37.1582 37.8252 37.2065 37.7756C37.3032 37.6806 39.3323 36.8931 39.5109 37.1804L39.513 37.1845Z" fill="#DECAE3"/>
<path d="M49.3351 42.24C49.8456 42.3516 50.7236 42.8683 51.2235 42.9096C51.232 42.984 51.1941 42.9716 51.1479 42.984C51.0639 43.0068 50.919 43.0295 50.8454 43.0584C49.0999 42.6616 47.2598 42.4839 45.4806 42.7608C45.3902 42.7319 45.3041 42.7277 45.1781 42.6864C45.1025 42.4384 45.4323 42.4219 45.594 42.3888C46.8943 42.1284 48.0286 41.9527 49.333 42.24H49.3351Z" fill="#8E6155"/>
<path d="M42.0062 39.7122C41.4075 39.9458 41.1176 40.5328 40.5715 40.8283C40.3908 40.7456 40.3278 40.6754 40.1934 40.6051C40.227 40.4108 40.4391 40.2331 40.5715 40.0843C41.5272 39.0095 42.6489 38.1146 43.6698 37.1101L42.0083 39.7122H42.0062Z" fill="#6F182F"/>
<path d="M49.3349 42.2402C48.0304 41.9529 46.8961 42.1286 45.5959 42.389C45.4341 42.4221 45.1043 42.4386 45.1799 42.6866C44.8018 42.5647 44.3334 42.5316 43.8965 42.389L47.4107 41.5706L49.337 42.2402H49.3349Z" fill="#5A161A"/>
<path d="M44.4239 39.4148C43.8315 39.9687 42.3149 39.6545 41.9305 40.3821C41.6007 40.4937 41.2751 40.8988 40.9474 41.0517C40.6996 40.9732 40.6513 40.8657 40.5693 40.8285C41.1176 40.535 41.4054 39.946 42.004 39.7124C42.6762 39.4499 43.6866 39.4871 44.4218 39.4148H44.4239Z" fill="#55100D"/>
<path d="M31.8059 43.9493C31.2724 42.5355 31.6589 41.0164 31.5034 39.7123C31.5937 39.6999 31.6274 39.394 31.7303 39.6751C31.8836 40.0884 31.9739 43.0109 31.9571 43.6144C31.9529 43.7508 32.0328 43.9823 31.8059 43.9493Z" fill="#E1DAEC"/>
<path d="M38.5321 38.8959C38.78 39.084 39.1077 39.1295 39.364 39.3051C39.3577 39.332 39.0531 39.4023 38.9859 39.4168C38.8598 39.4457 38.6393 39.3816 38.5321 39.4168C38.2024 39.2328 37.8011 39.1253 37.5491 38.8215C37.2697 38.4846 37.4735 38.1539 37.7759 38.1519C37.402 38.6355 38.0385 38.9993 38.5321 38.8959Z" fill="#240E0E"/>
<path d="M37.6997 34.287C38.9832 34.2105 40.838 35.153 42.0059 35.6614C42.0353 35.9156 39.8087 36.7423 39.5881 36.9614C39.4621 37.0875 39.5335 37.1516 39.5125 37.1846C39.334 36.8953 37.3048 37.6848 37.2082 37.7799C37.1578 37.8274 37.1662 38.8753 37.5485 38.8216C37.8005 39.1233 38.2018 39.2329 38.5315 39.4168C38.269 39.5015 37.7417 40.1299 37.7753 40.4213C37.7984 40.6321 39.8969 43.0875 40.1553 43.507C40.4767 43.4905 39.5692 41.4444 39.6638 41.2397C39.6785 41.2087 40.1931 40.8904 40.1931 40.7933C40.1931 40.7499 39.9725 40.6714 39.9662 40.4585C40.044 40.5081 40.1112 40.5639 40.1931 40.6073C40.3275 40.6776 40.3906 40.7478 40.5712 40.8305C40.651 40.8677 40.7014 40.9752 40.9493 41.0537C40.9577 41.0558 40.9283 41.0951 41.1006 41.1281C41.4619 41.4547 41.9513 41.5973 42.384 41.7978C42.2643 42.3083 42.8524 44.0837 43.4427 43.1722L42.5352 41.7978C43.1045 42.052 43.2431 42.1801 43.8943 42.393C44.3333 42.5356 44.7997 42.5687 45.1778 42.6907C45.3038 42.732 45.3878 42.7361 45.4803 42.7651C45.9907 42.9242 48.2614 43.8687 48.4652 43.8811C48.8685 43.9059 50.3872 43.2466 50.8451 43.0627C50.9186 43.0337 51.0636 43.011 51.1476 42.9883C51.2085 43.5422 50.9964 44.5446 51.4501 44.9208C50.7212 44.9724 49.7948 44.867 49.0323 44.8463C47.2994 44.8009 45.5685 44.6521 43.8565 44.3999C43.699 44.4723 43.6423 47.372 43.5918 47.8205C42.7411 47.7316 41.2896 46.3531 40.3422 46.4833C40.2498 46.4109 40.2477 46.3283 40.1532 46.2601C39.1071 46.2849 38.0547 46.3531 37.017 46.4833L37.4329 46.3345C36.5528 45.2308 35.4836 44.1664 34.7127 42.9139L31.9546 44.1767C31.7971 44.154 31.8328 44.03 31.8034 43.9535C32.0303 43.9865 31.9504 43.7551 31.9546 43.6187C31.9714 43.0131 31.8811 40.0927 31.7278 39.6793C31.6248 39.3982 31.5912 39.7041 31.5009 39.7165C31.4946 39.6607 31.4904 39.6338 31.4253 39.6421C31.4694 39.4953 31.5219 39.3403 31.5765 39.1957C31.6038 39.1254 31.6227 38.9621 31.6522 38.898C31.7446 38.6893 31.7677 38.6479 31.879 38.4516C32.0534 38.1478 32.6289 37.3479 32.8621 37.04C33.257 36.5109 33.5784 35.9073 34.1455 35.5539L34.7127 36.3724C34.8807 36.362 37.0422 34.3862 37.3573 34.2911C37.4329 34.2684 37.5947 34.2973 37.6976 34.2911L37.6997 34.287Z" fill="#F8F9FA"/>
<path d="M40.458 43.875L42.0818 44.2842L40.458 45.3631V43.875Z" fill="#DFF3FD"/>
<path d="M42.3463 44.2471C42.5333 44.2223 42.9324 44.6502 42.8001 44.8424C42.1111 45.0759 41.4074 45.6836 40.647 45.5492C40.8171 45.3508 42.2392 44.2637 42.3463 44.2492V44.2471Z" fill="#170B0C"/>
<path d="M38.305 45.2141C38.2378 45.799 37.763 46.6092 37.4732 45.8466C37.2274 45.1955 37.4795 44.5341 38.0025 44.1001L37.8513 45.2534L38.305 45.2162V45.2141Z" fill="#240E0E"/>
<path d="M36.1138 42.017C35.5592 41.5457 36.1138 41.4403 36.4919 41.1985C36.8175 40.9898 37.4287 40.5661 37.6262 41.0125C37.2565 41.3639 36.62 41.9054 36.1159 42.017H36.1138Z" fill="#240E0E"/>
<path d="M42.5355 41.7937L43.443 43.1682C42.8548 44.0796 42.2666 42.3042 42.3843 41.7937C42.4158 41.8082 42.504 41.7793 42.5355 41.7937Z" fill="#240E0E"/>
<path d="M34.5637 37.2592C34.7444 37.2075 36.0929 37.3852 36.1118 37.5196C36.2043 38.1644 33.3706 37.6064 34.5637 37.2592Z" fill="#240E0E"/>
<path d="M36.4919 41.2003C36.1138 41.4421 35.5593 41.5455 36.1138 42.0188C36.0991 42.0229 35.9899 42.18 35.8113 42.056C35.7252 41.5269 35.2631 41.2127 35.7735 40.5327C36.4835 40.5637 35.9311 41.0618 36.4919 41.2024V41.2003Z" fill="#D6E3F4"/>
<path d="M40.1553 41.2006C40.7918 41.0746 40.7308 42.2485 40.5334 42.3167C40.1007 42.4614 39.5965 41.3122 40.1553 41.2006Z" fill="#240E0E"/>
<path d="M38.5315 35.6987C38.5189 36.1162 39.2436 36.3477 39.439 36.7404C39.4264 36.7548 39.4684 36.8789 39.4012 36.8892C39.1071 36.9326 37.0023 35.2502 38.5315 35.7008V35.6987Z" fill="#240E0E"/>
<path d="M35.5091 39.8612C35.3305 39.4499 34.6626 40.165 34.4126 40.0844L34.4504 39.8612C34.7172 39.5656 34.9672 39.2515 35.32 39.0427C35.4482 39.3259 35.6561 39.5594 35.5091 39.8612Z" fill="#6A4A1D"/>
<path d="M35.5091 39.8614C35.3179 40.2499 34.4168 40.3574 34.0366 40.4566L33.9609 40.3078C33.9777 40.2251 34.3748 39.9482 34.4525 39.8614L34.4147 40.0846C34.6625 40.1652 35.3305 39.4501 35.5112 39.8614H35.5091Z" fill="#240E0E"/>
<path d="M39.4369 36.7402C39.2416 36.3495 38.5169 36.116 38.5295 35.6985C38.9832 35.8308 39.8906 36.2421 39.4369 36.7402Z" fill="#512B14"/>
<path d="M38.3048 45.2141L37.8511 45.2513L38.0023 44.098C38.0149 44.0877 37.9708 43.9782 38.0401 43.9492C38.309 44.3357 38.3594 44.7408 38.3048 45.212V45.2141Z" fill="#6A4A1D"/>
<path d="M46.5394 38.8215C46.5625 38.8319 46.447 38.8939 46.6906 38.9703C45.445 39.5408 45.7244 39.2886 44.4241 39.4168C43.6889 39.4891 42.6785 39.4519 42.0063 39.7144L43.6679 37.1123C43.7624 37.0193 43.9473 36.8622 43.9704 36.7402C44.8715 37.3272 45.6256 38.3792 46.5394 38.8215Z" fill="#962920"/>
<path d="M49.4862 40.5308C50.4986 40.7457 51.4775 41.033 52.4333 41.4236C52.2946 41.5952 51.7296 42.4405 51.5636 42.4653C51.2528 42.5108 47.226 40.3985 46.5391 40.2352C46.6945 40.2766 46.6819 40.1629 46.6903 40.1608C47.3583 40.0244 48.7783 40.382 49.4862 40.5328V40.5308Z" fill="#9F4D23"/>
<path d="M52.7358 41.0516C52.7169 41.2417 52.5215 41.3141 52.4333 41.4236C51.4775 41.035 50.4987 40.7457 49.4862 40.5307C49.2782 40.2434 49.3538 40.1876 49.4106 39.8611C51.194 40.138 51.2507 40.1814 52.7358 41.0495V41.0516Z" fill="#CF892B"/>
<path d="M53.4144 43.4306C53.196 43.4616 51.9734 43.4388 51.8285 43.3562C51.818 43.35 51.7424 43.1949 51.6772 43.1701C51.7109 43.0833 52.0196 43.011 52.131 42.9841C52.5091 43.3562 53.259 42.7609 53.4144 43.4306Z" fill="#240E0E"/>
<path d="M53.5656 42.9098C53.6559 43.0524 53.7882 43.1661 53.868 43.319C53.7189 43.3231 53.5214 43.4162 53.4143 43.4306C53.2589 42.761 52.5069 43.3583 52.1309 42.9842C52.4943 42.8953 53.1874 42.8333 53.5656 42.9098Z" fill="#6A4A1D"/>
<path d="M48.0516 39.1171C47.934 39.7413 48.3688 39.5118 48.5053 39.7867C47.7932 39.7103 46.953 39.5325 46.2388 39.5635C45.7536 39.5842 42.3842 40.229 41.9326 40.382C42.317 39.6565 43.8315 39.9686 44.426 39.4147C45.7263 39.2866 45.4469 39.5387 46.6925 38.9683C47.1252 39.1047 47.6147 39.0447 48.0516 39.1171Z" fill="#791915"/>
<path d="M48.5033 39.7866C48.7995 39.8176 49.1146 39.8156 49.4108 39.861C49.3541 40.1876 49.2785 40.2434 49.4864 40.5307C48.7785 40.3798 47.3585 40.0222 46.6905 40.1587C46.9489 39.8197 46.4343 39.7742 46.2368 39.5634C46.951 39.5324 47.7912 39.7102 48.5033 39.7866Z" fill="#BE783A"/>
<path d="M46.8414 47.3699C47.3497 48.0292 48.6142 48.0333 49.1079 48.7071C48.4777 48.9613 47.9126 49.4098 47.2951 49.6744C46.6775 49.9389 45.8436 50.3151 45.1798 50.4928C45.0349 50.5321 44.892 50.6189 44.7261 50.6417C44.892 50.0733 46.478 47.8742 46.4633 47.7047C46.4464 47.496 46.1965 47.6923 46.2364 47.4443C46.4128 47.4071 46.6082 47.4319 46.8414 47.3699Z" fill="#D08D8C"/>
<path d="M34.9044 46.626C34.4612 46.2251 34.0978 45.1668 33.8457 44.6191C34.6082 44.7742 35.4358 44.7762 36.1878 45.0284C36.2488 45.1131 35.1817 46.6157 34.9044 46.626Z" fill="#FABAA6"/>
<path d="M49.5619 48.5582L53.0384 49.7467C53.0384 49.7467 53.1539 49.7425 53.114 49.8955C52.3851 50.0649 51.4504 50.0484 50.6962 50.0443C50.1543 50.0422 49.522 49.9244 48.9591 49.8955C48.6839 49.881 48.4024 49.912 48.1272 49.8955C47.8332 49.8769 47.5265 49.9079 47.2954 49.6722C47.913 49.4077 48.4801 48.9592 49.1082 48.705C49.2006 48.6678 49.3372 48.5851 49.4107 48.5562C49.4464 48.5417 49.5262 48.5686 49.5619 48.5562V48.5582Z" fill="#72265D"/>
<path d="M52.4334 47.3699C52.4103 47.4153 52.2821 47.7212 52.2821 47.7419C51.3894 48.0478 50.4462 48.2297 49.5619 48.5604C49.5262 48.5728 49.4464 48.5459 49.4106 48.5604C49.4506 47.899 49.3791 47.0764 49.7131 46.4791C49.9232 46.5432 50.3013 46.7519 50.4315 46.7767C50.5176 46.7932 50.963 46.7767 50.6206 46.7023C50.6248 46.6775 50.6164 46.6506 50.6206 46.6279C50.6206 46.6196 50.8369 46.6527 50.7718 46.5163C50.421 45.7888 49.6984 45.8838 51.1877 45.1418C51.3894 45.2225 51.8977 47.1797 52.0574 47.4091C52.217 47.6386 52.2968 47.4319 52.4355 47.3719L52.4334 47.3699Z" fill="#E0BAD8"/>
<path d="M53.0385 49.7488L49.562 48.5604C50.4443 48.2297 51.3895 48.0499 52.2823 47.7419C52.2823 47.899 52.9271 49.3913 53.0385 49.7488Z" fill="#C16E71"/>
<path d="M54.4734 45.2887C53.8559 45.4375 54.7339 45.8818 54.7003 46.4047C54.673 46.3861 54.5701 46.3469 54.549 46.3303C54.1562 46.01 53.4652 45.4003 53.9063 44.9187C54.0722 45.0716 54.2823 45.1709 54.4734 45.2907V45.2887Z" fill="#240E0E"/>
<path d="M49.7133 46.477C49.3793 47.0743 49.4507 47.8969 49.4108 48.5583C49.3373 48.5852 49.2007 48.6699 49.1083 48.7071C48.6147 48.0333 47.3501 48.0292 46.8418 47.3699C47.3333 47.2376 49.0558 46.2683 49.373 46.2538C49.5074 46.2476 49.6944 46.4708 49.7133 46.477Z" fill="#E1B5C2"/>
<path d="M50.2425 46.1795C50.3853 46.318 50.5114 46.4627 50.6206 46.626C50.6164 46.6487 50.6248 46.6756 50.6206 46.7004L48.3919 45.8075C48.3289 45.6938 48.77 45.39 48.8834 45.3611C49.0788 45.8282 49.7677 46.2105 50.2425 46.1795Z" fill="#240E0E"/>
<path d="M49.4862 45.5863C49.7718 45.7413 50.0092 45.9542 50.2424 46.1815C49.7676 46.2126 49.0787 45.8302 48.8833 45.3631C49.1732 45.2907 49.2761 45.4706 49.4883 45.5863H49.4862Z" fill="#6A4A1D"/>
<path d="M49.0324 44.8421C48.8392 45.2451 49.5009 45.1149 49.4862 45.5861C49.274 45.4704 49.1732 45.2906 48.8812 45.3629C48.7678 45.3918 48.3266 45.6957 48.3897 45.8093L50.6184 46.7022C50.9608 46.7787 50.5154 46.7932 50.4293 46.7766C50.3012 46.7518 49.9231 46.5431 49.7109 46.479C49.692 46.4728 49.5051 46.2516 49.3706 46.2558C49.0534 46.2682 47.3331 47.2396 46.8394 47.3719C46.6063 47.4339 46.4109 47.4091 46.2345 47.4463C45.8144 47.5372 43.9175 47.8514 43.5898 47.8183C43.6403 47.3698 43.697 44.47 43.8545 44.3977C45.5665 44.6499 47.2974 44.7987 49.0303 44.8441L49.0324 44.8421Z" fill="#E1DAEC"/>
<path d="M45.7095 45.6604C45.6507 45.7307 45.3965 46.1998 45.3692 46.3301L46.3145 46.0324C46.3838 46.452 45.0625 46.6256 44.7663 46.8509C44.1551 46.3797 45.3503 45.8857 45.7116 45.6625L45.7095 45.6604Z" fill="#240E0E"/>
<path d="M46.3124 46.0325L45.3672 46.3302C45.3945 46.202 45.6487 45.7308 45.7075 45.6605C45.9932 45.3195 46.2536 45.6771 46.3124 46.0325Z" fill="#5C3D17"/>
<path d="M38.5319 38.8959C38.0382 39.0013 37.4017 38.6376 37.7757 38.1519C37.9164 38.1519 38.3911 38.7884 38.5319 38.8959Z" fill="#5C3D17"/>
</g>
<defs>
<filter id="filter0_i_289_3600" x="0" y="0" width="70" height="70" filterUnits="userSpaceOnUse" color-interpolation-filters="sRGB">
<feFlood flood-opacity="0" result="BackgroundImageFix"/>
<feBlend mode="normal" in="SourceGraphic" in2="BackgroundImageFix" result="shape"/>
<feColorMatrix in="SourceAlpha" type="matrix" values="0 0 0 0 0 0 0 0 0 0 0 0 0 0 0 0 0 0 127 0" result="hardAlpha"/>
<feMorphology radius="3" operator="erode" in="SourceAlpha" result="effect1_innerShadow_289_3600"/>
<feOffset/>
<feGaussianBlur stdDeviation="1"/>
<feComposite in2="hardAlpha" operator="arithmetic" k2="-1" k3="1"/>
<feColorMatrix type="matrix" values="0 0 0 0 0 0 0 0 0 0 0 0 0 0 0 0 0 0 0.08 0"/>
<feBlend mode="normal" in2="shape" result="effect1_innerShadow_289_3600"/>
</filter>
<linearGradient id="paint0_linear_289_3600" x1="30.3159" y1="17.5063" x2="31.3089" y2="24.8025" gradientUnits="userSpaceOnUse">
<stop stop-color="#E0F0FB"/>
<stop offset="1" stop-color="#F8F6FA"/>
</linearGradient>
<linearGradient id="paint1_linear_289_3600" x1="28.8996" y1="26.1807" x2="30.9435" y2="30.0793" gradientUnits="userSpaceOnUse">
<stop stop-color="#D37B69"/>
<stop offset="1" stop-color="#EEA093"/>
</linearGradient>
<linearGradient id="paint2_linear_289_3600" x1="22.7178" y1="29.8494" x2="24.5229" y2="37.2973" gradientUnits="userSpaceOnUse">
<stop stop-color="#FBBC8E"/>
<stop offset="1" stop-color="#FECC8A"/>
</linearGradient>
<linearGradient id="paint3_linear_289_3600" x1="32.7735" y1="34.3777" x2="28.9987" y2="38.8322" gradientUnits="userSpaceOnUse">
<stop stop-color="#E67A56"/>
<stop offset="1" stop-color="#F68F42"/>
</linearGradient>
<linearGradient id="paint4_linear_289_3600" x1="37.2146" y1="50.5713" x2="40.6646" y2="53.1087" gradientUnits="userSpaceOnUse">
<stop stop-color="#DD9F34"/>
<stop offset="1" stop-color="#CB8029"/>
</linearGradient>
<linearGradient id="paint5_linear_289_3600" x1="56.3974" y1="43.1248" x2="55.0107" y2="43.8835" gradientUnits="userSpaceOnUse">
<stop stop-color="#E0CFE6"/>
<stop offset="1" stop-color="#E6E3F1"/>
</linearGradient>
<linearGradient id="paint6_linear_289_3600" x1="57.3252" y1="37.7612" x2="52.6321" y2="39.6296" gradientUnits="userSpaceOnUse">
<stop stop-color="#E7D4E7"/>
<stop offset="1" stop-color="#F8FCFE"/>
</linearGradient>
</defs>
</svg>
