<svg width="70" height="70" viewBox="0 0 70 70" fill="none" xmlns="http://www.w3.org/2000/svg">
<g filter="url(#filter0_i_366_118543)">
<path d="M0 35C0 15.67 15.67 0 35 0C54.33 0 70 15.67 70 35C70 54.33 54.33 70 35 70C15.67 70 0 54.33 0 35Z" fill="white" fill-opacity="0.75"/>
<path d="M54.3278 38.4326C54.228 38.5927 54.0556 38.8081 53.9379 38.983C53.8706 39.0818 53.8107 39.1934 53.7423 39.2893C53.5658 39.5373 53.344 39.8485 53.1569 40.0847C52.9004 40.4068 52.5914 40.7585 52.3107 41.0639C50.2673 43.289 47.238 45.3334 44.3705 46.5082C40.926 47.9202 37.2008 48.5733 33.4367 48.3431C31.8611 48.2462 30.2875 47.9953 28.7834 47.5477C28.7781 48.1751 29.5191 48.4715 29.2059 49.1997C29.0987 49.1671 28.9873 49.1128 28.8801 49.0772C27.9782 48.7729 26.3721 48.1326 25.8865 47.3332C25.7424 47.0961 25.7025 46.6969 25.6258 46.5685C25.6815 46.5685 25.692 46.521 25.7561 46.5072L28.0339 47.3332L26.8945 46.8748C26.843 46.5892 26.2144 46.4301 25.9506 46.2631C24.5126 45.3531 22.5607 43.5677 21.9805 42.0114C21.4002 40.4552 22.259 39.3061 22.176 37.7597C24.1794 38.3832 26.3994 38.8219 28.489 39.1055C31.8758 39.5649 38.9604 39.9463 42.1558 39.0442C47.5775 38.2113 54.2921 36.414 56.8642 31.3975C56.5247 33.9032 55.689 36.2549 54.3257 38.4326H54.3278Z" fill="url(#paint0_linear_366_118543)"/>
<path d="M16.256 34.9458C16.3212 36.0702 16.8583 37.3231 17.3628 38.3408C18.826 41.2942 21.3098 43.797 24.2288 45.5291C24.6797 45.7969 25.4239 46.0469 25.8234 46.3245C25.899 46.3769 26.0199 46.4332 26.0189 46.5389C25.9947 46.5884 25.9085 46.4747 25.7582 46.5083C25.6941 46.5222 25.6836 46.5696 25.6279 46.5696C25.5259 46.3986 23.6013 45.5815 23.1871 45.3463C17.675 42.2062 13.686 37.1937 13.0669 31.031C13.6608 32.6673 14.816 33.9053 16.256 34.9468V34.9458Z" fill="#AE9B96"/>
<path d="M22.178 37.7599C22.261 39.3062 21.4117 40.48 21.9825 42.0116C22.5532 43.5431 24.5146 45.3543 25.9526 46.2633L25.8222 46.3246C25.4228 46.0469 24.6786 45.7969 24.2277 45.5291C21.3087 43.797 18.8249 41.2942 17.3617 38.3408C16.8572 37.3221 16.3211 36.0702 16.2549 34.9458C17.9745 36.1888 20.1209 37.1196 22.1769 37.7599H22.178Z" fill="#95908E"/>
<path d="M44.3707 46.5085C44.377 47.1824 43.8304 47.714 43.2964 48.0994C41.8501 49.1428 38.7598 49.7821 36.9508 49.9342C36.4515 49.9767 35.9554 49.9846 35.454 49.9955C34.7098 50.0123 33.9824 49.9876 33.2414 49.9342C33.1342 49.9263 33.0227 49.9431 32.9155 49.9342L33.3707 49.7811C33.029 49.4086 33.4106 48.8029 33.4358 48.3434C37.1999 48.5736 40.9251 47.9205 44.3696 46.5085H44.3707Z" fill="#193033"/>
<path d="M33.437 48.3442C33.4118 48.8037 33.0302 49.4094 33.3718 49.7819L32.9167 49.935C32.4847 49.8965 31.915 49.8224 31.4851 49.7513C30.8102 49.6406 29.8621 49.4025 29.2073 49.2009C29.5205 48.4737 28.7784 48.1763 28.7847 47.5488C30.2889 47.9964 31.8624 48.2474 33.438 48.3442H33.437Z" fill="#314543"/>
<path d="M25.7573 46.5082C25.9066 46.4746 25.9938 46.5883 26.018 46.5389C26.0191 46.4331 25.8982 46.3778 25.8225 46.3244L25.9528 46.2632C26.2167 46.4302 26.8452 46.5893 26.8967 46.8748L28.0362 47.3333L25.7584 46.5072L25.7573 46.5082Z" fill="#8B9393"/>
<path d="M36.7566 33.3549C36.9364 33.6602 35.9988 33.6562 35.8127 33.5999C35.7076 33.5673 35.675 33.2155 35.4543 33.3549C35.4533 33.3143 35.4511 33.2728 35.4543 33.2323C35.4627 33.1118 35.5352 33.0298 35.5846 32.926C35.9504 33.0989 36.3656 33.2353 36.7556 33.3539L36.7566 33.3549Z" fill="#787D33"/>
<path d="M34.8046 24.301C34.484 24.4591 34.1287 24.6617 33.8281 24.8514L33.1123 24.7901C33.0997 24.7121 33.0156 24.5303 32.9819 24.4235L34.8046 24.301Z" fill="#CF9841"/>
<path d="M33.8283 24.8515C33.8283 24.8515 33.8262 24.8713 33.7631 24.9128H33.1125C33.1093 24.8733 33.1188 24.8298 33.1125 24.7903L33.8283 24.8515Z" fill="#BE7833"/>
<path d="M48.2109 27.1766C48.1636 27.3406 48.1353 27.5006 48.0806 27.6657C48.0564 27.7378 48.0417 27.8396 48.0154 27.9107C47.9913 27.9769 47.9765 28.0915 47.9503 28.1557C47.5708 29.0974 46.8844 29.9669 46.1928 30.7248C46.0467 30.7929 46.0015 30.9224 45.9321 30.9698C45.7923 31.0656 45.724 31.1733 45.6063 31.2761C45.5085 31.3621 45.3834 31.4372 45.2804 31.5211C45.1648 31.615 45.0218 31.6881 44.9546 31.8275C44.7391 31.8571 44.7349 31.9925 44.6939 32.0112C43.4514 32.5883 42.8365 33.1209 41.3744 33.4795C41.1474 33.5349 40.8888 33.6277 40.6586 33.6633C40.5682 33.6771 40.6061 33.5349 40.5609 33.5408C40.5283 33.5447 40.5955 33.6386 40.3328 33.6633C39.8671 33.7078 39.4361 33.7364 38.9663 33.7246C38.4964 33.7127 37.9951 33.688 37.5347 33.602C37.2719 33.5526 37.008 33.4351 36.7537 33.357C36.3627 33.2384 35.9475 33.1021 35.5827 32.9292C35.3252 32.8076 34.9331 32.5853 34.6714 32.4401C34.6598 32.4331 34.5789 32.3156 34.4759 32.2563C34.1637 32.0774 33.7233 31.6239 33.4342 31.5221C33.4079 31.447 33.3648 31.3947 33.3039 31.3384C32.7583 30.8315 32.2959 30.3315 31.9374 29.6863C31.9332 29.5391 31.9048 29.4373 32.1003 29.5638C32.751 29.9857 33.1557 30.6052 34.0523 31.032C38.0581 32.9351 47.7506 31.6644 48.1426 26.5659L49.3136 27.0856L48.3045 26.81C48.1384 26.9029 48.2404 27.059 48.2067 27.1766H48.2109Z" fill="url(#paint1_linear_366_118543)"/>
<path d="M48.1457 25.9528C48.1667 26.1188 48.1593 26.3925 48.1457 26.5644C47.7536 31.6629 38.0612 32.9336 34.0553 31.0305C33.1577 30.6037 32.754 29.9842 32.1034 29.5623C31.9079 29.4358 31.9363 29.5376 31.9405 29.6848C31.9384 29.6808 31.9163 29.7036 31.8753 29.6235C31.8227 29.5208 31.7492 29.5089 31.745 29.501C31.726 29.4585 31.5705 28.8597 31.5494 28.7668C31.5284 28.674 31.4906 28.6265 31.4843 28.5831C31.4559 28.3963 31.5042 28.1651 31.4843 27.9714C31.5274 27.7985 31.5074 27.3499 31.5494 27.2373C31.767 26.6524 32.5985 25.7453 33.1114 25.3412C33.3111 25.1831 33.5045 25.0813 33.7621 24.9133C33.8251 24.8718 33.823 24.855 33.8272 24.8521C34.1279 24.6624 34.4821 24.4588 34.8037 24.3017C35.1254 24.1446 35.5711 23.9332 35.9106 23.8126C36.597 23.5676 37.4694 23.3324 38.1884 23.201C40.7573 22.7307 47.7168 22.4915 48.1457 25.9538V25.9528Z" fill="white"/>
<path d="M33.7631 24.9126C33.5056 25.0806 33.3122 25.1833 33.1125 25.3404C33.1041 25.1991 33.124 25.0529 33.1125 24.9126H33.7631Z" fill="#F1D05F"/>
<path d="M38.3838 31.3362C38.429 30.9726 38.2608 30.3046 38.6445 30.0517C40.5838 30.189 44.7526 29.2355 43.5911 26.6873C44.8566 27.1339 46.0276 27.9224 47.4634 27.788C45.6534 30.6337 41.7064 31.5032 38.3848 31.3362H38.3838Z" fill="#F6D2C8"/>
<path d="M38.6446 30.0516C38.261 30.3045 38.4291 30.9735 38.3839 31.3361C38.0476 31.3193 36.0052 31.1098 35.9106 30.8776L36.431 29.5012C37.0805 29.7838 37.9267 30.0012 38.6436 30.0516H38.6446Z" fill="#F1E7E8"/>
<path d="M43.5898 26.6872C44.7524 29.2354 40.5836 30.1899 38.6432 30.0516C37.9264 30.0002 37.0802 29.7838 36.4306 29.5012C32.4531 27.7721 35.5834 24.7673 38.8061 24.6685C40.2451 24.6241 42.9623 25.3128 43.5898 26.6872Z" fill="url(#paint2_linear_366_118543)"/>
<path d="M37.6354 25.3413C37.6943 25.3384 37.7689 25.3245 37.7984 25.3719C37.3149 26.1792 35.5942 26.5132 35.9757 27.6356C35.8748 27.936 34.9162 27.3728 35.3251 26.6565C35.4649 26.4104 37.4042 25.3532 37.6354 25.3413Z" fill="#F9EB86"/>
<path d="M37.5051 27.4214C38.3902 27.3384 37.7343 28.613 36.7893 28.4006C35.899 28.2 37.2161 27.449 37.5051 27.4214Z" fill="#FCD081"/>
<path d="M27.1904 20.6916C27.1967 20.6945 27.2482 20.7884 27.2555 20.8141C27.203 20.8062 27.0022 20.7726 26.9949 20.7835L27.1904 21.3032H27.1252C27.0874 21.236 26.7699 20.743 26.6701 20.8754C26.6753 20.8358 26.6659 20.7924 26.6701 20.7528L26.7026 20.4465C26.8435 20.5947 27.0337 20.6244 27.1904 20.6916Z" fill="#ACBA3A"/>
<path d="M27.2543 20.814C27.3668 20.8308 27.7557 20.9998 27.905 21.0591C28.8478 21.4316 30.4392 21.9296 31.257 22.4048C31.7174 22.6726 32.7423 23.8514 32.8516 23.8731C32.7486 24.0194 32.9367 24.2782 32.9819 24.4235C33.0156 24.5312 33.0996 24.712 33.1123 24.7901C33.1186 24.8286 33.1091 24.8731 33.1123 24.9126C33.1238 25.0529 33.1038 25.2001 33.1123 25.3404C32.5993 25.7455 31.7679 26.6516 31.5503 27.2366C31.3779 26.8759 30.8145 26.8374 30.5412 26.6249C30.3247 26.456 28.5714 23.637 28.2308 23.1074C27.8556 22.5244 27.618 21.8535 27.1892 21.3031L26.9937 20.7834C27.001 20.7725 27.2018 20.8061 27.2543 20.814Z" fill="url(#paint3_linear_366_118543)"/>
<path d="M31.5503 27.2376C31.5083 27.3503 31.5282 27.7989 31.4851 27.9718C31.4767 28.0044 31.3601 28.1328 31.42 28.2475C31.3296 28.3265 31.3611 28.1566 31.3548 28.1556C31.4305 27.7475 31.0742 27.7603 31.029 27.6971C31.0079 27.6675 31.1404 27.6566 30.8986 27.3602C29.3503 25.4621 28.2824 23.3545 27.124 21.3032H27.1892C27.617 21.8536 27.8556 22.5255 28.2309 23.1075C28.5714 23.6371 30.3247 26.4561 30.5412 26.625C30.8135 26.8375 31.3779 26.876 31.5503 27.2367V27.2376Z" fill="#638239"/>
<path d="M30.8996 27.3603C31.1414 27.6567 31.0089 27.6676 31.0299 27.6972C31.0751 27.7605 31.4315 27.7476 31.3558 28.1557C30.8418 28.1191 31.1088 28.0253 30.9974 27.9719C30.5927 27.7792 30.1943 27.6369 29.7938 27.4215L29.7612 27.1152C30.0177 27.2476 30.6841 27.6448 30.9007 27.3603H30.8996Z" fill="#416B33"/>
<path d="M20.8122 22.71C20.992 22.7534 21.2169 22.7742 21.3977 22.7712C21.1087 23.0331 22.1209 23.1319 22.1787 23.4441C22.1167 23.453 22.0473 23.4392 21.9832 23.4441L21.2348 23.1378L21.3977 23.872C21.2411 23.5834 21.0193 23.3038 20.8774 23.0153C20.6661 22.5855 20.8143 22.8206 20.8122 22.709V22.71Z" fill="#ACBA3A"/>
<path d="M27.1256 21.3034C28.2839 23.3546 29.3519 25.4622 30.9002 27.3603C30.6847 27.6449 30.0172 27.2477 29.7608 27.1152L29.7933 27.4216C29.2205 27.1133 27.9539 26.4592 27.5807 26.0758C27.5523 26.0461 27.7237 26.0224 27.5481 25.8307C27.1571 25.4039 26.2111 25.2665 25.7581 25.0966C25.0044 24.814 24.4505 24.5947 23.7084 24.2399C23.4204 24.1026 22.6383 23.5364 22.4071 23.4445C22.3966 23.4406 22.2221 23.4386 22.179 23.4445C22.1212 23.1323 21.1089 23.0335 21.398 22.7716C21.5273 22.7697 21.6597 22.7776 21.788 22.7716C23.3373 22.7045 24.8846 22.4643 26.4413 22.4653C26.4686 22.163 26.579 21.8547 26.5391 21.5474C26.703 21.3567 26.64 21.084 26.6694 20.8745C26.7703 20.7421 27.0867 21.2352 27.1245 21.3024L27.1256 21.3034Z" fill="url(#paint4_linear_366_118543)"/>
<path d="M21.9833 23.4442L31.4855 28.5832C31.4918 28.6267 31.5307 28.6781 31.5507 28.767C31.3426 28.7354 31.1323 28.9142 30.9652 28.9508C30.7981 28.9874 30.2935 29.021 30.1191 29.0121C29.3086 28.9725 29.0763 28.4864 28.4593 28.4004C28.0525 28.3441 27.5459 28.4479 27.1254 28.4617C26.3297 28.4874 25.5614 28.5536 24.7825 28.7067C24.1487 28.3599 23.6988 27.7394 23.2857 27.1772C23.2447 27.1209 23.1701 26.9252 23.0902 26.8106C23.0261 26.7167 22.9041 26.6417 22.8947 26.6268C22.8631 26.5794 22.8232 26.4747 22.7643 26.3818C22.7244 26.3195 22.6687 26.2533 22.634 26.198C22.5415 26.0498 22.47 25.868 22.3733 25.7089C22.0243 25.1329 21.7206 24.4699 21.3968 23.874L21.2339 23.1399L21.9823 23.4462L21.9833 23.4442Z" fill="url(#paint5_linear_366_118543)"/>
<path d="M25.7575 25.0965C25.6797 25.1736 26.0928 25.4512 26.1159 25.4631C26.5206 25.6805 27.1345 25.9166 27.5802 26.0747C27.9533 26.4581 29.2199 27.1122 29.7928 27.4205C30.1933 27.6359 30.5916 27.7791 30.9963 27.9708C31.1077 28.0232 30.8407 28.1181 31.3547 28.1546C31.3611 28.1546 31.3295 28.3256 31.4199 28.2465C31.36 28.1329 31.4767 28.0034 31.4851 27.9708C31.5051 28.1645 31.4567 28.3957 31.4851 28.5825L21.9829 23.4434C22.046 23.4385 22.1154 23.4523 22.1784 23.4434C22.2205 23.4375 22.396 23.4395 22.4065 23.4434C22.6378 23.5353 23.4198 24.1015 23.7078 24.2388C24.451 24.5936 25.0038 24.8119 25.7575 25.0955V25.0965Z" fill="#839439"/>
<path d="M27.5807 26.0744C27.135 25.9153 26.5212 25.6792 26.1165 25.4628C26.0934 25.4509 25.6813 25.1723 25.758 25.0962C26.2111 25.2661 27.156 25.4035 27.5481 25.8303C27.7237 26.022 27.5523 26.0457 27.5807 26.0754V26.0744Z" fill="#638239"/>
<path d="M26.6034 34.518C26.9251 34.5684 26.9072 34.8589 27.0586 35.0071C26.6171 35.1869 26.2713 35.2037 25.8225 35.2521L25.627 34.6405C25.9265 34.6553 26.4174 34.4893 26.6034 34.518Z" fill="#AC6457"/>
<path d="M25.8877 32.6822C25.6323 32.8877 25.1709 33.699 24.8461 33.9667C24.7357 33.9815 24.7063 34.0201 24.6506 34.028C24.2364 34.0892 23.8317 34.2128 23.4144 34.273C23.158 34.1238 22.9625 33.9341 22.6335 33.9064C22.4148 33.7118 21.946 34.0171 21.7873 33.8146C21.782 33.8076 21.8903 33.7563 21.8525 33.6614C22.994 33.449 24.1776 33.4164 25.2045 32.9273C25.4673 32.8018 25.5524 32.3976 25.9203 32.4994L25.8877 32.6832V32.6822Z" fill="#AC6457"/>
<path d="M24.6517 34.0278C24.6486 34.0674 24.6591 34.1118 24.6517 34.1504C24.5687 34.5723 24.7158 34.6306 24.6843 35.007C24.2113 34.9932 23.9138 34.6098 23.5449 34.3954C23.4545 34.343 23.423 34.2778 23.4146 34.2729C23.8318 34.2126 24.2365 34.0901 24.6507 34.0278H24.6517Z" fill="#AA6628"/>
<path d="M22.6336 33.9062C22.9626 33.9338 23.1581 34.1245 23.4146 34.2728C23.4219 34.2777 23.4545 34.3429 23.5449 34.3953C23.5428 35.0504 22.9363 34.9644 23.6753 35.3132C23.4629 35.3004 23.238 35.3112 23.0246 35.3132C22.9668 35.3132 22.8102 35.4357 22.7965 35.4357C21.9409 35.4456 21.7717 35.4506 21.3975 34.7628C21.4237 34.1907 22.046 33.8568 22.6336 33.9062Z" fill="#96943B"/>
<path d="M22.6659 34.2118C22.7185 34.2177 22.9445 34.3382 23.0243 34.3649C23.078 34.5704 22.1551 34.5892 22.0479 34.3649C22.0521 34.279 22.6344 34.2088 22.6659 34.2118Z" fill="#BDC46F"/>
<path d="M26.9949 33.7224V33.7837C26.8005 33.9862 26.8141 34.4556 26.605 34.5178C26.4189 34.4882 25.9291 34.6552 25.6285 34.6403C25.1965 34.6186 24.8948 34.4783 24.652 34.1512C24.6593 34.1127 24.6488 34.0682 24.652 34.0287C24.7077 34.0208 24.7371 33.9823 24.8475 33.9675C25.414 33.8904 26.4872 33.9289 26.9949 33.7224Z" fill="#F6D2C8"/>
<path d="M19.5109 32.1315C20.2141 32.4052 20.3339 32.3321 21.0728 32.1315C21.2873 32.0732 21.5879 31.8697 21.8538 31.8865C21.5921 32.3628 20.8069 32.2877 21.138 33.1097C21.1096 33.1167 20.9898 33.1552 20.9425 33.171C20.8111 33.2145 20.6776 33.2303 20.5525 33.2935C19.9565 33.341 19.6381 33.2935 19.1209 33.0485C18.7625 32.8795 17.8038 32.1869 17.6893 31.8252C17.416 30.9607 17.7765 30.9557 18.0151 30.4182C18.238 31.1454 18.7667 31.842 19.5119 32.1315H19.5109Z" fill="#AC6457"/>
<path d="M30.1188 29.0113L30.7695 29.3176V29.3789C29.9086 29.0805 28.8007 28.8403 27.8736 28.951C27.5541 28.9886 26.1319 29.5696 25.8239 29.7464C24.4554 30.5329 24.8023 31.2335 25.7588 32.2245C25.5338 32.4814 25.2101 32.5911 24.9126 32.7443C24.4396 32.7314 23.9288 33.1622 23.4484 33.1108C23.3128 33.096 22.1671 32.5526 22.1145 32.4686C21.7035 31.8214 22.8535 29.0212 23.9698 28.951L27.1263 28.4619C27.5467 28.4481 28.0534 28.3443 28.4602 28.4007C29.0772 28.4866 29.3095 28.9728 30.1199 29.0123L30.1188 29.0113Z" fill="#F6D2C8"/>
<path d="M27.125 28.4609L23.9685 28.95C22.8522 29.0202 21.7023 31.8214 22.1132 32.4676C22.1669 32.5516 23.3115 33.095 23.4471 33.1099C23.9285 33.1612 24.4383 32.7295 24.9113 32.7433C23.7299 33.3539 22.8028 33.5071 21.9177 32.3767C21.9388 32.2255 21.8894 32.0289 21.9177 31.8876C22.3003 29.9925 22.7923 29.0983 24.781 28.706C25.5599 28.5528 26.3283 28.4866 27.124 28.4609H27.125Z" fill="#F8E2DB"/>
<path d="M31.5505 28.7671C31.5715 28.86 31.7271 29.4588 31.746 29.5013C31.5484 29.6702 30.9125 29.4835 30.8347 29.5013C30.8442 29.4242 30.8578 29.4094 30.7695 29.3788V29.3175L30.965 28.9509C31.1322 28.9154 31.3424 28.7355 31.5505 28.7671Z" fill="#DBB179"/>
<path d="M23.2855 27.1764C22.7137 27.4392 22.0526 27.4442 21.4629 27.6042C21.9075 27.1151 22.5098 27.0687 23.09 26.8088C23.1689 26.9244 23.2435 27.1191 23.2855 27.1754V27.1764Z" fill="#CF9841"/>
<path d="M30.9648 28.95L30.7693 29.3165L30.1187 29.0102C30.2931 29.0191 30.804 28.9836 30.9648 28.949V28.95Z" fill="#BB764D"/>
<path d="M31.8748 29.624C31.9158 29.704 31.9379 29.6813 31.94 29.6852C32.2995 30.3295 32.7609 30.8304 33.3064 31.3373C32.5601 31.3837 31.7382 31.275 30.9961 31.3986C30.6849 31.4499 29.8156 31.8847 29.6296 31.8877C29.5381 31.8896 28.8444 31.4756 28.7509 31.3067C28.6867 31.1891 28.5869 30.8808 28.6205 30.7563C28.7403 30.3107 31.3188 29.5449 31.8748 29.625V29.624Z" fill="#F0BFB5"/>
<path d="M31.7464 29.5015C31.7496 29.5094 31.8231 29.5202 31.8767 29.624C31.3207 29.544 28.7423 30.3107 28.6225 30.7553C28.5888 30.8798 28.6876 31.1891 28.7528 31.3057C28.8463 31.4747 29.5401 31.8887 29.6315 31.8867C29.8176 31.8827 30.6879 31.449 30.998 31.3976C31.7401 31.2741 32.5621 31.3828 33.3084 31.3363C33.3693 31.3927 33.4124 31.445 33.4387 31.5201C32.4044 31.1575 30.2317 31.6683 29.209 32.0705C29.4634 31.7849 28.7412 31.5903 28.5583 31.1832C28.4753 30.9984 28.5184 30.7899 28.4932 30.6022C29.0419 30.1546 30.1045 29.868 30.8035 29.6843C30.8645 29.6685 30.8256 29.5034 30.8361 29.5005C30.9129 29.4827 31.5488 29.6694 31.7475 29.5005L31.7464 29.5015Z" fill="#F6D2C8"/>
<path d="M34.6746 32.4379C34.7482 32.7205 34.4234 33.9665 34.8375 33.845L35.1308 33.5387C34.436 34.6898 33.4669 35.0277 32.2675 35.6186C31.2858 35.8933 30.3702 36.3656 29.2739 36.2302C28.8682 36.1739 28.9186 36.1759 28.5581 36.0464C28.9733 35.502 29.7669 35.8192 30.4133 35.7401C31.29 35.6334 32.0804 35.1413 32.8215 34.7609C33.1904 34.5712 33.6771 34.7856 33.8306 34.088C34.6872 33.5041 34.5874 33.1928 34.4812 32.2532C34.5842 32.3125 34.6641 32.43 34.6767 32.437L34.6746 32.4379Z" fill="#AC6457"/>
<path d="M33.8284 34.089C33.6749 34.7866 33.1893 34.5722 32.8193 34.7619C32.0783 35.1413 31.2878 35.6344 30.4112 35.7411C29.7647 35.8191 28.9722 35.503 28.5559 36.0474C27.7844 35.7717 27.6099 35.5464 27.0591 35.0069C26.9067 34.8577 26.9256 34.5682 26.604 34.5178C26.8132 34.4556 26.8006 33.9862 26.994 33.7837C27.5868 36.8784 32.0699 35.2876 33.8273 34.09L33.8284 34.089Z" fill="#BC7364"/>
<path d="M33.4375 31.52C33.7265 31.6217 34.1669 32.0753 34.4791 32.2541C34.5853 33.1948 34.6852 33.505 33.8285 34.089C32.071 35.2875 27.588 36.8783 26.9951 33.7827V33.7214C27.2716 33.6088 27.528 33.1207 27.7761 32.926C27.9632 32.7798 28.1587 32.6237 28.3616 32.4982C28.6885 32.2966 28.843 32.2136 29.2077 32.0703C30.2305 31.6682 32.4042 31.1573 33.4375 31.52Z" fill="#F6D2C8"/>
<path d="M35.5857 32.9271C35.5363 33.0308 35.4638 33.1118 35.4553 33.2334C34.9771 33.3075 35.2094 33.4073 35.1295 33.5397L34.8362 33.846C34.4221 33.9675 34.7469 32.7216 34.6733 32.439C34.935 32.5842 35.3271 32.8065 35.5846 32.9281L35.5857 32.9271Z" fill="#AC6457"/>
<path d="M28.3613 31.8253C28.4622 32.1662 28.7481 31.9844 28.3613 32.4982C28.1584 32.6237 27.9619 32.7798 27.7758 32.926C27.1693 32.9399 26.3431 32.3164 25.888 32.681L25.9206 32.4972C25.5527 32.3954 25.4676 32.7995 25.2048 32.925C24.1778 33.4141 22.9943 33.4467 21.8527 33.6592C21.7371 33.3716 21.7003 33.3203 21.7224 32.9863C21.7266 32.9191 21.8969 32.5268 21.9179 32.3747C22.8029 33.505 23.73 33.3519 24.9115 32.7412C25.209 32.5881 25.5327 32.4784 25.7577 32.2215C24.8011 31.2305 24.4543 30.5299 25.8228 29.7434C25.1228 30.4272 25.5695 31.4597 26.2454 32.0071C27.244 32.8144 27.4847 32.5535 28.3603 31.8233L28.3613 31.8253Z" fill="#BC7364"/>
<path d="M27.7761 32.9271C27.528 33.1218 27.2726 33.6099 26.9951 33.7225C26.4874 33.9291 25.4142 33.8895 24.8477 33.9676C25.1714 33.6988 25.6328 32.8886 25.8893 32.6831C26.3445 32.3175 27.1696 32.942 27.7771 32.9281L27.7761 32.9271Z" fill="#DB9C8B"/>
<path d="M21.9178 32.3768C21.8967 32.529 21.7265 32.9212 21.7223 32.9884C21.5341 33.0497 21.3249 33.0635 21.1368 33.1109C20.8057 32.2889 21.5909 32.364 21.8526 31.8877H21.9178C21.8894 32.029 21.9388 32.2256 21.9178 32.3768Z" fill="#9D5243"/>
<path d="M23.2856 27.1763C23.6987 27.7375 24.1486 28.359 24.7824 28.7058C22.7936 29.0971 22.3017 29.9913 21.9191 31.8874H21.8539C21.588 31.8706 21.2874 32.0742 21.073 32.1325C20.5611 31.9863 20.0239 32.3301 19.511 32.1325C19.4479 32.1078 18.772 31.2541 18.6648 31.1227C18.5061 30.928 18.2801 30.8994 18.2749 30.8776C18.2349 30.7245 18.3632 29.9607 18.34 29.7463C19.0758 28.5833 19.6382 28.114 21.073 27.6664C21.0971 27.6585 21.2748 27.6565 21.4629 27.6051C22.0516 27.444 22.7127 27.4401 23.2856 27.1773V27.1763Z" fill="#F6D2C8"/>
<path d="M19.511 32.1316C18.7657 31.8421 18.237 31.1455 18.0142 30.4182C18.0667 30.2987 18.0972 30.1445 18.1445 30.0517C18.1771 29.9874 18.1971 29.8896 18.2097 29.8679C18.2139 29.86 18.3348 29.7543 18.34 29.7454C18.3631 29.9598 18.2349 30.7236 18.2748 30.8767C18.2801 30.8985 18.5061 30.9271 18.6648 31.1218C18.772 31.2532 19.4479 32.1069 19.511 32.1316Z" fill="#F8E2DB"/>
<path d="M21.0727 32.1316C20.3338 32.3322 20.215 32.4053 19.5107 32.1316C20.0237 32.3292 20.5608 31.9854 21.0727 32.1316Z" fill="#F8E2DB"/>
<path d="M23.0573 27.4214C23.1183 27.4264 23.1824 27.3977 23.2202 27.4521C23.3285 27.621 22.2816 28.5281 22.0808 28.6447C21.8632 28.7721 21.2168 29.0073 20.9414 28.9816C21.0539 28.2514 22.3531 27.3592 23.0563 27.4214H23.0573Z" fill="#F9B399"/>
<path d="M30.7695 29.379C30.8578 29.4096 30.8442 29.4244 30.8347 29.5015C30.8242 29.5035 30.8631 29.6685 30.8021 29.6853C30.1031 29.869 29.0404 30.1556 28.4917 30.6032C27.9819 31.0192 28.1901 31.2445 28.3614 31.8264C27.4858 32.5566 27.2451 32.8175 26.2465 32.0102C25.5696 31.4638 25.1229 30.4303 25.824 29.7465C26.132 29.5697 27.5552 28.9887 27.8737 28.9511C28.8008 28.8414 29.9087 29.0815 30.7695 29.379Z" fill="#F6D2C8"/>
<path d="M29.2076 32.0701C28.8428 32.2134 28.6883 32.2964 28.3614 32.4979C28.7482 31.9841 28.4623 32.1659 28.3614 31.8251C28.1901 31.2431 27.9809 31.0178 28.4917 30.6018C28.517 30.7895 28.4739 30.998 28.5569 31.1828C28.7398 31.5899 29.463 31.7836 29.2076 32.0701Z" fill="#AC6457"/>
<path d="M15.8001 26.1973C14.2098 27.8197 13.5591 29.6507 14.564 31.7642C15.0822 32.856 15.8443 33.4647 16.7766 34.2116C16.9785 34.3737 17.134 34.4626 17.2969 34.5782C17.339 34.6079 17.3915 34.6938 17.4925 34.762C18.5572 35.4843 20.3946 36.5494 21.6581 36.8419C21.5351 36.9664 21.7253 36.9931 21.821 37.0257C24.0189 37.7687 26.3713 38.3013 28.687 38.6165L28.4914 39.1056C26.4018 38.822 24.1829 38.3833 22.1784 37.7598C20.1213 37.1196 17.976 36.1888 16.2563 34.9458C14.8163 33.9044 13.6611 32.6663 13.0672 31.03C12.8076 28.4432 13.2543 27.3712 15.2147 25.5857C15.1201 25.9908 15.6635 25.8999 15.8001 26.1973Z" fill="#F9B399"/>
<path d="M56.8666 31.3975C54.2945 36.415 47.581 38.2123 42.1582 39.0443C42.2444 39.0196 42.791 38.8576 42.8089 38.8299C42.8435 38.7746 42.8089 38.5098 42.7437 38.4327C42.8719 38.411 43.0044 38.3951 43.1336 38.3714C43.243 38.3517 43.3502 38.3319 43.4595 38.3102C43.6392 38.2756 43.8043 38.2252 43.9798 38.1876C44.0692 38.1689 44.1574 38.1442 44.2405 38.1264C45.2969 37.8952 46.3469 37.6887 47.3644 37.331C47.7008 37.6679 47.7807 37.1926 48.0151 37.0859C48.2495 36.9792 48.5869 36.8972 48.8612 36.7796C49.7999 36.3785 50.5073 36.0524 51.3997 35.5564C52.0009 35.2224 52.4803 34.927 53.0268 34.5159C53.1414 34.43 53.2381 34.3638 53.3527 34.2709C53.8783 33.845 54.1463 33.6267 54.5888 33.1089C54.9767 32.6544 55.2384 32.3757 55.5001 31.8244C56.5376 29.6328 55.8113 27.6666 54.1337 26.0125L54.654 25.4009C56.896 27.3523 57.2492 28.5736 56.8666 31.3966V31.3975Z" fill="#DA6743"/>
<path d="M48.4717 22.1598C49.1465 22.5046 50.3784 23.3613 51.0753 23.8119C49.609 23.2625 48.1921 22.5629 46.6827 22.0985C42.5665 20.8338 37.767 20.314 33.4385 20.5077V20.0186C37.3382 19.8902 45.0429 20.4079 48.4717 22.1598Z" fill="#FAAA70"/>
<path d="M20.6812 22.4663C20.8304 22.5068 20.8094 22.5967 20.8115 22.7114C20.8136 22.826 20.6654 22.5869 20.8767 23.0177C19.0908 23.8299 17.1599 24.812 15.8008 26.1993C15.6631 25.9019 15.1197 25.9928 15.2153 25.5877C16.8246 24.1223 18.6294 23.2647 20.6822 22.4673L20.6812 22.4663Z" fill="#F28675"/>
<path d="M54.6539 25.4018L54.1336 26.0134C53.2612 25.1528 52.1102 24.4809 51.0748 23.811C50.3779 23.3604 49.1471 22.5038 48.4712 22.1589C50.7111 22.8397 52.9217 23.894 54.6539 25.4008V25.4018Z" fill="#EC824A"/>
<path d="M26.6684 20.7529C26.6642 20.7925 26.6736 20.8359 26.6684 20.8755C26.64 21.0849 26.702 21.3576 26.538 21.5483C26.5265 21.4574 26.5979 21.2924 26.4403 21.3033C24.9288 21.7222 23.3437 22.0197 21.8847 22.5878C21.7838 22.6273 21.685 22.659 21.7869 22.7716C21.6576 22.7775 21.5252 22.7696 21.397 22.7716C21.2162 22.7746 20.9912 22.7538 20.8115 22.7103C20.8094 22.5967 20.8304 22.5058 20.6812 22.4653C22.6163 21.7134 24.5903 21.079 26.6684 20.752V20.7529Z" fill="#EC6F66"/>
<path d="M33.4373 20.0186V20.5077C33.3743 20.5106 33.3049 20.4849 33.307 20.5689C32.2422 20.2419 29.1288 20.9889 27.9053 21.058C27.756 20.9987 27.3671 20.8308 27.2546 20.813C27.2473 20.7873 27.1958 20.6934 27.1895 20.6905C29.236 20.2438 31.3393 20.0877 33.4373 20.0186Z" fill="#F79C7B"/>
<path d="M21.3976 23.8733C21.7214 24.4691 22.0251 25.1321 22.3741 25.7081C20.7259 26.4047 19.1629 27.2407 17.6882 28.2169C16.3617 29.0953 14.7408 30.1002 14.5642 31.7651C13.5604 29.6516 14.21 27.8197 15.8004 26.1982C17.1595 24.8119 19.0914 23.8288 20.8762 23.0166C21.0182 23.3051 21.2399 23.5847 21.3966 23.8733H21.3976Z" fill="#942E24"/>
<path d="M17.8182 34.0893C18.2681 34.028 18.9608 34.1357 18.4037 34.5784C18.2912 34.6673 17.6858 34.8323 17.4924 34.7622C17.3915 34.694 17.3389 34.609 17.2969 34.5784C17.3053 34.2493 17.485 34.1337 17.8172 34.0893H17.8182Z" fill="white"/>
<path d="M51.0739 23.8122C52.1092 24.4822 53.2602 25.1541 54.1327 26.0147C55.8102 27.6687 56.5366 29.635 55.4991 31.8266C55.5737 30.5984 54.4522 29.6192 53.5146 28.89C51.961 27.6826 49.9439 26.7923 48.1454 25.9534C47.7166 22.4912 40.7571 22.7303 38.1881 23.2006C37.0561 22.3677 35.657 21.9161 34.3809 21.3045C34.1718 21.2047 33.4118 20.6029 33.3067 20.5703C33.3046 20.4864 33.374 20.512 33.437 20.5091C37.7645 20.3154 42.565 20.8351 46.6812 22.0999C48.1906 22.5633 49.6076 23.2629 51.0739 23.8132V23.8122Z" fill="url(#paint6_linear_366_118543)"/>
<path d="M26.5384 21.5483C26.5783 21.8556 26.4679 22.1629 26.4406 22.4662C24.8839 22.4652 23.3366 22.7043 21.7873 22.7725C21.6853 22.6599 21.7831 22.6283 21.885 22.5887C23.345 22.0206 24.9301 21.7232 26.4406 21.3042C26.5983 21.2934 26.5268 21.4574 26.5384 21.5493V21.5483Z" fill="#D34E40"/>
<path d="M33.3075 20.5693C33.4126 20.6019 34.1726 21.2036 34.3817 21.3034C35.6578 21.915 37.0569 22.3666 38.1889 23.1995C37.47 23.3309 36.5975 23.5661 35.9111 23.8112C35.2258 23.3556 33.4242 23.988 32.8524 23.8724C32.743 23.8507 31.7182 22.6719 31.2578 22.4041C30.44 21.9279 28.8497 21.4299 27.9058 21.0584C29.1293 20.9892 32.2427 20.2422 33.3075 20.5693Z" fill="#DA6743"/>
<path d="M40.2704 37.0256C39.8184 37.405 39.2392 37.8289 38.5781 37.8823C38.536 37.8852 38.4908 37.8823 38.4477 37.8823C38.1923 37.8813 37.7803 37.8259 37.6667 37.5759C37.631 37.4969 37.7182 37.319 37.6016 37.2094C37.6215 37.1896 37.6415 37.1758 37.6667 37.1481C38.3689 38.0295 39.4547 37.0374 40.0749 36.8724C40.3051 36.8112 40.1306 36.992 40.2704 37.0256Z" fill="#56672E"/>
<path d="M35.91 23.812C35.5716 23.9335 35.1301 24.141 34.8032 24.3011L32.9806 24.4236C32.9354 24.2783 32.7472 24.0195 32.8502 23.8732C33.422 23.9888 35.2237 23.3565 35.909 23.812H35.91Z" fill="#F9EB86"/>
<path d="M39.1645 36.1689C39.4062 36.158 39.5818 36.1679 39.8151 36.2301C40.0054 36.2815 40.0569 36.2687 40.2051 36.4139C40.2965 36.5028 40.2986 36.7093 40.4006 36.7805C40.3901 36.7904 40.389 36.9257 40.2702 37.0255C40.1304 36.9919 40.3049 36.8111 40.0747 36.8724C39.4546 37.0364 38.3688 38.0294 37.6666 37.1481C37.6771 37.1362 37.6561 37.0996 37.6666 37.0868C37.8064 36.9247 37.9031 36.6313 38.1217 36.4752C38.5748 36.3131 38.6147 36.1946 39.1634 36.1689H39.1645Z" fill="#839439"/>
<path d="M38.806 36.2916C39.0614 36.2442 39.2916 36.2432 39.1644 36.506C40.0999 36.3805 38.4265 37.1018 38.1228 36.8726C38.0345 36.7718 38.703 36.3104 38.806 36.2916Z" fill="#B1C885"/>
<path d="M42.1584 39.0443C38.963 39.9464 31.8784 39.565 28.4917 39.1055L28.6872 38.6164C30.8609 38.9118 33.5266 39.1608 35.7161 39.0443C35.9673 39.0314 36.1838 39.0097 36.4319 38.983C36.7557 39.148 37.1488 38.9879 37.4736 38.9217C37.9771 39.0927 38.5321 38.8951 39.0355 38.8605C39.271 38.8447 39.518 38.8822 39.7514 38.8605C39.908 38.8456 40.0604 38.814 40.2065 38.7992C40.7667 38.7409 41.285 38.6332 41.8336 38.5542C42.0302 38.5255 42.2131 38.5255 42.4191 38.4929C42.5316 38.4751 42.6378 38.4504 42.745 38.4316C42.8101 38.5097 42.8448 38.7745 42.8101 38.8288C42.7923 38.8565 42.2457 39.0186 42.1595 39.0433L42.1584 39.0443Z" fill="#F28675"/>
<path d="M20.4862 34.3952C20.5209 34.4564 20.4515 34.741 20.4862 34.7924C21.1821 35.8397 23.3663 35.6352 24.4889 35.8022C24.2366 35.4396 23.3726 35.6115 23.0247 35.3131C23.2381 35.3111 23.463 35.3002 23.6753 35.3131C24.0285 35.4801 24.0464 35.4168 24.326 35.4969C25.0124 35.6925 25.7114 35.8842 26.4083 36.0472C28.0144 37.2705 30.7851 37.2527 32.4606 36.1698C33.4508 35.9632 34.3243 35.3941 35.2587 35.069C35.7202 34.908 36.4455 34.6323 36.8859 34.5187C37.5029 34.3586 38.0621 34.245 38.7085 34.2124C40.5785 34.1175 41.7799 34.909 43.4596 35.4969C44.0619 35.7587 44.3478 35.9929 45.0868 36.0472C45.1414 36.2943 44.8303 36.3792 44.599 36.3535C43.8601 36.2696 42.4957 35.482 41.4425 35.3131C41.1261 35.2627 40.9737 35.154 40.5964 35.1906C40.3283 35.0078 39.7092 34.9949 39.3928 35.0068C35.4963 35.1599 33.9175 37.5007 31.193 37.8821C30.7988 37.9374 29.9505 37.7181 29.9243 38.0046C29.9074 38.1874 31.3612 38.1558 31.6492 38.1271C34.1067 37.8811 36.3593 35.5937 38.7432 35.3744C39.1521 35.3368 39.5946 35.488 39.9468 35.4356C40.1843 35.4 40.0697 35.3249 40.4671 35.2518C41.3321 35.6006 42.2298 35.8694 43.1359 36.1085C43.2305 36.1332 43.3997 36.0838 43.4943 36.1085C43.6057 36.1381 43.4533 36.2597 43.4617 36.2616C44.2606 36.4711 44.6474 36.4711 45.4788 36.4148L45.544 36.5373C44.742 36.5946 43.9904 36.644 43.201 36.4761C43.1359 36.4543 43.0697 36.4355 43.0055 36.4148C37.3063 34.5681 38.4079 36.1144 33.8618 37.8218C33.0692 38.1192 31.8699 38.467 31.0637 38.2497L30.9659 38.556C30.8482 38.5609 30.7273 38.552 30.6075 38.556C31.5493 38.7951 33.0682 38.6222 34.0562 38.3109C35.6823 37.7981 36.8932 36.4444 38.5141 35.986C39.8416 35.6105 41.7852 35.8664 43.0045 36.4751C43.283 36.6144 43.9021 37.1766 44.0461 37.4543C44.1513 37.6568 44.1429 37.9226 44.2417 38.1271C44.1586 38.1449 44.0703 38.1696 43.981 38.1884C44.1124 37.06 42.0553 36.1767 41.0851 36.3535C40.9117 36.3852 40.5091 36.6816 40.4019 36.7814C40.301 36.7092 40.2978 36.5037 40.2064 36.4148C40.609 36.234 41.0347 36.2103 41.4751 36.231C41.3763 36.063 40.979 36.0729 40.7919 36.0472C40.3336 35.984 39.5126 35.8802 39.1647 36.1698C38.616 36.1945 38.5761 36.314 38.1231 36.4761C36.867 36.9256 36.3172 37.6904 35.162 38.2507C34.9066 38.3742 34.6154 38.5036 34.3159 38.4957C34.2717 38.7022 34.8351 38.6815 34.9339 38.6795C35.6361 38.6647 37.1224 37.6924 37.6027 37.2112C37.7194 37.3219 37.6322 37.4987 37.6679 37.5778C37.3757 37.892 36.9574 37.9266 36.724 38.3119L38.4489 37.8841C38.492 37.8841 38.5361 37.887 38.5792 37.8841C38.2786 38.887 36.4949 38.4819 35.716 39.0461C33.5265 39.1617 30.8608 38.9137 28.6871 38.6182C26.3715 38.303 24.019 37.7704 21.8211 37.0274C21.7255 36.9948 21.5352 36.9691 21.6582 36.8436C22.0366 36.9316 22.6074 37.0205 22.9921 37.0274C23.0772 37.0284 23.3621 37.0798 23.2528 36.9049C22.188 36.7142 20.9161 36.5472 19.9659 36.0482C19.9112 35.8773 20.3685 35.981 20.3885 35.987C20.8699 36.1164 20.9855 36.3861 21.4627 35.9563C21.4711 35.7419 20.0679 35.7765 20.1614 35.4366C21.427 35.8634 22.9238 35.8941 24.2293 36.232C25.7944 36.6371 27.2092 37.4572 28.8826 37.639C32.2021 37.9997 33.3478 36.4494 36.1711 35.4366C37.2149 35.0621 38.0736 34.7993 39.1647 34.7025C39.1553 34.9149 39.6745 34.8517 39.7502 34.7331L39.1647 34.7025C39.3918 34.6827 39.6451 34.6165 39.8805 34.6106C39.2026 34.3576 38.554 34.3497 37.8308 34.4574C37.5491 34.4989 35.902 35.0058 35.6834 35.1303C35.4648 35.2548 35.4322 35.3161 35.3901 35.5581C34.3327 35.9642 33.1376 36.5067 32.1684 36.9039C31.9603 36.9889 31.7469 37.3337 31.3223 37.4543C30.8041 37.6015 29.4944 37.6282 28.9467 37.5768C27.4405 37.4345 25.8627 36.5452 24.4237 36.1698C23.4588 35.9178 20.4147 35.7113 19.9659 34.9771C19.8398 34.7706 19.7799 34.5631 19.9007 34.3349C19.9102 34.3161 20.1614 34.159 20.194 34.0898C20.1646 34.406 20.44 34.3122 20.4873 34.3961L20.4862 34.3952Z" fill="#F9EB86"/>
<path d="M20.4208 27.4216C20.2894 27.5184 20.1759 27.6706 20.095 27.7279C19.8438 27.9058 19.5074 28.2042 19.2814 28.3395C18.9987 28.5085 17.3936 29.1152 17.3295 29.1962C17.1655 29.3988 17.5439 29.3227 17.5576 29.3493C17.2843 30.1764 16.3183 30.0706 15.8001 30.8483C15.7938 30.8572 15.6456 30.8344 15.6046 30.9402C15.8537 32.3007 15.2882 32.9904 16.6462 33.8461C16.867 33.9854 16.9952 34.1297 17.2969 34.1218L16.7766 34.2137C15.8442 33.4667 15.0822 32.858 14.564 31.7662C14.7406 30.1013 16.3614 29.0964 17.6879 28.218L18.0463 28.7071C18.7128 28.1113 19.5999 27.8079 20.3567 27.3613L20.4219 27.4226L20.4208 27.4216Z" fill="#B3653A"/>
<path d="M18.404 34.5791C18.5974 35.3073 19.3353 35.4792 19.8682 35.8023C19.9376 35.8438 19.7148 35.915 19.966 36.0474C20.9162 36.5454 22.1881 36.7124 23.2528 36.9041C23.3632 37.0789 23.0784 37.0276 22.9922 37.0266C22.6075 37.0197 22.0367 36.9307 21.6583 36.8428C20.3948 36.5503 18.5575 35.4852 17.4927 34.7629C17.6861 34.834 18.2915 34.668 18.404 34.5791Z" fill="#CF9841"/>
<path d="M16.7115 33.2935C17.0257 33.417 17.525 33.8794 17.8183 34.0889C17.4861 34.1343 17.3064 34.2499 17.298 34.578C17.1351 34.4614 16.9795 34.3725 16.7777 34.2114L17.298 34.1195C16.9963 34.1284 16.8681 33.9832 16.6473 33.8438C16.7209 33.7391 16.6768 33.6433 16.6473 33.5375C16.6179 33.4318 16.4876 33.332 16.517 33.2006C16.5811 33.1561 16.6305 33.2599 16.7125 33.2925L16.7115 33.2935Z" fill="#DDAF4B"/>
<path d="M55.5001 31.8253C55.2394 32.3766 54.9777 32.6553 54.5888 33.1098L53.2223 33.5376C53.2023 33.4922 53.1771 33.4606 53.1571 33.4151C53.4483 33.3361 53.9465 33.1533 54.1336 32.926C54.4879 33.0179 55.5232 31.6791 54.8494 31.7028C55.0975 30.4558 52.4045 28.8067 51.4007 28.2158C51.3734 28.1931 51.2577 27.9441 51.1074 27.9708L51.0097 28.3374C50.2665 27.7929 49.0661 27.536 48.2116 27.1754C48.2452 27.0568 48.1433 26.9007 48.3093 26.8088L49.3184 27.0845L48.1475 26.5647C48.1611 26.3928 48.1685 26.1191 48.1475 25.9531C49.9459 26.792 51.963 27.6823 53.5166 28.8897C54.4553 29.6189 55.5768 30.5981 55.5011 31.8263L55.5001 31.8253Z" fill="#EEE1B3"/>
<path d="M43.9807 38.1886C43.8042 38.2251 43.6391 38.2755 43.4604 38.3111C43.4352 37.9465 43.6433 38.0048 43.4604 37.6688C43.2775 37.3329 41.4938 36.2776 42.2243 37.1491C41.6903 37.2538 41.7597 37.7064 42.4198 37.6995C42.3473 38.0631 42.0719 38.2893 41.8344 38.5561C41.2857 38.6352 40.7675 38.7429 40.2072 38.8012C40.6602 38.4 41.8638 38.0374 41.4433 37.241C41.1038 36.5977 40.45 37.6046 40.1746 37.7607C39.3064 38.2538 37.4385 38.8753 36.4326 38.984C36.1845 39.0106 35.968 39.0314 35.7168 39.0452C36.4967 38.481 38.2805 38.8861 38.5801 37.8832C39.2412 37.8299 39.8193 37.406 40.2724 37.0266C40.3912 36.9268 40.3922 36.7914 40.4027 36.7815C40.5099 36.6817 40.9125 36.3853 41.086 36.3537C42.0561 36.1778 44.1142 37.0612 43.9818 38.1886H43.9807Z" fill="#F1D05F"/>
<path d="M53.0267 34.5179C52.4801 34.9289 52.0008 35.2234 51.3996 35.5583C50.6848 35.6354 49.9753 35.9783 49.2847 36.17C49.0703 36.2292 48.5584 36.2124 48.3408 36.2925C47.399 36.1591 46.4971 36.4693 45.5427 36.5375L45.4775 36.415C45.7729 36.3952 46.0914 36.3182 46.3889 36.2925C47.6439 36.1838 49.1365 36.0702 50.3264 35.6809C50.8593 35.507 52.7818 34.6493 52.8323 34.09C53.1592 33.9497 52.991 34.2857 53.0278 34.5179H53.0267Z" fill="#EDDA94"/>
<path d="M51.3999 35.5574C50.5085 36.0534 49.8011 36.3795 48.8614 36.7806C48.6459 36.665 48.2455 36.8676 48.0153 36.9644C48.0216 36.8518 47.9879 36.6067 48.0153 36.5366C48.0584 36.4259 48.2476 36.3261 48.3411 36.2915C48.5587 36.2125 49.0706 36.2293 49.285 36.169C49.9756 35.9763 50.6862 35.6344 51.3999 35.5574Z" fill="#CF9841"/>
<path d="M52.9618 33.0496C52.9576 33.0664 52.9618 33.092 52.9618 33.1108C52.9713 33.428 53.1006 33.2867 53.1574 33.4171C53.1773 33.4626 53.2026 33.4942 53.2225 33.5396C53.3403 33.8045 53.4285 33.9922 53.3529 34.2738C53.2383 34.3667 53.1416 34.4329 53.027 34.5188C52.9913 34.2866 53.1584 33.9507 52.8315 34.091C52.8883 33.4586 52.0263 32.8766 51.5954 32.5614C50.0061 31.4014 52.5519 32.7581 52.9618 33.0505V33.0496Z" fill="#DCBD74"/>
<path d="M43.4596 38.3101C43.3514 38.3309 43.2431 38.3516 43.1338 38.3714C43.1191 38.1293 43.1002 37.6728 42.8079 37.576C43.1632 37.243 42.5704 37.0799 42.2225 37.1481C41.4919 36.2766 43.2715 37.324 43.4586 37.6679C43.6457 38.0117 43.4334 37.9455 43.4586 38.3101H43.4596Z" fill="#CF9841"/>
<path d="M54.5886 33.1108C54.1461 33.6296 53.877 33.8479 53.3525 34.2728C53.4282 33.9912 53.3399 33.8035 53.2222 33.5387L54.5886 33.1108Z" fill="#DDAF4B"/>
<path d="M48.0152 36.5365C47.9878 36.6066 48.0215 36.8527 48.0152 36.9643C48.0152 36.9702 47.9058 36.9534 48.0152 37.0868C47.7808 37.1935 47.7009 37.6688 47.3645 37.3319C46.9535 36.9198 47.5138 36.3339 48.0152 36.5365Z" fill="white"/>
<path d="M42.809 37.5769C43.1001 37.6737 43.1201 38.1302 43.1348 38.3723C43.0045 38.396 42.8731 38.4118 42.7448 38.4336C42.6376 38.4523 42.5325 38.477 42.419 38.4948C42.0994 38.4039 42.625 37.8634 42.5493 37.6994C42.564 37.6965 42.7995 37.5868 42.81 37.5769H42.809Z" fill="#F1D05F"/>
<path d="M48.8611 36.7817C48.5867 36.8993 48.2567 36.9784 48.0149 37.088C47.9056 36.9547 48.0149 36.9714 48.0149 36.9655C48.2451 36.8687 48.6456 36.6661 48.8611 36.7817Z" fill="#F1D05F"/>
<path d="M40.2062 38.8002C40.0591 38.815 39.9067 38.8467 39.7511 38.8615C40.3723 38.5305 40.9305 38.1856 41.3782 37.6689L41.2805 37.5157C41.1354 37.7094 40.5699 37.6254 40.5321 37.6382C39.5009 37.9772 38.9249 38.6263 37.4733 38.9227C37.1496 38.9889 36.7564 39.149 36.4316 38.984C37.4376 38.8743 39.3054 38.2538 40.1736 37.7608C40.4501 37.6037 41.1028 36.5978 41.4424 37.241C41.8628 38.0364 40.6582 38.4001 40.2062 38.8012V38.8002Z" fill="#CF9841"/>
<path d="M39.75 38.8616C39.5166 38.8834 39.2686 38.8458 39.0342 38.8616C39.523 38.4447 40.2945 38.2885 40.531 37.6384C40.5688 37.6265 41.1343 37.7105 41.2794 37.5159L41.3771 37.669C40.9294 38.1868 40.3712 38.5316 39.75 38.8616Z" fill="#DDAF4B"/>
<path d="M39.0346 38.8614C38.5311 38.896 37.9761 39.0936 37.4727 38.9227C38.9243 38.6253 39.5003 37.9771 40.5314 37.6382C40.2949 38.2893 39.5234 38.4454 39.0346 38.8614Z" fill="#F9EB86"/>
<path d="M42.5483 37.6985C42.624 37.8625 42.0985 38.403 42.418 38.4939C42.212 38.5265 42.028 38.5265 41.8325 38.5552C42.0701 38.2884 42.3455 38.0621 42.418 37.6985C42.46 37.6985 42.5094 37.7064 42.5483 37.6985Z" fill="#CF9841"/>
<path d="M27.0598 35.0071C27.6105 35.5456 27.7861 35.7719 28.5566 36.0475C28.9171 36.176 28.8666 36.175 29.2724 36.2313C30.189 36.3578 31.5533 36.3598 32.4615 36.1701C30.786 37.253 28.0152 37.2708 26.4091 36.0475C26.365 36.0139 26.2903 35.927 26.2136 35.8637C26.161 35.8213 25.996 35.432 25.8552 35.3746C25.8363 35.3667 25.6491 35.4478 25.4326 35.3746C25.4757 35.3282 25.7805 35.2571 25.8226 35.2521C26.2725 35.2037 26.6183 35.1879 27.0587 35.0071H27.0598Z" fill="#B3653A"/>
<path d="M46.388 36.2914C46.0905 36.3171 45.772 36.3942 45.4767 36.4139C44.6452 36.4703 44.2584 36.4703 43.4596 36.2608C43.4512 36.2588 43.6036 36.1373 43.4922 36.1076C43.3976 36.0829 43.2283 36.1323 43.1337 36.1076L42.1246 35.6185C41.7862 35.7084 41.6127 35.5642 41.4414 35.3122C42.4936 35.4812 43.859 36.2677 44.5979 36.3527C44.8292 36.3794 45.1403 36.2934 45.0857 36.0464C46.039 36.1175 46.2409 35.8547 47.005 35.7401C48.3641 35.5365 52.3605 35.329 51.6584 33.2926L51.7561 32.8647C52.5035 33.1473 52.6349 33.9704 52.1787 34.5474C51.4208 35.5069 47.9678 35.9426 46.8095 36.1076C46.7654 36.1136 46.7895 35.9802 46.7443 35.9851L46.3859 36.2914H46.388Z" fill="#F1D05F"/>
<path d="M19.3148 33.5997C19.0173 34.0503 18.8029 34.8635 19.4126 35.1905C19.4493 35.2103 19.9938 35.3792 20.161 35.4356C20.0685 35.7755 21.4707 35.7409 21.4623 35.9553C20.9861 36.3851 20.8694 36.1154 20.388 35.9859C20.367 35.98 19.9108 35.8762 19.9655 36.0472C19.7142 35.9158 19.9371 35.8446 19.8677 35.8021C19.3348 35.479 18.5969 35.3071 18.4035 34.5789C18.9595 34.1362 18.2679 34.0285 17.818 34.0898C17.5247 33.8803 17.0255 33.4189 16.7112 33.2944L16.646 32.9881C16.8772 33.1788 17.1642 33.2815 17.427 33.4159C17.8033 33.6086 18.1827 33.7865 18.5664 33.9663L18.9248 33.3853C18.4781 34.0127 16.0689 31.6779 16.81 31.7026C17.2094 32.7727 18.1134 32.8162 18.9574 33.2321C19.072 33.2885 19.2454 33.5592 19.3159 33.5987L19.3148 33.5997Z" fill="#F1D05F"/>
<path d="M43.0044 36.4141V36.4753C41.7851 35.8667 39.8416 35.6107 38.514 35.9862C37.4198 35.9694 36.4643 36.8962 35.553 37.332C33.7945 38.1728 32.9199 38.4693 30.9648 38.5552L31.0626 38.2489C31.8688 38.4663 33.0681 38.1185 33.8607 37.8211C38.4068 36.1137 37.3063 34.5673 43.0044 36.4141Z" fill="#F1D05F"/>
<path d="M40.5961 35.191C40.4342 35.2068 40.4731 35.2513 40.4657 35.2522C40.0673 35.3244 40.183 35.4005 39.9454 35.436C39.8046 35.2602 39.1434 35.2414 38.9363 35.2522C35.8744 35.4133 33.7375 37.7807 31.7119 38.005C31.1569 38.0663 30.4905 37.9596 29.9219 38.005C29.9482 37.7185 30.7975 37.9379 31.1906 37.8825C33.9162 37.5011 35.4939 35.1604 39.3904 35.0072C39.7068 34.9944 40.327 35.0082 40.594 35.191H40.5961Z" fill="#F1D05F"/>
<path d="M36.3013 34.2117L35.2597 35.0683C34.3252 35.3944 33.4517 35.9626 32.4616 36.1691C31.5534 36.3588 30.189 36.3568 29.2725 36.2303C30.3688 36.3657 31.2843 35.8934 32.2661 35.6187C33.684 35.2215 34.9506 34.7976 36.3013 34.2117Z" fill="#BE7833"/>
<path d="M39.9455 35.4348C39.5923 35.4872 39.1498 35.336 38.7419 35.3736C36.358 35.5929 34.1054 37.8803 31.6479 38.1264C31.3599 38.155 29.9062 38.1866 29.923 38.0039C30.4906 37.9584 31.1581 38.0651 31.7131 38.0039C33.7386 37.7786 35.8745 35.4121 38.9375 35.2511C39.1435 35.2402 39.8057 35.258 39.9465 35.4348H39.9455Z" fill="#C18938"/>
<path d="M20.0962 33.6614C19.8786 33.9064 19.7031 34.0615 19.9007 34.3343C19.7798 34.5625 19.8397 34.77 19.9659 34.9765C20.4147 35.7107 23.4588 35.9181 24.4237 36.1691C25.8627 36.5446 27.4404 37.4339 28.9467 37.5761L28.8815 37.6374C27.2081 37.4556 25.7933 36.6355 24.2282 36.2304C22.9227 35.8925 21.4259 35.8618 20.1603 35.435C19.9932 35.3787 19.4487 35.2097 19.4119 35.1899C18.8023 34.8629 19.0167 34.0497 19.3142 33.5991C19.6379 33.7859 19.7073 33.8244 20.0951 33.6604L20.0962 33.6614Z" fill="#DDAF4B"/>
<path d="M25.6282 34.6405L25.8237 35.2521C25.7817 35.257 25.4769 35.3282 25.4338 35.3746C25.1573 35.2817 24.8756 35.2175 24.6202 35.0683L24.4573 35.2827L26.2147 35.8637C26.2915 35.926 26.3661 36.0139 26.4103 36.0475C25.7134 35.8835 25.0144 35.6928 24.328 35.4971C24.3627 35.342 23.8508 35.3242 23.6773 35.3134C22.9394 34.9646 23.5459 35.0505 23.547 34.3954C23.9159 34.6098 24.2124 34.9932 24.6864 35.0071C24.7179 34.6306 24.5708 34.5723 24.6538 34.1504C24.8956 34.4784 25.1983 34.6178 25.6303 34.6395L25.6282 34.6405Z" fill="#CF9841"/>
<path d="M38.5135 35.9861C36.8927 36.4446 35.6818 37.7982 34.0557 38.311C33.0676 38.6223 31.5487 38.7952 30.6069 38.5561C30.7257 38.5521 30.8466 38.561 30.9654 38.5561C32.9205 38.4691 33.795 38.1737 35.5535 37.3328C36.4649 36.8971 37.4203 35.9703 38.5146 35.9871L38.5135 35.9861Z" fill="#CF9841"/>
<path d="M39.1647 34.7017C38.0737 34.7986 37.2149 35.0614 36.1711 35.4359C36.2027 35.2205 35.5394 35.5011 35.3901 35.5584C35.4322 35.3163 35.4606 35.2561 35.6834 35.1306C35.9062 35.0051 37.5491 34.4992 37.8309 34.4577C38.554 34.35 39.2036 34.3579 39.8805 34.6108C39.6451 34.6168 39.3918 34.683 39.1647 34.7027V34.7017Z" fill="#DDAF4B"/>
<path d="M21.1367 34.0278C21.204 34.3598 21.2324 34.4596 21.3974 34.762C21.7727 35.4497 21.9419 35.4447 22.7965 35.4349C22.8091 35.4349 22.9667 35.3133 23.0246 35.3123C23.3725 35.6107 24.2365 35.4398 24.4888 35.8014C23.3662 35.6345 21.1819 35.839 20.4861 34.7916C20.4514 34.7402 20.5208 34.4547 20.4861 34.3944L21.1367 34.0278Z" fill="#F1D05F"/>
<path d="M38.1232 36.4756C37.9035 36.6317 37.8068 36.9252 37.668 37.0872L34.9351 38.678C34.8363 38.68 34.2718 38.7008 34.317 38.4942C34.6155 38.5031 34.9078 38.3727 35.1632 38.2492C36.3184 37.689 36.8681 36.9252 38.1242 36.4746L38.1232 36.4756Z" fill="#F1D05F"/>
<path d="M36.1713 35.435C33.348 36.4477 32.2023 37.998 28.8828 37.6374L28.948 37.5761C29.4956 37.6275 30.8053 37.6018 31.3235 37.4536C31.7482 37.3331 31.9616 36.9882 32.1697 36.9032C33.1388 36.506 34.334 35.9636 35.3914 35.5575C35.5406 35.5002 36.2039 35.2205 36.1724 35.435H36.1713Z" fill="#CF9841"/>
<path d="M36.8869 34.5179C36.4475 34.6315 35.7212 34.9082 35.2598 35.0682L36.3014 34.2116C36.4202 34.1602 36.5358 34.0693 36.6273 34.0278C36.7797 33.9576 36.9647 33.9428 37.1476 33.844C37.4482 33.9685 38.0999 33.7867 38.2544 34.1197C37.8245 34.2234 37.198 34.2224 36.888 34.5169L36.8869 34.5179Z" fill="#F9EB86"/>
<path d="M40.3357 33.6611C40.4945 34.2639 39.9405 33.9022 39.5873 34.089C41.0221 34.169 42.2067 34.9506 43.4597 35.496C41.78 34.9071 40.5785 34.1167 38.7086 34.2115L38.6108 33.9665L39.2289 33.8746L38.9682 33.7214C39.4381 33.7333 39.869 33.7046 40.3347 33.6602L40.3357 33.6611Z" fill="#AA6628"/>
<path d="M20.9422 33.1721C21.2912 33.7729 20.4461 33.6978 20.4219 34.2432L21.0399 33.7235C21.3374 33.761 21.1293 33.9893 21.1377 34.0298L20.4871 34.3964C20.4398 34.3134 20.1654 34.4072 20.1938 34.09C20.1612 34.1592 19.911 34.3163 19.9005 34.3351C19.7029 34.0624 19.8785 33.9073 20.096 33.6622C20.2096 33.5347 20.4019 33.3707 20.5512 33.2956C20.6773 33.2324 20.8108 33.2166 20.9411 33.1731L20.9422 33.1721Z" fill="#F1D05F"/>
<path d="M38.969 33.7226L39.2297 33.8758L38.6116 33.9677L38.7094 34.2127C38.064 34.2453 37.5037 34.3589 36.8867 34.519C37.1979 34.2236 37.8233 34.2255 38.2532 34.1218C38.0997 33.7888 37.447 33.9706 37.1463 33.8461C37.2 33.8175 37.2294 33.6139 37.5363 33.6011C37.9967 33.687 38.5002 33.7117 38.9679 33.7236L38.969 33.7226Z" fill="#C18938"/>
<path d="M37.6681 37.0869C37.6575 37.0988 37.6786 37.1363 37.6681 37.1482C37.6428 37.1749 37.6229 37.1897 37.6029 37.2094C37.1236 37.6906 35.6373 38.6629 34.9341 38.6777L37.667 37.0869H37.6681Z" fill="#CF9841"/>
<path d="M38.449 37.8822L36.7241 38.3101C36.9564 37.9247 37.3758 37.8901 37.668 37.5759C37.7816 37.8259 38.1936 37.8803 38.449 37.8822Z" fill="#BE7833"/>
<path d="M40.5962 35.191C40.9735 35.1544 41.1259 35.2631 41.4423 35.3135C41.6137 35.5645 41.7871 35.7097 42.1255 35.6198L43.1346 36.1089C42.2296 35.8708 41.3309 35.601 40.4658 35.2522C40.4732 35.2512 40.4332 35.2068 40.5962 35.191Z" fill="#CF9841"/>
<path d="M40.7917 36.0478C40.5163 36.3343 40.1221 36.111 39.8152 36.2316C39.5818 36.1693 39.4063 36.1594 39.1646 36.1703C39.5125 35.8808 40.3334 35.9855 40.7917 36.0478Z" fill="#DDAF4B"/>
<path d="M40.2064 36.414C40.0582 36.2687 40.0067 36.2816 39.8164 36.2302C40.1223 36.1106 40.5175 36.3329 40.7929 36.0464C40.98 36.0721 41.3773 36.0622 41.4761 36.2302C41.0357 36.2094 40.609 36.2331 40.2074 36.414H40.2064Z" fill="#CF9841"/>
<path d="M24.3259 35.496C24.0463 35.416 24.0274 35.4792 23.6753 35.3123C23.8487 35.3231 24.3606 35.3409 24.3259 35.496Z" fill="#96943B"/>
<path d="M39.1647 34.7017L39.7502 34.7323C39.6734 34.8509 39.1552 34.9141 39.1647 34.7017Z" fill="#DDAF4B"/>
<path d="M22.3739 25.7083C22.4706 25.8683 22.5421 26.0491 22.6346 26.1974C22.458 26.39 22.1616 26.4355 21.9188 26.5037C20.7142 26.8376 21.1441 26.8959 20.3568 27.3603C19.5695 27.8247 18.7128 28.1103 18.0464 28.7061L17.688 28.217C19.1617 27.2408 20.7257 26.4048 22.3739 25.7083Z" fill="#BB764D"/>
<path d="M22.8943 26.6261C22.1176 26.7437 21.4785 26.9888 21.0717 27.6666C19.6369 28.1142 19.0746 28.5835 18.3388 29.7465C18.3335 29.7554 18.2126 29.8611 18.2084 29.869C17.5452 30.1467 16.3353 30.2415 16.061 31.0004C16.0084 31.1466 15.9643 32.0191 15.9958 32.1624C16.0694 32.4944 16.39 32.7779 16.6464 32.9884L16.7116 33.2947C16.6296 33.2621 16.5813 33.1583 16.5161 33.2028C16.4867 33.3332 16.617 33.433 16.6464 33.5397C16.3227 33.5318 16.4636 33.2147 16.3858 33.0813C16.2975 32.9301 16.021 32.7621 15.9958 32.7147C15.7099 32.1841 15.9306 31.4588 15.8003 30.8492C16.3185 30.0716 17.2845 30.1773 17.5578 29.3503C17.5441 29.3246 17.1668 29.3997 17.3297 29.1971C17.3949 29.1161 18.9989 28.5104 19.2816 28.3405C19.5076 28.2051 19.844 27.9067 20.0952 27.7288C20.6418 27.7634 21.0212 27.1212 21.3965 26.8415C21.386 26.6054 20.5398 27.3346 20.42 27.4225L20.3548 27.3613C21.1421 26.8969 20.7122 26.8386 21.9168 26.5046L21.8842 26.6884L22.763 26.3821C22.8218 26.474 22.8618 26.5787 22.8933 26.6271L22.8943 26.6261Z" fill="#CF9841"/>
<path d="M15.8005 30.8469C15.9308 31.4566 15.7101 32.1818 15.996 32.7124C16.0212 32.7599 16.2987 32.9288 16.386 33.079C16.4638 33.2124 16.3229 33.5296 16.6466 33.5375C16.6761 33.6432 16.7202 33.7391 16.6466 33.8438C15.2886 32.9881 15.8541 32.2984 15.605 30.9378C15.646 30.8321 15.7942 30.8548 15.8005 30.8459V30.8469Z" fill="#BE7833"/>
<path d="M20.0967 27.727C20.1776 27.6697 20.2911 27.5185 20.4225 27.4207C20.5413 27.3317 21.3885 26.6025 21.399 26.8397C21.0238 27.1183 20.6433 27.7616 20.0977 27.727H20.0967Z" fill="#F1D05F"/>
<path d="M51.3996 28.2168C51.8032 28.5537 52.1185 29.0922 52.4086 29.3175C52.5726 29.445 53.1097 29.5922 53.32 29.7453C54.4279 30.5546 54.6633 30.8115 54.2639 32.1315C54.0127 32.2956 53.7846 32.3608 53.5481 32.5594C52.7282 32.6305 51.9724 32.2215 51.2703 31.8559C51.2482 31.4567 53.5975 32.9368 54.0032 31.7946C54.4457 30.5506 53.279 30.0793 52.3435 29.5615C52.2089 29.8501 52.23 29.9271 51.985 30.1732C51.9188 30.2394 51.6119 30.4449 51.5299 30.4795C51.4773 30.5012 50.3589 30.8302 50.4231 30.5407C50.4451 30.5388 50.4672 30.5427 50.4882 30.5407C51.594 30.4232 52.1606 29.855 51.5299 28.8887C51.3796 28.6594 51.2345 28.5023 51.0096 28.3383L51.1073 27.9717C51.2566 27.945 51.3733 28.194 51.4006 28.2168H51.3996Z" fill="#EEE1B3"/>
<path d="M54.8487 31.704C54.7867 32.0182 54.4766 32.444 54.1981 32.6219C54.197 32.612 54.0068 32.6179 54.0026 32.53C54.0015 32.5063 54.1876 32.3798 54.2632 32.1328C54.6627 30.8137 54.4272 30.5558 53.3193 29.7466C53.1102 29.5934 52.572 29.4462 52.408 29.3187C52.1179 29.0935 51.8026 28.554 51.3989 28.218C52.4038 28.8089 55.0957 30.458 54.8477 31.705L54.8487 31.704Z" fill="#CF9841"/>
<path d="M51.0085 28.3383C51.2335 28.5033 51.3796 28.6594 51.5288 28.8886C51.3775 28.9232 51.3102 28.8293 51.203 28.7661C51.0022 28.6475 50.8382 28.3946 50.813 28.7661C50.3894 28.1317 48.819 27.8077 48.0801 27.6654C48.1347 27.5004 48.1631 27.3403 48.2104 27.1763C49.066 27.5369 50.2654 27.7938 51.0085 28.3383Z" fill="#CF9841"/>
<path d="M54.1976 32.6207C54.2134 32.76 54.2533 32.7798 54.1325 32.927C53.9454 33.1543 53.4471 33.3371 53.156 33.4161C53.1002 33.2857 52.9699 33.428 52.9604 33.1098C53.1623 33.0555 53.2295 32.9359 53.3504 32.8035C53.424 32.7235 53.5333 32.5693 53.5459 32.5585C53.7824 32.3599 54.0105 32.2946 54.2617 32.1306C54.1871 32.3776 54 32.5051 54.0011 32.5278C54.0053 32.6158 54.1955 32.6098 54.1966 32.6197L54.1976 32.6207Z" fill="#DDAF4B"/>
<path d="M54.1328 32.9269C54.2537 32.7797 54.2127 32.76 54.198 32.6206C54.4776 32.4438 54.7866 32.0169 54.8486 31.7027C55.5224 31.679 54.487 33.0178 54.1328 32.9259V32.9269Z" fill="#F9EB86"/>
<path d="M42.8088 37.5773C42.7982 37.5872 42.5628 37.6969 42.5481 37.6999C42.5102 37.7078 42.4598 37.6999 42.4177 37.6999C41.7576 37.7068 41.6883 37.2532 42.2222 37.1495C42.5702 37.0813 43.164 37.2453 42.8077 37.5773H42.8088Z" fill="white"/>
<path d="M48.3408 36.2915C48.2473 36.3261 48.0591 36.4249 48.015 36.5365C47.5136 36.333 46.9523 36.9199 47.3643 37.3319C46.3469 37.6896 45.2968 37.8961 44.2404 38.1273C44.1416 37.9228 44.15 37.657 44.0449 37.4545L45.4765 36.8122C44.9373 36.6689 44.356 36.8646 43.8168 36.7816C43.512 36.7351 43.3606 36.5296 43.1987 36.4753C43.9881 36.6432 44.7397 36.5938 45.5417 36.5365C46.4961 36.4684 47.398 36.1581 48.3398 36.2915H48.3408Z" fill="#DDAF4B"/>
<path d="M43.1994 36.4753C43.3613 36.5297 43.5127 36.7342 43.8175 36.7816C44.3567 36.8646 44.938 36.669 45.4772 36.8123L44.0456 37.4545C43.9026 37.1769 43.2825 36.6146 43.0039 36.4753V36.4141C43.068 36.4348 43.1342 36.4536 43.1994 36.4753Z" fill="#CF9841"/>
<path d="M46.6808 36.7816C46.7344 36.7678 46.8626 36.7697 46.9089 36.8122C46.9867 36.917 45.5035 37.661 45.2817 37.6076C45.5603 37.5454 46.5652 36.8112 46.6808 36.7816Z" fill="#CF9841"/>
<path d="M52.8316 34.0891C52.7811 34.6484 50.8586 35.5051 50.3257 35.6799C49.1358 36.0692 47.6443 36.1829 46.3882 36.2916L46.7466 35.9853C46.7918 35.9803 46.7676 36.1137 46.8118 36.1078C47.9701 35.9428 51.4231 35.507 52.1809 34.5476C52.6371 33.9706 52.5057 33.1485 51.7584 32.8649L51.6606 33.2927C51.6554 33.2769 51.4063 33.1317 51.4 33.0783C51.3905 32.9914 51.6701 32.7384 51.5955 32.5586C52.0264 32.8728 52.8894 33.4548 52.8316 34.0881V34.0891Z" fill="#CF9841"/>
<path d="M49.3173 28.5221C49.866 30.0882 48.4449 29.6021 47.7553 30.2048C47.7333 30.2236 47.9666 30.3886 47.4621 30.5417C47.0406 30.6692 46.6243 30.5249 46.1934 30.7255C46.885 29.9667 47.5714 29.0971 47.9508 28.1565C48.4028 28.1901 48.9032 28.362 49.3173 28.5231V28.5221Z" fill="#B3653A"/>
<path d="M42.4841 34.2727C43.8065 34.8191 45.3663 35.4861 46.8442 34.7618L46.9094 34.8231L46.5835 35.2509C46.3859 35.2806 46.0737 35.2588 45.9003 35.3734C46.0538 35.4515 47.3887 35.1541 47.2668 35.3734C45.2644 36.1748 43.4796 35.242 41.7347 34.3942C41.4929 34.165 42.4715 34.3468 42.4831 34.2717L42.4841 34.2727Z" fill="#EDDA94"/>
<path d="M50.8139 28.7673C50.8402 28.3958 51.0032 28.6487 51.2039 28.7673C51.3343 29.2268 51.4972 29.9718 51.041 30.2969C50.9064 30.3927 50.5123 30.3463 50.4881 30.5419C50.4671 30.5439 50.445 30.5399 50.4229 30.5419C49.9951 30.5725 49.7218 30.6091 49.7071 30.1753C50.6342 29.6951 50.7183 29.3098 49.8375 28.7683C49.6714 28.6665 49.4979 28.5944 49.3171 28.5232C48.902 28.3622 48.4027 28.1893 47.9507 28.1567C47.977 28.0924 47.9917 27.9778 48.0159 27.9116C49.005 28.0519 50.3945 28.3197 50.9117 29.1961C51.0326 29.1447 50.8613 28.8384 50.8139 28.7683V28.7673Z" fill="#CF9841"/>
<path d="M49.3826 33.1721C49.7957 34.2778 48.2799 34.9082 47.3655 35.1295C47.1174 35.1898 46.8399 35.2135 46.5845 35.252L46.9103 34.8242C47.2803 34.6048 47.5557 34.7689 47.5936 34.7629C47.8017 34.7303 48.7771 34.0525 48.9274 33.8756C49.0883 33.6869 49.125 33.2433 49.3826 33.1721Z" fill="#DDAF4B"/>
<path d="M42.3534 34.0277C43.9491 34.7341 46.3835 35.6827 47.4945 33.7826C47.4451 34.2954 47.36 34.5089 46.8439 34.7618C45.366 35.4851 43.8051 34.8181 42.4838 34.2727C41.8415 34.0069 41.3917 33.6324 40.6611 33.6611C40.8913 33.6265 41.1499 33.5336 41.3769 33.4773C41.5788 33.7461 42.0329 33.8864 42.3534 34.0277Z" fill="#AA6628"/>
<path d="M48.6017 32.1315C48.3568 31.9704 48.4199 32.1839 48.4062 32.1927C48.0099 32.4595 48.1119 32.6245 47.8533 33.0494C47.3456 32.7836 47.6074 32.2916 47.9511 31.9783C47.4434 31.9368 47.2941 32.003 46.8442 31.8252C47.5516 31.7412 48.4987 31.4122 49.0569 31.8558L48.504 31.8252C48.4472 31.8538 48.5807 32.0979 48.6017 32.1315Z" fill="#C18938"/>
<path d="M49.7071 30.1744C49.6997 29.954 50.0992 29.9254 50.1622 29.5934C50.2253 29.2614 50.0571 29.0144 49.8364 28.7673C50.7172 29.3088 50.6331 29.6942 49.7061 30.1744H49.7071Z" fill="#A35826"/>
<path d="M49.8377 28.7672C50.0584 29.0143 50.2277 29.2573 50.1635 29.5933C50.0994 29.9292 49.7 29.9539 49.7084 30.1743C49.7231 30.609 49.9964 30.5715 50.4242 30.5408C50.3601 30.8304 51.4774 30.5013 51.5311 30.4796C51.5952 30.5507 51.5311 30.6535 51.5311 30.6634C50.8709 30.8501 50.2129 30.9094 49.5791 31.0003C50.0164 31.1703 50.6407 31.3521 51.1085 31.276C51.6425 31.189 51.5153 31.19 51.5311 30.7256C52.0167 30.613 51.6719 31.2819 51.8243 31.3985C52.3457 31.2216 52.1964 30.5754 51.9872 30.1753C52.2322 29.9292 52.2101 29.8522 52.3457 29.5636C53.2812 30.0804 54.4479 30.5527 54.0054 31.7967C53.5997 32.9389 51.2504 31.4578 51.2725 31.858C51.9746 32.2235 52.7304 32.6326 53.5503 32.5615C53.5377 32.5714 53.4283 32.7265 53.3548 32.8065C52.9785 32.6445 53.0184 32.8451 52.9648 33.0516C52.5548 32.7581 50.008 31.4015 51.5983 32.5625C51.673 32.7423 51.3934 32.9952 51.4028 33.0822C51.4091 33.1355 51.6582 33.2808 51.6635 33.2966C52.3656 35.333 48.3693 35.5405 47.0102 35.7441C46.2449 35.8587 46.0442 36.1205 45.0908 36.0504C44.3519 35.9951 44.066 35.7619 43.4637 35.5C42.2118 34.9546 41.0261 34.173 39.5913 34.093C39.9445 33.9063 40.4984 34.2679 40.3397 33.6652C40.6014 33.6405 40.5342 33.5466 40.5678 33.5426C40.613 33.5367 40.5752 33.679 40.6656 33.6652C41.3961 33.6375 41.846 34.012 42.4882 34.2768C42.4767 34.3519 41.4981 34.1701 41.7398 34.3993C43.4836 35.2461 45.2695 36.1798 47.2719 35.3785C47.3938 35.1591 46.0578 35.4566 45.9054 35.3785C46.0789 35.2639 46.391 35.2866 46.5887 35.256C46.8441 35.2174 47.1216 35.1937 47.3696 35.1334C47.336 35.2994 47.891 35.1433 47.9225 35.1334C48.8212 34.8607 49.988 34.2333 49.5823 33.1454C49.4477 32.7848 48.754 32.3737 48.6058 32.1356C48.5847 32.102 48.4513 31.858 48.508 31.8293L49.0609 31.8599C48.5028 31.4163 47.5546 31.7453 46.8483 31.8293C46.8346 31.8234 46.8168 31.6129 46.6854 31.5843C46.2355 31.4884 45.6658 31.773 45.2863 31.523C45.3893 31.439 45.5134 31.3639 45.6122 31.278C45.6605 31.4301 45.7341 31.3758 45.8403 31.3392C46.3595 31.1614 46.7936 30.9578 47.3696 30.8807L45.938 30.9726C46.0063 30.9252 46.0515 30.7958 46.1987 30.7276C46.6296 30.528 47.0469 30.6723 47.4674 30.5438C47.9709 30.3907 47.7386 30.2266 47.7607 30.2069C48.4502 29.6051 49.8713 30.0903 49.3226 28.5242C49.5034 28.5943 49.6779 28.6674 49.8429 28.7692L49.8377 28.7672Z" fill="#CF9841"/>
<path d="M53.3518 32.8045C53.2299 32.9369 53.1636 33.0565 52.9618 33.1108C52.9618 33.092 52.9576 33.0673 52.9618 33.0495C53.0154 32.843 52.9755 32.6425 53.3518 32.8045Z" fill="#AA6628"/>
<path d="M48.6019 32.1317C48.7501 32.3699 49.4438 32.7809 49.5783 33.1416C49.9841 34.2294 48.8184 34.8569 47.9186 35.1296C47.886 35.1395 47.3321 35.2956 47.3657 35.1296C48.2802 34.9073 49.7959 34.2769 49.3828 33.1722C49.1989 32.6791 48.3832 32.5961 48.4063 32.193C48.42 32.1841 48.3569 31.9707 48.6019 32.1317Z" fill="#B3653A"/>
<path d="M51.5301 30.7246C51.5132 31.189 51.6415 31.188 51.1075 31.275C50.6398 31.351 50.0154 31.1692 49.5781 30.9993C50.212 30.9094 50.87 30.8501 51.5301 30.6624C51.5301 30.6831 51.5301 30.7029 51.5301 30.7236V30.7246Z" fill="#B3653A"/>
<path d="M51.5303 30.7247C51.5303 30.7039 51.5303 30.6842 51.5303 30.6634C51.5303 30.6545 51.5945 30.5508 51.5303 30.4796C51.6134 30.4461 51.9203 30.2395 51.9855 30.1733C52.1947 30.5745 52.3439 31.2207 51.8226 31.3966C51.6712 31.28 52.0149 30.6101 51.5293 30.7237L51.5303 30.7247Z" fill="#DDAF4B"/>
<path d="M45.6069 31.2751C45.7247 31.1724 45.7919 31.0657 45.9328 30.9688L47.3644 30.877C46.7884 30.954 46.3543 31.1576 45.835 31.3354C45.7289 31.372 45.6553 31.4263 45.6069 31.2742V31.2751Z" fill="#A35826"/>
<path d="M49.4141 32.0093C49.9438 32.1318 50.1446 32.4687 50.3254 32.9272L49.4141 32.0093Z" fill="#B3653A"/>
<path d="M51.3021 31.5201C51.5018 31.4006 51.4345 31.696 51.3672 31.7039C51.3441 31.7059 51.2085 31.5765 51.3021 31.5201Z" fill="#A6512F"/>
<path d="M25.433 35.3747C25.6496 35.4478 25.8367 35.3668 25.8556 35.3747C25.9954 35.432 26.1615 35.8213 26.214 35.8638L24.4565 35.2828L24.6195 35.0684C24.8749 35.2166 25.1555 35.2808 25.433 35.3747Z" fill="#F9EB86"/>
<path d="M18.1432 30.052C18.0959 30.1449 18.0654 30.3 18.0129 30.4186C17.7743 30.9561 17.4148 30.961 17.687 31.8256C17.0669 32.4185 18.632 33.1437 19.1187 33.0489C19.6369 33.2929 19.9554 33.3413 20.5503 33.2939C20.4 33.369 20.2076 33.534 20.0952 33.6605C19.7073 33.8245 19.6379 33.786 19.3142 33.5992C19.2448 33.5587 19.0703 33.289 18.9557 33.2326C18.1117 32.8167 17.2067 32.7732 16.8083 31.7031C16.0683 31.6784 18.4764 34.0132 18.9231 33.3858L18.5647 33.9668C18.1811 33.786 17.8026 33.6091 17.4253 33.4164C17.5714 33.3591 17.4736 33.2356 17.3927 33.1714C16.6107 32.5588 15.8118 32.6131 16.124 31.2446C16.1377 31.1843 16.2985 31.2446 16.3195 31.1834C16.3489 31.0994 16.288 30.8682 16.3195 30.8168C16.5886 30.384 17.6555 30.2427 18.1422 30.052H18.1432Z" fill="#CF9841"/>
<path d="M18.2086 29.8682C18.197 29.8889 18.176 29.9877 18.1434 30.0519C17.6567 30.2426 16.5898 30.3839 16.3207 30.8167C16.2892 30.8681 16.3502 31.0993 16.3207 31.1833C16.2997 31.2446 16.1389 31.1833 16.1252 31.2446C15.8141 32.6131 16.6119 32.5587 17.3939 33.1713C17.4749 33.2346 17.5726 33.3591 17.4265 33.4164C17.1637 33.281 16.8768 33.1782 16.6455 32.9885C16.3891 32.7781 16.0685 32.4945 15.9949 32.1625C15.9623 32.0182 16.0075 31.1458 16.0601 31.0005C16.3344 30.2407 17.5442 30.1458 18.2075 29.8692L18.2086 29.8682Z" fill="#B3653A"/>
<path d="M35.4547 33.3547C35.461 33.581 35.5641 33.3656 35.5851 33.4466C35.5998 33.5029 35.4621 33.6402 35.5199 33.7529C35.7196 34.1392 36.2431 34.0128 36.6267 34.0286C36.5364 34.0701 36.4207 34.16 36.3009 34.2123C34.9502 34.7983 33.6836 35.2222 32.2656 35.6194C33.465 35.0285 34.4351 34.6906 35.1289 33.5395C35.2088 33.408 34.9765 33.3073 35.4547 33.2332C35.4516 33.2737 35.4537 33.3152 35.4547 33.3557V33.3547Z" fill="#AA6628"/>
<path d="M21.7237 32.9883C21.7016 33.3223 21.7384 33.3736 21.854 33.6612C21.8918 33.756 21.7836 33.8074 21.7888 33.8143C21.9475 34.0169 22.4163 33.7116 22.635 33.9062C22.0464 33.8558 21.4251 34.1898 21.3989 34.7629C21.2338 34.4605 21.2055 34.3607 21.1382 34.0287C21.1298 33.9892 21.3389 33.76 21.0404 33.7224L20.4224 34.2422C20.4465 33.6977 21.2916 33.7718 20.9427 33.1711C20.99 33.1553 21.1098 33.1167 21.1382 33.1098C21.3274 33.0634 21.5355 33.0486 21.7237 32.9873V32.9883Z" fill="#BE7833"/>
<path d="M36.7564 33.3549C37.0107 33.4319 37.2746 33.5505 37.5374 33.5999C37.2304 33.6127 37.1999 33.8163 37.1474 33.8449C36.9645 33.9438 36.7795 33.9586 36.6271 34.0287C36.2445 34.0129 35.72 34.1394 35.5202 33.7531C35.4624 33.6404 35.6001 33.5041 35.5854 33.4467C35.5644 33.3657 35.4614 33.5811 35.4551 33.3549C35.6758 33.2145 35.7073 33.5673 35.8135 33.5999C35.9996 33.6572 36.9372 33.6602 36.7574 33.3549H36.7564Z" fill="#3D451C"/>
<path d="M22.8939 26.626C22.9033 26.6408 23.0242 26.7159 23.0894 26.8098C22.5092 27.0696 21.9069 27.1161 21.4622 27.6052C21.2741 27.6565 21.0964 27.6585 21.0723 27.6664C21.4791 26.9886 22.1181 26.7436 22.8949 26.626H22.8939Z" fill="#F9EB86"/>
<path d="M22.7635 26.381L21.8848 26.6874L21.9174 26.5036C22.1602 26.4364 22.4566 26.3909 22.6332 26.1973C22.6679 26.2526 22.7236 26.3188 22.7635 26.381Z" fill="#B3653A"/>
<path d="M45.8023 32.4378C45.7329 32.4774 45.7171 32.4616 45.7371 32.5604C44.8668 32.1997 44.7186 32.5159 44.11 32.8054C43.6969 33.002 43.3258 33.257 42.8738 33.3864C43.4488 33.748 44.1184 33.999 44.8258 34.0286C45.0276 34.0375 45.3545 34.0543 45.5416 34.0286C45.7508 34 45.9242 33.8864 46.1271 33.8449C46.0629 33.9704 45.9274 34.0474 45.8338 34.1512L45.899 34.2737C47.0458 33.6779 47.009 33.0593 45.9316 32.3776C45.9368 32.3736 45.7918 32.3618 45.899 32.255C48.0538 33.5228 46.3531 34.6274 44.4673 34.4575C43.74 34.3923 43.0672 33.8666 42.3525 34.0296C42.0319 33.8874 41.5778 33.747 41.376 33.4793C42.837 33.1206 43.452 32.588 44.6954 32.011C45.0928 32.0505 45.838 31.9369 45.8023 32.4388V32.4378Z" fill="#AA6628"/>
<path d="M44.9562 31.8255C45.1696 31.7959 46.7683 32.0963 46.9407 32.1921C47.0448 32.2504 46.7872 32.2455 46.8755 32.3146C47.4694 32.783 47.564 33.0606 47.4936 33.7829C46.3826 35.682 43.9471 34.7335 42.3525 34.028C43.0673 33.8649 43.74 34.3906 44.4674 34.4558C46.3531 34.6258 48.0538 33.5211 45.899 32.2534C45.7918 32.3601 45.9369 32.3719 45.9316 32.3759C45.8423 32.446 45.8244 32.4243 45.8013 32.4372C45.837 31.9342 45.0928 32.0488 44.6944 32.0093C44.7344 31.9905 44.7396 31.8552 44.9551 31.8255H44.9562Z" fill="#CF9841"/>
<path d="M50.8142 28.767C50.8615 28.8371 51.0328 29.1435 50.912 29.1948C50.3948 28.3174 49.0052 28.0496 48.0161 27.9103C48.0424 27.8402 48.0571 27.7374 48.0813 27.6653C48.8213 27.8076 50.3917 28.1326 50.8142 28.766V28.767Z" fill="#EEE1B3"/>
<path d="M51.5299 28.8899C52.1606 29.8552 51.5941 30.4243 50.4883 30.5419C50.5135 30.3463 50.9066 30.3937 51.0412 30.2969C51.4974 29.9718 51.3344 29.2268 51.2041 28.7673C51.3113 28.8306 51.3786 28.9244 51.5299 28.8899Z" fill="#DDAF4B"/>
<path d="M46.8442 31.8253C47.2941 32.0032 47.4434 31.937 47.9511 31.9785C47.6084 32.2907 47.3456 32.7838 47.8533 33.0496C48.1129 32.6247 48.0099 32.4597 48.4062 32.1929C48.3831 32.596 49.1977 32.679 49.3827 33.1721C49.1252 33.2432 49.0873 33.6869 48.9275 33.8756C48.7772 34.0525 47.8018 34.7293 47.5937 34.7629C47.5558 34.7688 47.2804 34.6048 46.9104 34.8242L46.8453 34.7629C47.3624 34.51 47.4465 34.2965 47.4959 33.7837C47.5663 33.0614 47.4707 32.7838 46.8779 32.3154C46.7896 32.2463 47.0471 32.2512 46.943 32.1929C46.7696 32.0971 45.1719 31.7967 44.9585 31.8263C45.0247 31.687 45.1687 31.6139 45.2843 31.52C45.6638 31.769 46.2335 31.4854 46.6834 31.5813C46.8148 31.6089 46.8316 31.8204 46.8463 31.8263L46.8442 31.8253Z" fill="#CF9841"/>
<path d="M48.1127 32.8045C48.6824 33.0554 49.0471 33.5524 48.5026 34.0277C48.5405 33.4981 48.5573 33.3024 48.0801 32.9566L48.1127 32.8035V32.8045Z" fill="#A6512F"/>
<path d="M47.4625 32.0093C47.7084 31.9678 47.6296 32.1693 47.5276 32.1931C47.493 32.201 47.2659 32.0419 47.4625 32.0093Z" fill="#A6512F"/>
<path d="M17.6877 31.8252C17.8022 32.1868 18.7609 32.8805 19.1193 33.0484C18.6326 33.1433 17.0675 32.418 17.6877 31.8252Z" fill="#F1D05F"/>
<path d="M44.1101 32.8047C44.0219 32.9213 44.0418 33.0389 44.045 33.1713C44.0576 33.7453 44.292 33.8125 44.826 34.0279C44.1186 33.9973 43.449 33.7473 42.874 33.3857C43.326 33.2562 43.6971 33.0003 44.1101 32.8047Z" fill="#913C1F"/>
<path d="M46.1286 33.845C46.4019 33.3065 46.4219 32.8431 45.7386 32.5605C45.7187 32.4617 45.7334 32.4775 45.8038 32.438C45.8269 32.4251 45.8448 32.4469 45.9342 32.3767C47.0116 33.0585 47.0484 33.678 45.9016 34.2728L45.8364 34.1503C45.93 34.0476 46.0655 33.9705 46.1297 33.844L46.1286 33.845Z" fill="#C18938"/>
<path d="M45.5427 34.0278C45.3556 34.0535 45.0287 34.0367 44.8269 34.0278C44.2929 33.8124 44.0585 33.7452 44.0459 33.1711C44.2246 33.4607 45.2337 33.6069 45.3146 33.6602C45.4534 33.7521 45.0855 33.9596 45.5427 34.0268V34.0278Z" fill="#2B2D15"/>
<path d="M45.737 32.5596C46.4213 32.8432 46.4002 33.3056 46.1269 33.8441C45.9241 33.8846 45.7496 33.9992 45.5415 34.0279C45.0842 33.9597 45.4521 33.7522 45.3134 33.6613C45.2314 33.6079 44.2234 33.4617 44.0447 33.1722C44.0415 33.0398 44.0215 32.9222 44.1098 32.8056C44.7184 32.5161 44.8666 32.2009 45.737 32.5606V32.5596Z" fill="#645824"/>
<path d="M44.9888 32.4992C45.3157 32.4616 45.7351 32.7274 45.4439 33.0495C45.0792 33.0772 44.7544 33.0495 44.5 32.7738C44.6598 32.7155 44.8132 32.5179 44.9877 32.4982L44.9888 32.4992Z" fill="#817849"/>
</g>
<defs>
<filter id="filter0_i_366_118543" x="0" y="0" width="70" height="70" filterUnits="userSpaceOnUse" color-interpolation-filters="sRGB">
<feFlood flood-opacity="0" result="BackgroundImageFix"/>
<feBlend mode="normal" in="SourceGraphic" in2="BackgroundImageFix" result="shape"/>
<feColorMatrix in="SourceAlpha" type="matrix" values="0 0 0 0 0 0 0 0 0 0 0 0 0 0 0 0 0 0 127 0" result="hardAlpha"/>
<feMorphology radius="3" operator="erode" in="SourceAlpha" result="effect1_innerShadow_366_118543"/>
<feOffset/>
<feGaussianBlur stdDeviation="1"/>
<feComposite in2="hardAlpha" operator="arithmetic" k2="-1" k3="1"/>
<feColorMatrix type="matrix" values="0 0 0 0 0 0 0 0 0 0 0 0 0 0 0 0 0 0 0.08 0"/>
<feBlend mode="normal" in2="shape" result="effect1_innerShadow_366_118543"/>
</filter>
<linearGradient id="paint0_linear_366_118543" x1="25.5648" y1="32.7175" x2="50.257" y2="44.9034" gradientUnits="userSpaceOnUse">
<stop stop-color="#7F8280"/>
<stop offset="0.88" stop-color="#183036"/>
<stop offset="1" stop-color="#3C4E50"/>
</linearGradient>
<linearGradient id="paint1_linear_366_118543" x1="40.1068" y1="28.9808" x2="36.9656" y2="32.8959" gradientUnits="userSpaceOnUse">
<stop stop-color="#D9BAB4"/>
<stop offset="1" stop-color="#D7CECF"/>
</linearGradient>
<linearGradient id="paint2_linear_366_118543" x1="37.9947" y1="25.4402" x2="39.8577" y2="29.0161" gradientUnits="userSpaceOnUse">
<stop stop-color="#FECE1F"/>
<stop offset="1" stop-color="#F68A25"/>
</linearGradient>
<linearGradient id="paint3_linear_366_118543" x1="28.1709" y1="22.307" x2="31.6814" y2="25.5077" gradientUnits="userSpaceOnUse">
<stop stop-color="#507D3A"/>
<stop offset="1" stop-color="#385D2C"/>
</linearGradient>
<linearGradient id="paint4_linear_366_118543" x1="24.3716" y1="22.1808" x2="28.3932" y2="26.5292" gradientUnits="userSpaceOnUse">
<stop stop-color="#56863C"/>
<stop offset="1" stop-color="#426F35"/>
</linearGradient>
<linearGradient id="paint5_linear_366_118543" x1="22.1074" y1="25.5617" x2="27.9772" y2="28.2175" gradientUnits="userSpaceOnUse">
<stop stop-color="#58883D"/>
<stop offset="1" stop-color="#3F6B33"/>
</linearGradient>
<linearGradient id="paint6_linear_366_118543" x1="48.5974" y1="22.0732" x2="43.1988" y2="28.0559" gradientUnits="userSpaceOnUse">
<stop stop-color="#F89D52"/>
<stop offset="1" stop-color="#EF7F4F"/>
</linearGradient>
</defs>
</svg>
