<svg width="50" height="50" viewBox="0 0 50 50" fill="none" xmlns="http://www.w3.org/2000/svg">
<path d="M35.4047 29.4088C35.2044 29.434 34.7536 29.4542 34.7342 29.6472C34.6399 29.6346 34.463 29.6358 34.3687 29.6472C34.3919 29.3886 34.6464 29.0468 34.6735 28.8134C34.649 29.0442 34.8466 28.8147 34.9177 28.6948C34.9939 28.8121 35.3517 29.3457 35.406 29.41L35.4047 29.4088Z" fill="#906B6D"/>
<path d="M35.4046 29.4087C35.4783 29.4957 35.8645 29.8729 35.9536 29.9448L35.4654 30.0634C35.4473 30.0419 35.3155 29.9725 35.2819 29.9448C35.0739 29.772 35.0352 29.6862 34.7329 29.6471C34.7536 29.4541 35.2044 29.4339 35.4033 29.4087H35.4046Z" fill="#BE9A99"/>
<path d="M36.5026 30.3033C36.4626 30.297 35.8387 30.4786 35.7095 30.4824C35.703 30.4597 35.4899 30.0951 35.4653 30.0649L35.9536 29.9463C36.1112 30.0724 36.3244 30.2036 36.5026 30.3033Z" fill="#906B6D"/>
<path d="M34.9167 28.6948C34.8456 28.8159 34.648 29.0442 34.6725 28.8134C34.6945 28.6229 34.6441 28.2974 34.6118 28.0981C34.7604 28.2672 34.7927 28.5056 34.9167 28.6935V28.6948Z" fill="#A9857C"/>
<path d="M44.189 23.8089C44.4771 24.2883 44.7535 25.0439 44.7987 25.5964C44.8142 25.7755 44.8078 26.0088 44.7987 26.1917C44.7742 26.6698 44.636 27.2249 44.4939 27.6815C44.335 27.7269 44.4008 27.4885 44.2497 27.5919C44.1877 27.6348 43.68 28.683 43.5173 28.9025C41.8328 31.1706 38.9986 31.7092 36.5016 30.3027C36.3233 30.2018 36.1102 30.0719 35.9526 29.9457C35.8634 29.8738 35.4772 29.4967 35.4036 29.4096C35.3493 29.3453 34.9915 28.8117 34.9153 28.6944C34.7913 28.5052 34.7577 28.268 34.6104 28.099C34.5807 27.9186 34.3895 27.3813 34.3055 27.2059C34.3172 26.9019 34.3017 26.5904 34.3055 26.2826C34.3055 26.2384 34.1815 26.2662 34.1841 26.2233C34.1854 26.1766 34.29 26.2573 34.3055 26.0744L34.5497 26.1337C34.6027 26.3936 34.7293 26.3545 34.7331 26.3721C35.153 28.3841 35.972 29.812 38.1796 30.3633C44.1335 31.8479 46.6524 23.9931 41.413 21.6065L39.6742 21.189C41.4104 21.2142 43.3067 22.3432 44.1877 23.8102L44.189 23.8089Z" fill="#E77C24"/>
<path d="M38.1499 22.4983C38.4006 23.0444 38.8423 24.2453 39.0038 24.8218C38.6008 24.7802 38.8527 25.2065 38.699 25.4172C38.3941 25.4033 37.0158 24.7209 36.7471 24.5241C36.8039 24.2731 37.1824 24.0952 37.2354 23.8391C37.2651 23.6966 37.0971 23.5667 37.1139 23.4822C37.1566 23.2576 37.5764 23.0028 37.1747 22.4692L38.1512 22.4995L38.1499 22.4983Z" fill="#FBBA57"/>
<path d="M38.1498 22.4984L37.1733 22.4681C37.575 23.0017 37.1552 23.2565 37.1125 23.4811C37.0957 23.5656 37.2637 23.6955 37.234 23.838C37.181 24.0941 36.8038 24.272 36.7457 24.523C36.3543 24.2367 36.1721 23.9818 36.2574 23.4811C36.154 23.336 36.0882 23.4256 35.9525 23.4508C35.9176 23.1455 35.9667 22.9551 36.0739 22.6763C36.5274 22.7066 37.4691 21.8652 37.8734 22.0216C38.009 22.0733 38.0982 22.3899 38.1486 22.4984H38.1498Z" fill="#FED386"/>
<path d="M38.1501 25.3579C37.9744 25.4853 37.3182 25.2746 37.2045 25.2986C36.9733 25.3478 37.1748 25.6669 37.0211 25.7161C36.6723 25.8271 35.9489 25.5269 35.7707 26.0731C35.5123 25.8007 35.4903 25.0879 35.6492 24.7625C35.9774 24.8634 36.3894 24.5594 36.6555 24.5834C36.7395 24.591 37.8995 25.2519 38.1501 25.3579Z" fill="#FBBA57"/>
<path d="M38.1497 25.3579C38.3912 25.4601 38.6186 25.5572 38.8821 25.5963C38.8873 25.6568 38.9816 25.6922 38.9428 25.7451C38.8769 25.836 37.0839 26.2308 36.8385 26.251C36.4574 26.2838 36.0156 26.3304 35.7715 26.0718C35.9498 25.5244 36.6731 25.8259 37.0219 25.7149C37.1757 25.6657 36.9741 25.3465 37.2054 25.2973C37.319 25.2734 37.9753 25.484 38.151 25.3566L38.1497 25.3579Z" fill="#F9A021"/>
<path d="M36.0751 22.6774C35.9679 22.9562 35.9175 23.1467 35.9537 23.4519C35.9059 23.4608 35.8787 23.491 35.8322 23.5112C35.229 23.7673 34.9835 24.4434 34.7949 25.001C34.6593 25.4021 34.4423 25.6039 34.5508 26.1325L34.3066 26.0732C34.3919 25.1397 34.5934 24.5746 35.0391 23.7496C35.1295 23.5819 35.2419 23.3712 35.3439 23.2135C35.5648 22.8742 36.3192 22.1388 36.3812 21.8436C36.42 21.8398 36.4717 21.8525 36.5027 21.8436C36.668 21.797 36.7481 21.6506 36.8683 21.6052C36.7274 22.0984 36.2805 22.1439 36.0751 22.6774Z" fill="#FBBA57"/>
<path d="M36.7469 24.5241C37.0169 24.7209 38.394 25.4033 38.6988 25.4172C38.7544 25.4197 38.8345 25.4273 38.8823 25.4172C38.9404 25.4954 38.8823 25.5875 38.8823 25.5963C38.6187 25.5572 38.3914 25.4601 38.1498 25.3579C37.9083 25.2557 36.7392 24.591 36.6552 24.5834C36.3891 24.5582 35.9757 24.8634 35.6489 24.7625C35.7652 24.5216 36.0713 24.3463 36.0765 24.316C36.0843 24.2718 35.6916 23.7849 35.8324 23.5112C35.8802 23.491 35.9073 23.4607 35.9538 23.4519C36.0894 23.4267 36.1553 23.3359 36.2586 23.4822C36.1721 23.9842 36.3542 24.239 36.7469 24.5241Z" fill="#FED386"/>
<path d="M35.0382 25.0603L34.8548 26.2511C34.8095 26.2876 34.7437 26.323 34.7333 26.3696C34.7295 26.352 34.6029 26.3911 34.5499 26.1312C34.4414 25.6027 34.6584 25.4009 34.794 24.9997C34.8832 24.9884 34.9684 25.0048 35.0382 25.059V25.0603Z" fill="#FED386"/>
<path d="M39.0036 24.8218C39.1005 25.1687 39.2632 25.334 38.8822 25.4172C38.8357 25.4273 38.7556 25.4198 38.6987 25.4172C38.8525 25.2066 38.6006 24.779 39.0036 24.8218Z" fill="#F9A021"/>
<path d="M39.6133 21.189C39.6339 21.189 39.6533 21.189 39.674 21.189L41.4127 21.6065C46.6535 23.9931 44.1332 31.8467 38.1794 30.3633C35.9704 29.8133 35.1527 28.3841 34.7329 26.3721C34.7445 26.3255 34.8104 26.2901 34.8543 26.2536C35.154 26.0088 35.34 25.3037 35.0378 25.0628C34.968 25.0073 34.8828 24.9909 34.7936 25.0035C34.9822 24.4459 35.2277 23.7698 35.8309 23.5138C35.6901 23.7875 36.0828 24.2744 36.0751 24.3185C36.0699 24.3488 35.765 24.5254 35.6475 24.7651C35.4899 25.0893 35.5119 25.8032 35.7689 26.0757C36.026 26.3482 36.4562 26.2876 36.8359 26.2548C37.0814 26.2334 38.8757 25.8398 38.9403 25.749C38.9777 25.696 38.8834 25.6607 38.8795 25.6001C38.8795 25.5913 38.9377 25.5005 38.8795 25.421C39.2619 25.3378 39.0991 25.1713 39.001 24.8256C38.8395 24.2492 38.3977 23.0483 38.1471 22.5021C38.098 22.3936 38.0076 22.077 37.8719 22.0253C37.4676 21.8701 36.5259 22.7102 36.0725 22.68C36.2779 22.1464 36.7235 22.101 36.8656 21.6078C37.3268 21.4337 39.0475 21.1927 39.6107 21.1902L39.6133 21.189Z" fill="#FED567"/>
<path d="M40.0099 25.9534C40.1545 25.8891 43.0313 26.0228 43.1825 26.072C43.7341 26.2537 43.0959 28.9241 41.963 28.4548C41.8196 28.3955 39.9207 26.3142 39.9194 26.1616C39.9259 26.1124 39.9879 25.9635 40.0111 25.9534H40.0099Z" fill="#F79229"/>
<path d="M42.327 23.3332C43.2584 23.2462 43.695 25.7766 42.9974 25.9545C42.4252 26.1008 40.8324 25.6517 40.131 25.8359C40.0819 25.7716 39.9695 25.7287 39.9785 25.6278C39.9928 25.465 42.1319 23.3522 42.327 23.3345V23.3332Z" fill="#F9A021"/>
<path d="M38.3625 26.014C38.6454 25.9887 39.153 25.9042 39.0032 26.2827C38.9438 26.4328 36.9957 28.6503 36.8381 28.6957C36.0101 28.9316 35.2402 26.9651 35.6484 26.5211C35.8512 26.3003 36.5346 26.4265 36.8381 26.3722C37.2812 26.294 37.9555 26.0506 38.3637 26.0152L38.3625 26.014Z" fill="#F9A021"/>
<path d="M39.1559 26.3711C39.4375 26.3623 39.5318 27.485 39.5524 27.7713C39.5809 28.1687 39.6532 29.5663 39.2166 29.7076C39.0021 29.777 37.5747 29.4276 37.3861 29.2901C37.1226 29.0983 37.1252 28.7691 37.2337 28.4853C37.3125 28.2797 39.0073 26.3749 39.1559 26.3711Z" fill="#F79229"/>
<path d="M40.1313 22.082C40.6196 21.9218 42.1336 22.3519 42.0535 23.0646C42.0251 23.3119 40.1029 25.5017 39.8885 25.4172C39.6172 24.9782 39.7296 22.2132 40.1326 22.082H40.1313Z" fill="#F9A021"/>
<path d="M39.6441 26.3118C39.8856 26.2197 41.8724 28.5356 42.0532 28.9027C39.6957 31.0509 39.471 28.0929 39.6441 26.3118Z" fill="#F79229"/>
<path d="M39.2771 22.0227C40.0418 21.8676 39.6917 24.0612 39.6129 24.5544C39.5742 24.7915 39.5354 25.0892 39.3998 25.2986C39.2435 25.3403 38.3147 22.8464 38.3328 22.7077C38.3754 22.3709 38.7126 22.5626 38.8508 22.4995C39.0523 22.4075 39.0497 22.0694 39.2784 22.0227H39.2771Z" fill="#FBBA57"/>
<path d="M34.8555 26.2511L35.0389 25.0603C35.3425 25.3012 35.1552 26.0076 34.8555 26.2511Z" fill="#FDEEB0"/>
<path d="M44.4939 27.6819C44.4112 27.9455 44.2743 28.194 44.1891 28.4564C43.9449 28.662 43.9333 28.9874 43.8235 29.111C43.6142 29.3457 43.3701 29.6799 43.153 29.8856C42.4813 30.5201 41.4427 30.9754 40.5294 31.1369C39.3139 31.3513 38.5323 31.2227 37.3878 30.8392C37.1617 30.7635 36.5546 30.3107 36.5029 30.3031C38.9987 31.7096 41.8341 31.1709 43.5186 28.9029C43.6814 28.6834 44.1878 27.6352 44.2511 27.5923C44.4009 27.4889 44.3363 27.726 44.4952 27.6819H44.4939Z" fill="#A94724"/>
<path d="M36.5028 21.8437C36.4718 21.8525 36.4202 21.8399 36.3814 21.8437C36.3956 21.7769 36.3775 21.6822 36.3814 21.6053C36.6579 21.5839 36.5377 21.6608 36.5028 21.8437Z" fill="#F9FBF8"/>
<path d="M36.685 17.3164C37.1552 17.9672 37.2405 18.077 37.4175 18.8654C37.4846 19.1669 37.4265 19.3308 37.5092 19.5806C37.5389 19.5554 37.5518 19.5175 37.6009 19.5213C37.938 19.5478 37.7068 19.3939 37.7223 19.3422C38.0143 19.0672 39.1472 18.5513 39.5825 18.27C39.8886 18.0719 40.178 17.8108 40.4364 17.5548L40.7115 17.7036C40.4247 18.6799 39.2117 19.2955 38.3023 19.6399C38.1499 19.6979 37.597 19.713 37.5092 19.7585C37.3554 19.8379 36.9847 20.8244 36.747 20.9795C37.225 21.117 40.2775 20.3072 40.4376 20.4131C40.7658 20.6314 39.7543 21.0905 39.6135 21.1876C39.0503 21.1902 37.3296 21.4311 36.8684 21.6052C36.7483 21.6506 36.6669 21.7969 36.5029 21.8436C36.5365 21.6607 36.6579 21.5837 36.3814 21.6052C36.4008 21.2381 36.3621 20.837 36.198 20.533C36.0688 20.2933 34.1234 18.6282 34.7034 18.3886C35.5469 18.8969 36.539 19.4759 36.6553 20.533C36.7276 20.3816 37.2947 19.5516 37.296 19.491C37.3012 19.1807 35.7252 17.4059 35.5276 16.8408C35.7549 16.8105 35.8841 17.363 36.0456 17.4362C36.1683 17.4917 36.4667 17.1435 36.6863 17.3176L36.685 17.3164Z" fill="#44873F"/>
<path d="M37.7223 19.3423C37.6642 19.3965 37.6255 19.4482 37.6009 19.5214C37.5531 19.5176 37.5389 19.5555 37.5092 19.5807C37.4278 19.3309 37.4859 19.1669 37.4175 18.8655C37.6823 18.6548 37.8799 18.0102 37.9665 17.6747C37.991 17.5776 38.0052 17.4716 38.0272 17.377C38.1396 16.9077 38.3282 15.1544 38.6369 14.8453C38.9276 14.5552 38.9702 15.4508 38.9418 15.6791C38.8927 16.0714 38.4922 16.4448 38.4535 16.5722C38.1822 17.4779 38.022 18.424 37.721 19.3423H37.7223Z" fill="#758F3A"/>
<path d="M38.0269 17.3757C38.0037 17.4703 37.9908 17.5763 37.9662 17.6734C37.6123 17.411 37.8151 17.1398 37.6614 16.8686C37.5076 16.5974 36.3515 15.8418 36.3799 15.6779C36.4574 15.2376 37.5206 16.1118 37.6614 16.3325C37.8978 16.7059 37.828 17.0326 38.0269 17.3745V17.3757Z" fill="#62AC45"/>
<path d="M36.6852 17.3166C36.4656 17.1437 36.1672 17.4919 36.0445 17.4351C35.883 17.362 35.7525 16.8095 35.5265 16.8397C35.4425 16.5975 35.2565 16.2065 35.6789 16.1851C35.768 16.2015 36.5767 17.1652 36.6852 17.3166Z" fill="#62AC45"/>
<path d="M39.705 16.6618C40.9413 16.5281 38.6251 17.6104 38.4546 17.7643C38.3797 17.3682 39.4002 16.6959 39.705 16.6618Z" fill="#62AC45"/>
<path d="M37.6011 19.5202C37.6269 19.447 37.6657 19.3966 37.7225 19.3411C37.7057 19.3915 37.9382 19.5454 37.6011 19.5202Z" fill="#75B563"/>
<path d="M48.2766 22.916C48.1474 23.9731 47.6178 25.3796 46.9952 26.2512C46.8221 26.4934 46.4216 26.9273 46.202 27.1443C46.1581 27.1884 46.0276 27.2301 46.0186 27.3234C45.9992 27.3234 45.9759 27.3196 45.9579 27.3234C45.9501 27.0219 46.1439 26.694 45.8971 26.4896C46.162 26.0405 45.861 25.5322 45.8364 25.0604C46.14 25.0554 47.2548 25.4893 47.331 25.478C47.9072 25.3859 46.1038 24.8334 46.0806 24.793L48.2766 22.916Z" fill="#44873F"/>
<path d="M47.7879 22.7368C47.8047 22.8062 47.9107 22.9021 47.8797 22.9752C47.7544 23.2691 46.2443 24.3615 45.8968 24.6428C45.9717 24.4347 45.7211 23.2338 45.7753 23.1834C45.951 23.0206 46.8385 23.1707 46.9341 22.8554C47.2118 22.8112 47.5102 22.7721 47.7879 22.7368Z" fill="#44873F"/>
<path d="M48.2762 22.9161L46.0801 24.7931C46.1034 24.8335 47.9067 25.386 47.3306 25.478C47.2544 25.4907 46.1396 25.0555 45.836 25.0605C45.7779 25.0605 45.7017 25.0492 45.6526 25.0605C45.38 24.8473 45.7443 24.7679 45.8967 24.643C46.2442 24.3604 47.7543 23.2693 47.8796 22.9754C47.9106 22.9022 47.806 22.8064 47.7879 22.737C47.9403 22.7181 48.1108 22.7004 48.2452 22.6184C48.3563 22.6878 48.2891 22.8038 48.2762 22.9161Z" fill="#62AC45"/>
<path d="M45.8967 26.4896C46.1447 26.694 45.9497 27.0219 45.9574 27.3234C45.889 27.3373 45.026 28.0387 44.8594 28.1572C44.7586 28.2291 44.2523 28.4019 44.189 28.4549C44.2742 28.1925 44.4112 27.9453 44.4938 27.6804C44.6372 27.2238 44.7741 26.6688 44.7987 26.1907C44.9976 26.2638 45.7895 26.4001 45.8967 26.4884V26.4896Z" fill="#376C35"/>
<path d="M45.8361 25.0602C45.8607 25.5333 46.163 26.0403 45.8968 26.4894C45.7896 26.4011 44.9965 26.2649 44.7988 26.1917C44.8079 26.0088 44.8143 25.7754 44.7988 25.5963C45.0158 25.6064 45.5674 25.0804 45.6527 25.0602C45.7018 25.0489 45.778 25.0602 45.8361 25.0602Z" fill="#376C35"/>
<path d="M45.8967 24.6427C45.7443 24.7663 45.38 24.847 45.6526 25.0602C45.5673 25.0804 45.0157 25.6064 44.7987 25.5963C44.7522 25.0438 44.477 24.2882 44.189 23.8089C45.0467 23.2034 45.907 23.0179 46.934 22.8552C46.8384 23.1706 45.9497 23.0192 45.7753 23.1832C45.721 23.2336 45.9716 24.4345 45.8967 24.6427Z" fill="#44873F"/>
<path d="M45.0116 24.9417C45.1331 24.9076 45.2467 24.9795 45.3475 25.0313C44.7081 25.6367 44.6887 25.0325 45.0116 24.9417Z" fill="#376C35"/>
<path d="M29.426 34.3535C24.0612 38.4884 14.1958 38.9374 8.28849 35.7234C6.45674 34.7268 4.42218 33.1513 3.37842 31.3752C9.50019 34.2059 22.5743 34.5628 29.426 34.3535Z" fill="url(#paint0_linear_366_138186)"/>
<path d="M45.0419 35.0081C44.8818 35.1191 44.7125 35.2036 44.5536 35.3058C44.5007 35.1973 44.17 35.3361 44.0964 35.3651C40.1125 36.9684 36.0718 38.3736 31.8347 39.2364L27.6558 39.9516C22.2523 40.1648 16.4754 39.7069 11.4297 37.8072C12.2177 38.0494 13.1813 38.2765 13.9913 38.4619C14.8452 38.6587 15.7158 38.9261 16.5839 39.0573C24.6162 40.2695 33.5438 38.1718 39.9781 33.3985C42.3524 33.0126 48.3541 31.8584 49.6769 29.825C48.9909 31.9719 46.8634 33.7505 45.0406 35.0069L45.0419 35.0081Z" fill="url(#paint1_linear_366_138186)"/>
<path d="M3.37818 31.3753C4.42323 33.1526 6.4565 34.7268 8.28825 35.7234C14.1943 38.9375 24.061 38.4884 29.4257 34.3535C29.719 34.3446 30.0393 34.3055 30.3403 34.2942C31.3996 34.2526 32.4563 34.1933 33.5129 34.1151C33.1784 34.4935 32.5842 34.8177 32.1398 35.0687C28.0978 37.3506 23.862 38.6637 19.147 38.7621C17.4173 38.7987 15.6863 38.5527 13.9928 38.4644C13.1815 38.2777 12.2179 38.0507 11.4312 37.8098C11.0152 37.6823 10.9984 37.8186 10.9739 37.8098C10.1278 37.531 8.18491 36.4436 7.34396 35.963C4.59762 34.3913 2.33441 32.3667 1 29.4995C1.26223 29.4201 1.35007 29.9322 1.48829 30.0949C1.96496 30.66 2.70774 31.0649 3.37947 31.3753H3.37818Z" fill="#CCB193"/>
<path d="M17.8969 31.4347C18.2173 31.9783 19.0557 32.6217 19.6654 32.8046C20.1873 32.961 20.5916 32.903 21.129 32.9231C21.532 32.9383 23.5265 33.0278 23.6299 32.715C23.4387 32.4009 22.7243 32.6545 22.4104 32.387C22.8109 32.1562 23.1416 31.7046 23.387 31.5532C23.4929 31.4876 23.5937 31.4738 23.6919 31.4347C23.8598 31.504 24.1117 31.5255 24.3016 31.5532C25.4177 31.7172 26.5403 31.8648 27.6564 32.0301C27.7817 32.049 28.4082 32.3769 28.4805 32.387C30.0759 32.6305 32.9746 32.5397 34.4886 32.2685C35.2469 32.1322 35.9664 31.9708 36.7454 31.8509C36.9314 31.8219 37.2337 31.8635 37.4468 31.7916C37.647 31.7235 37.5812 31.5331 37.691 31.4939C37.7646 31.4675 38.7386 31.6163 38.9104 31.6125C41.0599 31.5797 43.6732 31.7815 45.6509 31.195C45.8525 31.1357 46.178 31.0234 46.3834 31.0764C42.1269 32.5964 36.4663 33.2397 31.9257 33.4592C30.9956 33.5046 29.7387 33.6472 28.8448 33.5778C27.8695 33.5034 26.632 33.0505 25.6115 32.9824C23.8172 32.8613 21.8575 33.1855 20 33.101C19.1022 33.0606 16.3377 32.8361 15.5472 32.6242C15.3444 32.5699 15.387 32.6254 15.3947 32.3858C17.2846 32.3101 17.1968 32.1461 15.4555 31.7311C15.5459 31.6453 15.914 31.113 15.9437 31.0159L17.8956 31.4334L17.8969 31.4347Z" fill="#F4E8E5"/>
<path d="M49.923 29.4087C49.7783 29.2636 49.7228 29.6862 49.6788 29.8262C48.3561 31.8596 42.3544 33.0151 39.9801 33.3998C37.8538 33.7454 35.6643 33.9561 33.5134 34.115C32.4568 34.1932 31.4001 34.2513 30.3408 34.2942L31.2864 33.9372L31.9271 33.4604C36.4678 33.2409 42.1284 32.5975 46.3848 31.0775C47.7231 30.5995 50.3493 29.7644 49.8623 27.9795C50.0328 28.3806 50.0341 28.976 49.923 29.4087Z" fill="#CBC4B9"/>
<path d="M49.8613 27.9795C50.3496 29.7632 47.7234 30.5982 46.3838 31.0776C46.1784 31.0246 45.8542 31.1369 45.6514 31.1961L47.0542 30.3031C47.1731 30.2589 47.2028 30.2299 47.2984 30.1845C49.6159 29.0656 47.7931 27.6225 46.2004 27.147C46.42 26.93 46.8204 26.4948 46.9935 26.2539C47.7983 26.4608 49.528 27.1987 49.86 27.9808L49.8613 27.9795Z" fill="#E4D1C8"/>
<path d="M4.47596 27.4434C4.59997 27.601 5.77162 28.2393 5.84912 28.2179C6.03385 28.1662 5.86333 28.0299 6.00155 27.9795C6.1049 29.1816 7.28171 30.3888 8.44174 30.7193C8.34227 31.0409 8.61613 31.133 8.86932 31.2554C7.28688 31.0498 3.39473 30.0848 3.74481 27.9795C3.92566 27.7133 4.31448 27.5745 4.47725 27.4434H4.47596Z" fill="#E2BFC5"/>
<path d="M12.4067 31.1963C12.5733 31.3123 12.7774 31.6441 13.0771 31.851L12.4364 32.0301C12.4558 32.1361 12.625 32.1815 12.7115 32.2092C12.3318 32.4476 12.1987 31.9973 11.9494 31.9115C11.1136 31.6252 9.78178 31.6529 8.9292 31.3161C8.97312 31.1736 9.0868 31.19 9.20435 31.1976C9.59964 31.2203 12.0527 31.499 11.0645 30.8406C11.5464 30.92 12.0062 30.9175 12.4067 31.1976V31.1963Z" fill="#F3DCE0"/>
<path d="M15.396 32.3871C14.5977 32.4187 13.4829 32.454 12.7117 32.208C12.6264 32.1803 12.4572 32.1361 12.4365 32.0289L13.0772 31.8498C13.2646 31.9784 13.4067 32.1664 13.5953 32.2068C14.1714 32.3304 14.8057 32.1828 15.2733 31.8498C15.3198 31.8157 15.4205 31.7653 15.4567 31.7312C17.198 32.1462 17.2859 32.3115 15.396 32.3859V32.3871Z" fill="#B29FA0"/>
<path d="M5.14653 26.0736C5.27313 26.0862 5.85314 26.751 5.93969 26.9074C5.8441 26.8733 5.62191 26.6046 5.54311 26.6097C5.47723 26.6147 4.56394 27.2341 4.44509 27.3249C4.3805 27.3741 4.50968 27.417 4.47609 27.4435C4.31333 27.5747 3.9245 27.7134 3.74365 27.9796C3.83537 27.4296 4.08339 27.4712 4.23195 27.1748C4.24228 27.1533 4.10664 26.9679 4.23195 26.698C4.3017 26.5491 4.99798 26.0584 5.14653 26.0723V26.0736Z" fill="#E4D1C8"/>
<path d="M11.0645 30.8393C12.0528 31.4977 9.59966 31.219 9.20437 31.1963C9.08811 31.19 8.97314 31.1723 8.92922 31.3148C8.84654 31.282 8.87238 31.2568 8.86851 31.2555C8.61532 31.1332 8.34275 31.0411 8.44092 30.7194C8.47322 30.7283 8.52747 30.7119 8.56235 30.7194C9.24441 30.8784 9.55315 30.9515 10.2701 30.6602C10.4807 30.7813 10.8165 30.7977 11.0632 30.8393H11.0645Z" fill="#795F64"/>
<path d="M44.5546 35.306C39.5463 38.5428 33.617 39.7172 27.6567 39.9518L31.8357 39.2366C36.0714 38.3738 40.1134 36.9673 44.0973 35.3653C44.1709 35.3363 44.5016 35.1963 44.5546 35.306Z" fill="#9C7457"/>
<path d="M39.9785 33.3999C33.5455 38.1732 24.6166 40.2721 16.5843 39.0587C15.7162 38.9275 14.8456 38.6588 13.9917 38.4633C15.6865 38.5516 17.4162 38.7976 19.1459 38.761C23.8622 38.6626 28.0967 37.3494 32.1387 35.0675C32.5818 34.8178 33.176 34.4936 33.5119 34.1139C35.6627 33.955 37.851 33.7443 39.9785 33.3987V33.3999Z" fill="url(#paint2_linear_366_138186)"/>
<path d="M47.0554 30.3033L45.6525 31.1963C43.6748 31.7816 41.0615 31.5811 38.912 31.6139C38.7389 31.6164 37.7649 31.4676 37.6925 31.4953C37.5827 31.5357 37.6486 31.7249 37.4484 31.793C37.2352 31.8662 36.933 31.8245 36.7469 31.8523C36.9472 31.3477 35.9641 31.4713 35.6489 31.4348C35.7445 31.2191 35.7445 30.8987 35.7096 30.6602C35.9073 30.4269 35.751 30.8495 35.9848 31.0172C36.5919 31.4562 39.802 31.4247 40.652 31.3742C41.9451 31.2985 43.224 31.074 44.4951 30.8381C45.2947 30.6905 46.3087 30.5846 47.0567 30.302L47.0554 30.3033Z" fill="#D5BAB7"/>
<path d="M33.2086 31.1371C33.2887 31.5647 33.6698 31.759 34.0018 31.9709C34.1529 32.068 34.2743 32.2232 34.4901 32.2686C32.9761 32.541 30.0773 32.6306 28.482 32.3871C28.4096 32.3758 27.7831 32.0478 27.6578 32.0302C27.6152 31.7464 27.9704 31.7199 28.1461 31.6126C28.2856 31.6908 28.4277 31.7867 28.5737 31.851C29.341 32.1891 29.6175 32.3796 30.5256 32.2686C31.05 32.3506 33.361 32.3871 32.2333 31.5534C32.5033 31.4133 32.9076 31.1245 33.2099 31.1358L33.2086 31.1371Z" fill="#A38B89"/>
<path d="M27.0468 30.9578C27.2832 31.2454 27.8374 31.4409 28.1448 31.6124C27.9704 31.7197 27.6139 31.7449 27.6565 32.03C26.5404 31.8647 25.4179 31.7171 24.3018 31.5532L27.0468 30.9578Z" fill="#E2BFC5"/>
<path d="M26.9252 30.6602C26.9885 30.7674 27.0363 30.9452 27.0467 30.9579L24.3016 31.5532C24.1117 31.5255 23.8598 31.5028 23.6919 31.4347C24.1621 31.2429 24.9695 31.1445 25.4914 31.0171C25.5443 31.0045 25.5159 30.8998 25.5224 30.8986C25.5456 30.8935 25.6554 30.9919 25.7975 30.9579C26.167 30.8696 26.5364 30.6967 26.9265 30.6602H26.9252Z" fill="#A38B89"/>
<path d="M21.1304 32.9233C21.6096 32.7518 21.9623 32.6458 22.4118 32.3872C22.7257 32.6546 23.4401 32.4011 23.6313 32.7152C23.5279 33.028 21.5321 32.9384 21.1304 32.9233Z" fill="#A4958E"/>
<path d="M17.6526 30.8986C17.6849 30.9945 17.8463 31.3502 17.8967 31.4347L15.9448 31.0172C15.9565 30.9793 15.9991 30.7687 16.0055 30.7195L17.6526 30.8986Z" fill="#E2BFC5"/>
<path d="M36.747 31.8511C35.9668 31.9709 35.2485 32.1311 34.4902 32.2686C34.2745 32.2232 34.1531 32.068 34.002 31.9709C34.4592 32.0718 35.0238 32.0352 35.4048 31.7325C35.6477 31.8372 36.3272 31.9268 36.3504 31.6139H35.5263C35.5405 31.5938 35.6438 31.4449 35.6477 31.4348C35.9629 31.4714 36.9459 31.3478 36.7457 31.8523L36.747 31.8511Z" fill="#917C7F"/>
<path d="M47.2997 30.1833C47.1628 29.6232 46.5001 29.656 46.0802 29.4088C46.5815 29.2107 47.2609 28.8954 47.1175 28.247C47.0698 28.0313 46.2417 27.3325 46.0195 27.3237C46.0286 27.2316 46.1578 27.1887 46.203 27.1445C47.7957 27.6213 49.6184 29.0644 47.301 30.182L47.2997 30.1833Z" fill="#B29FA0"/>
<path d="M46.0805 29.4089C46.5003 29.6562 47.1643 29.6234 47.2999 30.1834C47.2043 30.2289 47.1746 30.2579 47.0557 30.302C46.3078 30.5846 45.2938 30.6905 44.4941 30.8381C44.582 30.5694 44.8339 30.5518 44.9824 30.2717C44.9966 30.2453 44.8197 30.2579 44.861 30.1532C44.9023 30.0485 45.202 29.8933 45.1052 29.6473C45.3532 29.5893 45.5934 29.5527 45.8376 29.4682C45.8996 29.4468 46.0236 29.4316 46.0817 29.4089H46.0805Z" fill="#A38B89"/>
<path d="M5.9397 26.9074C5.95391 26.9326 5.93325 27.2126 6.12314 27.3842C6.10764 27.3956 6.01204 27.6882 6.00171 27.7412C5.96296 27.9291 5.99138 27.8547 6.00171 27.9796C5.86349 28.03 6.03271 28.1663 5.84928 28.218C5.77306 28.2394 4.60142 27.6012 4.47611 27.4435C4.5097 27.417 4.38181 27.3728 4.44511 27.3249C4.56395 27.2341 5.47725 26.6147 5.54313 26.6097C5.62193 26.6046 5.84411 26.8733 5.9397 26.9074Z" fill="#D5BAB7"/>
<path d="M46.0184 27.3237C46.2406 27.3325 47.0686 28.0313 47.1164 28.247C47.2598 28.8941 46.5803 29.2095 46.0791 29.4088C46.021 29.4315 45.897 29.4466 45.835 29.4681C45.8647 29.3331 45.4487 29.3747 45.286 29.3495C45.255 28.8336 45.317 28.5346 44.8584 28.1587C45.025 28.0401 45.888 27.3375 45.9564 27.3249C45.9745 27.3211 45.999 27.3249 46.0171 27.3249L46.0184 27.3237Z" fill="#917C7F"/>
<path d="M12.1622 30.1239C12.1544 30.2337 12.1518 30.3724 12.1622 30.4809C12.1841 30.7067 12.3017 30.9905 12.4063 31.1962C12.0059 30.9161 11.546 30.9186 11.0642 30.8392C10.8174 30.7988 10.4828 30.7824 10.271 30.66C10.5371 30.5516 11.0021 30.216 11.1856 30.0054L12.1622 30.1239Z" fill="#F4E8E5"/>
<path d="M45.1038 29.6472C45.2007 29.8932 44.901 30.0458 44.8597 30.153C44.8183 30.2603 44.9953 30.2464 44.9811 30.2716C44.8325 30.5517 44.5807 30.5693 44.4928 30.838C43.2217 31.0739 41.9428 31.2984 40.6497 31.3741L40.5283 31.1357C41.4416 30.9742 42.4802 30.5201 43.1519 29.8844C43.6131 29.9512 44.1608 29.8465 44.6155 29.7658C44.7718 29.738 44.9462 29.6838 45.1038 29.6472Z" fill="#795F64"/>
<path d="M40.5278 31.1369L40.6492 31.3753C39.7992 31.4258 36.5905 31.4573 35.982 31.0184C35.7495 30.8506 35.9058 30.428 35.7069 30.6614C35.6991 30.6046 35.7198 30.5302 35.7069 30.4823C35.8361 30.4785 36.46 30.2968 36.5 30.3031C36.5517 30.3107 37.1588 30.7636 37.3849 30.8392C38.5294 31.2227 39.311 31.3514 40.5265 31.1369H40.5278Z" fill="#A38B89"/>
<path d="M30.5244 32.2684C31.1496 32.1915 31.6831 31.8383 32.2322 31.5532C33.3599 32.3858 31.0489 32.3492 30.5244 32.2684Z" fill="#917C7F"/>
<path d="M35.4048 31.7323C35.4138 31.726 35.5223 31.6201 35.5262 31.6138H36.3504C36.3271 31.9266 35.6476 31.837 35.4048 31.7323Z" fill="#544442"/>
<path d="M44.8597 28.1587C45.317 28.5346 45.2563 28.8336 45.2873 29.3495C45.06 29.3129 44.8533 29.2612 44.6169 29.2309C44.3559 29.1968 44.0743 29.1918 43.8237 29.1123C43.9348 28.9887 43.9452 28.6633 44.1893 28.4576C44.2526 28.4047 44.7603 28.2319 44.8597 28.16V28.1587Z" fill="#795F64"/>
<path d="M44.6155 29.2309C44.5341 29.4227 44.4695 29.627 44.6155 29.767C44.1595 29.849 43.613 29.9524 43.1519 29.8856C43.3689 29.68 43.613 29.3457 43.8223 29.1111C44.0729 29.1906 44.3545 29.1956 44.6155 29.2297V29.2309Z" fill="#544442"/>
<path d="M45.287 29.3496C45.4497 29.3761 45.8657 29.3332 45.836 29.4681C45.5931 29.5527 45.3528 29.5892 45.1035 29.6473C44.9459 29.6838 44.7715 29.7381 44.6152 29.7658C44.4693 29.6258 44.5339 29.4215 44.6152 29.2297C44.8529 29.2613 45.0583 29.3117 45.2857 29.3483L45.287 29.3496Z" fill="#544442"/>
<path d="M11.3083 26.4898C11.3161 26.4924 11.4207 26.6046 11.4298 26.6084C11.8225 27.8673 11.214 29.9613 9.81375 30.4204C9.39004 30.5592 8.8152 30.4053 8.5633 30.7181C8.52842 30.7105 8.47417 30.7269 8.44187 30.7181C7.28185 30.3876 6.10503 29.1792 6.00169 27.9783C5.99136 27.8534 5.96294 27.9279 6.00169 27.7399C6.24584 28.6469 6.66179 29.4239 7.46528 29.9739L7.64872 29.9146C6.9602 29.4378 6.5029 28.7806 6.30655 27.9783L6.91628 28.1574C6.9589 28.4185 7.0855 28.2684 7.09971 28.276C7.15009 28.6305 8.66148 29.8376 8.89917 29.8843C10.8859 30.2779 11.8729 27.8017 10.7593 26.4886C10.8924 26.4823 11.2037 26.4634 11.3083 26.4886V26.4898Z" fill="#F1564A"/>
<path d="M7.09818 27.2051C7.02971 27.5444 6.85403 27.7815 6.91474 28.1587L6.30502 27.9796C6.25593 27.7752 6.25723 27.5785 6.18359 27.3842C6.21589 27.3653 6.37478 27.3413 6.42774 27.3249C6.58146 27.277 6.90829 27.2442 7.09818 27.2063V27.2051Z" fill="#F26C62"/>
<path d="M6.30535 27.9795C6.50041 28.7818 6.95899 29.439 7.64751 29.9158L7.46408 29.9751C6.6593 29.4251 6.24464 28.6481 6.00049 27.7411C6.01211 27.6881 6.10771 27.3955 6.12192 27.3841C6.13354 27.3753 6.16713 27.393 6.18263 27.3841C6.25626 27.5784 6.25497 27.7764 6.30406 27.9795H6.30535Z" fill="#F68F7D"/>
<path d="M11.7955 26.9666C12.2412 27.8395 11.8162 29.2813 11.1858 30.0041C11.0011 30.2148 10.5373 30.5503 10.2712 30.6588C9.55428 30.9515 9.24554 30.877 8.56348 30.7181C8.81537 30.4053 9.39022 30.5592 9.81392 30.4204C11.2155 29.9612 11.8239 27.8673 11.4299 26.6084C11.6379 26.7131 11.6896 26.756 11.7955 26.9654V26.9666Z" fill="#C22126"/>
<path d="M10.7592 26.4897C11.8728 27.8029 10.8845 30.279 8.89907 29.8855C8.66138 29.8388 7.14999 28.6316 7.09961 28.2772C7.59953 28.585 8.16792 28.7616 8.62521 29.1703C8.63683 29.2409 8.63942 29.2914 8.68592 29.3494C8.99983 29.7354 8.91198 29.0857 9.0825 29.111C9.07604 29.7404 9.23622 29.1312 9.35765 29.3191C9.38478 29.9561 9.52042 29.526 9.81494 29.3494C9.89374 29.3014 10.0462 29.4112 10.0901 29.3797C10.1482 29.3368 10.3472 28.2835 10.0294 28.2482C10.4053 28.4601 10.5035 27.9088 10.7618 27.6528C10.612 27.3311 10.6391 27.7272 10.2735 27.5039C10.218 27.4699 10.0888 27.2516 9.96867 27.2062C9.99708 27.1078 10.1792 26.819 10.1211 26.7887C9.72839 26.8417 9.3964 26.906 8.99208 26.9073C9.10059 26.8165 9.33827 26.8202 9.48037 26.7887C9.70256 26.7395 9.92474 26.6499 10.1508 26.6096C10.3446 26.5755 10.5655 26.4998 10.7605 26.491L10.7592 26.4897Z" fill="#C22126"/>
<path d="M7.28165 27.205L7.64723 27.4132L7.15894 27.6516C7.13697 27.7903 7.51547 28.0224 7.58652 28.0086L7.4948 28.2772C8.30217 27.726 8.84988 27.2277 9.90398 27.2643C9.87685 27.3375 9.93369 27.5368 9.90398 27.5923C9.75155 27.8824 8.68066 28.3706 8.62253 28.6052C8.5644 28.8398 8.74654 28.8285 8.74396 28.8436C8.73879 28.884 8.61865 29.1539 8.62253 29.1716C8.16524 28.7629 7.59685 28.585 7.09693 28.2785C7.08401 28.2709 6.95613 28.421 6.9135 28.1599C6.85278 27.7828 7.02717 27.5456 7.09693 27.2063C7.15377 27.1949 7.22223 27.2164 7.28036 27.2063L7.28165 27.205Z" fill="#F26C62"/>
<path d="M9.96634 27.2051C9.96634 27.2051 9.93663 27.1824 9.90563 27.2644C8.85153 27.2278 8.30382 27.7261 7.49645 28.2773L7.58817 28.0086C7.51712 28.0212 7.13863 27.7904 7.16059 27.6516L7.64888 27.4132L7.28331 27.2051C7.63209 27.1458 7.96278 27.0638 8.32061 27.026C8.39941 27.0171 8.54796 27.0689 8.56476 26.9667C8.58543 26.9667 8.6048 26.9667 8.62547 26.9667C8.7146 26.9642 8.89933 27.0096 8.93033 26.9074C8.951 26.9074 8.97038 26.9074 8.99105 26.9074C9.39537 26.9049 9.72607 26.8418 10.1201 26.7888C10.1782 26.8191 9.99605 27.1067 9.96764 27.2063L9.96634 27.2051Z" fill="#F58E8C"/>
<path d="M8.92888 26.9074C8.89788 27.0096 8.71316 26.9642 8.62402 26.9667C8.65503 26.8658 8.84104 26.9087 8.92888 26.9074Z" fill="#C56841"/>
<path d="M8.56348 26.9667C8.54669 27.0701 8.39943 27.0184 8.31934 27.026C8.33355 26.9289 8.48598 26.968 8.56348 26.9667Z" fill="#C56841"/>
<path d="M8.68489 29.3494C8.76756 28.6657 9.06338 29.0265 9.38632 28.8726C10.0141 28.5736 9.96892 28.0539 10.2712 27.5027C10.6368 27.726 10.6096 27.3299 10.7595 27.6515C10.5011 27.9089 10.4043 28.4588 10.0271 28.2469C10.3448 28.2822 10.1459 29.3355 10.0878 29.3784C10.0451 29.4112 9.8927 29.3015 9.81261 29.3481C9.51809 29.526 9.38245 29.9561 9.35532 29.3179C9.23389 29.1287 9.07371 29.7392 9.08017 29.1097C8.90966 29.0832 8.99879 29.7341 8.68359 29.3481L8.68489 29.3494Z" fill="#F1564A"/>
<path d="M10.2709 27.5028C9.96996 28.054 10.0139 28.5737 9.38607 28.8727C9.06312 29.0266 8.7673 28.6658 8.68463 29.3495C8.63813 29.2915 8.63554 29.241 8.62392 29.1704C8.62133 29.1527 8.74147 28.8828 8.74534 28.8424C8.74664 28.8273 8.56708 28.8336 8.62392 28.604C8.68075 28.3744 9.75294 27.8825 9.90537 27.5911C9.93508 27.5356 9.87824 27.3363 9.90537 27.2631C9.93637 27.1811 9.96479 27.2076 9.96608 27.2038C10.0862 27.2493 10.2154 27.4675 10.2709 27.5015V27.5028Z" fill="#F1564A"/>
<path d="M33.1467 25.6562C33.2203 25.7268 33.2591 25.8845 33.2681 25.8946C32.6933 26.0371 33.1195 26.2907 33.0847 26.5203C33.0498 26.7498 32.6648 27.8119 32.5047 27.9204C32.4052 27.9885 32.183 27.9696 32.1688 27.9797C32.1933 27.7451 32.1352 26.7524 32.1688 26.6388C32.2644 26.3197 33.48 26.2629 32.0474 25.3585L32.3522 25.0608C32.5266 25.1567 33.002 25.5174 33.1454 25.6562H33.1467Z" fill="#599341"/>
<path d="M31.5617 24.7037C31.5617 24.7037 31.5397 24.7289 31.6224 24.763C31.8769 24.8664 32.0978 24.9194 32.3549 25.0607L32.05 25.3584C31.9131 25.2726 31.7141 25.1831 31.5617 25.12C31.4183 25.0607 31.2555 25.067 31.1341 24.9409C31.147 24.8664 31.1264 24.7794 31.1341 24.7025C31.2233 24.7365 31.4726 24.6684 31.5617 24.7025V24.7037Z" fill="#62AC45"/>
<path d="M33.2692 25.8945C33.5405 26.1935 34.1463 26.8734 34.3065 27.2051C34.3905 27.3805 34.5817 27.9178 34.6114 28.0982C34.6437 28.2963 34.6941 28.623 34.6721 28.8135C34.645 29.0468 34.3905 29.3899 34.3672 29.6473C33.8182 29.7128 33.277 30.1846 33.2085 30.7195C33.1956 30.8166 33.1917 31.0462 33.2085 31.137C32.9075 31.1244 32.5032 31.4132 32.2319 31.5545C31.6829 31.8396 31.1494 32.1928 30.5242 32.2697C29.616 32.3807 29.3396 32.1915 28.5723 31.8522L28.084 31.4057C28.4224 31.3199 28.6356 31.494 28.9379 31.2871C28.6227 30.886 29.2195 30.4104 29.4869 30.0068C29.5502 29.9109 29.607 29.7986 29.6703 29.7091C30.0152 29.844 30.6546 29.2133 30.7076 28.8753C30.8768 28.7781 31.1843 28.6987 31.3173 28.5776C31.6596 29.0203 31.9258 28.1727 32.1712 27.9822C32.1841 27.9721 32.4076 27.9897 32.5071 27.9229C32.6659 27.8144 33.0509 26.7636 33.0871 26.5227C33.1232 26.2818 32.6957 26.0396 33.2705 25.8971L33.2692 25.8945Z" fill="#376C35"/>
<path d="M29.4871 30.0054C29.2197 30.409 28.6229 30.8846 28.9381 31.2857C28.6358 31.4938 28.4226 31.3198 28.0842 31.4043L28.5725 31.8508C28.4278 31.7865 28.2857 31.6906 28.1449 31.6124C27.8375 31.4409 27.2833 31.2441 27.0469 30.9577C27.0366 30.9451 26.9875 30.7673 26.9255 30.66C26.9035 30.6235 26.8841 30.5793 26.8647 30.5415C27.0688 30.2513 27.645 30.3762 27.6889 30.3624C27.778 30.3346 27.8568 30.1277 27.8723 30.1239C28.4278 29.9953 28.9355 30.0407 29.4884 30.0054H29.4871Z" fill="#62AC45"/>
<path d="M32.0484 25.3583C33.4822 26.264 32.2654 26.3195 32.1698 26.6386C32.1362 26.7509 32.1943 27.7436 32.1698 27.9795C31.9243 28.17 31.6582 29.0177 31.3159 28.5749C31.6957 28.228 31.719 27.5897 31.7435 27.1154C31.7461 27.07 31.8649 27.1016 31.8649 27.0561C31.8688 26.8417 31.5665 26.6929 31.5601 26.52C31.5523 26.3081 31.781 26.3132 31.7435 25.9247C31.7254 25.7342 31.4361 25.4226 31.5601 25.1199C31.7125 25.1829 31.9114 25.2712 32.0484 25.3583Z" fill="#599341"/>
<path d="M31.5614 25.12C31.4373 25.4215 31.7254 25.7331 31.7448 25.9248C31.7835 26.3146 31.5549 26.3083 31.5614 26.5202C31.5678 26.693 31.8714 26.8419 31.8662 27.0563C31.8662 27.1017 31.7461 27.0702 31.7448 27.1156C31.7215 27.5899 31.697 28.2282 31.3172 28.5751C31.1841 28.6962 30.8767 28.7769 30.7075 28.8728C30.5486 28.9636 29.9776 29.1465 29.9453 29.1705C29.749 29.3117 29.8032 29.5173 29.6702 29.7066C29.6069 29.7961 29.55 29.9084 29.4867 30.0042C28.9326 30.0396 28.4262 29.9954 27.8707 30.1228C27.8565 30.1266 27.7777 30.3335 27.6873 30.3612C27.6447 30.3738 27.0672 30.2502 26.8631 30.5404C26.7094 30.2401 26.5001 29.6738 26.4355 29.3496C26.7004 29.337 27.075 29.617 27.3204 29.6473C27.7829 29.704 29.6069 29.5173 29.8523 29.1414C29.9208 29.0355 29.9182 28.8475 29.9737 28.6949C30.1326 28.6217 30.3574 28.57 30.4918 28.4565C30.6377 28.3341 30.5628 28.2118 30.5835 28.1878C30.6106 28.1575 30.8896 28.1058 30.949 27.9494C31.0111 27.7842 31.0072 27.0361 31.0705 26.7586C31.0821 26.7107 31.3766 26.5202 31.3753 26.2818C31.374 26.0434 30.9581 25.6927 30.9478 25.5666C30.9452 25.5338 31.1092 25.0708 31.1312 24.9409C31.2513 25.0671 31.4154 25.0608 31.5588 25.12H31.5614Z" fill="#84AC47"/>
<path d="M31.1341 24.7036C31.1263 24.7806 31.147 24.8676 31.1341 24.942C31.1121 25.072 30.948 25.5349 30.9506 25.5677C30.961 25.6938 31.3769 26.0483 31.3782 26.2829C31.3795 26.5175 31.0837 26.7118 31.0733 26.7597C31.0088 27.0385 31.0139 27.7865 30.9519 27.9505C30.8899 28.1145 30.6135 28.1574 30.5863 28.1889C30.5657 28.2116 30.6406 28.3352 30.4946 28.4576C30.359 28.5711 30.1355 28.6228 29.9766 28.696C29.9831 28.6771 29.8707 28.5509 29.9159 28.4273C29.9663 28.2911 30.2724 28.0363 30.2815 28.0098C30.5308 27.3715 29.6123 26.4633 29.6718 25.7758C29.7467 25.598 29.8035 25.376 29.7932 25.1804C29.8474 25.1552 30.0632 24.9874 30.0373 24.9118C29.2261 24.6014 29.8061 24.7717 30.098 24.5838C30.1342 24.5598 30.3551 24.2218 30.4636 24.1663C30.4688 24.1688 30.4856 24.0515 30.5553 24.107C30.7814 24.2874 30.8602 24.5977 31.1353 24.7024L31.1341 24.7036Z" fill="#99CB48"/>
<path d="M29.9144 24.4653L30.0979 24.5839C29.8059 24.7719 29.2259 24.6016 30.0372 24.9119C30.063 24.9863 29.8473 25.1541 29.793 25.1806C29.6354 25.255 29.0774 25.3067 28.8474 25.419C27.566 26.0434 26.8038 27.0575 26.8645 28.4867C26.9265 28.6633 28.0284 28.9144 28.2377 28.9333C28.5477 28.961 28.5258 28.8147 28.5426 28.8147C28.5865 28.8147 28.5594 28.9371 28.6033 28.9333C28.8642 28.9106 29.6561 28.6759 29.7323 28.4274C29.771 28.3026 29.3112 26.6766 29.4274 26.1039C29.4391 26.0446 29.6638 25.7949 29.6716 25.7759C29.6122 26.4634 30.5306 27.3716 30.2813 28.0099C30.271 28.0351 29.9661 28.29 29.9157 28.4274C29.8705 28.5511 29.9829 28.6772 29.9764 28.6961C29.9209 28.8488 29.9235 29.0367 29.855 29.1427C29.6096 29.5186 27.7856 29.7065 27.3231 29.6485C27.0777 29.6182 26.7044 29.3382 26.4382 29.3508C26.1967 28.1298 26.3569 27.436 27.1087 26.4319C27.1487 26.3789 27.1875 26.3032 27.2301 26.2528C27.8308 25.5565 28.7247 25.1856 29.4869 24.7037C29.585 24.6419 29.6432 24.5423 29.6703 24.5246C29.691 24.5107 29.8964 24.4779 29.9144 24.4653Z" fill="#99CB48"/>
<path d="M30.7077 28.8728C30.6548 29.2109 30.0153 29.8416 29.6704 29.7066C29.8035 29.5174 29.7479 29.3118 29.9456 29.1705C29.9791 29.1465 30.5488 28.9636 30.7077 28.8728Z" fill="#62AC45"/>
<path d="M30.4636 24.1676C30.3538 24.2231 30.1342 24.5612 30.098 24.5851L29.9146 24.4666C29.9998 24.4048 30.2956 24.0036 30.3718 23.9897C30.5592 23.9923 30.3085 24.0907 30.4636 24.1689V24.1676Z" fill="#F9FBEE"/>
<path d="M29.7917 25.1792C29.8021 25.3747 29.7452 25.598 29.6703 25.7746C29.6625 25.7935 29.4378 26.0433 29.4261 26.1026C29.3099 26.6752 29.7698 28.3012 29.731 28.4261C29.6548 28.6746 28.8629 28.9092 28.602 28.9319C28.5581 28.9357 28.5852 28.8121 28.5413 28.8133C28.5245 28.8133 28.5464 28.9597 28.2364 28.9319C28.0271 28.913 26.9265 28.6607 26.8632 28.4854C26.8025 27.0562 27.5647 26.042 28.8461 25.4176C29.0761 25.3053 29.6341 25.2536 29.7917 25.1792Z" fill="#C9DE79"/>
<path d="M35.4654 30.0646C35.4899 30.0949 35.7031 30.4582 35.7095 30.4821C35.7224 30.5301 35.7018 30.6045 35.7095 30.6613C35.7431 30.8997 35.7444 31.2201 35.6488 31.4358C35.6449 31.4459 35.5416 31.5947 35.5274 31.6149C35.5222 31.6212 35.4137 31.7272 35.406 31.7335C35.0249 32.035 34.4604 32.0728 34.0031 31.9719C33.6724 31.7587 33.29 31.5644 33.2099 31.1381C33.1931 31.0485 33.197 30.8177 33.2099 30.7206C33.5225 30.578 33.5471 31.152 33.8506 31.3159C34.7523 31.8041 35.8787 30.8278 35.2845 29.946C35.3181 29.9738 35.4499 30.0432 35.468 30.0646H35.4654Z" fill="#253C55"/>
<path d="M34.3675 29.6472C34.4631 29.6358 34.6388 29.6346 34.7331 29.6472C35.0354 29.6863 35.0742 29.7721 35.2821 29.9449C35.8763 30.8266 34.7499 31.8029 33.8482 31.3148C33.5447 31.1508 33.5214 30.5768 33.2075 30.7194C33.276 30.1845 33.8185 29.7128 34.3662 29.6472H34.3675Z" fill="#253C55"/>
<path d="M33.9102 30.0055C34.6207 29.8466 34.6491 30.7245 34.1544 30.8393C33.4206 31.0109 33.4335 30.1127 33.9102 30.0055Z" fill="#8D9FAA"/>
<path d="M23.2639 31.0171C23.3039 31.2416 23.4835 31.3438 23.3853 31.5532C23.1399 31.7046 22.8092 32.1562 22.4087 32.387C21.9605 32.6456 21.6078 32.7515 21.1273 32.9231C20.5886 32.9029 20.1856 32.9597 19.6637 32.8045C20.068 32.6847 19.5474 32.58 19.6327 32.5661C19.8083 32.5384 19.9802 32.6304 19.9982 32.6254C20.0745 32.6077 20.0925 32.4513 20.1197 32.4463C21.1673 32.2608 21.4282 32.3782 22.3467 31.6718C22.596 31.48 22.8725 31.2378 23.0171 30.9565C23.0636 30.9767 23.1799 30.9364 23.2613 31.0158L23.2639 31.0171Z" fill="#C22126"/>
<path d="M19.2996 28.8727C19.0335 29.0241 19.4392 29.1414 19.4831 29.2007C19.5657 29.3155 19.5167 29.5287 19.5748 29.5879C19.6536 29.6699 20.0825 29.6371 20.2452 29.7065C20.687 29.897 21.1456 30.4672 21.4957 30.1241C21.5745 30.1669 21.6636 30.1972 21.7398 30.2426C21.816 30.288 21.9917 30.3044 21.8923 30.4217C21.4853 30.2388 21.2154 30.4583 21.4647 30.8393C20.9273 30.143 20.8278 30.6551 20.4274 30.7207C20.0269 30.7863 19.8693 30.6892 19.4818 30.8393C19.3591 30.8872 19.3048 31.0525 19.1769 31.0474C19.6846 30.4634 19.0167 30.9339 19.1162 30.5706C19.1278 30.5302 19.9042 30.0433 19.0245 30.4217L19.2996 30.1531C19.0632 29.9815 18.9883 30.1796 18.9031 30.1833C18.7933 30.1871 18.9224 29.9096 18.6899 29.9147C19.288 29.7242 18.6137 29.8516 18.5685 29.7961C18.7752 29.516 18.5633 29.3722 18.5685 29.3193C18.5711 29.2928 18.6886 29.2259 18.6899 29.2007C18.6925 29.1704 18.5155 29.1767 18.5685 29.0821C18.6124 29.0026 19.0632 28.9471 19.0568 28.7542C19.1382 28.7907 19.2196 28.8349 19.3009 28.8727H19.2996Z" fill="#F26C62"/>
<path d="M19.483 31.2555C19.6574 31.3388 19.6535 31.6516 20.0927 31.3148C20.0579 31.4649 20.4092 31.3627 20.4583 31.5532C20.4389 31.5658 20.1405 31.8459 20.1832 31.9102C20.6883 31.9606 21.8367 31.5128 22.1958 31.195C22.3753 31.036 22.4722 30.6715 22.5006 30.6589C22.5962 30.6147 22.9308 30.9175 23.0186 30.9566C22.874 31.2379 22.5962 31.48 22.3482 31.6718C22.0421 31.6718 21.5576 32.0868 21.3419 32.1486C20.9595 32.2571 20.4286 32.1108 20.1225 32.3277L19.97 32.2382C20.271 31.668 19.9339 31.9392 19.6342 31.7916C18.9754 31.4674 18.4728 30.8872 18.5361 30.124C19.0374 30.3195 18.788 30.7888 18.9934 31.0474C19.1304 31.2202 19.3836 31.2088 19.4817 31.2555H19.483Z" fill="#E63032"/>
<path d="M21.8613 30.1833C21.8703 30.1833 21.9711 30.2388 22.0447 30.1833C22.0499 30.5352 22.241 30.4368 22.2281 30.6298C22.2281 30.6462 22.0305 30.9048 22.015 30.8985C21.9478 30.8695 22.0382 30.6046 21.8626 30.8089C21.9465 31.3173 20.7994 31.3413 20.4597 31.5532C20.4093 31.364 20.0592 31.4649 20.0941 31.3148C20.0967 31.3009 20.3098 31.3501 20.1858 31.1357C20.0902 31.1697 20.1018 31.3085 20.0941 31.3148C19.6549 31.6516 19.6588 31.3375 19.4844 31.2555C19.5076 31.0764 19.7556 30.9591 19.4844 30.838C19.8719 30.6866 20.0489 30.7812 20.43 30.7194C20.8304 30.6538 20.9286 30.1429 21.4673 30.838C21.2179 30.457 21.4879 30.2375 21.8948 30.4204C21.9943 30.3031 21.816 30.2867 21.7424 30.2413C21.7411 30.1606 21.8044 30.182 21.8638 30.182L21.8613 30.1833Z" fill="#F1564A"/>
<path d="M18.2014 28.3972L17.8358 29.202L17.6523 29.0532C17.7776 28.729 17.7725 28.4199 18.2014 28.3985V28.3972Z" fill="#F68F7D"/>
<path d="M18.5064 28.4565C18.5994 28.4843 18.9107 28.6899 19.0554 28.7542C19.0631 28.9459 18.611 29.0014 18.5671 29.0822C18.5141 29.178 18.6924 29.1705 18.6885 29.2007C18.6859 29.226 18.5697 29.2941 18.5671 29.3193C18.5619 29.3723 18.7738 29.5161 18.5671 29.7961C18.6123 29.8529 19.2866 29.7255 18.6885 29.9147C18.921 29.9097 18.7919 30.1859 18.9017 30.1834C18.9869 30.1809 19.0618 29.9828 19.2982 30.1531L19.0231 30.4218C19.9028 30.0434 19.1251 30.5303 19.1148 30.5706C19.0153 30.9339 19.6832 30.4634 19.1755 31.0475C19.3034 31.0525 19.3577 30.8873 19.4804 30.8393C19.7517 30.9604 19.5036 31.0765 19.4804 31.2568C19.3822 31.2102 19.1303 31.2215 18.9921 31.0487C18.7867 30.7901 19.036 30.3209 18.5348 30.1254C18.4715 30.8885 18.974 31.4688 19.6328 31.793C19.9325 31.9405 20.2697 31.6693 19.9687 32.2395L20.1211 32.3291C20.4273 32.1121 20.9595 32.2597 21.3405 32.1499C21.5563 32.0881 22.0407 31.6731 22.3468 31.6731C21.4284 32.3795 21.1674 32.2622 20.1198 32.4476C20.0927 32.4527 20.0733 32.6078 19.9984 32.6267C19.9803 32.6305 19.8085 32.5384 19.6328 32.5675C19.5475 32.5813 20.0681 32.686 19.6638 32.8059C19.0528 32.623 18.2157 31.9796 17.8954 31.436C17.845 31.3502 17.6835 30.9957 17.6512 30.8999C17.5504 30.5971 17.4691 30.2073 17.4678 29.8869C17.4678 29.641 17.5194 29.3458 17.5892 29.1124C17.6137 29.0304 17.6486 29.0569 17.6499 29.0532L17.8333 29.202L18.1989 28.3972C18.3048 28.3922 18.4056 28.4275 18.5038 28.4565H18.5064Z" fill="#F1564A"/>
<path d="M17.6824 29.4089L17.8038 30.6603C17.6062 30.2781 17.6243 29.829 17.6824 29.4089Z" fill="#F68F7D"/>
<path d="M19.6042 28.9926C19.67 29.0267 19.8961 29.2222 20.0317 29.2903C20.033 29.5035 20.365 29.4871 20.4593 29.5287C20.4852 29.5401 20.5588 29.5174 20.5808 29.5287C20.6324 29.5565 20.8443 29.7634 21.069 29.8857C21.2111 29.9627 21.3532 30.0472 21.4966 30.1241C21.1466 30.4672 20.6867 29.8971 20.2462 29.7066C20.0834 29.636 19.6545 29.6688 19.5757 29.588C19.5176 29.5287 19.5667 29.3156 19.484 29.2008C19.4414 29.1415 19.0345 29.0254 19.3006 28.8728C19.3975 28.9195 19.537 28.9573 19.6055 28.9914L19.6042 28.9926Z" fill="#F68F7D"/>
<path d="M20.0928 31.3149C20.1005 31.3086 20.0889 31.1698 20.1845 31.1357C20.3085 31.3502 20.0966 31.301 20.0928 31.3149Z" fill="#E63032"/>
<path d="M20.4583 29.5287C20.364 29.4871 20.0333 29.5035 20.0308 29.2903C20.1522 29.3508 20.395 29.3622 20.4583 29.5287Z" fill="#F89F64"/>
<path d="M15.9449 29.767C16.0146 30.0167 16.0404 30.4671 16.0056 30.7206C15.9991 30.7711 15.9565 30.9805 15.9449 31.0183C15.9151 31.1142 15.547 31.6477 15.4566 31.7335C15.4204 31.7676 15.3209 31.8193 15.2731 31.8521L14.9683 31.7032C15.6917 31.2517 15.8932 30.3901 15.8221 29.5891C15.8312 29.608 15.9242 29.6951 15.9436 29.7682L15.9449 29.767Z" fill="#141E30"/>
<path d="M15.4567 29.0518C15.6117 29.1906 15.7383 29.4 15.8222 29.588C15.8933 30.3902 15.6918 31.2505 14.9684 31.7021L15.2732 31.8509C14.8069 32.1852 14.1713 32.3315 13.5952 32.2079C13.4066 32.1675 13.2632 31.9796 13.0772 31.8509C12.7775 31.6441 12.5734 31.3123 12.4067 31.1963C12.3021 30.9906 12.1846 30.7081 12.1626 30.481L12.284 30.3915C13.3859 31.9834 15.9217 30.3019 14.7849 28.6936C15.0162 28.7718 15.2758 28.8891 15.4554 29.0506L15.4567 29.0518Z" fill="#253C55"/>
<path d="M14.7849 28.695C15.9217 30.3033 13.3859 31.9848 12.284 30.3929L12.1626 30.4824C12.1522 30.3739 12.1548 30.2352 12.1626 30.1254C12.1677 30.0573 12.2052 29.9022 12.2233 29.8277C12.2659 29.8202 12.4584 29.7773 12.4674 29.7685C12.4171 29.8921 12.5256 29.9387 12.5282 29.9476C12.7581 30.6716 13.621 30.3979 13.931 29.8883C14.006 29.7647 14.4374 28.8451 14.4193 28.7858L13.9917 28.5171C14.192 28.5146 14.5795 28.6256 14.7849 28.6963V28.695Z" fill="#41608B"/>
<path d="M12.4673 29.767C12.4582 29.7759 12.2658 29.8187 12.2231 29.8263C12.3174 29.4504 12.4092 29.3697 12.6507 29.1111C12.8432 29.1906 12.5551 29.6762 12.4673 29.7658V29.767Z" fill="#8D9FAA"/>
<path d="M13.9312 29.8855C13.6212 30.3964 12.7583 30.6688 12.5283 29.9448L13.9312 29.8855Z" fill="#8C98AE"/>
<path d="M13.9917 28.5156L14.4193 28.7843C14.4374 28.8436 14.0072 29.7619 13.931 29.8868L12.5281 29.9461C12.5256 29.9372 12.4157 29.8906 12.4674 29.767C12.5553 29.6774 12.842 29.1905 12.6509 29.1123C13.0242 28.7137 13.4027 28.5245 13.993 28.5169L13.9917 28.5156Z" fill="#A9B0BA"/>
<path d="M13.5963 28.754C13.8172 28.7237 14.3494 28.7162 14.2371 29.082C14.1957 29.2157 13.307 29.1551 13.17 29.1122C12.8794 29.0214 13.555 28.7603 13.5976 28.7553L13.5963 28.754Z" fill="#141E30"/>
<path d="M7.09855 26.7281C6.84149 26.9186 6.70585 27.1469 6.27439 27.0258L6.42683 27.3235C6.37386 27.3399 6.21497 27.3651 6.18268 27.3828C6.16718 27.3916 6.13359 27.374 6.12196 27.3828C5.93207 27.2112 5.95274 26.9312 5.93853 26.906C5.85198 26.7496 5.27197 26.0848 5.14537 26.0722C5.14925 26.0343 5.13633 25.9839 5.14537 25.9536C5.16604 25.8817 5.27714 25.777 5.32881 25.7152C6.09225 25.415 7.85166 24.1649 8.59186 24.1069C9.0569 24.0703 9.62399 24.5711 10.1175 24.5244L8.59186 25.4781C8.04931 25.8186 7.59072 26.3623 7.09726 26.7294L7.09855 26.7281Z" fill="#62AC45"/>
<path d="M5.3302 25.7153C5.27853 25.7771 5.16744 25.8818 5.14677 25.9537C4.98917 25.8705 4.891 25.7254 4.78119 25.5967C5.05893 25.463 4.55771 25.0909 4.47633 24.9118C4.4182 24.7844 4.19214 24.213 4.26319 24.107C4.61714 23.8509 5.0008 23.919 5.30049 23.8686C6.32488 23.6945 7.45519 23.4208 8.3814 23.9582C8.17988 24.054 7.74197 24.131 7.55724 24.2268C6.91006 24.5586 5.81075 25.1376 5.3302 25.7166V25.7153Z" fill="#99CB48"/>
<path d="M10.6366 20.8309C10.6534 21.0416 10.4609 21.1336 10.4532 21.2182C10.3924 21.946 11.1455 22.2285 11.7346 22.4392C11.3019 23.056 10.8084 23.8066 10.4532 24.465L9.78271 20.5938C10.0708 20.6581 10.3459 20.7804 10.6366 20.8322V20.8309Z" fill="#62AC45"/>
<path d="M4.78098 21.0694C5.16593 21.0757 5.2641 21.5575 5.45141 21.8136C5.49017 21.8666 5.38682 21.9271 5.3907 21.9322C5.42687 21.9839 6.37375 22.6663 6.09214 22.9148C5.63872 22.7521 5.14914 22.6814 4.68926 22.5578C4.49549 22.5048 4.04078 22.2652 3.83539 22.2008C3.63 22.1365 3.13395 22.2854 3.01123 21.8439C3.20371 21.6673 4.52908 21.0656 4.77968 21.0694H4.78098Z" fill="#99CB48"/>
<path d="M3.68329 24.0477C3.44044 23.6188 2.96764 22.7194 2.89014 22.2602C2.95085 22.0105 3.96103 22.4166 3.98815 22.4684C4.01011 22.5112 3.92227 23.2403 3.92744 23.422C3.93519 23.7285 4.33694 24.2243 3.68329 24.0477Z" fill="#99CB48"/>
<path d="M10.3321 24.7037C9.99235 25.3558 9.66036 26.0748 9.47821 26.7888C9.33612 26.8203 9.09972 26.8165 8.98992 26.9074C8.96925 26.9074 8.94987 26.9074 8.92921 26.9074C8.84136 26.9074 8.65535 26.8657 8.62434 26.9666C8.60368 26.9666 8.5843 26.9666 8.56363 26.9666C8.48612 26.9679 8.33498 26.9288 8.31948 27.0259C7.96166 27.0638 7.63096 27.1458 7.28218 27.205C7.22405 27.2151 7.15558 27.1937 7.09875 27.205C6.90885 27.2429 6.58074 27.2757 6.42831 27.3236L6.27588 27.0259C6.70734 27.147 6.84297 26.9187 7.10004 26.7282L10.3334 24.7024L10.3321 24.7037Z" fill="#599341"/>
<path d="M9.78286 20.5924L10.4533 24.4637C10.4132 24.5382 10.3719 24.6252 10.3319 24.7021L7.09853 26.728C7.5907 26.3609 8.05057 25.8172 8.59312 25.4766L10.1187 24.523C9.62526 24.5709 9.05817 24.0702 8.59312 24.1055C7.85164 24.1635 6.09352 25.4136 5.33007 25.7138C5.81062 25.1361 6.90993 24.5571 7.55711 24.2241C7.74184 24.1295 8.17846 24.0525 8.38127 23.9554C7.45635 23.418 6.32475 23.6917 5.30036 23.8658C5.00196 23.9163 4.61701 23.8482 4.26306 24.1042C4.19201 24.2102 4.41807 24.7816 4.4762 24.909C4.55888 25.0881 5.0588 25.4602 4.78107 25.594C4.37803 25.1209 3.98791 24.5848 3.68305 24.0449C4.33669 24.2215 3.93495 23.7271 3.9272 23.4193C3.92203 23.2389 4.01116 22.5085 3.98791 22.4656C3.96078 22.4139 2.95061 22.0077 2.88989 22.2575C2.87181 22.1528 2.82014 22.0935 2.82918 21.9888C2.84339 21.9358 2.97386 21.8753 3.01261 21.84C3.13533 22.2827 3.62233 22.1301 3.83677 22.197C4.05121 22.2638 4.49687 22.5022 4.69064 22.5539C5.15052 22.6788 5.6401 22.7482 6.09352 22.9109C6.37513 22.6612 5.42825 21.98 5.39208 21.9283C5.3882 21.9232 5.49155 21.8627 5.45279 21.8097C5.26548 21.5536 5.16731 21.0718 4.78236 21.0655C6.33767 20.4007 8.1255 20.2191 9.78415 20.5887L9.78286 20.5924Z" fill="#99CB48"/>
<path d="M9.50891 22.201C9.589 22.2048 9.73756 22.2818 9.84477 22.2906L10.1806 24.2862C9.98558 24.1638 9.01028 24.0187 8.93019 23.8989C8.8501 23.7791 8.71317 22.6917 8.44189 22.4697C8.76742 22.5214 9.24926 22.1884 9.50891 22.201Z" fill="#62AC45"/>
<path d="M16.3104 13.802C16.03 13.9711 15.7756 14.5866 15.7614 14.9045C15.7562 15.0345 16.1541 15.7118 15.9448 15.8872C15.8815 15.7875 15.7962 15.5655 15.7614 15.5302C15.4784 15.2338 13.9826 14.6472 13.5046 14.6371C12.9698 14.3545 12.5461 14.429 11.979 14.2801C12.0811 13.7642 12.1766 13.2294 12.3446 12.7311C12.2567 12.9645 13.0008 13.0944 13.046 13.0881C13.2411 13.0616 13.0279 12.8547 13.046 12.8497C13.2372 12.7942 14.4386 13.3769 14.6323 13.6835L13.626 11.5693L14.5109 12.7311C14.5032 12.1193 16.1101 11.7813 16.3104 12.1647C16.424 12.3817 15.7936 13.7819 16.3104 13.8033V13.802Z" fill="#99CB48"/>
<path d="M18.323 13.2068L18.1706 13.6243L18.0491 13.1475C17.5841 13.3935 16.7328 13.5486 16.3104 13.8022C15.7937 13.7807 16.4241 12.3818 16.3104 12.1636C16.1102 11.7801 14.5032 12.1182 14.5109 12.7299L13.6261 11.5682L14.6324 13.6823C14.4386 13.3758 13.2385 12.793 13.046 12.8485C13.028 12.8536 13.2411 13.0592 13.046 13.0869C13.0008 13.0932 12.2568 12.9633 12.3446 12.7299C12.5035 12.2632 12.9285 11.0233 13.4736 11.0018C14.9243 10.945 17.287 12.238 18.323 13.2055V13.2068Z" fill="#99CB48"/>
<path d="M18.3229 13.2067C18.4895 13.3619 18.6807 13.4893 18.8112 13.6836C18.5955 13.84 18.1433 14.2171 17.9573 14.3988L17.7132 14.3092C17.6537 14.5174 17.2184 14.776 17.1642 14.8453C17.1525 14.8592 17.2275 15.0055 17.1034 15.2023C17.0414 15.3007 16.9549 15.1657 16.951 15.172C16.8309 15.3713 16.8696 15.6375 16.7986 15.7674C16.6694 16.0046 16.433 16.2859 16.3103 16.5419C16.0959 16.3716 16.061 16.0727 15.9447 15.8873C16.1553 15.7119 15.7561 15.0345 15.7613 14.9046C15.7755 14.5867 16.03 13.9712 16.3103 13.8021C16.7327 13.5486 17.584 13.3922 18.049 13.1475L18.1705 13.6243L18.3229 13.2067Z" fill="#62AC45"/>
<path d="M13.5044 14.6358C13.6672 14.7216 15.1851 15.7345 15.2729 15.8266C15.6436 16.2164 15.2806 16.0966 15.517 16.4813C15.0132 16.3135 14.1594 16.0398 13.6569 15.9452C13.5174 15.9187 13.3817 15.8417 13.3817 16.0638C13.1272 15.9464 12.7901 15.8001 12.5279 15.7068C12.2656 15.6134 11.9569 15.6109 11.7954 15.3498C11.8212 14.9865 11.9078 14.6333 11.9788 14.2776C12.5446 14.4264 12.9696 14.352 13.5044 14.6346V14.6358Z" fill="#599341"/>
<path d="M15.5175 16.4827C15.7216 16.5509 15.936 16.7401 16.1879 16.7211C16.1815 16.735 16.2383 16.9078 16.1879 17.0188C16.1543 17.092 15.9425 17.5461 15.9128 17.5549C15.5097 17.3052 15.1325 17.0201 14.723 16.7804C14.2399 16.4979 13.8963 16.3036 13.3809 16.0652C13.3809 15.8419 13.5152 15.9201 13.656 15.9466C14.1585 16.0412 15.0137 16.315 15.5162 16.4827H15.5175Z" fill="#376C35"/>
<path d="M15.7616 15.5291C15.6777 15.8003 15.4658 15.659 15.2733 15.8268C15.1842 15.7334 13.6664 14.7218 13.5049 14.636C13.9828 14.6461 15.4787 15.2326 15.7616 15.5291Z" fill="#62AC45"/>
<path d="M15.9448 15.8873C16.0611 16.0739 16.096 16.3729 16.3104 16.5419C16.2781 16.6088 16.2019 16.692 16.189 16.7211C15.9371 16.74 15.7214 16.5508 15.5186 16.4826C15.2822 16.0967 15.6452 16.2165 15.2744 15.828C15.4669 15.6602 15.6787 15.8015 15.7627 15.5303C15.7963 15.5656 15.8828 15.7876 15.9461 15.8873H15.9448Z" fill="#44873F"/>
<path d="M22.4711 14.4568C22.5887 15.1127 22.6184 15.6955 22.5318 16.3628C22.2386 16.3918 21.8059 16.4889 21.4945 16.5419C21.0954 16.61 20.6833 16.5898 20.3358 16.8396C20.0413 16.861 19.7648 16.9695 19.4819 17.0187C19.7855 16.1067 20.5541 15.9024 21.3731 15.5593L20.2441 15.8872C20.1743 14.9677 21.4183 14.7091 22.1663 14.5173C22.2489 14.4959 22.3768 14.4921 22.4711 14.458V14.4568Z" fill="#62AC45"/>
<path d="M22.4711 14.4567C22.3755 14.492 22.2489 14.4945 22.1662 14.516C21.9647 14.3053 20.7543 14.8818 20.7026 14.7847C20.8732 14.3823 21.78 12.9821 21.7399 12.6403C21.7309 12.5608 21.5087 12.5734 21.5565 12.4321C22.0513 12.5709 22.3807 13.9471 22.4711 14.458V14.4567Z" fill="#62AC45"/>
<path d="M18.934 17.1372C18.3463 17.2785 17.7198 17.4425 17.1656 17.6733L16.189 17.0187C16.2394 16.9077 16.1825 16.7348 16.189 16.721C16.2032 16.692 16.2781 16.61 16.3104 16.5418C16.4331 16.2858 16.6682 16.0045 16.7987 15.7673C17.5802 15.9919 18.4858 16.4435 18.934 17.1372Z" fill="#599341"/>
<path d="M17.9576 14.3974C17.7715 14.5778 17.6127 14.796 17.4086 14.9638C17.4215 15.013 18.1255 15.2703 18.2327 15.2917C18.4562 15.3371 18.6319 15.1593 18.69 15.2022C18.8295 15.3043 19.3863 16.76 19.2997 17.0186C19.1667 17.0451 19.0465 17.1107 18.9341 17.1372C18.4859 16.4434 17.5804 15.9918 16.7988 15.7673C16.8699 15.6374 16.8324 15.3712 16.9513 15.1719C16.9551 15.1656 17.0417 15.2993 17.1037 15.2022C17.2277 15.0041 17.1541 14.8591 17.1644 14.8452C17.2187 14.7758 17.654 14.5172 17.7134 14.3091L17.9576 14.3986V14.3974Z" fill="#62AC45"/>
<path d="M21.5564 12.4322C21.5086 12.5747 21.7295 12.5609 21.7399 12.6403C21.7812 12.9822 20.8744 14.3824 20.7026 14.7848C20.7542 14.8819 21.9659 14.3067 22.1662 14.5161C21.4195 14.7078 20.1755 14.9677 20.244 15.886L21.373 15.558C20.554 15.9011 19.7854 16.1055 19.4818 17.0175C19.4237 17.0276 19.3552 17.0061 19.2984 17.0175C19.385 16.7576 18.8282 15.3032 18.6887 15.201C18.6305 15.1581 18.4549 15.336 18.2314 15.2906C18.1255 15.2691 17.4201 15.0131 17.4072 14.9626C17.6113 14.7961 17.7702 14.5779 17.9562 14.3962C18.1423 14.2146 18.5944 13.8374 18.8101 13.681C19.1292 13.4489 20.5243 12.5987 20.8537 12.4902C21.1147 12.4032 21.2697 12.3515 21.5552 12.4309L21.5564 12.4322Z" fill="#99CB48"/>
<path d="M19.0558 15.2312L19.9096 15.4103C19.8877 15.9136 19.7985 16.1609 19.4523 16.6011L18.9033 15.2312C18.9124 15.2161 19.0454 15.2438 19.0558 15.2312Z" fill="#62AC45"/>
<path d="M19.9095 15.4105L19.0557 15.2314C19.1642 15.0964 19.6279 14.4771 19.8178 14.5767C19.978 14.8618 19.9212 15.1317 19.9095 15.4105Z" fill="#62AC45"/>
<path d="M16.1876 17.0187L17.1641 17.6734C15.1076 18.5274 13.4076 20.2341 12.1016 21.9622C11.9789 22.1249 11.8549 22.2687 11.7361 22.439C11.1483 22.2284 10.3939 21.9458 10.4546 21.218C10.4624 21.1335 10.6548 21.0414 10.6381 20.8307C10.6329 20.7702 10.505 20.6806 10.4546 20.5923C10.9287 20.9039 11.293 20.147 11.6444 20.0562C11.8045 20.0146 12.2269 20.002 12.4065 19.9969C12.4556 19.9957 12.6003 20.1508 12.6507 19.9969C12.8418 20.0524 12.9994 20.0827 13.1997 20.0562C13.2513 20.0499 13.3624 20.0802 13.3831 20.0259C12.9284 19.6828 12.732 19.2514 12.8341 18.6851C12.9258 19.0155 13.2927 20.3035 13.5045 19.4003C13.4929 19.5113 13.4425 20.1117 13.5355 20.1155L14.1762 17.1966C14.2873 17.1146 14.6516 17.131 14.7253 16.7791C15.1348 17.0187 15.512 17.3038 15.915 17.5536C15.9447 17.5447 16.1566 17.0906 16.1901 17.0175L16.1876 17.0187Z" fill="#44873F"/>
<path d="M8.92915 15.4697C8.91365 15.6224 8.91623 15.6564 9.02087 15.7674C9.13455 15.8885 10.4483 16.798 10.394 16.9292C9.91737 17.0011 9.40195 16.6428 8.80773 16.8699C10.0259 16.9342 10.8475 17.2811 11.6135 18.1805C11.5941 18.4013 11.0916 18.0455 11.0335 18.0317C10.6963 17.9509 10.2829 17.9345 9.93545 17.9131C9.89928 17.9106 9.55567 17.7087 9.29473 17.8828C9.87991 17.9787 10.4367 18.178 11.0025 18.3294C10.9366 18.4883 10.8216 19.2779 10.881 19.3713C10.9146 19.4255 11.9377 19.6324 12.1315 19.6993C12.2684 19.7459 12.5487 19.9679 12.6495 19.997C12.5991 20.1508 12.4544 19.9957 12.4053 19.997L10.9715 19.5201C10.5826 19.6829 10.85 20.2921 10.3915 20.4738C9.56471 19.148 8.31297 17.8185 8.50028 16.0954C8.54937 15.6488 8.55324 15.5744 8.92786 15.4697H8.92915Z" fill="#99CB48"/>
<path d="M11.3692 15.3512C10.9662 15.6313 11.1664 16.151 11.4299 16.4537C11.0889 16.214 11.3305 17.6041 11.3692 17.705C11.4493 17.9119 12.4117 18.8025 12.6197 19.0459C12.6533 19.0194 12.5964 18.3168 12.5887 18.2121C12.5667 17.922 12.4931 17.6104 12.4672 17.3191C12.4324 16.9255 12.3471 16.4474 12.4672 16.0677C12.484 16.8044 12.6365 17.98 12.8328 18.689C12.7308 19.2553 12.9271 19.6867 13.3818 20.0298C13.3612 20.0841 13.2514 20.0525 13.1984 20.0601C12.723 19.6098 12.4634 18.9374 11.7955 18.7192C12.4685 18.4732 11.2039 18.3862 11.0024 18.332C10.4366 18.1793 9.8798 17.98 9.29462 17.8854C9.55556 17.7114 9.89918 17.9132 9.93535 17.9157C10.2828 17.9384 10.6962 17.9535 11.0334 18.0343C11.0915 18.0481 11.5927 18.4039 11.6134 18.1831C10.8473 17.285 10.0245 16.9368 8.80762 16.8725C9.40184 16.6455 9.91597 17.005 10.3939 16.9318C10.4482 16.8006 9.13573 15.8911 9.02076 15.77C8.91613 15.659 8.91354 15.625 8.92904 15.4723C9.53877 15.3008 10.7363 15.2718 11.3692 15.3538V15.3512Z" fill="#85C351"/>
<path d="M11.7956 15.3512C11.9571 15.6123 12.2633 15.6148 12.5281 15.7081C12.4454 15.8217 12.4635 15.9365 12.4674 16.0651C12.3472 16.4448 12.4325 16.9216 12.4674 17.3164C12.1444 17.541 12.0152 16.7589 11.6742 16.6315L11.4908 16.6908L12.5888 18.2095C12.5965 18.3142 12.6521 19.0168 12.6198 19.0433C12.4118 18.8011 11.4494 17.9106 11.3694 17.7024C11.3306 17.6015 11.089 16.2114 11.4301 16.4511C11.1665 16.1496 10.9663 15.6287 11.3694 15.3486C11.5386 15.3701 11.8266 15.5706 11.7969 15.3486L11.7956 15.3512Z" fill="#62AC45"/>
<path d="M12.4066 19.9971C12.2271 20.0021 11.8047 20.016 11.6445 20.0564C11.2931 20.1472 10.9301 20.904 10.4548 20.5925C10.4341 20.5571 10.4147 20.508 10.394 20.4739C10.8513 20.2923 10.5852 19.6842 10.9741 19.5203L12.4079 19.9971H12.4066Z" fill="#62AC45"/>
<path d="M13.3819 16.0652C13.8961 16.3036 14.241 16.4979 14.7241 16.7804C14.6505 17.1324 14.2862 17.116 14.1751 17.1979C14.1609 17.2093 14.1027 17.1715 14.0537 17.2282C13.9787 17.3127 13.5279 19.191 13.5046 19.4029C13.2915 20.3061 12.9259 19.0194 12.8342 18.6877C12.6366 17.9788 12.4854 16.8031 12.4686 16.0665C12.4661 15.9378 12.4467 15.823 12.5293 15.7095C12.7916 15.8028 13.1287 15.9491 13.3832 16.0665L13.3819 16.0652Z" fill="#599341"/>
<path d="M13.1997 20.0562C12.9995 20.0827 12.8419 20.0524 12.6507 19.9969C12.5499 19.9679 12.2696 19.7459 12.1327 19.6992C11.9389 19.6337 10.9158 19.4255 10.8822 19.3713C10.8241 19.2767 10.9378 18.487 11.0037 18.3293C11.2052 18.3836 12.4699 18.4706 11.7968 18.7166C12.4647 18.9348 12.7243 19.6059 13.1997 20.0575V20.0562Z" fill="#62AC45"/>
<path d="M14.1753 17.1981L13.5346 20.117C13.4415 20.1132 13.4919 19.5128 13.5035 19.4018C13.5268 19.1899 13.9776 17.3116 14.0526 17.2271C14.1016 17.1716 14.1598 17.2082 14.174 17.1968L14.1753 17.1981Z" fill="#84AC47"/>
<path d="M12.4673 17.3165C12.4931 17.6079 12.5681 17.9195 12.5887 18.2096L11.4907 16.6909L11.6742 16.6316C12.0152 16.759 12.1444 17.5411 12.4673 17.3165Z" fill="#62AC45"/>
<path d="M31.6223 17.6734C31.7308 18.2221 32.3418 18.6724 32.6596 19.1921C33.4295 20.4523 33.6517 21.7591 33.6362 23.2135C33.6271 24.0435 33.5974 24.9202 33.1479 25.6556C33.0045 25.5169 32.5291 25.1561 32.3547 25.0603C32.0989 24.919 31.8767 24.866 31.6223 24.7626C32.2552 22.8692 31.9646 20.586 30.8291 18.9247C31.2399 18.458 30.9699 17.8361 30.8898 17.3164C31.1417 17.4161 31.3807 17.5561 31.6223 17.6734Z" fill="url(#paint3_linear_366_138186)"/>
<path d="M25.1557 16.3035C27.1579 17.4047 28.4381 18.2006 29.3036 20.3539C28.5944 20.697 28.3089 21.5144 27.778 21.9622C27.5881 18.5311 25.6091 17.8083 22.8369 16.3627C23.6068 16.2984 24.3793 16.2845 25.1544 16.3035H25.1557Z" fill="#F79229"/>
<path d="M34.4889 19.6401C34.5018 20.7514 34.5392 21.8628 34.5496 22.9753C34.3106 23.2188 33.976 23.2087 33.635 23.2137C33.6505 21.7606 33.4296 20.4537 32.6584 19.1923C32.3406 18.6726 31.7309 18.2223 31.6211 17.6736C32.8832 18.2854 33.427 18.8858 34.4876 19.6389L34.4889 19.6401Z" fill="#CE4727"/>
<path d="M35.8309 20.4739C35.5222 20.6266 35.5144 22.8076 35.3426 23.2137C35.2406 23.3714 35.1282 23.5821 35.0378 23.7498L34.5495 24.3162C34.5508 23.8684 34.5534 23.4206 34.5495 22.9753C34.5391 21.8615 34.5017 20.7514 34.4888 19.6401C34.9008 19.9328 35.384 20.2343 35.8309 20.4739Z" fill="#CE4727"/>
<path d="M30.8901 17.3165C30.9702 17.8362 31.2402 18.4581 30.8294 18.9249C30.7158 18.7596 30.584 18.6473 30.4639 18.5073C30.3838 18.4152 30.4031 18.3332 30.3424 18.2689C30.4884 18.0431 30.2352 17.6988 30.0673 17.5537C30.0221 17.5146 29.1333 17.0037 29.3051 17.4351C29.0778 17.2573 28.8323 17.1248 28.6037 16.9583C28.5197 16.8978 28.251 16.735 28.3905 16.6013C29.2057 16.7565 30.1228 17.0125 30.8914 17.3165H30.8901Z" fill="#F15F27"/>
<path d="M35.8311 20.4739C35.946 20.5357 35.6825 20.5546 36.0752 20.5332C36.1153 20.5306 36.1566 20.5332 36.1966 20.5332C36.3607 20.8372 36.3982 21.2383 36.3801 21.6054C36.3762 21.6823 36.3943 21.7769 36.3801 21.8438C36.3181 22.1402 35.5637 22.8744 35.3428 23.2137C35.5146 22.8075 35.521 20.6252 35.8311 20.4739Z" fill="#B63D26"/>
<path d="M22.8379 16.3628C25.6101 17.8071 27.5891 18.5312 27.779 21.9623C27.7893 22.1439 27.7221 22.4101 27.8397 22.5576C27.8048 22.6132 27.7648 22.6636 27.779 22.7368C27.5736 21.9547 27.6433 21.102 27.4134 20.3237C26.8657 18.4732 24.9125 17.6205 23.3262 16.7791C23.0988 16.6593 22.8327 16.5546 22.6558 16.3616C22.7152 16.3565 22.7785 16.3666 22.8392 16.3616L22.8379 16.3628Z" fill="#FED567"/>
<path d="M28.0232 16.6012C28.1666 16.7891 28.3836 16.9392 28.5722 17.078L26.3762 16.8396C26.0468 16.6504 25.6399 16.5469 25.3389 16.3035C26.309 16.3388 27.0776 16.446 28.0232 16.6012Z" fill="#F15F27"/>
<path d="M25.3389 16.3035C25.6386 16.5469 26.0455 16.6504 26.3762 16.8396C27.8243 17.6709 28.7724 18.6308 29.3654 20.1748C29.4325 20.3501 29.4933 20.562 29.6095 20.7109C29.5992 20.7273 29.6147 20.7929 29.6095 20.8294C29.6005 20.8004 29.408 20.6112 29.3047 20.3526C28.4392 18.1981 27.159 17.4034 25.1567 16.3022C25.2136 16.3035 25.2523 16.2984 25.3402 16.3022L25.3389 16.3035Z" fill="#FED386"/>
<path d="M22.5332 16.3629C22.5733 16.3591 22.6159 16.3667 22.6547 16.3629C22.8316 16.5559 23.099 16.6593 23.3251 16.7804L22.7761 16.9293L23.3251 17.3758C22.9582 17.1727 22.4389 16.9646 22.0436 16.899C22.1948 16.6884 21.5734 16.764 21.4946 16.542C21.8059 16.4891 22.2374 16.3919 22.5319 16.3629H22.5332Z" fill="#F79229"/>
<path d="M28.389 16.6013C28.2495 16.735 28.5195 16.8977 28.6022 16.9583C28.8308 17.1248 29.0762 17.2572 29.3036 17.4351C29.5775 17.6495 30.1278 18.0456 30.3409 18.2689C30.4029 18.3332 30.3822 18.4152 30.4623 18.5073L30.4016 18.5666C30.3926 18.5565 30.3487 18.5767 30.3409 18.5666C29.7803 17.9346 29.2416 17.5713 28.5724 17.0768C28.3838 16.9381 28.1668 16.788 28.0234 16.6C28.0519 16.6051 28.256 16.5748 28.389 16.6V16.6013Z" fill="#FCBE7A"/>
<path d="M36.0752 20.5333C35.6838 20.5547 35.946 20.5358 35.8311 20.474C35.8569 20.4614 36.0765 20.4475 36.0752 20.5333Z" fill="#CE4727"/>
<path d="M25.3999 29.0516C25.4515 29.6609 25.7241 30.3736 25.5213 30.8983C25.5148 30.8996 25.5432 31.0043 25.4903 31.0169C24.9684 31.1443 24.161 31.2414 23.6908 31.4344C23.5926 31.4748 23.4919 31.4887 23.386 31.553C23.4828 31.3436 23.3046 31.2414 23.2645 31.0169C23.1754 30.5136 23.1418 29.8652 23.1431 29.3493C23.1431 28.8019 23.1754 28.2695 23.3265 27.741C23.4053 27.5657 23.5939 27.35 23.51 27.1456C24.0538 26.4985 24.6842 25.912 25.4011 25.4478C25.2758 26.5767 25.1118 27.7133 25.2177 28.8435C25.2332 29.0062 25.1583 29.0794 25.4011 29.0516H25.3999Z" fill="#B63D26"/>
<path d="M10.9416 24.5243C10.6058 25.1689 10.2402 25.8854 10.1485 26.6095C9.92111 26.6486 9.70021 26.7381 9.47803 26.7886C9.66017 26.0759 9.99216 25.3569 10.3319 24.7035C10.3719 24.6265 10.4133 24.5395 10.4533 24.4651C10.8073 23.8066 11.3007 23.0561 11.7348 22.4392C11.8549 22.2689 11.9776 22.1251 12.1004 21.9624L10.9416 24.5243Z" fill="#F1D2B1"/>
<path d="M34.5508 22.9753C34.5547 23.4194 34.5521 23.8684 34.5508 24.3162L35.0391 23.7499C34.5948 24.5736 34.3919 25.1399 34.3067 26.0734C34.2899 26.2563 34.1865 26.1756 34.1853 26.2222C34.184 26.2664 34.308 26.2374 34.3067 26.2815C34.3028 26.5893 34.3183 26.9009 34.3067 27.2049C34.1465 26.8731 33.5407 26.1932 33.2694 25.8943C33.2603 25.8842 33.2203 25.7265 33.1479 25.6559C33.5975 24.9204 33.6272 24.0438 33.6362 23.2137C33.9773 23.2087 34.3118 23.2188 34.5508 22.9753Z" fill="#B63D26"/>
<path d="M30.8294 18.9248C31.9649 20.5861 32.2556 22.8693 31.6226 24.7627C31.5399 24.7286 31.5658 24.7046 31.5619 24.7034C32.0385 22.8365 31.8926 20.8144 30.8294 19.1632C30.7119 18.9816 30.5414 18.728 30.4019 18.5678L30.4626 18.5085C30.5827 18.6473 30.7158 18.7596 30.8281 18.9261L30.8294 18.9248Z" fill="#E37951"/>
<path d="M20.3366 16.8395C20.8739 16.8016 21.5121 16.8117 22.0443 16.8988C22.4383 16.9631 22.9576 17.1712 23.3258 17.3756C24.0194 17.7603 25.1614 18.7947 25.5825 19.4607C25.5076 19.5238 25.3319 19.7206 25.2776 19.7584C25.0257 19.93 25.0077 19.8972 24.7286 20.1759C24.6369 20.2668 24.0259 20.9063 23.9962 20.9504C23.9355 17.667 18.9595 17.9987 16.7364 18.806C14.198 19.7281 12.135 22.2283 10.9414 24.524L12.1001 21.9621C13.4061 20.234 15.1074 18.5273 17.1626 17.6733C17.7181 17.4424 18.3433 17.2785 18.9311 17.1372C19.0448 17.1094 19.1636 17.0438 19.2967 17.0186C19.3535 17.0073 19.422 17.0287 19.4801 17.0186C19.763 16.9694 20.0394 16.8609 20.334 16.8395H20.3366Z" fill="#FFF3CB"/>
<path d="M29.3035 20.354C29.4069 20.6126 29.5994 20.8018 29.6084 20.8308C29.9469 21.9484 29.766 23.3776 29.6691 24.5243C29.6433 24.5419 29.5852 24.6403 29.4857 24.7034L29.5464 21.0995L29.425 21.0402C29.2183 21.5221 28.0299 22.2474 27.8387 22.559C27.7211 22.4114 27.7883 22.144 27.778 21.9636C28.3089 21.5158 28.5944 20.6984 29.3035 20.3553V20.354Z" fill="#F15F27"/>
<path d="M21.4956 16.542C21.5744 16.7653 22.1958 16.6883 22.0447 16.899C21.5124 16.8119 20.8743 16.8006 20.3369 16.8397C20.6844 16.5899 21.0965 16.6088 21.4956 16.542Z" fill="#A94724"/>
<path d="M30.3407 18.2701C30.1289 18.0455 29.5773 17.6507 29.3034 17.4363C29.1329 17.0049 30.0217 17.517 30.0656 17.5548C30.2322 17.6986 30.4854 18.0443 30.3407 18.2701Z" fill="#F47729"/>
<path d="M27.779 22.7367L27.23 26.251C27.1873 26.3002 27.1473 26.3759 27.1085 26.4301L27.6265 22.8565L25.5222 25.2393C25.5623 24.3955 25.5816 23.5553 25.5222 22.7077C25.4137 22.7039 25.3375 22.8931 25.2781 22.9764H25.0946C25.548 22.463 25.9588 21.6443 26.0092 20.9505C26.0596 20.2567 25.933 20.0158 25.5816 19.4608C25.1605 18.796 24.0173 17.7604 23.3249 17.3757L22.7759 16.9291L23.3249 16.7803C24.9112 17.6216 26.8644 18.4731 27.4121 20.3249C27.642 21.1032 27.5723 21.9559 27.7777 22.738L27.779 22.7367Z" fill="#E77C24"/>
<path d="M29.4872 24.7034C28.7251 25.1853 27.8299 25.5562 27.2305 26.2525L27.7795 22.7382C27.7653 22.665 27.8066 22.6158 27.8402 22.559C28.0314 22.2475 29.2198 21.5221 29.4265 21.0403L29.5479 21.0996L29.4872 24.7034Z" fill="#CE4727"/>
<path d="M28.5723 17.078C29.2428 17.5724 29.7801 17.9357 30.3408 18.5677C30.0811 19.1517 29.8305 19.7244 29.3642 20.176C28.7713 18.6308 27.8231 17.6708 26.375 16.8408L28.571 17.0792L28.5723 17.078Z" fill="#F79229"/>
<path d="M31.5618 24.7035C31.474 24.6694 31.2234 24.7375 31.1342 24.7035C30.8604 24.5975 30.7816 24.2885 30.5542 24.1081C30.4857 24.0526 30.4677 24.1699 30.4625 24.1674C30.3088 24.0892 30.5581 23.992 30.3708 23.9883C30.2946 24.0021 29.9987 24.4033 29.9135 24.4651C29.8954 24.4777 29.69 24.5105 29.6693 24.5244C29.7662 23.3777 29.9471 21.9485 29.6086 20.8309C29.6138 20.7943 29.5983 20.7287 29.6086 20.7124C29.9316 20.1636 30.4547 19.683 30.8281 19.1633C31.8912 20.8145 32.0359 22.8353 31.5605 24.7035H31.5618Z" fill="#CE4727"/>
<path d="M30.4017 18.5679C30.54 18.7293 30.7118 18.9816 30.8293 19.1632C30.4547 19.6829 29.9328 20.1635 29.6099 20.7123C29.4949 20.5634 29.4329 20.3515 29.3657 20.1762C29.8308 19.7246 30.0827 19.1519 30.3423 18.5679C30.3514 18.5779 30.3953 18.5578 30.403 18.5679H30.4017Z" fill="#F15F27"/>
<path d="M27.1074 26.4303C26.3556 27.4344 26.1954 28.1282 26.437 29.3492C26.5016 29.6747 26.7096 30.2411 26.8646 30.54C26.884 30.5779 26.9046 30.622 26.9253 30.6586C26.5365 30.6952 26.1657 30.868 25.7963 30.9563C25.6542 30.9904 25.5444 30.8907 25.5211 30.897C25.7227 30.3723 25.4501 29.6596 25.3997 29.0503C25.2796 27.6211 25.4565 26.6233 25.5211 25.2383L27.6255 22.8555L27.1074 26.4291V26.4303Z" fill="#CE4727"/>
<path d="M25.5223 25.2397C25.4564 26.6247 25.2794 27.6237 25.4009 29.0517C25.158 29.0794 25.2329 29.0063 25.2174 28.8435C25.1115 27.7133 25.2743 26.578 25.4009 25.4478C24.6839 25.912 24.0535 26.4986 23.5097 27.1457C22.9039 27.8659 22.0319 29.2409 22.0461 30.1832C21.9725 30.2387 21.873 30.1832 21.8627 30.1832L22.1378 28.2179C22.0668 28.2254 21.9867 28.1914 21.9247 28.2481C21.8097 28.3516 21.3227 29.6735 21.0708 29.8867C20.846 29.7644 20.6342 29.5562 20.5825 29.5297L21.3757 28.339C21.9544 27.9719 23.6441 25.4566 24.1207 24.7654C24.5173 24.1902 24.8855 23.5267 25.2795 22.9779C25.3389 22.8947 25.4151 22.7067 25.5236 22.7093C25.583 23.5569 25.5636 24.397 25.5236 25.2409L25.5223 25.2397Z" fill="#F15F27"/>
<path d="M23.3264 27.7411C23.2321 27.9505 23.0862 28.1157 23.0216 28.4853C23.0048 28.585 22.8924 29.415 23.143 29.3494C23.143 29.8666 23.1753 30.5137 23.2644 31.017C23.1831 30.9375 23.0668 30.9779 23.0203 30.9577C22.9325 30.9186 22.5966 30.6159 22.5023 30.66C22.4739 30.6726 22.377 31.0372 22.1974 31.1961C21.8383 31.514 20.6899 31.9618 20.1848 31.9113C20.1422 31.847 20.4406 31.5657 20.46 31.5544C20.7997 31.3412 21.9481 31.3185 21.8629 30.8101C22.0385 30.6058 21.9481 30.8707 22.0153 30.8997C22.0308 30.906 22.2271 30.6487 22.2284 30.631C22.2413 30.438 22.0502 30.5364 22.045 30.1845C22.0308 29.2422 22.904 27.866 23.5086 27.147C23.5938 27.3513 23.404 27.567 23.3252 27.7424L23.3264 27.7411Z" fill="#B63D26"/>
<path d="M23.3264 27.741C23.1753 28.2695 23.1442 28.8018 23.143 29.3493C22.8923 29.4149 23.0034 28.5849 23.0215 28.4852C23.0861 28.1143 23.2321 27.9504 23.3264 27.741Z" fill="#CE4727"/>
<path d="M26.0088 20.9506L25.2156 22.3508C23.4407 24.2946 21.2343 25.8298 18.749 26.7884C18.0992 26.9928 17.483 27.1858 16.7971 27.2653C16.4315 27.3081 16.1176 27.3018 15.7598 27.3245C14.7987 27.3863 13.7665 27.1744 12.8623 27.5629C13.1465 27.5352 13.4023 27.6298 13.6864 27.6222C14.1334 27.6752 14.5829 27.7395 15.0286 27.8014C15.6164 27.8821 16.3695 28.0524 16.9508 28.0398C18.4441 28.0057 20.5949 26.4516 21.8001 25.6569C23.1656 24.7576 23.9742 24.2454 25.0942 22.9764H25.2776C24.8836 23.5251 24.5142 24.1887 24.1189 24.7639C23.7068 24.8736 23.4407 25.4337 23.1423 25.7465C22.7264 26.183 21.7058 27.1454 21.2201 27.4444C20.3882 27.9565 19.3651 28.0183 18.5061 28.4573C18.4079 28.4283 18.3072 28.3917 18.2012 28.398C17.7724 28.4194 17.7775 28.7285 17.6522 29.0527C17.6509 29.0565 17.6161 29.03 17.5915 29.112L15.4562 29.0527C15.2766 28.8912 15.017 28.7739 14.7858 28.6957C14.5804 28.6263 14.1928 28.5141 13.9926 28.5166C13.4022 28.5241 13.0238 28.7134 12.6504 29.112C12.4089 29.3693 12.3184 29.4513 12.2229 29.8272C12.2035 29.9016 12.166 30.0568 12.1621 30.1249L11.1855 30.0063C11.8172 29.2835 12.2409 27.8405 11.7953 26.9688C12.3391 26.8553 12.8545 26.656 13.3816 26.492C14.3569 26.4567 15.4355 26.55 16.4018 26.4327C18.5048 26.1754 22.0934 24.0133 23.6306 22.5614C24.2248 22.0001 24.5206 21.8601 24.9121 21.0717C25.1291 20.634 25.3616 20.3035 25.2776 19.7611C25.3332 19.7232 25.5076 19.5252 25.5825 19.4634C25.9339 20.0184 26.0605 20.2568 26.0101 20.9531L26.0088 20.9506Z" fill="#F3A95A"/>
<path d="M24.1184 24.7627C23.6417 25.454 21.952 27.9692 21.3733 28.3363C20.9586 28.5999 20.0505 28.6882 19.6049 28.991C19.5364 28.9556 19.3956 28.9178 19.3 28.8724C19.2186 28.8333 19.1385 28.7904 19.0558 28.7538C18.9112 28.6895 18.5998 28.4839 18.5068 28.4561C19.3659 28.0172 20.3903 27.9566 21.2209 27.4432C21.7053 27.1443 22.7271 26.1818 23.1431 25.7453C23.4402 25.4325 23.7063 24.8724 24.1196 24.7627H24.1184Z" fill="#FCEA7C"/>
<path d="M17.4691 29.8855C17.4691 30.2059 17.5518 30.5944 17.6526 30.8984L16.0055 30.7193C16.0391 30.4657 16.0133 30.0166 15.9448 29.7656L17.4704 29.8842L17.4691 29.8855Z" fill="#FCBE7A"/>
<path d="M17.592 29.111C17.521 29.3444 17.4693 29.6396 17.4706 29.8856L15.945 29.767C15.9243 29.6938 15.8313 29.6068 15.8236 29.5879C15.7383 29.3999 15.6117 29.1905 15.458 29.0518L17.5933 29.111H17.592Z" fill="#FCEA7C"/>
<path d="M11.3086 26.4895C11.204 26.4643 10.8914 26.4832 10.7596 26.4895C10.5646 26.4983 10.3437 26.5753 10.1499 26.6081C10.2416 25.884 10.6072 25.1675 10.9431 24.5229C12.1367 22.2272 14.1996 19.727 16.738 18.8049C16.9899 19.2111 16.6256 19.0862 16.4021 19.2225C14.976 20.0878 13.7592 21.2773 12.8329 22.6472C12.1095 23.7182 11.2634 25.2066 11.3073 26.4895H11.3086Z" fill="#FBBA57"/>
<path d="M24.9115 21.0694C24.5214 21.8577 24.2242 21.9965 23.63 22.5591C23.5719 22.1971 23.6339 21.8275 23.7515 21.4869C23.8005 21.3443 23.9155 21.0731 23.9956 20.9508C24.0253 20.9066 24.6363 20.2671 24.728 20.1763L24.9115 21.0694Z" fill="#FDEEB0"/>
<path d="M25.2785 19.7585C25.3625 20.301 25.1299 20.6314 24.9129 21.0692L24.7295 20.1761C25.0085 19.8986 25.0266 19.9301 25.2785 19.7585Z" fill="#FED386"/>
<path d="M26.0093 20.9507C25.959 21.6445 25.5482 22.4619 25.0948 22.9765C23.9748 24.2455 23.1661 24.7576 21.8007 25.657C21.0644 25.6457 20.2738 26.2928 19.5737 26.5501C19.3024 26.6498 19.0195 26.704 18.7495 26.7885C21.2336 25.8298 23.4413 24.2934 25.2162 22.3509L26.0093 20.9507Z" fill="#FDEEB0"/>
<path d="M21.8615 30.1833C21.8021 30.1833 21.7375 30.1631 21.7401 30.2426C21.6639 30.1959 21.5747 30.1656 21.4959 30.124C21.3526 30.047 21.2105 29.9625 21.0684 29.8856C21.3203 29.6724 21.8086 28.3504 21.9222 28.247C21.9842 28.1902 22.0643 28.2243 22.1354 28.2167L21.8602 30.182L21.8615 30.1833Z" fill="#CE4727"/>
<path d="M21.3733 28.3364L20.5801 29.5272C20.5581 29.5159 20.4845 29.5386 20.4587 29.5272C20.3954 29.3607 20.1538 29.3493 20.0311 29.2888C19.8955 29.2207 19.6694 29.0252 19.6035 28.9911C20.0505 28.6884 20.9586 28.5988 21.372 28.3364H21.3733Z" fill="#FED567"/>
<path d="M23.6309 22.559C22.0936 24.0122 18.5051 26.1742 16.402 26.4303C15.4371 26.5476 14.3571 26.4543 13.3818 26.4896C15.5843 25.8021 18.6084 25.3833 20.55 24.2266C21.6983 23.5417 22.8157 22.4278 23.7523 21.4868C23.6347 21.8274 23.5714 22.197 23.6309 22.559Z" fill="#FFF3CB"/>
<path d="M21.8008 25.6559C20.5943 26.4506 18.4448 28.0047 16.9515 28.0387C16.3715 28.0513 15.6171 27.881 15.0293 27.8003C15.1727 27.5165 15.6868 27.6262 15.9749 27.5619L16.799 27.2642C17.485 27.1847 18.1012 26.9918 18.7509 26.7874C19.0209 26.7029 19.3025 26.6499 19.5751 26.549C20.2739 26.2904 21.0645 25.6446 21.8021 25.6559H21.8008Z" fill="#FCEA7C"/>
<path d="M15.7616 27.3236C15.2642 27.5178 14.2631 27.6074 13.687 27.6213C13.4041 27.6276 13.1483 27.5342 12.8628 27.562C13.767 27.1735 14.7992 27.3867 15.7603 27.3236H15.7616Z" fill="#FDEEB0"/>
<path d="M16.7989 27.2642L15.9748 27.5619C15.6867 27.6262 15.1726 27.5164 15.0292 27.8003C14.5835 27.7397 14.134 27.6754 13.687 27.6211C14.2631 27.6073 15.2643 27.5177 15.7616 27.3234C16.1194 27.3007 16.4333 27.3058 16.7989 27.2642Z" fill="#FDEEB0"/>
<path d="M23.9963 20.9506C23.9162 21.073 23.8012 21.3442 23.7521 21.4867C22.8156 22.4278 21.6982 23.5429 20.5498 24.2265C18.6083 25.3833 15.5855 25.8033 13.3817 26.4895C12.8559 26.6535 12.3392 26.8516 11.7954 26.9663C11.6882 26.7569 11.6365 26.7141 11.4298 26.6094C11.4208 26.6043 11.3161 26.492 11.3084 26.4908C11.2632 25.2079 12.1093 23.7194 12.834 22.6485C13.7602 21.2786 14.9758 20.0891 16.4032 19.2238C16.6254 19.0888 16.9896 19.2124 16.739 18.8062C18.9609 17.9989 23.9369 17.6672 23.9989 20.9506H23.9963Z" fill="#FCBE7A"/>
<path d="M21.617 21.1893C21.2669 21.4857 20.9233 21.7783 20.5797 22.0823C20.559 21.8679 20.8083 20.7553 20.4272 20.831L20.1521 21.0694C20.1882 20.9963 20.4001 20.7616 20.2438 20.7124C18.6536 20.6494 17.128 21.3987 16.309 22.7383C16.1811 22.9477 16.008 23.123 16.0959 23.393C16.5428 23.398 16.995 23.4005 17.438 23.3337C17.8811 23.2668 18.5154 23.0284 18.9636 22.9767C19.0786 22.9641 19.6379 22.8405 19.5436 23.0953C19.5398 23.0978 19.5604 23.1154 19.4829 23.1545C18.341 23.1394 17.3205 23.6415 16.2806 23.9883C16.1682 24.0262 15.6618 23.9568 15.6399 24.286C15.1064 24.4412 14.4695 24.4841 13.9321 24.7629C14.2112 24.0829 14.5212 23.4245 14.9087 22.7976C16.0416 20.9584 19.2737 18.4608 21.4658 19.9985C22.0613 20.416 21.6415 20.6544 21.6183 21.1893H21.617Z" fill="#FCBE7A"/>
<path d="M21.617 21.1892C21.6403 20.6543 22.0601 20.4147 21.4646 19.9984C19.2711 18.4607 16.0404 20.9583 14.9075 22.7975C14.405 23.0561 14.1091 23.8129 13.8702 24.3162C13.8017 24.4613 13.8327 24.8069 13.8095 24.8523C13.772 24.9217 12.9556 25.2711 12.8949 25.478C12.7799 25.502 12.5164 25.7151 12.4673 25.6268C12.9452 22.6209 15.7019 19.6099 18.903 19.3424C19.9713 19.2529 22.1453 19.3324 22.6543 20.3844C22.343 20.696 21.9516 20.9053 21.617 21.1892Z" fill="#FDEEB0"/>
<path d="M20.5808 22.0824C20.2023 22.4179 20.0666 22.8001 19.5435 23.0953C19.6391 22.8392 19.0784 22.9628 18.9635 22.9767C18.5165 23.0284 17.8887 23.2668 17.4379 23.3337C16.987 23.4005 16.5427 23.398 16.0957 23.393C16.0091 23.123 16.181 22.9464 16.3088 22.7383C17.8564 22.0395 19.2799 22.848 20.1519 21.0707L20.427 20.8323C20.8081 20.7566 20.5588 21.8679 20.5795 22.0836L20.5808 22.0824Z" fill="#FED386"/>
<path d="M14.9074 22.7974C14.5212 23.4255 14.2099 24.0827 13.9309 24.7627C13.8469 24.9683 13.9205 25.1928 13.7784 25.2988C13.7371 25.329 13.0305 25.4489 12.8936 25.4779C12.9556 25.271 13.772 24.9216 13.8081 24.8522C13.8327 24.8068 13.8004 24.4612 13.8689 24.3161C14.1078 23.8115 14.4024 23.056 14.9062 22.7974H14.9074Z" fill="#FCEA7C"/>
<path d="M19.4832 23.1544C18.7546 23.5177 16.5767 24.0147 15.6401 24.2859C15.6621 23.9566 16.1685 24.026 16.2809 23.9882C17.3208 23.6413 18.3426 23.1393 19.4832 23.1544Z" fill="#FDEEB0"/>
<path d="M21.2204 22.6777C21.4142 22.7017 21.2721 22.7723 21.2514 22.8266C21.1364 23.1104 20.5409 23.6074 20.2451 23.7499L21.2217 22.6777H21.2204Z" fill="#F3A95A"/>
<path d="M20.1536 21.0693C19.2817 22.8466 17.8581 22.0381 16.3105 22.7369C17.1295 21.3985 18.6551 20.6493 20.2453 20.7111C20.4016 20.7603 20.1898 20.9949 20.1536 21.068V21.0693Z" fill="#FDEEB0"/>
<defs>
<linearGradient id="paint0_linear_366_138186" x1="5.63258" y1="31.8483" x2="26.5571" y2="37.5291" gradientUnits="userSpaceOnUse">
<stop stop-color="#FBDFD1"/>
<stop offset="1" stop-color="#D1C1A5"/>
</linearGradient>
<linearGradient id="paint1_linear_366_138186" x1="47.3801" y1="33.7227" x2="27.8168" y2="36.4692" gradientUnits="userSpaceOnUse">
<stop stop-color="#C4A67A"/>
<stop offset="0.85" stop-color="#A68063"/>
</linearGradient>
<linearGradient id="paint2_linear_366_138186" x1="25.3969" y1="36.3655" x2="37.2916" y2="36.4449" gradientUnits="userSpaceOnUse">
<stop stop-color="#C19C81"/>
<stop offset="1" stop-color="#A88D6B"/>
</linearGradient>
<linearGradient id="paint3_linear_366_138186" x1="31.6546" y1="19.9313" x2="32.8919" y2="24.3556" gradientUnits="userSpaceOnUse">
<stop stop-color="#D84D27"/>
<stop offset="1" stop-color="#B63C26"/>
</linearGradient>
</defs>
</svg>
