<svg width="50" height="50" viewBox="0 0 50 50" fill="none" xmlns="http://www.w3.org/2000/svg">
<path d="M12.5137 23.3827C12.596 24.1981 12.4426 24.5835 11.8009 25.0274L11.1858 24.0979C10.6989 24.1781 11.1509 24.4817 10.6348 24.3846C10.7952 23.597 11.8288 22.9573 12.5123 23.3827H12.5137Z" fill="#F26E86"/>
<path d="M10.7661 25.3142C11.1581 25.4961 11.4761 25.2541 11.8025 25.0275C12.4442 24.5836 12.5977 24.1967 12.5154 23.3828C13.7959 24.1813 11.6421 26.4317 10.7675 25.3142H10.7661Z" fill="#F0586E"/>
<path d="M11.8025 25.0274C11.4761 25.254 11.158 25.496 10.766 25.3141C10.5038 24.9796 10.5484 24.8162 10.6363 24.3846C11.1524 24.4833 10.7005 24.1781 11.1873 24.0979L11.8025 25.0274Z" fill="#F26E86"/>
<path d="M12.9032 20.0195C12.74 20.4357 12.4931 20.7563 12.0941 20.8781C11.4232 21.0831 9.41727 21.3713 8.76025 21.1648C9.03645 21.0353 9.30428 20.8072 9.6014 20.7363C10.4411 20.5344 11.3702 21.0014 12.0941 20.7363C12.4694 20.5991 12.2853 20.5374 12.03 20.522L12.9046 20.0211L12.9032 20.0195Z" fill="#F26E86"/>
<path d="M9.60026 20.7363C9.30314 20.8072 9.03392 21.0353 8.75911 21.1648C8.20254 20.9891 7.97377 20.24 7.91797 19.6619C8.26531 19.6388 8.32808 20.1151 8.5973 20.3063C8.89861 20.519 9.36173 20.4619 9.60026 20.7348V20.7363Z" fill="#F69594"/>
<path d="M10.9601 15.5848C10.9489 15.5879 10.974 15.7621 10.8624 15.7991C10.3575 15.9656 10.2222 15.5941 10.1831 15.5848C10.3951 15.4846 10.8276 14.3872 11.0577 14.4396C11.3869 14.5151 10.6225 15.3166 10.9601 15.5848Z" fill="#A28252"/>
<path d="M10.1832 15.5849C10.2222 15.5942 10.3589 15.9672 10.8625 15.7992C10.9727 15.7622 10.949 15.5865 10.9601 15.5849C12.4416 15.2119 13.3943 18.7679 12.9019 20.0211L12.0273 20.522C12.2825 20.5375 12.4667 20.5991 12.0914 20.7363C11.3675 21.0014 10.4384 20.5344 9.59869 20.7363C9.36016 20.4635 8.89704 20.5205 8.59573 20.3078C8.32651 20.1167 8.26234 19.6404 7.9164 19.6635C7.78388 18.2978 8.49669 15.1672 10.1818 15.5849H10.1832Z" fill="#F8A79C"/>
<path d="M9.89151 16.2292C10.8052 16.1552 9.40608 18.6214 9.14662 17.6241C9.03084 17.1771 9.52325 16.4357 9.89151 16.2292Z" fill="#F9CBBF"/>
<path d="M39.7707 23.0252C39.6508 22.7446 39.5183 22.6475 39.3174 22.4533C40.1418 21.2294 41.2661 20.488 42.6192 20.1643L42.5215 21.8814C42.1254 21.9415 40.7081 23.3689 40.5142 23.3843C40.199 23.409 39.7707 22.8356 39.9967 22.4548L39.7707 23.0267V23.0252Z" fill="#9ABF43"/>
<path d="M39.7709 23.0252C39.8099 23.1146 39.8155 23.1439 39.835 23.2395C39.7095 23.332 39.7848 23.5925 39.7709 23.7404C39.7095 24.3539 39.3663 24.5451 38.9297 24.8857C38.687 25.0738 38.3927 25.1986 38.1848 25.4576C37.7538 25.305 39.1167 22.7509 39.3175 22.4534C39.5184 22.6476 39.6509 22.7447 39.7709 23.0252Z" fill="#A7CE38"/>
<path d="M38.9282 24.8841C39.3662 24.545 39.708 24.3539 39.7693 23.7389C40.0246 23.7527 39.8684 23.3998 39.8335 23.2379C39.814 23.1408 39.807 23.1131 39.7693 23.0237L39.9953 22.4518C39.7693 22.8341 40.199 23.4075 40.5128 23.3813C40.7053 23.3659 42.124 21.9385 42.5202 21.8784L42.6178 20.1613C42.9986 20.0703 45.2891 19.7035 45.4021 20.0534C45.0617 24.4834 41.8339 26.0001 38.1833 25.8121L38.1191 25.6687L38.9282 24.8811V24.8841Z" fill="#A7CE38"/>
<path d="M43.622 20.5205C44.1478 20.5606 43.675 21.0985 43.2007 20.6993C43.29 20.6993 43.5996 20.519 43.622 20.5205Z" fill="#C1DB7A"/>
<path d="M39.7705 23.7405C39.7859 23.5925 39.7106 23.332 39.8347 23.2395C39.8682 23.4013 40.0258 23.7543 39.7705 23.7405Z" fill="#C1DB7A"/>
<path d="M19.1828 22.0233C18.7797 22.2699 18.6025 22.8202 18.244 23.1685C17.8353 23.5662 17.3178 23.8036 16.8198 24.0271C16.7528 24.0564 16.8198 24.2152 16.7556 24.2414C16.3874 24.3893 15.9298 23.9331 15.5574 24.098C14.606 23.1069 14.6842 21.5562 15.2017 20.3062C16.2869 21.3451 17.5926 22.1682 19.0866 21.809C19.1856 21.8815 19.1661 21.9262 19.1842 22.0233H19.1828Z" fill="#F4C97E"/>
<path d="M19.1831 22.0232C19.5681 24.1349 17.0376 25.6393 15.5576 24.0979C15.9287 23.933 16.3862 24.3893 16.7559 24.2413C16.8214 24.2151 16.7545 24.0563 16.82 24.027C17.318 23.8035 17.8355 23.5661 18.2443 23.1685C18.6028 22.8201 18.7799 22.2698 19.1831 22.0232Z" fill="#CE6E50"/>
<path d="M20.5416 15.2982C20.9615 15.9779 21.977 18.1729 21.9659 18.9467C20.8778 18.0002 19.7702 17.0769 18.6641 16.1567C18.8496 16.0134 19.1425 16.5405 19.2792 16.5143C19.3211 16.5066 19.9502 16.0226 19.9586 15.9779C20.0255 15.6203 19.3908 15.4168 19.3755 15.3336C19.3671 15.2889 19.7926 14.8989 19.6015 14.5105C19.7396 14.8866 19.9711 14.7063 19.9892 14.7248C20.3743 15.1101 20.5193 16.5328 20.7662 17.0862C20.822 16.613 20.5681 16.1228 20.4747 15.6912C20.4663 15.6527 20.3798 15.2442 20.5389 15.2982H20.5416Z" fill="#51A646"/>
<path d="M15.6857 13.8678C16.2618 14.5615 16.9872 15.0039 17.5633 15.6929L15.6536 16.1584C15.5867 16.1445 15.4039 15.2798 15.2979 15.121C15.2477 15.0455 15.1919 15.2012 15.1682 15.1565C14.9562 14.7526 14.8711 14.5353 14.7148 14.0112C14.8976 13.7615 15.2017 13.9095 15.4597 13.7969C15.5239 13.7692 15.2533 13.3468 15.6857 13.8678Z" fill="#51A646"/>
<path d="M17.6932 12.6515L17.7908 13.1525C17.7043 13.1849 17.41 13.0277 17.3054 13.0092C16.5647 12.8797 15.4041 12.6685 14.7805 12.9383C14.6871 12.9783 14.5587 13.0138 14.4569 13.0092C14.4388 12.8689 14.3216 12.6284 14.4248 12.5082C15.5366 12.2153 16.6177 12.2246 17.6946 12.6515H17.6932Z" fill="#83C565"/>
<path d="M18.6642 16.1568C19.7704 17.0786 20.8779 18.0003 21.966 18.9468C21.9646 19.0531 21.966 19.161 21.966 19.2689C21.853 19.3861 21.8432 19.2319 21.8362 19.2335L15.8799 13.9387C16.2719 14.0297 18.1955 15.7668 18.6642 16.1568Z" fill="#C5E2BB"/>
<path d="M15.8799 13.9387L21.8362 19.2334C18.879 19.719 16.0487 18.4565 15.1685 15.1549C15.1922 15.1996 15.2466 15.0439 15.2982 15.1194C15.4056 15.2782 15.5869 16.1429 15.6539 16.1568L17.5636 15.6913C16.9875 15.0023 16.2621 14.5614 15.686 13.8662C15.7794 13.8339 15.8087 13.9217 15.8799 13.9371V13.9387Z" fill="#3E9444"/>
<path d="M20.0561 17.6597C20.1788 17.706 20.1328 17.9094 20.1858 17.9464C20.6489 18.2655 21.2292 18.5938 21.5459 19.0917C20.7522 19.0516 19.8692 19.1688 19.0852 19.0208C18.9876 19.0023 17.6317 18.3611 17.6289 18.2701C17.9553 18.2624 19.9389 17.6181 20.0561 17.6613V17.6597Z" fill="#3E9444"/>
<path d="M17.7252 16.801C17.947 16.6839 18.9583 17.5779 18.438 17.8739C18.498 17.3051 18.3195 17.7552 18.1786 17.7305C17.728 17.6534 17.4016 16.9721 17.7252 16.801Z" fill="#51A646"/>
<path d="M17.3052 13.0092C16.8727 13.1633 16.4473 13.3714 15.9786 13.3668C15.9451 13.3668 15.5531 13.1679 15.4611 13.1525C15.2449 13.114 15.0328 13.4885 14.7817 12.9382C15.4053 12.6685 16.5659 12.8797 17.3066 13.0092H17.3052Z" fill="#83C565"/>
<path d="M20.5418 15.2982C20.3814 15.2458 20.4693 15.6527 20.4776 15.6913C20.5711 16.1229 20.825 16.613 20.7692 17.0862C20.5223 16.5344 20.3772 15.1102 19.9922 14.7248C19.9727 14.7063 19.7425 14.8867 19.6044 14.5105C19.7941 14.899 19.3701 15.2874 19.3784 15.3337C19.3938 15.4154 20.0285 15.6204 19.9615 15.978C19.9531 16.0227 19.3226 16.5067 19.2822 16.5144C19.1455 16.5406 18.8525 16.0134 18.667 16.1568C18.1983 15.7668 16.2747 14.0312 15.8827 13.9387C15.8116 13.9217 15.7823 13.8354 15.6888 13.8678C15.2564 13.3468 15.527 13.7676 15.4628 13.7969C15.2062 13.9094 14.9007 13.763 14.718 14.0111C14.637 13.7383 14.492 13.2759 14.4585 13.0092C14.5603 13.0138 14.6901 12.9784 14.7821 12.9383C15.0346 13.4901 15.2452 13.114 15.4615 13.1526C15.5535 13.1695 15.9469 13.3668 15.979 13.3668C16.4491 13.3714 16.8731 13.1618 17.3056 13.0092C17.4102 13.0277 17.7045 13.1849 17.791 13.1526L17.6933 12.6516C18.7939 13.0863 19.8904 14.247 20.5418 15.2982Z" fill="#75BA6D"/>
<path d="M16.4952 13.4392C16.664 13.3189 17.1606 13.749 17.402 13.5101C17.2973 13.7891 17.4368 14.0372 17.5638 14.3332C17.176 14.9251 16.0112 13.7844 16.4952 13.4392Z" fill="#75BA6D"/>
<path d="M18.5026 14.1545C18.5989 14.1221 19.3633 14.3533 19.3773 14.4042C19.2057 14.8943 18.0423 15.5309 18.4706 14.6184C18.3352 14.4134 18.2529 14.6616 18.2446 14.6539C18.0549 14.4889 18.4385 14.1745 18.504 14.1529L18.5026 14.1545Z" fill="#83C565"/>
<path d="M26.8875 9.00296C27.0688 9.22338 27.4552 9.24187 27.6966 9.43147C28.5991 10.1405 28.4972 11.7636 27.6324 12.5081C26.5778 13.416 25.268 12.8519 24.0711 13.2958L23.0026 13.2249C22.3595 12.3124 22.7501 11.779 23.3583 11.0792C24.1632 10.1513 25.6906 8.93205 26.8875 9.00296Z" fill="#F3DB6E"/>
<path d="M27.4052 10.2192C27.1666 10.9853 26.3088 11.2242 25.6573 11.0778C25.409 10.694 25.6015 10.3379 25.9168 10.0759C26.073 10.6755 27.0006 10.2886 26.4343 9.8616C26.7537 9.84619 27.2015 9.89552 27.4052 10.2192Z" fill="#BE6137"/>
<path d="M25.6572 11.0778C26.3087 11.2242 27.1665 10.9853 27.4051 10.2192C28.0398 11.2289 26.0855 11.7406 25.6572 11.0778Z" fill="#923D20"/>
<path d="M26.434 9.86148C27.0004 10.2884 26.0727 10.6753 25.9165 10.0757C25.9597 10.0403 26.0407 9.88922 26.1425 9.86148C26.215 9.84144 26.3447 9.8661 26.434 9.86148Z" fill="#E08859"/>
<path d="M23.0024 13.2234L24.071 13.2943C25.2664 12.8504 26.5763 13.4145 27.6322 12.5066C28.4971 11.7621 28.5989 10.139 27.6964 9.42998C27.4537 9.24038 27.0687 9.22189 26.8873 9.00146C29.6967 9.16948 29.0244 14.5444 26.0127 14.2238C25.7281 14.1929 25.2357 13.9324 24.9121 13.8661C24.1826 13.7151 23.5381 13.9833 23.0024 13.2218V13.2234Z" fill="#3E9444"/>
<path d="M24.2646 13.5101C24.6217 13.3837 24.7877 13.9293 24.167 13.618C24.2019 13.5933 24.2367 13.5209 24.2646 13.5101Z" fill="#75BA6D"/>
<path d="M32.8101 10.7202C34.0335 10.566 34.9723 12.9013 33.781 13.4392C32.4377 14.0465 31.372 10.9021 32.8101 10.7202Z" fill="#CECB36"/>
<path d="M32.8757 10.9343L33.2635 11.0052C33.774 11.591 32.6288 11.5139 32.8757 10.9343Z" fill="#CECB36"/>
<path d="M45.8893 26.8169C46.5798 26.6566 48.4546 27.3456 48.1881 28.2828C48.0598 28.736 44.9812 28.4015 44.8863 28.0686C44.7761 27.6832 45.5754 26.8894 45.8893 26.8169Z" fill="#F5D53B"/>
<path d="M45.9534 27.318C46.4639 27.2224 47.287 27.4429 47.605 27.9269C46.7555 27.6633 45.9952 27.0113 45.242 27.9623C45.1946 27.671 45.779 27.3519 45.9548 27.318H45.9534Z" fill="#F3DB6E"/>
<path d="M36.6633 22.2375C37.1404 24.5851 37.1739 27.8421 37.4403 30.3222C37.4515 30.427 37.4836 30.6459 37.5045 30.8232C36.9256 31.0082 37.4431 31.8097 37.3748 32.2536C36.6536 32.3661 35.6604 32.622 34.9797 32.8979L34.8499 22.31C34.8527 22.2869 34.8471 22.2622 34.8499 22.2391H36.6633V22.2375Z" fill="url(#paint0_linear_366_138185)"/>
<path d="M33.2961 21.809C33.232 21.9678 33.3617 22.2329 33.3603 22.31C33.3408 26.1928 33.1441 30.0833 33.2306 33.9707C33.2055 33.9769 32.9474 34.2482 32.8428 34.3283L33.0367 21.7366C33.1943 21.7397 33.2822 21.8075 33.2961 21.8075V21.809Z" fill="#F4C97E"/>
<path d="M36.6635 22.2377H34.8501C34.8933 21.8709 34.7678 21.877 35.1737 21.7368C35.6368 21.7491 36.1027 21.7275 36.5659 21.7368C36.6049 21.763 36.644 22.1437 36.6635 22.2377Z" fill="#F58547"/>
<path d="M35.1734 21.7368C34.7675 21.877 34.8931 21.8709 34.8498 22.2377C34.847 22.2608 34.8526 22.2855 34.8498 22.3086H33.3614C33.3614 22.2315 33.2331 21.9664 33.2973 21.8077C33.911 21.8138 34.5485 21.7183 35.1748 21.7368H35.1734Z" fill="#F36F37"/>
<path d="M30.3834 21.0214C30.3834 21.1694 29.8115 21.7228 29.7683 21.7366C29.2256 21.9062 27.1877 21.6858 26.4986 21.6657C26.5306 21.0677 26.5823 20.4789 26.5627 19.8777C26.553 19.5648 26.3507 18.2114 26.3688 18.1251C26.3786 18.0758 27.0063 17.4639 27.0482 17.4454C27.1779 17.3883 29.6971 17.3344 29.8324 17.3745C29.8743 17.3868 30.4978 17.9371 30.5118 17.9833C30.5913 18.2438 30.3221 20.3864 30.3821 21.0245L30.3834 21.0214Z" fill="#FAFCFD"/>
<path d="M31.1601 39.0499C31.7181 39.167 32.2663 39.4537 32.8438 39.4784C32.8438 39.5477 32.9415 39.5786 32.908 39.6926L32.8438 39.7635C32.682 40.8548 33.6027 40.5851 34.3322 40.6221V40.9797C32.6067 40.9797 30.8784 40.9735 29.1528 40.9797C29.3091 40.5959 29.6745 40.3708 29.8656 40.0132C29.9187 39.9146 30.3064 38.8973 30.319 38.8325C30.4376 39.073 30.9202 38.9959 31.1601 39.0468V39.0499Z" fill="#BE6137"/>
<path d="M35.497 39.1223C35.49 39.1747 35.4412 39.3967 35.4328 39.409C35.4231 39.4244 35.1804 39.4321 35.2069 39.6957H32.908C32.9401 39.5816 32.8438 39.5508 32.8438 39.4814C32.8438 39.11 32.8327 38.7046 32.908 38.3362C33.7589 38.6106 34.6405 38.8587 35.497 39.1238V39.1223Z" fill="#EDAB51"/>
<path d="M32.9081 21.6657C32.7797 21.6595 32.2427 21.9138 32.2608 21.5948C32.3334 21.4807 32.318 20.6437 32.325 20.4495C32.5719 20.0749 32.4171 21.0584 32.4226 21.0938C32.4478 21.1092 32.6389 21.006 32.6486 20.9859C32.883 20.5389 32.4966 17.9524 32.6486 17.2665C32.5691 17.0353 30.6525 16.0704 30.5771 15.5139C30.7515 15.5494 32.8621 17.0507 32.9081 17.1956V21.6672V21.6657Z" fill="#F58547"/>
<path d="M28.3759 16.3001C28.9059 16.2908 30.0526 16.092 30.4153 16.1567C30.5213 16.1752 32.1673 17.3467 32.2287 17.4438C32.3933 17.7089 32.3444 19.981 32.3263 20.448C32.3193 20.6407 32.3333 21.4792 32.2621 21.5933C32.2538 21.6056 32.1743 21.6519 32.1645 21.7366C31.7642 21.8229 31.2787 21.6519 30.9021 21.6657C31.0318 20.8534 30.9467 20.018 30.9663 19.1979C30.9732 18.9421 31.202 17.954 31.1601 17.7675C31.142 17.6843 30.1837 16.9151 30.0595 16.8735C29.9005 16.8195 26.9474 16.7517 26.7898 16.8026C26.7284 16.8226 25.8692 17.6997 25.851 17.769C25.7269 18.2361 25.9752 18.8141 25.9808 19.2719C25.9849 19.6249 25.8789 21.006 25.9166 21.1679C25.4688 21.396 25.1605 21.6673 24.6863 21.7397C24.6807 20.9058 24.6932 20.0688 24.6863 19.2365C24.6835 18.8866 24.4617 17.8446 24.6542 17.5918C25.0629 17.5317 26.4006 16.2045 26.5959 16.1614C26.8916 16.0966 27.9574 16.3124 28.3759 16.3047V16.3001Z" fill="#FAFCFD"/>
<path d="M30.0596 16.8719C30.1823 17.3143 30.566 17.5455 30.9007 17.766C30.6803 18.7324 30.8882 19.8176 30.771 20.7702C30.6901 21.4283 30.5757 21.2249 30.4474 21.4499C30.5088 21.3066 30.3874 21.0769 30.3832 21.0214C30.3232 20.3848 30.5911 18.2407 30.5129 17.9802C30.499 17.934 29.8755 17.3837 29.8336 17.3714C29.6983 17.3328 27.1791 17.3868 27.0493 17.4423C27.0061 17.4608 26.3798 18.0727 26.37 18.122C26.3533 18.2083 26.5541 19.5617 26.5639 19.8746C26.2221 19.9779 26.3853 20.9305 26.3044 21.305C26.0701 21.3035 25.9961 21.5023 25.9166 21.1617C25.879 21.0014 25.985 19.6187 25.9808 19.2657C25.9752 18.8095 25.7283 18.2315 25.8511 17.7629C25.8692 17.695 26.7285 16.8164 26.7899 16.7964C26.9475 16.7471 29.9006 16.8149 30.0596 16.8673V16.8719Z" fill="#F4C97E"/>
<path d="M30.9007 21.6658C30.8714 21.6658 30.5032 21.9463 30.3497 21.88C30.2479 21.8122 30.4069 21.5209 30.4474 21.4515C30.5757 21.2265 30.6901 21.4299 30.771 20.7718C30.8882 19.8176 30.6803 18.734 30.9007 17.7676C30.5645 17.5471 30.1823 17.3159 30.0596 16.8735C30.1837 16.9152 31.142 17.6843 31.1602 17.7676C31.2006 17.9541 30.9719 18.9421 30.9663 19.198C30.9454 20.018 31.0318 20.8534 30.9021 21.6658H30.9007Z" fill="#F8984D"/>
<path d="M26.564 19.8777C26.5821 20.4788 26.5319 21.0692 26.4998 21.6657C26.3045 21.6596 25.9028 21.8445 25.6587 21.7012C26.0186 21.4391 26.2041 21.7767 26.3059 21.3081C26.3868 20.9335 26.2236 19.9794 26.5654 19.8777H26.564Z" fill="#F58547"/>
<path d="M31.1605 39.0497C30.9192 38.9989 30.4379 39.076 30.3193 38.8355C30.3403 38.723 30.3737 38.5149 30.3835 38.407C30.7657 38.6243 31.2846 38.3376 31.1605 39.0513V39.0497Z" fill="#D97E2A"/>
<path d="M30.5772 15.5124C30.6525 16.0689 32.5692 17.0338 32.6487 17.265C32.4966 17.9509 32.883 20.539 32.6487 20.9844C32.6389 21.0029 32.4478 21.1062 32.4227 21.0923C32.4171 21.0569 32.572 20.075 32.325 20.448C32.3432 19.9794 32.392 17.7074 32.2274 17.4438C32.166 17.3452 30.5214 16.1752 30.414 16.1567C30.0513 16.092 28.9047 16.2908 28.3746 16.3001C28.5294 16.1382 27.9157 16.0874 27.8892 16.0858C27.6911 16.0673 26.656 15.9225 26.5947 15.9425C26.4984 15.9749 25.561 16.7949 25.3643 16.9444C25.1676 17.0939 24.565 17.3359 24.4576 17.4454C24.2121 17.6951 24.5343 18.7879 24.5553 19.3058C24.5846 20.0534 24.5343 20.8103 24.5553 21.5594L24.1019 21.7736C24.2833 21.7736 24.5078 21.7659 24.685 21.7382C25.1593 21.6642 25.4676 21.3929 25.9153 21.1663C25.9948 21.507 26.0702 21.3066 26.3031 21.3097C26.2013 21.7798 26.0158 21.4407 25.6559 21.7027C25.9 21.8461 26.3031 21.6611 26.497 21.6673C27.1861 21.6873 29.2241 21.9093 29.7667 21.7382C29.81 21.7243 30.3819 21.1709 30.3819 21.023C30.3875 21.08 30.5088 21.3081 30.4461 21.4515C30.407 21.5208 30.248 21.8122 30.3484 21.88C30.5005 21.9463 30.8701 21.6657 30.8994 21.6657C31.2761 21.6519 31.7615 21.823 32.1618 21.7366C32.1716 21.6519 32.2511 21.6056 32.2595 21.5933C32.2414 21.9139 32.7784 21.6596 32.9067 21.6642C32.9137 21.6642 32.8733 21.732 33.0365 21.7351L32.8426 34.3269C32.1353 34.8648 31.0445 35.8405 31.0292 36.7592C31.011 37.9692 31.9582 38.0278 32.9067 38.333C32.8314 38.7014 32.8412 39.1068 32.8426 39.4782C32.2665 39.4536 31.7169 39.1669 31.1589 39.0497C31.283 38.3361 30.7641 38.6228 30.3819 38.4054C30.4628 37.5361 30.202 36.1442 29.5073 35.6155C28.8126 35.0868 28.2351 35.4166 27.4679 35.4721C27.2893 35.1238 27.5446 34.3238 27.274 34.0417C27.6939 33.6949 28.3272 33.3434 28.6341 32.861C29.6928 31.1963 28.0384 30.9543 27.2098 32.6822C27.0871 32.5481 26.4412 33.0968 26.4329 33.1477C26.398 33.3635 26.6923 34.7184 26.6923 35.187C26.052 35.1145 25.2918 35.1222 24.8147 35.6155C24.3753 35.8066 23.9708 36.4817 23.8439 36.975C23.4351 38.5534 23.9875 39.7927 24.8803 40.9811C24.3279 40.9888 23.7323 40.8933 23.1966 40.9102C23.1199 40.4694 22.9358 39.8436 22.9371 39.4073C22.9371 39.19 23.0515 38.8863 23.0669 38.6921C23.085 38.4455 23.2831 37.8706 23.2608 37.6548C23.2524 37.5746 22.9483 37.3295 23.0013 36.9395C23.0125 36.8579 23.2412 36.5126 23.2608 36.3677C23.3389 35.7835 23.3208 34.5658 22.8074 34.1851C22.1406 33.6903 21.8533 34.2405 21.5129 34.7569C21.5757 34.3793 21.4501 33.8105 21.5129 33.4328C21.7082 32.2691 22.2843 32.2059 21.9007 30.6074C21.7236 29.8722 21.3818 29.4421 20.8643 28.9628C20.5183 28.6406 20.1543 28.4186 19.7637 28.1751L20.2812 21.843C20.3886 21.5763 22.654 21.843 23.0334 21.7351C23.092 21.7181 24.014 21.0461 24.0364 20.9844C24.247 20.3925 23.7741 18.0419 23.9066 17.265C24.4172 17.0924 25.953 15.5278 26.2696 15.44C26.5863 15.3521 27.4972 15.5849 27.8878 15.5833C28.5783 15.5803 30.0122 15.3968 30.5744 15.5124H30.5772Z" fill="url(#paint1_linear_366_138185)"/>
<path d="M22.9707 23.0962C23.0461 24.1752 23.4673 24.2831 23.5217 23.2041C24.2722 24.3093 22.2803 24.4418 22.9707 23.0962Z" fill="#D18930"/>
<path d="M28.3762 16.3001C27.9564 16.3078 26.892 16.092 26.5963 16.1568C26.401 16.1999 25.0619 17.5271 24.6546 17.5872C24.4621 17.84 24.6838 18.8835 24.6866 19.2319L24.5569 19.3028C24.5374 18.7849 24.2138 17.6935 24.4593 17.4423C24.5667 17.3329 25.179 17.0831 25.366 16.9413C25.5627 16.7918 26.5001 15.9718 26.5963 15.9394C26.6591 15.9178 27.6927 16.0643 27.8908 16.0828C27.9173 16.0859 28.5311 16.1367 28.3762 16.297V16.3001Z" fill="#FBC15D"/>
<path d="M24.6866 19.2334C24.6936 20.0673 24.681 20.9043 24.6866 21.7366C24.5108 21.7644 24.2849 21.7736 24.1035 21.7721L24.5569 21.5578C24.5359 20.8087 24.5862 20.0519 24.5569 19.3043L24.6866 19.2334Z" fill="#F58547"/>
<path d="M30.3516 23.1687C30.7505 23.6666 30.4283 24.3047 29.834 24.0273C29.6666 23.7745 29.6053 23.5864 29.7364 23.2766L29.9303 23.9209C30.4311 24.1829 30.2679 23.2242 30.3516 23.1702V23.1687Z" fill="#BE7839"/>
<path d="M23.4883 22.0234C23.6529 22.0866 23.6027 23.0963 23.5524 23.0963C23.4715 22.7448 23.565 22.3733 23.4883 22.0234Z" fill="#ECBC2E"/>
<path d="M34.8501 22.3101L34.9798 32.898C34.6324 33.0383 34.3897 33.197 34.0731 33.3989C33.808 33.5685 33.5179 33.735 33.2961 33.9708C33.2752 33.9739 33.2515 33.9662 33.2319 33.9708C33.1454 30.0834 33.3407 26.1929 33.3617 22.3101H34.8501Z" fill="url(#paint2_linear_366_138185)"/>
<path d="M35.4332 39.4072C35.7847 39.8249 36.5393 39.4889 36.8895 39.6215C36.9397 39.64 37.3819 40.2396 37.6665 40.4091C37.9873 40.6003 38.7559 40.8484 39.1228 40.9101C37.5325 41.0411 35.9256 40.981 34.3312 40.981V40.6234C34.8877 40.6511 35.4973 40.6619 36.0469 40.5525C35.8558 40.5047 35.1904 40.6188 35.0761 40.5525C35.0537 40.5402 34.9449 40.0824 34.8822 40.0515C34.6102 39.9205 33.2278 39.9159 32.8428 39.7648L32.9069 39.6939H35.2058C35.1807 39.4303 35.422 39.4226 35.4318 39.4072H35.4332Z" fill="#E3974B"/>
<path d="M34.3321 40.6235C33.6012 40.5865 32.6805 40.8562 32.8437 39.7649C33.2287 39.916 34.6111 39.9206 34.8831 40.0516C34.9459 40.0824 35.0561 40.5402 35.077 40.5526C35.1914 40.6188 35.8568 40.5048 36.0479 40.5526C35.4983 40.662 34.8887 40.6512 34.3321 40.6235Z" fill="#E08859"/>
<path d="M30.3832 38.4054C30.3734 38.5149 30.3399 38.7214 30.319 38.8339C30.3065 38.8971 29.9187 39.9145 29.8657 40.0147C29.676 40.3707 29.3091 40.5973 29.1529 40.9811C29.0454 40.9811 28.9366 40.9811 28.8292 40.9811V40.8378C28.8753 40.8193 29.4556 40.064 29.4765 40.0147C29.5281 39.8975 29.3356 39.9037 29.3467 39.8713C29.5086 39.3965 29.9591 39.1098 29.2826 38.9048C29.5044 37.886 29.5448 37.0151 28.8292 36.2582C28.2936 35.691 28.1527 35.802 27.4371 35.7573C27.2264 35.859 27.1734 37.0783 27.5347 36.7592C27.4036 37.348 27.8081 38.2266 27.6645 38.7985C27.6505 38.8555 27.0953 39.6447 27.0172 39.728C27.0074 39.5522 27.087 39.1869 26.8554 39.1915C26.575 39.7511 25.6585 39.4859 25.5288 39.9792C25.3419 39.654 24.7393 39.1962 25.0113 38.6921C25.4409 39.0836 26.6308 39.0651 26.7591 38.2991C26.8261 37.8968 26.5931 36.2074 25.9822 36.3322C26.1105 36.2475 26.5095 35.7742 26.6294 35.617C26.7884 35.6047 26.9391 35.5615 27.0828 35.5461C27.2264 35.5307 27.3339 35.4845 27.4706 35.4752C28.2378 35.4197 28.8264 35.0976 29.51 35.6186C30.1935 36.1396 30.4641 37.5392 30.3846 38.4085L30.3832 38.4054Z" fill="#EB3F4A"/>
<path d="M24.2969 37.1183C23.9439 37.741 24.1992 39.2177 24.6847 37.9769C24.8018 38.2112 24.7976 38.5009 25.0083 38.6921C24.7377 39.1961 25.3389 39.6555 25.5258 39.9792C25.5593 40.0377 25.6444 40.3553 25.6555 40.3722C25.7797 40.5603 25.8425 40.3291 25.915 40.4431C25.9289 40.4647 26.0029 40.9117 25.9792 40.9795C25.6137 40.9826 25.244 40.9749 24.8786 40.9795C23.9858 39.7911 23.4334 38.5518 23.8421 36.9734C24.0667 36.9703 24.0765 37.3156 24.2955 37.1168L24.2969 37.1183Z" fill="#EC6757"/>
<path d="M27.2749 34.0416C27.2623 34.0293 26.9945 34.0123 26.9513 33.9707L28.5052 31.7881L26.8871 33.7549C26.8564 33.4559 27.0824 32.9503 27.2107 32.6821C28.0393 30.9542 29.6937 31.1962 28.635 32.8609C28.3281 33.3418 27.6948 33.6948 27.2749 34.0416Z" fill="#3E9444"/>
<path d="M27.211 32.6821C27.0827 32.9503 26.8567 33.4575 26.8874 33.7549C26.8999 33.8706 26.8539 33.8736 26.9515 33.9692C26.9948 34.0108 27.2626 34.0278 27.2752 34.0401C27.5458 34.3222 27.2905 35.1222 27.4691 35.4705C27.331 35.4798 27.218 35.5276 27.0813 35.5414C26.9278 35.6385 26.713 35.3996 26.6935 35.3981V35.1838C26.6935 34.7152 26.3992 33.3603 26.434 33.1446C26.4424 33.0952 27.0882 32.5465 27.211 32.679V32.6821Z" fill="#D18930"/>
<path d="M26.6921 35.4012C26.7131 35.4028 26.9265 35.6417 27.0799 35.5446C26.9362 35.56 26.7856 35.6032 26.6266 35.6155C26.4159 35.6325 25.9277 35.4537 25.7519 35.5446C25.5957 35.6247 25.6892 35.8128 25.6543 35.9022C25.4771 35.6371 24.7155 36.1565 24.6834 36.2953C24.6402 36.4802 24.802 36.5141 24.8132 36.6174C24.8173 36.6637 24.8104 36.713 24.8132 36.7608C24.682 36.7053 24.3347 37.049 24.2956 37.1184C24.0766 37.3188 24.0669 36.9719 23.8423 36.975C23.9692 36.4833 24.3752 35.8066 24.8132 35.6155C25.1187 35.4829 26.3322 35.3673 26.6907 35.4012H26.6921Z" fill="#F58547"/>
<path d="M26.692 35.1869V35.4012C26.3335 35.3673 25.1199 35.4829 24.8145 35.6154C25.2915 35.1206 26.0518 35.1129 26.692 35.1869Z" fill="#F3DB6E"/>
<path d="M28.8292 36.2598C29.5448 37.0181 29.5043 37.889 29.2825 38.9064C29.1221 39.6432 28.7538 40.2366 28.2461 40.7314C28.2628 40.8655 28.751 40.8686 28.8292 40.8393V40.9826C27.8806 40.9873 26.9293 40.9734 25.9807 40.9826C26.0044 40.9148 25.9305 40.4678 25.9165 40.4462C25.8454 40.3322 25.7812 40.5634 25.6571 40.3753C25.6459 40.3584 25.5608 40.0393 25.5273 39.9823C25.6571 39.4906 26.5735 39.7557 26.8539 39.1946C27.0855 39.1915 27.006 39.5553 27.0157 39.731C27.0939 39.6478 27.649 38.8586 27.663 38.8015C27.8067 38.2297 27.4021 37.3526 27.5333 36.7623C27.6895 36.0625 28.3618 36.343 28.8278 36.2613L28.8292 36.2598Z" fill="#DD242D"/>
<path d="M25.0097 38.692C24.799 38.5009 24.8032 38.2111 24.686 37.9768C24.8967 37.4404 24.8409 37.2862 24.8158 36.7606C24.813 36.7144 24.8199 36.6635 24.8158 36.6173C25.0027 36.7144 25.2691 36.5279 25.3988 36.403C25.516 36.5695 25.8634 36.4092 25.9819 36.3321C26.5915 36.2088 26.8259 37.8966 26.7589 38.2989C26.6306 39.0666 25.4407 39.0835 25.0111 38.692H25.0097Z" fill="#F26D6E"/>
<path d="M28.8292 40.8377C28.7525 40.867 28.2628 40.8639 28.2461 40.7298C28.7525 40.235 29.1221 39.6431 29.2825 38.9048C29.9605 39.1083 29.5099 39.395 29.3467 39.8712C29.3355 39.9036 29.528 39.8959 29.4764 40.0146C29.4555 40.0639 28.8752 40.8192 28.8292 40.8377Z" fill="#DD242D"/>
<path d="M28.8291 36.2597C28.3632 36.3414 27.6908 36.0609 27.5346 36.7607C27.1733 37.0813 27.2277 35.8605 27.4369 35.7588C28.1511 35.8035 28.2934 35.6925 28.8291 36.2597Z" fill="#EB3F4A"/>
<path d="M26.6278 35.6155C26.5078 35.7727 26.1075 36.2459 25.9805 36.3307C25.8634 36.4078 25.516 36.5696 25.3975 36.4016C25.7225 36.0871 25.5523 36.1704 25.6569 35.9006C25.6918 35.8112 25.5969 35.6232 25.7546 35.543C25.9289 35.4521 26.4186 35.6309 26.6292 35.6139L26.6278 35.6155Z" fill="#EC6757"/>
<path d="M24.8141 36.7607C24.8393 37.2863 24.8951 37.4404 24.6844 37.9768C24.1976 39.2177 23.9423 37.741 24.2966 37.1183C24.3357 37.0489 24.683 36.7052 24.8141 36.7607Z" fill="#F7B9AB"/>
<path d="M26.9512 33.9706C26.8536 33.8751 26.8982 33.8705 26.887 33.7564L28.5052 31.7896L26.9512 33.9722V33.9706Z" fill="#99C995"/>
<path d="M25.6568 35.9021C25.5522 36.1719 25.7224 36.0871 25.3974 36.4031C25.2677 36.5295 25.0012 36.716 24.8143 36.6173C24.8031 36.5141 24.6413 36.4802 24.6846 36.2952C24.7167 36.1565 25.4783 35.637 25.6554 35.9021H25.6568Z" fill="#F8A79C"/>
<path d="M35.4968 15.2982C34.2749 18.2237 37.9798 20.1012 39.3162 17.6596C39.3008 17.9494 39.6942 17.5008 39.704 17.4808C40.0387 16.7918 39.8937 15.8299 39.7681 15.0839C40.0583 15.719 40.1671 15.964 40.0918 16.7286C40.0164 17.4931 39.4668 18.3964 38.8935 18.8033C38.27 19.2457 37.5586 19.3274 36.8541 19.2318C35.0547 18.6476 34.2512 16.5945 35.3002 14.7957C35.3085 15.1317 35.0672 15.1718 35.4941 15.2966L35.4968 15.2982Z" fill="#EC6757"/>
<path d="M39.7708 15.0839C39.8963 15.83 40.0414 16.7918 39.7066 17.4808C39.6968 17.5009 39.3021 17.9494 39.3188 17.6596C40.9941 14.5999 36.7256 12.3633 35.4995 15.2982C35.0726 15.1733 35.314 15.1348 35.3056 14.7972C35.5985 14.2947 35.9152 13.971 36.4062 13.7244C37.8179 13.3329 39.0705 13.5456 39.7722 15.0839H39.7708Z" fill="#F58876"/>
<path d="M40.4182 16.8011C40.2648 18.8111 38.4988 19.7668 36.8569 19.2335C37.5614 19.3275 38.2728 19.2458 38.8963 18.805C39.4696 18.398 40.0192 17.4824 40.0946 16.7302L40.4182 16.8011Z" fill="#AA1F23"/>
<path d="M40.418 16.8011L40.0944 16.7302C40.1697 15.9641 40.0609 15.7205 39.7708 15.0855C39.0677 13.5471 37.8165 13.3344 36.4048 13.726C38.3423 12.7487 40.6035 14.3841 40.4194 16.8026L40.418 16.8011Z" fill="#DD242D"/>
<path d="M39.3178 17.6597C37.9801 20.1013 34.2751 18.2254 35.4985 15.2983C36.7246 12.3634 40.9945 14.6 39.3178 17.6597Z" fill="#EB3F4A"/>
<path d="M37.0191 15.7283C37.0303 15.7191 37.1837 15.9364 37.213 15.9426C37.6441 16.0274 37.6385 15.7314 37.6664 15.7283C37.9495 15.6929 37.983 16.8366 37.8603 16.8736C37.778 16.8983 37.2521 16.7164 36.9857 16.9815C36.9508 16.7873 36.9089 15.8224 37.0177 15.7299L37.0191 15.7283Z" fill="#F58876"/>
<path d="M37.4724 16.9446C37.5408 17.3931 37.6775 18.0035 37.5366 18.4475C37.4585 17.9835 37.3692 17.4085 37.4724 16.9446Z" fill="#EC6757"/>
<path d="M39.0263 16.5868C39.0835 16.5452 39.2718 16.593 39.3179 16.6947C39.2049 16.7995 38.8617 16.7101 39.0263 16.5868Z" fill="#F36F37"/>
<path d="M36.3075 17.5163C36.5363 17.4638 36.2768 17.8199 36.2434 17.803C36.1583 17.7598 36.2308 17.5348 36.3075 17.5163Z" fill="#F58547"/>
<path d="M36.1778 16.3712C36.3131 16.3866 36.4777 16.3326 36.5991 16.4066C36.5991 16.439 36.1708 16.5099 36.1778 16.3712Z" fill="#F29D6B"/>
<path d="M36.1123 15.2273C36.2281 15.3244 36.348 15.3182 36.242 15.514L36.1123 15.2273Z" fill="#F29D6B"/>
<path d="M39.0262 16.2293C39.2466 16.1013 39.3164 16.4034 39.0904 16.3726C39.0765 16.3711 38.9621 16.2663 39.0262 16.2293Z" fill="#F58876"/>
<path d="M38.5729 16.5145C38.6371 16.5222 38.8617 16.4883 38.8645 16.5499C38.8296 16.5977 38.5227 16.6378 38.5729 16.5145Z" fill="#F58547"/>
<path d="M36.8254 14.5831C36.9565 14.5538 36.9523 14.765 36.8895 14.7974C36.8644 14.8112 36.7263 14.6047 36.8254 14.5831Z" fill="#EFAA8F"/>
<path d="M37.1488 14.4397C37.2143 14.4628 37.2032 14.7064 37.0846 14.6539C36.987 14.6123 37.1265 14.432 37.1488 14.4397Z" fill="#F8A79C"/>
<path d="M37.0191 18.1606L37.0512 18.267L36.9549 18.304L36.9229 18.267L37.0191 18.1606Z" fill="#EFB274"/>
<path d="M39.0903 15.585L39.1559 15.6559V15.7283H39.0903V15.585Z" fill="#F29D6B"/>
<path d="M8.11176 25.3142C8.09502 25.4129 8.04759 25.3805 8.04759 25.3851C7.64027 25.6302 7.03487 25.4992 6.65545 25.5994C6.5327 25.6318 6.40855 25.8445 6.29974 25.8861C6.1728 25.1555 5.96077 24.5497 5.65249 23.8468C5.52555 23.557 5.09033 22.6507 4.93968 22.4164C4.78903 22.1821 4.84204 22.1682 4.61606 22.3085C4.5756 22.0942 4.59792 21.8245 4.48633 21.6287C4.59653 21.4854 4.577 21.5177 4.68022 21.6287C5.03733 22.011 5.38606 23.1747 5.68318 23.668L5.4572 21.843L5.58693 21.7721L6.26626 23.4537L6.33043 21.7366C6.46155 21.9046 6.83261 23.6834 6.9456 23.5616L7.20505 22.774L7.43103 24.169L7.81882 22.8094L7.94855 24.0256L8.5958 22.8803C8.48142 23.7081 8.24009 24.5528 8.11037 25.3127L8.11176 25.3142Z" fill="#3E9444"/>
<path d="M6.29812 25.8861C5.94102 26.0187 5.68156 25.8353 5.39141 26.3517L5.74712 26.3871C5.74851 26.7524 5.51974 26.2684 5.19612 26.6014L3.05908 24.5621C3.14278 24.3586 4.10947 25.0785 4.19177 25.2418C4.44983 25.2896 3.4399 24.075 3.67425 23.9548L4.74277 24.8488L4.06343 22.7386L5.03431 24.0257C5.15427 23.9887 4.63954 22.4503 4.61304 22.3085C4.83902 22.1683 4.7874 22.1837 4.93666 22.4164C5.08592 22.6492 5.52114 23.5571 5.64947 23.8469C5.95775 24.5482 6.16978 25.1555 6.29672 25.8861H6.29812Z" fill="#83C565"/>
<path d="M6.75168 29.1771C6.64566 29.3359 6.63311 29.8276 6.84932 29.8923C6.88699 29.9031 7.57469 29.5116 7.52866 29.8569C7.49378 30.1235 6.68891 29.8784 6.88141 30.7154C6.96092 30.8357 7.74626 30.6152 7.85228 30.4657C7.88576 30.6214 7.89552 30.6661 7.91645 30.8233C7.52308 30.8757 6.9665 30.8557 7.23711 31.3952C7.12691 31.4445 7.02927 31.0037 6.88141 30.9667C6.76144 30.7401 6.90093 30.5983 6.55778 30.6091C6.69169 29.9432 5.5604 30.3255 5.39301 30.0727C5.19772 29.7783 6.0305 29.9678 5.97609 29.8584L5.91193 29.2495C6.12954 29.2634 6.49361 28.9074 6.75307 29.1786L6.75168 29.1771Z" fill="#F3DB6E"/>
<path d="M7.85191 30.4656C7.7459 30.6151 6.96055 30.837 6.88104 30.7153C6.68854 29.8783 7.49342 30.1234 7.52829 29.8567C7.57432 29.5114 6.88662 29.9045 6.84896 29.8922C6.63274 29.8274 6.64669 29.3357 6.75131 29.1769C6.95079 28.8764 7.1126 28.9827 7.39856 28.8193C7.63152 29.049 7.48644 29.345 7.85191 29.4282C7.52271 29.7719 7.73335 29.923 7.85191 30.4656Z" fill="#F5D53B"/>
<path d="M7.39896 28.8193C7.113 28.9827 6.95119 28.8763 6.75171 29.1769C6.49086 28.9071 6.12678 29.2632 5.91057 29.2478C5.86732 29.2447 5.34004 29.0027 5.19775 28.9981C5.20333 28.8501 5.7348 28.8254 5.845 28.8193C6.20769 28.7962 6.43088 28.9811 6.46017 28.9626C6.5355 28.9133 6.4504 28.7206 6.52434 28.6759C6.55921 28.6559 7.26365 28.5942 7.30131 28.605C7.40454 28.6328 7.39059 28.8116 7.39896 28.8193Z" fill="#F6ED96"/>
<path d="M9.98894 32.2535C9.81178 32.2135 9.88292 32.3584 9.85921 32.3969C9.69461 32.6713 9.37796 32.7899 9.08223 32.8254C9.04736 32.7283 9.0376 32.3676 9.01807 32.3244C9.0906 31.9576 9.33472 32.01 9.60115 31.8235C9.85921 32.0485 9.84666 32.0901 9.98894 32.252V32.2535Z" fill="#CFA62B"/>
<path d="M7.91785 30.8233C7.9318 30.9235 8.11872 31.0037 8.04758 31.2164C8.01689 31.3073 7.32222 31.6279 7.23852 31.6094C7.04462 31.5694 6.96511 31.1208 6.88281 30.9651C7.03068 31.0037 7.12832 31.4445 7.23852 31.3936C6.9679 30.8541 7.52588 30.8742 7.91785 30.8218V30.8233Z" fill="#F5D53B"/>
<path d="M9.47165 31.4659C9.47025 31.4782 9.35168 31.6678 9.34192 31.6802C9.30147 31.7372 9.03782 31.8204 8.98621 31.9669C8.65701 31.8805 8.83835 31.6308 8.56494 31.4305C8.81324 31.2609 9.0448 31.0883 9.27775 30.894C9.40748 31.0312 9.50234 31.2686 9.47165 31.4659Z" fill="#F5D53B"/>
<path d="M8.30521 27.9608C8.2271 28.2383 7.72213 28.5312 7.62588 28.4618C7.60217 28.4448 7.45012 27.9593 7.3999 27.8899C7.63007 27.7697 7.83233 27.6063 8.04715 27.4614L8.30661 27.9624L8.30521 27.9608Z" fill="#F5D53B"/>
<path d="M9.85952 30.5366C10.0102 30.8511 9.99762 31.0669 9.79535 31.3243C9.75629 31.3736 9.76606 31.4306 9.66562 31.4676C9.61959 31.4846 9.53171 31.4568 9.47173 31.4676C9.50242 31.2688 9.40617 31.0314 9.27783 30.8958C9.40477 30.7894 9.74792 30.643 9.86091 30.5382L9.85952 30.5366Z" fill="#CFA62B"/>
<path d="M6.81693 27.1023C6.93131 27.7605 7.1015 27.4799 7.40001 27.89C7.45162 27.9609 7.60228 28.4449 7.62599 28.4618C7.72364 28.5312 8.22721 28.2383 8.30532 27.9609C8.32485 27.8915 8.27045 27.6063 8.33741 27.6033C8.40994 28.2537 8.62616 28.0256 8.98466 27.7466C9.14507 27.7235 9.0558 27.9038 9.0823 27.9609C8.39041 28.263 9.06975 28.7239 8.75868 29.1416C8.89259 29.2633 9.05161 28.9813 9.0823 28.9628C9.16739 28.9119 9.29433 28.7485 9.30828 28.7485C9.34734 28.747 9.4408 28.9289 9.47009 28.9628C9.37384 29.3265 8.76286 29.2988 8.7252 29.3204C8.65685 29.3589 8.72938 29.4976 8.66103 29.5346C8.16862 29.7998 7.73201 29.4684 8.20768 30.4641C8.55223 30.4703 8.87585 29.9077 8.92049 29.8922C8.95536 29.8799 9.18692 30.2591 9.53566 29.7489C9.73653 29.7042 9.59564 29.9385 9.56774 29.9631C9.23853 30.2699 8.95955 29.994 9.24411 30.6075C9.40593 30.7246 10.2917 29.6348 10.3126 29.9986C10.208 30.3177 10.0378 30.182 9.85928 30.3562C9.84115 30.3732 9.87462 30.5211 9.85928 30.535C9.74629 30.6398 9.40314 30.7863 9.2762 30.8926C9.04324 31.0884 8.81168 31.2595 8.56339 31.429C8.8354 31.6294 8.65545 31.8791 8.98466 31.9654C9.03627 31.8205 9.30131 31.7358 9.34036 31.6787C9.59006 31.4645 9.5775 31.8036 9.59982 31.8221C9.33478 32.0086 9.08928 31.9562 9.01674 32.323C9.01116 32.3107 8.85911 32.2398 8.85493 32.1088L8.75728 32.2167C8.71683 32.6221 8.86748 32.9226 8.88701 33.325C8.78239 33.3142 8.66661 33.3404 8.56339 33.325C8.18117 33.2664 7.83663 32.9381 7.65668 32.8964L7.4307 32.5388C7.4307 32.8471 7.23262 32.844 7.13916 32.9674C7.02059 33.1261 7.11405 33.2571 7.04151 33.325C6.96898 33.3928 6.6593 33.1508 6.62024 33.3604C6.577 33.5932 6.91458 33.493 7.20333 33.5392C7.06523 33.8043 6.64954 33.6101 6.49052 33.6826C6.25477 33.3943 6.00368 33.0429 5.71354 32.824C5.74981 32.1704 5.51825 31.3751 5.38991 30.6784C5.60334 30.6105 5.86558 30.7477 6.03716 30.7493C5.95765 31.2965 6.74858 30.9296 6.87831 30.9635C6.96061 31.1192 7.04012 31.5678 7.23401 31.6078C7.31771 31.6248 8.01239 31.3057 8.04308 31.2148C8.11422 31.0021 7.9273 30.9204 7.91335 30.8217C7.89242 30.6645 7.88266 30.6198 7.84918 30.4641C7.73061 29.9215 7.51998 29.7705 7.84918 29.4267C7.48371 29.345 7.62878 29.0476 7.39583 28.8179C7.38746 28.8102 7.40141 28.6298 7.29818 28.6036C7.26052 28.5928 6.55608 28.6545 6.5212 28.6745C6.44727 28.7177 6.53097 28.9104 6.45704 28.9612C6.42774 28.9797 6.20455 28.7963 5.84187 28.8179C5.81397 28.2029 5.58799 28.3524 5.25879 28.0672C5.28669 27.9701 6.12504 27.9485 6.19758 27.8884C6.26314 27.8345 6.03995 27.4491 6.48912 27.1732C6.51283 27.1578 6.743 27.1408 6.81274 27.1023H6.81693Z" fill="#F3DB6E"/>
<path d="M9.53536 29.7505C9.18663 30.2591 8.95507 29.8815 8.9202 29.8938C8.87556 29.9092 8.55194 30.4734 8.20739 30.4657C7.73172 29.4699 8.16833 29.7998 8.66074 29.5362C8.72909 29.4992 8.65656 29.3605 8.72491 29.322C8.76257 29.3004 9.37355 29.3281 9.4698 28.9644C9.65812 29.1848 9.72508 29.473 9.53397 29.752L9.53536 29.7505Z" fill="#ECBC2E"/>
<path d="M8.92055 30.3223C9.10468 30.4178 9.18977 30.5627 9.14653 30.7878C8.83964 30.7831 8.61506 31.2826 8.40164 31.1099C8.02082 30.4394 8.57321 30.6907 8.91916 30.3223H8.92055Z" fill="#F5D53B"/>
<path d="M9.08227 28.9629C9.05158 28.9813 8.89256 29.2634 8.75865 29.1417C9.06972 28.7255 8.39038 28.2631 9.08227 27.9609C9.14225 28.0889 9.08925 28.3078 9.27617 28.354L9.08227 28.9629Z" fill="#CFA62B"/>
<path d="M6.88094 30.9666C6.74981 30.9327 5.96028 31.298 6.03979 30.7523C6.32296 30.7554 6.53081 30.6105 6.55731 30.609C6.90047 30.5982 6.76097 30.7415 6.88094 30.9666Z" fill="#F6ED96"/>
<path d="M7.65815 32.8981C7.63304 32.892 7.21874 33.0122 7.14062 32.969C7.23409 32.8442 7.43217 32.8473 7.43217 32.5405L7.65815 32.8981Z" fill="#CFA62B"/>
<path d="M8.27314 32.8257C8.35544 32.8041 8.54655 32.8134 8.62885 32.8612C8.4782 33.0199 8.27035 33.077 8.11133 32.9321C8.16015 32.9259 8.24943 32.8303 8.27314 32.8242V32.8257Z" fill="#CFA62B"/>
<path d="M10.0533 32.5403C10.0157 32.5681 10.1565 32.6313 10.0854 32.6837C9.94033 32.79 9.39491 32.8856 9.34051 33.1122C8.99457 33.0582 9.16196 33.0505 9.08105 32.8255C9.37678 32.7885 9.69343 32.6698 9.85803 32.397L10.0519 32.5403H10.0533Z" fill="#F3DB6E"/>
<path d="M10.572 29.7505C10.7464 30.1219 11.0951 30.5381 11.2849 30.9666C11.3672 31.1516 11.4397 31.5416 11.5443 31.7543C11.5345 31.7682 11.5541 31.8067 11.5443 31.8252L11.1886 31.1809C11.1551 31.1963 11.1328 31.3489 11.091 31.3951C11.0073 31.4892 10.7101 31.7605 10.7032 31.7882C10.6669 31.9069 10.8301 31.9562 10.8329 31.967C10.8594 32.0626 11.07 32.6082 11.1244 32.6113L11.5457 31.8961C11.5401 32.0086 11.6447 31.95 11.6754 31.967C11.6308 32.5219 11.9628 32.9997 12.0632 33.5408C11.7619 33.3173 10.6976 32.9073 10.3475 32.8965C10.0406 32.8872 9.65557 33.1601 9.3445 33.1107C9.3989 32.8841 9.94432 32.7886 10.0894 32.6822C10.1605 32.6298 10.0196 32.5666 10.0573 32.5389C10.2066 32.4279 10.7311 32.4279 10.6404 32.0025C10.2805 31.9778 10.3 32.6005 9.99314 32.2522C9.84946 32.0903 9.86341 32.0472 9.60535 31.8237C9.58443 31.8052 9.59559 31.466 9.34589 31.6803C9.35566 31.6664 9.47283 31.4784 9.47562 31.466C9.5356 31.4553 9.62349 31.483 9.66952 31.466C9.71137 32.2213 10.971 30.4426 9.79925 31.3227C10.0029 31.0653 10.0155 30.8495 9.86341 30.535C9.87876 30.5212 9.84528 30.3732 9.86341 30.3562C10.042 30.1821 10.2121 30.3177 10.3168 29.9986C10.2958 29.6349 9.41146 30.7231 9.24825 30.6075C8.96508 29.9955 9.24267 30.2715 9.57187 29.9632C9.59977 29.937 9.74066 29.7042 9.53979 29.7489C9.7295 29.4715 9.66394 29.1817 9.47562 28.9613C9.44633 28.9273 9.35287 28.7439 9.31381 28.747C9.29847 28.747 9.17153 28.9119 9.08783 28.9613L9.28173 28.3524C9.09341 28.3062 9.14781 28.0857 9.08783 27.9593C9.06133 27.9023 9.152 27.722 8.99019 27.7451C8.63169 28.0241 8.41547 28.2538 8.34294 27.6017C8.27598 27.6048 8.33038 27.89 8.31085 27.9593L8.0514 27.4584C8.06116 27.4507 8.0221 27.3597 8.08348 27.315C8.11417 27.2919 8.62192 27.4753 8.56892 26.922C8.39873 27.0669 8.16996 27.09 7.98583 27.1717L7.79194 26.5998C7.94399 26.4827 8.37084 26.3563 8.24529 26.1343C8.15602 25.9771 7.57154 26.6923 7.59804 26.0989C8.02071 26.1405 7.52272 25.9247 7.75985 25.6704C8.44058 26.0881 7.91888 25.6395 7.92167 25.5625C7.92167 25.5347 8.03884 25.4761 8.0514 25.3836C8.0514 25.379 8.09882 25.4099 8.11556 25.3127C9.27894 26.3547 10.0043 27.7805 10.5762 29.2834C10.586 29.3096 10.4158 29.4052 10.5762 29.7489L10.572 29.7505Z" fill="#CFA62B"/>
<path d="M11.5429 31.8252C11.5331 31.8437 11.5513 31.8776 11.5429 31.8961L11.1216 32.6113C11.0672 32.6083 10.8566 32.0626 10.8301 31.967C11.3071 32.0395 11.2681 31.7589 11.0895 31.3952C11.1314 31.3489 11.1537 31.1963 11.1872 31.1809L11.5429 31.8252Z" fill="#CFA62B"/>
<path d="M9.3417 27.4599C9.29986 27.5324 9.2315 27.6449 9.14781 27.6742C9.12967 27.6541 8.99855 27.7127 8.95391 27.6387C8.93578 27.6094 8.76978 26.996 8.7921 26.959C9.21755 26.905 9.6458 26.9451 9.3431 27.4599H9.3417Z" fill="#CFA62B"/>
<path d="M9.66553 31.466C9.76596 31.429 9.7562 31.3719 9.79526 31.3226C10.9684 30.4425 9.70738 32.2213 9.66553 31.466Z" fill="#F5D53B"/>
<path d="M10.83 31.9669C10.8272 31.9561 10.6654 31.9068 10.7002 31.7881C10.7086 31.7603 11.0043 31.489 11.088 31.395C11.2666 31.7588 11.3056 32.0409 10.8286 31.9669H10.83Z" fill="#DBC026"/>
<path d="M10.2149 29.0337C10.4576 29.268 10.0713 29.3836 10.0531 29.4268C10.0364 29.4653 10.427 30.0711 9.72949 29.5701L10.2149 29.0337Z" fill="#F5D53B"/>
<path d="M10.0533 32.5403L9.85938 32.3969C9.88309 32.3584 9.81055 32.2135 9.9891 32.2536C10.296 32.602 10.2765 31.9792 10.6364 32.0039C10.727 32.4293 10.2025 32.4293 10.0533 32.5403Z" fill="#F5D53B"/>
<path d="M10.604 30.6798C10.8523 30.6706 10.809 31.1792 10.604 31.1808C10.2929 31.1808 10.3557 30.6891 10.604 30.6798Z" fill="#F5D53B"/>
<path d="M9.14795 27.6758C9.23165 27.6465 9.3 27.5324 9.34184 27.4615C9.65152 27.4538 9.48413 27.85 9.37393 27.9625C9.20375 27.9949 9.15911 27.6897 9.14795 27.6758Z" fill="#F5D53B"/>
<path d="M9.69757 28.4619C10.0268 28.431 9.81614 28.912 9.6334 28.8904C9.39208 28.8626 9.56923 28.4727 9.69757 28.4619Z" fill="#F5D53B"/>
<path d="M8.04715 25.3852C8.0346 25.4776 7.91882 25.5362 7.91742 25.564C7.91463 25.641 8.43634 26.088 7.75561 25.6719C7.51847 25.9277 8.01646 26.1435 7.5938 26.1004C7.58543 26.1004 7.538 25.9108 7.46407 25.9925L7.5938 26.1004C7.5673 26.6938 8.15317 25.9801 8.24105 26.1358C8.36659 26.3562 7.93974 26.4842 7.7877 26.6013C7.35945 26.9312 6.88517 26.9836 7.56172 27.5308C7.66773 27.4614 7.91742 27.2025 7.98299 27.1732C8.16712 27.09 8.39589 27.0668 8.56607 26.9235C8.61908 27.4769 8.11132 27.295 8.08063 27.3165C8.01926 27.3612 8.05831 27.4522 8.04855 27.4599C7.83373 27.6048 7.63146 27.7682 7.4013 27.8884C7.10418 27.4799 6.934 27.7589 6.81822 27.1008C6.81403 27.0792 7.12789 26.9913 6.78613 26.814L6.33278 26.9574L6.49459 27.1717C6.04542 27.4476 6.26861 27.8329 6.20305 27.8869C6.13052 27.947 5.29216 27.9686 5.26426 28.0657C5.59347 28.3508 5.81944 28.2013 5.84734 28.8163C5.73714 28.8225 5.20567 28.8472 5.20009 28.9951C5.34238 28.9998 5.86827 29.2433 5.91291 29.2448L5.97707 29.8537C6.03287 29.9631 5.20009 29.7736 5.39399 30.068C5.56138 30.3207 6.69267 29.9385 6.55876 30.6044C6.53226 30.6044 6.32302 30.7508 6.04124 30.7477C5.86966 30.7462 5.60741 30.609 5.39399 30.6768C5.27403 30.0263 4.85973 28.3231 4.87647 27.779C4.88902 27.3643 5.14151 27.0252 5.20009 26.5983C5.52232 26.2653 5.75249 26.7493 5.75109 26.384L5.39539 26.3485C5.68553 25.8322 5.94499 26.0171 6.30209 25.883C6.4109 25.843 6.53644 25.6302 6.6578 25.5963C7.03722 25.4946 7.64262 25.6272 8.04994 25.3821L8.04715 25.3852Z" fill="#F3DB6E"/>
<path d="M6.81698 27.1024C6.74723 27.1409 6.51707 27.1594 6.49336 27.1733L6.33154 26.959L6.7849 26.8157C7.12666 26.9929 6.81419 27.0808 6.81698 27.1024Z" fill="#F3DB6E"/>
<path d="M7.98155 27.1746C7.91599 27.2039 7.66769 27.4629 7.56028 27.5323C6.88513 26.9835 7.35941 26.9326 7.78626 26.6028L7.98015 27.1746H7.98155Z" fill="#F5D53B"/>
<path d="M5.61847 26.9589C5.638 26.9543 5.88351 27.0652 6.00626 26.9589C6.21271 27.8082 4.60017 27.2255 5.61847 26.9589Z" fill="#F6ED96"/>
<path d="M7.5936 26.1018L7.46387 25.9939C7.5378 25.9123 7.58523 26.1003 7.5936 26.1018Z" fill="#CFA62B"/>
<path d="M19.765 28.1751C20.1556 28.4171 20.5197 28.6406 20.8656 28.9628C20.8517 29.5208 21.4403 30.1065 21.4487 30.7508C21.4557 31.3319 20.9423 31.9223 21.1251 32.5034C20.655 32.0009 20.9995 33.4082 20.9953 33.7196L20.7694 33.0398L20.5434 33.755C20.5434 33.3219 20.5085 32.3462 20.4137 31.8945C20.3718 31.6941 20.2867 31.5107 20.2198 31.3227C20.0454 30.8294 19.7692 30.4641 19.507 30.0356C19.4595 29.957 19.4316 29.903 19.3772 29.8213C19.3605 29.7967 19.3284 29.7011 19.3131 29.678C19.7232 29.2048 19.1387 28.9581 18.7955 28.7115C18.6993 28.6422 18.6198 28.4634 18.6016 28.747C18.3157 28.4757 18.1162 28.4279 17.8247 28.246C17.7744 28.2152 17.7521 28.1289 17.5652 28.0318C15.8466 27.127 13.4027 26.7678 11.8027 28.1027C12.3942 26.1574 14.5828 25.1339 16.2372 26.1713C16.533 26.3562 17.1439 27.2194 17.2081 27.2441C17.3797 27.3088 17.9321 27.2287 18.2445 27.315C18.405 27.3597 19.5572 28.0441 19.7664 28.1736L19.765 28.1751Z" fill="#75BA6D"/>
<path d="M21.9019 30.6073C21.7652 30.8601 21.6662 30.6536 21.4486 30.7507C21.4402 30.1064 20.8515 29.5206 20.8655 28.9626C21.3816 29.4436 21.7248 29.8721 21.9019 30.6073Z" fill="#51A646"/>
<path d="M19.3114 29.678C19.052 29.3065 18.9404 29.0722 18.5986 28.7485C18.6168 28.4633 18.6977 28.6437 18.7925 28.713C19.1371 28.9597 19.7216 29.2063 19.31 29.6795L19.3114 29.678Z" fill="#51A646"/>
<path d="M21.5129 34.7569C21.5088 34.78 21.5185 34.8062 21.5129 34.8278C21.3944 35.338 20.3844 35.9962 19.959 36.1873C20.6565 35.7264 20.4486 35.0436 20.4765 34.3268C20.4779 34.2791 20.4765 34.2313 20.4765 34.1835C20.4765 34.1326 20.5421 33.9276 20.5407 33.755L20.7666 33.0398L20.9926 33.7195C20.9968 33.4082 20.6523 32.0009 21.1224 32.5034C20.941 31.9222 21.453 31.3319 21.446 30.7508C21.6636 30.6552 21.7626 30.8602 21.8993 30.6074C22.2829 32.2059 21.7054 32.2691 21.5115 33.4328C21.4488 33.8089 21.5743 34.3792 21.5115 34.7569H21.5129Z" fill="#3E9444"/>
<path d="M20.9633 33.8984C21.2144 33.7458 21.1279 34.5411 21.093 34.5427C21.1209 34.4132 20.8977 33.9384 20.9633 33.8984Z" fill="#71A65F"/>
<path d="M17.5637 28.0333C17.5958 28.3971 17.3684 28.6715 17.0462 28.6776C15.94 27.8607 14.5562 27.3936 13.3231 27.89C13.3091 27.8961 13.1362 28.0534 13.1933 28.1042C13.3956 28.0472 13.7304 28.132 13.9062 28.1042C13.9313 28.0996 13.9661 27.8961 14.0359 27.89C14.1628 27.8776 15.9079 27.9578 15.5243 28.1767L14.8449 28.2476C14.2619 28.2368 12.3131 28.5451 11.9644 28.9628C11.5655 29.4406 12.4973 29.1478 12.5154 29.3559C12.0551 29.7813 12.3257 30.3408 12.1276 31.0005C11.91 31.0052 11.7691 30.9605 11.5445 30.9651C11.4162 30.9682 11.4064 30.8618 11.2851 30.9651C11.0968 30.5366 10.7466 30.1204 10.5723 29.7489C10.9266 29.1586 11.2851 28.5358 11.8026 28.1042C13.4026 26.7678 15.8465 27.1285 17.5651 28.0333H17.5637Z" fill="#DEE9A3"/>
<path d="M17.8229 28.2476C18.1144 28.4279 18.3139 28.4757 18.5999 28.7485C18.9416 29.0738 19.0518 29.3065 19.3127 29.678C19.3294 29.7011 19.3601 29.7951 19.3769 29.8213C18.9165 29.7843 19.3852 30.9697 19.0211 30.8233C18.5901 30.0849 17.8912 29.4052 17.2412 28.8919C17.4602 28.5327 17.4267 28.8842 17.6946 28.784C17.3514 28.7131 17.5899 28.2969 17.8243 28.2476H17.8229Z" fill="#DEE9A3"/>
<path d="M19.507 30.0355C19.7678 30.4656 20.044 30.8294 20.2198 31.3226C20.1877 31.6864 20.2016 32.38 19.832 32.5742C19.5558 31.5954 19.1052 31.0991 19.3145 29.9985L19.5084 30.034L19.507 30.0355Z" fill="#DEE9A3"/>
<path d="M20.4121 31.8961C20.5055 32.3477 20.5404 33.3234 20.5418 33.7566C20.5418 33.9292 20.479 34.1357 20.4777 34.1851L20.0899 34.4348C20.1317 33.5392 19.7425 32.6128 20.4135 31.8945L20.4121 31.8961Z" fill="#C1DB7A"/>
<path d="M17.8234 28.2477C17.589 28.297 17.3519 28.7132 17.6936 28.7841C17.4258 28.8828 17.4607 28.5329 17.2403 28.892C17.1482 28.8196 17.0687 28.6947 17.0464 28.6778C17.3686 28.6716 17.596 28.3972 17.5639 28.0334C17.7508 28.1321 17.7718 28.2169 17.8234 28.2477Z" fill="#E5EEBE"/>
<path d="M11.9964 31.6819C12.472 31.722 13.037 31.6511 13.5182 31.611C13.4178 31.9902 13.9186 33.6611 14.1334 33.8646C14.3092 34.0326 15.2507 34.0819 15.46 34.401C16.0486 34.2222 16.0333 32.67 16.1072 32.613C16.1867 32.5513 17.8788 32.4388 18.049 32.4696C18.4298 32.539 18.9655 32.9752 19.2472 33.2573C19.2291 33.4422 19.2835 33.9848 19.0533 34.1513C18.713 34.3964 17.9388 33.1201 18.6 33.006C18.6139 32.7178 17.5119 33.3374 17.4994 33.4345C18.0392 33.5594 17.5691 33.8307 17.5635 33.863C17.5524 33.9262 17.6598 34.2715 17.4659 34.4719C17.452 34.4873 17.1046 34.4565 17.0781 34.4719C16.4643 34.8264 15.9538 35.3659 15.2326 35.5093C15.8185 35.6465 16.2649 35.127 16.7866 34.9004C16.8912 35.48 17.3571 36.021 16.6568 36.4033C16.5676 36.3802 16.4643 36.3 16.3332 36.2599C16.276 36.243 16.2607 36.206 16.2035 36.189C15.9175 36.1012 14.4277 35.4507 14.3259 35.5802C14.3106 35.6002 14.1348 36.0195 14.132 36.0457H14.0678V35.1517L14.4556 35.4384C14.3189 35.1871 14.3147 34.9497 14.2617 34.6877C14.1794 34.2777 14.3789 33.7382 13.5824 33.9C13.3718 33.9432 13.1556 34.3671 13.0314 34.5443L12.6436 33.4361C13.5071 33.413 12.546 33.0276 12.2879 32.7563C12.1177 32.5775 11.8736 32.0858 11.6727 31.9687C11.6421 31.9517 11.5388 32.0103 11.543 31.8977C11.5514 31.8793 11.5332 31.8438 11.543 31.8268C11.5528 31.8099 11.5332 31.7698 11.543 31.7559C11.6169 31.6542 11.61 31.5525 11.6407 31.5417C11.6909 31.5232 11.7746 31.6665 11.9964 31.685V31.6819Z" fill="#DEE9A3"/>
<path d="M13.0317 34.5427C13.0247 34.552 13.022 34.6845 12.9675 34.757C12.6621 34.2869 12.5156 33.8784 12.0608 33.5408C11.9604 32.9998 11.6284 32.5219 11.673 31.967C11.8739 32.0842 12.118 32.5759 12.2882 32.7547C12.5463 33.026 13.5088 33.4113 12.6439 33.4345L13.0317 34.5427Z" fill="#93A650"/>
<path d="M11.5431 30.9667C11.6854 31.0962 12.3243 31.443 11.9965 31.6819C11.7747 31.6634 11.691 31.5216 11.6408 31.5385C11.6115 31.5493 11.6185 31.6511 11.5431 31.7528C11.4399 31.5416 11.366 31.1517 11.2837 30.9651C11.4037 30.8619 11.4148 30.9682 11.5431 30.9651V30.9667Z" fill="#C1DB7A"/>
<path d="M14.8447 28.2477C15.0135 28.2507 16.0457 28.2985 16.1071 28.3186C16.188 28.3463 17.4518 29.4068 17.4337 29.4993L14.4876 29.6072C14.1835 30.0265 13.8906 29.581 13.613 30.0002C15.4041 29.8245 17.6192 28.855 18.6626 31.0731C18.9639 31.7127 18.5204 31.2642 18.5329 31.5016C18.5357 31.5463 19.0002 31.9054 19.116 32.1459C19.3043 32.5389 19.2834 32.8472 19.2457 33.2542C18.9653 32.9721 18.4283 32.5374 18.0475 32.4665C17.8773 32.4357 16.1852 32.5482 16.1057 32.6098C16.0318 32.6669 16.0471 34.2206 15.4585 34.3979C15.2492 34.0788 14.3077 34.0295 14.1319 33.8615C13.9171 33.658 13.4163 31.9871 13.5167 31.6079C13.0369 31.648 12.4705 31.7205 11.9949 31.6788C12.3227 31.4384 11.6838 31.0931 11.5415 30.9636C11.7647 30.959 11.907 31.0037 12.1246 30.9991C12.3241 30.3378 12.0534 29.7798 12.5124 29.3544C12.4956 29.1463 11.5624 29.4392 11.9614 28.9613C12.3101 28.5436 14.2602 28.2353 14.8419 28.2461L14.8447 28.2477Z" fill="#DEE9A3"/>
<path d="M19.9589 36.1888C19.7189 36.2967 19.493 36.3353 19.2461 36.4031C19.0731 35.9993 19.44 35.6386 19.44 35.2578C20.0551 35.4259 19.9073 34.595 20.4764 34.3284C20.4485 35.0451 20.6563 35.728 19.9589 36.1888Z" fill="#E5EEBE"/>
<path d="M19.4414 35.2579C19.4414 35.6371 19.0746 35.9994 19.2475 36.4032C18.5305 36.6005 17.9935 36.6699 17.2402 36.5466C17.2612 35.688 17.7605 35.9007 18.1469 35.688C18.4664 35.5123 18.6603 34.609 18.8918 34.5427C19.2001 34.4564 19.4414 34.962 19.4428 35.2579H19.4414Z" fill="#C1DB7A"/>
<path d="M18.1465 35.688C17.7615 35.9008 17.2607 35.688 17.2398 36.5466C17.0487 36.5142 16.8464 36.4526 16.6567 36.4033C17.357 36.0225 16.8897 35.4815 16.7865 34.9004C17.4114 34.6291 17.9791 34.2977 18.6961 34.3994L18.7603 34.5428L18.1451 35.688H18.1465Z" fill="#DEE9A3"/>
<path d="M17.0459 28.6761C17.0683 28.693 17.1478 28.8179 17.2398 28.8903C17.8899 29.4036 18.5887 30.0849 19.0198 30.8217C19.3838 30.9697 18.9151 29.7844 19.3755 29.8198C19.4299 29.9015 19.4578 29.957 19.5052 30.0341L19.3113 29.9986C19.1021 31.0992 19.554 31.5955 19.8288 32.5743C20.1985 32.3801 20.1845 31.6865 20.2166 31.3227C20.2836 31.5107 20.3687 31.6942 20.4105 31.8945C19.7396 32.6113 20.1287 33.5392 20.0869 34.4348L20.4747 34.1851C20.4747 34.2329 20.4761 34.2806 20.4747 34.3284C19.9055 34.5966 20.0548 35.4275 19.4382 35.2579C19.4382 34.962 19.1969 34.4564 18.8872 34.5427C18.6557 34.6074 18.4618 35.5107 18.1424 35.688L18.7575 34.5427L18.6933 34.3993C17.9764 34.2976 17.4072 34.629 16.7837 34.9003C16.2634 35.1269 15.8156 35.6463 15.2297 35.5091C15.9495 35.3658 16.4615 34.8263 17.0752 34.4718C17.1017 34.4564 17.4491 34.4872 17.463 34.4718C17.6569 34.2714 17.5495 33.9261 17.5607 33.8629C17.5662 33.8306 18.0363 33.5577 17.4965 33.4344C17.5091 33.3373 18.611 32.7177 18.5971 33.0059C17.9359 33.12 18.7101 34.3963 19.0505 34.1512C19.282 33.9847 19.2276 33.4421 19.2443 33.2572C19.2834 32.8487 19.3029 32.5419 19.1146 32.1489C19.0002 31.9084 18.5343 31.5508 18.5315 31.5046C18.519 31.2657 18.9612 31.7142 18.6613 31.0761C17.6179 28.8564 15.4027 29.8275 13.6116 30.0032C13.8878 29.584 14.1807 30.0294 14.4862 29.6102L17.4323 29.5023C17.4505 29.4098 16.1867 28.3493 16.1057 28.3216C16.0444 28.3 15.0121 28.2537 14.8433 28.2507L15.5227 28.1798C15.9049 27.9609 14.1612 27.8807 14.0343 27.8931C13.9659 27.8992 13.9297 28.1042 13.9045 28.1073C13.7288 28.1351 13.394 28.0503 13.1917 28.1073C13.1345 28.0564 13.3075 27.8977 13.3215 27.8931C14.5546 27.3967 15.9384 27.8622 17.0445 28.6807L17.0459 28.6761Z" fill="#E5EEBE"/>
<path d="M17.9849 33.3264L18.6322 34.2559L17.6934 34.2204C17.7254 34.0278 17.805 33.3387 17.9849 33.3264Z" fill="#DEE9A3"/>
<path d="M19.3448 33.8274C19.5108 33.8366 19.5721 34.9465 19.0532 34.2929L19.3448 33.8274Z" fill="#DEE9A3"/>
<path d="M2.3812 28.6761C3.83751 28.3647 3.32278 30.9435 1.9934 30.3208C1.19411 29.9478 1.81346 28.7963 2.3812 28.6761Z" fill="#9ABF43"/>
<path d="M2.80246 32.9689C2.95311 33.6055 2.71597 33.3157 2.67273 33.4344C2.64483 33.5114 2.86523 33.5299 2.86662 33.5423C2.93776 33.8922 2.2682 35.3103 2.57508 35.5461C2.5974 35.563 2.89313 35.1777 2.99635 35.617C2.81222 35.9099 2.8457 36.2798 2.80246 36.3677C2.71597 36.5418 2.53881 36.4016 2.41466 36.5819C2.37979 36.6328 2.30725 37.163 2.28494 37.2262C2.13847 37.6439 2.01571 37.9445 1.89714 38.3715C1.76742 38.8324 1.90412 39.2424 1.37962 39.6956C3.44551e-05 38.1249 -0.569098 35.4459 0.73098 33.6132C0.839785 33.8336 0.587302 33.9415 0.990437 33.8999C0.917901 34.0633 0.792357 34.8247 1.02252 34.8293C1.0825 34.8309 1.55539 34.0586 1.63769 33.9353C1.71162 33.8228 1.69209 33.5577 1.70185 33.5423C1.89714 33.2571 2.31841 33.254 2.41466 32.8979C2.54858 32.9488 2.66575 32.9103 2.80246 32.9689Z" fill="#CECB36"/>
<path d="M3.70935 35.1868C2.92121 35.9175 3.29645 36.8762 3.19183 37.6901C3.13603 38.1263 2.79707 38.2188 2.73848 38.4408C2.60177 38.9587 3.00352 39.9745 2.41485 40.5509C1.99079 40.2935 1.71739 40.0777 1.37842 39.6924C1.90291 39.2392 1.76621 38.8292 1.89594 38.3683C2.0159 37.9429 2.13726 37.6423 2.28373 37.223C2.30605 37.1598 2.37859 36.6296 2.41346 36.5787C2.53761 36.3984 2.71616 36.5387 2.80125 36.3645C2.84589 36.2751 2.81101 35.9067 2.99515 35.6138C3.27971 35.1591 3.45408 35.3271 3.70796 35.1853L3.70935 35.1868Z" fill="#9ABF43"/>
<path d="M5.06911 40.5525V40.8392C5.06213 40.8392 5.10119 40.9101 4.93938 40.9101C4.87521 40.9101 4.80965 40.9101 4.74549 40.9101C4.53485 40.5386 4.23912 40.7421 3.96851 40.9101C3.63093 40.9147 3.3366 40.9209 2.99763 40.9101C2.80932 40.7837 2.60845 40.6697 2.41455 40.5525C3.00321 39.9745 2.60147 38.9587 2.73818 38.4423C2.79676 38.2204 3.13573 38.1279 3.19153 37.6917C3.41053 38.8092 3.97409 40.2242 5.06911 40.5525Z" fill="#51A646"/>
<path d="M5.71633 32.8255C6.00648 33.0444 6.25757 33.3958 6.49331 33.6841C6.42914 33.7134 6.03996 34.2405 6.00787 34.2559C5.72191 34.3931 5.32994 34.3423 4.87519 34.5426C4.79149 34.5796 4.74685 34.703 4.68129 34.6505C5.14022 34.1157 4.52924 33.459 4.4874 33.2201C4.44136 32.9581 4.71477 32.9858 4.64921 32.898C4.47205 32.6606 3.3031 32.824 2.99761 32.7546C2.85811 32.6221 2.87485 32.5511 2.80371 32.4679C3.80527 31.9053 4.82079 32.1488 5.71773 32.8255H5.71633Z" fill="#51A646"/>
<path d="M1.70176 32.6822C2.06444 32.639 2.14674 32.7947 2.41457 32.8964C2.31832 33.2525 1.89705 33.2556 1.70176 33.5408C1.47439 33.3157 1.0866 33.6764 0.98895 33.8984C0.587209 33.94 0.838297 33.8321 0.729492 33.6117C1.12984 33.046 1.12426 33.0244 1.70037 32.6822H1.70176Z" fill="#F3DB6E"/>
<path d="M2.80234 32.4678C2.87348 32.5511 2.85674 32.6204 2.99624 32.7545C3.29754 33.0412 3.48168 33.2247 3.90294 33.22C3.78298 33.2586 3.70765 33.3665 3.64349 33.4697C3.58769 33.126 3.0618 33.5869 2.86651 33.5406C2.86372 33.5283 2.64471 33.5098 2.67261 33.4327C2.71586 33.3156 2.953 33.6038 2.80234 32.9672C2.76886 32.8285 2.56102 32.4601 2.41455 32.3954C2.62379 32.306 2.39921 31.9962 2.80234 32.4663V32.4678Z" fill="#A88837"/>
<path d="M2.80226 32.9688C2.66416 32.9103 2.54699 32.9473 2.41447 32.8979C2.14664 32.7962 2.06574 32.6405 1.70166 32.6837C1.88858 32.5727 2.18291 32.4956 2.41447 32.397C2.56233 32.4617 2.77018 32.8301 2.80226 32.9688Z" fill="#9ABF43"/>
<path d="M3.70918 35.187C3.4567 35.3304 3.28094 35.1623 2.99637 35.6155C2.89314 35.1762 2.59742 35.56 2.5751 35.5446C2.26821 35.3103 2.93778 33.8922 2.86664 33.5408C3.06193 33.587 3.58782 33.1246 3.64362 33.4699C3.61851 33.5115 3.43996 33.6826 3.54597 33.7566C3.71755 33.8599 4.24762 33.436 4.22531 33.3635C4.21554 33.3296 3.71197 33.2325 4.25739 32.9705C4.57404 33.1847 4.2825 33.3404 4.28947 33.3635C4.32016 33.4591 4.5308 33.6888 4.54893 33.8645C4.65774 34.9928 4.48895 34.7477 3.70779 35.1885L3.70918 35.187Z" fill="#A7CE38"/>
<path d="M1.70205 33.5407C1.69089 33.5561 1.71182 33.8212 1.63789 33.9337C1.55698 34.0571 1.0827 34.8293 1.02272 34.8278C0.792557 34.8216 0.918101 34.0617 0.990638 33.8983C1.08828 33.6763 1.47468 33.3156 1.70345 33.5407H1.70205Z" fill="#F6ED96"/>
<path d="M7.65838 33.6841C7.4617 34.2051 7.597 34.6907 7.20503 35.1145C6.92046 35.0853 6.65403 34.9619 6.36388 34.9712L4.87549 34.5427C5.33024 34.3438 5.72221 34.3932 6.00817 34.256C6.04026 34.2406 6.42944 33.7134 6.49361 33.6841C6.65124 33.6117 7.06693 33.8059 7.20642 33.5408C7.3236 33.5593 7.48541 33.6518 7.65978 33.6841H7.65838Z" fill="#D0B679"/>
<path d="M7.65864 32.8979C7.83858 32.9411 8.18313 33.2679 8.56535 33.3265C8.60301 33.5854 8.53466 33.6162 8.37145 33.755C8.17058 33.6332 7.80511 33.7103 7.65864 33.6841C7.48427 33.6517 7.32246 33.5592 7.20528 33.5407C6.91653 33.4945 6.58035 33.5947 6.6222 33.3619C6.66126 33.1523 6.97094 33.3943 7.04347 33.3265C7.11601 33.2586 7.02255 33.1276 7.14112 32.9688C7.21923 33.0105 7.63353 32.8918 7.65864 32.8979Z" fill="#BAA258"/>
<path d="M4.87416 34.5427L6.36256 34.9712C6.29281 34.9727 6.11844 34.9465 6.1031 35.0066L7.52733 35.8297C7.4799 36.6914 7.04468 37.8166 6.68618 38.5842C6.58296 38.8062 5.67346 40.5218 5.58558 40.5881C5.45306 40.6898 5.21174 40.5958 5.06806 40.5526C3.97304 40.2228 3.40948 38.8077 3.19048 37.6918C3.2951 36.8764 2.91986 35.9176 3.708 35.1885C4.48916 34.7477 4.65934 34.9928 4.54914 33.8645C4.5324 33.6887 4.32037 33.4591 4.28969 33.3635C4.28271 33.3388 4.57425 33.1847 4.2576 32.9704C3.71218 33.2325 4.21575 33.3296 4.22552 33.3635C4.24644 33.4375 3.71637 33.8614 3.54619 33.7566C3.44017 33.6826 3.61733 33.5115 3.64383 33.4699C3.7066 33.365 3.78193 33.2571 3.90329 33.2201C3.48202 33.2263 3.29928 33.0413 2.99658 32.7546C3.30207 32.824 4.46963 32.6606 4.64818 32.898C4.71375 32.9858 4.44034 32.9581 4.48637 33.2201C4.52822 33.4591 5.1392 34.1157 4.68027 34.6506C4.74583 34.703 4.79186 34.5797 4.87416 34.5427Z" fill="#ECBC2E"/>
<path d="M8.37121 35.2579C10.0493 35.7341 9.62944 37.8382 8.82457 39.0852C8.26799 39.9484 7.40871 40.4647 6.5592 40.9102C6.06399 40.9009 5.55903 40.8362 5.0708 40.8393V40.5526C5.21448 40.5957 5.4558 40.6898 5.58832 40.588C5.6762 40.5218 6.5857 38.8062 6.68892 38.5842C7.04742 37.8166 7.48404 36.6929 7.53007 35.8297C7.54681 35.5168 7.42963 35.3658 7.4659 35.1145C7.7979 35.1607 8.02806 35.1592 8.37261 35.2579H8.37121Z" fill="#F8984D"/>
<path d="M10.5723 35.973C10.5542 36.0701 10.4105 36.4493 10.4426 36.5819C10.497 36.8084 10.6448 36.867 10.702 37.0474L10.1845 38.5857C9.57074 39.6231 8.77982 40.4492 7.72385 40.9101C7.33606 40.9055 6.94548 40.9178 6.55908 40.9101C7.40999 40.4662 8.26927 39.9483 8.82445 39.0851C9.62933 37.8381 10.0492 35.7341 8.3711 35.2578C8.48409 35.1838 8.63474 35.0605 8.75889 35.0435C9.01417 35.0081 8.91652 35.2717 9.18016 35.4011C9.38801 35.5029 10.0911 35.7063 10.3449 35.7587C10.504 35.7911 10.6044 35.6709 10.5709 35.973H10.5723Z" fill="#D8532C"/>
<path d="M8.37124 33.7565C8.67673 33.718 8.33776 34.202 8.37124 34.2929C8.38798 34.3361 8.80925 34.6274 8.75903 35.0436C8.63349 35.0606 8.48423 35.1839 8.37124 35.2579C8.02669 35.1608 7.79653 35.1608 7.46454 35.1145C7.34597 35.0976 7.25251 35.1191 7.20508 35.1145C7.59705 34.6906 7.46175 34.2035 7.65843 33.6841C7.8049 33.7103 8.16898 33.6348 8.37124 33.755V33.7565Z" fill="#A28252"/>
<path d="M6.36395 34.9726C6.65549 34.9634 6.92192 35.0867 7.2051 35.116C7.25252 35.1206 7.34598 35.099 7.46455 35.116C7.42968 35.3672 7.54685 35.5198 7.52872 35.8312L6.10449 35.0081C6.11984 34.948 6.2942 34.9742 6.36395 34.9726Z" fill="#ECBC2E"/>
<path d="M9.01853 32.3246C9.03806 32.3678 9.04922 32.7285 9.0827 32.8256C9.16221 33.0491 8.99482 33.0583 9.34216 33.1123C9.32821 33.1724 9.48723 33.7119 9.53605 33.8275C9.31565 33.9385 9.43841 34.0171 9.37424 34.0417C9.15663 34.1281 8.94181 33.8352 8.66143 34.0417C8.59029 33.6918 8.92089 34.0109 8.88741 33.3265C8.86788 32.9242 8.71723 32.6236 8.75768 32.2183L8.85532 32.1104C8.85951 32.2414 9.01156 32.3123 9.01714 32.3246H9.01853Z" fill="#AC5528"/>
<path d="M12.0609 33.5408C12.5156 33.8783 12.6621 34.2868 12.9676 34.757C12.9564 34.7708 12.9788 34.814 12.9676 34.8279C12.7472 35.1392 12.4501 35.3504 12.1906 35.6155C12.1669 35.5523 12.1418 35.5138 12.093 35.4722L10.7664 35.5431C10.8236 35.17 10.8752 34.5674 10.8961 34.1835C10.9045 34.0417 11.0844 33.5778 10.864 33.4683C10.4679 33.4082 10.1554 33.5454 9.79553 33.6826C9.65882 33.735 9.6379 33.7751 9.53607 33.8259C9.48724 33.7103 9.32822 33.1708 9.34217 33.1107C9.65324 33.1601 10.0382 32.8872 10.3451 32.8965C10.6953 32.9057 11.7596 33.3157 12.0609 33.5408Z" fill="#DE6C26"/>
<path d="M13.5507 40.8378C13.6051 40.8825 13.6121 40.9072 13.6149 40.9087C12.8505 41.0398 12.0554 40.9796 11.284 40.9796C11.263 40.9796 11.2407 40.9796 11.2198 40.9796C11.2142 40.6637 11.5072 40.8764 11.5755 40.8363C11.7276 40.7453 12.4976 39.782 12.5143 39.6201C12.8519 40.1488 13.0779 40.4417 13.5507 40.8363V40.8378Z" fill="#D12E27"/>
<path d="M12.1905 35.6155C12.1961 35.6309 12.1905 35.6679 12.1905 35.6864C12.1821 35.8514 11.8878 36.5034 11.8669 36.9735C11.8515 37.3064 11.8683 37.8305 11.931 38.1542C11.9938 38.4779 12.5099 39.4274 12.5141 39.5492C12.5141 39.5723 12.5169 39.5985 12.5141 39.6201C12.4974 39.7819 11.7274 40.7453 11.5753 40.8363C11.507 40.8763 11.214 40.6636 11.2196 40.9796C10.9616 40.9796 10.7007 40.9796 10.4426 40.9796C10.79 40.155 11.3466 39.7002 11.0899 38.7261C11.0704 38.6552 10.9155 38.7261 10.896 38.6552C10.8374 38.4486 11.0508 38.1326 11.0257 37.7966C11.009 37.5623 10.7649 37.2432 10.7021 37.0459C10.6449 36.8671 10.497 36.807 10.4426 36.5804C10.4106 36.4494 10.5542 36.0687 10.5724 35.9716C10.5766 35.9485 10.7509 35.6479 10.7663 35.5431L12.0928 35.4722C12.1403 35.5138 12.1668 35.5523 12.1905 35.6155Z" fill="#D8532C"/>
<path d="M10.896 34.1852C10.3785 34.4703 10.1414 34.0202 9.79541 33.6842C10.1553 33.5455 10.4678 33.4098 10.8639 33.47C11.0843 33.5794 10.9044 34.0434 10.896 34.1852Z" fill="#EFB274"/>
<path d="M8.88867 33.3266C8.92215 34.011 8.59155 33.6934 8.66269 34.0418C8.94307 33.8353 9.1565 34.1281 9.3755 34.0418C9.43967 34.0156 9.31692 33.9385 9.53732 33.8275C9.63775 33.7767 9.65868 33.7366 9.79677 33.6842C10.1427 34.0202 10.3799 34.4703 10.8974 34.1852C10.8765 34.569 10.8248 35.1717 10.7676 35.5447C10.7509 35.651 10.5779 35.9501 10.5738 35.9732C10.6072 35.6711 10.5068 35.7913 10.3478 35.7589C10.0939 35.7065 9.39085 35.5031 9.183 35.4013C8.91936 35.2718 9.01701 35.0083 8.76173 35.0437C8.81056 34.6275 8.38929 34.3362 8.37394 34.293C8.34046 34.2021 8.67943 33.7181 8.37394 33.7566C8.53715 33.6179 8.6055 33.5855 8.56784 33.3281C8.67106 33.3435 8.78684 33.3173 8.89146 33.3281L8.88867 33.3266Z" fill="#D97E2A"/>
<path d="M8.72676 34.3994C8.77977 34.3593 9.0183 34.424 9.0183 34.5073C9.0183 34.7262 8.48683 34.5797 8.72676 34.3994Z" fill="#F4C97E"/>
<path d="M10.7008 37.0474C10.7635 37.2447 11.0077 37.5653 11.0244 37.798C11.0495 38.1341 10.8375 38.4485 10.8947 38.6566C10.9142 38.729 11.0704 38.6566 11.0886 38.7275C11.3452 39.7017 10.7887 40.1564 10.4413 40.981C9.62249 40.981 8.79948 40.981 7.98065 40.981C7.9653 40.8639 7.80349 40.9101 7.72119 40.9101C8.77716 40.4477 9.56808 39.6231 10.1819 38.5857L10.6994 37.0474H10.7008Z" fill="#AA1F23"/>
<path d="M23.0669 38.6921C23.0529 38.8864 22.9385 39.19 22.9371 39.4074C22.6275 40.01 21.8589 40.3908 21.7068 40.9811C21.2967 41.0428 21.0637 41.2416 20.7359 41.4821C20.4611 41.5114 20.1724 41.7287 19.8292 41.7688C18.4831 41.9245 17.2528 42.2004 15.8802 41.7688C15.7225 41.7195 15.5384 41.7025 15.3947 41.6254C15.3194 41.5854 15.4631 41.5052 15.4268 41.4821C15.8774 41.1306 16.1466 41.5669 16.6251 41.6254C18.0284 41.7981 20.4723 41.7904 21.545 40.7669C22.255 40.0902 21.6217 40.3754 21.6426 40.2305C21.6524 40.1596 22.3945 39.3765 22.5494 39.1931C22.6247 39.1022 22.9623 38.8602 23.0669 38.6921Z" fill="#D49E31"/>
<path d="M15.4284 41.482C15.4646 41.5036 15.321 41.5853 15.3963 41.6253C15.54 41.7009 15.7241 41.7194 15.8817 41.7687C15.3279 41.7656 14.71 41.5961 14.198 41.3402C14.1185 41.3001 13.7224 40.9934 13.6149 40.9117C13.6108 40.9086 13.6038 40.8855 13.5508 40.8408L13.8744 40.6974C13.9386 40.7421 14.2064 40.9625 14.2622 40.8053C14.1506 40.7282 14.1269 40.5911 14.0683 40.4832C14.5705 40.8207 14.8955 41.1598 15.4284 41.4851V41.482Z" fill="#D97E2A"/>
<path d="M22.8086 34.1849V34.3283C22.2938 34.188 22.6384 34.5225 22.5491 34.7213C21.9535 36.067 21.0621 37.371 19.603 37.5467C19.1608 37.6007 18.0086 37.5806 17.6934 37.1891C18.3071 37.1691 20.5014 36.1918 21.0273 35.7587C21.0691 35.7232 21.9242 34.8416 21.5127 34.8292C21.5183 34.8077 21.5085 34.7814 21.5127 34.7583C21.8544 34.242 22.1418 33.6917 22.8072 34.1865L22.8086 34.1849Z" fill="#F3DB6E"/>
<path d="M23.0667 38.692C22.9607 38.8601 22.6245 39.1021 22.5492 39.193C22.6622 38.8446 22.6845 38.4793 22.7431 38.1202C22.7528 38.0601 22.665 38.0477 22.6789 37.9414C22.7319 37.499 23.3038 37.1398 22.485 36.9749C22.4055 36.9595 22.3371 36.8578 22.1935 36.904C22.1014 36.9333 21.0608 37.9737 20.6716 38.1911C19.6589 38.3098 18.5164 38.8631 17.4995 38.7629L19.3129 38.262C19.3827 37.8658 19.6449 38.2635 19.6686 38.262C19.9114 38.2466 19.8081 38.1294 19.8625 38.1186C19.9393 38.1048 20.0397 38.2481 20.122 38.1895C20.1457 38.1726 20.2489 37.7965 20.4456 37.6886C20.9952 37.3896 21.3314 37.4219 21.9019 36.6867C23.2243 37.2647 23.0179 36.1379 22.8728 35.1129C22.8323 34.8308 22.8086 34.615 22.8086 34.3252V34.1819C23.3206 34.5626 23.3401 35.7788 23.262 36.3645C23.2425 36.5094 23.0137 36.8562 23.0025 36.9364C22.9481 37.3264 23.2536 37.5714 23.262 37.6516C23.2829 37.8674 23.0862 38.4423 23.0681 38.689L23.0667 38.692Z" fill="#CFA62B"/>
<path d="M17.434 40.195C18.8485 40.6667 20.302 40.1626 21.4807 39.2655C21.9103 38.9372 22.2563 38.3392 22.7431 38.1203C22.6845 38.4794 22.6622 38.8447 22.5492 39.1931C22.3958 39.3765 21.6523 40.1596 21.6425 40.2305C21.623 40.3754 22.2549 40.0902 21.5449 40.7669C20.4708 41.7904 18.0268 41.7981 16.6249 41.6254C16.1465 41.5669 15.8786 41.1322 15.4267 41.4821C14.8938 41.1584 14.5688 40.8177 14.0666 40.4802C13.3622 39.1854 12.9688 39.3411 12.9019 37.5469L13.4849 39.2286C14.2089 39.8744 14.6734 40.3507 15.4602 40.6944C16.3836 41.0983 17.2206 41.6856 17.4354 40.1935L17.434 40.195Z" fill="#F5D53B"/>
<path d="M13.2911 35.2578C13.0805 36.1149 12.8685 36.6359 12.9033 37.5468C12.9703 39.341 13.3637 39.1853 14.0681 40.4801C14.1267 40.588 14.1504 40.7252 14.262 40.8023C14.2048 40.9611 13.937 40.7406 13.8742 40.6944C13.6022 40.5002 12.7889 39.3981 12.7094 39.3703C12.5699 39.3225 12.6104 39.5383 12.5155 39.5491C12.5114 39.4274 11.9966 38.4763 11.9325 38.1541C11.8683 37.832 11.8529 37.3064 11.8683 36.9734C12.1012 36.7114 12.0817 38.3175 12.2561 37.7241C12.457 37.0413 12.1612 36.6204 12.7094 35.7573C12.7359 35.7156 13.2353 35.1823 13.2925 35.2563L13.2911 35.2578Z" fill="#ECBC2E"/>
<path d="M13.8742 40.6959L13.5506 40.8392C13.0777 40.4446 12.8517 40.1518 12.5142 39.6231C12.517 39.5999 12.5142 39.5753 12.5142 39.5522C12.6104 39.5414 12.5686 39.3256 12.7081 39.3734C12.7876 39.4011 13.6008 40.5032 13.8728 40.6974L13.8742 40.6959Z" fill="#EDAB51"/>
<path d="M22.8086 34.3282C22.8086 34.618 22.8337 34.8323 22.8728 35.1159L21.9019 36.6897C21.3314 37.4249 20.9938 37.3926 20.4456 37.6916C20.2489 37.798 20.1457 38.1756 20.122 38.1926C20.0396 38.2496 19.9392 38.1078 19.8625 38.1216C19.8081 38.1324 19.9113 38.248 19.6686 38.265C19.6449 38.2665 19.3812 37.8689 19.3129 38.265C19.0492 38.1787 18.0435 38.117 17.8566 37.9783C17.7771 37.9182 17.8719 37.6716 17.7924 37.6207C17.5622 37.4758 16.7671 37.2369 16.5621 37.0488C16.357 36.8608 16.6151 36.8916 16.5942 36.87C16.4868 36.7513 15.933 36.3259 16.2064 36.1903C16.2636 36.2072 16.2789 36.2442 16.3361 36.2612C16.3989 36.7467 17.3474 37.203 17.6962 37.1906C18.0114 37.5822 19.1636 37.6022 19.6058 37.5482C21.0649 37.3725 21.9549 36.0685 22.5519 34.7228C22.6398 34.524 22.2967 34.1895 22.8114 34.3298L22.8086 34.3282Z" fill="#CFA62B"/>
<path d="M17.6936 37.1892C17.3448 37.2 16.3963 36.7453 16.3335 36.2598C16.4646 36.2998 16.5678 36.38 16.6571 36.4031C16.8468 36.4524 17.0491 36.5141 17.2402 36.5465C17.9935 36.6713 18.5305 36.6004 19.2475 36.4031C19.4944 36.3353 19.7204 36.2952 19.9603 36.1889C20.3858 35.9977 21.3957 35.3396 21.5143 34.8293C21.9258 34.8432 21.0707 35.7249 21.0288 35.7588C20.503 36.1935 18.3073 37.1692 17.695 37.1892H17.6936Z" fill="#F3DB6E"/>
<path d="M16.2053 36.1887C15.9319 36.3244 16.4857 36.7498 16.5931 36.8685C16.6126 36.8901 16.3643 36.8669 16.561 37.0473C16.7577 37.2276 17.5612 37.4743 17.7914 37.6191C17.8709 37.67 17.776 37.9166 17.8555 37.9768C18.0425 38.1155 19.0482 38.1756 19.3118 38.2635L17.4984 38.7644C17.4691 38.7613 17.0311 38.6349 16.9809 38.6211C16.5987 38.5147 16.0477 38.1139 15.6208 38.0492C15.5511 37.9798 15.4353 37.9151 15.4269 37.9058C14.9457 37.3771 14.0446 36.8962 14.1325 36.0454C14.1352 36.0192 14.311 35.5999 14.3263 35.5799C14.4282 35.4488 15.9166 36.0993 16.2039 36.1887H16.2053Z" fill="#F5D53B"/>
<path d="M22.485 36.975L22.1614 37.1538C23.004 37.3665 21.7388 38.5009 21.4165 38.763C20.4777 39.5306 19.5417 39.8528 18.3742 39.6925C18.1245 39.6585 17.6865 39.3117 17.4354 39.4782C17.1676 39.3487 16.8649 39.2901 16.5942 39.1206C16.6542 39.0142 16.7686 39.0127 16.8537 38.9063C17.7534 39.1206 18.6392 38.763 19.4762 38.5487C20.0676 38.3961 20.0411 38.5472 20.6744 38.1911C21.0636 37.9722 22.1042 36.9333 22.1963 36.904C22.34 36.8578 22.4083 36.9595 22.4878 36.975H22.485Z" fill="#F5D53B"/>
<path d="M22.743 38.1203C22.2562 38.3392 21.9102 38.9372 21.4806 39.2656C20.3033 40.1642 18.8483 40.6667 17.4339 40.195C17.2051 40.1195 16.5007 39.7095 16.3012 39.5507C16.1784 39.4536 15.9873 39.3627 16.2035 39.1931C16.636 39.5677 17.618 40.0501 18.1453 39.802C17.8872 39.7542 17.6654 39.5923 17.4325 39.4798C17.6836 39.3133 18.1216 39.6602 18.3713 39.6941C19.5402 39.8544 20.4748 39.5307 21.4136 38.7646C21.7345 38.5026 23.0011 37.3665 22.1585 37.1554L22.4821 36.9766C23.301 37.1415 22.729 37.4991 22.676 37.943C22.6635 38.0494 22.75 38.0617 22.7402 38.1218L22.743 38.1203Z" fill="#F5D53B"/>
<path d="M22.8727 35.1145C23.0178 36.1395 23.2243 37.2678 21.9019 36.6883L22.8727 35.1145Z" fill="#CFA62B"/>
<path d="M20.6718 38.1912C20.0385 38.5472 20.0664 38.3962 19.4736 38.5488C18.6366 38.763 17.7522 39.1206 16.8511 38.9064C16.8608 38.894 16.9027 38.6813 16.9808 38.6197C17.0324 38.6335 17.469 38.7599 17.4983 38.763C18.5152 38.8617 19.6591 38.3099 20.6704 38.1912H20.6718Z" fill="#F9F070"/>
<path d="M14.0683 36.0454H14.1325C14.0446 36.8963 14.9457 37.3772 15.427 37.9059C15.6069 38.4022 15.7897 38.8338 16.204 39.193C15.9877 39.3625 16.1775 39.4534 16.3016 39.5506C16.5011 39.7078 17.2069 40.1178 17.4343 40.1949C17.2195 41.6854 16.3825 41.0997 15.4591 40.6958C14.6737 40.3521 14.2092 39.8758 13.4838 39.2299L12.9008 37.5483C12.8659 36.6373 13.0779 36.1163 13.2886 35.2593C13.4908 35.6415 13.375 36.0439 13.1909 36.4045L14.0655 36.0469L14.0683 36.0454Z" fill="#F5D53B"/>
<path d="M14.2619 34.6859C14.3149 34.9479 14.3191 35.1853 14.4558 35.4365L14.068 35.1498V36.0438L13.1934 36.4015C13.3761 36.0423 13.4933 35.6385 13.291 35.2562C13.2338 35.1822 12.7345 35.7155 12.7079 35.7571C12.5127 35.5953 12.4025 35.6246 12.1904 35.6862C12.1904 35.6662 12.196 35.6292 12.1904 35.6153C12.4499 35.3518 12.747 35.139 12.9674 34.8277C13.6091 35.1868 13.6984 34.7074 14.2619 34.6843V34.6859Z" fill="#EBE02C"/>
<path d="M14.2621 34.6859C13.6985 34.7091 13.6092 35.1884 12.9676 34.8293C12.9787 34.8139 12.9564 34.7723 12.9676 34.7584C13.022 34.6844 13.0262 34.5534 13.0317 34.5441C13.1559 34.3684 13.3707 33.943 13.5827 33.8998C14.3806 33.7364 14.1798 34.2759 14.2621 34.6875V34.6859Z" fill="#3E9444"/>
<path d="M12.7078 35.7587C12.1596 36.6219 12.4554 37.0427 12.2545 37.7255C12.0801 38.319 12.0983 36.7128 11.8667 36.9749C11.8876 36.5047 12.182 35.8512 12.1903 35.6878C12.4024 35.6261 12.5139 35.5968 12.7078 35.7587Z" fill="#F5D53B"/>
<path d="M15.6221 38.0476C15.9388 38.3621 15.9513 38.7166 16.593 39.1205C16.8636 39.29 17.1677 39.3486 17.4341 39.4781C17.6657 39.5906 17.8889 39.7524 18.1469 39.8002C17.6183 40.0499 16.6362 39.5675 16.2052 39.1914C15.7742 38.8153 15.6082 38.4006 15.4282 37.9043C15.4366 37.9135 15.5524 37.9783 15.6221 38.0476Z" fill="#ECBC2E"/>
<path d="M16.9807 38.6212C16.9039 38.6813 16.8607 38.8955 16.8509 38.9079C16.7658 39.0142 16.6515 39.0158 16.5915 39.1221C15.9498 38.7183 15.9373 38.3622 15.6206 38.0493C16.0461 38.1141 16.5985 38.5164 16.9807 38.6212Z" fill="#F5D53B"/>
<path d="M36.2097 39.3362C37.5419 39.5628 39.2911 39.3886 40.6763 39.4071C42.3795 39.4303 44.0869 39.4025 45.7915 39.4071C45.8069 39.8279 46.1793 39.475 46.1152 39.8356C45.7804 39.9112 44.935 40.7605 44.4315 40.8021C45.1819 41.1535 47.1614 40.5909 47.5394 39.8356C47.6412 39.6337 47.6594 39.6908 47.6036 39.4071C48.2634 39.4071 48.912 39.5119 49.5788 39.478L49.6764 39.1204C50.4994 39.7092 48.4363 39.5952 48.3498 39.6214C48.149 39.6815 47.0609 40.7975 46.5699 40.7667C44.1804 40.7651 41.5607 41.3139 39.1251 40.91C38.7583 40.8499 37.9883 40.6002 37.6688 40.409C37.3843 40.2395 36.9421 39.6414 36.8919 39.6214C36.5403 39.4888 35.7871 39.8249 35.4355 39.4071C35.4439 39.3948 35.4927 39.1728 35.4997 39.1204C35.5192 39.1266 35.5444 39.1143 35.5639 39.1204C35.8233 39.199 35.8596 39.2746 36.2111 39.3347L36.2097 39.3362Z" fill="#302761"/>
<path d="M47.6048 39.122C47.7122 39.1205 47.821 39.1236 47.9285 39.122C48.3135 39.1143 49.4071 38.9294 49.6763 39.122L49.5787 39.4796C48.9119 39.5136 48.2646 39.4087 47.6034 39.4087C46.9953 39.4087 46.3954 39.4103 45.79 39.4087C44.0868 39.4041 42.378 39.4319 40.6748 39.4087V39.122C41.0626 39.119 41.4532 39.1236 41.8396 39.122C42.0753 39.122 42.3376 39.0527 42.5524 39.0511C44.2347 39.0388 45.9072 39.1575 47.602 39.122H47.6048Z" fill="#4C3B81"/>
<path d="M46.1153 39.8371C46.5003 39.7493 47.1239 39.9019 47.5396 39.8371C47.1615 40.5909 45.1821 41.1535 44.4316 40.8036C44.9352 40.7635 45.7805 39.9142 46.1153 39.8371Z" fill="#211746"/>
<path d="M40.2242 39.122C40.3093 39.122 40.3971 39.122 40.4836 39.122C40.5478 39.122 40.6133 39.122 40.6775 39.122V39.4087C39.2923 39.3902 37.5431 39.5644 36.2109 39.3378C36.3797 39.3517 36.6085 39.1251 36.6322 39.1236C37.5891 39.0326 39.1654 39.1405 40.2256 39.1236L40.2242 39.122Z" fill="#7A52A1"/>
<path d="M39.9649 39.0496C40.0472 39.0496 40.209 39.0049 40.2244 39.1205C39.1642 39.1374 37.5879 39.0295 36.631 39.1205C36.6073 39.122 36.3785 39.3486 36.2097 39.3347C35.8582 39.2746 35.822 39.1991 35.5625 39.1205C35.5709 39.085 35.6825 38.9802 35.6922 38.9771C36.3506 38.8215 39.0735 39.0373 39.9649 39.048V39.0496Z" fill="#4C3B81"/>
<path d="M47.605 39.4072C47.6594 39.6908 47.6413 39.6338 47.5408 39.8357C47.1251 39.9005 46.5016 39.7479 46.1166 39.8357C46.1808 39.475 45.8083 39.828 45.793 39.4072C46.397 39.4088 46.9982 39.4072 47.6064 39.4072H47.605Z" fill="#302761"/>
<path d="M43.2673 28.0331L43.2031 29.9645C43.0762 29.8782 42.8111 29.815 42.7498 29.7503C42.4931 29.4805 42.8753 28.5495 42.4903 27.9977C42.2574 27.6632 41.8514 27.674 41.5194 27.6755C41.3632 27.6755 41.2181 27.6786 41.0661 27.6401C41.2586 27.99 41.3339 28.2274 41.4539 28.6065C41.4901 28.7206 41.5013 29.257 41.518 29.2863C41.5334 29.3125 41.9477 29.4836 42.0356 29.536C41.85 29.7379 41.4957 29.4189 41.6478 29.8227C41.4051 29.5869 41.034 29.6932 40.7411 29.7518C40.967 29.3803 41.0954 29.593 40.935 28.9287C40.3979 26.6983 37.774 28.4046 37.6973 30.074L38.5385 29.7518C38.498 29.852 38.4018 30.3638 38.4087 30.467H38.3446C38.1646 30.2867 37.9484 30.7383 38.0209 30.968C37.7866 30.8138 37.9414 30.7429 37.8591 30.6813L37.5676 30.7892C37.5983 31.4582 37.8619 31.9159 38.4743 32.0408C38.346 32.0593 38.1395 32.1133 38.0209 32.1842C37.9359 32.1903 37.8466 32.1749 37.7615 32.1842C37.8271 31.825 37.4811 31.6986 37.4379 31.2901C37.4309 31.2208 37.5271 31.0281 37.502 30.8246C37.4811 30.6474 37.449 30.4285 37.4379 30.3237C37.6108 30.0555 37.5704 29.5977 37.6973 29.2863C37.9121 28.7607 38.77 27.8173 39.2834 27.6771C39.7186 27.5584 40.0673 27.7726 40.1901 27.748C40.2166 27.7434 40.2459 27.5461 40.3198 27.5337C41.758 27.2979 41.9909 27.1869 43.2659 28.0347L43.2673 28.0331Z" fill="#D49E31"/>
<path d="M44.3679 29.9646C43.9648 30.689 43.6955 30.2991 43.2031 29.9646L43.2673 28.0332C43.3622 28.0964 43.6565 28.1658 43.7527 28.2475C44.3916 28.79 44.2228 29.2478 44.3679 29.9646Z" fill="#ECBC2E"/>
<path d="M40.7425 29.7502C40.6923 29.8319 40.4691 29.9614 40.4189 30.1078C40.3031 30.1017 40.3757 29.9522 40.3548 29.8936C41.0201 29.0104 39.5499 27.6246 38.8008 28.7853L38.8329 28.9641C38.9835 28.8578 39.6308 28.7915 39.5122 29.1784C39.0407 29.1275 38.738 29.2693 38.5413 29.7502L37.7002 30.0724C37.7755 28.403 40.4008 26.6982 40.9378 28.9271C41.0983 29.5915 40.9699 29.3788 40.7439 29.7502H40.7425Z" fill="#ECBC2E"/>
<path d="M42.7496 29.7503C42.7608 29.832 42.6883 29.8182 42.6855 29.8212C42.3911 29.8536 42.2363 29.6563 42.0382 29.5345C41.9503 29.4806 41.5361 29.311 41.5207 29.2848C41.504 29.2555 41.4928 28.7191 41.4565 28.6051L41.9741 28.5696L41.5207 27.6756C41.8541 27.6756 42.2586 27.6633 42.4916 27.9977C42.8766 28.5496 42.4944 29.4806 42.751 29.7503H42.7496Z" fill="#ECBC2E"/>
<path d="M41.5193 27.6754L41.9727 28.5694L41.4552 28.6049C41.3338 28.2257 41.2585 27.9883 41.0674 27.6384C41.2194 27.677 41.3645 27.6754 41.5207 27.6739L41.5193 27.6754Z" fill="#F3DB6E"/>
<path d="M40.3533 29.8922C40.2166 29.5269 39.8693 29.2155 39.5122 29.177C39.6308 28.7901 38.9821 28.8564 38.8329 28.9627L38.8008 28.7839C39.5499 27.6248 41.0201 29.0105 40.3547 29.8922H40.3533Z" fill="#F3DB6E"/>
<path d="M44.6272 30.4653C44.6927 31.0973 44.4193 32.2888 43.9799 32.7543C43.9897 32.7281 43.9897 32.3274 44.1096 32.2179C44.0469 32.1208 42.1232 32.4769 42.1679 32.9686C41.695 32.8191 41.2165 32.6233 40.7437 32.4676C41.3435 32.4738 42.3688 32.6973 42.3618 31.7524C43.5307 31.6276 43.6047 30.7474 44.6272 30.4653Z" fill="#923D20"/>
<path d="M43.2027 29.9645C43.6951 30.299 43.9643 30.689 44.3675 29.9645C44.3731 29.9922 44.5921 30.1279 44.6269 30.4655C43.6044 30.7491 43.5305 31.6277 42.3616 31.7525C42.3072 31.7587 42.077 31.6123 41.9082 31.7525C41.9152 31.7356 41.9012 31.418 41.9403 31.3949C42.3155 31.1776 43.4161 31.4489 43.2669 30.5009C43.2348 30.2959 43.0813 30.3036 43.0074 30.2512C42.8247 30.1202 42.7577 30.1279 42.5541 30.1079C42.5429 30.0015 42.6266 29.8905 42.6838 29.8211C42.6866 29.8181 42.7605 29.8304 42.748 29.7502C42.8093 29.815 43.073 29.8782 43.2013 29.9645H43.2027Z" fill="#B4802C"/>
<path d="M43.9787 32.7543C43.8838 32.9979 43.722 33.1813 43.5253 33.3262C43.0803 33.1936 42.6116 33.1089 42.1653 32.9686C42.122 32.4769 44.0456 32.1208 44.107 32.2179C43.9871 32.3274 43.9871 32.7297 43.9773 32.7543H43.9787Z" fill="#AC5528"/>
<path d="M37.5046 30.823C37.5283 31.0249 37.4321 31.2191 37.4405 31.2885C37.4837 31.697 37.8296 31.8234 37.7641 32.1825C37.6204 32.1979 37.5088 32.2334 37.3763 32.2534C37.4446 31.8095 36.9271 31.008 37.506 30.823H37.5046Z" fill="#BE7839"/>
<path d="M39.6416 31.7526C39.484 32.0624 40.6418 32.2443 40.7743 32.2535C41.522 32.309 41.6266 32.437 41.907 31.7526C42.0758 31.6123 42.306 31.7588 42.3604 31.7526C42.3673 32.6975 41.3407 32.474 40.7422 32.4678C40.7213 32.4678 40.699 32.4678 40.6781 32.4678C40.6599 32.3429 40.5037 32.4077 40.4186 32.3969C40.3977 32.3938 40.374 32.4015 40.3544 32.3969C39.364 32.1796 39.1325 32.1148 38.0891 32.1826C38.0681 32.1826 38.0458 32.1811 38.0249 32.1826C38.1435 32.1117 38.3499 32.0578 38.4783 32.0393C38.5982 32.0223 38.9358 32.0824 38.9958 32.0038C38.9804 31.8281 38.873 31.6956 38.8019 31.5383C39.1199 31.6108 39.2762 31.8019 39.643 31.7526H39.6416Z" fill="#9D5F28"/>
<path d="M40.6769 32.4678C40.5946 32.4663 40.4342 32.514 40.4175 32.3969C40.5012 32.4092 40.6588 32.3429 40.6769 32.4678Z" fill="#544C66"/>
<path d="M42.6841 29.8212C42.6283 29.889 42.5432 30.0015 42.5544 30.1079C41.8206 30.037 42.3507 30.225 42.3605 30.3576C42.3898 30.8 42.1024 30.8293 42.2628 31.1083C42.8138 30.8046 43.0691 31.1052 43.0077 30.2497C43.0817 30.3021 43.2337 30.2944 43.2672 30.4994C43.4164 31.4474 42.3158 31.1761 41.9406 31.3934C41.9015 31.4166 41.9155 31.7341 41.9085 31.751C41.6281 32.4354 41.5235 32.3075 40.7758 32.252C40.6419 32.2428 39.4855 32.0609 39.6431 31.751C39.911 31.7156 40.3532 31.3349 40.4201 31.0358C40.8777 30.9788 42.0885 31.4135 41.9741 30.4994C41.9699 30.4609 41.677 29.8459 41.6505 29.8197C41.4984 29.4158 41.8527 29.7364 42.0382 29.533C42.2363 29.6547 42.3912 29.852 42.6855 29.8197L42.6841 29.8212Z" fill="#BD9431"/>
<path d="M41.6492 29.8211C41.6757 29.8457 41.9686 30.4623 41.9728 30.5008C42.0872 31.4149 40.8764 30.9802 40.4188 31.0372C40.4314 30.9848 40.324 30.9478 40.3547 30.823C40.3909 30.6688 40.3616 30.2742 40.4188 30.1078C40.469 29.9613 40.6922 29.8318 40.7425 29.7501C41.0354 29.6916 41.4064 29.5852 41.6492 29.8211Z" fill="#C8B02E"/>
<path d="M38.0236 30.9664C38.2524 31.1174 38.2175 30.9309 38.4114 30.823C38.509 31.1067 38.7029 31.3271 38.7992 31.5383C38.8703 31.6939 38.9791 31.828 38.9931 32.0038C38.9331 32.0839 38.5941 32.0223 38.4756 32.0392C37.8632 31.9144 37.5995 31.4566 37.5688 30.7876L37.8604 30.6797C37.9427 30.7413 37.7879 30.8107 38.0222 30.9664H38.0236Z" fill="#CFA62B"/>
<path d="M40.353 30.8229C40.3237 30.9478 40.4297 30.9848 40.4171 31.0372C40.3502 31.3362 39.908 31.717 39.6402 31.7524C39.2733 31.8017 39.1157 31.6091 38.799 31.5382C38.7028 31.327 38.5089 31.1066 38.4112 30.8229C38.3749 30.7181 38.3429 30.5809 38.347 30.4653H38.4112C38.4559 31.0649 38.6121 30.6333 38.7028 30.6796C39.3905 31.0326 39.3221 31.6923 40.3544 30.8229H40.353Z" fill="#D8532C"/>
<path d="M38.3473 30.4653C38.3431 30.5809 38.3752 30.7181 38.4115 30.8229C38.2176 30.9308 38.251 31.1158 38.0237 30.9663C37.9511 30.7366 38.1673 30.2865 38.3473 30.4653Z" fill="#D0B679"/>
<path d="M42.5541 30.1079C42.7578 30.128 42.8247 30.1203 43.0075 30.2513C43.0688 31.1068 42.8136 30.8062 42.2626 31.1099C42.1022 30.8293 42.3895 30.8 42.3602 30.3592C42.3518 30.2266 41.8218 30.0386 42.5541 30.1095V30.1079Z" fill="#CFA62B"/>
<path d="M39.5117 29.1768C39.8702 29.2153 40.2161 29.5267 40.3528 29.892C40.3752 29.9506 40.3012 30.1017 40.417 30.1063C40.3598 30.2728 40.3891 30.6674 40.3528 30.8215C39.3206 31.6909 39.3889 31.0311 38.7012 30.6781C38.6106 30.6319 38.4543 31.062 38.4097 30.4639C38.4013 30.3606 38.4976 29.8489 38.5394 29.7487C38.7375 29.2662 39.0388 29.1259 39.5103 29.1768H39.5117Z" fill="#F36F37"/>
<path d="M39.1559 29.4636C39.2187 29.4559 39.3428 29.442 39.3819 29.499C38.8727 30.3406 38.3162 29.5607 39.1559 29.4636Z" fill="#F58876"/>
<path d="M47.3459 37.189C47.1896 37.0503 46.7447 36.2827 46.5689 36.1871C46.5689 36.1393 46.5717 36.0915 46.5689 36.0438C47.5467 35.9019 48.4786 36.9301 49.3532 37.4033C49.3643 37.4094 49.3685 37.5821 49.515 37.6175C49.6601 37.3293 49.3616 37.4202 49.3532 37.4033C49.3323 37.3632 49.4215 37.3015 49.4174 37.2954C48.7617 36.3181 47.5886 35.7185 46.5033 35.6862C46.4754 35.5551 46.4001 35.384 46.3736 35.2576C46.3318 35.0573 46.2564 34.9725 46.2439 34.9C46.4838 34.8322 46.2104 34.7536 46.3415 34.6858C46.5089 34.5979 46.9302 34.5147 46.9888 34.4715C47.2957 34.2465 46.9232 34.0892 46.7293 34.4006C46.474 34.2449 47.3626 33.8303 47.4421 33.7563C47.8467 33.3802 48.6808 32.3382 48.5748 31.7525C48.5637 31.6924 48.5999 31.5398 48.5427 31.5382C48.3767 31.8126 48.134 32.0608 47.8955 32.2534C47.8857 32.2611 47.7351 32.1687 47.636 32.2534C47.205 32.6203 46.8772 33.4033 46.5675 33.9706C46.4392 34.1031 46.3206 34.2465 46.1797 34.3636C46.5033 34.6072 46.1658 34.4546 46.2439 34.9C46.2285 34.9047 46.1964 34.9031 46.1797 34.9L45.6622 34.1848C43.8195 33.855 41.9851 32.9378 40.1592 32.611L40.3531 32.3968C40.374 32.4014 40.3963 32.3937 40.4172 32.3968C40.4326 32.5139 40.5944 32.4661 40.6767 32.4677C40.6976 32.4677 40.7199 32.4677 40.7409 32.4677C41.2137 32.6218 41.6922 32.8191 42.1651 32.9686C42.6101 33.1089 43.0802 33.1937 43.5252 33.3263C44.1222 33.5051 45.3107 34.1971 45.9523 33.9706C46.2732 33.8565 47.8787 30.5671 48.9947 30.8939C49.1049 30.9833 48.8454 33.058 48.7687 33.3617C48.6711 33.7501 48.0475 34.7798 48.0559 34.8646C48.0671 34.9679 49.0798 36.0715 49.2862 36.4384C49.5861 36.9717 49.7996 37.5682 49.999 38.1555C49.1342 38.2911 48.021 37.7933 47.3445 37.189H47.3459Z" fill="#225C98"/>
<path d="M39.7056 34.6857V34.7566L39.8995 35.5443C38.1321 34.9169 37.9313 35.8048 36.4359 35.9728C36.0453 36.0175 35.5111 36.0082 35.1414 35.8294C35.0521 35.8849 35.073 36.4491 35.0438 36.5447C34.8317 37.2352 34.4216 37.7315 34.137 38.3697C34.6141 38.3851 35.4608 38.473 35.691 38.9785C35.6826 38.9801 35.571 39.0864 35.5613 39.1219C35.5417 39.1157 35.5166 39.1281 35.4971 39.1219C34.6406 38.8583 33.759 38.6086 32.9081 38.3342C31.9596 38.029 31.0124 37.9705 31.0305 36.7605C31.4044 36.8961 33.72 37.8487 33.9111 37.7624C34.1859 37.6391 34.6657 36.0714 34.656 35.6876C34.7648 36.3027 34.7215 36.9377 34.3323 37.4402C34.3561 37.7084 34.582 37.3154 34.5918 37.2969C34.8359 36.8113 35.0982 35.4672 34.9154 34.9724C36.0648 34.6981 37.0734 34.6025 38.2493 34.6148C38.8003 34.621 39.0165 34.9478 39.7056 34.6857Z" fill="#9BC0DE"/>
<path d="M37.7637 32.1825C37.8474 32.1732 37.9381 32.1886 38.0232 32.1825C38.0441 32.1809 38.0665 32.1825 38.0874 32.1825L34.0728 33.3987C34.3894 33.1967 34.6321 33.0395 34.9795 32.8977C35.6602 32.6218 36.6548 32.3659 37.3746 32.2534C37.5085 32.2333 37.6201 32.1979 37.7624 32.1825H37.7637Z" fill="#225C98"/>
<path d="M40.159 32.6111C41.9849 32.9379 43.8193 33.855 45.662 34.1849C44.9296 34.47 43.8737 34.5702 43.1051 34.4716C42.6433 34.4115 41.4507 33.798 41.1633 33.8273C41.0545 33.8381 40.3905 34.2666 40.0948 34.3282C38.5269 34.6519 37.1571 33.6947 35.6924 33.5406C35.7035 33.4558 35.8626 33.3479 35.9184 33.3263C37.3035 32.8038 38.7082 32.3522 40.159 32.6111Z" fill="#5697C9"/>
<path d="M45.662 34.1849L46.1795 34.9001C45.9452 34.8569 45.7513 34.4747 45.6941 34.4716C45.6062 34.467 44.4219 35.1883 44.076 35.2592C42.748 35.5305 42.3407 34.2358 41.2596 35.6169C41.1536 35.6014 41.0992 35.5444 41.0657 35.5459L41.0336 34.9741L40.8718 35.475C40.7742 34.7768 40.5844 34.7413 40.0307 34.7598C40.0139 34.7598 39.8298 34.618 39.707 34.6889C39.9539 34.5949 40.0348 34.6427 40.0948 34.3313C40.3905 34.2697 41.0531 33.8412 41.1633 33.8304C41.4507 33.8011 42.6434 34.4146 43.1051 34.4747C43.8737 34.5733 44.9297 34.4747 45.662 34.188V34.1849Z" fill="#9BC0DE"/>
<path d="M46.1811 34.9C46.1978 34.9031 46.2299 34.9046 46.2453 34.9C46.2578 34.9724 46.3331 35.0572 46.375 35.2576C46.0946 35.3886 45.3176 35.9651 45.0805 35.5443C45.0763 35.4487 45.1154 35.0557 44.9187 35.1158C44.708 35.179 45.0386 35.7123 44.4974 36.0452C43.4819 36.6726 43.1625 35.8757 42.7175 35.831C42.4706 35.8063 42.2864 36.1778 41.9726 35.9743C41.8415 35.8541 41.748 35.6861 41.5513 35.6167C41.4843 35.5936 41.349 35.6291 41.2598 35.6167C42.3408 34.2356 42.7482 35.5304 44.0761 35.2591C44.4221 35.1882 45.6064 34.4668 45.6943 34.4715C45.7515 34.4745 45.9453 34.8568 46.1797 34.9H46.1811Z" fill="#CDE0F0"/>
<path d="M40.3529 32.3968L40.159 32.611C38.7083 32.3521 37.3036 32.8037 35.9184 33.3262C35.8626 33.3478 35.7022 33.4557 35.6925 33.5405C34.8151 33.448 34.4719 33.7871 33.6852 34.1124C33.6461 34.0908 33.3169 33.9675 33.2974 33.969C33.5192 33.7316 33.8093 33.5652 34.0743 33.3971L38.089 32.181C39.1338 32.1132 39.3653 32.1779 40.3543 32.3952L40.3529 32.3968Z" fill="#367FBB"/>
<path d="M46.2448 34.9C46.1667 34.4545 46.5043 34.6071 46.1807 34.3636C46.3229 34.2449 46.4415 34.1031 46.5685 33.9705C47.2576 33.2522 48.022 32.6218 48.5758 31.7524C48.6818 32.3366 47.8462 33.3786 47.4431 33.7563C47.365 33.8287 46.4764 34.2449 46.7303 34.4006C46.9228 34.0892 47.2966 34.248 46.9897 34.4715C46.9311 34.5146 46.5099 34.5979 46.3425 34.6857C46.2114 34.7536 46.4848 34.8322 46.2448 34.9Z" fill="#225C98"/>
<path d="M46.5047 35.6878C46.5312 35.8126 46.5633 35.9113 46.5689 36.0454C46.5717 36.0932 46.5689 36.141 46.5689 36.1887C46.541 36.1733 45.9844 36.1101 45.9537 36.1178C45.7263 36.1718 45.485 36.6404 45.2088 36.6188C45.0386 36.0284 45.1042 36.0762 45.0791 35.546C45.3162 35.9683 46.0946 35.3903 46.3736 35.2593C46.4001 35.3872 46.4754 35.5568 46.5033 35.6878H46.5047Z" fill="#CDE0F0"/>
<path d="M49.3528 37.4049C48.4782 36.9317 47.5464 35.9035 46.5686 36.0454C46.5616 35.9112 46.5309 35.8126 46.5044 35.6877C47.5897 35.7201 48.7614 36.3213 49.4184 37.297C49.4212 37.3016 49.3319 37.3633 49.3542 37.4049H49.3528Z" fill="#225C98"/>
<path d="M48.5762 31.7526C48.0224 32.6219 47.2593 33.2524 46.5688 33.9707C46.8785 33.4034 47.2049 32.6204 47.6374 32.2535C47.7364 32.1688 47.8857 32.2613 47.8968 32.2535C48.1354 32.0609 48.3781 31.8127 48.5441 31.5383C48.6013 31.5399 48.565 31.6925 48.5762 31.7526Z" fill="#225C98"/>
<path d="M49.353 37.4048C49.3628 37.4217 49.6599 37.3308 49.5148 37.619C49.3684 37.5836 49.3642 37.411 49.353 37.4048Z" fill="#225C98"/>
<path d="M44.4973 36.0454L44.5615 36.4739C44.3341 36.2935 43.8905 36.4569 43.6227 36.403C43.6102 36.7837 43.5781 36.9162 43.3967 37.2615C43.0829 37.8565 42.4886 38.2696 42.5556 39.0496C42.3408 39.0496 42.0799 39.1205 41.8428 39.1205C42.557 38.4962 42.7857 38.339 42.6198 37.26C42.5486 36.8006 42.4649 36.6912 42.232 36.3305C42.1748 36.2426 42.0353 36.0299 41.9725 35.9729C42.285 36.1764 42.4705 35.8049 42.7174 35.8296C43.1624 35.8743 43.4832 36.6712 44.4973 36.0438V36.0454Z" fill="#CDE0F0"/>
<path d="M39.7714 36.2596C39.0154 37.223 39.293 38.1509 39.9653 39.0496C39.0739 39.0388 36.3496 38.823 35.6926 38.9787C35.4625 38.4746 34.6157 38.3868 34.1387 38.3698C34.4232 37.7317 34.8333 37.2354 35.0454 36.5448L35.6285 36.6527C35.3634 36.8007 35.4443 36.8392 35.369 37.0458C35.1305 37.6993 35.7428 37.5375 36.1139 37.761C36.3524 37.9043 37.0806 38.5039 37.2787 38.4053C37.5897 37.5174 38.403 36.7498 38.4114 35.8296C38.8647 35.9806 39.272 36.346 39.7714 36.2581V36.2596Z" fill="#CDE0F0"/>
<path d="M35.6924 33.5405C37.1571 33.6947 38.5269 34.6519 40.0948 34.3282C40.0335 34.6396 39.954 34.5918 39.7071 34.6858C39.018 34.9478 38.8017 34.6195 38.2507 34.6149C37.0748 34.6026 36.0663 34.6981 34.9169 34.9725C34.8178 34.7043 34.2794 34.0107 33.946 34.3282C33.9195 34.302 33.7019 34.1216 33.6865 34.1139C34.4733 33.7887 34.8164 33.4496 35.6938 33.5421L35.6924 33.5405Z" fill="#76ABD4"/>
<path d="M39.8997 35.5443C40.0253 35.589 40.1606 35.7061 40.2875 35.7585C40.2554 35.7724 39.8076 36.2117 39.77 36.2595C39.272 36.3473 38.8647 35.9805 38.4099 35.831C38.3974 35.8263 38.4922 35.6506 38.1839 35.6876L35.3676 37.0471C35.4429 36.8406 35.362 36.802 35.627 36.6541L35.0439 36.5462C35.0732 36.4506 35.0523 35.8849 35.1416 35.831C35.5112 36.0098 36.0455 36.0175 36.4361 35.9743C37.9315 35.8063 38.1323 34.9169 39.8997 35.5458V35.5443Z" fill="#CDE0F0"/>
<path d="M34.9156 34.9726C35.0984 35.4674 34.8361 36.813 34.592 37.297C34.5822 37.3155 34.3563 37.7086 34.3325 37.4404C34.7217 36.9379 34.765 36.3013 34.6562 35.6878C34.5794 35.2562 34.2447 34.615 33.9434 34.3283C34.2767 34.0107 34.8152 34.7028 34.9142 34.9726H34.9156Z" fill="#225C98"/>
<path d="M33.6854 34.1139C33.6993 34.1216 33.9169 34.3035 33.9448 34.3281C34.2462 34.6148 34.5809 35.256 34.6577 35.6876C34.6688 36.0715 34.1876 37.6391 33.9128 37.7624C33.7203 37.8487 31.4061 36.8961 31.0322 36.7605C31.0462 35.8418 32.137 34.8661 32.8456 34.3281C32.9503 34.248 33.2097 33.9767 33.2334 33.9705C33.253 33.9659 33.2767 33.9736 33.2976 33.9705C33.3185 33.9674 33.6463 34.0923 33.6854 34.1139Z" fill="#CDE0F0"/>
<path d="M32.357 35.5442C33.0475 35.2606 33.0587 36.3134 32.4212 36.1161C32.2413 36.0606 32.0822 35.6567 32.357 35.5442Z" fill="#1C447C"/>
<path d="M46.5684 36.1887C46.7442 36.2843 47.1892 37.0519 47.3454 37.1906C47.2296 37.1968 47.3022 37.3463 47.2812 37.4049C47.0901 37.912 46.7581 37.5637 46.4401 37.5483C46.4331 37.5483 46.4736 37.4866 46.3104 37.4773V37.334C46.3717 37.3278 46.7609 37.1829 46.7637 37.0843C46.2587 37.2353 45.8542 36.4646 45.5334 37.1197C45.4595 37.0858 45.2642 37.1706 45.2098 37.0843C45.1777 37.035 45.2391 36.7205 45.2098 36.6188C45.486 36.6404 45.7259 36.1733 45.9547 36.1178C45.9853 36.1101 46.5419 36.1749 46.5698 36.1887H46.5684Z" fill="#EB3F4A"/>
<path d="M47.9287 39.1219C47.8213 39.1235 47.7125 39.1204 47.6051 39.1219C47.1099 38.9678 47.3777 38.1693 47.0541 37.7624C46.8295 37.6637 45.8865 38.6132 45.7917 38.4422C45.5782 38.0599 46.3469 37.8271 46.4389 37.5481C46.757 37.5651 47.089 37.9134 47.2801 37.4048C47.806 37.8965 48.1352 38.2896 47.9273 39.1219H47.9287Z" fill="#ECBC2E"/>
<path d="M44.691 37.0471C44.6979 37.1427 44.8514 37.192 44.8207 37.2968C44.7746 37.4525 44.2362 37.5296 44.2055 37.7623C44.7412 37.3122 45.2503 37.9304 45.3061 37.9057C45.334 37.8934 45.3466 37.6174 45.5 37.5481C45.5809 37.5111 46.1877 37.4695 46.3091 37.4772C46.4723 37.4864 46.4318 37.5481 46.4388 37.5481C46.3467 37.8271 45.5781 38.0598 45.7916 38.4421C45.8864 38.6132 46.8294 37.6637 47.054 37.7623C47.3762 38.1693 47.1084 38.9677 47.605 39.1219C45.9101 39.1573 44.2376 39.0386 42.5553 39.051C42.4897 38.2695 43.0826 37.8579 43.3965 37.2629H43.4606C43.7131 37.6945 43.0226 37.8718 43.2346 38.2648L44.0437 37.7284C43.7284 37.7207 43.9363 37.3338 43.6559 37.192C44.0256 37.0749 44.3032 36.9685 44.6924 37.0487L44.691 37.0471Z" fill="#F5D53B"/>
<path d="M45.0788 35.5443C45.1039 36.0746 45.0383 36.0268 45.2085 36.6171C45.2378 36.7189 45.1764 37.0333 45.2085 37.0826C45.2643 37.169 45.4582 37.0857 45.5321 37.1181C45.7191 37.2013 46.0385 37.3586 46.3091 37.3323V37.4757C46.1864 37.468 45.581 37.5112 45.5001 37.5466C45.3466 37.616 45.3327 37.8919 45.3062 37.9042C45.2504 37.9289 44.7412 37.3108 44.2056 37.7609C44.2363 37.5281 44.7747 37.4526 44.8207 37.2954C44.8514 37.189 44.698 37.1412 44.691 37.0456C44.6812 36.9023 44.8654 36.7142 44.5613 36.4738L44.4971 36.0453C45.0369 35.7108 44.7077 35.1775 44.9184 35.1158C45.1151 35.0572 45.076 35.4488 45.0802 35.5443H45.0788Z" fill="#3A7F3D"/>
<path d="M46.3092 37.3322C46.04 37.3569 45.7191 37.2012 45.5322 37.118C45.8517 36.4629 46.2576 37.2336 46.7626 37.0825C46.7598 37.1812 46.3706 37.3276 46.3092 37.3322Z" fill="#F5D53B"/>
<path d="M44.5613 36.4738C44.864 36.7142 44.6812 36.9038 44.691 37.0456C44.3032 36.9655 44.0242 37.0718 43.6545 37.189C43.5904 37.209 43.5332 37.1982 43.4607 37.2599H43.3965C43.5778 36.9146 43.6113 36.7821 43.6225 36.4013C43.8903 36.4553 44.3339 36.2919 44.5613 36.4722V36.4738Z" fill="#EB3F4A"/>
<path d="M43.6547 37.189C43.9351 37.3308 43.7273 37.7177 44.0425 37.7254L43.2335 38.2618C43.0214 37.8687 43.7119 37.6915 43.4594 37.2599C43.532 37.1967 43.5892 37.209 43.6533 37.189H43.6547Z" fill="#F9F070"/>
<path d="M38.4113 35.8311C38.403 36.7498 37.5897 37.5189 37.2787 38.4068C37.0792 38.5054 36.3524 37.9074 36.1139 37.7625C35.7442 37.539 35.1305 37.7008 35.369 37.0473L38.1854 35.6877C38.495 35.6507 38.3988 35.8265 38.4113 35.8311Z" fill="#225C98"/>
<path d="M42.6199 37.2615C42.7859 38.339 42.5571 38.4962 41.8429 39.122C41.4551 39.1235 41.0645 39.1189 40.6781 39.122C40.6139 39.122 40.5484 39.122 40.4842 39.122C40.4354 38.9971 40.3615 39.0048 40.3545 38.8353C40.3545 38.8245 40.4075 38.6596 40.4187 38.621C41.1761 38.2619 41.6518 37.5868 42.0703 36.833C42.3186 36.9918 42.2697 37.4203 42.6213 37.2615H42.6199Z" fill="#DD242D"/>
<path d="M40.7421 35.6878C40.6654 35.6971 40.3096 35.7495 40.2887 35.7588C40.1604 35.7063 40.0251 35.5892 39.9009 35.5445L39.707 34.7568C40.1088 34.9387 40.4924 35.2948 40.7435 35.6863L40.7421 35.6878Z" fill="#3E9444"/>
<path d="M40.0291 34.7568L40.8703 35.472L41.0321 34.971L41.0642 35.5429C41.0502 35.5429 40.8214 35.64 40.8047 35.6862C40.7838 35.6862 40.7615 35.6832 40.7405 35.6862C40.4894 35.2932 40.1058 34.9371 39.7041 34.7568V34.6859C39.8269 34.6165 40.011 34.7583 40.0277 34.7568H40.0291Z" fill="#93A650"/>
<path d="M40.8719 35.4734L40.0308 34.7582C40.5846 34.7397 40.7743 34.7752 40.8719 35.4734Z" fill="#499157"/>
<path d="M41.2596 35.6154C41.3475 35.6277 41.4842 35.5923 41.5511 35.6154C41.7464 35.6848 41.8413 35.8528 41.9724 35.973C42.0352 36.0301 42.1733 36.2428 42.2318 36.3306C41.759 36.0748 41.8915 35.8636 41.3251 35.8297C41.367 35.6139 40.9764 35.6771 40.8076 35.6863C40.8244 35.6401 41.0517 35.543 41.0671 35.543C41.1019 35.543 41.155 35.6 41.261 35.6139L41.2596 35.6154Z" fill="#EFAA8F"/>
<path d="M41.1955 35.8311C40.9332 36.201 41.5679 36.1193 41.6488 36.3675C41.9446 37.2707 40.5971 38.063 40.4185 38.621C40.406 38.6595 40.353 38.8245 40.3543 38.8353C39.8815 38.658 40.1702 37.579 40.1605 37.0472C40.2386 36.9994 40.3627 36.7112 40.4199 36.6187C40.604 36.3181 40.625 36.0021 40.6459 35.9744C40.6752 35.9374 41.1034 35.8403 41.1969 35.8311H41.1955Z" fill="#F36F37"/>
<path d="M41.3251 35.831C41.8914 35.865 41.7589 36.0761 42.2318 36.332C42.4662 36.6927 42.5498 36.8021 42.6196 37.2615C42.2681 37.4202 42.3169 36.9917 42.0686 36.833C41.6515 37.5867 41.1758 38.2634 40.417 38.621C40.5955 38.063 41.9431 37.2707 41.6473 36.3675C41.5664 36.1193 40.9317 36.1994 41.194 35.831C41.2358 35.8264 41.2819 35.828 41.3237 35.831H41.3251Z" fill="#D8532C"/>
<path d="M40.8062 35.6878C40.975 35.6786 41.367 35.6154 41.3237 35.8312C41.2819 35.8281 41.2359 35.8265 41.194 35.8312C41.1019 35.8404 40.6723 35.9375 40.643 35.9745C40.6207 36.0023 40.5998 36.3182 40.417 36.6188C40.0334 35.7078 39.4127 37.5098 40.1576 37.0473C40.1673 37.5807 39.8786 38.6596 40.3515 38.8354C40.357 39.0049 40.4324 38.9972 40.4812 39.1221C40.3961 39.1221 40.3082 39.1221 40.2217 39.1221C40.2064 39.0049 40.0446 39.0512 39.9623 39.0512C39.2899 38.1525 39.0123 37.2246 39.7684 36.2612C39.806 36.2134 40.2538 35.7741 40.2859 35.7603C40.3068 35.751 40.6625 35.6986 40.7393 35.6894C40.7602 35.6863 40.7825 35.6894 40.8034 35.6894L40.8062 35.6878Z" fill="#F8984D"/>
<path d="M40.4182 36.6174C40.361 36.7114 40.2369 36.9981 40.1588 37.0459C39.4139 37.5067 40.0346 35.7048 40.4182 36.6174Z" fill="#EFB274"/>
<path d="M39.6733 37.0474C39.9049 37.2262 39.9244 37.6978 39.6733 37.9059V37.0474Z" fill="#FDC890"/>
<path d="M40.4504 36.1164C40.5955 36.1226 40.5745 36.2998 40.5146 36.3306C40.4769 36.3507 40.2453 36.1087 40.4504 36.1164Z" fill="#FDC890"/>
<defs>
<linearGradient id="paint0_linear_366_138185" x1="36.5559" y1="22.9373" x2="35.4434" y2="31.7971" gradientUnits="userSpaceOnUse">
<stop stop-color="#F9A553"/>
<stop offset="1" stop-color="#F38945"/>
</linearGradient>
<linearGradient id="paint1_linear_366_138185" x1="31.6597" y1="22.6276" x2="22.6927" y2="34.2036" gradientUnits="userSpaceOnUse">
<stop stop-color="#FDD86B"/>
<stop offset="1" stop-color="#D6AC4B"/>
</linearGradient>
<linearGradient id="paint2_linear_366_138185" x1="34.2991" y1="22.8465" x2="33.984" y2="32.4275" gradientUnits="userSpaceOnUse">
<stop stop-color="#F68E46"/>
<stop offset="1" stop-color="#ED7236"/>
</linearGradient>
</defs>
</svg>
