<svg width="50" height="50" viewBox="0 0 50 50" fill="none" xmlns="http://www.w3.org/2000/svg">
<path d="M44.3278 28.4326C44.228 28.5927 44.0556 28.8081 43.9379 28.983C43.8706 29.0818 43.8107 29.1934 43.7423 29.2893C43.5658 29.5373 43.344 29.8485 43.1569 30.0847C42.9004 30.4068 42.5914 30.7585 42.3107 31.0639C40.2673 33.289 37.238 35.3334 34.3705 36.5082C30.926 37.9202 27.2008 38.5733 23.4367 38.3431C21.8611 38.2462 20.2875 37.9953 18.7834 37.5477C18.7781 38.1751 19.5191 38.4715 19.2059 39.1997C19.0987 39.1671 18.9873 39.1128 18.8801 39.0772C17.9782 38.7729 16.3721 38.1326 15.8865 37.3332C15.7424 37.0961 15.7025 36.6969 15.6258 36.5685C15.6815 36.5685 15.692 36.521 15.7561 36.5072L18.0339 37.3332L16.8945 36.8748C16.843 36.5892 16.2144 36.4301 15.9506 36.2631C14.5126 35.3531 12.5607 33.5677 11.9805 32.0114C11.4002 30.4552 12.259 29.3061 12.176 27.7597C14.1794 28.3832 16.3994 28.8219 18.489 29.1055C21.8758 29.5649 28.9604 29.9463 32.1558 29.0442C37.5775 28.2113 44.2921 26.414 46.8642 21.3975C46.5247 23.9032 45.689 26.2549 44.3257 28.4326H44.3278Z" fill="url(#paint0_linear_366_138189)"/>
<path d="M6.25601 24.9458C6.32118 26.0702 6.85831 27.3231 7.36285 28.3408C8.82601 31.2942 11.3098 33.797 14.2288 35.5291C14.6797 35.7969 15.4239 36.0469 15.8234 36.3245C15.899 36.3769 16.0199 36.4332 16.0189 36.5389C15.9947 36.5884 15.9085 36.4747 15.7582 36.5083C15.6941 36.5222 15.6836 36.5696 15.6279 36.5696C15.5259 36.3986 13.6013 35.5815 13.1871 35.3463C7.67503 32.2062 3.68601 27.1937 3.06689 21.031C3.66078 22.6673 4.81597 23.9053 6.25601 24.9468V24.9458Z" fill="#AE9B96"/>
<path d="M12.178 27.7599C12.261 29.3062 11.4117 30.48 11.9825 32.0116C12.5532 33.5431 14.5146 35.3543 15.9526 36.2633L15.8222 36.3246C15.4228 36.0469 14.6786 35.7969 14.2277 35.5291C11.3087 33.797 8.82489 31.2942 7.36172 28.3408C6.85718 27.3221 6.3211 26.0702 6.25488 24.9458C7.97453 26.1888 10.1209 27.1196 12.1769 27.7599H12.178Z" fill="#95908E"/>
<path d="M34.3707 36.5085C34.377 37.1824 33.8304 37.714 33.2964 38.0994C31.8501 39.1428 28.7598 39.7821 26.9508 39.9342C26.4515 39.9767 25.9554 39.9846 25.454 39.9955C24.7098 40.0123 23.9824 39.9876 23.2414 39.9342C23.1342 39.9263 23.0227 39.9431 22.9155 39.9342L23.3707 39.7811C23.029 39.4086 23.4106 38.8029 23.4358 38.3434C27.1999 38.5736 30.9251 37.9205 34.3696 36.5085H34.3707Z" fill="#193033"/>
<path d="M23.437 38.3442C23.4118 38.8037 23.0302 39.4094 23.3718 39.7819L22.9167 39.935C22.4847 39.8965 21.915 39.8224 21.4851 39.7513C20.8102 39.6406 19.8621 39.4025 19.2073 39.2009C19.5205 38.4737 18.7784 38.1763 18.7847 37.5488C20.2889 37.9964 21.8624 38.2474 23.438 38.3442H23.437Z" fill="#314543"/>
<path d="M15.7573 36.5082C15.9066 36.4746 15.9938 36.5883 16.018 36.5389C16.0191 36.4331 15.8982 36.3778 15.8225 36.3244L15.9528 36.2632C16.2167 36.4302 16.8452 36.5893 16.8967 36.8748L18.0362 37.3333L15.7584 36.5072L15.7573 36.5082Z" fill="#8B9393"/>
<path d="M26.7566 23.3549C26.9364 23.6602 25.9988 23.6562 25.8127 23.5999C25.7076 23.5673 25.675 23.2155 25.4543 23.3549C25.4533 23.3143 25.4511 23.2728 25.4543 23.2323C25.4627 23.1118 25.5352 23.0298 25.5846 22.926C25.9504 23.0989 26.3656 23.2353 26.7556 23.3539L26.7566 23.3549Z" fill="#787D33"/>
<path d="M24.8046 14.301C24.484 14.4591 24.1287 14.6617 23.8281 14.8514L23.1123 14.7901C23.0997 14.7121 23.0156 14.5303 22.9819 14.4235L24.8046 14.301Z" fill="#CF9841"/>
<path d="M23.8283 14.8515C23.8283 14.8515 23.8262 14.8713 23.7631 14.9128H23.1125C23.1093 14.8733 23.1188 14.8298 23.1125 14.7903L23.8283 14.8515Z" fill="#BE7833"/>
<path d="M38.2109 17.1766C38.1636 17.3406 38.1353 17.5006 38.0806 17.6657C38.0564 17.7378 38.0417 17.8396 38.0154 17.9107C37.9913 17.9769 37.9765 18.0915 37.9503 18.1557C37.5708 19.0974 36.8844 19.9669 36.1928 20.7248C36.0467 20.7929 36.0015 20.9224 35.9321 20.9698C35.7923 21.0656 35.724 21.1733 35.6063 21.2761C35.5085 21.3621 35.3834 21.4372 35.2804 21.5211C35.1648 21.615 35.0218 21.6881 34.9546 21.8275C34.7391 21.8571 34.7349 21.9925 34.6939 22.0112C33.4514 22.5883 32.8365 23.1209 31.3744 23.4795C31.1474 23.5349 30.8888 23.6277 30.6586 23.6633C30.5682 23.6771 30.6061 23.5349 30.5609 23.5408C30.5283 23.5447 30.5955 23.6386 30.3328 23.6633C29.8671 23.7078 29.4361 23.7364 28.9663 23.7246C28.4964 23.7127 27.9951 23.688 27.5347 23.602C27.2719 23.5526 27.008 23.4351 26.7537 23.357C26.3627 23.2384 25.9475 23.1021 25.5827 22.9292C25.3252 22.8076 24.9331 22.5853 24.6714 22.4401C24.6598 22.4331 24.5789 22.3156 24.4759 22.2563C24.1637 22.0774 23.7233 21.6239 23.4342 21.5221C23.4079 21.447 23.3648 21.3947 23.3039 21.3384C22.7583 20.8315 22.2959 20.3315 21.9374 19.6863C21.9332 19.5391 21.9048 19.4373 22.1003 19.5638C22.751 19.9857 23.1557 20.6052 24.0523 21.032C28.0581 22.9351 37.7506 21.6644 38.1426 16.5659L39.3136 17.0856L38.3045 16.81C38.1384 16.9029 38.2404 17.059 38.2067 17.1766H38.2109Z" fill="url(#paint1_linear_366_138189)"/>
<path d="M38.1457 15.9528C38.1667 16.1188 38.1593 16.3925 38.1457 16.5644C37.7536 21.6629 28.0612 22.9336 24.0553 21.0305C23.1577 20.6037 22.754 19.9842 22.1034 19.5623C21.9079 19.4358 21.9363 19.5376 21.9405 19.6848C21.9384 19.6808 21.9163 19.7036 21.8753 19.6235C21.8227 19.5208 21.7492 19.5089 21.745 19.501C21.726 19.4585 21.5705 18.8597 21.5494 18.7668C21.5284 18.674 21.4906 18.6265 21.4843 18.5831C21.4559 18.3963 21.5042 18.1651 21.4843 17.9714C21.5274 17.7985 21.5074 17.3499 21.5494 17.2373C21.767 16.6524 22.5985 15.7453 23.1114 15.3412C23.3111 15.1831 23.5045 15.0813 23.7621 14.9133C23.8251 14.8718 23.823 14.855 23.8272 14.8521C24.1279 14.6624 24.4821 14.4588 24.8037 14.3017C25.1254 14.1446 25.5711 13.9332 25.9106 13.8126C26.597 13.5676 27.4694 13.3324 28.1884 13.201C30.7573 12.7307 37.7168 12.4915 38.1457 15.9538V15.9528Z" fill="white"/>
<path d="M23.7631 14.9126C23.5056 15.0806 23.3122 15.1833 23.1125 15.3404C23.1041 15.1991 23.124 15.0529 23.1125 14.9126H23.7631Z" fill="#F1D05F"/>
<path d="M28.3838 21.3362C28.429 20.9726 28.2608 20.3046 28.6445 20.0517C30.5838 20.189 34.7526 19.2355 33.5911 16.6873C34.8566 17.1339 36.0276 17.9224 37.4634 17.788C35.6534 20.6337 31.7064 21.5032 28.3848 21.3362H28.3838Z" fill="#F6D2C8"/>
<path d="M28.6446 20.0516C28.261 20.3045 28.4291 20.9735 28.3839 21.3361C28.0476 21.3193 26.0052 21.1098 25.9106 20.8776L26.431 19.5012C27.0805 19.7838 27.9267 20.0012 28.6436 20.0516H28.6446Z" fill="#F1E7E8"/>
<path d="M33.5898 16.6872C34.7524 19.2354 30.5836 20.1899 28.6432 20.0516C27.9264 20.0002 27.0802 19.7838 26.4306 19.5012C22.4531 17.7721 25.5834 14.7673 28.8061 14.6685C30.2451 14.6241 32.9623 15.3128 33.5898 16.6872Z" fill="url(#paint2_linear_366_138189)"/>
<path d="M27.6354 15.3413C27.6943 15.3384 27.7689 15.3245 27.7984 15.3719C27.3149 16.1792 25.5942 16.5132 25.9757 17.6356C25.8748 17.936 24.9162 17.3728 25.3251 16.6565C25.4649 16.4104 27.4042 15.3532 27.6354 15.3413Z" fill="#F9EB86"/>
<path d="M27.5051 17.4214C28.3902 17.3384 27.7343 18.613 26.7893 18.4006C25.899 18.2 27.2161 17.449 27.5051 17.4214Z" fill="#FCD081"/>
<path d="M17.1904 10.6916C17.1967 10.6945 17.2482 10.7884 17.2555 10.8141C17.203 10.8062 17.0022 10.7726 16.9949 10.7835L17.1904 11.3032H17.1252C17.0874 11.236 16.7699 10.743 16.6701 10.8754C16.6753 10.8358 16.6659 10.7924 16.6701 10.7528L16.7026 10.4465C16.8435 10.5947 17.0337 10.6244 17.1904 10.6916Z" fill="#ACBA3A"/>
<path d="M17.2543 10.814C17.3668 10.8308 17.7557 10.9998 17.905 11.0591C18.8478 11.4316 20.4392 11.9296 21.257 12.4048C21.7174 12.6726 22.7423 13.8514 22.8516 13.8731C22.7486 14.0194 22.9367 14.2782 22.9819 14.4235C23.0156 14.5312 23.0996 14.712 23.1123 14.7901C23.1186 14.8286 23.1091 14.8731 23.1123 14.9126C23.1238 15.0529 23.1038 15.2001 23.1123 15.3404C22.5993 15.7455 21.7679 16.6516 21.5503 17.2366C21.3779 16.8759 20.8145 16.8374 20.5412 16.6249C20.3247 16.456 18.5714 13.637 18.2308 13.1074C17.8556 12.5244 17.618 11.8535 17.1892 11.3031L16.9937 10.7834C17.001 10.7725 17.2018 10.8061 17.2543 10.814Z" fill="url(#paint3_linear_366_138189)"/>
<path d="M21.5503 17.2376C21.5083 17.3503 21.5282 17.7989 21.4851 17.9718C21.4767 18.0044 21.3601 18.1328 21.42 18.2475C21.3296 18.3265 21.3611 18.1566 21.3548 18.1556C21.4305 17.7475 21.0742 17.7603 21.029 17.6971C21.0079 17.6675 21.1404 17.6566 20.8986 17.3602C19.3503 15.4621 18.2824 13.3545 17.124 11.3032H17.1892C17.617 11.8536 17.8556 12.5255 18.2309 13.1075C18.5714 13.6371 20.3247 16.4561 20.5412 16.625C20.8135 16.8375 21.3779 16.876 21.5503 17.2367V17.2376Z" fill="#638239"/>
<path d="M20.8996 17.3603C21.1414 17.6567 21.0089 17.6676 21.0299 17.6972C21.0751 17.7605 21.4315 17.7476 21.3558 18.1557C20.8418 18.1191 21.1088 18.0253 20.9974 17.9719C20.5927 17.7792 20.1943 17.6369 19.7938 17.4215L19.7612 17.1152C20.0177 17.2476 20.6841 17.6448 20.9007 17.3603H20.8996Z" fill="#416B33"/>
<path d="M10.8122 12.71C10.992 12.7534 11.2169 12.7742 11.3977 12.7712C11.1087 13.0331 12.1209 13.1319 12.1787 13.4441C12.1167 13.453 12.0473 13.4392 11.9832 13.4441L11.2348 13.1378L11.3977 13.872C11.2411 13.5834 11.0193 13.3038 10.8774 13.0153C10.6661 12.5855 10.8143 12.8206 10.8122 12.709V12.71Z" fill="#ACBA3A"/>
<path d="M17.1256 11.3034C18.2839 13.3546 19.3519 15.4622 20.9002 17.3603C20.6847 17.6449 20.0172 17.2477 19.7608 17.1152L19.7933 17.4216C19.2205 17.1133 17.9539 16.4592 17.5807 16.0758C17.5523 16.0461 17.7237 16.0224 17.5481 15.8307C17.1571 15.4039 16.2111 15.2665 15.7581 15.0966C15.0044 14.814 14.4505 14.5947 13.7084 14.2399C13.4204 14.1026 12.6383 13.5364 12.4071 13.4445C12.3966 13.4406 12.2221 13.4386 12.179 13.4445C12.1212 13.1323 11.1089 13.0335 11.398 12.7716C11.5273 12.7697 11.6597 12.7776 11.788 12.7716C13.3373 12.7045 14.8846 12.4643 16.4413 12.4653C16.4686 12.163 16.579 11.8547 16.5391 11.5474C16.703 11.3567 16.64 11.084 16.6694 10.8745C16.7703 10.7421 17.0867 11.2352 17.1245 11.3024L17.1256 11.3034Z" fill="url(#paint4_linear_366_138189)"/>
<path d="M11.9833 13.4442L21.4855 18.5832C21.4918 18.6267 21.5307 18.6781 21.5507 18.767C21.3426 18.7354 21.1323 18.9142 20.9652 18.9508C20.7981 18.9874 20.2935 19.021 20.1191 19.0121C19.3086 18.9725 19.0763 18.4864 18.4593 18.4004C18.0525 18.3441 17.5459 18.4479 17.1254 18.4617C16.3297 18.4874 15.5614 18.5536 14.7825 18.7067C14.1487 18.3599 13.6988 17.7394 13.2857 17.1772C13.2447 17.1209 13.1701 16.9252 13.0902 16.8106C13.0261 16.7167 12.9041 16.6417 12.8947 16.6268C12.8631 16.5794 12.8232 16.4747 12.7643 16.3818C12.7244 16.3195 12.6687 16.2533 12.634 16.198C12.5415 16.0498 12.47 15.868 12.3733 15.7089C12.0243 15.1329 11.7206 14.4699 11.3968 13.874L11.2339 13.1399L11.9823 13.4462L11.9833 13.4442Z" fill="url(#paint5_linear_366_138189)"/>
<path d="M15.7575 15.0965C15.6797 15.1736 16.0928 15.4512 16.1159 15.4631C16.5206 15.6805 17.1345 15.9166 17.5802 16.0747C17.9533 16.4581 19.2199 17.1122 19.7928 17.4205C20.1933 17.6359 20.5916 17.7791 20.9963 17.9708C21.1077 18.0232 20.8407 18.1181 21.3547 18.1546C21.3611 18.1546 21.3295 18.3256 21.4199 18.2465C21.36 18.1329 21.4767 18.0034 21.4851 17.9708C21.5051 18.1645 21.4567 18.3957 21.4851 18.5825L11.9829 13.4434C12.046 13.4385 12.1154 13.4523 12.1784 13.4434C12.2205 13.4375 12.396 13.4395 12.4065 13.4434C12.6378 13.5353 13.4198 14.1015 13.7078 14.2388C14.451 14.5936 15.0038 14.8119 15.7575 15.0955V15.0965Z" fill="#839439"/>
<path d="M17.5807 16.0744C17.135 15.9153 16.5212 15.6792 16.1165 15.4628C16.0934 15.4509 15.6813 15.1723 15.758 15.0962C16.2111 15.2661 17.156 15.4035 17.5481 15.8303C17.7237 16.022 17.5523 16.0457 17.5807 16.0754V16.0744Z" fill="#638239"/>
<path d="M16.6034 24.518C16.9251 24.5684 16.9072 24.8589 17.0586 25.0071C16.6171 25.1869 16.2713 25.2037 15.8225 25.2521L15.627 24.6405C15.9265 24.6553 16.4174 24.4893 16.6034 24.518Z" fill="#AC6457"/>
<path d="M15.8877 22.6822C15.6323 22.8877 15.1709 23.699 14.8461 23.9667C14.7357 23.9815 14.7063 24.0201 14.6506 24.028C14.2364 24.0892 13.8317 24.2128 13.4144 24.273C13.158 24.1238 12.9625 23.9341 12.6335 23.9064C12.4148 23.7118 11.946 24.0171 11.7873 23.8146C11.782 23.8076 11.8903 23.7563 11.8525 23.6614C12.994 23.449 14.1776 23.4164 15.2045 22.9273C15.4673 22.8018 15.5524 22.3976 15.9203 22.4994L15.8877 22.6832V22.6822Z" fill="#AC6457"/>
<path d="M14.6517 24.0278C14.6486 24.0674 14.6591 24.1118 14.6517 24.1504C14.5687 24.5723 14.7158 24.6306 14.6843 25.007C14.2113 24.9932 13.9138 24.6098 13.5449 24.3954C13.4545 24.343 13.423 24.2778 13.4146 24.2729C13.8318 24.2126 14.2365 24.0901 14.6507 24.0278H14.6517Z" fill="#AA6628"/>
<path d="M12.6336 23.9062C12.9626 23.9338 13.1581 24.1245 13.4146 24.2728C13.4219 24.2777 13.4545 24.3429 13.5449 24.3953C13.5428 25.0504 12.9363 24.9644 13.6753 25.3132C13.4629 25.3004 13.238 25.3112 13.0246 25.3132C12.9668 25.3132 12.8102 25.4357 12.7965 25.4357C11.9409 25.4456 11.7717 25.4506 11.3975 24.7628C11.4237 24.1907 12.046 23.8568 12.6336 23.9062Z" fill="#96943B"/>
<path d="M12.6659 24.2118C12.7185 24.2177 12.9445 24.3382 13.0243 24.3649C13.078 24.5704 12.1551 24.5892 12.0479 24.3649C12.0521 24.279 12.6344 24.2088 12.6659 24.2118Z" fill="#BDC46F"/>
<path d="M16.9949 23.7224V23.7837C16.8005 23.9862 16.8141 24.4556 16.605 24.5178C16.4189 24.4882 15.9291 24.6552 15.6285 24.6403C15.1965 24.6186 14.8948 24.4783 14.652 24.1512C14.6593 24.1127 14.6488 24.0682 14.652 24.0287C14.7077 24.0208 14.7371 23.9823 14.8475 23.9675C15.414 23.8904 16.4872 23.9289 16.9949 23.7224Z" fill="#F6D2C8"/>
<path d="M9.51087 22.1315C10.2141 22.4052 10.3339 22.3321 11.0728 22.1315C11.2873 22.0732 11.5879 21.8697 11.8538 21.8865C11.5921 22.3628 10.8069 22.2877 11.138 23.1097C11.1096 23.1167 10.9898 23.1552 10.9425 23.171C10.8111 23.2145 10.6776 23.2303 10.5525 23.2935C9.95654 23.341 9.63805 23.2935 9.1209 23.0485C8.76247 22.8795 7.80384 22.1869 7.68927 21.8252C7.41597 20.9607 7.77651 20.9557 8.01511 20.4182C8.23795 21.1454 8.76667 21.842 9.51192 22.1315H9.51087Z" fill="#AC6457"/>
<path d="M20.1188 19.0113L20.7695 19.3176V19.3789C19.9086 19.0805 18.8007 18.8403 17.8736 18.951C17.5541 18.9886 16.1319 19.5696 15.8239 19.7464C14.4554 20.5329 14.8023 21.2335 15.7588 22.2245C15.5338 22.4814 15.2101 22.5911 14.9126 22.7443C14.4396 22.7314 13.9288 23.1622 13.4484 23.1108C13.3128 23.096 12.1671 22.5526 12.1145 22.4686C11.7035 21.8214 12.8535 19.0212 13.9698 18.951L17.1263 18.4619C17.5467 18.4481 18.0534 18.3443 18.4602 18.4007C19.0772 18.4866 19.3095 18.9728 20.1199 19.0123L20.1188 19.0113Z" fill="#F6D2C8"/>
<path d="M17.125 18.4609L13.9685 18.95C12.8522 19.0202 11.7023 21.8214 12.1132 22.4676C12.1669 22.5516 13.3115 23.095 13.4471 23.1099C13.9285 23.1612 14.4383 22.7295 14.9113 22.7433C13.7299 23.3539 12.8028 23.5071 11.9177 22.3767C11.9388 22.2255 11.8894 22.0289 11.9177 21.8876C12.3003 19.9925 12.7923 19.0983 14.781 18.706C15.5599 18.5528 16.3283 18.4866 17.124 18.4609H17.125Z" fill="#F8E2DB"/>
<path d="M21.5505 18.7671C21.5715 18.86 21.7271 19.4588 21.746 19.5013C21.5484 19.6702 20.9125 19.4835 20.8347 19.5013C20.8442 19.4242 20.8578 19.4094 20.7695 19.3788V19.3175L20.965 18.9509C21.1322 18.9154 21.3424 18.7355 21.5505 18.7671Z" fill="#DBB179"/>
<path d="M13.2855 17.1764C12.7137 17.4392 12.0526 17.4442 11.4629 17.6042C11.9075 17.1151 12.5098 17.0687 13.09 16.8088C13.1689 16.9244 13.2435 17.1191 13.2855 17.1754V17.1764Z" fill="#CF9841"/>
<path d="M20.9648 18.95L20.7693 19.3165L20.1187 19.0102C20.2931 19.0191 20.804 18.9836 20.9648 18.949V18.95Z" fill="#BB764D"/>
<path d="M21.8748 19.624C21.9158 19.704 21.9379 19.6813 21.94 19.6852C22.2995 20.3295 22.7609 20.8304 23.3064 21.3373C22.5601 21.3837 21.7382 21.275 20.9961 21.3986C20.6849 21.4499 19.8156 21.8847 19.6296 21.8877C19.5381 21.8896 18.8444 21.4756 18.7509 21.3067C18.6867 21.1891 18.5869 20.8808 18.6205 20.7563C18.7403 20.3107 21.3188 19.5449 21.8748 19.625V19.624Z" fill="#F0BFB5"/>
<path d="M21.7464 19.5015C21.7496 19.5094 21.8231 19.5202 21.8767 19.624C21.3207 19.544 18.7423 20.3107 18.6225 20.7553C18.5888 20.8798 18.6876 21.1891 18.7528 21.3057C18.8463 21.4747 19.5401 21.8887 19.6315 21.8867C19.8176 21.8827 20.6879 21.449 20.998 21.3976C21.7401 21.2741 22.5621 21.3828 23.3084 21.3363C23.3693 21.3927 23.4124 21.445 23.4387 21.5201C22.4044 21.1575 20.2317 21.6683 19.209 22.0705C19.4634 21.7849 18.7412 21.5903 18.5583 21.1832C18.4753 20.9984 18.5184 20.7899 18.4932 20.6022C19.0419 20.1546 20.1045 19.868 20.8035 19.6843C20.8645 19.6685 20.8256 19.5034 20.8361 19.5005C20.9129 19.4827 21.5488 19.6694 21.7475 19.5005L21.7464 19.5015Z" fill="#F6D2C8"/>
<path d="M24.6746 22.4379C24.7482 22.7205 24.4234 23.9665 24.8375 23.845L25.1308 23.5387C24.436 24.6898 23.4669 25.0277 22.2675 25.6186C21.2858 25.8933 20.3702 26.3656 19.2739 26.2302C18.8682 26.1739 18.9186 26.1759 18.5581 26.0464C18.9733 25.502 19.7669 25.8192 20.4133 25.7401C21.29 25.6334 22.0804 25.1413 22.8215 24.7609C23.1904 24.5712 23.6771 24.7856 23.8306 24.088C24.6872 23.5041 24.5874 23.1928 24.4812 22.2532C24.5842 22.3125 24.6641 22.43 24.6767 22.437L24.6746 22.4379Z" fill="#AC6457"/>
<path d="M23.8284 24.089C23.6749 24.7866 23.1893 24.5722 22.8193 24.7619C22.0783 25.1413 21.2878 25.6344 20.4112 25.7411C19.7647 25.8191 18.9722 25.503 18.5559 26.0474C17.7844 25.7717 17.6099 25.5464 17.0591 25.0069C16.9067 24.8577 16.9256 24.5682 16.604 24.5178C16.8132 24.4556 16.8006 23.9862 16.994 23.7837C17.5868 26.8784 22.0699 25.2876 23.8273 24.09L23.8284 24.089Z" fill="#BC7364"/>
<path d="M23.4375 21.52C23.7265 21.6217 24.1669 22.0753 24.4791 22.2541C24.5853 23.1948 24.6852 23.505 23.8285 24.089C22.071 25.2875 17.588 26.8783 16.9951 23.7827V23.7214C17.2716 23.6088 17.528 23.1207 17.7761 22.926C17.9632 22.7798 18.1587 22.6237 18.3616 22.4982C18.6885 22.2966 18.843 22.2136 19.2077 22.0703C20.2305 21.6682 22.4042 21.1573 23.4375 21.52Z" fill="#F6D2C8"/>
<path d="M25.5857 22.9271C25.5363 23.0308 25.4638 23.1118 25.4553 23.2334C24.9771 23.3075 25.2094 23.4073 25.1295 23.5397L24.8362 23.846C24.4221 23.9675 24.7469 22.7216 24.6733 22.439C24.935 22.5842 25.3271 22.8065 25.5846 22.9281L25.5857 22.9271Z" fill="#AC6457"/>
<path d="M18.3613 21.8253C18.4622 22.1662 18.7481 21.9844 18.3613 22.4982C18.1584 22.6237 17.9619 22.7798 17.7758 22.926C17.1693 22.9399 16.3431 22.3164 15.888 22.681L15.9206 22.4972C15.5527 22.3954 15.4676 22.7995 15.2048 22.925C14.1778 23.4141 12.9943 23.4467 11.8527 23.6592C11.7371 23.3716 11.7003 23.3203 11.7224 22.9863C11.7266 22.9191 11.8969 22.5268 11.9179 22.3747C12.8029 23.505 13.73 23.3519 14.9115 22.7412C15.209 22.5881 15.5327 22.4784 15.7577 22.2215C14.8011 21.2305 14.4543 20.5299 15.8228 19.7434C15.1228 20.4272 15.5695 21.4597 16.2454 22.0071C17.244 22.8144 17.4847 22.5535 18.3603 21.8233L18.3613 21.8253Z" fill="#BC7364"/>
<path d="M17.7761 22.9271C17.528 23.1218 17.2726 23.6099 16.9951 23.7225C16.4874 23.9291 15.4142 23.8895 14.8477 23.9676C15.1714 23.6988 15.6328 22.8886 15.8893 22.6831C16.3445 22.3175 17.1696 22.942 17.7771 22.9281L17.7761 22.9271Z" fill="#DB9C8B"/>
<path d="M11.9178 22.3768C11.8967 22.529 11.7265 22.9212 11.7223 22.9884C11.5341 23.0497 11.3249 23.0635 11.1368 23.1109C10.8057 22.2889 11.5909 22.364 11.8526 21.8877H11.9178C11.8894 22.029 11.9388 22.2256 11.9178 22.3768Z" fill="#9D5243"/>
<path d="M13.2856 17.1763C13.6987 17.7375 14.1486 18.359 14.7824 18.7058C12.7936 19.0971 12.3017 19.9913 11.9191 21.8874H11.8539C11.588 21.8706 11.2874 22.0742 11.073 22.1325C10.5611 21.9863 10.0239 22.3301 9.51098 22.1325C9.44791 22.1078 8.77204 21.2541 8.66483 21.1227C8.50611 20.928 8.28011 20.8994 8.27486 20.8776C8.23492 20.7245 8.36315 19.9607 8.34003 19.7463C9.07582 18.5833 9.63817 18.114 11.073 17.6664C11.0971 17.6585 11.2748 17.6565 11.4629 17.6051C12.0516 17.444 12.7127 17.4401 13.2856 17.1773V17.1763Z" fill="#F6D2C8"/>
<path d="M9.51096 22.1316C8.76572 21.8421 8.237 21.1455 8.01416 20.4182C8.06672 20.2987 8.0972 20.1445 8.1445 20.0517C8.17708 19.9874 8.19706 19.8896 8.20967 19.8679C8.21387 19.86 8.33475 19.7543 8.34001 19.7454C8.36313 19.9598 8.2349 20.7236 8.27484 20.8767C8.2801 20.8985 8.50609 20.9271 8.66481 21.1218C8.77202 21.2532 9.4479 22.1069 9.51096 22.1316Z" fill="#F8E2DB"/>
<path d="M11.0727 22.1316C10.3338 22.3322 10.215 22.4053 9.51074 22.1316C10.0237 22.3292 10.5608 21.9854 11.0727 22.1316Z" fill="#F8E2DB"/>
<path d="M13.0573 17.4214C13.1183 17.4264 13.1824 17.3977 13.2202 17.4521C13.3285 17.621 12.2816 18.5281 12.0808 18.6447C11.8632 18.7721 11.2168 19.0073 10.9414 18.9816C11.0539 18.2514 12.3531 17.3592 13.0563 17.4214H13.0573Z" fill="#F9B399"/>
<path d="M20.7695 19.379C20.8578 19.4096 20.8442 19.4244 20.8347 19.5015C20.8242 19.5035 20.8631 19.6685 20.8021 19.6853C20.1031 19.869 19.0404 20.1556 18.4917 20.6032C17.9819 21.0192 18.1901 21.2445 18.3614 21.8264C17.4858 22.5566 17.2451 22.8175 16.2465 22.0102C15.5696 21.4638 15.1229 20.4303 15.824 19.7465C16.132 19.5697 17.5552 18.9887 17.8737 18.9511C18.8008 18.8414 19.9087 19.0815 20.7695 19.379Z" fill="#F6D2C8"/>
<path d="M19.2076 22.0701C18.8428 22.2134 18.6883 22.2964 18.3614 22.4979C18.7482 21.9841 18.4623 22.1659 18.3614 21.8251C18.1901 21.2431 17.9809 21.0178 18.4917 20.6018C18.517 20.7895 18.4739 20.998 18.5569 21.1828C18.7398 21.5899 19.463 21.7836 19.2076 22.0701Z" fill="#AC6457"/>
<path d="M5.80014 16.1973C4.20979 17.8197 3.55914 19.6507 4.56402 21.7642C5.08223 22.856 5.84429 23.4647 6.77664 24.2116C6.97846 24.3737 7.13402 24.4626 7.29695 24.5782C7.33899 24.6079 7.39155 24.6938 7.49246 24.762C8.55725 25.4843 10.3946 26.5494 11.6581 26.8419C11.5351 26.9664 11.7253 26.9931 11.821 27.0257C14.0189 27.7687 16.3713 28.3013 18.687 28.6165L18.4914 29.1056C16.4018 28.822 14.1829 28.3833 12.1784 27.7598C10.1213 27.1196 7.97598 26.1888 6.25633 24.9458C4.81629 23.9044 3.6611 22.6663 3.06722 21.03C2.80759 18.4432 3.25432 17.3712 5.21467 15.5857C5.12007 15.9908 5.6635 15.8999 5.80014 16.1973Z" fill="#F9B399"/>
<path d="M46.8666 21.3975C44.2945 26.415 37.581 28.2123 32.1582 29.0443C32.2444 29.0196 32.791 28.8576 32.8089 28.8299C32.8435 28.7746 32.8089 28.5098 32.7437 28.4327C32.8719 28.411 33.0044 28.3951 33.1336 28.3714C33.243 28.3517 33.3502 28.3319 33.4595 28.3102C33.6392 28.2756 33.8043 28.2252 33.9798 28.1876C34.0692 28.1689 34.1574 28.1442 34.2405 28.1264C35.2969 27.8952 36.3469 27.6887 37.3644 27.331C37.7008 27.6679 37.7807 27.1926 38.0151 27.0859C38.2495 26.9792 38.5869 26.8972 38.8612 26.7796C39.7999 26.3785 40.5073 26.0524 41.3997 25.5564C42.0009 25.2224 42.4803 24.927 43.0268 24.5159C43.1414 24.43 43.2381 24.3638 43.3527 24.2709C43.8783 23.845 44.1463 23.6267 44.5888 23.1089C44.9767 22.6544 45.2384 22.3757 45.5001 21.8244C46.5376 19.6328 45.8113 17.6666 44.1337 16.0125L44.654 15.4009C46.896 17.3523 47.2492 18.5736 46.8666 21.3966V21.3975Z" fill="#DA6743"/>
<path d="M38.4717 12.1598C39.1465 12.5046 40.3784 13.3613 41.0753 13.8119C39.609 13.2625 38.1921 12.5629 36.6827 12.0985C32.5665 10.8338 27.767 10.314 23.4385 10.5077V10.0186C27.3382 9.89016 35.0429 10.4079 38.4717 12.1598Z" fill="#FAAA70"/>
<path d="M10.6812 12.4663C10.8304 12.5068 10.8094 12.5967 10.8115 12.7114C10.8136 12.826 10.6654 12.5869 10.8767 13.0177C9.09082 13.8299 7.15991 14.812 5.8008 16.1993C5.6631 15.9019 5.11967 15.9928 5.21532 15.5877C6.8246 14.1223 8.62938 13.2647 10.6822 12.4673L10.6812 12.4663Z" fill="#F28675"/>
<path d="M44.6539 15.4018L44.1336 16.0134C43.2612 15.1528 42.1102 14.4809 41.0748 13.811C40.3779 13.3604 39.1471 12.5038 38.4712 12.1589C40.7111 12.8397 42.9217 13.894 44.6539 15.4008V15.4018Z" fill="#EC824A"/>
<path d="M16.6684 10.7529C16.6642 10.7925 16.6736 10.8359 16.6684 10.8755C16.64 11.0849 16.702 11.3576 16.538 11.5483C16.5265 11.4574 16.5979 11.2924 16.4403 11.3033C14.9288 11.7222 13.3437 12.0197 11.8847 12.5878C11.7838 12.6273 11.685 12.659 11.7869 12.7716C11.6576 12.7775 11.5252 12.7696 11.397 12.7716C11.2162 12.7746 10.9912 12.7538 10.8115 12.7103C10.8094 12.5967 10.8304 12.5058 10.6812 12.4653C12.6163 11.7134 14.5903 11.079 16.6684 10.752V10.7529Z" fill="#EC6F66"/>
<path d="M23.4373 10.0186V10.5077C23.3743 10.5106 23.3049 10.4849 23.307 10.5689C22.2422 10.2419 19.1288 10.9889 17.9053 11.058C17.756 10.9987 17.3671 10.8308 17.2546 10.813C17.2473 10.7873 17.1958 10.6934 17.1895 10.6905C19.236 10.2438 21.3393 10.0877 23.4373 10.0186Z" fill="#F79C7B"/>
<path d="M11.3976 13.8733C11.7214 14.4691 12.0251 15.1321 12.3741 15.7081C10.7259 16.4047 9.16291 17.2407 7.68818 18.2169C6.36166 19.0953 4.74083 20.1002 4.56424 21.7651C3.56041 19.6516 4.21001 17.8197 5.80036 16.1982C7.15947 14.8119 9.09144 13.8288 10.8762 13.0166C11.0182 13.3051 11.2399 13.5847 11.3966 13.8733H11.3976Z" fill="#942E24"/>
<path d="M7.81823 24.0893C8.26812 24.028 8.96081 24.1357 8.40371 24.5784C8.29124 24.6673 7.68579 24.8323 7.49238 24.7622C7.39148 24.694 7.33892 24.609 7.29688 24.5784C7.30528 24.2493 7.48503 24.1337 7.81718 24.0893H7.81823Z" fill="white"/>
<path d="M41.0739 13.8122C42.1092 14.4822 43.2602 15.1541 44.1327 16.0147C45.8102 17.6687 46.5366 19.635 45.4991 21.8266C45.5737 20.5984 44.4522 19.6192 43.5146 18.89C41.961 17.6826 39.9439 16.7923 38.1454 15.9534C37.7166 12.4912 30.7571 12.7303 28.1881 13.2006C27.0561 12.3677 25.657 11.9161 24.3809 11.3045C24.1718 11.2047 23.4118 10.6029 23.3067 10.5703C23.3046 10.4864 23.374 10.512 23.437 10.5091C27.7645 10.3154 32.565 10.8351 36.6812 12.0999C38.1906 12.5633 39.6076 13.2629 41.0739 13.8132V13.8122Z" fill="url(#paint6_linear_366_138189)"/>
<path d="M16.5384 11.5483C16.5783 11.8556 16.4679 12.1629 16.4406 12.4662C14.8839 12.4652 13.3366 12.7043 11.7873 12.7725C11.6853 12.6599 11.7831 12.6283 11.885 12.5887C13.345 12.0206 14.9301 11.7232 16.4406 11.3042C16.5983 11.2934 16.5268 11.4574 16.5384 11.5493V11.5483Z" fill="#D34E40"/>
<path d="M23.3075 10.5693C23.4126 10.6019 24.1726 11.2036 24.3817 11.3034C25.6578 11.915 27.0569 12.3666 28.1889 13.1995C27.47 13.3309 26.5975 13.5661 25.9111 13.8112C25.2258 13.3556 23.4242 13.988 22.8524 13.8724C22.743 13.8507 21.7182 12.6719 21.2578 12.4041C20.44 11.9279 18.8497 11.4299 17.9058 11.0584C19.1293 10.9892 22.2427 10.2422 23.3075 10.5693Z" fill="#DA6743"/>
<path d="M30.2704 27.0256C29.8184 27.405 29.2392 27.8289 28.5781 27.8823C28.536 27.8852 28.4908 27.8823 28.4477 27.8823C28.1923 27.8813 27.7803 27.8259 27.6667 27.5759C27.631 27.4969 27.7182 27.319 27.6016 27.2094C27.6215 27.1896 27.6415 27.1758 27.6667 27.1481C28.3689 28.0295 29.4547 27.0374 30.0749 26.8724C30.3051 26.8112 30.1306 26.992 30.2704 27.0256Z" fill="#56672E"/>
<path d="M25.91 13.812C25.5716 13.9335 25.1301 14.141 24.8032 14.3011L22.9806 14.4236C22.9354 14.2783 22.7472 14.0195 22.8502 13.8732C23.422 13.9888 25.2237 13.3565 25.909 13.812H25.91Z" fill="#F9EB86"/>
<path d="M29.1645 26.1689C29.4062 26.158 29.5818 26.1679 29.8151 26.2301C30.0054 26.2815 30.0569 26.2687 30.2051 26.4139C30.2965 26.5028 30.2986 26.7093 30.4006 26.7805C30.3901 26.7904 30.389 26.9257 30.2702 27.0255C30.1304 26.9919 30.3049 26.8111 30.0747 26.8724C29.4546 27.0364 28.3688 28.0294 27.6666 27.1481C27.6771 27.1362 27.6561 27.0996 27.6666 27.0868C27.8064 26.9247 27.9031 26.6313 28.1217 26.4752C28.5748 26.3131 28.6147 26.1946 29.1634 26.1689H29.1645Z" fill="#839439"/>
<path d="M28.806 26.2916C29.0614 26.2442 29.2916 26.2432 29.1644 26.506C30.0999 26.3805 28.4265 27.1018 28.1228 26.8726C28.0345 26.7718 28.703 26.3104 28.806 26.2916Z" fill="#B1C885"/>
<path d="M32.1584 29.0443C28.963 29.9464 21.8784 29.565 18.4917 29.1055L18.6872 28.6164C20.8609 28.9118 23.5266 29.1608 25.7161 29.0443C25.9673 29.0314 26.1838 29.0097 26.4319 28.983C26.7557 29.148 27.1488 28.9879 27.4736 28.9217C27.9771 29.0927 28.5321 28.8951 29.0355 28.8605C29.271 28.8447 29.518 28.8822 29.7514 28.8605C29.908 28.8456 30.0604 28.814 30.2065 28.7992C30.7667 28.7409 31.285 28.6332 31.8336 28.5542C32.0302 28.5255 32.2131 28.5255 32.4191 28.4929C32.5316 28.4751 32.6378 28.4504 32.745 28.4316C32.8101 28.5097 32.8448 28.7745 32.8101 28.8288C32.7923 28.8565 32.2457 29.0186 32.1595 29.0433L32.1584 29.0443Z" fill="#F28675"/>
<path d="M10.4862 24.3952C10.5209 24.4564 10.4515 24.741 10.4862 24.7924C11.1821 25.8397 13.3663 25.6352 14.4889 25.8022C14.2366 25.4396 13.3726 25.6115 13.0247 25.3131C13.2381 25.3111 13.463 25.3002 13.6753 25.3131C14.0285 25.4801 14.0464 25.4168 14.326 25.4969C15.0124 25.6925 15.7114 25.8842 16.4083 26.0472C18.0144 27.2705 20.7851 27.2527 22.4606 26.1698C23.4508 25.9632 24.3243 25.3941 25.2587 25.069C25.7202 24.908 26.4455 24.6323 26.8859 24.5187C27.5029 24.3586 28.0621 24.245 28.7085 24.2124C30.5785 24.1175 31.7799 24.909 33.4596 25.4969C34.0619 25.7587 34.3478 25.9929 35.0868 26.0472C35.1414 26.2943 34.8303 26.3792 34.599 26.3535C33.8601 26.2696 32.4957 25.482 31.4425 25.3131C31.1261 25.2627 30.9737 25.154 30.5964 25.1906C30.3283 25.0078 29.7092 24.9949 29.3928 25.0068C25.4963 25.1599 23.9175 27.5007 21.193 27.8821C20.7988 27.9374 19.9505 27.7181 19.9243 28.0046C19.9074 28.1874 21.3612 28.1558 21.6492 28.1271C24.1067 27.8811 26.3593 25.5937 28.7432 25.3744C29.1521 25.3368 29.5946 25.488 29.9468 25.4356C30.1843 25.4 30.0697 25.3249 30.4671 25.2518C31.3321 25.6006 32.2298 25.8694 33.1359 26.1085C33.2305 26.1332 33.3997 26.0838 33.4943 26.1085C33.6057 26.1381 33.4533 26.2597 33.4617 26.2616C34.2606 26.4711 34.6474 26.4711 35.4788 26.4148L35.544 26.5373C34.742 26.5946 33.9904 26.644 33.201 26.4761C33.1359 26.4543 33.0697 26.4355 33.0055 26.4148C27.3063 24.5681 28.4079 26.1144 23.8618 27.8218C23.0692 28.1192 21.8699 28.467 21.0637 28.2497L20.9659 28.556C20.8482 28.5609 20.7273 28.552 20.6075 28.556C21.5493 28.7951 23.0682 28.6222 24.0562 28.3109C25.6823 27.7981 26.8932 26.4444 28.5141 25.986C29.8416 25.6105 31.7852 25.8664 33.0045 26.4751C33.283 26.6144 33.9021 27.1766 34.0461 27.4543C34.1513 27.6568 34.1429 27.9226 34.2417 28.1271C34.1586 28.1449 34.0703 28.1696 33.981 28.1884C34.1124 27.06 32.0553 26.1767 31.0851 26.3535C30.9117 26.3852 30.5091 26.6816 30.4019 26.7814C30.301 26.7092 30.2978 26.5037 30.2064 26.4148C30.609 26.234 31.0347 26.2103 31.4751 26.231C31.3763 26.063 30.979 26.0729 30.7919 26.0472C30.3336 25.984 29.5126 25.8802 29.1647 26.1698C28.616 26.1945 28.5761 26.314 28.1231 26.4761C26.867 26.9256 26.3172 27.6904 25.162 28.2507C24.9066 28.3742 24.6154 28.5036 24.3159 28.4957C24.2717 28.7022 24.8351 28.6815 24.9339 28.6795C25.6361 28.6647 27.1224 27.6924 27.6027 27.2112C27.7194 27.3219 27.6322 27.4987 27.6679 27.5778C27.3757 27.892 26.9574 27.9266 26.724 28.3119L28.4489 27.8841C28.492 27.8841 28.5361 27.887 28.5792 27.8841C28.2786 28.887 26.4949 28.4819 25.716 29.0461C23.5265 29.1617 20.8608 28.9137 18.6871 28.6182C16.3715 28.303 14.019 27.7704 11.8211 27.0274C11.7255 26.9948 11.5352 26.9691 11.6582 26.8436C12.0366 26.9316 12.6074 27.0205 12.9921 27.0274C13.0772 27.0284 13.3621 27.0798 13.2528 26.9049C12.188 26.7142 10.9161 26.5472 9.9659 26.0482C9.91124 25.8773 10.3685 25.981 10.3885 25.987C10.8699 26.1164 10.9855 26.3861 11.4627 25.9563C11.4711 25.7419 10.0679 25.7765 10.1614 25.4366C11.427 25.8634 12.9238 25.8941 14.2293 26.232C15.7944 26.6371 17.2092 27.4572 18.8826 27.639C22.2021 27.9997 23.3478 26.4494 26.1711 25.4366C27.2149 25.0621 28.0736 24.7993 29.1647 24.7025C29.1553 24.9149 29.6745 24.8517 29.7502 24.7331L29.1647 24.7025C29.3918 24.6827 29.6451 24.6165 29.8805 24.6106C29.2026 24.3576 28.554 24.3497 27.8308 24.4574C27.5491 24.4989 25.902 25.0058 25.6834 25.1303C25.4648 25.2548 25.4322 25.3161 25.3901 25.5581C24.3327 25.9642 23.1376 26.5067 22.1684 26.9039C21.9603 26.9889 21.7469 27.3337 21.3223 27.4543C20.8041 27.6015 19.4944 27.6282 18.9467 27.5768C17.4405 27.4345 15.8627 26.5452 14.4237 26.1698C13.4588 25.9178 10.4147 25.7113 9.9659 24.9771C9.83976 24.7706 9.77985 24.5631 9.90073 24.3349C9.91019 24.3161 10.1614 24.159 10.194 24.0898C10.1646 24.406 10.44 24.3122 10.4873 24.3961L10.4862 24.3952Z" fill="#F9EB86"/>
<path d="M10.4208 17.4216C10.2894 17.5184 10.1759 17.6706 10.095 17.7279C9.84377 17.9058 9.50741 18.2042 9.28142 18.3395C8.99867 18.5085 7.3936 19.1152 7.32948 19.1962C7.1655 19.3988 7.54391 19.3227 7.55757 19.3493C7.28428 20.1764 6.31829 20.0706 5.80009 20.8483C5.79378 20.8572 5.64557 20.8344 5.60458 20.9402C5.8537 22.3007 5.28819 22.9904 6.64625 23.8461C6.86698 23.9854 6.99522 24.1297 7.29689 24.1218L6.77659 24.2137C5.84424 23.4667 5.08217 22.858 4.56396 21.7662C4.74055 20.1013 6.36139 19.0964 7.68791 18.218L8.04635 18.7071C8.71276 18.1113 9.59991 17.8079 10.3567 17.3613L10.4219 17.4226L10.4208 17.4216Z" fill="#B3653A"/>
<path d="M8.404 24.5791C8.59741 25.3073 9.3353 25.4792 9.86822 25.8023C9.93759 25.8438 9.71476 25.915 9.96597 26.0474C10.9162 26.5454 12.1881 26.7124 13.2528 26.9041C13.3632 27.0789 13.0784 27.0276 12.9922 27.0266C12.6075 27.0197 12.0367 26.9307 11.6583 26.8428C10.3948 26.5503 8.55747 25.4852 7.49268 24.7629C7.68608 24.834 8.29153 24.668 8.404 24.5791Z" fill="#CF9841"/>
<path d="M6.71145 23.2935C7.02574 23.417 7.52502 23.8794 7.81829 24.0889C7.48613 24.1343 7.30639 24.2499 7.29798 24.578C7.13505 24.4614 6.97949 24.3725 6.77767 24.2114L7.29798 24.1195C6.99631 24.1284 6.86807 23.9832 6.64733 23.8438C6.72091 23.7391 6.67676 23.6433 6.64733 23.5375C6.6179 23.4318 6.48756 23.332 6.51699 23.2006C6.58111 23.1561 6.63051 23.2599 6.7125 23.2925L6.71145 23.2935Z" fill="#DDAF4B"/>
<path d="M45.5001 21.8253C45.2394 22.3766 44.9777 22.6553 44.5888 23.1098L43.2223 23.5376C43.2023 23.4922 43.1771 23.4606 43.1571 23.4151C43.4483 23.3361 43.9465 23.1533 44.1336 22.926C44.4879 23.0179 45.5232 21.6791 44.8494 21.7028C45.0975 20.4558 42.4045 18.8067 41.4007 18.2158C41.3734 18.1931 41.2577 17.9441 41.1074 17.9708L41.0097 18.3374C40.2665 17.7929 39.0661 17.536 38.2116 17.1754C38.2452 17.0568 38.1433 16.9007 38.3093 16.8088L39.3184 17.0845L38.1475 16.5647C38.1611 16.3928 38.1685 16.1191 38.1475 15.9531C39.9459 16.792 41.963 17.6823 43.5166 18.8897C44.4553 19.6189 45.5768 20.5981 45.5011 21.8263L45.5001 21.8253Z" fill="#EEE1B3"/>
<path d="M33.9807 28.1886C33.8042 28.2251 33.6391 28.2755 33.4604 28.3111C33.4352 27.9465 33.6433 28.0048 33.4604 27.6688C33.2775 27.3329 31.4938 26.2776 32.2243 27.1491C31.6903 27.2538 31.7597 27.7064 32.4198 27.6995C32.3473 28.0631 32.0719 28.2893 31.8344 28.5561C31.2857 28.6352 30.7675 28.7429 30.2072 28.8012C30.6602 28.4 31.8638 28.0374 31.4433 27.241C31.1038 26.5977 30.45 27.6046 30.1746 27.7607C29.3064 28.2538 27.4385 28.8753 26.4326 28.984C26.1845 29.0106 25.968 29.0314 25.7168 29.0452C26.4967 28.481 28.2805 28.8861 28.5801 27.8832C29.2412 27.8299 29.8193 27.406 30.2724 27.0266C30.3912 26.9268 30.3922 26.7914 30.4027 26.7815C30.5099 26.6817 30.9125 26.3853 31.086 26.3537C32.0561 26.1778 34.1142 27.0612 33.9818 28.1886H33.9807Z" fill="#F1D05F"/>
<path d="M43.0267 24.5179C42.4801 24.9289 42.0008 25.2234 41.3996 25.5583C40.6848 25.6354 39.9753 25.9783 39.2847 26.17C39.0703 26.2292 38.5584 26.2124 38.3408 26.2925C37.399 26.1591 36.4971 26.4693 35.5427 26.5375L35.4775 26.415C35.7729 26.3952 36.0914 26.3182 36.3889 26.2925C37.6439 26.1838 39.1365 26.0702 40.3264 25.6809C40.8593 25.507 42.7818 24.6493 42.8323 24.09C43.1592 23.9497 42.991 24.2857 43.0278 24.5179H43.0267Z" fill="#EDDA94"/>
<path d="M41.3999 25.5574C40.5085 26.0534 39.8011 26.3795 38.8614 26.7806C38.6459 26.665 38.2455 26.8676 38.0153 26.9644C38.0216 26.8518 37.9879 26.6067 38.0153 26.5366C38.0584 26.4259 38.2476 26.3261 38.3411 26.2915C38.5587 26.2125 39.0706 26.2293 39.285 26.169C39.9756 25.9763 40.6862 25.6344 41.3999 25.5574Z" fill="#CF9841"/>
<path d="M42.9618 23.0496C42.9576 23.0664 42.9618 23.092 42.9618 23.1108C42.9713 23.428 43.1006 23.2867 43.1574 23.4171C43.1773 23.4626 43.2026 23.4942 43.2225 23.5396C43.3403 23.8045 43.4285 23.9922 43.3529 24.2738C43.2383 24.3667 43.1416 24.4329 43.027 24.5188C42.9913 24.2866 43.1584 23.9507 42.8315 24.091C42.8883 23.4586 42.0263 22.8766 41.5954 22.5614C40.0061 21.4014 42.5519 22.7581 42.9618 23.0505V23.0496Z" fill="#DCBD74"/>
<path d="M33.4596 28.3101C33.3514 28.3309 33.2431 28.3516 33.1338 28.3714C33.1191 28.1293 33.1002 27.6728 32.8079 27.576C33.1632 27.243 32.5704 27.0799 32.2225 27.1481C31.4919 26.2766 33.2715 27.324 33.4586 27.6679C33.6457 28.0117 33.4334 27.9455 33.4586 28.3101H33.4596Z" fill="#CF9841"/>
<path d="M44.5886 23.1108C44.1461 23.6296 43.877 23.8479 43.3525 24.2728C43.4282 23.9912 43.3399 23.8035 43.2222 23.5387L44.5886 23.1108Z" fill="#DDAF4B"/>
<path d="M38.0152 26.5365C37.9878 26.6066 38.0215 26.8527 38.0152 26.9643C38.0152 26.9702 37.9058 26.9534 38.0152 27.0868C37.7808 27.1935 37.7009 27.6688 37.3645 27.3319C36.9535 26.9198 37.5138 26.3339 38.0152 26.5365Z" fill="white"/>
<path d="M32.809 27.5769C33.1001 27.6737 33.1201 28.1302 33.1348 28.3723C33.0045 28.396 32.8731 28.4118 32.7448 28.4336C32.6376 28.4523 32.5325 28.477 32.419 28.4948C32.0994 28.4039 32.625 27.8634 32.5493 27.6994C32.564 27.6965 32.7995 27.5868 32.81 27.5769H32.809Z" fill="#F1D05F"/>
<path d="M38.8611 26.7817C38.5867 26.8993 38.2567 26.9784 38.0149 27.088C37.9056 26.9547 38.0149 26.9714 38.0149 26.9655C38.2451 26.8687 38.6456 26.6661 38.8611 26.7817Z" fill="#F1D05F"/>
<path d="M30.2062 28.8002C30.0591 28.815 29.9067 28.8467 29.7511 28.8615C30.3723 28.5305 30.9305 28.1856 31.3782 27.6689L31.2805 27.5157C31.1354 27.7094 30.5699 27.6254 30.5321 27.6382C29.5009 27.9772 28.9249 28.6263 27.4733 28.9227C27.1496 28.9889 26.7564 29.149 26.4316 28.984C27.4376 28.8743 29.3054 28.2538 30.1736 27.7608C30.4501 27.6037 31.1028 26.5978 31.4424 27.241C31.8628 28.0364 30.6582 28.4001 30.2062 28.8012V28.8002Z" fill="#CF9841"/>
<path d="M29.75 28.8616C29.5166 28.8834 29.2686 28.8458 29.0342 28.8616C29.523 28.4447 30.2945 28.2885 30.531 27.6384C30.5688 27.6265 31.1343 27.7105 31.2794 27.5159L31.3771 27.669C30.9294 28.1868 30.3712 28.5316 29.75 28.8616Z" fill="#DDAF4B"/>
<path d="M29.0346 28.8614C28.5311 28.896 27.9761 29.0936 27.4727 28.9227C28.9243 28.6253 29.5003 27.9771 30.5314 27.6382C30.2949 28.2893 29.5234 28.4454 29.0346 28.8614Z" fill="#F9EB86"/>
<path d="M32.5483 27.6985C32.624 27.8625 32.0985 28.403 32.418 28.4939C32.212 28.5265 32.028 28.5265 31.8325 28.5552C32.0701 28.2884 32.3455 28.0621 32.418 27.6985C32.46 27.6985 32.5094 27.7064 32.5483 27.6985Z" fill="#CF9841"/>
<path d="M17.0598 25.0071C17.6105 25.5456 17.7861 25.7719 18.5566 26.0475C18.9171 26.176 18.8666 26.175 19.2724 26.2313C20.189 26.3578 21.5533 26.3598 22.4615 26.1701C20.786 27.253 18.0152 27.2708 16.4091 26.0475C16.365 26.0139 16.2903 25.927 16.2136 25.8637C16.161 25.8213 15.996 25.432 15.8552 25.3746C15.8363 25.3667 15.6491 25.4478 15.4326 25.3746C15.4757 25.3282 15.7805 25.2571 15.8226 25.2521C16.2725 25.2037 16.6183 25.1879 17.0587 25.0071H17.0598Z" fill="#B3653A"/>
<path d="M36.388 26.2914C36.0905 26.3171 35.772 26.3942 35.4767 26.4139C34.6452 26.4703 34.2584 26.4703 33.4596 26.2608C33.4512 26.2588 33.6036 26.1373 33.4922 26.1076C33.3976 26.0829 33.2283 26.1323 33.1337 26.1076L32.1246 25.6185C31.7862 25.7084 31.6127 25.5642 31.4414 25.3122C32.4936 25.4812 33.859 26.2677 34.5979 26.3527C34.8292 26.3794 35.1403 26.2934 35.0857 26.0464C36.039 26.1175 36.2409 25.8547 37.005 25.7401C38.3641 25.5365 42.3605 25.329 41.6584 23.2926L41.7561 22.8647C42.5035 23.1473 42.6349 23.9704 42.1787 24.5474C41.4208 25.5069 37.9678 25.9426 36.8095 26.1076C36.7654 26.1136 36.7895 25.9802 36.7443 25.9851L36.3859 26.2914H36.388Z" fill="#F1D05F"/>
<path d="M9.31481 23.5997C9.01734 24.0503 8.80291 24.8635 9.41256 25.1905C9.44935 25.2103 9.99383 25.3792 10.161 25.4356C10.0685 25.7755 11.4707 25.7409 11.4623 25.9553C10.9861 26.3851 10.8694 26.1154 10.388 25.9859C10.367 25.98 9.91079 25.8762 9.96545 26.0472C9.71423 25.9158 9.93707 25.8446 9.8677 25.8021C9.33478 25.479 8.59689 25.3071 8.40348 24.5789C8.95952 24.1362 8.26788 24.0285 7.818 24.0898C7.52474 23.8803 7.02545 23.4189 6.71117 23.2944L6.646 22.9881C6.87724 23.1788 7.1642 23.2815 7.42698 23.4159C7.80329 23.6086 8.18274 23.7865 8.5664 23.9663L8.92484 23.3853C8.47811 24.0127 6.06893 21.6779 6.80997 21.7026C7.2094 22.7727 8.11337 22.8162 8.95742 23.2321C9.072 23.2885 9.24543 23.5592 9.31586 23.5987L9.31481 23.5997Z" fill="#F1D05F"/>
<path d="M33.0044 26.4141V26.4753C31.7851 25.8667 29.8416 25.6107 28.514 25.9862C27.4198 25.9694 26.4643 26.8962 25.553 27.332C23.7945 28.1728 22.9199 28.4693 20.9648 28.5552L21.0626 28.2489C21.8688 28.4663 23.0681 28.1185 23.8607 27.8211C28.4068 26.1137 27.3063 24.5673 33.0044 26.4141Z" fill="#F1D05F"/>
<path d="M30.5961 25.191C30.4342 25.2068 30.4731 25.2513 30.4657 25.2522C30.0673 25.3244 30.183 25.4005 29.9454 25.436C29.8046 25.2602 29.1434 25.2414 28.9363 25.2522C25.8744 25.4133 23.7375 27.7807 21.7119 28.005C21.1569 28.0663 20.4905 27.9596 19.9219 28.005C19.9482 27.7185 20.7975 27.9379 21.1906 27.8825C23.9162 27.5011 25.4939 25.1604 29.3904 25.0072C29.7068 24.9944 30.327 25.0082 30.594 25.191H30.5961Z" fill="#F1D05F"/>
<path d="M26.3013 24.2117L25.2597 25.0683C24.3252 25.3944 23.4517 25.9626 22.4616 26.1691C21.5534 26.3588 20.189 26.3568 19.2725 26.2303C20.3688 26.3657 21.2843 25.8934 22.2661 25.6187C23.684 25.2215 24.9506 24.7976 26.3013 24.2117Z" fill="#BE7833"/>
<path d="M29.9455 25.4348C29.5923 25.4872 29.1498 25.336 28.7419 25.3736C26.358 25.5929 24.1054 27.8803 21.6479 28.1264C21.3599 28.155 19.9062 28.1866 19.923 28.0039C20.4906 27.9584 21.1581 28.0651 21.7131 28.0039C23.7386 27.7786 25.8745 25.4121 28.9375 25.2511C29.1435 25.2402 29.8057 25.258 29.9465 25.4348H29.9455Z" fill="#C18938"/>
<path d="M10.0962 23.6614C9.87862 23.9064 9.70308 24.0615 9.90069 24.3343C9.77981 24.5625 9.83972 24.77 9.96586 24.9765C10.4147 25.7107 13.4588 25.9181 14.4237 26.1691C15.8627 26.5446 17.4404 27.4339 18.9467 27.5761L18.8815 27.6374C17.2081 27.4556 15.7933 26.6355 14.2282 26.2304C12.9227 25.8925 11.4259 25.8618 10.1603 25.435C9.99319 25.3787 9.44871 25.2097 9.41192 25.1899C8.80226 24.8629 9.01669 24.0497 9.31416 23.5991C9.63791 23.7859 9.70728 23.8244 10.0951 23.6604L10.0962 23.6614Z" fill="#DDAF4B"/>
<path d="M15.6282 24.6405L15.8237 25.2521C15.7817 25.257 15.4769 25.3282 15.4338 25.3746C15.1573 25.2817 14.8756 25.2175 14.6202 25.0683L14.4573 25.2827L16.2147 25.8637C16.2915 25.926 16.3661 26.0139 16.4103 26.0475C15.7134 25.8835 15.0144 25.6928 14.328 25.4971C14.3627 25.342 13.8508 25.3242 13.6773 25.3134C12.9394 24.9646 13.5459 25.0505 13.547 24.3954C13.9159 24.6098 14.2124 24.9932 14.6864 25.0071C14.7179 24.6306 14.5708 24.5723 14.6538 24.1504C14.8956 24.4784 15.1983 24.6178 15.6303 24.6395L15.6282 24.6405Z" fill="#CF9841"/>
<path d="M28.5135 25.9861C26.8927 26.4446 25.6818 27.7982 24.0557 28.311C23.0676 28.6223 21.5487 28.7952 20.6069 28.5561C20.7257 28.5521 20.8466 28.561 20.9654 28.5561C22.9205 28.4691 23.795 28.1737 25.5535 27.3328C26.4649 26.8971 27.4203 25.9703 28.5146 25.9871L28.5135 25.9861Z" fill="#CF9841"/>
<path d="M29.1647 24.7017C28.0737 24.7986 27.2149 25.0614 26.1711 25.4359C26.2027 25.2205 25.5394 25.5011 25.3901 25.5584C25.4322 25.3163 25.4606 25.2561 25.6834 25.1306C25.9062 25.0051 27.5491 24.4992 27.8309 24.4577C28.554 24.35 29.2036 24.3579 29.8805 24.6108C29.6451 24.6168 29.3918 24.683 29.1647 24.7027V24.7017Z" fill="#DDAF4B"/>
<path d="M11.1367 24.0278C11.204 24.3598 11.2324 24.4596 11.3974 24.762C11.7727 25.4497 11.9419 25.4447 12.7965 25.4349C12.8091 25.4349 12.9667 25.3133 13.0246 25.3123C13.3725 25.6107 14.2365 25.4398 14.4888 25.8014C13.3662 25.6345 11.1819 25.839 10.4861 24.7916C10.4514 24.7402 10.5208 24.4547 10.4861 24.3944L11.1367 24.0278Z" fill="#F1D05F"/>
<path d="M28.1232 26.4756C27.9035 26.6317 27.8068 26.9252 27.668 27.0872L24.9351 28.678C24.8363 28.68 24.2718 28.7008 24.317 28.4942C24.6155 28.5031 24.9078 28.3727 25.1632 28.2492C26.3184 27.689 26.8681 26.9252 28.1242 26.4746L28.1232 26.4756Z" fill="#F1D05F"/>
<path d="M26.1713 25.435C23.348 26.4477 22.2023 27.998 18.8828 27.6374L18.948 27.5761C19.4956 27.6275 20.8053 27.6018 21.3235 27.4536C21.7482 27.3331 21.9616 26.9882 22.1697 26.9032C23.1388 26.506 24.334 25.9636 25.3914 25.5575C25.5406 25.5002 26.2039 25.2205 26.1724 25.435H26.1713Z" fill="#CF9841"/>
<path d="M26.8869 24.5179C26.4475 24.6315 25.7212 24.9082 25.2598 25.0682L26.3014 24.2116C26.4202 24.1602 26.5358 24.0693 26.6273 24.0278C26.7797 23.9576 26.9647 23.9428 27.1476 23.844C27.4482 23.9685 28.0999 23.7867 28.2544 24.1197C27.8245 24.2234 27.198 24.2224 26.888 24.5169L26.8869 24.5179Z" fill="#F9EB86"/>
<path d="M30.3357 23.6611C30.4945 24.2639 29.9405 23.9022 29.5873 24.089C31.0221 24.169 32.2067 24.9506 33.4597 25.496C31.78 24.9071 30.5785 24.1167 28.7086 24.2115L28.6108 23.9665L29.2289 23.8746L28.9682 23.7214C29.4381 23.7333 29.869 23.7046 30.3347 23.6602L30.3357 23.6611Z" fill="#AA6628"/>
<path d="M10.9422 23.1721C11.2912 23.7729 10.4461 23.6978 10.4219 24.2432L11.0399 23.7235C11.3374 23.761 11.1293 23.9893 11.1377 24.0298L10.4871 24.3964C10.4398 24.3134 10.1654 24.4072 10.1938 24.09C10.1612 24.1592 9.91104 24.3163 9.90053 24.3351C9.70292 24.0624 9.87845 23.9073 10.096 23.6622C10.2096 23.5347 10.4019 23.3707 10.5512 23.2956C10.6773 23.2324 10.8108 23.2166 10.9411 23.1731L10.9422 23.1721Z" fill="#F1D05F"/>
<path d="M28.969 23.7226L29.2297 23.8758L28.6116 23.9677L28.7094 24.2127C28.064 24.2453 27.5037 24.3589 26.8867 24.519C27.1979 24.2236 27.8233 24.2255 28.2532 24.1218C28.0997 23.7888 27.447 23.9706 27.1463 23.8461C27.2 23.8175 27.2294 23.6139 27.5363 23.6011C27.9967 23.687 28.5002 23.7117 28.9679 23.7236L28.969 23.7226Z" fill="#C18938"/>
<path d="M27.6681 27.0869C27.6575 27.0988 27.6786 27.1363 27.6681 27.1482C27.6428 27.1749 27.6229 27.1897 27.6029 27.2094C27.1236 27.6906 25.6373 28.6629 24.9341 28.6777L27.667 27.0869H27.6681Z" fill="#CF9841"/>
<path d="M28.449 27.8822L26.7241 28.3101C26.9564 27.9247 27.3758 27.8901 27.668 27.5759C27.7816 27.8259 28.1936 27.8803 28.449 27.8822Z" fill="#BE7833"/>
<path d="M30.5962 25.191C30.9735 25.1544 31.1259 25.2631 31.4423 25.3135C31.6137 25.5645 31.7871 25.7097 32.1255 25.6198L33.1346 26.1089C32.2296 25.8708 31.3309 25.601 30.4658 25.2522C30.4732 25.2512 30.4332 25.2068 30.5962 25.191Z" fill="#CF9841"/>
<path d="M30.7917 26.0478C30.5163 26.3343 30.1221 26.111 29.8152 26.2316C29.5818 26.1693 29.4063 26.1594 29.1646 26.1703C29.5125 25.8808 30.3334 25.9855 30.7917 26.0478Z" fill="#DDAF4B"/>
<path d="M30.2064 26.414C30.0582 26.2687 30.0067 26.2816 29.8164 26.2302C30.1223 26.1106 30.5175 26.3329 30.7929 26.0464C30.98 26.0721 31.3773 26.0622 31.4761 26.2302C31.0357 26.2094 30.609 26.2331 30.2074 26.414H30.2064Z" fill="#CF9841"/>
<path d="M14.3259 25.496C14.0463 25.416 14.0274 25.4792 13.6753 25.3123C13.8487 25.3231 14.3606 25.3409 14.3259 25.496Z" fill="#96943B"/>
<path d="M29.1647 24.7017L29.7502 24.7323C29.6734 24.8509 29.1552 24.9141 29.1647 24.7017Z" fill="#DDAF4B"/>
<path d="M12.3739 15.7083C12.4706 15.8683 12.5421 16.0491 12.6346 16.1974C12.458 16.39 12.1616 16.4355 11.9188 16.5037C10.7142 16.8376 11.1441 16.8959 10.3568 17.3603C9.5695 17.8247 8.71284 18.1103 8.04642 18.7061L7.68799 18.217C9.16167 17.2408 10.7257 16.4048 12.3739 15.7083Z" fill="#BB764D"/>
<path d="M12.8943 16.6261C12.1176 16.7437 11.4785 16.9888 11.0717 17.6666C9.6369 18.1142 9.07455 18.5835 8.33876 19.7465C8.33351 19.7554 8.21263 19.8611 8.20842 19.869C7.54516 20.1467 6.33532 20.2415 6.06097 21.0004C6.00842 21.1466 5.96427 22.0191 5.9958 22.1624C6.06938 22.4944 6.38997 22.7779 6.64645 22.9884L6.71162 23.2947C6.62963 23.2621 6.58128 23.1583 6.51611 23.2028C6.48668 23.3332 6.61702 23.433 6.64645 23.5397C6.3227 23.5318 6.46355 23.2147 6.38577 23.0813C6.29748 22.9301 6.02103 22.7621 5.9958 22.7147C5.7099 22.1841 5.93063 21.4588 5.80029 20.8492C6.3185 20.0716 7.28448 20.1773 7.55778 19.3503C7.54411 19.3246 7.16676 19.3997 7.32968 19.1971C7.39485 19.1161 8.99887 18.5104 9.28162 18.3405C9.50761 18.2051 9.84397 17.9067 10.0952 17.7288C10.6418 17.7634 11.0212 17.1212 11.3965 16.8415C11.386 16.6054 10.5398 17.3346 10.42 17.4225L10.3548 17.3613C11.1421 16.8969 10.7122 16.8386 11.9168 16.5046L11.8842 16.6884L12.763 16.3821C12.8218 16.474 12.8618 16.5787 12.8933 16.6271L12.8943 16.6261Z" fill="#CF9841"/>
<path d="M5.80049 20.8469C5.93083 21.4566 5.71009 22.1818 5.996 22.7124C6.02123 22.7599 6.29872 22.9288 6.38597 23.079C6.46375 23.2124 6.3229 23.5296 6.64665 23.5375C6.67608 23.6432 6.72022 23.7391 6.64665 23.8438C5.28859 22.9881 5.8541 22.2984 5.60498 20.9378C5.64597 20.8321 5.79418 20.8548 5.80049 20.8459V20.8469Z" fill="#BE7833"/>
<path d="M10.0967 17.727C10.1776 17.6697 10.2911 17.5185 10.4225 17.4207C10.5413 17.3317 11.3885 16.6025 11.399 16.8397C11.0238 17.1183 10.6433 17.7616 10.0977 17.727H10.0967Z" fill="#F1D05F"/>
<path d="M41.3996 18.2168C41.8032 18.5537 42.1185 19.0922 42.4086 19.3175C42.5726 19.445 43.1097 19.5922 43.32 19.7453C44.4279 20.5546 44.6633 20.8115 44.2639 22.1315C44.0127 22.2956 43.7846 22.3608 43.5481 22.5594C42.7282 22.6305 41.9724 22.2215 41.2703 21.8559C41.2482 21.4567 43.5975 22.9368 44.0032 21.7946C44.4457 20.5506 43.279 20.0793 42.3435 19.5615C42.2089 19.8501 42.23 19.9271 41.985 20.1732C41.9188 20.2394 41.6119 20.4449 41.5299 20.4795C41.4773 20.5012 40.3589 20.8302 40.4231 20.5407C40.4451 20.5388 40.4672 20.5427 40.4882 20.5407C41.594 20.4232 42.1606 19.855 41.5299 18.8887C41.3796 18.6594 41.2345 18.5023 41.0096 18.3383L41.1073 17.9717C41.2566 17.945 41.3733 18.194 41.4006 18.2168H41.3996Z" fill="#EEE1B3"/>
<path d="M44.8487 21.704C44.7867 22.0182 44.4766 22.444 44.1981 22.6219C44.197 22.612 44.0068 22.6179 44.0026 22.53C44.0015 22.5063 44.1876 22.3798 44.2632 22.1328C44.6627 20.8137 44.4272 20.5558 43.3193 19.7466C43.1102 19.5934 42.572 19.4462 42.408 19.3187C42.1179 19.0935 41.8026 18.554 41.3989 18.218C42.4038 18.8089 45.0957 20.458 44.8477 21.705L44.8487 21.704Z" fill="#CF9841"/>
<path d="M41.0085 18.3383C41.2335 18.5033 41.3796 18.6594 41.5288 18.8886C41.3775 18.9232 41.3102 18.8293 41.203 18.7661C41.0022 18.6475 40.8382 18.3946 40.813 18.7661C40.3894 18.1317 38.819 17.8077 38.0801 17.6654C38.1347 17.5004 38.1631 17.3403 38.2104 17.1763C39.066 17.5369 40.2654 17.7938 41.0085 18.3383Z" fill="#CF9841"/>
<path d="M44.1976 22.6207C44.2134 22.76 44.2533 22.7798 44.1325 22.927C43.9454 23.1543 43.4471 23.3371 43.156 23.4161C43.1002 23.2857 42.9699 23.428 42.9604 23.1098C43.1623 23.0555 43.2295 22.9359 43.3504 22.8035C43.424 22.7235 43.5333 22.5693 43.5459 22.5585C43.7824 22.3599 44.0105 22.2946 44.2617 22.1306C44.1871 22.3776 44 22.5051 44.0011 22.5278C44.0053 22.6158 44.1955 22.6098 44.1966 22.6197L44.1976 22.6207Z" fill="#DDAF4B"/>
<path d="M44.1328 22.9269C44.2537 22.7797 44.2127 22.76 44.198 22.6206C44.4776 22.4438 44.7866 22.0169 44.8486 21.7027C45.5224 21.679 44.487 23.0178 44.1328 22.9259V22.9269Z" fill="#F9EB86"/>
<path d="M32.8088 27.5773C32.7982 27.5872 32.5628 27.6969 32.5481 27.6999C32.5102 27.7078 32.4598 27.6999 32.4177 27.6999C31.7576 27.7068 31.6883 27.2532 32.2222 27.1495C32.5702 27.0813 33.164 27.2453 32.8077 27.5773H32.8088Z" fill="white"/>
<path d="M38.3408 26.2915C38.2473 26.3261 38.0591 26.4249 38.015 26.5365C37.5136 26.333 36.9523 26.9199 37.3643 27.3319C36.3469 27.6896 35.2968 27.8961 34.2404 28.1273C34.1416 27.9228 34.15 27.657 34.0449 27.4545L35.4765 26.8122C34.9373 26.6689 34.356 26.8646 33.8168 26.7816C33.512 26.7351 33.3606 26.5296 33.1987 26.4753C33.9881 26.6432 34.7397 26.5938 35.5417 26.5365C36.4961 26.4684 37.398 26.1581 38.3398 26.2915H38.3408Z" fill="#DDAF4B"/>
<path d="M33.1994 26.4753C33.3613 26.5297 33.5127 26.7342 33.8175 26.7816C34.3567 26.8646 34.938 26.669 35.4772 26.8123L34.0456 27.4545C33.9026 27.1769 33.2825 26.6146 33.0039 26.4753V26.4141C33.068 26.4348 33.1342 26.4536 33.1994 26.4753Z" fill="#CF9841"/>
<path d="M36.6808 26.7816C36.7344 26.7678 36.8626 26.7697 36.9089 26.8122C36.9867 26.917 35.5035 27.661 35.2817 27.6076C35.5603 27.5454 36.5652 26.8112 36.6808 26.7816Z" fill="#CF9841"/>
<path d="M42.8316 24.0891C42.7811 24.6484 40.8586 25.5051 40.3257 25.6799C39.1358 26.0692 37.6443 26.1829 36.3882 26.2916L36.7466 25.9853C36.7918 25.9803 36.7676 26.1137 36.8118 26.1078C37.9701 25.9428 41.4231 25.507 42.1809 24.5476C42.6371 23.9706 42.5057 23.1485 41.7584 22.8649L41.6606 23.2927C41.6554 23.2769 41.4063 23.1317 41.4 23.0783C41.3905 22.9914 41.6701 22.7384 41.5955 22.5586C42.0264 22.8728 42.8894 23.4548 42.8316 24.0881V24.0891Z" fill="#CF9841"/>
<path d="M39.3173 18.5221C39.866 20.0882 38.4449 19.6021 37.7553 20.2048C37.7333 20.2236 37.9666 20.3886 37.4621 20.5417C37.0406 20.6692 36.6243 20.5249 36.1934 20.7255C36.885 19.9667 37.5714 19.0971 37.9508 18.1565C38.4028 18.1901 38.9032 18.362 39.3173 18.5231V18.5221Z" fill="#B3653A"/>
<path d="M32.4841 24.2727C33.8065 24.8191 35.3663 25.4861 36.8442 24.7618L36.9094 24.8231L36.5835 25.2509C36.3859 25.2806 36.0737 25.2588 35.9003 25.3734C36.0538 25.4515 37.3887 25.1541 37.2668 25.3734C35.2644 26.1748 33.4796 25.242 31.7347 24.3942C31.4929 24.165 32.4715 24.3468 32.4831 24.2717L32.4841 24.2727Z" fill="#EDDA94"/>
<path d="M40.8139 18.7673C40.8402 18.3958 41.0032 18.6487 41.2039 18.7673C41.3343 19.2268 41.4972 19.9718 41.041 20.2969C40.9064 20.3927 40.5123 20.3463 40.4881 20.5419C40.4671 20.5439 40.445 20.5399 40.4229 20.5419C39.9951 20.5725 39.7218 20.6091 39.7071 20.1753C40.6342 19.6951 40.7183 19.3098 39.8375 18.7683C39.6714 18.6665 39.4979 18.5944 39.3171 18.5232C38.902 18.3622 38.4027 18.1893 37.9507 18.1567C37.977 18.0924 37.9917 17.9778 38.0159 17.9116C39.005 18.0519 40.3945 18.3197 40.9117 19.1961C41.0326 19.1447 40.8613 18.8384 40.8139 18.7683V18.7673Z" fill="#CF9841"/>
<path d="M39.3826 23.1721C39.7957 24.2778 38.2799 24.9082 37.3655 25.1295C37.1174 25.1898 36.8399 25.2135 36.5845 25.252L36.9103 24.8242C37.2803 24.6048 37.5557 24.7689 37.5936 24.7629C37.8017 24.7303 38.7771 24.0525 38.9274 23.8756C39.0883 23.6869 39.125 23.2433 39.3826 23.1721Z" fill="#DDAF4B"/>
<path d="M32.3534 24.0277C33.9491 24.7341 36.3835 25.6827 37.4945 23.7826C37.4451 24.2954 37.36 24.5089 36.8439 24.7618C35.366 25.4851 33.8051 24.8181 32.4838 24.2727C31.8415 24.0069 31.3917 23.6324 30.6611 23.6611C30.8913 23.6265 31.1499 23.5336 31.3769 23.4773C31.5788 23.7461 32.0329 23.8864 32.3534 24.0277Z" fill="#AA6628"/>
<path d="M38.6017 22.1315C38.3568 21.9704 38.4199 22.1839 38.4062 22.1927C38.0099 22.4595 38.1119 22.6245 37.8533 23.0494C37.3456 22.7836 37.6074 22.2916 37.9511 21.9783C37.4434 21.9368 37.2941 22.003 36.8442 21.8252C37.5516 21.7412 38.4987 21.4122 39.0569 21.8558L38.504 21.8252C38.4472 21.8538 38.5807 22.0979 38.6017 22.1315Z" fill="#C18938"/>
<path d="M39.7071 20.1744C39.6997 19.954 40.0992 19.9254 40.1622 19.5934C40.2253 19.2614 40.0571 19.0144 39.8364 18.7673C40.7172 19.3088 40.6331 19.6942 39.7061 20.1744H39.7071Z" fill="#A35826"/>
<path d="M39.8377 18.7672C40.0584 19.0143 40.2277 19.2573 40.1635 19.5933C40.0994 19.9292 39.7 19.9539 39.7084 20.1743C39.7231 20.609 39.9964 20.5715 40.4242 20.5408C40.3601 20.8304 41.4774 20.5013 41.5311 20.4796C41.5952 20.5507 41.5311 20.6535 41.5311 20.6634C40.8709 20.8501 40.2129 20.9094 39.5791 21.0003C40.0164 21.1703 40.6407 21.3521 41.1085 21.276C41.6425 21.189 41.5153 21.19 41.5311 20.7256C42.0167 20.613 41.6719 21.2819 41.8243 21.3985C42.3457 21.2216 42.1964 20.5754 41.9872 20.1753C42.2322 19.9292 42.2101 19.8522 42.3457 19.5636C43.2812 20.0804 44.4479 20.5527 44.0054 21.7967C43.5997 22.9389 41.2504 21.4578 41.2725 21.858C41.9746 22.2235 42.7304 22.6326 43.5503 22.5615C43.5377 22.5714 43.4283 22.7265 43.3548 22.8065C42.9785 22.6445 43.0184 22.8451 42.9648 23.0516C42.5548 22.7581 40.008 21.4015 41.5983 22.5625C41.673 22.7423 41.3934 22.9952 41.4028 23.0822C41.4091 23.1355 41.6582 23.2808 41.6635 23.2966C42.3656 25.333 38.3693 25.5405 37.0102 25.7441C36.2449 25.8587 36.0442 26.1205 35.0908 26.0504C34.3519 25.9951 34.066 25.7619 33.4637 25.5C32.2118 24.9546 31.0261 24.173 29.5913 24.093C29.9445 23.9063 30.4984 24.2679 30.3397 23.6652C30.6014 23.6405 30.5342 23.5466 30.5678 23.5426C30.613 23.5367 30.5752 23.679 30.6656 23.6652C31.3961 23.6375 31.846 24.012 32.4882 24.2768C32.4767 24.3519 31.4981 24.1701 31.7398 24.3993C33.4836 25.2461 35.2695 26.1798 37.2719 25.3785C37.3938 25.1591 36.0578 25.4566 35.9054 25.3785C36.0789 25.2639 36.391 25.2866 36.5887 25.256C36.8441 25.2174 37.1216 25.1937 37.3696 25.1334C37.336 25.2994 37.891 25.1433 37.9225 25.1334C38.8212 24.8607 39.988 24.2333 39.5823 23.1454C39.4477 22.7848 38.754 22.3737 38.6058 22.1356C38.5847 22.102 38.4513 21.858 38.508 21.8293L39.0609 21.8599C38.5028 21.4163 37.5546 21.7453 36.8483 21.8293C36.8346 21.8234 36.8168 21.6129 36.6854 21.5843C36.2355 21.4884 35.6658 21.773 35.2863 21.523C35.3893 21.439 35.5134 21.3639 35.6122 21.278C35.6605 21.4301 35.7341 21.3758 35.8403 21.3392C36.3595 21.1614 36.7936 20.9578 37.3696 20.8807L35.938 20.9726C36.0063 20.9252 36.0515 20.7958 36.1987 20.7276C36.6296 20.528 37.0469 20.6723 37.4674 20.5438C37.9709 20.3907 37.7386 20.2266 37.7607 20.2069C38.4502 19.6051 39.8713 20.0903 39.3226 18.5242C39.5034 18.5943 39.6779 18.6674 39.8429 18.7692L39.8377 18.7672Z" fill="#CF9841"/>
<path d="M43.3518 22.8045C43.2299 22.9369 43.1636 23.0565 42.9618 23.1108C42.9618 23.092 42.9576 23.0673 42.9618 23.0495C43.0154 22.843 42.9755 22.6425 43.3518 22.8045Z" fill="#AA6628"/>
<path d="M38.6019 22.1317C38.7501 22.3699 39.4438 22.7809 39.5783 23.1416C39.9841 24.2294 38.8184 24.8569 37.9186 25.1296C37.886 25.1395 37.3321 25.2956 37.3657 25.1296C38.2802 24.9073 39.7959 24.2769 39.3828 23.1722C39.1989 22.6791 38.3832 22.5961 38.4063 22.193C38.42 22.1841 38.3569 21.9707 38.6019 22.1317Z" fill="#B3653A"/>
<path d="M41.5301 20.7246C41.5132 21.189 41.6415 21.188 41.1075 21.275C40.6398 21.351 40.0154 21.1692 39.5781 20.9993C40.212 20.9094 40.87 20.8501 41.5301 20.6624C41.5301 20.6831 41.5301 20.7029 41.5301 20.7236V20.7246Z" fill="#B3653A"/>
<path d="M41.5303 20.7247C41.5303 20.7039 41.5303 20.6842 41.5303 20.6634C41.5303 20.6545 41.5945 20.5508 41.5303 20.4796C41.6134 20.4461 41.9203 20.2395 41.9855 20.1733C42.1947 20.5745 42.3439 21.2207 41.8226 21.3966C41.6712 21.28 42.0149 20.6101 41.5293 20.7237L41.5303 20.7247Z" fill="#DDAF4B"/>
<path d="M35.6069 21.2751C35.7247 21.1724 35.7919 21.0657 35.9328 20.9688L37.3644 20.877C36.7884 20.954 36.3543 21.1576 35.835 21.3354C35.7289 21.372 35.6553 21.4263 35.6069 21.2742V21.2751Z" fill="#A35826"/>
<path d="M39.4141 22.0093C39.9438 22.1318 40.1446 22.4687 40.3254 22.9272L39.4141 22.0093Z" fill="#B3653A"/>
<path d="M41.3021 21.5201C41.5018 21.4006 41.4345 21.696 41.3672 21.7039C41.3441 21.7059 41.2085 21.5765 41.3021 21.5201Z" fill="#A6512F"/>
<path d="M15.433 25.3747C15.6496 25.4478 15.8367 25.3668 15.8556 25.3747C15.9954 25.432 16.1615 25.8213 16.214 25.8638L14.4565 25.2828L14.6195 25.0684C14.8749 25.2166 15.1555 25.2808 15.433 25.3747Z" fill="#F9EB86"/>
<path d="M8.14321 20.052C8.09591 20.1449 8.06543 20.3 8.01287 20.4186C7.77426 20.9561 7.41478 20.961 7.68702 21.8256C7.06686 22.4185 8.63198 23.1437 9.11865 23.0489C9.63686 23.2929 9.95535 23.3413 10.5503 23.2939C10.4 23.369 10.2076 23.534 10.0952 23.6605C9.70729 23.8245 9.63791 23.786 9.31416 23.5992C9.24479 23.5587 9.0703 23.289 8.95573 23.2326C8.11168 22.8167 7.20666 22.7732 6.80828 21.7031C6.06829 21.6784 8.47642 24.0132 8.92315 23.3858L8.56471 23.9668C8.18105 23.786 7.80264 23.6091 7.42529 23.4164C7.5714 23.3591 7.47364 23.2356 7.39271 23.1714C6.61067 22.5588 5.81181 22.6131 6.124 21.2446C6.13766 21.1843 6.29848 21.2446 6.31951 21.1834C6.34894 21.0994 6.28797 20.8682 6.31951 20.8168C6.58859 20.384 7.65549 20.2427 8.14216 20.052H8.14321Z" fill="#CF9841"/>
<path d="M8.20856 19.8682C8.197 19.8889 8.17597 19.9877 8.14339 20.0519C7.65672 20.2426 6.58982 20.3839 6.32074 20.8167C6.2892 20.8681 6.35017 21.0993 6.32074 21.1833C6.29971 21.2446 6.13889 21.1833 6.12523 21.2446C5.81409 22.6131 6.6119 22.5587 7.39394 23.1713C7.47487 23.2346 7.57263 23.3591 7.42652 23.4164C7.16374 23.281 6.87678 23.1782 6.64553 22.9885C6.38906 22.7781 6.06847 22.4945 5.99489 22.1625C5.9623 22.0182 6.0075 21.1458 6.06006 21.0005C6.3344 20.2407 7.54425 20.1458 8.20751 19.8692L8.20856 19.8682Z" fill="#B3653A"/>
<path d="M25.4547 23.3547C25.461 23.581 25.5641 23.3656 25.5851 23.4466C25.5998 23.5029 25.4621 23.6402 25.5199 23.7529C25.7196 24.1392 26.2431 24.0128 26.6267 24.0286C26.5364 24.0701 26.4207 24.16 26.3009 24.2123C24.9502 24.7983 23.6836 25.2222 22.2656 25.6194C23.465 25.0285 24.4351 24.6906 25.1289 23.5395C25.2088 23.408 24.9765 23.3073 25.4547 23.2332C25.4516 23.2737 25.4537 23.3152 25.4547 23.3557V23.3547Z" fill="#AA6628"/>
<path d="M11.7237 22.9883C11.7016 23.3223 11.7384 23.3736 11.854 23.6612C11.8918 23.756 11.7836 23.8074 11.7888 23.8143C11.9475 24.0169 12.4163 23.7116 12.635 23.9062C12.0464 23.8558 11.4251 24.1898 11.3989 24.7629C11.2338 24.4605 11.2055 24.3607 11.1382 24.0287C11.1298 23.9892 11.3389 23.76 11.0404 23.7224L10.4224 24.2422C10.4465 23.6977 11.2916 23.7718 10.9427 23.1711C10.99 23.1553 11.1098 23.1167 11.1382 23.1098C11.3274 23.0634 11.5355 23.0486 11.7237 22.9873V22.9883Z" fill="#BE7833"/>
<path d="M26.7564 23.3549C27.0107 23.4319 27.2746 23.5505 27.5374 23.5999C27.2304 23.6127 27.1999 23.8163 27.1474 23.8449C26.9645 23.9438 26.7795 23.9586 26.6271 24.0287C26.2445 24.0129 25.72 24.1394 25.5202 23.7531C25.4624 23.6404 25.6001 23.5041 25.5854 23.4467C25.5644 23.3657 25.4614 23.5811 25.4551 23.3549C25.6758 23.2145 25.7073 23.5673 25.8135 23.5999C25.9996 23.6572 26.9372 23.6602 26.7574 23.3549H26.7564Z" fill="#3D451C"/>
<path d="M12.8939 16.626C12.9033 16.6408 13.0242 16.7159 13.0894 16.8098C12.5092 17.0696 11.9069 17.1161 11.4622 17.6052C11.2741 17.6565 11.0964 17.6585 11.0723 17.6664C11.4791 16.9886 12.1181 16.7436 12.8949 16.626H12.8939Z" fill="#F9EB86"/>
<path d="M12.7635 16.381L11.8848 16.6874L11.9174 16.5036C12.1602 16.4364 12.4566 16.3909 12.6332 16.1973C12.6679 16.2526 12.7236 16.3188 12.7635 16.381Z" fill="#B3653A"/>
<path d="M35.8023 22.4378C35.7329 22.4774 35.7171 22.4616 35.7371 22.5604C34.8668 22.1997 34.7186 22.5159 34.11 22.8054C33.6969 23.002 33.3258 23.257 32.8738 23.3864C33.4488 23.748 34.1184 23.999 34.8258 24.0286C35.0276 24.0375 35.3545 24.0543 35.5416 24.0286C35.7508 24 35.9242 23.8864 36.1271 23.8449C36.0629 23.9704 35.9274 24.0474 35.8338 24.1512L35.899 24.2737C37.0458 23.6779 37.009 23.0593 35.9316 22.3776C35.9368 22.3736 35.7918 22.3618 35.899 22.255C38.0538 23.5228 36.3531 24.6274 34.4673 24.4575C33.74 24.3923 33.0672 23.8666 32.3525 24.0296C32.0319 23.8874 31.5778 23.747 31.376 23.4793C32.837 23.1206 33.452 22.588 34.6954 22.011C35.0928 22.0505 35.838 21.9369 35.8023 22.4388V22.4378Z" fill="#AA6628"/>
<path d="M34.9562 21.8255C35.1696 21.7959 36.7683 22.0963 36.9407 22.1921C37.0448 22.2504 36.7872 22.2455 36.8755 22.3146C37.4694 22.783 37.564 23.0606 37.4936 23.7829C36.3826 25.682 33.9471 24.7335 32.3525 24.028C33.0673 23.8649 33.74 24.3906 34.4674 24.4558C36.3531 24.6258 38.0538 23.5211 35.899 22.2534C35.7918 22.3601 35.9369 22.3719 35.9316 22.3759C35.8423 22.446 35.8244 22.4243 35.8013 22.4372C35.837 21.9342 35.0928 22.0488 34.6944 22.0093C34.7344 21.9905 34.7396 21.8552 34.9551 21.8255H34.9562Z" fill="#CF9841"/>
<path d="M40.8142 18.767C40.8615 18.8371 41.0328 19.1435 40.912 19.1948C40.3948 18.3174 39.0052 18.0496 38.0161 17.9103C38.0424 17.8402 38.0571 17.7374 38.0813 17.6653C38.8213 17.8076 40.3917 18.1326 40.8142 18.766V18.767Z" fill="#EEE1B3"/>
<path d="M41.5299 18.8899C42.1606 19.8552 41.5941 20.4243 40.4883 20.5419C40.5135 20.3463 40.9066 20.3937 41.0412 20.2969C41.4974 19.9718 41.3344 19.2268 41.2041 18.7673C41.3113 18.8306 41.3786 18.9244 41.5299 18.8899Z" fill="#DDAF4B"/>
<path d="M36.8442 21.8253C37.2941 22.0032 37.4434 21.937 37.9511 21.9785C37.6084 22.2907 37.3456 22.7838 37.8533 23.0496C38.1129 22.6247 38.0099 22.4597 38.4062 22.1929C38.3831 22.596 39.1977 22.679 39.3827 23.1721C39.1252 23.2432 39.0873 23.6869 38.9275 23.8756C38.7772 24.0525 37.8018 24.7293 37.5937 24.7629C37.5558 24.7688 37.2804 24.6048 36.9104 24.8242L36.8453 24.7629C37.3624 24.51 37.4465 24.2965 37.4959 23.7837C37.5663 23.0614 37.4707 22.7838 36.8779 22.3154C36.7896 22.2463 37.0471 22.2512 36.943 22.1929C36.7696 22.0971 35.1719 21.7967 34.9585 21.8263C35.0247 21.687 35.1687 21.6139 35.2843 21.52C35.6638 21.769 36.2335 21.4854 36.6834 21.5813C36.8148 21.6089 36.8316 21.8204 36.8463 21.8263L36.8442 21.8253Z" fill="#CF9841"/>
<path d="M38.1127 22.8045C38.6824 23.0554 39.0471 23.5524 38.5026 24.0277C38.5405 23.4981 38.5573 23.3024 38.0801 22.9566L38.1127 22.8035V22.8045Z" fill="#A6512F"/>
<path d="M37.4625 22.0093C37.7084 21.9678 37.6296 22.1693 37.5276 22.1931C37.493 22.201 37.2659 22.0419 37.4625 22.0093Z" fill="#A6512F"/>
<path d="M7.68766 21.8252C7.80223 22.1868 8.76086 22.8805 9.11929 23.0484C8.63262 23.1433 7.06749 22.418 7.68766 21.8252Z" fill="#F1D05F"/>
<path d="M34.1101 22.8047C34.0219 22.9213 34.0418 23.0389 34.045 23.1713C34.0576 23.7453 34.292 23.8125 34.826 24.0279C34.1186 23.9973 33.449 23.7473 32.874 23.3857C33.326 23.2562 33.6971 23.0003 34.1101 22.8047Z" fill="#913C1F"/>
<path d="M36.1286 23.845C36.4019 23.3065 36.4219 22.8431 35.7386 22.5605C35.7187 22.4617 35.7334 22.4775 35.8038 22.438C35.8269 22.4251 35.8448 22.4469 35.9342 22.3767C37.0116 23.0585 37.0484 23.678 35.9016 24.2728L35.8364 24.1503C35.93 24.0476 36.0655 23.9705 36.1297 23.844L36.1286 23.845Z" fill="#C18938"/>
<path d="M35.5427 24.0278C35.3556 24.0535 35.0287 24.0367 34.8269 24.0278C34.2929 23.8124 34.0585 23.7452 34.0459 23.1711C34.2246 23.4607 35.2337 23.6069 35.3146 23.6602C35.4534 23.7521 35.0855 23.9596 35.5427 24.0268V24.0278Z" fill="#2B2D15"/>
<path d="M35.737 22.5596C36.4213 22.8432 36.4002 23.3056 36.1269 23.8441C35.9241 23.8846 35.7496 23.9992 35.5415 24.0279C35.0842 23.9597 35.4521 23.7522 35.3134 23.6613C35.2314 23.6079 34.2234 23.4617 34.0447 23.1722C34.0415 23.0398 34.0215 22.9222 34.1098 22.8056C34.7184 22.5161 34.8666 22.2009 35.737 22.5606V22.5596Z" fill="#645824"/>
<path d="M34.9888 22.4992C35.3157 22.4616 35.7351 22.7274 35.4439 23.0495C35.0792 23.0772 34.7544 23.0495 34.5 22.7738C34.6598 22.7155 34.8132 22.5179 34.9877 22.4982L34.9888 22.4992Z" fill="#817849"/>
<defs>
<linearGradient id="paint0_linear_366_138189" x1="15.5648" y1="22.7175" x2="40.257" y2="34.9034" gradientUnits="userSpaceOnUse">
<stop stop-color="#7F8280"/>
<stop offset="0.88" stop-color="#183036"/>
<stop offset="1" stop-color="#3C4E50"/>
</linearGradient>
<linearGradient id="paint1_linear_366_138189" x1="30.1068" y1="18.9808" x2="26.9656" y2="22.8959" gradientUnits="userSpaceOnUse">
<stop stop-color="#D9BAB4"/>
<stop offset="1" stop-color="#D7CECF"/>
</linearGradient>
<linearGradient id="paint2_linear_366_138189" x1="27.9947" y1="15.4402" x2="29.8577" y2="19.0161" gradientUnits="userSpaceOnUse">
<stop stop-color="#FECE1F"/>
<stop offset="1" stop-color="#F68A25"/>
</linearGradient>
<linearGradient id="paint3_linear_366_138189" x1="18.1709" y1="12.307" x2="21.6814" y2="15.5077" gradientUnits="userSpaceOnUse">
<stop stop-color="#507D3A"/>
<stop offset="1" stop-color="#385D2C"/>
</linearGradient>
<linearGradient id="paint4_linear_366_138189" x1="14.3716" y1="12.1808" x2="18.3932" y2="16.5292" gradientUnits="userSpaceOnUse">
<stop stop-color="#56863C"/>
<stop offset="1" stop-color="#426F35"/>
</linearGradient>
<linearGradient id="paint5_linear_366_138189" x1="12.1074" y1="15.5617" x2="17.9772" y2="18.2175" gradientUnits="userSpaceOnUse">
<stop stop-color="#58883D"/>
<stop offset="1" stop-color="#3F6B33"/>
</linearGradient>
<linearGradient id="paint6_linear_366_138189" x1="38.5974" y1="12.0732" x2="33.1988" y2="18.0559" gradientUnits="userSpaceOnUse">
<stop stop-color="#F89D52"/>
<stop offset="1" stop-color="#EF7F4F"/>
</linearGradient>
</defs>
</svg>
