<svg width="50" height="50" viewBox="0 0 50 50" fill="none" xmlns="http://www.w3.org/2000/svg">
<path d="M25.0668 33.0678C25.0917 34.2738 25.0064 35.5107 25.0668 36.7136C25.1219 37.8074 25.2007 39.758 25.4027 40.7755C25.4189 40.8589 25.5603 40.9352 25.6035 40.999C25.5592 41.0011 25.5139 40.999 25.4696 40.999C25.3541 41 25.3238 40.9403 25.2018 40.9352L19.3667 37.0967C19.3732 37.0772 19.3613 37.0524 19.3667 37.0329L24.6652 36.7445L19.5006 33.834C21.3222 33.6538 23.1265 33.2099 24.933 32.938H24.9999C25.0031 33.0987 25.0668 33.0585 25.0668 33.0657V33.0678Z" fill="#5A2B36"/>
<path d="M16.6823 32.1079L14.5357 34.0915C14.4223 34.1399 14.3132 34.2007 14.1999 34.2511C15.7429 35.3305 17.4824 36.1327 19.1625 37.002C16.9652 36.8197 14.7873 36.3707 12.5899 36.2028C12.4938 36.1956 12.2217 36.0596 12.0867 36.0751C11.9993 36.1111 11.7876 37.518 11.8524 37.6426C11.86 37.656 11.9712 37.6714 12.1202 37.8022C11.8816 37.8516 11.7239 37.727 11.5501 37.6106C10.7618 37.0782 7.89934 34.3428 7.29143 33.5807C7.29683 33.5395 7.28171 33.4849 7.29143 33.4529C8.13798 33.4787 11.576 36.003 11.9863 35.9474C12.2951 35.9062 14.0746 34.3201 14.066 34.1883L9.63995 30.1264L9.573 29.9987C9.56113 29.9245 9.63779 29.9389 9.63995 29.9348C10.1053 30.1573 10.5146 30.4714 11.0145 30.6382C11.9323 30.9441 15.8908 32.0667 16.6823 32.11V32.1079Z" fill="#9B4F57"/>
<path d="M19.3658 33.8351C19.4587 34.4994 19.5343 36.4366 19.3658 37.034C19.3604 37.0536 19.3723 37.0783 19.3658 37.0978C19.1931 37.6138 18.068 38.8394 17.8228 39.4965C17.7289 39.7488 17.8822 39.5706 17.8898 39.7848C17.6792 39.7375 17.4827 39.6437 17.2862 39.5933L12.5913 36.2029C14.7897 36.3707 16.9677 36.8208 19.1639 37.0021C17.4838 36.1328 15.7432 35.3305 14.2013 34.2512C14.3146 34.2007 14.4237 34.14 14.5371 34.0916C15.104 33.8485 18.2407 33.9216 19.232 33.8362C19.2751 33.832 19.3227 33.8403 19.3658 33.8362V33.8351Z" fill="#803741"/>
<path d="M43.9794 20.402C43.9632 22.0612 43.7505 23.7306 43.9125 25.3919C43.8412 26.3332 43.9881 27.3621 43.9125 28.3024C43.7807 29.9523 43.2722 31.6773 43.2419 33.3561C43.1869 33.4797 42.9547 33.525 42.9061 33.5796C42.7712 33.6259 42.7161 33.2963 42.7053 33.2273C42.5584 32.319 42.6297 30.9585 42.3695 30.1253C42.35 30.0625 42.3619 30.0048 42.3025 29.9337L38.9487 29.2942C40.0037 28.6041 41.6017 28.4342 42.6373 27.5351C43.0227 25.5773 43.2139 23.5772 43.5767 21.6183C43.6242 21.3629 43.716 21.1075 43.7775 20.851C43.8283 20.6409 43.8779 20.4648 43.8445 20.2434L43.9783 20.403L43.9794 20.402Z" fill="#0D172A"/>
<path d="M25.2004 40.9363C23.3237 40.8519 19.7691 40.2072 17.8903 39.7849C17.8827 39.5707 17.7294 39.7499 17.8233 39.4965C18.0674 38.8395 19.1925 37.6128 19.3663 37.0979L25.2015 40.9363H25.2004Z" fill="#894B59"/>
<path d="M6.82389 23.5999C7.55814 25.7833 8.74481 27.8225 9.50714 29.9966C9.32142 30.0934 7.3627 33.2295 7.29359 33.4509C7.28387 33.4828 7.29899 33.5374 7.29359 33.5786C7.12946 33.3726 7.16186 33.4231 7.0258 33.1944L7.22664 33.3541C7.69203 30.0975 7.26228 26.807 6.62305 23.5989H6.82389V23.5999Z" fill="#DCC3C7"/>
<path d="M6.62281 23.6001C7.26204 26.8082 7.69179 30.0987 7.2264 33.3553L7.02556 33.1956C5.75466 31.0679 5.93931 27.5127 6.1531 25.1037C6.21141 24.4425 6.32479 23.563 6.55586 22.9924C6.55586 23.1922 6.58393 23.4054 6.62281 23.6001Z" fill="#C4A6A9"/>
<path d="M8.36597 23.9202C9.24707 24.7328 9.44143 25.0675 10.5126 25.7751C11.1777 26.2149 11.9886 26.7133 12.7261 26.9904C12.7261 26.9986 12.8287 27.0213 12.7261 27.1181C11.9746 27.0501 10.83 27.2921 10.0429 27.3096C9.7686 27.1222 8.01612 24.8883 7.69542 24.463C7.33478 23.9841 7.07239 23.4238 6.68907 22.9593C6.64912 22.8244 6.58973 22.7111 6.55518 22.5752C6.64804 22.4938 6.79057 22.5917 6.85751 22.639C7.28619 22.9449 7.96969 23.5515 8.36705 23.9182L8.36597 23.9202Z" fill="#A08079"/>
<path d="M10.0428 27.3105C10.0428 27.3105 10.0341 27.3301 10.1097 27.3744C9.97905 28.2065 9.72315 29.0304 9.64 29.8688C9.63784 29.8914 9.64648 29.9192 9.64 29.9326C9.63784 29.9367 9.56118 29.9223 9.57306 29.9965H9.50611C8.74379 27.8213 7.55711 25.7821 6.82286 23.5998C6.74295 23.3608 6.74295 23.1446 6.68896 22.9602C7.07229 23.4247 7.33467 23.985 7.69532 24.4639C8.01601 24.8902 9.7685 27.1231 10.0428 27.3105Z" fill="#C4A6A9"/>
<path d="M12.5919 36.2029L17.2868 39.5933C16.5115 39.3946 12.5293 38.1577 12.1222 37.8023C11.9732 37.6715 11.8609 37.6561 11.8544 37.6427C11.7896 37.5191 12.0013 36.1112 12.0887 36.0752C12.2237 36.0597 12.4958 36.1957 12.5919 36.2029Z" fill="#803741"/>
<path d="M42.907 33.5797C42.3401 34.2337 39.0004 37.3914 38.3795 37.7374C37.533 38.2101 33.9783 39.2452 32.8802 39.5284C31.2918 39.9383 27.0926 40.9188 25.6035 41.0001C25.5604 40.9363 25.4189 40.8601 25.4027 40.7766C25.2019 39.7591 25.122 37.8085 25.0669 36.7147C26.8852 36.964 28.7446 36.9392 30.5662 37.0989C30.5889 37.1009 30.6116 37.0968 30.6332 37.0989C34.0345 37.3975 35.0743 38.3595 38.1452 36.0113C39.3772 35.0689 41.2139 32.6744 41.9007 31.3098C42.0929 30.9288 42.0939 30.4509 42.3704 30.1265C42.6295 30.9607 42.5593 32.3201 42.7062 33.2285C42.717 33.2965 42.772 33.6261 42.907 33.5807V33.5797Z" fill="url(#paint0_linear_366_138190)"/>
<path d="M29.7615 32.1079L30.5659 37.0978C28.7443 36.9381 26.8849 36.9629 25.0666 36.7136C25.0061 35.5107 25.0914 34.2738 25.0666 33.0678C25.032 32.9349 25.2026 32.8968 25.3009 32.8762C26.4616 32.6342 28.6525 32.559 29.6265 32.1089C29.6492 32.0986 29.7183 32.1151 29.7604 32.1089L29.7615 32.1079Z" fill="#251823"/>
<path d="M19.4991 33.8352L24.6637 36.7457L19.3652 37.034C19.5337 36.4367 19.4581 34.4995 19.3652 33.8352C19.4084 33.8311 19.4559 33.8393 19.4991 33.8352Z" fill="#5A2B36"/>
<path d="M24.8648 30.5085C25.1218 31.2109 24.9814 32.1646 24.9987 32.9391H24.9318C23.0162 32.5148 21.0888 32.1121 19.1636 31.7238C20.9398 31.2768 23.0259 30.6867 24.8648 30.5085Z" fill="#5A2B36"/>
<path d="M19.1648 31.7247C21.089 32.1129 23.0164 32.5156 24.933 32.94C23.1266 33.2108 21.3222 33.6557 19.5007 33.836C19.4575 33.8401 19.41 33.8318 19.3668 33.836C19.2825 33.2294 18.761 32.1747 18.7632 31.7247C18.7632 31.7041 18.761 31.6814 18.7632 31.6608C18.9111 31.6361 19.0288 31.6969 19.1659 31.7247H19.1648Z" fill="#894B59"/>
<path d="M24.9986 30.3807L29.6265 32.1078C28.6526 32.5589 26.4617 32.633 25.3009 32.8751C25.2016 32.8957 25.0321 32.9348 25.0666 33.0666C25.0666 33.0594 25.0029 33.0996 24.9997 32.9389C24.9824 32.1644 25.1228 31.2097 24.8658 30.5084C24.8755 30.5084 24.8215 30.3343 24.9997 30.3807H24.9986Z" fill="#3D2431"/>
<path d="M13.3965 28.462L18.6949 31.7248C18.182 31.8731 17.4813 32.0976 16.9511 32.1089C16.8625 32.111 16.7708 32.1141 16.6833 32.1089C15.8918 32.0657 11.9334 30.9441 11.0155 30.6372C10.5156 30.4703 10.1053 30.1562 9.64098 29.9338C9.64746 29.9204 9.63882 29.8926 9.64098 29.8699L13.1287 28.3982C13.2248 28.4178 13.3284 28.4507 13.3965 28.462Z" fill="#9B4F57"/>
<path d="M9.6409 30.1255L11.9883 35.9465C11.578 36.0011 8.14 33.4768 7.29346 33.4521C7.36256 33.2296 9.3202 30.0946 9.50701 29.9978H9.57395L9.6409 30.1255Z" fill="#AD787E"/>
<path d="M11.9886 35.9462L9.64111 30.1252L14.0671 34.1872C14.0758 34.319 12.2963 35.905 11.9875 35.9462H11.9886Z" fill="#A96167"/>
<path d="M16.951 32.108L19.2315 33.8351C18.2403 33.9216 15.1035 33.8485 14.5366 34.0905L16.6832 32.1069C16.7707 32.1121 16.8635 32.109 16.951 32.1069V32.108Z" fill="#A96167"/>
<path d="M18.762 31.7249C18.7598 32.1739 19.2813 33.2295 19.3656 33.8361C19.3224 33.8403 19.2749 33.832 19.2317 33.8361L16.9512 32.109C17.4813 32.0987 18.1821 31.8732 18.695 31.7249H18.762Z" fill="#AD787E"/>
<path d="M38.9498 29.2931C38.9098 29.3199 38.8461 29.2776 38.682 29.4208L35.3951 28.3971C35.3735 28.2961 35.4588 28.1798 35.2612 28.2055C36.49 27.775 41.7896 24.6451 42.4375 23.7594C42.8478 23.1992 43.0929 22.1744 43.5777 21.6162C43.216 23.5761 43.0248 25.5751 42.6383 27.533C41.6017 28.4321 40.0047 28.602 38.9498 29.292V29.2931Z" fill="#1A2F50"/>
<path d="M43.7781 20.849C43.7166 21.1055 43.6237 21.3609 43.5773 21.6163C43.0925 22.1735 42.8474 23.1982 42.437 23.7595C41.7892 24.6452 36.4896 27.7751 35.2608 28.2056C34.1379 28.599 31.9945 28.8503 31.0356 29.357C31.3196 28.7793 31.9956 28.5228 32.4102 28.0779C32.5765 27.8997 32.4577 28.0182 32.3767 27.8863C33.8744 27.4764 34.6281 27.2993 36.0653 26.6711C36.3579 26.5433 36.9237 26.4785 37.172 26.3508C37.5629 26.151 38.038 25.5505 38.4127 25.2632C39.2096 24.6524 40.2472 24.0839 40.6262 23.1519C40.69 23.0932 40.7321 23.0386 40.7601 22.9603C41.3162 23.1395 41.7427 22.6761 41.9673 22.2569C42.1142 21.983 42.1055 21.8326 42.1682 21.5535C42.2362 21.2528 42.2999 20.9685 42.3021 20.6575L43.777 20.849H43.7781Z" fill="#3E5A7A"/>
<path d="M42.303 29.9329C42.3624 30.005 42.3505 30.0627 42.3699 30.1245C42.0935 30.4489 42.0924 30.9268 41.9002 31.3078C41.2135 32.6735 39.3768 35.067 38.1448 36.0093C37.9871 35.4264 36.3286 33.5458 35.8643 33.3223L42.303 29.9319V29.9329Z" fill="#322D44"/>
<path d="M38.9495 29.2932L42.3033 29.9328L35.8646 33.3232C35.8322 33.3078 35.7296 33.3181 35.6637 33.2594C35.6583 33.2192 35.6745 33.1584 35.6637 33.1316C35.7393 33.143 35.7274 33.0709 35.7307 33.0678C36.8256 32.1182 37.6743 30.2984 38.6817 29.422C38.8458 29.2788 38.9096 29.32 38.9495 29.2942V29.2932Z" fill="#322D44"/>
<path d="M12.7256 27.118C13.1673 27.1581 14.7265 27.7091 15.2404 27.8852C15.884 28.1067 16.5221 28.3981 17.1516 28.6525C15.9423 28.5145 14.599 28.6649 13.3962 28.461C13.3281 28.4496 13.2245 28.4167 13.1284 28.3971C12.7656 28.324 10.3793 27.531 10.1104 27.3734C10.0348 27.3291 10.0467 27.3116 10.0435 27.3095C10.8306 27.292 11.9752 27.05 12.7267 27.118H12.7256Z" fill="#392729"/>
<path d="M12.7258 26.9903C11.9883 26.7133 11.1774 26.2148 10.5122 25.7751C10.6504 25.8101 10.6385 25.7122 10.6461 25.7112C10.8394 25.6813 12.201 25.6741 12.3565 25.7112C12.7247 25.7988 12.7301 26.6608 12.7258 26.9903Z" fill="#A08079"/>
<path d="M13.1273 28.3982L9.63965 29.8699C9.72171 29.0305 9.9787 28.2076 10.1094 27.3755C10.3782 27.5331 12.7645 28.3251 13.1273 28.3992V28.3982Z" fill="#AD787E"/>
<path d="M35.6627 33.1316C35.6735 33.1584 35.6573 33.2192 35.6627 33.2593L30.6331 37.0978C30.6104 37.0957 30.5878 37.0998 30.5662 37.0978L29.7617 32.1079C30.2552 31.7814 30.4625 29.9698 30.835 29.4848C30.8728 29.4363 30.8793 29.4405 30.902 29.4209C31.6179 30.2613 35.3485 32.3674 35.6638 33.1316H35.6627Z" fill="#251823"/>
<path d="M35.8648 33.3234C36.3281 33.5469 37.9877 35.4275 38.1453 36.0104C35.0744 38.3586 34.0346 37.3966 30.6333 37.098L35.6629 33.2595C35.7288 33.3182 35.8324 33.3079 35.8638 33.3234H35.8648Z" fill="#322D44"/>
<path d="M30.8338 29.4859C30.4612 29.9709 30.2539 31.7815 29.7605 32.109C29.7184 32.1152 29.6493 32.0987 29.6266 32.109L24.9986 30.3819L24.8647 30.1903C26.1637 30.1666 28.2661 29.7001 29.6935 29.5507C30.0509 29.5137 30.4774 29.4055 30.8338 29.4869V29.4859Z" fill="#564C5C"/>
<path d="M24.8647 30.1892L24.9986 30.3808C24.8205 30.3355 24.8745 30.5075 24.8647 30.5085C23.0259 30.6867 20.9397 31.2778 19.1635 31.7238C19.0264 31.696 18.9087 31.6342 18.7607 31.6599C18.8158 31.1069 19.7023 29.9215 19.834 29.2932C21.0391 29.5219 23.8055 30.2088 24.8637 30.1892H24.8647Z" fill="#5A2B36"/>
<path d="M17.152 28.6538C17.3074 28.6713 17.4662 28.696 17.6217 28.7176C18.425 28.8309 19.1074 29.1553 19.8352 29.2933C19.7035 29.9216 18.817 31.107 18.7619 31.66C18.7598 31.6806 18.7619 31.7033 18.7619 31.7239H18.695L13.3965 28.4612C14.5994 28.6651 15.9426 28.5147 17.152 28.6527V28.6538Z" fill="#5A2B36"/>
<path d="M35.2609 28.2057C35.4585 28.18 35.3732 28.2974 35.3948 28.3973C35.6993 29.8247 35.465 31.6013 35.7306 33.0669C35.7274 33.07 35.7393 33.1421 35.6637 33.1307C35.3484 32.3665 31.6177 30.2604 30.9019 29.42C30.9936 29.3407 31.0055 29.3726 31.0357 29.3561C31.9957 28.8494 34.138 28.5981 35.2609 28.2047V28.2057Z" fill="#1B1928"/>
<path d="M38.6819 29.4219C37.6744 30.2994 36.8257 32.1182 35.7308 33.0678C35.4652 31.6012 35.6995 29.8246 35.395 28.3982L38.6819 29.4219Z" fill="#322D44"/>
<path d="M28.6212 28.7813L30.4655 29.2932L29.6945 29.5486C28.267 29.698 26.1647 30.1645 24.8657 30.1882C23.8075 30.2078 21.0401 29.5218 19.8361 29.2922C19.1094 29.1542 18.427 28.8297 17.6226 28.7165L17.9584 27.7566C21.7225 28.5774 24.7254 29.355 28.6223 28.7803L28.6212 28.7813Z" fill="#767081"/>
<path d="M43.0408 15.924C42.7935 15.9869 43.3636 16.3772 43.3766 16.404C43.4608 16.5811 43.4263 17.3566 43.7124 17.4916L42.3713 17.9076C42.3411 17.7758 42.2579 17.6635 42.2374 17.5873C42.1824 17.3906 42.2806 16.955 42.1705 16.7232C42.0474 16.4637 41.365 16.3051 41.1307 16.1156C40.8305 15.8736 39.9235 15.1599 39.7226 14.9642C39.5509 14.7973 39.3026 14.1114 39.186 14.0682C39.0694 14.0249 38.6914 14.1135 38.5824 14.0682C38.5046 14.0362 38.3643 13.8189 38.3481 13.8128C38.0889 13.6078 38.1407 13.2206 37.9118 13.0455C37.7542 12.925 34.6228 11.8786 34.1229 11.7025C33.0291 11.3163 32.081 10.8106 30.8706 10.6149C30.5672 10.5665 29.4323 10.4357 29.1937 10.4872C29.1656 10.4934 29.1019 10.7828 28.8913 10.7426C28.7283 10.6293 28.1344 10.1257 28.0869 10.1031L30.8036 9.7189L30.7032 9.52734C34.4889 10.3173 40.7193 12.9054 43.044 15.924H43.0408Z" fill="#564C5C"/>
<path d="M30.6998 9.52628L30.8003 9.71785L28.0835 10.102C28.0382 10.0804 27.1614 9.84864 27.1106 9.84658C26.7921 9.83216 26.4617 10.0999 26.3732 10.102C26.1442 10.1082 25.6864 9.95369 25.2664 9.97429C24.6736 9.76007 24.0084 9.81569 23.3886 9.84658C23.001 9.86615 23.136 9.74874 22.6512 9.91044C22.2376 10.0484 21.9147 10.3389 21.5109 10.4861C21.4515 10.5078 21.3727 10.5304 21.3101 10.55C21.0164 10.3121 20.3523 10.5655 19.9355 10.55C19.8848 10.5479 19.4161 10.3152 18.9961 10.3584C18.8795 10.3708 17.0892 10.9671 16.8495 11.0619C16.5472 11.1824 15.5624 11.8992 15.3745 11.9579C15.1748 12.0197 14.637 11.9208 14.1673 12.0856C14.1112 12.1052 14.0108 12.272 14 12.2771C13.8002 12.375 13.3294 12.5861 13.0605 12.789C13.5475 12.2895 13.1307 12.2638 13.1275 11.7014C18.5761 9.3306 24.7513 8.28526 30.6998 9.52628Z" fill="#81685A"/>
<path d="M13.0606 12.7892C12.8004 12.9859 12.4894 13.5091 12.3901 13.5565C12.1579 13.6688 11.7757 13.5853 11.5522 13.6842C10.2294 14.2682 8.69615 15.985 7.83017 17.0746C7.50407 17.4845 6.84649 18.6524 6.55603 18.8976C6.39514 19.0335 6.41458 18.9089 6.22021 18.9295C6.29796 18.3332 6.67804 16.3475 6.9577 15.8913C7.15422 15.571 10.2489 13.0354 10.6797 12.7892C11.2142 12.4834 12.4905 11.9787 13.1276 11.7017C13.1308 12.264 13.5476 12.2887 13.0606 12.7892Z" fill="#9A805E"/>
<path d="M12.3903 13.5574V13.6851C11.073 13.9395 11.4606 14.0888 10.546 14.7727C9.63145 15.4565 9.62713 15.4369 8.86912 16.2444C8.79462 16.3237 8.35299 16.4143 8.23205 16.6605C8.21046 16.7047 8.03445 17.541 8.03121 17.6203C8.03121 17.643 8.23853 17.9221 8.23205 17.9406C8.20938 18.0024 7.7969 18.0652 7.76235 18.1322C7.71268 18.228 7.8822 19.7656 7.89624 20.0509C7.8984 20.1024 7.74831 20.4206 7.76235 20.6905C7.80338 21.5257 9.41657 23.3589 10.2437 23.7287C10.3009 23.8141 10.3754 23.9099 10.4445 23.9841L8.36486 23.9202C7.96751 23.5536 7.28508 22.947 6.85533 22.6411C6.78839 22.5937 6.64693 22.4948 6.55299 22.5772C6.52816 22.4804 6.45149 22.398 6.4191 22.2569C6.47957 21.9995 7.73211 21.5288 7.76019 21.4577C7.77962 21.4093 7.65329 20.5803 7.55935 20.4659C7.75371 20.0818 7.74615 19.8068 7.65977 19.3784L6.21826 19.7625C6.45689 19.1528 7.52588 18.5102 7.96211 17.8757L7.82821 17.0765C8.6942 15.9869 10.2286 14.2701 11.5502 13.6861C11.7737 13.5872 12.1571 13.6707 12.3881 13.5584L12.3903 13.5574Z" fill="#836746"/>
<path d="M43.041 15.9241C44.177 17.3989 43.9966 18.6595 43.9804 20.4021L43.8466 20.2425C43.88 20.4639 43.8304 20.64 43.7796 20.8501L42.3046 20.6586C42.3046 20.5257 42.3781 20.2631 42.3716 20.2425C42.35 20.1755 41.903 19.95 41.9019 19.9222C41.8976 19.7636 42.8078 20.0272 42.6394 18.7069C42.6242 18.5854 42.4472 18.3403 42.4385 18.2908C42.4158 18.1662 42.3997 18.0303 42.3716 17.9067L43.7127 17.4906C43.4265 17.3557 43.4622 16.5802 43.3769 16.403C43.3639 16.3773 42.7938 15.9859 43.041 15.9231V15.9241Z" fill="#3E4A67"/>
<path d="M7.56162 20.466C7.36078 20.8625 6.57686 21.5968 6.28748 22.0016C6.1849 21.4959 6.07261 20.4011 6.08664 19.8903C6.11796 19.8841 6.2173 19.7708 6.22054 19.7626L7.66204 19.3784C7.74842 19.8069 7.75598 20.0808 7.56162 20.466Z" fill="#9A805E"/>
<path d="M6.22032 19.7624C6.21708 19.7707 6.11774 19.885 6.08643 19.8902C6.0929 19.645 6.18469 19.2042 6.22032 18.9303C6.41468 18.9087 6.39524 19.0343 6.55613 18.8984C6.84659 18.6532 7.50418 17.4853 7.83027 17.0754L7.96416 17.8746C7.52793 18.5101 6.45895 19.1517 6.22032 19.7614V19.7624Z" fill="#836746"/>
<path d="M6.421 22.2568C6.41776 22.2424 6.29899 22.0632 6.28711 22.0014C6.57649 21.5977 7.36041 20.8634 7.56125 20.4658C7.65519 20.5801 7.78152 21.4092 7.76209 21.4576C7.73401 21.5297 6.48147 21.9993 6.421 22.2568Z" fill="#81685A"/>
<path d="M34.1206 11.7014C33.8884 11.5902 33.0397 11.5994 32.9469 11.5737C32.0366 11.3193 31.4935 10.5829 30.3316 10.8064C29.2799 11.0083 29.944 11.4758 28.8901 10.7426C29.0996 10.7827 29.1644 10.4923 29.1925 10.4871C29.43 10.4356 30.566 10.5664 30.8694 10.6149C32.0798 10.8095 33.0279 11.3162 34.1217 11.7024L34.1206 11.7014Z" fill="#392729"/>
<path d="M10.4454 23.984C10.5296 24.0747 10.63 24.223 10.6462 24.2394V25.7112C10.6387 25.7122 10.6505 25.81 10.5123 25.775C9.44226 25.0675 9.24682 24.7328 8.36572 23.9202L10.4454 23.984Z" fill="#4C3627"/>
<path d="M14.3361 26.7348C15.3975 27.3826 16.7375 27.4918 17.9577 27.7586L17.6219 28.7184C17.4664 28.6968 17.3076 28.6721 17.1522 28.6546C16.5216 28.4002 15.8845 28.1087 15.2409 27.8873C14.727 27.7102 13.1678 27.1592 12.7261 27.12C12.8287 27.0222 12.7261 26.9995 12.7261 26.9923C12.7305 26.6627 12.7261 25.8007 12.3569 25.7132C12.2014 25.6761 10.8398 25.6833 10.6465 25.7132V24.2415C11.4941 25.0922 13.2066 26.2673 14.335 26.7359L14.3361 26.7348Z" fill="#7E696B"/>
<path d="M32.3771 27.8863C32.458 28.0191 32.5768 27.8997 32.4105 28.0778C31.9948 28.5228 31.32 28.7792 31.036 29.357C31.0047 29.3735 30.9939 29.3415 30.9021 29.4208C30.8794 29.4404 30.8718 29.4363 30.8351 29.4847C30.4788 29.4033 30.0523 29.5115 29.6949 29.5485L30.4658 29.2931L28.6216 28.7813C30.008 28.5763 31.0511 28.2488 32.3771 27.8853V27.8863Z" fill="#596E88"/>
<path d="M23.3901 9.84666C23.6805 10.0083 24.0412 9.99599 24.3629 10.0382C24.3997 10.0434 24.5292 10.2267 24.5638 10.2298C24.6091 10.2339 25.1544 9.97951 25.2678 9.97436C25.6878 9.95377 26.1457 10.1093 26.3746 10.1021C26.4631 10.099 26.7946 9.83121 27.1121 9.84666C27.1628 9.84872 28.0396 10.0815 28.0849 10.1021C28.1335 10.1247 28.7263 10.6283 28.8894 10.7416C29.9432 11.4749 29.2792 11.0084 30.3309 10.8055C31.4938 10.582 32.0369 11.3194 32.9461 11.5728C33.039 11.5985 33.8877 11.5892 34.1198 11.7005C34.6208 11.8766 37.7511 12.923 37.9088 13.0435C38.1377 13.2185 38.0859 13.6058 38.345 13.8107C38.1399 13.7294 37.8947 13.6851 37.6745 13.6511L38.0772 13.5872C37.8278 13.4647 38.0016 13.2412 37.7749 13.1073C36.8225 12.5429 33.8769 11.9703 32.7453 11.6356C32.2864 11.5007 31.7227 11.0259 31.1353 10.9322C30.3611 10.8076 29.9303 11.0506 29.2911 11.4121C29.331 11.5717 31.3038 11.6552 31.4377 11.9559C31.1461 11.8745 30.8999 11.8797 30.7002 11.8282C30.4551 11.7643 30.1981 11.788 30.0966 11.7643C28.1109 11.306 27.1013 11.1165 24.9989 11.1886C24.5206 11.2051 23.998 11.1793 23.5239 11.2525C22.5694 11.3987 20.8483 12.099 19.9024 12.4677C18.5105 13.0105 17.4189 13.474 16.1469 14.2587C16.0745 14.303 16.0843 14.3205 16.0799 14.3226C14.1396 15.5389 13.7746 16.0178 12.4584 17.7769C12.4335 17.8098 12.2737 17.8346 12.3245 17.9684C12.305 17.9767 12.2737 17.9602 12.2575 17.9684C12.2079 17.9942 11.5352 18.7172 11.52 18.7676C11.3883 19.2023 11.8969 19.6029 11.52 19.8871C11.303 20.0509 10.3657 20.0869 10.3128 20.2394C10.532 20.4392 10.356 21.4577 10.3798 21.5185C10.396 21.5587 11.2069 21.7482 11.2512 21.742C11.3052 22.328 11.5978 23.7276 10.748 23.9171C10.5731 23.9563 10.396 23.7925 10.2448 23.7256C9.4177 23.3558 7.80451 21.5216 7.76348 20.6874C7.75052 20.4175 7.90061 20.0993 7.89737 20.0478C7.88334 19.7625 7.71381 18.2249 7.76348 18.1291C7.79803 18.0622 8.21051 17.9993 8.23318 17.9375C8.23966 17.92 8.03127 17.6409 8.03235 17.6172C8.03558 17.5379 8.21159 16.7017 8.23318 16.6574C8.35412 16.4112 8.79575 16.3206 8.87025 16.2413C9.62718 15.4339 9.66605 15.4287 10.5472 14.7696C11.4283 14.1104 11.0741 13.9364 12.3914 13.682C13.4043 13.4863 13.8772 13.9055 13.8664 12.4986C14.1223 12.4492 14.0122 12.6861 14.3361 12.6583C14.3588 12.6562 14.3858 12.6634 14.403 12.6583C14.7324 13.0414 14.3869 14.2433 15.1071 14.1939C16.0044 14.1321 15.3306 12.5913 15.4094 12.4348C15.4224 12.408 15.7625 12.305 15.9461 12.1464C16.0951 12.0177 16.9783 11.1969 17.0528 11.1866C17.1608 11.1721 17.5798 11.4687 17.7903 11.3781C17.8324 11.3606 18.0603 10.8117 18.327 10.6747C19.234 10.2071 19.9056 10.8549 20.4736 10.8024C20.5178 10.7983 21.1959 10.583 21.3115 10.547C21.3741 10.5274 21.454 10.5048 21.5123 10.4831C21.6926 10.6335 22.807 10.755 22.8869 10.6747L22.9873 9.93935L22.6515 9.90742C23.1363 9.74573 23.0024 9.86313 23.389 9.84357L23.3901 9.84666Z" fill="#F7F3F9"/>
<path d="M38.3461 13.8128C38.3622 13.819 38.5026 14.0363 38.5804 14.0682C38.6894 14.1135 39.063 14.0239 39.184 14.0682C39.3049 14.1125 39.5489 14.7974 39.7206 14.9642C39.9225 15.1599 40.8295 15.8736 41.1286 16.1157C41.363 16.3052 42.0454 16.4638 42.1685 16.7233C42.2786 16.955 42.1803 17.3897 42.2354 17.5874L41.9676 18.195C42.1015 18.3608 42.2354 18.4196 42.4373 18.2908C42.446 18.3402 42.6231 18.5843 42.6382 18.7069C42.8055 20.0283 41.8964 19.7636 41.9007 19.9222C41.9007 19.95 42.3488 20.1745 42.3704 20.2425C42.3769 20.2631 42.3045 20.5257 42.3034 20.6586C42.3013 20.9696 42.2376 21.2528 42.1696 21.5546C41.8337 21.5175 41.4936 21.5391 41.1632 21.6184C41.1276 21.3857 41.4331 21.5525 41.499 21.4588C41.8067 21.018 40.795 20.1766 40.3588 20.0839C40.5542 19.8964 40.8133 19.4443 41.0963 19.1879C41.2658 19.0344 41.8445 18.7831 41.9342 18.676C42.2948 18.2496 41.3327 17.5163 40.8943 17.4607C40.8727 17.4576 40.849 17.4607 40.8274 17.4607C40.2627 16.781 39.2811 16.5863 38.413 16.5009C38.4594 15.85 38.7488 15.4287 38.1107 14.9653C37.8666 14.7881 36.6519 14.0548 36.3333 13.8777C35.814 13.5893 34.8918 13.1949 34.3217 12.9817C33.5885 12.7088 32.9493 12.6274 32.2421 12.406C31.9656 12.3195 31.6676 12.0218 31.4376 11.958C31.3037 11.6572 29.331 11.5738 29.291 11.4142C29.9302 11.0527 30.3611 10.8107 31.1353 10.9342C31.7227 11.028 32.2863 11.5028 32.7452 11.6377C33.8779 11.9714 36.8236 12.544 37.7748 13.1094C38.0005 13.2433 37.8278 13.4668 38.0772 13.5893L37.6744 13.6532C37.8958 13.6872 38.1398 13.7315 38.345 13.8128H38.3461Z" fill="#E1E2F1"/>
<path d="M42.3705 17.9067C42.3986 18.0292 42.4159 18.1662 42.4375 18.2908C42.2356 18.4185 42.1017 18.3609 41.9678 18.195L42.2356 17.5874C42.2572 17.6636 42.3392 17.7759 42.3695 17.9077L42.3705 17.9067Z" fill="#141B21"/>
<path d="M21.3102 10.5502C21.1936 10.5873 20.5155 10.8025 20.4723 10.8056C19.9054 10.8581 19.2327 10.2093 18.3257 10.6779C18.059 10.8159 17.8312 11.3638 17.7891 11.3813C17.5785 11.472 17.1595 11.1743 17.0516 11.1898C16.9771 11.2001 16.0938 12.0209 15.9448 12.1496C15.0853 11.7418 14.9039 12.5111 14.4018 12.6615C14.3845 12.6666 14.3575 12.6594 14.3348 12.6615L13.999 12.2773C14.0109 12.2712 14.1113 12.1053 14.1664 12.0858C14.6361 11.921 15.1738 12.0188 15.3736 11.9581C15.5625 11.9004 16.5473 11.1825 16.8486 11.0621C17.0883 10.9663 18.8775 10.37 18.9952 10.3586C19.4152 10.3154 19.8827 10.5481 19.9346 10.5502C20.3514 10.5656 21.0154 10.3123 21.3091 10.5502H21.3102Z" fill="#6F5638"/>
<path d="M14.0005 12.2771L14.3363 12.6613C14.0124 12.6891 14.1225 12.4512 13.8666 12.5016C13.8774 13.9085 13.4034 13.4893 12.3916 13.685V13.5573C12.4909 13.5089 12.8019 12.9857 13.0621 12.79C13.3224 12.5943 13.8018 12.377 14.0016 12.2781L14.0005 12.2771Z" fill="#D4C0B9"/>
<path d="M22.6524 9.9104L22.9882 9.94233L22.8877 10.6777C22.8078 10.758 21.6935 10.6354 21.5132 10.4861C21.917 10.3388 22.2399 10.0484 22.6534 9.9104H22.6524Z" fill="#E1E2F1"/>
<path d="M25.2674 9.9743C25.154 9.97945 24.6087 10.2349 24.5634 10.2297C24.5288 10.2266 24.3982 10.0423 24.3625 10.0382C24.0408 9.99593 23.6812 10.0083 23.3896 9.84659C24.0094 9.8157 24.6746 9.76008 25.2674 9.9743Z" fill="#5D463C"/>
<path d="M11.2499 21.7452C11.2056 21.7504 10.3936 21.5619 10.3785 21.5217C10.3547 21.461 10.5307 20.4414 10.3115 20.2426C10.3644 20.0912 11.3017 20.0541 11.5187 19.8904C11.6839 19.9934 12.132 21.0696 12.1223 21.1376C12.1094 21.2334 11.3038 21.739 11.2509 21.7452H11.2499Z" fill="#F7F3F9"/>
<path d="M15.9449 12.1494C15.7613 12.307 15.4212 12.411 15.4082 12.4377C15.3305 12.5943 16.0032 14.135 15.1059 14.1968C14.3846 14.2463 14.7312 13.0444 14.4019 12.6612C14.904 12.5109 15.0854 11.7415 15.9449 12.1494Z" fill="#F7F3F9"/>
<path d="M41.1635 21.6173C41.0933 21.6337 40.7089 21.5977 40.8611 21.8088C41.2369 21.8253 41.658 22.5009 41.9679 22.2568C41.7433 22.676 41.3168 23.1395 40.7607 22.9602C40.6182 22.9139 40.2402 22.2331 40.0567 22.2568C39.9833 22.2661 38.9812 23.1209 38.9499 23.1848C38.7502 23.5936 39.5913 23.7615 39.8558 23.7286C40.0373 23.7059 40.4843 23.2847 40.6268 23.1528C40.2478 24.0849 39.2101 24.6524 38.4133 25.2641L37.9101 24.433C37.0311 24.9253 36.7158 25.8841 35.9989 26.4804C35.5292 26.8708 33.1688 27.7297 32.6786 27.568C32.4961 27.5073 32.5047 26.9563 31.6722 26.8646C31.6182 26.8584 31.5804 26.7359 31.5718 26.7369L31.8741 25.9696L32.8805 26.4176C33.3199 25.6534 33.0392 24.3032 34.322 24.434C35.716 26.225 35.4374 24.8759 36.5021 23.986C37.0009 23.5689 37.6272 23.8583 37.34 22.8346C37.4987 22.8078 37.7978 22.5493 37.9436 22.4504C37.9727 22.5009 38.9715 23.0334 39.0169 22.9942C39.086 22.2167 38.8322 21.5019 39.0838 20.7233C39.6626 20.7346 39.993 20.4349 40.3579 20.0837C40.7942 20.1764 41.8059 21.0179 41.4982 21.4587C41.4323 21.5524 41.1278 21.3866 41.1624 21.6183L41.1635 21.6173Z" fill="#E1E2F1"/>
<path d="M39.5531 17.715C39.9645 18.1764 39.6751 18.3278 40.4925 18.8026C40.6782 18.9108 41.027 18.9705 41.0961 19.1868C40.8132 19.4432 40.5529 19.8943 40.3586 20.0828C39.9936 20.434 39.6621 20.7337 39.0844 20.7223C38.7659 20.7162 38.1353 20.3248 37.7434 20.4989C37.684 20.5792 37.8945 22.364 37.9442 22.4495C37.7984 22.5484 37.4993 22.8058 37.3406 22.8336C36.9011 22.9088 36.4638 22.6441 35.9995 22.7059L37.2067 19.7635C37.508 19.4988 37.5393 19.3855 37.6764 19.0601C37.684 19.0416 37.6689 19.0148 37.6764 18.9962C37.7023 18.9314 37.7207 18.8696 37.7434 18.8047C37.9906 18.1023 38.1299 17.2856 38.347 16.5657C38.6925 16.9529 39.2237 17.3474 39.5541 17.7171L39.5531 17.715Z" fill="#B1ABBE"/>
<path d="M41.0963 19.1859C41.0272 18.9696 40.6784 18.9099 40.4927 18.8017L40.8954 17.4587C41.3338 17.5144 42.2959 18.2476 41.9353 18.674C41.8446 18.7811 41.2669 19.0314 41.0974 19.1859H41.0963Z" fill="#B5BBC7"/>
<path d="M40.827 17.4586C40.5539 17.4473 39.8887 17.712 39.5529 17.7141C39.2225 17.3443 38.6912 16.9499 38.3457 16.5626L38.4126 16.4988C39.2808 16.5843 40.2623 16.7789 40.827 17.4586Z" fill="#C4C6D9"/>
<path d="M40.8275 17.4586C40.8491 17.4586 40.8728 17.4556 40.8944 17.4586L40.4917 18.8016C39.6743 18.3269 39.9636 18.1755 39.5522 17.7141C39.8881 17.711 40.5532 17.4463 40.8264 17.4586H40.8275Z" fill="#B1ABBE"/>
<path d="M42.1687 21.5535C42.106 21.8326 42.1147 21.983 41.9678 22.2569C41.6579 22.501 41.2368 21.8254 40.861 21.8089C40.7088 21.5967 41.0932 21.6338 41.1634 21.6173C41.4938 21.538 41.8339 21.5164 42.1697 21.5535H42.1687Z" fill="#B5BBC7"/>
<path d="M36.0654 26.6711C34.6282 27.2993 33.8746 27.4764 32.3769 27.8863C31.0499 28.2489 30.0068 28.5774 28.6214 28.7823C24.7245 29.357 21.7216 28.5795 17.9575 27.7586C16.7363 27.4929 15.3963 27.3827 14.3359 26.7349C15.5431 27.2365 16.3972 27.22 17.4878 27.4383C18.9563 27.7329 19.3332 28.0861 20.8751 27.8863C21.0273 27.8668 21.5726 27.5516 21.6795 27.566C21.7475 27.5753 22.4937 28.3488 22.6859 28.462C22.8241 28.5434 23.5821 28.7947 23.6922 28.7823C23.784 28.772 24.5593 27.9564 24.7655 27.8863C25.002 27.806 25.7287 27.8215 26.0397 27.7586C26.2923 27.7082 27.0773 27.3281 27.1464 27.4703C27.1983 27.5784 27.0881 27.8431 27.113 27.8863C27.1518 27.9543 28.3979 28.4507 28.588 28.5259L28.7553 27.6948C28.778 27.6948 28.7996 27.6948 28.8223 27.6948C29.0069 27.6886 29.7282 27.4826 29.7951 27.5032C29.9053 27.5362 30.294 28.5733 30.7346 28.2705C30.9786 28.1026 30.8814 27.2715 30.9019 26.9914C31.0542 26.9337 31.4418 26.7411 31.5725 26.7359C31.5811 26.7359 31.6189 26.8575 31.6729 26.8636C32.5043 26.9553 32.4957 27.5073 32.6792 27.5671C33.1684 27.7288 35.5299 26.8698 35.9996 26.4795L36.0665 26.6711H36.0654Z" fill="#E1E2F1"/>
<path d="M38.4129 25.263C38.0382 25.5504 37.5631 26.1498 37.1723 26.3506C36.9239 26.4783 36.3581 26.5421 36.0655 26.6709L35.9985 26.4793C36.7155 25.883 37.0308 24.9252 37.9097 24.4319L38.4129 25.263Z" fill="#B5BBC7"/>
<path d="M40.7603 22.9604C40.7323 23.0386 40.6901 23.0932 40.6264 23.1519C40.4839 23.2838 40.0369 23.705 39.8555 23.7276C39.5909 23.7606 38.7509 23.5927 38.9495 23.1839C38.9808 23.12 39.9829 22.2652 40.0563 22.2559C40.2399 22.2333 40.6178 22.914 40.7603 22.9593V22.9604Z" fill="#B5BBC7"/>
<path d="M19.8352 25.1992C20.3038 25.2796 20.9107 24.6863 21.3102 24.6874C21.3739 24.6874 21.8566 24.8954 21.9807 24.9428C22.1621 25.0128 22.3846 25.157 22.6513 25.2631C22.6653 25.2693 22.7787 25.3619 22.8521 25.3908C22.7344 25.5823 22.9871 26.6256 23.0864 26.6699C23.4989 26.8543 25.4846 26.707 26.0709 26.7976C26.0925 26.8007 26.1163 26.7935 26.1379 26.7976C26.8138 26.9109 27.7155 27.4815 28.4184 27.6288C28.4832 27.6421 28.5296 27.6864 28.6862 27.6926C28.7089 27.6926 28.7304 27.6926 28.7531 27.6926L28.5858 28.5237C28.3946 28.4486 27.1496 27.9521 27.1108 27.8842C27.0859 27.8419 27.1961 27.5762 27.1443 27.4681C27.0751 27.3249 26.2901 27.705 26.0375 27.7565C25.7265 27.8193 24.9998 27.8038 24.7633 27.8842C24.5571 27.9542 23.7818 28.7689 23.69 28.7802C23.5799 28.7925 22.8219 28.5412 22.6837 28.4599C22.4915 28.3466 21.7454 27.5731 21.6773 27.5639C21.5704 27.5495 21.0251 27.8636 20.8729 27.8842C19.332 28.084 18.9541 27.7307 17.4856 27.4362L16.1445 26.7008C16.7125 26.6411 18.9358 25.1673 18.3246 24.5576C18.2965 24.5298 17.6012 24.124 17.5536 24.3022L17.4198 24.2383V23.9829C18.0622 24.2239 19.2921 25.1055 19.8341 25.1982L19.8352 25.1992Z" fill="#F7F3F9"/>
<path d="M11.9888 20.4658C12.1648 21.0219 12.0903 21.3639 12.7262 21.6172C12.7457 21.6244 12.7738 21.61 12.7932 21.6172L17.3542 23.9839C17.3401 23.9788 17.203 24.0292 17.0518 23.9839C16.3532 23.7738 16.3986 23.3052 15.6773 24.1436C15.66 24.3403 16.4709 24.8717 16.6167 25.0077C16.7365 25.1199 17.4568 25.8975 17.5226 25.9037C17.5291 25.6565 17.8109 25.5278 17.825 25.4876C17.8703 25.3506 17.4697 24.5493 17.5572 24.3042C17.6047 24.1271 18.3001 24.5318 18.3281 24.5596C18.9404 25.1693 16.7171 26.6421 16.1481 26.7029L17.4892 27.4382C16.3986 27.2199 15.5445 27.2364 14.3373 26.7348C13.2089 26.2662 11.4964 25.09 10.6487 24.2404C10.6315 24.2239 10.5321 24.0746 10.4479 23.985C10.3788 23.9108 10.3032 23.814 10.2471 23.7295C10.3982 23.7975 10.5753 23.9602 10.7502 23.9211C11.6 23.7316 11.3074 22.332 11.2534 21.746C11.3074 21.7398 12.1129 21.2341 12.1248 21.1383C12.1345 21.0703 11.6864 19.9941 11.5212 19.8911C11.8981 19.6069 11.3895 19.2062 11.5212 18.7716C11.5363 18.7201 12.2101 17.9971 12.2587 17.9724C12.2317 18.5687 11.6659 19.441 11.722 19.9879C11.7274 20.0446 11.9704 20.4061 11.9898 20.4679L11.9888 20.4658Z" fill="#F7F3F9"/>
<path d="M14.2346 22.5123C14.3102 22.5123 15.5411 23.1755 15.5422 23.2476C15.0153 24.1529 14.2108 24.7708 13.2952 25.327C13.1138 25.259 13.2315 24.5937 13.1278 24.4629C13.0436 24.3589 12.2273 24.2291 12.1884 24.1426C12.1657 24.0921 12.3558 23.1003 12.3892 23.055C12.4907 22.9191 13.0047 23.1714 13.1602 23.1508C13.2725 23.1364 14.0737 22.5123 14.2335 22.5112L14.2346 22.5123Z" fill="#E9DBE8"/>
<path d="M17.3539 23.9842C17.3733 23.9914 17.4014 23.977 17.4208 23.9842V24.2397L16.6164 25.0069C16.4706 24.871 15.6608 24.3396 15.677 24.1428C16.3994 23.3045 16.3529 23.7731 17.0516 23.9832C17.2016 24.0285 17.3388 23.9781 17.3539 23.9832V23.9842Z" fill="#E9DBE8"/>
<path d="M17.5552 24.3043C17.4689 24.5494 17.8684 25.3507 17.823 25.4877C17.8101 25.5279 17.5272 25.6566 17.5207 25.9038C17.4548 25.8976 16.7346 25.12 16.6147 25.0078L17.4192 24.2405L17.5531 24.3043H17.5552Z" fill="#F7F3F9"/>
<path d="M34.3216 24.432C33.0388 24.3012 33.3195 25.6503 32.8801 26.4156L31.8737 25.9676L31.5714 26.7348C31.4407 26.74 31.0531 26.9336 30.9008 26.9902C30.7885 27.0325 30.0003 27.4681 29.9614 27.4063L30.4981 26.3507C31.3489 25.7266 35.207 22.8583 35.9304 22.7048L34.3205 24.432H34.3216Z" fill="#B1ABBE"/>
<path d="M37.3398 22.8327C37.627 23.8564 36.9996 23.567 36.5019 23.9841C35.4372 24.8739 35.7158 26.2231 34.3218 24.4321L35.9317 22.705C35.9522 22.7008 35.9771 22.7081 35.9987 22.705C36.463 22.6432 36.9003 22.9089 37.3398 22.8327Z" fill="#B5BBC7"/>
<path d="M39.0835 20.7214C38.8319 21.5 39.0856 22.2148 39.0165 22.9924C38.9712 23.0315 37.9735 22.499 37.9432 22.4486C37.8936 22.3631 37.683 20.5772 37.7424 20.4979C38.1344 20.3239 38.765 20.7153 39.0835 20.7214Z" fill="#B1ABBE"/>
<path d="M30.9009 26.9902C30.8804 27.2703 30.9776 28.1014 30.7336 28.2693C30.2941 28.5721 29.9054 27.535 29.7942 27.502C29.7272 27.4824 29.007 27.6884 28.8213 27.6936C29.3158 27.1797 29.9216 26.7728 30.4982 26.3506L29.9615 27.4062C29.9993 27.468 30.7886 27.0324 30.9009 26.9902Z" fill="#B5BBC7"/>
<path d="M23.457 25.6473C24.337 26.0149 25.2613 26.2889 26.0722 26.7987C25.4859 26.7081 23.5002 26.8553 23.0877 26.671C22.9873 26.6267 22.7346 25.5834 22.8534 25.3918C23.0574 25.4732 23.255 25.5638 23.457 25.6473Z" fill="#E1E2F1"/>
<path d="M16.0786 14.3247C16.1564 14.5214 16.1423 14.4751 16.3129 14.5163C17.6551 14.8386 19.0761 14.954 20.4042 15.3474C20.7627 15.4535 22.6955 16.3732 22.8855 16.3711C22.9147 16.3711 23.2041 16.1754 23.3218 16.1796C24.3713 16.5853 25.4533 16.9355 26.4067 17.5225C26.4197 17.5442 26.573 17.5864 26.6075 17.6183C26.6281 17.8727 24.8108 17.0653 24.6294 17.0107C24.0755 16.8438 23.4287 16.5998 22.8521 16.5627C20.5953 16.4185 18.4239 16.5493 16.0786 16.3073C16.0721 16.3073 16.1013 16.1847 16.0451 16.1796C15.7374 16.1476 15.5765 16.3145 15.5085 16.3073C15.4556 16.3011 15.4945 16.1847 15.4415 16.1796C15.0431 16.1373 14.6295 16.1291 14.2343 16.0518L16.883 16.851C15.8011 17.0529 14.9146 17.194 13.8316 17.4587C13.688 17.4937 13.0952 17.7502 12.9602 17.779C12.8727 17.7975 12.5898 17.7203 12.457 17.779C13.7733 16.0199 14.1382 15.541 16.0786 14.3247Z" fill="#FCB969"/>
<path d="M19.9022 12.4697C20.2077 12.7025 20.6213 12.6942 20.9755 12.79C20.9258 13.2154 21.8317 13.2298 22.0153 13.3019C22.7776 13.6006 24.4945 14.4904 25.2341 14.6449C25.2784 14.6541 25.2568 14.51 25.3011 14.5172C25.5008 14.547 25.7783 14.6758 25.9381 14.581C27.0039 15.1083 28.1301 15.8746 29.09 16.5646C29.3826 16.7747 29.6871 16.9694 29.8944 17.268C28.9205 16.7963 26.7685 15.2649 25.8701 15.0929C25.2136 14.9672 23.8747 15.1001 23.0864 15.029C21.5564 14.89 20.022 14.7293 18.492 14.581C18.4499 14.5769 17.924 14.4595 17.8549 14.4533C17.4608 14.4152 16.9727 14.4852 16.5808 14.4533C16.557 14.4513 16.3195 14.2494 16.1445 14.2618C17.4165 13.477 18.5092 13.0135 19.9 12.4708L19.9022 12.4697Z" fill="#FCB969"/>
<path d="M23.5238 11.2535C23.5649 11.4018 23.9287 11.5779 24.0605 11.6376L27.4143 14.612C27.8149 15.2145 28.642 15.7572 29.0577 16.3072C29.1452 16.4236 29.2143 16.3958 29.0912 16.5626C28.1312 15.8726 27.005 15.1074 25.9393 14.579C24.5691 13.9003 22.4937 13.1969 20.9766 12.788C20.6235 12.6922 20.2089 12.7005 19.9033 12.4677C20.8492 12.099 22.5704 11.3987 23.5249 11.2524L23.5238 11.2535Z" fill="#F89A57"/>
<path d="M30.0968 11.7654C30.2047 11.8684 30.2339 11.9786 30.2976 12.0857C31.2975 13.7562 32.4788 15.3546 33.5164 17.0117C31.345 15.0549 29.2405 13.4513 26.608 12.0857C26.0649 11.8045 25.4591 11.6037 24.998 11.1897C27.1004 11.1176 28.1089 11.3071 30.0957 11.7654H30.0968Z" fill="#F89A57"/>
<path d="M17.421 17.2031C16.5215 17.6768 15.4342 18.8684 14.5034 19.2505C14.3004 19.3339 13.7303 19.2649 13.5975 19.5059C13.1159 19.5615 12.4 19.5275 12.0879 19.8262L14.8381 19.5708L14.1341 19.955C13.4139 20.1053 12.7034 20.2989 11.9875 20.4668C11.9681 20.405 11.7251 20.0435 11.7197 19.9869C11.6636 19.44 12.2294 18.5677 12.2564 17.9714C12.2737 17.9631 12.3039 17.9796 12.3233 17.9714C12.9852 17.6984 14.5833 17.6634 15.3748 17.5234C15.959 17.4204 16.541 17.1989 17.1186 17.0754C17.2806 17.0403 17.4663 16.9229 17.421 17.2031Z" fill="#FCB969"/>
<path d="M16.0785 16.3072C15.9306 16.4122 16.4208 16.4946 16.4478 16.4987C18.1549 16.8077 21.0088 17.645 22.5842 18.3536C22.9837 18.5328 23.3076 18.8644 23.7244 19.0251C23.6532 19.1713 23.2396 18.9643 23.1208 18.9293C21.3306 18.3937 19.5716 17.3638 17.6885 17.0106C17.6183 17.0178 17.5211 17.1496 17.4207 17.2022C17.466 16.922 17.2803 17.0394 17.1183 17.0744C16.5407 17.198 15.9587 17.4184 15.3745 17.5225C14.583 17.6625 12.9839 17.6975 12.323 17.9705C12.2734 17.8366 12.4321 17.8119 12.4569 17.7789C12.5897 17.7202 12.8716 17.7974 12.9601 17.7789C13.0951 17.7511 13.6879 17.4946 13.8315 17.4586C14.9145 17.1939 15.801 17.0528 16.883 16.851L14.2343 16.0518C14.6295 16.129 15.043 16.1383 15.4414 16.1795C15.4944 16.1846 15.4555 16.302 15.5084 16.3072C15.5764 16.3144 15.7373 16.1465 16.045 16.1795C16.1012 16.1856 16.072 16.3072 16.0785 16.3072Z" fill="#FFCD74"/>
<path d="M31.4374 11.958C31.6674 12.0218 31.9654 12.3195 32.2418 12.406L33.5494 13.8128C34.1843 14.0919 34.6875 14.99 35.3267 15.0281C35.3894 15.1362 35.4617 15.2351 35.5276 15.3484C35.2414 15.6533 35.8116 16.1013 35.6615 16.4998C34.6098 15.2166 34.3463 14.99 33.0463 14.0054C32.9804 13.955 32.8983 13.853 32.8454 13.8139C32.5085 13.3741 32.0475 12.8066 31.6047 12.4709C31.5616 12.4379 30.6805 12.1186 30.5984 12.0229C30.4083 11.7994 30.6459 11.9745 30.6988 11.8313C30.8986 11.8838 31.1448 11.8787 31.4363 11.959L31.4374 11.958Z" fill="#FCB969"/>
<path d="M24.999 11.1897C25.459 11.6027 26.0658 11.8035 26.609 12.0857C26.5107 12.2299 26.5204 12.2258 26.6424 12.3411C26.989 12.6707 27.841 12.9199 28.0839 13.4287C26.7493 12.6831 25.4471 12.267 24.0596 11.6377C23.9279 11.578 23.564 11.4019 23.5229 11.2536C23.9981 11.1804 24.5207 11.2062 24.9979 11.1897H24.999Z" fill="#FFCD74"/>
<path d="M18.494 14.58C18.2068 14.5738 18.5663 14.7025 18.5944 14.7077C20.3426 15.0589 21.6826 15.544 23.3228 16.1794C23.2051 16.1753 22.9168 16.371 22.8865 16.371C22.6965 16.373 20.7626 15.4533 20.4052 15.3473C19.0771 14.9528 17.6561 14.8375 16.3139 14.5161C16.1433 14.4749 16.1563 14.5213 16.0796 14.3246C16.0839 14.3225 16.0742 14.305 16.1465 14.2607C16.3204 14.2494 16.559 14.4502 16.5828 14.4523C16.9747 14.4842 17.4628 14.4142 17.8569 14.4523C17.926 14.4595 18.4519 14.5759 18.494 14.58Z" fill="#FFCD74"/>
<path d="M30.7002 11.8293C30.6473 11.9735 30.4097 11.7984 30.5998 12.0208C30.6807 12.1166 31.5618 12.4359 31.6061 12.4689C32.0488 12.8056 32.5099 13.3721 32.8468 13.8118C32.0391 13.2052 31.1926 12.5749 30.2985 12.0847C30.2348 11.9786 30.2056 11.8684 30.0977 11.7644C30.1992 11.7881 30.4561 11.7644 30.7013 11.8283L30.7002 11.8293Z" fill="#FFCD74"/>
<path d="M36.3344 13.8765C36.8419 14.7715 38.0048 16.7664 37.9443 17.7469C37.94 17.8159 37.7435 18.5636 37.5416 18.5461C36.9023 17.4637 36.1627 16.4224 35.53 15.3472C35.4641 15.235 35.3917 15.1361 35.3291 15.0269C34.9609 14.3925 34.7277 13.6088 34.3228 12.9795C34.8929 13.1927 35.815 13.5861 36.3344 13.8755V13.8765Z" fill="#EC5E24"/>
<path d="M38.413 16.4998L38.3461 16.5637C38.1291 17.2836 37.9898 18.1003 37.7425 18.8027C37.6691 18.744 37.5892 18.6276 37.5417 18.5472C37.7436 18.5648 37.9401 17.817 37.9444 17.748C38.006 16.7676 36.843 14.7727 36.3345 13.8777C36.653 14.0548 37.8678 14.7881 38.1118 14.9653C38.7499 15.4287 38.4595 15.8489 38.4141 16.5008L38.413 16.4998Z" fill="#EF4525"/>
<path d="M32.2432 12.406C32.9493 12.6274 33.5896 12.7088 34.3228 12.9817C34.7277 13.611 34.961 14.3937 35.3292 15.0292C34.6899 14.99 34.1868 14.093 33.5519 13.8139L32.2442 12.407L32.2432 12.406Z" fill="#F47E3A"/>
<path d="M23.1208 18.9304C22.3963 19.2085 21.3996 19.2487 20.7064 19.57C20.62 19.6102 20.5088 19.6019 20.4386 19.7296C20.4386 19.8316 21.743 21.0335 21.5789 21.4248C21.2884 21.155 19.1645 19.7739 18.8622 19.6977C18.6419 19.6421 18.7056 19.8254 18.6948 19.8254C18.6235 19.8285 18.5415 19.6905 18.5274 19.6977C18.4346 19.7451 18.1808 20.1344 18.0577 20.2096C17.4541 20.5783 16.4197 20.914 15.9111 21.2333C15.4025 21.5525 16.4791 21.4907 16.4812 21.6813C15.4673 21.5361 14.4145 21.4207 13.3963 21.2971C12.9439 21.2425 12.2485 21.016 12.7258 21.6174C12.0898 21.3641 12.1643 21.0221 11.9883 20.466C12.7042 20.2981 13.4136 20.1045 14.1349 19.9541C14.3908 19.9006 14.9382 19.6544 15.1078 19.6338C16.0839 19.5195 17.3623 19.8089 18.3946 19.6338L18.495 19.5381C18.495 19.5092 18.3298 19.5154 18.2942 19.3784C18.088 18.5926 17.9454 17.7862 17.6906 17.0117C19.5737 17.365 21.3327 18.3949 23.123 18.9304H23.1208Z" fill="#F37444"/>
<path d="M15.3412 22.1931C15.7775 22.2394 16.339 22.0953 16.6823 22.1292C17.53 22.2116 19.2889 23.2879 20.1031 23.2807C20.5641 23.2765 21.1375 22.5052 21.2099 22.5134C21.7627 22.5772 20.5004 23.9213 20.4389 24.017C20.2057 24.3785 20.1366 24.8595 19.8353 25.2004C19.2922 25.1077 18.0634 24.2261 17.4209 23.9851C17.4015 23.9779 17.3734 23.9923 17.354 23.9851L12.793 21.6184C13.253 21.7853 14.8413 22.1406 15.3412 22.1941V22.1931Z" fill="#EC5E24"/>
<path d="M13.3966 21.2973L15.9114 21.9369C15.9923 22.2829 15.4924 22.0203 15.3412 22.1923C14.8402 22.1387 13.2519 21.7834 12.793 21.6166C12.7735 21.6094 12.7444 21.6238 12.726 21.6166C12.2487 21.0162 12.9441 21.2417 13.3966 21.2963V21.2973Z" fill="#F89A57"/>
<path d="M33.7848 17.5236C33.8907 17.5988 33.9965 17.6853 34.0872 17.779C34.3506 17.5875 33.0733 14.5194 33.0473 14.0045C34.3474 14.989 34.6119 15.2156 35.6626 16.4989C36.3385 17.3238 36.8611 18.2899 37.6742 18.9933C37.6666 19.0118 37.6818 19.0386 37.6742 19.0571C37.5414 19.1251 37.1008 18.9871 37.0706 18.9933C37.0825 18.9212 37.0069 18.9325 37.0037 18.9294C36.887 18.8079 36.6376 18.4825 36.5005 18.4176C34.7955 17.6122 27.277 17.3135 25.6692 18.226C24.9684 18.3692 24.4134 18.9696 23.7245 19.1859C22.9093 19.4413 21.5509 19.5639 20.7065 19.57C21.3998 19.2487 22.3964 19.2085 23.1209 18.9305C23.2397 18.9655 23.6533 19.1725 23.7245 19.0262C23.3077 18.8656 22.9838 18.534 22.5843 18.3548L22.8521 16.5638C23.4287 16.6008 24.0755 16.8439 24.6294 17.0118C24.8108 17.0664 26.6281 17.8738 26.6075 17.6194C26.573 17.5875 26.4197 17.5453 26.4067 17.5236C25.8668 16.605 25.7642 16.2054 25.8701 15.0931C26.7684 15.2651 28.9204 16.7965 29.8944 17.2682C29.9203 17.2806 30.0941 17.5391 30.2302 17.4278C29.7648 16.089 28.9032 14.9211 28.3525 13.6213C30.4246 14.8129 31.9082 16.1899 33.7848 17.5236Z" fill="#EC5E24"/>
<path d="M18.4943 14.5801C20.0244 14.7284 21.5587 14.889 23.0888 15.0281C23.8759 15.0991 25.2149 14.9663 25.8724 15.0919C25.7666 16.2042 25.8692 16.6038 26.4091 17.5225C25.4556 16.9344 24.3726 16.5853 23.3242 16.1795C21.684 15.5451 20.344 15.059 18.5958 14.7078C18.5677 14.7016 18.2082 14.5739 18.4954 14.5801H18.4943Z" fill="#F37444"/>
<path d="M22.8531 16.5638L22.5853 18.3548C21.0088 17.6462 18.155 16.8079 16.4489 16.4999C16.423 16.4948 15.9328 16.4124 16.0796 16.3083C18.426 16.5514 20.5974 16.4206 22.8531 16.5638Z" fill="#F37444"/>
<path d="M24.0602 11.6377C25.4477 12.267 26.7499 12.683 28.0845 13.4287C28.1612 13.4719 28.2756 13.576 28.3523 13.6203C28.903 14.919 29.7646 16.0869 30.23 17.4268C30.094 17.538 29.9212 17.2795 29.8942 17.2671C29.6858 16.9685 29.3824 16.7738 29.0898 16.5637C29.2129 16.3969 29.1438 16.4236 29.0563 16.3083C28.6406 15.7583 27.8135 15.2156 27.4129 14.6131L24.0591 11.6387L24.0602 11.6377Z" fill="#F47E3A"/>
<path d="M25.9383 14.5801C25.7785 14.6748 25.501 14.5461 25.3012 14.5162C25.2569 14.51 25.2785 14.6532 25.2343 14.6439C24.4935 14.4894 22.7767 13.5996 22.0154 13.3009C21.8319 13.2288 20.9259 13.2144 20.9756 12.7891C22.4927 13.1979 24.568 13.9024 25.9383 14.5801Z" fill="#FFCD74"/>
<path d="M32.8466 13.8128C32.8995 13.853 32.9816 13.955 33.0475 14.0044C33.0723 14.5193 34.3508 17.5864 34.0873 17.779C33.9966 17.6842 33.8918 17.5987 33.785 17.5236C33.9869 17.3722 33.623 17.1806 33.5172 17.0117C32.4795 15.3556 31.2971 13.7572 30.2983 12.0857C31.1935 12.5759 32.0389 13.2062 32.8466 13.8128Z" fill="#EC5E24"/>
<path d="M33.517 17.0116C33.6228 17.1806 33.9867 17.3711 33.7848 17.5235C31.9081 16.1898 30.4245 14.8128 28.3524 13.6212C28.2757 13.5769 28.1613 13.4719 28.0846 13.4297C27.8406 12.9209 26.9897 12.6717 26.6431 12.3421C26.5211 12.2257 26.5114 12.2298 26.6096 12.0867C29.2421 13.4523 31.3466 15.0559 33.5181 17.0127L33.517 17.0116Z" fill="#FCB969"/>
<path d="M18.2925 19.3784C16.6653 19.2775 15.2076 19.3218 13.5977 19.5061C13.7294 19.2641 14.2995 19.3341 14.5036 19.2507C15.4344 18.8686 16.5217 17.677 17.4212 17.2033C17.5216 17.1497 17.6188 17.0189 17.6889 17.0117C17.9438 17.7862 18.0863 18.5926 18.2925 19.3784Z" fill="#F89A57"/>
<path d="M18.2924 19.3783C18.328 19.5153 18.4943 19.5091 18.4932 19.538L18.3928 19.6337C17.3606 19.8088 16.0832 19.5194 15.106 19.6337C14.9365 19.6533 14.389 19.9005 14.1331 19.954L14.8371 19.5699L12.0869 19.8253C12.399 19.5266 13.1138 19.5606 13.5964 19.505C15.2064 19.3196 16.6641 19.2764 18.2913 19.3773L18.2924 19.3783Z" fill="#FFCD74"/>
<path d="M37.5415 18.5463C37.589 18.6266 37.6689 18.744 37.7424 18.8017C37.7197 18.8666 37.7002 18.9284 37.6754 18.9933C36.8623 18.2888 36.3386 17.3228 35.6638 16.4988C35.8128 16.1003 35.2427 15.6512 35.5299 15.3474C36.1626 16.4226 36.9034 17.4628 37.5415 18.5463Z" fill="#EE963B"/>
<path d="M21.5791 21.4247C21.6007 21.4453 21.632 21.5627 21.713 21.5524C21.6892 21.5915 21.6676 21.6389 21.646 21.6801C21.5273 21.9097 21.5931 21.9571 21.5791 22.0004C21.3102 22.8191 21.2249 23.1992 21.5122 24.0478L21.3113 24.6874C20.9107 24.6863 20.305 25.2785 19.8363 25.1992C20.1376 24.8583 20.2067 24.3774 20.4399 24.0159C20.5015 23.9201 21.7637 22.5761 21.2109 22.5122C21.1386 22.504 20.5663 23.2764 20.1041 23.2795L18.6961 19.8252C18.7069 19.8252 18.6432 19.6419 18.8635 19.6975C19.1658 19.7737 21.2886 21.1548 21.5802 21.4247H21.5791Z" fill="#EC5E24"/>
<path d="M18.6948 19.8265L20.1028 23.2808C19.2887 23.288 17.5308 22.2118 16.6821 22.1294C17.2252 21.7854 18.0135 22.2406 18.6268 22.0974C17.9087 21.978 17.2015 21.7854 16.4802 21.6814C16.478 21.4919 15.3842 21.5629 15.9101 21.2334C16.4359 20.9038 17.452 20.5783 18.0567 20.2096C18.1798 20.1345 18.4324 19.7452 18.5264 19.6978C18.5415 19.6906 18.6225 19.8296 18.6937 19.8255L18.6948 19.8265Z" fill="#F47E3A"/>
<path d="M23.7248 19.1858L22.7854 20.3372C22.5554 20.537 21.8568 21.3105 21.7121 21.5525C21.6311 21.5628 21.5998 21.4444 21.5782 21.4248C21.7424 21.0334 20.4369 19.8315 20.438 19.7296C20.5082 19.6008 20.6205 19.6091 20.7058 19.5699C21.5502 19.5638 22.9085 19.4412 23.7238 19.1858H23.7248Z" fill="#EC5E24"/>
<path d="M16.4813 21.6812C17.2015 21.7842 17.9088 21.9778 18.6279 22.0973C18.0146 22.2405 17.2264 21.7863 16.6832 22.1292C16.3388 22.0952 15.7784 22.2394 15.3421 22.1931C15.4933 22.0211 15.9933 22.2837 15.9123 21.9377L13.3975 21.2981C14.4157 21.4217 15.4685 21.536 16.4824 21.6822L16.4813 21.6812Z" fill="#FCB969"/>
<path d="M25.6707 18.2271C25.1967 18.4959 23.2229 19.9573 22.7866 20.3383L23.726 19.1869C24.416 18.9717 24.971 18.3702 25.6707 18.2271Z" fill="#D34427"/>
<path d="M35.9988 22.7047C35.9772 22.7078 35.9524 22.7006 35.9318 22.7047C35.2084 22.8581 31.3503 25.7274 30.4995 26.3505C29.924 26.7728 29.3171 27.1796 28.8226 27.6935C28.7999 27.6935 28.7783 27.6935 28.7556 27.6935C28.733 27.6935 28.7103 27.6935 28.6887 27.6935L28.4209 24.7192C30.683 23.7294 32.6752 22.1321 34.8262 20.9127C35.5485 20.5028 36.6132 20.2844 37.2071 19.7612L35.9999 22.7037L35.9988 22.7047Z" fill="#6A9940"/>
<path d="M37.6753 19.058C37.5381 19.3835 37.5068 19.4967 37.2056 19.7614C36.6117 20.2846 35.547 20.503 34.8247 20.9129C32.6737 22.1323 30.6815 23.7296 28.4194 24.7194L28.6872 27.6937C28.5306 27.6875 28.4831 27.6432 28.4194 27.6299C27.1723 25.9892 25.7167 24.4567 24.0938 23.1519L26.1389 26.7977C26.1173 26.7936 26.0936 26.8008 26.072 26.7977C25.26 26.2879 24.3367 26.0139 23.4567 25.6463C23.7753 24.4609 23.717 23.2518 22.7192 22.3835C23.9146 22.9109 26.4164 24.0345 27.6484 24.2384C27.8644 24.2744 27.9389 24.2786 28.1516 24.2384C28.8718 24.1025 31.1966 22.2785 32.0075 21.8078C33.2838 21.0663 34.6584 20.4525 35.9649 19.7604C36.1873 19.643 36.887 19.0302 37.0717 18.9931C37.1019 18.9869 37.5425 19.1249 37.6753 19.057V19.058Z" fill="#CAD66C"/>
<path d="M28.4193 27.6298C27.7164 27.4825 26.8148 26.912 26.1389 26.7987L24.0938 23.1528C25.7177 24.4577 27.1722 25.9902 28.4193 27.6308V27.6298Z" fill="#E1E78E"/>
<path d="M22.3168 22.1931C22.3276 22.1973 22.4464 22.291 22.5177 22.3208C22.5501 23.186 22.9723 24.1644 22.8535 25.0398C22.8351 25.1778 22.8459 25.2736 22.6527 25.2633C22.3859 25.1572 22.1624 25.013 21.9821 24.943C21.9713 24.667 21.5848 24.2612 21.5124 24.047C21.2252 23.1983 21.3105 22.8183 21.5794 21.9995C21.8223 22.0417 22.0901 22.1046 22.3168 22.1911V22.1931Z" fill="#AFBE41"/>
<path d="M22.7195 22.3846C23.7172 23.2518 23.7766 24.4609 23.457 25.6473C23.2551 25.5629 23.0575 25.4733 22.8534 25.3919C22.7789 25.362 22.6666 25.2693 22.6526 25.2642C22.8469 25.2745 22.835 25.1787 22.8534 25.0407C22.9722 24.1653 22.55 23.1869 22.5176 22.3218C22.5878 22.3506 22.6828 22.3692 22.7184 22.3856L22.7195 22.3846Z" fill="#CAD66C"/>
<path d="M21.9806 24.9438C21.8564 24.8954 21.3738 24.6884 21.3101 24.6884L21.5109 24.0488C21.5832 24.263 21.9698 24.6678 21.9806 24.9448V24.9438Z" fill="#919C39"/>
<path d="M35.4622 18.9305C35.9751 18.9099 36.4966 18.9747 37.0052 18.9305C37.0084 18.9336 37.084 18.9222 37.0721 18.9943C36.8886 19.0314 36.1878 19.6442 35.9653 19.7616C34.6588 20.4537 33.2842 21.0675 32.0079 21.809C31.196 22.2807 28.8712 24.1036 28.1521 24.2396C27.6176 24.1974 27.2461 23.6 26.8444 23.4085C26.2365 23.117 24.9429 22.9151 24.2292 22.705C23.5921 22.5166 22.995 22.1499 22.318 22.1932C22.0912 22.1056 21.8224 22.0428 21.5805 22.0016C21.5945 21.9584 21.5287 21.912 21.6475 21.6813C22.1247 21.774 21.9304 22.0171 22.4519 22.0016C24.4203 21.9398 26.554 19.811 27.9847 18.675C30.3807 18.8584 32.8178 19.1241 35.2278 19.0592C35.2516 19.0592 35.4492 18.9315 35.4622 18.9315V18.9305Z" fill="#E1E78E"/>
<path d="M37.0049 18.9303C36.4974 18.9746 35.9759 18.9097 35.4619 18.9303C34.2299 18.8551 32.7268 18.2866 31.538 18.2269C29.9604 18.1476 25.8616 18.7171 24.6295 19.6986C24.4071 19.8757 23.8748 20.6585 23.5897 20.9458C23.2409 21.298 22.7464 21.5843 22.4495 22.0015C21.9279 22.0179 22.1223 21.7749 21.645 21.6812C21.6666 21.64 21.6882 21.5926 21.712 21.5534C21.8556 21.3114 22.5553 20.538 22.7853 20.3382C23.2215 19.9581 25.1953 18.4957 25.6694 18.2269C27.2782 17.3154 34.7957 17.6131 36.5006 18.4184C36.6378 18.4833 36.8872 18.8077 37.0038 18.9303H37.0049Z" fill="#AFBE41"/>
<path d="M28.1519 24.2394C27.9392 24.2795 27.8658 24.2754 27.6487 24.2394C26.4167 24.0355 23.9149 22.9118 22.7195 22.3845C22.6828 22.3681 22.5889 22.3495 22.5187 22.3207C22.4485 22.2918 22.3287 22.1971 22.3179 22.193C22.9949 22.1497 23.5931 22.5164 24.2291 22.7048C24.9428 22.916 26.2364 23.1168 26.8443 23.4082C27.246 23.6008 27.6174 24.1982 28.1519 24.2394Z" fill="#E1E78E"/>
<path d="M35.4619 18.9303C35.4479 18.9303 35.2503 19.058 35.2276 19.058C32.8175 19.1229 30.3794 18.8572 27.9845 18.6738C26.5537 19.8098 24.4201 21.9386 22.4517 22.0004C22.7486 21.5833 23.2431 21.297 23.5919 20.9448C23.877 20.6574 24.4093 19.8747 24.6317 19.6976C25.8627 18.7161 29.9626 18.1465 31.5402 18.2258C32.729 18.2856 34.2321 18.8541 35.4641 18.9293L35.4619 18.9303Z" fill="#CAD66C"/>
<defs>
<linearGradient id="paint0_linear_366_138190" x1="42.0356" y1="35.3872" x2="25.6757" y2="35.7789" gradientUnits="userSpaceOnUse">
<stop stop-color="#292537"/>
<stop offset="1" stop-color="#39222D"/>
</linearGradient>
</defs>
</svg>
