<svg width="100" height="100" viewBox="0 0 100 100" fill="none" xmlns="http://www.w3.org/2000/svg">
<g clip-path="url(#clip0_380_344832)">
<path d="M64.7399 9.40002C66.1199 9.59002 66.7499 9.92002 68.6299 9.94002C72.4799 9.98002 76.4299 9.32002 80.2899 9.40002C79.8999 10.93 75.0399 15.62 75.4099 16.72C75.5699 17.19 82.7199 21.49 83.5499 22.42C82.3099 23.23 79.2199 23.02 77.7599 23.69C76.3199 22.39 74.7799 20.87 73.2399 19.71C73.2899 19.12 75.0899 16.81 75.0499 16.55C74.9599 15.99 66.7699 10.94 65.7399 10.31L64.7499 14.83C62.2899 13.84 56.8199 12.22 54.2599 11.94C54.4999 11.02 54.0199 9.45002 54.0799 8.69002C57.6899 8.48002 61.2199 8.91002 64.7499 9.41002L64.7399 9.40002Z" fill="#F69686"/>
<path d="M88.9697 32.36C91.5797 31.67 94.2997 30.41 96.9297 29.65C96.9997 32.61 92.4897 41.05 93.1297 43.57C92.9597 43.59 92.7997 43.77 92.7697 43.93C92.6297 42.87 88.4897 43.57 88.3397 43.75C87.8697 44.31 88.8797 45.65 88.0697 45.92C87.4497 39.44 84.9697 33.1 81.1997 27.84C82.3497 27.84 83.7697 31.56 84.0897 31.73C84.2197 31.8 84.8697 31.49 85.0797 31.64C85.1397 31.68 85.8797 32.86 85.9797 32.91C86.6397 33.18 88.2997 32.54 88.9597 32.37L88.9697 32.36Z" fill="#F26830"/>
<path d="M11.7599 55.6899C12.6599 62.7299 16.7199 70.9399 21.5199 76.1199C20.0999 77.2199 17.8799 77.1599 16.2799 78.1099C16.1899 77.9899 15.7299 77.9699 15.7399 77.7499C16.0999 77.6499 15.4599 76.2199 15.3799 76.0299C14.1599 73.1399 12.6899 70.2999 11.3999 67.4399C9.95988 64.2499 8.64988 60.7999 6.87988 57.8599C7.01988 57.5699 7.03988 57.1699 7.05988 57.1399C7.45988 56.6699 10.9399 55.8299 11.7599 55.6899Z" fill="#D2B79F"/>
<path d="M21.3396 17C20.5896 18.21 15.5796 25.42 15.5496 25.95C15.5296 26.35 17.8596 28.14 18.4396 28.21C18.3196 28.39 18.1996 28.57 18.0796 28.75L15.2796 26.4L14.9196 26.58C13.1596 29.17 11.5896 31.94 9.58961 34.35L7.59961 20.34C7.65961 19.76 8.10961 20.08 8.13961 20.07L11.8496 23.14C11.2196 21.64 13.5596 20.29 11.5796 19.16C14.7996 18.34 18.0796 17.57 21.3396 16.99V17Z" fill="#D2B79F"/>
<path d="M92.7696 43.9399C92.1496 47.4099 92.1696 51.17 91.8696 54.61C91.6196 57.39 91.1896 60.22 90.9696 63.02C90.9196 63.63 90.7596 64.5899 91.1496 65.0999C90.8996 65.3599 90.6996 65.76 90.4296 66C89.3596 65.7 88.5996 65.87 87.5396 66C86.6296 66.11 85.7096 66.3 84.8296 66.54C87.7196 59.97 88.7696 53.11 88.0796 45.93C88.8896 45.66 87.8796 44.3199 88.3496 43.7599C88.4996 43.5799 92.6396 42.8799 92.7796 43.9399H92.7696Z" fill="#F26830"/>
<path d="M29.1196 4.33997C29.7596 5.09997 31.8696 11.24 32.2796 11.39C32.5696 11.49 34.6396 10.09 35.2596 10.4C35.4296 10.74 32.4496 11.64 32.3696 11.85C32.2996 12.04 33.6996 15.05 33.8196 15.56C32.0696 16.34 30.1796 17.24 28.5796 18.27L21.8896 16.46C23.0396 14.57 28.1096 4.91997 29.1196 4.34997V4.33997Z" fill="#D2B79F"/>
<path d="M42.3199 7.40997L41.2399 12.83C38.9099 13.36 36.0299 14.56 33.8299 15.54C33.7099 15.04 32.3099 12.02 32.3799 11.83C32.4599 11.62 35.4399 10.72 35.2699 10.38C34.6399 10.07 32.5799 11.48 32.2899 11.37C31.8799 11.22 29.7699 5.07998 29.1299 4.31998C29.1599 4.30998 29.3099 3.84998 29.5799 3.95998L42.3299 7.39998L42.3199 7.40997Z" fill="#F69686"/>
<path d="M84.6298 74.85C84.6298 74.85 84.7898 75.13 84.8098 75.21L84.2698 75.12L78.8498 82.89L80.2998 83.16C79.7598 83.34 79.1598 83.47 78.5798 83.52C78.2998 83.72 77.9798 83.99 77.7698 84.24C76.5298 84.25 78.4198 83.88 77.3198 83.52C75.7598 83.01 73.0098 83.24 71.3498 82.98C71.0898 82.94 70.6198 82.8 70.7198 82.44C71.3798 82.04 71.9098 81.6 72.5298 81.17C76.5498 78.38 78.8298 76.2 81.5698 72.13C81.5798 72.11 81.7798 72 81.9298 71.77C82.8998 72.74 83.6798 73.86 84.6398 74.84L84.6298 74.85Z" fill="#F26830"/>
<path d="M55.6996 0.54C55.5896 3.03 54.2596 6.37 54.0696 8.68C54.0096 9.44 54.4896 11.01 54.2496 11.93C54.1296 11.92 54.0096 11.94 53.8896 11.93L53.7996 8.86C52.6596 8.69 52.8796 9.52 51.6296 9.4C50.2096 9.26 50.9596 8.65 50.5496 8.5C48.7796 7.84 44.8196 8.15 42.8696 7.23C46.2796 5.91 50.8696 1.77 54.3496 0.36C54.6496 0.24 54.9396 0.09 55.2496 0C55.4196 0.07 55.6596 0.51 55.6996 0.54Z" fill="#D2B79F"/>
<path d="M45.9298 91.8501C49.5898 92.3401 53.5398 92.3601 57.1398 93.1201C56.2398 94.5501 46.4398 98.5001 44.5698 99.9901C44.1798 100.08 44.0398 99.7801 43.7598 99.6301V99.4501C44.8098 98.5301 44.6198 95.6701 45.0298 94.1201C45.2398 93.3101 45.8398 92.1901 45.9298 91.8601V91.8501Z" fill="#F69686"/>
<path d="M15.7398 77.75L3.25977 70.34L11.3998 67.45C12.6898 70.31 14.1598 73.15 15.3798 76.04C15.4598 76.23 16.0998 77.66 15.7398 77.76V77.75Z" fill="#D2B79F"/>
<path d="M99.9999 56.2299L91.8599 54.5999C92.1699 51.1599 92.1399 47.3999 92.7599 43.9299C92.7899 43.7599 92.9499 43.5799 93.1199 43.5699C93.5799 45.3799 97.2899 50.3799 98.3599 52.5199C98.9599 53.7199 99.5799 54.9499 99.9899 56.2299H99.9999Z" fill="#FCBD7C"/>
<path d="M90.4196 65.99L91.6897 80.09L84.8196 75.21C84.7996 75.13 84.6596 74.87 84.6396 74.85C85.0296 73.69 89.8496 67.67 89.8796 67.17C89.8896 66.97 89.9397 66.68 89.7896 66.54C89.4397 66.3 87.3696 67.06 87.5296 66C88.5896 65.87 89.3496 65.7 90.4196 66V65.99Z" fill="#F69686"/>
<path d="M7.0598 45.5601C7.43981 45.6101 7.67981 45.7201 8.13981 45.7401C9.06981 45.7801 10.7898 45.61 11.7598 45.2C11.7098 45.66 11.6098 46.2001 11.5798 46.6501C10.2698 46.8801 9.38981 46.48 8.13981 46.38L6.8698 56.6C6.0998 55.36 -0.240195 44.6 -0.000194966 44.03C0.209805 43.54 7.04981 45.57 7.04981 45.57L7.0598 45.5601Z" fill="#D2B79F"/>
<path d="M33.28 90.3999C29.08 90.0799 24.09 91.2199 19.81 90.9399L19.54 90.5799C21.59 88.6899 22.91 85.8799 25.15 84.2499C25.63 84.2199 32.88 89.1299 33.2 89.4899C33.64 89.9899 33.35 89.8599 33.29 90.3899L33.28 90.3999Z" fill="#D2B79F"/>
<path d="M46.6598 88.23C46.8298 89.74 46.3398 90.51 45.9398 91.85C45.8398 92.18 45.2498 93.3 45.0398 94.11C44.6398 95.66 44.8198 98.52 43.7698 99.44L35.0898 90.94L45.4898 91.3C45.6198 91.24 46.0198 88.62 45.9398 88.5C45.8298 88.32 44.5398 88.5 44.3098 88.05C45.0698 88.16 45.8998 88.17 46.6598 88.23Z" fill="#F69686"/>
<path d="M11.3999 67.44L3.25987 70.33C3.10987 69.7 6.38987 58.88 6.87987 57.85C8.64987 60.79 9.95987 64.24 11.3999 67.43V67.44Z" fill="#F69686"/>
<path d="M83.7297 22.24C83.5197 22.21 83.5597 22.41 83.5497 22.42C82.7197 21.49 75.5697 17.2 75.4097 16.72C75.0397 15.62 79.9097 10.93 80.2897 9.40002C81.0297 9.67002 82.9597 20.55 83.7297 22.24Z" fill="#F26830"/>
<path d="M96.9297 29.6499C94.3097 30.4099 91.5897 31.6799 88.9697 32.3599C88.1397 31.9699 87.7297 30.6099 87.3397 29.8299C86.2897 27.7299 85.1197 25.5899 84.4497 23.3199L96.9297 29.6499Z" fill="#D2B79F"/>
<path d="M84.8098 75.2101L91.6798 80.0901C87.9798 81.4401 84.0198 81.9401 80.2898 83.1601L78.8398 82.8901L84.2598 75.1201L84.7999 75.2101H84.8098Z" fill="#F26830"/>
<path d="M99.9999 56.23C97.2399 59.36 94.0099 62.07 91.1399 65.09C90.7499 64.58 90.9099 63.62 90.9599 63.01C91.1799 60.22 91.6099 57.38 91.8599 54.6L99.9999 56.23Z" fill="#F26830"/>
<path d="M24.96 83.8899C24.96 84.0699 25.16 84.0899 25.14 84.2499C22.9 85.8799 21.59 88.6899 19.53 90.5799C18.16 87.1399 17.92 81.8899 16.46 78.6499L24.96 83.8899Z" fill="#D2B79F"/>
<path d="M8.13981 45.74C7.66981 45.72 7.43981 45.61 7.05981 45.56C4.82981 45.29 2.23981 44.5 0.00980641 44.02C-0.160194 43.58 5.98981 38.15 6.69981 37.42L9.04981 37.69L8.14981 45.74H8.13981Z" fill="#F69686"/>
<path d="M18.0898 28.75C16.1198 31.71 14.6898 34.59 13.5698 37.97C12.7698 37.24 10.4398 35.3 9.49977 35.44C9.43977 35.44 9.05977 36.61 8.50977 35.62C8.91977 35.17 9.20977 34.82 9.58977 34.35C11.5898 31.93 13.1698 29.17 14.9198 26.58L15.2798 26.4L18.0798 28.75H18.0898Z" fill="#D2B79F"/>
<path d="M64.7398 9.40004C61.2098 8.90004 57.6798 8.47004 54.0698 8.68004C54.2598 6.37004 55.5798 3.04004 55.6998 0.540039C58.5598 2.43004 61.9498 7.11004 64.7398 9.40004Z" fill="#F26830"/>
<path d="M23.6897 22.0599C21.7897 23.7999 19.9197 26.0799 18.4497 28.2099C17.8597 28.1399 15.5397 26.3499 15.5597 25.9499C15.5797 25.4199 20.5997 18.2099 21.3497 16.9999C21.3497 16.9899 21.3997 17.0299 21.5297 16.8199L23.6997 22.0599H23.6897Z" fill="#F69686"/>
<path d="M13.5699 37.9701C12.8199 40.2601 12.0399 42.8101 11.7599 45.2001C10.7899 45.6101 9.07994 45.7901 8.13994 45.7401L9.03994 37.69L6.68994 37.42C7.26994 36.82 7.94994 36.21 8.49994 35.61C9.05994 36.6 9.42994 35.44 9.48994 35.43C10.4299 35.29 12.7599 37.23 13.5599 37.96L13.5699 37.9701Z" fill="#F69686"/>
<path d="M11.5799 46.65C11.3699 49.45 11.4099 52.92 11.7599 55.69C10.9399 55.83 7.45988 56.67 7.05988 57.14C6.89988 56.98 6.90988 56.64 6.87988 56.6L8.14988 46.38C9.39988 46.48 10.2699 46.89 11.5899 46.65H11.5799Z" fill="#F69686"/>
<path d="M24.5998 79.0101C24.0598 79.4901 24.2898 79.1301 24.5998 79.4601C24.9298 79.8101 26.5698 80.9601 26.5898 81.0901C26.6198 81.2701 24.9598 83.4001 24.9598 83.8901L16.4598 78.6501C16.4098 78.5401 16.4298 78.3201 16.2798 78.1101C17.8798 77.1601 20.1098 77.2201 21.5198 76.1201C22.3698 77.0401 23.6298 78.1901 24.5898 79.0101H24.5998Z" fill="#F69686"/>
<path d="M53.89 11.93C51.37 11.68 48.29 11.85 45.75 12.11L42.68 7.40998C42.65 7.21998 42.77 7.25998 42.86 7.22998C44.82 8.14998 48.77 7.82998 50.54 8.49998C50.95 8.64998 50.2 9.26998 51.62 9.39998C52.87 9.51998 52.65 8.68998 53.79 8.85998L53.88 11.93H53.89Z" fill="#D2B79F"/>
<path d="M28.5798 18.26C27.1498 19.18 24.9598 20.9 23.6998 22.06L21.5298 16.82C21.6698 16.58 21.7498 16.69 21.8898 16.46L28.5798 18.27V18.26Z" fill="#DABFA7"/>
<path d="M84.0898 22.96C83.7598 23.77 82.7498 26.4 82.8198 27.12C81.7998 27.28 80.9798 26.86 80.1098 26.22C79.0998 25.47 78.6198 24.46 77.7598 23.69C79.2198 23.03 82.3098 23.24 83.5498 22.42C83.5598 22.42 83.5198 22.21 83.7298 22.24C83.8398 22.48 83.8498 22.71 84.0898 22.96Z" fill="#D2B79F"/>
<path d="M84.4499 23.32C85.1199 25.59 86.2899 27.73 87.3399 29.83C86.1799 30.53 82.9599 28.41 82.8199 27.12C82.7399 26.4 83.7599 23.77 84.0899 22.96C84.1399 23.02 84.4799 23.1 84.4499 23.32Z" fill="#D2B79F"/>
<path d="M42.68 7.41003L45.75 12.11C44.48 12.24 42.47 12.55 41.23 12.83L42.31 7.41003H42.67H42.68Z" fill="#D2B79F"/>
<path d="M11.5796 19.17C13.5696 20.3 11.2196 21.65 11.8496 23.15L8.13965 20.08C9.14965 19.61 10.4696 19.46 11.5796 19.18V19.17Z" fill="#F69686"/>
<path d="M60.9397 86.97C60.7297 87.68 59.3597 87.5 59.0397 87.69C57.8297 88.43 57.8597 91.97 57.1397 93.11C53.5397 92.35 49.5897 92.34 45.9297 91.84C46.3397 90.5 46.8197 89.73 46.6497 88.22C51.6497 88.65 56.1197 88.36 60.9297 86.95L60.9397 86.97Z" fill="#F26830"/>
<path d="M77.7599 84.25C75.5899 86.79 72.7999 94.38 70.3499 96.45C69.3999 97.26 69.0299 96.6 67.9999 96.36C64.4299 95.52 60.6399 93.84 57.1499 93.11C57.8699 91.96 57.8399 88.42 59.0499 87.69C59.3599 87.5 60.7399 87.67 60.9499 86.97C64.3099 85.99 67.7399 84.27 70.7099 82.45C70.6099 82.81 71.0899 82.95 71.3399 82.99C72.9999 83.25 75.7399 83.02 77.3099 83.53C78.4099 83.89 76.5199 84.26 77.7599 84.25Z" fill="#F69686"/>
<path d="M76.3999 84.4298H76.5799C76.9399 84.3998 76.9399 84.6398 76.5799 84.6098L76.3999 84.4298Z" fill="#F26830"/>
<path d="M75.1401 84.9799H75.3201C75.6801 84.9499 75.6801 85.1899 75.3201 85.1599L75.1401 84.9799Z" fill="#F26830"/>
<path d="M74.23 85.34H74.41C74.77 85.31 74.77 85.55 74.41 85.52L74.23 85.34Z" fill="#F26830"/>
<path d="M72.9697 85.88H73.1497C73.5097 85.85 73.5097 86.09 73.1497 86.06L72.9697 85.88Z" fill="#F26830"/>
<path d="M73.2397 19.7101C73.0697 19.5801 72.8797 19.4801 72.6997 19.3501L73.3298 18.2701L71.9697 18.8101C69.9997 17.4701 66.9297 15.7201 64.7397 14.8301L65.7298 10.3101C66.7598 10.9301 74.9497 15.9901 75.0397 16.5501C75.0797 16.8201 73.2798 19.1201 73.2298 19.7101H73.2397Z" fill="#D2B79F"/>
<path d="M82.8199 27.12C82.9599 28.41 86.1799 30.53 87.3399 29.83C87.7299 30.61 88.1399 31.97 88.9699 32.36C88.2999 32.53 86.6399 33.17 85.9899 32.9C85.8799 32.86 85.1499 31.6799 85.0899 31.6299C84.8799 31.4799 84.2299 31.7899 84.0999 31.7199C83.7699 31.5499 82.3599 27.83 81.2099 27.83C80.8499 27.33 80.2999 26.8 80.1299 26.2C80.9999 26.84 81.8299 27.26 82.8399 27.1L82.8199 27.12Z" fill="#F69686"/>
<path d="M87.5199 65.99C87.3699 67.06 89.4299 66.3 89.7799 66.53C89.9299 66.68 89.8899 66.96 89.8699 67.16C89.8299 67.66 85.0199 73.69 84.6299 74.84C83.6699 73.85 82.8899 72.74 81.9199 71.77C82.8799 70.29 84.1099 68.13 84.8099 66.53C85.6999 66.29 86.6099 66.1 87.5199 65.99Z" fill="#F26830"/>
<path d="M44.3098 88.05C44.5298 88.5 45.8198 88.33 45.9398 88.5C46.0198 88.62 45.6198 91.24 45.4898 91.3L35.0898 90.94C34.2498 90.41 34.2398 90.47 33.2798 90.4C33.3398 89.86 33.6298 90 33.1898 89.5C32.8698 89.14 25.6198 84.23 25.1398 84.26C25.1498 84.1 24.9598 84.07 24.9598 83.9C24.9598 83.41 26.6198 81.28 26.5898 81.1C26.5698 80.97 24.9298 79.82 24.5998 79.47C24.2898 79.14 24.0598 79.5 24.5998 79.02C29.8898 83.54 37.3798 87.06 44.3098 88.06V88.05Z" fill="#F26830"/>
<path d="M33.5498 85.1599C34.9998 84.9599 35.7898 87.1299 34.9998 87.6899C33.3598 88.8499 33.0998 85.3199 33.5498 85.1599Z" fill="#F26830"/>
<path d="M72.7 19.35C72.46 19.18 72.22 18.97 71.98 18.81L73.34 18.27L72.71 19.35H72.7Z" fill="#D2B79F"/>
<path d="M88.0696 45.9199C87.4496 39.4399 84.9696 33.0999 81.1996 27.8399C80.8396 27.3399 80.2896 26.8099 80.1196 26.2099C79.1096 25.4599 78.6296 24.4499 77.7696 23.6799C76.3296 22.3799 74.7896 20.8599 73.2496 19.6999C73.0796 19.5699 72.8896 19.4699 72.7096 19.3399C72.4696 19.1699 72.2296 18.9599 71.9896 18.7999C70.0196 17.4599 66.9496 15.7099 64.7596 14.8199C62.2996 13.8299 56.8296 12.2099 54.2696 11.9299C54.1496 11.9199 54.0296 11.9399 53.9096 11.9299C51.3896 11.6799 48.3096 11.8499 45.7696 12.1099C44.4996 12.2399 42.4896 12.5499 41.2496 12.8299C38.9196 13.3599 36.0396 14.5599 33.8396 15.5399C32.0896 16.3199 30.1996 17.2199 28.5996 18.2499C27.1696 19.1699 24.9796 20.8899 23.7196 22.0499C21.8196 23.7899 19.9496 26.0699 18.4796 28.1999C18.3596 28.3799 18.2396 28.5599 18.1196 28.7399C16.1496 31.6999 14.7196 34.5799 13.5996 37.9599C12.8496 40.2499 12.0696 42.7999 11.7896 45.1899C11.7396 45.6499 11.6396 46.1899 11.6096 46.6399C11.3996 49.4399 11.4396 52.9099 11.7896 55.6799C12.6896 62.7199 16.7496 70.9299 21.5496 76.1099C22.3996 77.0299 23.6596 78.1799 24.6196 78.9999C29.9096 83.5199 37.3996 87.0399 44.3296 88.0399C45.0896 88.1499 45.9196 88.16 46.6796 88.2199C51.6796 88.6499 56.1496 88.3599 60.9596 86.9499C64.3196 85.9699 67.7496 84.2499 70.7196 82.4299C71.3796 82.0299 71.9096 81.59 72.5296 81.16C76.5496 78.3699 78.8296 76.1899 81.5696 72.1199C81.5796 72.0999 81.7796 71.9899 81.9296 71.7599C82.8896 70.2799 84.1196 68.1199 84.8196 66.5199C87.7096 59.9499 88.7596 53.0899 88.0696 45.9099V45.9199Z" fill="#D2B79F"/>
<path d="M86.31 45.97C85.73 39.89 83.4 33.94 79.86 29C79.52 28.53 79.01 28.03 78.84 27.47C77.89 26.77 77.44 25.82 76.63 25.09C75.28 23.87 73.84 22.44 72.39 21.36C72.23 21.24 72.05 21.14 71.88 21.02C71.65 20.86 71.43 20.66 71.2 20.51C69.35 19.25 66.47 17.61 64.41 16.78C62.1 15.85 56.97 14.33 54.57 14.07C54.46 14.06 54.34 14.08 54.23 14.07C51.86 13.84 48.98 14 46.59 14.24C45.4 14.36 43.51 14.66 42.35 14.92C40.16 15.41 37.46 16.54 35.39 17.47C33.75 18.2 31.97 19.04 30.47 20.02C29.13 20.88 27.07 22.5 25.89 23.58C24.1 25.22 22.35 27.35 20.97 29.35C20.86 29.52 20.74 29.69 20.63 29.86C18.79 32.64 17.44 35.34 16.39 38.51C15.68 40.66 14.95 43.05 14.69 45.3C14.64 45.74 14.55 46.24 14.52 46.66C14.32 49.29 14.36 52.54 14.69 55.14C15.53 61.75 19.35 69.45 23.85 74.31C24.65 75.17 25.83 76.25 26.73 77.02C31.7 81.26 38.72 84.56 45.23 85.5C45.94 85.6 46.72 85.61 47.44 85.67C52.13 86.07 56.32 85.8 60.84 84.48C63.99 83.56 67.22 81.94 70 80.24C70.62 79.86 71.12 79.45 71.7 79.05C75.48 76.44 77.61 74.39 80.18 70.57C80.19 70.55 80.38 70.45 80.52 70.23C81.42 68.84 82.57 66.81 83.23 65.31C85.94 59.14 86.92 52.71 86.28 45.97H86.31Z" fill="#602B00"/>
<path d="M59.3596 54.31C60.2496 52.3 60.5596 51.24 61.0396 49.12C61.1596 48.6 61.2296 48.1 61.3196 47.58C62.1096 42.72 62.0196 40.14 58.7896 36.15C55.7696 32.41 49.1596 29.2 44.3396 30.61C41.0796 30.31 37.3896 32.9 35.6396 35.59C35.0996 36.42 34.8996 37.24 34.5196 38.04C33.7196 39.71 32.9696 41.08 32.5596 42.95C32.4996 42.33 31.6896 41.11 31.9996 40.21C31.2996 42.02 31.6296 44.02 31.9996 45.89C32.0596 46.21 32.1896 46.55 32.2796 46.87C31.5596 50.46 35.0296 55.66 38.1696 57.25C37.9496 57.58 38.0096 57.55 38.2396 57.81C39.5496 59.26 42.0396 60.15 43.9896 59.91C43.6996 60.66 42.7596 60 42.6596 60.75C28.2296 57.63 25.8296 37.85 38.9396 31.29C53.6896 23.92 69.1196 40.8 59.3496 54.3L59.3596 54.31Z" fill="#F79455"/>
<path d="M43.6497 58.23C44.4697 58.28 45.5797 58.54 46.3197 58.51C47.0597 58.48 47.9597 58.34 48.6997 58.23L48.7697 58.65L45.5397 59.77C48.1697 59.28 51.0297 59.22 53.2597 57.53L52.6297 58.51C51.7497 59.14 50.6897 59.83 49.9597 60.61C47.4197 61.22 45.2297 61.31 42.6697 60.75C42.7797 60 43.7197 60.66 43.9997 59.91C42.0497 60.15 39.5497 59.25 38.2497 57.81C38.0197 57.55 37.9597 57.58 38.1797 57.25C40.2697 58.31 41.5297 58.1 43.6497 58.23Z" fill="#CFB59F"/>
<path d="M64.9797 64.55C65.8097 65.61 66.7797 66.59 67.6497 67.64C67.2997 67.96 67.0697 68.1 66.6697 68.34L62.8797 65.25C61.4897 63.7 59.8197 62.18 57.9697 61.18C58.2397 60.76 58.5697 60.33 59.0897 60.2C59.2397 60.16 59.5197 60.05 59.5797 60.06C60.4697 60.25 63.6397 64.23 64.9797 64.55Z" fill="#BE9F89"/>
<path d="M61.7494 58.51C62.8694 59.29 65.1094 62 66.2394 63.14C66.2394 64.38 67.5894 65.97 68.4794 66.79C68.2294 67.15 67.9494 67.35 67.6394 67.63C66.7794 66.59 65.8094 65.61 64.9694 64.54C64.4394 63.86 60.7694 59.35 60.7594 59C60.7494 58.59 61.2094 58.14 61.7394 58.51H61.7494Z" fill="#CD2427"/>
<path d="M61.0498 49.11C60.5698 51.23 60.2598 52.29 59.3698 54.3C59.1898 54.7 58.5298 55.42 58.5298 55.49C58.5298 55.64 60.4598 57.27 60.6298 57.66C59.8698 58.54 60.0498 58.92 58.8098 59.76C60.4598 58.51 58.2598 57.64 57.5498 56.53C57.6798 56.37 58.3998 55.38 57.8298 55.55C58.1298 54.88 58.3498 54.19 58.3898 53.45C59.0398 52.56 60.5198 50.13 60.6298 49.1H61.0498V49.11Z" fill="#F15540"/>
<path d="M68.8995 66.23C69.1895 65.31 66.9795 63.89 66.2295 63.14C65.0995 62 62.8595 59.29 61.7395 58.51L61.4595 57.39C61.5095 57.32 61.5795 57.2 61.5995 57.11C62.4795 58.14 69.5095 64.48 69.5995 65.04C69.6295 65.25 69.0995 66.05 68.8995 66.23Z" fill="#F69585"/>
<path d="M57.9596 61.18C59.8096 62.18 61.4796 63.69 62.8696 65.25C63.5996 66.06 64.2597 67.28 64.9697 68.13C65.2297 68.44 65.4596 68.88 65.9496 68.76C65.6596 68.88 65.3597 69.31 64.8997 69.18C64.1597 67.89 57.5796 62.1 57.3896 61.39C57.3896 61.37 57.5096 61.31 57.5296 61.04C57.7096 61 57.8096 61.11 57.9496 61.18H57.9596Z" fill="#F79455"/>
<path d="M56.2797 55.85L55.8597 57.81C55.7197 57.91 55.5797 57.99 55.4397 58.09C53.6697 59.27 52.0497 60.12 49.9697 60.61C50.6997 59.82 51.7597 59.14 52.6397 58.51C53.8097 57.67 55.2397 56.82 56.2897 55.84L56.2797 55.85Z" fill="#F69585"/>
<path d="M58.6595 59.78C58.6595 59.78 58.5295 60.47 57.8195 60.34C57.4295 60.27 55.9795 58.35 55.4395 58.1C55.5795 58 55.7195 57.92 55.8595 57.82C56.0995 57.65 56.4195 57.5 56.6995 57.26L58.6595 59.78Z" fill="#F79455"/>
<path d="M68.8998 66.23C68.8398 66.42 68.5998 66.62 68.4798 66.79C67.5898 65.97 66.2298 64.39 66.2398 63.14C66.9798 63.89 69.1898 65.3 68.9098 66.23H68.8998Z" fill="#F15540"/>
<path d="M66.6594 68.33C66.3894 68.5 66.3894 68.57 65.9594 68.75C65.4694 68.87 65.2394 68.43 64.9794 68.12C64.2694 67.27 63.5994 66.06 62.8794 65.24L66.6694 68.33H66.6594Z" fill="#CFB59F"/>
<path d="M61.6098 57.11C61.5898 57.2 61.5198 57.32 61.4698 57.39C60.7598 58.41 59.9098 59.28 59.0898 60.2C58.5598 60.33 58.2398 60.76 57.9698 61.18C57.8298 61.11 57.7298 61 57.5498 61.04C57.5798 60.66 57.5998 60.63 57.8298 60.34C58.5498 60.47 58.6198 59.81 58.6698 59.78C58.6998 59.76 58.7798 59.8 58.8098 59.78C60.0498 58.93 59.8798 58.56 60.6298 57.68C60.8498 57.43 61.1998 56.95 61.6098 57.12V57.11Z" fill="#FFD571"/>
<path d="M61.3298 47.57C61.3698 46.03 61.0598 44.83 60.7698 43.36C60.4098 41.57 60.0998 41 59.5098 39.36C59.3698 38.98 59.8098 38.98 59.7898 38.94C59.6598 38.6 59.4198 38.92 59.3698 38.8C59.2998 38.65 59.5198 38.53 59.5098 38.52C56.7398 33.64 49.3598 29.89 43.7998 30.88C43.8598 30.75 44.2198 30.64 44.3598 30.6C49.1798 29.19 55.7898 32.4 58.8098 36.14C62.0398 40.14 62.1298 42.71 61.3398 47.57H61.3298Z" fill="#E94139"/>
<path d="M33.9697 50.66C34.8997 52.24 35.8197 53.63 37.1997 54.87C39.0297 56.52 41.2497 57.67 43.6497 58.24C41.5197 58.11 40.2697 58.32 38.1797 57.26C35.0397 55.67 31.5697 50.47 32.2897 46.88C32.7997 48.72 33.0197 49.05 33.9697 50.67V50.66Z" fill="#F69585"/>
<path d="M44.3498 30.5999C44.2098 30.6399 43.8498 30.7499 43.7898 30.8799C42.5598 31.0999 38.4198 34.1399 37.3398 35.0899C36.3298 35.9699 35.4998 37.1099 34.5298 38.0399C34.9098 37.2399 35.1198 36.4099 35.6498 35.5899C37.3898 32.8999 41.0898 30.3099 44.3498 30.6099V30.5999Z" fill="#CFB59F"/>
<path d="M60.7694 43.36C61.0594 44.83 61.3694 46.02 61.3294 47.57C61.2394 48.1 61.1694 48.59 61.0494 49.11H60.6294C60.7194 48.31 60.1094 46.67 59.7894 45.88C59.7894 45.7 59.7894 45.5 59.7894 45.32C59.7894 43.74 59.2894 41.74 58.6694 40.27C59.8194 40.85 59.8794 42.57 60.7694 43.36Z" fill="#F69585"/>
<path d="M38.0398 34.95C36.3998 36.34 35.1598 37.91 34.2498 39.86C33.5598 41.34 33.1598 42.42 32.9898 44.07L32.5698 43.79C32.5798 43.49 32.5998 43.26 32.5698 42.95C32.9798 41.08 33.7298 39.71 34.5298 38.04C35.4898 37.11 36.3298 35.97 37.3398 35.09C37.3698 35.34 37.9398 35 38.0398 34.95Z" fill="#F15540"/>
<path d="M32.9898 44.07C32.7498 46.37 33.0498 48.54 33.9698 50.66C33.0198 49.04 32.7898 48.71 32.2898 46.87C32.1998 46.55 32.0698 46.21 32.0098 45.89C32.2998 45.36 32.5498 44.36 32.5698 43.79L32.9898 44.07Z" fill="#E94139"/>
<path d="M32.5695 42.9399C32.5995 43.2499 32.5795 43.4799 32.5695 43.7799C32.5495 44.3499 32.2995 45.36 32.0095 45.88C31.6395 44 31.3095 42.01 32.0095 40.2C31.6995 41.09 32.5095 42.3199 32.5695 42.9399Z" fill="#F69585"/>
<path d="M45.6197 32.28C46.2297 33.2 50.7997 35.01 51.4397 34.24C51.6097 34.03 51.5097 33.61 51.3697 33.4C53.0697 34.06 53.6097 34.32 55.0197 35.5L53.8997 36.55C55.0297 37.72 55.7997 38.96 56.4297 40.41L55.4497 41.25C54.8197 39.91 53.8897 38.65 52.8497 37.6C52.4997 37.94 50.8897 38.83 51.1697 39.28C53.7097 39.17 52.6697 39.82 53.0597 41.03C53.2097 41.49 53.6697 41.92 53.8997 42.5L53.4097 43.2C53.0897 42.99 52.8197 41.94 52.4297 41.94C52.2497 41.94 49.9797 43.9 49.5497 44.11C50.1997 43.84 53.6397 44.28 53.8297 44.18C53.9597 44.11 53.0697 42.99 54.1797 43.2C54.3397 43.62 54.6397 43.85 54.7397 44.46C54.5897 44.49 54.4097 44.44 54.2497 44.46C53.9997 44.65 54.6397 46.23 54.8097 46.14C54.7897 45.6 54.8297 44.98 54.7397 44.46C55.3597 44.35 55.9797 44.62 56.5597 44.74C56.7697 45.54 56.9697 46.3 57.0497 47.12C57.4197 46.56 57.5297 45.53 57.5397 44.88L59.7797 45.3C59.7797 45.49 59.7797 45.68 59.7797 45.86C59.7597 46.21 59.6397 46.12 59.6397 46.14L46.3097 58.48C45.5697 58.51 44.4597 58.25 43.6397 58.2C41.2397 57.63 39.0197 56.48 37.1897 54.83L47.2897 44.94L34.2397 39.82C35.1497 37.87 36.3897 36.3 38.0297 34.91C40.8897 33.44 42.0897 32.36 45.6097 32.24L45.6197 32.28Z" fill="#F4763A"/>
<path d="M59.6398 46.17C59.1198 52.33 54.8698 57.28 48.6998 58.23C47.9598 58.34 47.0498 58.48 46.3198 58.51L59.6498 46.17H59.6398Z" fill="#F26A50"/>
<path d="M60.6298 49.11C60.5198 50.14 59.0398 52.57 58.3898 53.46C57.7998 54.26 57.0098 55.17 56.2898 55.84C55.2498 56.81 53.8098 57.66 52.6398 58.51L53.2698 57.53C51.0498 59.22 48.1798 59.28 45.5498 59.77L48.7798 58.65L48.7098 58.23C54.8798 57.28 59.1298 52.32 59.6498 46.17C59.6498 46.15 59.7698 46.24 59.7898 45.89C60.1098 46.67 60.7198 48.32 60.6298 49.12V49.11Z" fill="#F79455"/>
<path d="M61.7498 58.51C61.2198 58.14 60.7598 58.59 60.7698 59C60.7698 59.35 64.4398 63.86 64.9798 64.54C63.6398 64.22 60.4598 60.25 59.5798 60.05C59.5198 60.04 59.2398 60.15 59.0898 60.19C59.9198 59.28 60.7698 58.4 61.4698 57.38L61.7498 58.5V58.51Z" fill="#F15540"/>
<path d="M58.7997 59.7801C58.7997 59.7801 58.6897 59.7601 58.6597 59.7801L56.6997 57.2601C56.8597 57.1301 56.9797 56.9801 57.1197 56.8401C57.1797 56.7801 57.4997 56.6101 57.5397 56.5601C58.2597 57.6701 60.4497 58.5401 58.7997 59.7901V59.7801Z" fill="#CFB59F"/>
<path d="M57.8199 55.57C57.6199 56.02 57.1999 56.38 57.1199 56.83C56.9799 56.97 56.8499 57.12 56.6999 57.25C56.4199 57.49 56.0999 57.64 55.8599 57.81L56.2799 55.85C57.0099 55.17 57.7899 54.27 58.3799 53.47C58.3399 54.21 58.1199 54.9 57.8199 55.57Z" fill="#F2672F"/>
<path d="M57.5396 56.55C57.4996 56.6 57.1796 56.77 57.1196 56.83C57.1996 56.38 57.6196 56.01 57.8196 55.57C58.3896 55.4 57.6696 56.39 57.5396 56.55Z" fill="#E94139"/>
<path d="M43.7896 30.8799C49.3496 29.8999 56.7396 33.6499 59.4996 38.5199C59.4996 38.5299 59.2896 38.6499 59.3596 38.7999C59.4096 38.9199 59.6496 38.5999 59.7796 38.9399C59.7996 38.9799 59.3596 38.9799 59.4996 39.3599C60.0996 40.9899 60.4096 41.5699 60.7596 43.3599C59.8596 42.5699 59.7996 40.8499 58.6596 40.2699C57.8796 38.4199 56.5296 36.7799 55.0096 35.4999C53.6096 34.3199 53.0696 34.0599 51.3596 33.3999C49.1896 32.5499 48.0196 32.1999 45.6096 32.2799C42.0896 32.3999 40.8996 33.4699 38.0296 34.9499C37.9296 34.9999 37.3596 35.3399 37.3296 35.0899C38.4196 34.1399 42.5496 31.0999 43.7796 30.8799H43.7896Z" fill="#F69585"/>
<path d="M37.1998 54.87C35.8298 53.63 34.8998 52.24 33.9698 50.66C33.0498 48.54 32.7498 46.37 32.9898 44.07C33.1598 42.42 33.5598 41.34 34.2498 39.86L47.2998 44.98L37.1998 54.87Z" fill="#FFCD66"/>
<path d="M58.6596 40.28C59.2796 41.75 59.7696 43.75 59.7796 45.33L57.5396 44.91C57.5696 43.13 57.0896 41.97 56.4196 40.42C55.7896 38.97 55.0196 37.73 53.8896 36.56L55.0096 35.51C56.5296 36.79 57.8696 38.43 58.6596 40.28Z" fill="#FFCD66"/>
<path d="M55.4395 41.26C55.9595 42.37 56.2495 43.59 56.5595 44.77C55.9795 44.65 55.3495 44.38 54.7395 44.49C54.6395 43.88 54.3395 43.65 54.1795 43.23C54.0995 43.03 54.0095 42.8 53.8995 42.53C53.6695 41.94 53.2095 41.52 53.0595 41.06C52.6695 39.85 53.7095 39.2 51.1695 39.31C50.8995 38.85 52.5095 37.97 52.8495 37.63C53.8895 38.68 54.8095 39.94 55.4495 41.28L55.4395 41.26Z" fill="#FFCD66"/>
<path d="M51.3696 33.4C51.5096 33.62 51.6096 34.03 51.4396 34.24C50.7996 35.01 46.2296 33.2 45.6196 32.28C48.0296 32.2 49.1996 32.55 51.3696 33.4Z" fill="#FFCD66"/>
<path d="M57.5395 44.91C57.5295 45.56 57.4095 46.59 57.0495 47.15C56.9695 46.33 56.7695 45.56 56.5595 44.77C56.2495 43.59 55.9595 42.37 55.4395 41.26L56.4195 40.42C57.0895 41.97 57.5795 43.13 57.5395 44.91Z" fill="#D6694F"/>
<path d="M53.8895 42.52C53.9995 42.79 54.0895 43.02 54.1695 43.22C53.0595 43.01 53.9495 44.13 53.8195 44.2C53.6295 44.3 50.1996 43.86 49.5396 44.13C49.9696 43.92 52.2395 41.95 52.4195 41.96C52.8095 41.96 53.0796 43.01 53.3996 43.22L53.8895 42.52Z" fill="#FFCD66"/>
<path d="M54.7295 44.49C54.8195 45.02 54.7795 45.64 54.7995 46.17C54.6195 46.26 53.9895 44.68 54.2395 44.49C54.3995 44.47 54.5795 44.52 54.7295 44.49Z" fill="#F37438"/>
</g>
<defs>
<clipPath id="clip0_380_344832">
<rect width="100" height="100" fill="white"/>
</clipPath>
</defs>
</svg>
