<svg width="249" height="155" viewBox="0 0 249 155" fill="none" xmlns="http://www.w3.org/2000/svg">
<g clip-path="url(#clip0_378_140921)">
<path d="M242.357 102.119C240.51 102.939 235.339 104.165 234.735 106.341C234.45 107.369 235.572 111.263 235.624 112.464C235.693 114.165 235.477 116.108 235.529 118.12C235.529 118.379 235.356 120.175 236.116 119.19C236.055 119.993 236.435 122.066 235.399 122.014C234.467 121.971 224.816 113.137 222.451 112.844C220.232 112.567 208.44 116.893 207.189 116.151C206.895 115.356 207.707 113.586 208.069 112.55C208.863 115.771 212.558 110.987 214.051 109.744C216.374 107.809 222.969 101.367 225.032 100.409C225.325 100.271 229.201 99.5887 230.375 99.3555C236.262 98.1984 242.642 97.9394 248.564 96.9204L249.004 97.4126C248.9 97.8098 243.168 101.48 242.357 102.11V102.119Z" fill="#F173AC"/>
<path d="M248.564 96.9205C242.642 97.9394 236.263 98.1985 230.376 99.3556C229.202 99.5888 225.317 100.271 225.032 100.409C222.969 101.359 216.374 107.801 214.052 109.744L212.187 106.385C210.97 107.913 210.297 109.649 209.399 111.341C209.235 111.643 208.812 112.947 208.484 111.825C209.287 109.631 212.507 103.207 212.524 101.454C212.533 100.357 209.123 95.3748 208.035 94.4422C209.106 93.691 210.478 92.9138 211.272 91.8689C211.281 91.8517 211.566 91.9726 211.583 91.6617C215.235 94.7444 221.225 97.1968 225.231 100.029L229.426 79.8316C229.228 77.3188 226.767 82.5689 225.757 81.904C227.139 80.3583 228.295 78.5622 230.065 77.3965C230.781 77.6296 233.483 90.3923 234.934 91.6444C237.169 93.5614 245.646 95.0899 248.555 96.9032L248.564 96.9205Z" fill="#D89936"/>
<path d="M211.591 91.6704C211.591 91.6704 211.643 90.7033 211.419 90.5565C211.281 90.4615 211.194 91.0919 211.056 91.0228C209.925 90.4529 206.369 89.3044 205.834 88.8554C205.134 88.2596 205.868 88.4495 205.92 87.7933C208.173 87.9832 218.195 88.8899 219.68 88.4927C220.811 88.1905 224.695 83.1217 225.766 81.9214C226.776 82.5863 229.244 77.3361 229.434 79.8489L225.239 100.046C221.234 97.2055 215.234 94.7618 211.591 91.6791V91.6704Z" fill="#E7B55A"/>
<path d="M242.357 102.119C241.528 102.758 236.772 106.143 236.599 106.462C235.857 107.835 236.289 116.859 236.116 119.191C235.356 120.175 235.538 118.387 235.529 118.12C235.477 116.108 235.693 114.165 235.624 112.464C235.572 111.255 234.45 107.36 234.735 106.341C235.348 104.165 240.518 102.939 242.357 102.119Z" fill="#E85AA1"/>
<path d="M214.052 109.735C212.558 110.978 208.864 115.762 208.069 112.541C208.138 112.334 208.337 112.239 208.492 111.816C208.812 112.939 209.243 111.635 209.407 111.333C210.296 109.64 210.97 107.904 212.196 106.376L214.06 109.735H214.052Z" fill="#D89936"/>
<path d="M205.54 96.0916C204.297 96.9897 196.26 102.628 195.975 103.155C195.803 103.466 195.561 104.986 195.492 105.487C194.957 109.252 196.355 117.774 195.535 120.892C195.406 121.384 195.492 121.747 194.905 121.98L179.643 110.979C178.771 110.72 177.899 110.65 177.002 110.702C174.101 110.849 162.352 115.244 160.488 114.83C160.039 114.726 159.866 114.718 159.659 114.251L160.635 112.162L161.222 113.232L182.215 95.3145C182.302 95.3317 182.388 95.3576 182.474 95.3663L193.533 118.189L194.258 117.938C194.922 116.963 194.422 115.935 194.43 115.814C194.646 112.291 193.541 107.015 193.869 104.217L201.638 98C202.95 97.3696 204.202 96.627 205.54 96.1089V96.0916Z" fill="#DF5DA2"/>
<path d="M205.912 87.7932C205.86 88.4494 205.126 88.2595 205.825 88.8553C206.352 89.3043 209.908 90.4442 211.048 91.0227C211.195 91.0918 211.281 90.4701 211.41 90.5564C211.635 90.7032 211.54 91.6358 211.583 91.6703C211.566 91.9812 211.281 91.8603 211.272 91.8776C207.837 91.0831 204.297 92.2316 200.844 92.6806C197.72 93.0865 184.262 95.6339 182.475 95.3489C182.388 95.3316 182.302 95.3144 182.216 95.2971C183.994 86.1007 186.316 77.0165 187.395 67.7424C187.43 67.7165 187.516 67.112 187.948 67.043C189.847 69.3399 192.342 83.277 194.042 84.5118C194.482 84.8313 203.564 88.1817 204.332 88.2681C204.418 88.2767 204.884 87.6982 205.92 87.7845L205.912 87.7932Z" fill="#F27FB2"/>
<path d="M182.215 95.297C180.877 94.9516 175.31 91.0226 173.6 89.9951C169.897 87.7845 166.263 85.4098 162.611 83.1215C163.949 82.1285 165.408 81.1959 166.729 80.1942C168.775 80.0906 173.997 81.17 175.672 80.7037C177.45 80.2028 184.796 69.5816 187.403 67.751C186.324 77.0165 184.002 86.1092 182.224 95.3057L182.215 95.297Z" fill="#F37A81"/>
<path d="M182.216 95.2971L161.222 113.215L160.635 112.144C160.488 111.592 161.162 110.814 161.213 110.642L164.753 105.297C164.425 103.552 166.298 102.818 166.376 102.663C166.402 102.611 165.642 102.041 165.763 101.722C166.099 100.858 167.809 98.4058 167.921 97.8445C167.964 97.62 167.187 94.684 167.273 94.4681C167.368 94.2264 171.287 91.4717 171.546 91.4372C171.952 91.3854 172.341 92.5252 172.945 91.8603L173.61 89.9692C175.327 90.9968 180.887 94.9258 182.225 95.2712L182.216 95.2971Z" fill="#F27FB2"/>
<path d="M173.601 89.995L172.936 91.8861C172.332 92.551 171.943 91.4111 171.538 91.4629C171.279 91.4975 167.36 94.2521 167.265 94.4939C167.178 94.7097 167.955 97.6457 167.912 97.8702C167.8 98.4228 166.091 100.884 165.754 101.747C165.633 102.058 166.393 102.637 166.367 102.689C166.289 102.844 164.416 103.578 164.744 105.322L161.205 110.667C162.154 107.498 166.41 99.4504 166.462 97.0412C166.505 95.2624 160.367 87.8362 159.677 85.5047C160.652 84.788 161.593 83.8813 162.594 83.1387C166.255 85.427 169.889 87.8016 173.583 90.0122L173.601 89.995Z" fill="#F27FB2"/>
<path d="M211.272 91.8777C210.478 92.914 209.106 93.6911 208.035 94.451C207.25 95.0123 206.317 95.5304 205.532 96.0917C204.194 96.6098 202.933 97.3524 201.63 97.9828C200.326 98.6131 198.505 99.1744 197.469 99.8221C197.098 96.0485 199.653 95.5649 200.836 92.6894C204.289 92.2404 207.828 91.0833 211.264 91.8864L211.272 91.8777Z" fill="#DF5DA2"/>
<path d="M200.853 92.6805C199.662 95.556 197.107 96.0396 197.486 99.8131C195.596 100.996 194.154 101.842 193.878 104.191C193.55 106.989 194.664 112.265 194.439 115.788C194.439 115.909 194.931 116.937 194.267 117.912L193.541 118.163L182.483 95.3401C184.279 95.6251 197.728 93.0777 200.853 92.6719V92.6805Z" fill="#E765A6"/>
<path d="M193.869 104.2C194.145 101.843 195.587 101.005 197.477 99.8219C198.513 99.1743 200.378 98.5958 201.638 97.9827L193.869 104.2Z" fill="#DF5DA2"/>
<path d="M41.6115 53.3996L42.3021 54.6258C40.6016 54.7812 37.2349 52.847 36.881 55.3857C33.1 55.4461 24.0102 56.9659 20.7644 58.2525C15.0412 60.5063 9.55964 68.8047 4.02631 71.9219C3.17171 72.3969 3.45657 72.0342 2.70556 71.7838C3.55153 68.8737 7.78138 61.2058 7.79864 58.9347C7.81591 57.3545 -0.358922 46.6038 0.012269 45.7057L15.3865 45.7921C15.257 45.8957 15.585 46.2238 15.5678 46.2325C12.5464 48.3912 5.21757 45.3603 1.31575 45.9734L20.8335 57.32L25.1669 35.1277C26.479 35.2313 28.7321 47.5623 30.0183 48.8316C30.8384 49.6347 39.8851 52.847 41.6202 53.3996H41.6115Z" fill="#D89936"/>
<path d="M36.8811 55.3857C37.1228 55.3857 37.4077 55.5325 37.658 55.5498C37.7098 56.0766 38.0033 56.5169 38.1673 57.0091C38.7888 58.9261 38.3054 58.8398 36.3545 59.876C36.1819 59.971 34.7662 60.0314 34.6971 60.0746C29.3192 63.261 30.4327 64.444 30.5795 70.1604C30.6313 72.3624 30.8212 75.2638 30.8902 77.7852C30.8902 78.0184 30.942 79.0201 31.529 78.597L31.3391 79.5036C30.4068 80.2204 20.1257 70.9894 18.4942 70.4886C15.7146 69.6423 5.03637 74.2017 2.97324 73.744C2.52435 73.6404 2.35171 73.6318 2.14453 73.1655C2.29991 72.6646 2.55025 72.3106 2.697 71.7925C3.44802 72.0429 3.16315 72.4142 4.01775 71.9306C9.55108 68.8134 15.0326 60.515 20.7559 58.2612C24.0016 56.9832 33.0915 55.4548 36.8725 55.3944L36.8811 55.3857Z" fill="#F173AC"/>
<path d="M15.386 45.7921C19.0547 42.7266 21.5063 38.2363 25.1578 35.1277L20.8244 57.32L1.30664 45.9734C5.21709 45.3603 12.546 48.3912 15.5586 46.2325C15.5759 46.2152 15.2565 45.8957 15.3774 45.7921H15.386Z" fill="#E7B55A"/>
<path d="M42.2158 63.5199L39.0132 58.8051C37.9428 59.8758 32.2109 63.2435 31.8225 64.1934C30.8643 66.5249 32.1332 75.5486 31.5376 78.5795C30.942 79.0113 30.8988 78.0096 30.8988 77.7678C30.8384 75.2463 30.6485 72.3449 30.588 70.143C30.4413 64.4265 29.3277 63.2435 34.7057 60.0572C34.7747 60.014 36.1904 59.9535 36.3631 59.8586C38.314 58.8223 38.7974 58.9087 38.1759 56.9917C40.0836 58.8223 40.9468 61.2834 42.2244 63.5026L42.2158 63.5199Z" fill="#F064A5"/>
<path d="M86.3875 70.5315C85.1272 71.3777 76.3913 77.6727 76.1409 78.2599L75.9596 96.0483L75.1741 96.5578C73.5599 96.4541 62.6313 86.3251 60.1711 85.6084C59.5496 85.4271 58.9367 85.4703 58.3065 85.4875C54.7413 85.5912 43.6315 90.1764 40.9641 89.7187C38.8578 89.3561 40.4807 88.3544 40.7483 87.5168C41.318 88.9502 42.0518 87.3786 42.7769 86.8605C44.9177 85.3235 46.6787 83.5619 48.6728 81.8694C53.3084 77.9491 57.9267 73.9596 62.7004 70.2034L74.121 92.5597C74.6562 92.5942 75.3036 90.3232 75.3295 89.9778C75.3467 89.7706 74.8547 89.8224 74.8633 89.6151C74.9928 87.1887 74.026 78.5363 74.4317 77.3705C75.2518 75.0218 84.0999 72.224 86.3789 70.5315H86.3875Z" fill="#DF5DA2"/>
<path d="M79.1275 56.0592C81.3892 59.7032 83.2883 63.3213 85.2737 66.784L62.752 69.9358C64.4612 62.3628 65.6697 54.7034 67.2235 47.0959C67.5515 45.4984 68.1299 43.7455 67.9832 42.1221C68.0436 42.0875 67.9314 41.3622 68.7342 41.7421C69.7614 42.4243 73.0158 57.9071 74.5696 59.1592C75.8904 60.2213 80.267 60.9898 81.9589 61.9138L79.1275 56.0592Z" fill="#F27FB2"/>
<path d="M67.2236 47.1045C65.6784 54.7034 64.4698 62.3714 62.752 69.9444C55.5095 66.2486 48.0252 59.7204 40.8949 56.2232C39.0562 55.3252 38.7454 55.6101 37.6578 55.5497C37.4074 55.5324 37.1226 55.3856 36.8809 55.3856C37.2434 52.8382 40.61 54.7725 42.302 54.6257L41.6114 53.3995C42.3624 53.6413 44.5205 54.8157 44.6845 54.8502C45.2197 54.9625 55.1296 55.3252 55.6735 55.2388C57.0719 55.0143 60.4126 50.7572 61.6039 49.4446C64.0123 49.79 64.9015 46.8023 67.2236 47.1045Z" fill="#F37A81"/>
<path d="M62.7516 69.9446L62.6998 70.2036C57.9261 73.9685 53.3078 77.9493 48.6723 81.8697C46.8767 79.8663 47.645 77.4657 48.1802 75.1515L47.6536 75.7215C46.8336 73.8045 45.3574 79.4173 44.9776 80.1599C44.3647 81.3688 40.4197 86.2045 42.7764 86.8608C42.0512 87.3789 41.3175 88.9591 40.7478 87.517C42.4311 82.1805 45.0639 77.1894 46.9544 71.9306C46.9976 71.2744 42.9145 64.7203 42.2239 63.52C40.9463 61.3008 40.0831 58.8398 38.1753 57.0091C38.0199 56.5256 37.7264 56.0765 37.666 55.5498C38.7537 55.6103 39.0645 55.3253 40.9031 56.2233C48.0335 59.7206 55.5177 66.2487 62.7602 69.9446H62.7516Z" fill="#F27FB2"/>
<path d="M85.2739 66.7927C85.8955 67.8808 86.4134 69.0465 87.009 70.1259C86.9831 70.4454 86.4825 70.4713 86.3875 70.5404C84.1086 72.2329 75.2604 75.0306 74.4403 77.3794C74.0346 78.5365 75.0014 87.1889 74.872 89.624C74.8633 89.8399 75.3554 89.7794 75.3381 89.9867C75.3122 90.3321 74.6648 92.6117 74.1296 92.5686L62.709 70.2122L62.7608 69.9532L85.2826 66.8014L85.2739 66.7927Z" fill="#E765A6"/>
<path d="M67.2232 47.1047C64.9011 46.8025 64.0119 49.7988 61.6035 49.4448C62.9847 47.925 66.5585 42.8821 67.9828 42.1309C68.1296 43.7543 67.5426 45.5072 67.2232 47.1047Z" fill="#F1A0C5"/>
<path d="M48.6637 81.8695C46.6696 83.5533 44.9173 85.3149 42.7678 86.8606C40.4112 86.213 44.3562 81.3687 44.9691 80.1597C45.3489 79.4171 46.825 73.8043 47.6451 75.7213L48.1717 75.1514C47.6451 77.4656 46.8682 79.8661 48.6637 81.8695Z" fill="#F27FB2"/>
<path d="M167.712 79.3218C164.82 79.4686 161.109 84.3043 159.089 85.0901C158.873 85.1764 156.413 85.1333 156.085 85.2714C153.806 86.2386 145.113 90.5043 144.215 92.3954C141.928 97.2138 146.106 114 144.949 120.097L145.415 120.46L145.847 117.714L146.27 120.235C146.166 122.333 146.235 124.466 146.045 126.53L145.001 126.988L118.957 108.077L116.16 107.231L84.1167 114.622C82.373 113.75 83.7196 112.308 84.2203 110.866C85.9813 111.272 85.2993 112.101 86.8877 111.013C94.5187 105.797 103.125 96.4107 110.627 90.2884C111.421 89.6408 112.396 88.7686 113.415 88.57C120.562 94.9341 135.678 92.7581 136.532 82.5686C136.619 81.5065 135.988 82.1455 135.945 81.4979C135.807 79.4945 135.41 78.3202 137.111 77.8279C145.907 75.2547 162.412 74.8661 172.348 73.26C173.09 73.1391 174.169 72.8282 174.817 72.4224L175.404 73.4931C172.874 75.4792 170.267 77.3703 167.712 79.3218Z" fill="#F173AC"/>
<path d="M128.945 50.2046C126.925 52.2425 125.717 54.9971 123.74 57.0868C121.677 59.2629 118.932 60.6013 116.679 62.5097C112.552 61.059 110.36 67.9325 112.319 70.5144L110.498 71.4902C103.152 67.1208 95.3221 62.8205 87.8379 58.408C90.3758 55.4893 93.7597 55.8952 97.109 56.0161C98.0241 56.0506 99.975 56.0592 101.408 56.1024C102.116 56.1197 102.78 56.8709 103.687 56.845C106.251 56.7673 112.958 53.8746 114.814 52.0007L119.562 44.7472C121.78 42.2517 130.991 30.2489 132.994 29.4458C132.087 36.4402 130.318 43.3052 128.954 50.2133L128.945 50.2046Z" fill="#E7B55A"/>
<path d="M87.82 58.4078C84.7814 56.6117 81.7256 54.6861 78.4971 53.2354C78.195 52.89 80.0509 52.51 80.1372 52.4928C88.5883 51.0939 102.374 54.7638 110.592 53.4167C112.647 53.08 117.826 46.6727 119.544 44.7471L114.796 52.0006C112.932 53.8744 106.233 56.7672 103.669 56.8449C102.763 56.8708 102.107 56.1195 101.39 56.1023C99.9571 56.0677 97.9976 56.0504 97.0912 56.0159C93.7332 55.895 90.3579 55.4892 87.82 58.4078Z" fill="#E7B55A"/>
<path d="M167.713 79.322C167.385 79.5724 167.048 79.9438 166.72 80.1942C165.399 81.1958 163.949 82.1284 162.602 83.1215C161.601 83.8641 160.651 84.7621 159.685 85.4875C157.518 87.0936 147.591 93.0605 146.943 94.8566C146.477 103.31 146.667 111.79 146.261 120.235L145.838 117.714L145.407 120.46L144.941 120.097C146.097 114.009 141.928 97.214 144.207 92.3956C145.105 90.5045 153.797 86.2388 156.076 85.2716C156.404 85.1335 158.865 85.168 159.08 85.0903C161.1 84.3045 164.812 79.4602 167.704 79.322H167.713Z" fill="#F064A5"/>
<path d="M110.489 71.4902L112.311 70.5144C116.143 75.5746 121.806 64.3057 116.67 62.5096C118.932 60.6013 121.677 59.2715 123.731 57.0868C125.708 54.9884 126.916 52.2338 128.936 50.2046C127.055 59.7464 125.57 69.4091 123.256 78.8646C122.833 79.279 122.514 79.1322 122.013 79.0114C120.209 78.5796 112.293 72.5609 110.48 71.4815L110.489 71.4902Z" fill="#E7B55A"/>
<path d="M136.533 82.5688C132.285 83.4755 127.9 82.8452 123.679 82.0594C122.902 81.9126 122.117 81.7485 121.348 81.5758C119.406 81.1268 117.516 80.6 115.582 80.1078L109.28 77.3101C108.935 81.5326 110.247 85.7466 113.424 88.5703C120.571 94.9343 135.687 92.7583 136.541 82.5688H136.533Z" fill="white"/>
<path d="M137.111 77.8282C145.907 75.2549 162.412 74.8663 172.348 73.2602C173.091 73.1393 174.17 72.8284 174.817 72.4226L144.034 60.0916C139.934 50.0404 137.629 39.1687 133.736 29.057C133.373 28.8152 133.045 29.4197 132.985 29.437C132.078 36.4314 130.309 43.2963 128.945 50.2044C127.063 59.7462 125.578 69.4089 123.265 78.8644C122.842 79.2789 122.522 79.1321 122.022 79.0112C120.218 78.5794 112.302 72.5608 110.489 71.4814C103.143 67.112 95.3132 62.8117 87.8289 58.3992C84.7904 56.603 81.7345 54.6774 78.506 53.2267C78.2039 52.8813 80.0598 52.5014 80.1461 52.4841C75.899 51.776 77.919 54.0902 79.1362 56.059C81.3978 59.7031 83.297 63.3212 85.2824 66.7839C85.9039 67.8719 86.4219 69.0376 87.0175 70.117C88.3037 72.4312 94.8125 81.3427 94.8298 83.2165C92.1796 92.6892 87.4577 101.557 84.2293 110.858C85.9902 111.263 85.3083 112.092 86.8966 111.004C94.5276 105.789 103.134 96.4023 110.636 90.28C111.43 89.6324 112.405 88.7602 113.424 88.5616C110.247 85.738 108.935 81.524 109.28 77.3014L115.582 80.0992C117.516 80.5914 119.406 81.1182 121.348 81.5672C122.117 81.7485 122.902 81.904 123.679 82.0508C127.9 82.8365 132.286 83.4669 136.533 82.5602C136.619 81.4981 135.989 82.1371 135.946 81.4895C135.808 79.4861 135.41 78.3117 137.111 77.8195V77.8282Z" fill="#F27FB2"/>
<path d="M135.177 66.3521C141.237 66.2398 138.173 78.9162 133.036 75.3585C130.309 73.4674 131.949 66.4125 135.177 66.3521Z" fill="#512F91"/>
<path d="M135.065 66.8701C138.88 68.4331 136.083 73.1392 133.744 70.6437C132.423 69.2361 133.131 67.3191 135.065 66.8701Z" fill="#794FA0"/>
<path d="M116.669 62.5095C121.797 64.3142 116.143 75.5744 112.31 70.5142C110.359 67.9323 112.543 61.0588 116.669 62.5095Z" fill="#512F91"/>
<path d="M114.563 62.8809C114.883 62.8809 116.963 64.1761 117.041 64.6079C115.176 71.231 110.998 62.8809 114.563 62.8809Z" fill="#794FA0"/>
</g>
<defs>
<clipPath id="clip0_378_140921">
<rect width="249" height="155" fill="white"/>
</clipPath>
</defs>
</svg>
