<svg width="184" height="115" viewBox="0 0 184 115" fill="none" xmlns="http://www.w3.org/2000/svg">
<g clip-path="url(#clip0_370_139933)">
<path d="M118.641 8.79969C119.012 9.02204 119.723 9.39832 119.446 9.77032C100.841 9.30425 80.5535 9.1717 61.978 9.77032C62.2761 9.21445 63.1747 9.62494 63.2641 8.79969C81.2689 8.33362 100.641 8.32079 118.641 8.79969Z" fill="#68ACC2"/>
<path d="M118.965 8.79968C121.098 8.86382 126.051 8.44478 127.175 10.2535C127.601 10.9376 127.541 11.3096 127.656 12.0322C127.056 12.0579 126.881 11.532 126.528 11.2241C124.164 9.16313 122.414 9.84299 119.446 9.7703C119.723 9.3983 119.012 9.02202 118.641 8.79968C118.748 8.79968 118.858 8.79968 118.965 8.79968Z" fill="#365063"/>
<path d="M63.1067 8.7998C63.1621 8.7998 63.2132 8.7998 63.2686 8.7998C63.1791 9.62505 62.2806 9.21457 61.9825 9.77043C61.2926 9.79181 60.5772 9.7234 59.8916 9.77043L60.8583 9.20601L60.2152 8.96229C61.1904 8.90243 62.1273 8.82974 63.111 8.7998H63.1067Z" fill="#365063"/>
<path d="M69.7029 43.554C83.3896 43.8319 97.0678 43.6908 110.755 43.554C112.543 43.5369 114.251 43.6267 116.065 43.554C117.296 43.5027 118.645 43.7934 119.765 43.229C119.957 43.8105 120.685 45.0121 119.765 45.3285H119.604C115.648 45.2558 111.662 45.3199 107.693 45.3285C96.5355 45.3456 85.3613 45.213 74.2083 45.3285C74.0465 45.3285 73.8847 45.3285 73.7271 45.3285L63.1022 45.491H62.9404C63.362 44.2168 63.5749 42.2156 64.0689 41.044C66.1556 36.1097 69.7369 33.0524 71.1508 26.8994C70.9591 32.7959 67.6758 38.2049 66.2407 43.7079C66.5942 43.9474 69.1493 43.5369 69.7029 43.5454V43.554Z" fill="#1D3766"/>
<path d="M125.889 11.0659L126.213 33.6939C124.786 31.3122 123.615 28.8065 122.189 26.4206C120.762 24.0346 120.345 21.5332 117.036 22.2174C116.64 22.2986 115.682 22.8117 115.264 23.0255C113.608 23.8764 113.152 23.7182 113.173 25.7749C112.863 25.6766 112.884 25.9118 112.85 25.9374C111.189 27.2501 111.879 30.8761 111.721 32.8088C111.432 36.392 111.036 39.9752 110.755 43.5583C97.0722 43.6952 83.3897 43.8363 69.703 43.5583C70.5632 38.0724 72.1729 32.5052 72.2794 26.9893C72.1814 26.4163 71.6832 25.993 71.4745 25.6167C70.6186 24.0475 69.9159 23.265 68.0933 22.5466C65.4956 21.5204 64.6823 22.7989 62.9406 24.7273C60.5005 27.4297 58.7332 31.1711 56.6636 34.1813V10.7409C57.4301 10.5784 58.384 10.4544 59.159 10.4159C80.6601 9.394 102.936 11.1813 124.518 10.4159C125.067 10.4972 125.451 10.8606 125.885 11.0616L125.889 11.0659Z" fill="url(#paint0_linear_370_139933)"/>
<path d="M56.6635 10.741V34.1772C55.3859 36.0372 55.0069 36.8154 53.2822 38.3804C53.4228 37.2516 53.4824 36.1184 53.6059 34.9853C54.1041 30.4272 54.1211 26.7542 54.2489 22.2175C54.3383 19.0961 54.679 15.979 54.5725 12.8405C54.5598 12.5198 54.5938 12.1906 54.5725 11.8699C55.2071 11.6005 55.5477 11.1216 56.1822 10.7368C56.3355 10.7197 56.5187 10.7667 56.6635 10.7368V10.741Z" fill="#114D92"/>
<path d="M126.532 11.224C126.882 11.5319 127.06 12.0578 127.661 12.0321C127.763 12.665 127.767 13.332 127.823 13.9734C128.057 16.6373 128.027 19.3781 128.146 22.0548C128.266 24.7315 128.214 27.451 128.308 30.1363C128.363 31.744 128.402 33.3774 128.47 34.9851C128.5 35.6607 128.9 36.5757 128.47 37.2471C127.482 36.1567 126.958 34.9252 126.217 33.6895L125.894 11.0615C126.021 11.1214 126.371 11.1898 126.537 11.224H126.532Z" fill="#25609F"/>
<path d="M60.2066 8.96216L60.8496 9.20588L59.8829 9.7703C58.0943 9.8943 57.7622 9.78741 56.1823 10.7409C55.5478 11.1215 55.2028 11.6004 54.5726 11.874C54.5641 11.7158 54.5896 11.5448 54.5726 11.3909C55.0197 8.45333 58.0731 9.09471 60.2066 8.96643V8.96216Z" fill="#323E47"/>
<path d="M59.887 9.77043C60.5769 9.72339 61.288 9.7918 61.9779 9.77043C80.5576 9.1718 100.841 9.30435 119.446 9.77043C122.418 9.84312 124.169 9.16325 126.528 11.2242C126.362 11.19 126.008 11.1216 125.885 11.0617C125.45 10.8608 125.063 10.4973 124.518 10.4161C102.94 11.1815 80.6598 9.39415 59.1588 10.4161C58.3838 10.4546 57.4299 10.5743 56.6633 10.7411C56.5143 10.771 56.3354 10.7239 56.1821 10.7411C57.762 9.78753 58.0942 9.89443 59.8827 9.77043H59.887Z" fill="#1D3766"/>
<path d="M69.7029 43.554C69.1493 43.5412 66.5942 43.9517 66.2407 43.7165C67.6758 38.2092 70.9591 32.8002 71.1507 26.908C71.2487 26.4762 71.2955 26.0229 71.4744 25.6167C71.683 25.9973 72.1813 26.4163 72.2792 26.9893C72.177 32.5052 70.5631 38.0724 69.7029 43.5583V43.554Z" fill="#114D92"/>
<path d="M113.169 25.7749C113.224 31.6157 117.994 37.8372 119.77 43.2333C118.65 43.7935 117.295 43.507 116.069 43.5583C115.443 40.5994 114.263 37.5293 113.654 34.5875C113.105 31.9322 112.854 30.4057 112.85 27.6349C112.85 27.5152 112.526 27.5921 112.526 27.4724C112.526 27.3869 113.275 26.5403 112.85 25.9374C112.884 25.9117 112.862 25.6765 113.173 25.7749H113.169Z" fill="#1D3766"/>
<path d="M116.069 43.554C114.251 43.6267 112.547 43.5369 110.759 43.554C111.036 39.9708 111.432 36.3877 111.725 32.8045C111.883 30.8718 111.193 27.2458 112.854 25.9331C113.28 26.536 112.53 27.3869 112.53 27.4681C112.53 27.5879 112.854 27.5109 112.854 27.6306C112.858 30.4014 113.109 31.9236 113.659 34.5832C114.268 37.525 115.447 40.5951 116.073 43.554H116.069Z" fill="#25609F"/>
<path d="M73.7313 45.3328C71.8108 45.3541 69.8689 45.4952 67.9355 45.4952H63.1064L73.7313 45.3328Z" fill="#726665"/>
<path d="M74.2125 45.3328C73.6802 45.9742 73.0202 50.6734 72.6837 50.8273C71.5552 51.3489 68.6467 49.1811 68.0974 48.0779C68.025 47.6375 68.4338 47.7786 68.421 47.6717C68.404 47.5434 68.1144 47.6375 68.0974 47.5092C68.025 46.8422 68.14 46.1409 67.9355 45.4867C69.8689 45.4867 71.8108 45.3456 73.7313 45.3242C73.8931 45.3242 74.055 45.3242 74.2125 45.3242V45.3328Z" fill="#A36C5B"/>
<path d="M119.608 45.3329C119.574 45.5894 119.161 45.4996 118.965 45.4954C117.24 45.4355 115.516 45.6536 113.812 45.6578C113.374 45.6578 112.645 45.4954 112.041 45.4954C110.593 45.4954 109.141 45.4954 107.693 45.4954V45.3329C111.662 45.3243 115.648 45.2602 119.604 45.3329H119.608Z" fill="#856F6E"/>
<path d="M184 105.948V115H173.052C166.485 103.455 159.224 92.3077 152.445 80.8954C152.419 80.8569 152.47 80.7713 152.445 80.7329L160.817 76.5297L161.541 76.3672L162.265 77.0941L183.996 105.948H184Z" fill="#F19236"/>
<path d="M152.449 80.8911C159.224 92.3035 166.489 103.451 173.056 114.996H163.074C157.764 104.823 151.887 94.9631 146.334 84.9318C146.312 84.8891 146.355 84.8121 146.334 84.7693L152.449 80.8911Z" fill="url(#paint1_linear_370_139933)"/>
<path d="M160.821 76.5297L152.449 80.7329C151.385 78.9413 150.375 77.077 149.392 75.2383C150.09 74.8492 150.771 74.473 151.483 74.1052C151.857 73.9128 152.245 73.6349 152.611 73.4596C154.165 72.7156 155.749 71.9844 157.359 71.3601L160.821 76.5339V76.5297Z" fill="#CFEBEF"/>
<path d="M149.392 75.2341C150.375 77.0728 151.384 78.9371 152.449 80.7286C152.475 80.7671 152.424 80.8526 152.449 80.8911L146.334 84.7694C145.299 82.8965 144.12 81.0878 143.276 79.1124C143.66 78.8686 144.107 78.4239 144.562 78.1417C146.172 77.154 147.739 76.1492 149.392 75.2341Z" fill="#A5D3DA"/>
<path d="M163.074 115H148.425L136.833 91.4824C136.842 91.3584 138.37 90.1184 138.605 89.9474C139.337 89.4043 140.504 88.7459 141.343 88.1686C142.969 87.0526 144.677 86.0093 146.334 84.936C151.891 94.9673 157.768 104.827 163.074 115Z" fill="url(#paint2_linear_370_139933)"/>
<path d="M139.409 92.205C139.149 92.8336 138.788 93.3382 139.086 93.9838C138.83 93.894 138.379 94.0351 138.119 93.7401C138.012 93.6204 136.841 90.794 137.876 90.9094C137.974 91.4781 138.489 91.1232 138.681 91.2344C138.89 91.3541 139.184 92.0639 139.405 92.205H139.409Z" fill="#8B2630"/>
<path d="M139.086 93.9838C138.788 93.3382 139.15 92.8336 139.409 92.2051C139.929 92.5343 140.768 92.2051 141.181 92.932C141.262 94.5696 140.287 94.4029 139.09 93.9838H139.086Z" fill="#1E1E2D"/>
<path d="M146.33 84.7735C145.295 82.9006 144.119 81.0919 143.272 79.1165C143.161 79.1891 142.838 79.3046 142.629 79.4414C141.16 80.3864 139.567 81.2245 138.123 82.1908C138.106 82.1994 137.979 82.503 137.962 82.5158C137.527 82.8108 135.419 83.6446 135.385 84.2133L138.605 89.9516C139.337 89.4085 140.504 88.75 141.343 88.1728C142.97 87.0568 144.677 86.0135 146.334 84.9402C146.312 84.8975 146.355 84.8205 146.334 84.7777L146.33 84.7735Z" fill="#68ACC2"/>
<path d="M63.1064 45.4954H67.9355C68.1399 46.1496 68.025 46.8508 68.0974 47.5179C68.1101 47.6461 68.3997 47.5521 68.421 47.6803C68.438 47.7872 68.0292 47.6419 68.0974 48.0865C68.1442 48.3645 68.5701 49.0486 68.5786 49.1384C68.9448 52.1144 66.9859 54.0984 65.9213 56.8179C62.3782 55.8815 62.1014 52.2769 61.6543 49.2197C62.012 47.9625 62.5315 46.7396 62.9404 45.5039H63.1022L63.1064 45.4954Z" fill="#A36C5B"/>
<path d="M68.0929 22.5423L68.2547 23.0255C65.4186 21.9394 64.0346 26.1683 62.459 27.9556C63.1957 28.9262 66.3682 31.0214 67.4499 30.7862C65.9339 33.8606 62.8678 36.9478 60.1253 39.0301C57.4723 41.0441 54.7682 41.9933 52.4771 44.7684C50.3564 47.3424 49.5984 50.5836 47.4862 53.3372C43.0403 59.1353 36.0053 64.3477 31.3892 70.1458C30.5417 71.2105 30.0733 72.0998 29.4558 73.2971C29.3621 73.2158 28.9874 73.0106 28.9746 72.8909C29.3323 72.0186 29.6858 70.9111 29.7795 69.9833C31.04 57.4806 31.6234 44.3579 35.0898 32.24L42.6571 27.0662C42.6273 27.2543 42.8146 27.2158 42.8189 27.2287C44.2072 32.5008 46.2597 37.5549 47.648 42.8271L50.5438 40.4839C50.9142 40.4241 50.8504 40.33 50.8674 40.3214C51.2166 40.1718 52.8902 38.7394 53.282 38.3802C55.0066 36.8152 55.3856 36.0413 56.6632 34.177C58.7328 31.1625 60.5043 27.4254 62.9402 24.723C64.6819 22.7946 65.4953 21.5161 68.0929 22.5423Z" fill="#EFA287"/>
<path d="M49.7434 66.0195C46.4048 68.6706 40.6345 69.6455 38.4755 73.2116C37.6962 74.4986 37.6962 76.3543 36.5422 77.171C35.1283 76.3287 33.6208 75.5804 32.1943 74.7466C31.5257 74.3532 29.8776 73.6563 29.4561 73.2928C30.0693 72.0956 30.5377 71.2062 31.3894 70.1415C36.0098 64.3434 43.0406 59.1311 47.4864 53.333C49.5986 50.5836 50.3566 47.3424 52.4774 44.7641C54.7641 41.989 57.4725 41.0398 60.1256 39.0258C62.868 36.9435 65.9341 33.8563 67.4501 30.7819C67.9058 30.6836 68.6042 29.7172 68.898 29.3281C69.1194 29.6274 69.0385 29.7557 68.898 30.055C68.0165 31.9364 65.3933 34.6302 64.2307 36.6827C58.9204 46.0383 58.6649 58.9386 49.7434 66.0195Z" fill="url(#paint3_linear_370_139933)"/>
<path d="M51.6767 9.28705C51.1274 10.0097 49.9137 13.9178 49.2622 15.1878C47.1883 19.2114 44.5736 22.9528 42.6615 27.0662L35.0942 32.24C36.3292 27.9342 38.6501 24.1244 40.5664 20.0366C42.4827 15.9489 44.0157 11.6302 46.3622 7.83325L51.6725 9.28705H51.6767Z" fill="#F5C2A9"/>
<path d="M63.1063 8.79959C62.1226 8.82525 61.1814 8.90221 60.2105 8.96207C58.0728 9.09035 55.0237 8.44897 54.5766 11.3865C54.5595 11.2368 54.5297 10.3945 54.3338 10.4159C52.5751 11.8825 52.1237 14.2556 51.6765 16.3978C51.6339 16.5988 51.1102 17.6122 51.1953 17.7704L51.8384 17.6892C50.8163 19.3653 50.135 21.1826 49.4238 23.0212L42.8232 27.2244C42.8232 27.2244 42.6315 27.25 42.6614 27.0619C44.5734 22.9485 47.1881 19.2071 49.262 15.1835C49.9135 13.9178 51.1272 10.0054 51.6765 9.28277C52.294 8.47035 62.9317 3.13404 64.6351 2.33017C65.6699 1.84272 68.2462 1.4921 68.259 0.230713C70.2179 1.44079 67.6373 5.52426 66.2448 6.69586C65.2653 7.5211 63.8515 7.78621 63.1063 8.79531V8.79959Z" fill="url(#paint4_linear_370_139933)"/>
<path d="M68.2546 0.235082C68.2461 1.49647 65.6697 1.84709 64.6307 2.33454C62.9273 3.13841 52.2896 8.47044 51.6721 9.28714L46.3618 7.83333C51.0759 5.52863 56.0626 2.91179 61.0919 1.36819C62.6845 0.880741 67.0282 -0.52175 68.2546 0.235082Z" fill="#F5CDA5"/>
<path d="M71.4743 25.6126C71.2955 26.0188 71.2529 26.4763 71.1507 26.9039C69.7369 33.0569 66.1555 36.1141 64.0688 41.0485C63.5748 42.2158 63.3619 44.2212 62.9403 45.4954C62.5188 46.7697 62.012 47.9541 61.6543 49.2112C59.1631 57.9468 59.0736 64.3991 52.4773 71.356C52.0131 71.5142 51.6213 71.8905 51.1912 72.1642L53.1246 70.1417C49.4452 71.1508 49.2962 69.0983 49.7433 66.0197C58.6648 58.9388 58.9203 46.0385 64.2307 36.6828C65.3932 34.6304 68.0164 31.9366 68.8979 30.0552C69.0385 29.7559 69.1194 29.6276 68.8979 29.3283C69.5963 28.3962 70.7333 26.3395 70.5076 25.2064C70.3841 24.5821 68.8596 23.2566 68.2549 23.0257L68.0931 22.5425C69.9157 23.2608 70.6184 24.0476 71.4743 25.6126Z" fill="#C5795A"/>
<path d="M52.4812 71.356C49.232 74.7809 45.1481 76.6281 43.7896 81.5411C42.4056 80.6261 40.7278 79.6768 39.2842 78.7917L41.7796 73.1347C44.9778 73.9985 48.3718 73.9514 51.1951 72.1641C51.6295 71.8904 52.017 71.5142 52.4812 71.356Z" fill="#B56749"/>
<path d="M49.4196 23.0256C49.377 23.1411 49.4622 23.3934 49.4196 23.5088C48.9086 24.9027 47.597 27.1262 47.4863 28.6014C47.3628 30.2391 48.2613 32.9885 48.6148 34.6646C49.0151 36.5674 49.4239 38.4787 49.7433 40.4028C49.871 40.3986 50.5098 40.4884 50.5481 40.4841L47.6523 42.8273C46.2641 37.5551 44.2115 32.501 42.8232 27.2288L49.4239 23.0256H49.4196Z" fill="#D88864"/>
<path d="M68.2548 23.0256C68.8595 23.2564 70.384 24.582 70.5075 25.2063C70.7332 26.3394 69.5962 28.3961 68.8978 29.3282C68.604 29.7216 67.9056 30.6837 67.4499 30.782C66.3683 31.0172 63.2 28.922 62.459 27.9514C64.0346 26.1641 65.4186 21.9352 68.2548 23.0213V23.0256Z" fill="#F6D7C7"/>
<path d="M53.6056 34.9851C53.4821 36.1139 53.4225 37.2513 53.2819 38.3802C52.8902 38.7351 51.2166 40.1718 50.8674 40.3214C50.7013 38.7522 51.0335 37.2128 50.7056 35.635L53.6013 34.9894L53.6056 34.9851Z" fill="#7C433B"/>
<path d="M50.7099 35.6352C51.0336 37.2173 50.7099 38.7524 50.8717 40.3216C50.8547 40.3302 50.9228 40.4242 50.5481 40.4841C50.5098 40.4926 49.871 40.3986 49.7432 40.4028C49.4281 38.4787 49.015 36.5674 48.6147 34.6646L49.8242 33.5315C50.1265 34.1857 50.5651 34.9297 50.7099 35.631V35.6352Z" fill="#A36C5B"/>
<path d="M51.1911 72.1641C48.3635 73.9514 44.9738 73.9942 41.7757 73.1347L39.2802 78.7917C39.0545 78.6549 38.6414 78.5052 38.3135 78.3085C37.7216 77.9494 37.1339 77.5303 36.542 77.1754C37.696 76.3587 37.6918 74.503 38.4753 73.216C40.6344 69.6499 46.4046 68.6707 49.7433 66.0239C49.2961 69.1026 49.4452 71.155 53.1245 70.1459L51.1911 72.1684V72.1641Z" fill="#C5795A"/>
<path d="M54.5724 11.3867C54.5894 11.5449 54.5639 11.7116 54.5724 11.8699C54.5937 12.1905 54.5596 12.5198 54.5724 12.8405H54.4106C54.4404 12.6609 54.4319 12.4514 54.1678 12.5155C53.2948 12.7293 52.7114 16.2569 51.6724 16.3937C52.1195 14.2515 52.5709 11.8827 54.3297 10.4118C54.5255 10.3904 54.5553 11.2285 54.5724 11.3824V11.3867Z" fill="#C5795A"/>
<path d="M54.4105 12.8403C54.7427 15.1279 52.7369 16.2054 51.8341 17.6892L51.1911 17.7704C51.1102 17.6079 51.634 16.5988 51.6723 16.3979C52.7114 16.261 53.2948 12.7291 54.1678 12.5196C54.4318 12.4555 54.4403 12.665 54.4105 12.8446V12.8403Z" fill="#C5795A"/>
<path d="M54.2484 22.2175C54.1207 26.7542 54.0994 30.4272 53.6054 34.9853L50.7096 35.631C50.5648 34.9255 50.1262 34.1815 49.8239 33.5315L48.6145 34.6646C48.261 32.9885 47.3667 30.2391 47.486 28.6014C47.5967 27.1305 48.904 24.9028 49.4193 23.5088L54.2484 22.2175Z" fill="#9F5D4B"/>
<path d="M118.965 45.4953C118.982 46.3804 118.845 47.3082 118.641 48.1634C118.262 49.7455 116.823 53.1406 116.708 54.4661C116.691 54.6842 116.588 55.2315 116.95 55.193C117.27 54.6542 118.096 53.6451 118.803 53.7392C118.041 55.3811 117.385 56.1935 115.664 56.9718C115.349 56.9247 112.892 51.5499 112.845 51.2335C112.781 50.7803 113.084 49.613 113.169 49.0528C113.246 48.5397 113.544 47.646 113.65 46.9533C113.71 46.5642 113.931 46.1367 113.812 45.662C115.511 45.662 117.236 45.444 118.965 45.4995V45.4953Z" fill="#C5795A"/>
<path d="M112.045 45.4954C112.475 46.7268 111.444 47.8001 111.483 49.0529C112.943 48.8006 112.59 47.2699 113.655 46.9534C113.544 47.6504 113.25 48.5398 113.173 49.0529C112.543 49.8568 109.979 51.2422 109.068 50.8317C108.664 50.6478 107.837 46.2223 107.701 45.4996C109.149 45.4996 110.601 45.4996 112.049 45.4996L112.045 45.4954Z" fill="#A36C5B"/>
<path d="M120.093 45.9784C120.187 48.6466 119.927 51.3147 118.807 53.7392C118.105 53.6451 117.279 54.6542 116.955 55.193C116.593 55.2314 116.695 54.6841 116.712 54.4661C116.827 53.1405 118.267 49.7455 118.646 48.1634C118.85 47.3082 118.982 46.3804 118.969 45.4952C119.165 45.5038 119.578 45.5893 119.612 45.3328H119.774L120.098 45.414C120.132 45.5722 120.047 45.8886 120.098 45.9784H120.093Z" fill="#A36C5B"/>
<path d="M113.812 45.6536C113.931 46.1325 113.714 46.5601 113.65 46.9449C112.586 47.2613 112.939 48.7964 111.478 49.0444C111.444 47.7915 112.471 46.7183 112.04 45.4868C112.645 45.4868 113.373 45.6493 113.812 45.6493V45.6536Z" fill="#A36C5B"/>
<path d="M122.184 26.4207C123.611 28.8066 124.782 31.3123 126.208 33.6939C126.949 34.9297 127.473 36.1569 128.461 37.2515C128.742 37.5636 128.93 37.7902 129.266 38.0596C129.803 39.0816 130.854 39.8726 131.681 40.6465C131.996 40.9416 133.678 43.041 134.095 42.669C135.079 37.8458 138.247 32.129 138.924 27.3956C138.924 27.3785 139.175 27.4041 139.086 27.0706L146.815 32.4026C149.366 41.8053 150.529 53.7308 151.482 63.5183C151.806 66.8406 151.482 70.2656 152.611 73.4597C152.245 73.635 151.857 73.9129 151.482 74.1054C151.47 73.8659 151.976 73.4212 151.964 73.216C151.819 70.1202 136.923 56.7752 134.257 53.1706C131.331 49.2154 131.391 45.8546 127.256 42.1003C121.486 36.8624 121.107 36.6742 117.036 29.9782C117.768 30.2048 121.809 27.9044 121.865 27.635C121.741 27.3485 121.652 27.0364 121.541 26.7456C121.72 26.4121 121.882 26.1684 122.184 26.4207Z" fill="#F5CDA5"/>
<path d="M146.815 32.4026L139.086 27.0706C137.029 22.3073 133.976 17.9672 131.681 13.2509C131.31 12.4855 130.624 9.80883 130.395 9.45393L135.385 7.83765C135.539 7.94454 135.892 7.90606 136.19 8.24386C136.263 8.3251 136.697 9.2829 136.833 9.53517C139.657 14.7603 145.342 26.9851 146.815 32.4069V32.4026Z" fill="#F5CDA5"/>
<path d="M118.965 3.14259C120.332 3.82245 130.037 8.89793 130.394 9.44525C130.629 9.80442 131.31 12.4811 131.68 13.2422C133.976 17.9585 137.029 22.2986 139.086 27.0619C139.175 27.3954 138.928 27.3655 138.924 27.3869L133.69 23.1837C133.018 23.0853 132.983 22.3584 132.481 23.0212C131.787 22.166 131.668 20.7208 131.195 19.7886L129.262 12.2716C128.614 11.6131 128.342 10.1379 127.171 10.2491C126.046 8.43614 121.094 8.85517 118.96 8.79531C118.224 7.876 116.754 7.70924 115.822 7.01654C114.323 5.90909 111.755 1.8812 113.488 0.388916C114.932 1.62465 117.151 2.24038 118.96 3.13831L118.965 3.14259Z" fill="url(#paint5_linear_370_139933)"/>
<path d="M135.385 7.83331L130.394 9.44959C130.036 8.90228 120.331 3.82252 118.964 3.14693L120.574 1.36816C124.513 2.56969 132.089 5.52433 135.385 7.83331Z" fill="#F5CDA5"/>
<path d="M120.575 1.36386L118.965 3.14263C117.155 2.24469 114.932 1.62896 113.493 0.393233C114.8 -0.731326 118.863 0.842201 120.575 1.36386Z" fill="#F5C2A9"/>
<path d="M115.264 23.0255C114.344 24.2099 114.289 23.9577 114.135 25.4499C113.735 29.3496 119.599 36.5844 121.06 40.4027C124.598 49.6771 123.057 59.4133 132.489 66.3445C132.323 69.2308 132.157 71.3986 128.708 70.0603L128.627 70.7059C124.522 66.1222 123.227 62.6202 122.026 56.5613C121.413 53.4741 121.464 48.5226 120.093 45.9742C120.042 45.8844 120.127 45.5637 120.093 45.4098L119.769 45.3285C120.689 45.0079 119.961 43.8106 119.769 43.2291C117.994 37.8329 113.224 31.6158 113.169 25.7706C113.147 23.7139 113.607 23.8764 115.26 23.0212L115.264 23.0255Z" fill="#D88864"/>
<path d="M144.562 78.1459C144.103 78.4281 143.66 78.8728 143.276 79.1166C143.166 79.1892 142.842 79.3047 142.633 79.4415C142.229 78.6719 140.334 73.2586 139.814 73.1389C137.77 73.7974 134.64 74.0111 132.571 73.4638C131.17 73.0918 130.25 71.4713 128.947 71.0394C128.844 70.9325 128.734 70.8384 128.623 70.7144L128.704 70.0688C132.158 71.4029 132.319 69.235 132.485 66.353C137.293 69.8849 144.558 70.2997 144.558 78.1545L144.562 78.1459Z" fill="#E79D73"/>
<path d="M142.629 79.4373C141.16 80.3822 139.567 81.2203 138.123 82.1867C137.08 80.5576 136.433 78.2785 135.228 76.7734C133.784 74.9732 130.867 73.0961 128.951 71.0352C130.254 71.467 131.174 73.0876 132.575 73.4596C134.644 74.0069 137.774 73.7931 139.818 73.1346C140.334 73.2543 142.233 78.6676 142.637 79.4373H142.629Z" fill="#C5795A"/>
<path d="M117.031 29.9781C121.102 36.6742 121.481 36.8623 127.252 42.1003C131.391 45.8545 131.327 49.2153 134.253 53.1705C136.918 56.7751 151.815 70.1201 151.959 73.2159C151.968 73.4211 151.461 73.8658 151.478 74.1053C150.767 74.4687 150.081 74.8493 149.387 75.2384C147.735 76.1577 146.168 77.1625 144.558 78.146C144.558 70.2955 137.293 69.8807 132.485 66.3445C123.053 59.4133 124.594 49.6771 121.056 40.4027C119.599 36.5844 113.731 29.3538 114.131 25.45C114.638 27.1731 116.197 28.6056 117.027 29.9738L117.031 29.9781Z" fill="#F5CDA5"/>
<path d="M138.928 27.3911C138.251 32.1245 135.083 37.8457 134.099 42.6646C133.682 43.0366 132 40.9371 131.685 40.6421C132.57 36.1952 134.938 30.9829 133.775 26.4975C133.661 26.0528 132.583 23.3932 132.328 23.1837C132.511 23.2136 132.472 23.0468 132.489 23.0212C132.992 22.3541 133.026 23.0853 133.699 23.1837L138.932 27.3869L138.928 27.3911Z" fill="#D88864"/>
<path d="M132.328 23.188C132.583 23.3976 133.661 26.0572 133.776 26.5019C134.938 30.9873 132.57 36.1953 131.685 40.6465C130.859 39.8726 129.807 39.0815 129.27 38.0596C129.73 38.4273 130.488 39.197 130.718 38.7865C130.931 38.4102 130.245 36.114 130.718 35.3914C130.505 35.0066 130.164 35.2247 129.913 35.1477C134.316 33.168 130.288 31.8724 128.303 30.1364C128.21 27.4511 128.261 24.7359 128.142 22.0549C129.066 22.3329 131.642 22.6193 132.328 23.188Z" fill="#A36C5B"/>
<path d="M121.541 26.7412C121.652 27.032 121.737 27.3441 121.865 27.6306C121.809 27.9 117.768 30.2004 117.035 29.9738C116.201 28.6012 114.642 27.1688 114.14 25.4499C114.293 23.9576 114.348 24.2099 115.268 23.0254C115.685 22.8116 116.644 22.2985 117.04 22.2173C118.675 22.1019 121.038 25.4114 121.545 26.7412H121.541Z" fill="#F6D7C7"/>
<path d="M129.913 35.1476C130.164 35.2246 130.505 35.0065 130.718 35.3913C130.245 36.114 130.931 38.4101 130.718 38.7864C130.484 39.1969 129.73 38.4272 129.27 38.0595C128.934 37.7901 128.746 37.5635 128.465 37.2514C128.895 36.5758 128.495 35.665 128.465 34.9894C128.938 34.9723 129.466 35.0151 129.913 35.1519V35.1476Z" fill="#7C433B"/>
<path d="M122.184 26.4204C121.882 26.1682 121.72 26.4076 121.541 26.7454C121.034 25.4113 118.667 22.1061 117.036 22.2215C120.344 21.5374 120.796 24.0986 122.188 26.4247L122.184 26.4204Z" fill="#F5CDA5"/>
<path d="M131.199 19.793C130.079 17.6038 127.946 16.7016 127.818 13.9735C127.762 13.3364 127.758 12.6694 127.656 12.0323C127.541 11.3139 127.596 10.9377 127.175 10.2535C128.346 10.1424 128.623 11.6133 129.266 12.276L131.199 19.793Z" fill="#C5795A"/>
<path d="M129.913 35.1476C129.466 35.015 128.933 34.9723 128.465 34.9851C128.397 33.3774 128.359 31.744 128.303 30.1362C130.288 31.8722 134.316 33.1678 129.913 35.1476Z" fill="#9F5D4B"/>
<path d="M0 104.977V114.029H10.9485C17.5151 102.484 24.7758 91.3372 31.5553 79.9249C31.5808 79.8864 31.5297 79.8009 31.5553 79.7624L23.1831 75.5592L22.4592 75.3967L21.7352 76.1236L0 104.977Z" fill="#F19236"/>
<path d="M31.5511 79.9207C24.7758 91.333 17.5109 102.48 10.9443 114.025H20.9262C26.2365 103.853 32.1132 93.9926 37.6662 83.9614C37.6875 83.9186 37.6449 83.8416 37.6662 83.7989L31.5511 79.9207Z" fill="url(#paint6_linear_370_139933)"/>
<path d="M23.1831 75.5592L31.5553 79.7624C32.6199 77.9708 33.6291 76.1065 34.6128 74.2679C33.9145 73.8788 33.2331 73.5025 32.5219 73.1348C32.1472 72.9424 31.7597 72.6644 31.3934 72.4891C29.8391 71.7451 28.2549 71.0139 26.6452 70.3896L23.1831 75.5635V75.5592Z" fill="#CFEBEF"/>
<path d="M34.6128 74.2637C33.6291 76.1023 32.6198 77.9666 31.5552 79.7582C31.5297 79.7967 31.5808 79.8822 31.5552 79.9207L37.6704 83.7989C38.7052 81.9261 39.8848 80.1174 40.728 78.1419C40.3447 77.8982 39.8976 77.4535 39.4419 77.1713C37.8322 76.1835 36.2651 75.1787 34.6128 74.2637Z" fill="#A5D3DA"/>
<path d="M20.9263 114.029H35.5754L47.167 90.512C47.1585 90.388 45.6297 89.148 45.3954 88.9769C44.663 88.4339 43.4962 87.7754 42.6572 87.1981C41.0305 86.0821 39.3229 85.0388 37.6663 83.9656C32.109 93.9968 26.2323 103.857 20.9263 114.029Z" fill="url(#paint7_linear_370_139933)"/>
<path d="M44.5903 91.239C44.8501 91.8675 45.2121 92.3721 44.914 93.0177C45.1695 92.9279 45.6209 93.0691 45.8806 92.774C45.9871 92.6543 47.1582 89.8279 46.1234 89.9434C46.0254 90.5121 45.5102 90.1572 45.3185 90.2683C45.1099 90.3881 44.816 91.0979 44.5946 91.239H44.5903Z" fill="#8B2630"/>
<path d="M44.9143 93.0134C45.2124 92.3677 44.8504 91.8632 44.5907 91.2346C44.0711 91.5639 43.2322 91.2346 42.8192 91.9615C42.7382 93.5992 43.7134 93.4324 44.9101 93.0134H44.9143Z" fill="#1E1E2D"/>
<path d="M46.0425 81.5412C46.0425 81.5412 45.8977 81.229 45.8807 81.2162C44.4371 80.2541 42.8444 79.4118 41.3752 78.4668C41.1623 78.33 40.8429 78.2145 40.7322 78.1418C39.8847 80.1173 38.7094 81.926 37.6746 83.7988C37.6533 83.8416 37.6959 83.9186 37.6746 83.9613C39.3311 85.0346 41.0388 86.0779 42.6655 87.1939C43.5045 87.7711 44.667 88.4296 45.4037 88.9727L48.6231 83.2344C48.5891 82.6657 46.4811 81.8319 46.0468 81.5369L46.0425 81.5412ZM43.4661 85.9026C43.5556 85.924 43.645 85.9282 43.7344 85.9154C43.645 85.924 43.5556 85.9197 43.4661 85.9026Z" fill="#68ACC2"/>
<path d="M77.2914 21.4736C77.2659 20.332 77.2403 19.186 77.2318 18.0444C77.2318 17.9161 77.2318 17.7878 77.2318 17.6595C77.2318 17.621 77.2318 17.5783 77.2318 17.5398C77.2318 17.527 77.2318 17.5141 77.2318 17.5013C77.2403 17.6125 77.1551 17.8861 77.0913 18.0144L76.708 18.3992C76.5717 18.4848 76.3418 18.5575 76.1927 18.5404C76.2012 18.5404 76.214 18.5404 76.2225 18.5404C76.2566 18.5404 76.2907 18.5404 76.329 18.5404C76.4355 18.5404 76.5462 18.5404 76.6526 18.5404C76.9933 18.5404 77.3297 18.5404 77.6704 18.5446C78.4242 18.5532 79.1779 18.566 79.9317 18.5746C80.102 18.5746 80.2766 18.5788 80.4469 18.5831C81.0048 18.5917 81.5371 18.0828 81.5116 17.5141C81.486 16.9454 81.0431 16.458 80.4469 16.4452C79.2205 16.4238 77.9983 16.3981 76.7719 16.3981C76.5802 16.3981 76.3886 16.3896 76.197 16.4067C75.6562 16.4494 75.2048 16.7787 75.1281 17.3474C75.1153 17.4543 75.1026 17.5483 75.1026 17.6595C75.094 18.3437 75.1153 19.0278 75.1239 19.7119C75.1324 20.302 75.1451 20.8921 75.1579 21.4822C75.1707 22.0423 75.6391 22.5768 76.2225 22.5511C76.8059 22.5255 77.2999 22.0808 77.2872 21.4822L77.2914 21.4736Z" fill="#68ACC2"/>
<path d="M107.714 21.4736C107.74 20.2549 107.774 19.0363 107.774 17.8177C107.774 17.3345 107.727 16.8128 107.237 16.552C106.943 16.3981 106.637 16.3938 106.317 16.3938C105.585 16.3938 104.857 16.4024 104.124 16.4152C103.558 16.4237 102.991 16.4323 102.429 16.4408C101.867 16.4494 101.339 16.924 101.365 17.5098C101.39 18.0956 101.833 18.5916 102.429 18.5788C103.656 18.5574 104.878 18.5317 106.104 18.5317C106.241 18.5317 106.373 18.5317 106.509 18.5317C106.551 18.5317 106.594 18.5317 106.632 18.5317C106.645 18.5317 106.658 18.5317 106.671 18.5317C106.53 18.5317 106.309 18.4847 106.16 18.3906L105.776 18.0058C105.7 17.8604 105.619 17.6338 105.636 17.4841C105.636 17.4927 105.636 17.5055 105.636 17.5141C105.636 17.5483 105.636 17.5782 105.636 17.6124C105.636 17.715 105.636 17.8134 105.636 17.916C105.636 18.241 105.632 18.5617 105.627 18.8866C105.619 19.5836 105.602 20.2806 105.589 20.9776C105.589 21.14 105.581 21.3025 105.581 21.465C105.568 22.0251 106.079 22.5596 106.645 22.534C107.212 22.5083 107.697 22.0636 107.71 21.465L107.714 21.4736Z" fill="#68ACC2"/>
<path d="M75.1622 33.3091C75.1366 34.5277 75.1025 35.7464 75.1025 36.965C75.1025 37.4482 75.1494 37.9698 75.6391 38.2307C75.9329 38.3846 76.2395 38.3889 76.5589 38.3889C77.2914 38.3889 78.0196 38.3803 78.752 38.3675C79.3184 38.3589 79.8848 38.3504 80.4469 38.3418C81.009 38.3333 81.5371 37.8587 81.5115 37.2729C81.486 36.6871 81.0431 36.1911 80.4469 36.2039C79.2205 36.2253 77.9983 36.2509 76.7719 36.2509C76.6356 36.2509 76.5036 36.2509 76.3673 36.2509C76.3247 36.2509 76.2821 36.2509 76.2438 36.2509C76.231 36.2509 76.2183 36.2509 76.2055 36.2509C76.346 36.2509 76.5675 36.298 76.7165 36.392L77.0998 36.7769C77.1764 36.9222 77.2573 37.1489 77.2403 37.2985C77.2403 37.29 77.2403 37.2771 77.2403 37.2686C77.2403 37.2344 77.2403 37.2044 77.2403 37.1702C77.2403 37.0676 77.2403 36.9693 77.2403 36.8667C77.2403 36.5417 77.2445 36.221 77.2488 35.896C77.2573 35.1991 77.2744 34.5021 77.2871 33.8051C77.2871 33.6426 77.2956 33.4801 77.2956 33.3177C77.3084 32.7575 76.7974 32.223 76.231 32.2487C75.6647 32.2743 75.1792 32.719 75.1664 33.3177L75.1622 33.3091Z" fill="#68ACC2"/>
<path d="M105.585 33.3091C105.61 34.4508 105.636 35.5967 105.644 36.7384C105.644 36.8667 105.644 36.9949 105.644 37.1232C105.644 37.1617 105.644 37.2045 105.644 37.2429C105.644 37.2558 105.644 37.2686 105.644 37.2814C105.636 37.1703 105.721 36.8966 105.785 36.7683L106.168 36.3835C106.304 36.298 106.534 36.2253 106.683 36.2424C106.675 36.2424 106.662 36.2424 106.654 36.2424C106.62 36.2424 106.586 36.2424 106.547 36.2424C106.441 36.2424 106.33 36.2424 106.224 36.2424C105.883 36.2424 105.546 36.2424 105.206 36.2381C104.452 36.2296 103.698 36.2167 102.945 36.2082C102.774 36.2082 102.6 36.2039 102.429 36.1996C101.871 36.1911 101.339 36.6999 101.365 37.2686C101.39 37.8373 101.833 38.3247 102.429 38.3376C103.656 38.3589 104.878 38.3846 106.104 38.3846C106.296 38.3846 106.488 38.3932 106.679 38.3761C107.22 38.3333 107.671 38.0041 107.748 37.4354C107.761 37.3285 107.774 37.2344 107.774 37.1232C107.782 36.4391 107.761 35.7549 107.752 35.0708C107.744 34.4807 107.731 33.8906 107.718 33.3006C107.706 32.7404 107.237 32.2059 106.654 32.2316C106.07 32.2573 105.576 32.7019 105.589 33.3006L105.585 33.3091Z" fill="#68ACC2"/>
</g>
<defs>
<linearGradient id="paint0_linear_370_139933" x1="110.371" y1="0.363327" x2="73.005" y2="43.1379" gradientUnits="userSpaceOnUse">
<stop stop-color="#54A3C4"/>
<stop offset="1" stop-color="#166199"/>
</linearGradient>
<linearGradient id="paint1_linear_370_139933" x1="164.777" y1="92.5985" x2="154.839" y2="106.726" gradientUnits="userSpaceOnUse">
<stop stop-color="#CA4332"/>
<stop offset="1" stop-color="#E45333"/>
</linearGradient>
<linearGradient id="paint2_linear_370_139933" x1="146.555" y1="87.292" x2="152.564" y2="115.259" gradientUnits="userSpaceOnUse">
<stop stop-color="#96252D"/>
<stop offset="1" stop-color="#B3332F"/>
</linearGradient>
<linearGradient id="paint3_linear_370_139933" x1="54.8791" y1="38.7907" x2="38.4362" y2="75.676" gradientUnits="userSpaceOnUse">
<stop stop-color="#F0B386"/>
<stop offset="1" stop-color="#D99470"/>
</linearGradient>
<linearGradient id="paint4_linear_370_139933" x1="66.381" y1="10.852" x2="46.2917" y2="16.1435" gradientUnits="userSpaceOnUse">
<stop stop-color="#EBA167"/>
<stop offset="1" stop-color="#CF9174"/>
</linearGradient>
<linearGradient id="paint5_linear_370_139933" x1="113.927" y1="11.6559" x2="134.522" y2="15.3763" gradientUnits="userSpaceOnUse">
<stop stop-color="#F3B477"/>
<stop offset="1" stop-color="#DA9F7D"/>
</linearGradient>
<linearGradient id="paint6_linear_370_139933" x1="19.2271" y1="91.628" x2="29.1609" y2="105.756" gradientUnits="userSpaceOnUse">
<stop stop-color="#CA4332"/>
<stop offset="1" stop-color="#E45333"/>
</linearGradient>
<linearGradient id="paint7_linear_370_139933" x1="37.4491" y1="86.3216" x2="31.4363" y2="114.289" gradientUnits="userSpaceOnUse">
<stop stop-color="#96252D"/>
<stop offset="1" stop-color="#B3332F"/>
</linearGradient>
<clipPath id="clip0_370_139933">
<rect width="184" height="115" fill="white"/>
</clipPath>
</defs>
</svg>
