<svg width="130" height="133" viewBox="0 0 130 133" fill="none" xmlns="http://www.w3.org/2000/svg">
<g clip-path="url(#clip0_370_139931)">
<path d="M25.3543 63.6958C25.2545 64.604 26.5473 63.9149 26.7868 64.2893C26.8746 64.4287 26.2162 67.006 26.0725 67.504C20.4422 67.1016 13.1958 67.3406 7.46973 67.504C8.11616 66.1615 7.53357 65.6795 7.46973 64.2893L9.61651 63.6958C14.361 63.4488 20.6257 63.4249 25.3582 63.6958H25.3543Z" fill="#C2C1C0"/>
<path d="M40.3818 68.217C40.6372 69.6869 39.5359 69.1969 38.7139 70.2406V119.289L37.5208 119.409C37.3292 102.897 37.6644 86.3059 37.5208 69.7665C38.658 69.1531 39.4321 67.3326 40.3818 68.217Z" fill="#D5D5D4"/>
<path d="M40.8568 69.4082C40.1984 69.7189 39.4362 69.8942 38.9494 70.4797C38.9215 75.2001 38.9853 79.9285 38.9494 84.6449C38.8417 98.3281 39.0412 112.039 38.9494 125.714C39.8313 125.938 40.6732 125.75 41.571 125.834C40.9725 126.336 38.1873 130.574 37.5169 129.049C37.2854 128.523 37.5328 120.787 37.5169 119.405L38.71 119.285V70.2367C39.532 69.1931 40.6373 69.683 40.3779 68.2131C40.7411 68.5517 40.9326 68.8943 40.8568 69.4042V69.4082Z" fill="#C7C7C6"/>
<path d="M9.61252 63.6958L7.46573 64.2893C7.52958 65.6796 8.11216 66.1616 7.46573 67.504C5.15136 67.5677 2.88886 66.8826 1.02539 68.6951C1.89927 63.66 5.36285 63.9149 9.61252 63.6958Z" fill="#A3A3A3"/>
<path d="M32.0339 64.8868C31.4593 65.2174 29.2805 68.4121 29.0531 68.4599C28.8935 68.4918 27.3572 67.5995 26.0723 67.5079C26.216 67.01 26.8744 64.4327 26.7866 64.2932C26.5512 63.9148 25.2543 64.6079 25.3541 63.6997C27.6405 63.8312 29.9469 63.8312 32.0339 64.8908V64.8868Z" fill="#A3A3A3"/>
<path d="M32.034 129.288V67.8585L34.1808 67.1454C33.6939 65.5879 33.3189 65.5361 32.034 64.8828C31.4594 65.2134 29.2807 68.4082 29.0532 68.456C28.8936 68.4879 27.3533 67.5956 26.0725 67.5039C20.4421 67.1016 13.1958 67.3406 7.46968 67.5039C5.15531 67.5677 2.89281 66.8825 1.02934 68.695C-1.98733 86.039 2.80103 110.725 0.78992 128.813C1.16102 131.486 2.62546 132.411 5.20319 132.741C9.09773 133.243 29.4443 133.096 32.1537 131.55C33.8136 130.602 35.1344 129.116 32.034 129.288Z" fill="#7E7E7E"/>
<path d="M82.8344 3.93574C81.382 3.40992 80.145 2.65306 79.734 4.76828L82.595 9.05449C83.6804 13.4283 85.7912 17.9257 86.1743 22.6262C86.9923 32.6685 82.7706 42.9697 82.1202 52.9842C79.0955 53.0439 76.0589 52.8129 73.0582 53.3427C81.0707 58.9315 89.985 58.8239 99.2944 58.9395C99.059 62.8911 98.5562 66.8904 98.3407 70.842C98.0215 76.6778 97.806 82.3901 97.3871 88.2219C96.8962 95.0257 96.1102 100.176 95.2403 106.793C94.3345 113.692 96.186 122.715 88.3251 125.842C76.4619 126.252 64.1798 125.894 52.4323 124.177C48.6894 123.631 45.0303 122.38 41.2236 122.273C40.0624 121.448 41.0201 102.546 40.8645 99.535C40.6091 94.5357 39.5876 90.2814 39.4319 85.7243C39.416 85.2901 39.6714 84.5492 38.9531 84.6527C38.989 79.9323 38.9252 75.2079 38.9531 70.4875C39.4399 69.9019 40.2021 69.7267 40.8605 69.416C40.9602 69.3682 41.2475 69.4638 41.3393 69.416L41.6984 73.2242C43.0751 74.3356 51.4228 62.2696 52.3126 60.9631C54.9143 57.1469 56.9254 52.781 59.7066 49.0605C63.4895 43.9975 68.9043 40.249 71.3942 34.2977C75.9631 23.383 73.3255 12.0301 69.008 1.56159C73.94 -1.16708 79.2232 -0.258854 82.8424 3.9437L82.8344 3.93574Z" fill="url(#paint0_linear_370_139931)"/>
<path d="M99.5259 88.218C108.217 88.4371 117.015 89.7118 125.762 88.9311C124.896 91.4725 120.778 95.0178 120.994 96.6709C121.042 97.0255 122.055 98.3559 122.187 98.9335L115.391 99.1726C114.41 97.7544 112.075 98.8061 110.623 98.4595C110.38 98.3998 109.266 97.0573 107.882 97.0294C108.516 97.1888 111.365 96.894 112.175 96.6709C110.467 96.3961 108.907 96.1491 107.762 94.8863C106.752 95.452 107.191 96.8542 107.882 97.0294C107.73 97.0294 105.264 97.9656 105.021 97.9815C104.677 97.7903 104.558 97.6309 104.067 97.7425L103.113 97.623C103.353 97.8779 103.792 97.6708 104.067 97.7425C104.302 97.8022 104.41 98.0173 105.021 97.9815C105.084 98.0173 105.264 98.9136 105.855 99.1726C105.946 99.2124 107.235 98.4914 107.522 99.6506H121.592C121.939 101.881 121.504 104.375 120.279 106.319C111.932 107.287 103.628 106.785 95.2363 106.797C96.1062 100.18 96.8923 95.0297 97.3831 88.226C98.0934 88.2379 98.8196 88.21 99.5299 88.226L99.5259 88.218Z" fill="#A4A4A4"/>
<path d="M128.388 71.7902C128.376 71.8141 127.925 72.0053 127.909 72.0292L98.3369 70.8381C98.5524 66.8826 99.0552 62.8871 99.2906 58.9355C108.193 59.0431 117.107 58.7324 126.002 58.4575C130.702 61.6443 130.934 67.3367 128.388 71.7902Z" fill="#B2B1B1"/>
<path d="M69.0003 1.55354C73.3178 12.0221 75.9554 23.375 71.3865 34.2897C68.8965 40.241 63.4857 43.9854 59.6989 49.0524C56.9177 52.773 54.9065 57.1388 52.3049 60.955C51.415 62.2616 43.0673 74.3275 41.6907 73.2161L41.3315 69.4079C49.7351 64.9982 52.5722 50.5661 57.3127 42.6231C60.9678 36.4925 67.1169 30.9356 68.0466 23.1001C68.5893 18.5231 65.6045 5.50514 66.8535 3.09913C67.2884 2.2626 68.2581 1.96384 69.0003 1.54956V1.55354Z" fill="#D0D1D0"/>
<path d="M121.229 106.315C120.791 107.577 120.052 108.406 119.562 109.41L117.534 111.792L104.059 112.151L106.801 112.27C106.765 115.062 106.262 113.122 105.607 113.461C106.174 114.915 109.893 113.839 110.855 114.413C110.93 114.457 110.938 115.485 111.569 115.843C112.858 116.572 116.696 115.764 116.936 115.963C116.485 116.747 117.084 117.568 116.936 118.58C116.848 119.185 115.91 121.727 115.503 122.153C113.999 123.726 110.512 122.85 108.824 124.177C102.016 125.149 95.1888 125.607 88.3135 125.842C96.1744 122.715 94.3229 113.696 95.2287 106.793C103.62 106.781 111.924 107.287 120.272 106.315C120.731 106.263 120.814 106.016 121.225 106.315H121.229Z" fill="#939393"/>
<path d="M88.3174 125.838C95.1927 125.599 102.02 125.141 108.828 124.173C110.966 123.866 113.105 123.276 115.268 123.221C111.23 129.108 105.184 128.961 98.4527 129.65C87.3437 130.785 73.5094 131.184 62.4403 129.889C55.3415 129.056 48.6578 126.499 41.571 125.842C40.6692 125.758 39.8312 125.945 38.9494 125.722C39.0412 112.047 38.8416 98.3358 38.9494 84.6526C39.6676 84.5491 39.4123 85.29 39.4282 85.7242C39.5838 90.2813 40.6054 94.5356 40.8607 99.5349C41.0164 102.546 40.0587 121.448 41.2199 122.273C45.0266 122.38 48.6857 123.631 52.4286 124.177C64.1761 125.893 76.4582 126.252 88.3214 125.842L88.3174 125.838Z" fill="#7F7F7F"/>
<path d="M82.8348 3.93565C86.5378 8.23381 90.4483 18.4116 90.9431 24.0561C91.8449 34.3176 86.5937 42.5474 89.0358 52.5061C88.0422 52.3348 83.6648 52.9522 82.1206 52.9841C82.771 42.9696 86.9927 32.6684 86.1747 22.6261C85.7917 17.9256 83.6848 13.4283 82.5954 9.0544L79.7344 4.76819C80.1454 2.65297 81.3824 3.40983 82.8348 3.93565Z" fill="#939393"/>
<path d="M126.002 58.4574C117.108 58.7323 108.193 59.043 99.2909 58.9354C89.9815 58.8239 81.0712 58.9275 73.0547 53.3387C76.0594 52.8128 79.092 53.0399 82.1167 52.9802C83.6609 52.9483 88.0383 52.3308 89.0318 52.5021C89.1994 52.53 91.2584 53.972 92.0126 54.1672C101.605 56.6728 118.253 53.1992 125.998 58.4534L126.002 58.4574Z" fill="#D0D1D0"/>
<path d="M125.763 80.1235C122.834 80.1832 119.877 80.1155 116.94 80.1235L119.921 79.4104C118.728 80.0717 108.473 77.9325 111.098 76.0762C114.027 75.7217 123.412 76.618 125.647 75.8372C126.066 75.6899 127.538 72.6306 127.913 72.029C127.929 72.0051 128.376 71.8139 128.392 71.79C128.68 73.483 125.176 76.7176 125.052 77.8608C124.984 78.5022 125.651 79.498 125.767 80.1235H125.763Z" fill="#939393"/>
<path d="M119.561 109.41C119.122 110.302 117.223 112.884 117.175 113.099C116.996 113.959 117.881 116.871 117.654 118.576C117.427 120.281 116.205 121.854 115.268 123.221C113.105 123.276 110.97 123.866 108.827 124.173C110.511 122.846 113.999 123.723 115.507 122.149C115.914 121.723 116.852 119.181 116.94 118.576C117.087 117.56 116.489 116.744 116.94 115.959C116.704 115.76 112.862 116.572 111.573 115.839C110.938 115.481 110.934 114.457 110.858 114.409C109.897 113.836 106.178 114.907 105.611 113.457C106.266 113.119 106.768 115.059 106.804 112.266L104.063 112.147L117.538 111.788L119.565 109.406L119.561 109.41Z" fill="#868686"/>
<path d="M116.94 80.1235C119.877 80.1155 122.834 80.1832 125.763 80.1235C126.421 83.6847 127.028 85.2223 125.763 88.9309C117.016 89.7077 108.217 88.4369 99.5264 88.2179L124.925 88.6959C126.333 86.744 125.348 84.3101 125.998 82.1471L125.403 81.5535C123.68 81.2309 109.961 82.2347 109.542 80.96C109.327 80.2987 109.682 80.1713 110.137 79.8884C112.435 80.3903 114.606 80.1314 116.932 80.1274L116.94 80.1235Z" fill="#A4A4A4"/>
<path d="M122.187 98.9335C122.794 101.567 122.095 103.845 121.234 106.315C120.823 106.016 120.739 106.263 120.28 106.315C121.501 104.371 121.936 101.877 121.593 99.6465H107.523C107.236 98.4873 105.947 99.2083 105.855 99.1685C105.26 98.9096 105.085 98.0133 105.021 97.9775C105.268 97.9615 107.73 97.0214 107.882 97.0254C109.267 97.0493 110.384 98.3957 110.623 98.4555C112.076 98.802 114.414 97.7504 115.392 99.1685L122.187 98.9295V98.9335Z" fill="#A4A4A4"/>
<path d="M127.909 72.029C127.534 72.6345 126.062 75.6898 125.643 75.8372C123.408 76.618 114.023 75.7177 111.094 76.0762C108.468 77.9325 118.727 80.0716 119.917 79.4104L116.936 80.1234C114.605 80.1314 112.435 80.3863 110.14 79.8844C109.685 80.1672 109.33 80.2947 109.546 80.956C109.965 82.2347 123.683 81.2268 125.407 81.5495L126.002 82.143C125.351 84.3061 126.337 86.74 124.928 88.6919L99.5301 88.2138C98.8198 88.1979 98.0976 88.2258 97.3833 88.2138C97.8023 82.3821 98.0178 76.6658 98.337 70.834L127.909 72.025V72.029Z" fill="url(#paint1_linear_370_139931)"/>
<path d="M107.874 97.0293C107.184 96.8541 106.745 95.4519 107.754 94.8862C108.9 96.149 110.46 96.396 112.168 96.6708C111.358 96.8939 108.509 97.1887 107.874 97.0293Z" fill="#939393"/>
<path d="M104.059 97.7423C103.784 97.6706 103.345 97.8777 103.105 97.6228L104.059 97.7423Z" fill="#A4A4A4"/>
<path d="M105.013 97.9815C104.402 98.0173 104.295 97.8062 104.059 97.7424C104.554 97.6309 104.67 97.7863 105.013 97.9815Z" fill="#A4A4A4"/>
</g>
<defs>
<linearGradient id="paint0_linear_370_139931" x1="103.349" y1="19.7899" x2="49.0303" y2="122.011" gradientUnits="userSpaceOnUse">
<stop offset="0.25" stop-color="#B3B3B3"/>
<stop offset="1" stop-color="#999999"/>
</linearGradient>
<linearGradient id="paint1_linear_370_139931" x1="120.355" y1="70.6109" x2="102.965" y2="88.9288" gradientUnits="userSpaceOnUse">
<stop stop-color="#9D9D9D"/>
<stop offset="1" stop-color="#B0B0B0"/>
</linearGradient>
<clipPath id="clip0_370_139931">
<rect width="130" height="133" fill="white"/>
</clipPath>
</defs>
</svg>
